<?xml version="1.0" encoding="UTF-8" standalone="no"?>
<!-- Created with Inkscape (http://www.inkscape.org/) -->

<svg
   width="512"
   height="512"
   viewBox="0 0 512 512"
   version="1.1"
   id="svg1"
   inkscape:version="1.3.2 (091e20e, 2023-11-25, custom)"
   sodipodi:docname="sword_one_handed.svg"
   xmlns:inkscape="http://www.inkscape.org/namespaces/inkscape"
   xmlns:sodipodi="http://sodipodi.sourceforge.net/DTD/sodipodi-0.dtd"
   xmlns="http://www.w3.org/2000/svg"
   xmlns:svg="http://www.w3.org/2000/svg">
  <sodipodi:namedview
     id="namedview1"
     pagecolor="#ffffff"
     bordercolor="#000000"
     borderopacity="0.25"
     inkscape:showpageshadow="2"
     inkscape:pageopacity="0.0"
     inkscape:pagecheckerboard="0"
     inkscape:deskcolor="#d1d1d1"
     inkscape:document-units="px"
     inkscape:zoom="1.1131408"
     inkscape:cx="233.57334"
     inkscape:cy="289.72077"
     inkscape:window-width="1920"
     inkscape:window-height="1017"
     inkscape:window-x="1042"
     inkscape:window-y="276"
     inkscape:window-maximized="1"
     inkscape:current-layer="layer1" />
  <defs
     id="defs1" />
  <g
     inkscape:label="Layer 1"
     inkscape:groupmode="layer"
     id="layer1">
    <g
       transform="matrix(0.44489368,0,0,0.44500407,181.38021,26.199898)"
       id="g4" />
    <g
       transform="matrix(4.4203153,0,0,4.4203153,-4.7364345,-1552.8242)"
       id="g264">
      <path
         d="m 9.8048716,360.00514 10.4197184,1.08365 62.39327,62.39327 -9.502783,9.50278 -62.143196,-62.14319 -1.1670094,-10.83651 m 79.0231394,73.06306 19.338989,19.29732 -6.04343,6.04343 -19.380674,-19.29731 -7.793949,7.83562 q -1.542118,1.50044 -4.209566,0.95862 -1.250366,-0.16672 -2.58409,-0.91694 -1.167008,-0.62518 -2.250659,-1.75051 l 29.25857,-29.25857 q 2.250659,2.25066 2.542411,5.00147 0.291752,1.3754 0,2.62577 -0.250073,0.83357 -0.958614,1.50044 l -7.918988,7.96066"
         fill="#ffffff"
         fill-rule="evenodd"
         stroke="none"
         id="path262"
         style="fill:#7e1fad;fill-opacity:1;stroke-width:0.833577" />
    </g>
  </g>
</svg>
