<?xml version="1.0" encoding="UTF-8" standalone="no"?>
<!-- Created with Inkscape (http://www.inkscape.org/) -->

<svg
   width="512"
   height="512"
   viewBox="0 0 512 512"
   version="1.1"
   id="svg1"
   inkscape:version="1.3.2 (091e20e, 2023-11-25, custom)"
   sodipodi:docname="dagger.svg"
   xmlns:inkscape="http://www.inkscape.org/namespaces/inkscape"
   xmlns:sodipodi="http://sodipodi.sourceforge.net/DTD/sodipodi-0.dtd"
   xmlns="http://www.w3.org/2000/svg"
   xmlns:svg="http://www.w3.org/2000/svg">
  <sodipodi:namedview
     id="namedview1"
     pagecolor="#ffffff"
     bordercolor="#000000"
     borderopacity="0.25"
     inkscape:showpageshadow="2"
     inkscape:pageopacity="0.0"
     inkscape:pagecheckerboard="0"
     inkscape:deskcolor="#d1d1d1"
     inkscape:document-units="px"
     inkscape:zoom="0.78710938"
     inkscape:cx="227.41439"
     inkscape:cy="234.40198"
     inkscape:window-width="1920"
     inkscape:window-height="1017"
     inkscape:window-x="1042"
     inkscape:window-y="276"
     inkscape:window-maximized="1"
     inkscape:current-layer="layer1" />
  <defs
     id="defs1" />
  <g
     inkscape:label="Layer 1"
     inkscape:groupmode="layer"
     id="layer1">
    <g
       transform="matrix(0.44489368,0,0,0.44500407,181.38021,26.199898)"
       id="g4">
      <path
         d="m 291.4,488 q 10.4,-10.7 34.55,-1.95 11.55,3.85 24.2,12.6 5.7,3.9 11.55,8.6 l 10.4,9.6 -71.15,71.35 165,165 17.3,-17.6 38.45,38.45 -96.65,96.6 -38.45,-38.4 17.85,-17.6 -165,-165 -71.35,71.1 q -23.05,-23.05 -29.6,-47.2 -5,-12.35 -4.75,-21.95 0.65,-6.85 5.6,-11.8 L 166.2,612.95 -163.7,283 -186.25,162.15 -69.05,183.3 263.35,515.7 291.4,488"
         fill="#ffffff"
         fill-rule="evenodd"
         stroke="none"
         id="path2"
         style="fill:#943838;fill-opacity:1" />
    </g>
  </g>
</svg>
