<?xml version="1.0" encoding="UTF-8" standalone="no"?>
<!-- Created with Inkscape (http://www.inkscape.org/) -->

<svg
   width="512"
   height="512"
   viewBox="0 0 512 512"
   version="1.1"
   id="svg1"
   inkscape:version="1.3.2 (091e20e, 2023-11-25, custom)"
   sodipodi:docname="KWD_KIT_Shield_Heavy_Legendary_RDD.svg"
   xmlns:inkscape="http://www.inkscape.org/namespaces/inkscape"
   xmlns:sodipodi="http://sodipodi.sourceforge.net/DTD/sodipodi-0.dtd"
   xmlns="http://www.w3.org/2000/svg"
   xmlns:svg="http://www.w3.org/2000/svg">
  <sodipodi:namedview
     id="namedview1"
     pagecolor="#ffffff"
     bordercolor="#000000"
     borderopacity="0.25"
     inkscape:showpageshadow="2"
     inkscape:pageopacity="0.0"
     inkscape:pagecheckerboard="0"
     inkscape:deskcolor="#d1d1d1"
     inkscape:document-units="px"
     inkscape:zoom="1.1131408"
     inkscape:cx="243.45528"
     inkscape:cy="234.02251"
     inkscape:window-width="1920"
     inkscape:window-height="1017"
     inkscape:window-x="1042"
     inkscape:window-y="276"
     inkscape:window-maximized="1"
     inkscape:current-layer="svg1" />
  <defs
     id="defs1" />
  <path
     d="M 427.49059,334.55525 Q 374.20963,444.30493 256.03519,505.09988 144.91934,444.30493 86.401366,336.60452 28.794172,227.76564 30.84344,90.237005 147.1963,81.812237 256.03519,6.900115 q 96.77098,72.635159 225.19176,84.703069 0,133.430096 -53.73636,242.952066 M 394.01922,155.13048 q 0,81.74301 -33.01598,148.91346 -32.56059,67.17044 -104.96805,104.28496 -68.08123,-37.11452 -103.82957,-102.91879 -35.52064,-66.94274 -34.15446,-150.96272 71.26898,-5.23701 137.98403,-51.00399 59.20107,44.4008 137.98403,51.68708 M 81.619742,127.57921 Q 80.025867,233.91344 124.42666,318.38881 169.96594,401.7257 256.03519,448.85887 347.56916,401.7257 388.7822,316.79494 430.45065,231.86417 430.45065,128.71769 330.94732,119.15444 256.03519,63.141131 171.78752,121.20371 81.619742,127.57921"
     fill="#ffffff"
     fill-rule="evenodd"
     stroke="none"
     id="path296"
     style="fill:#b24d5e;fill-opacity:1;stroke-width:4.55393" />
</svg>
