<?xml version="1.0" encoding="UTF-8" standalone="no"?>
<!-- Created with Inkscape (http://www.inkscape.org/) -->

<svg
   width="512"
   height="512"
   viewBox="0 0 512 512"
   version="1.1"
   id="svg1"
   sodipodi:docname="destruction.svg"
   inkscape:version="1.3.2 (091e20e, 2023-11-25, custom)"
   xmlns:inkscape="http://www.inkscape.org/namespaces/inkscape"
   xmlns:sodipodi="http://sodipodi.sourceforge.net/DTD/sodipodi-0.dtd"
   xmlns="http://www.w3.org/2000/svg"
   xmlns:svg="http://www.w3.org/2000/svg">
  <sodipodi:namedview
     id="namedview1"
     pagecolor="#ffffff"
     bordercolor="#000000"
     borderopacity="0.25"
     inkscape:showpageshadow="2"
     inkscape:pageopacity="0.0"
     inkscape:pagecheckerboard="0"
     inkscape:deskcolor="#d1d1d1"
     inkscape:document-units="px"
     inkscape:zoom="0.82128906"
     inkscape:cx="219.16766"
     inkscape:cy="229.51724"
     inkscape:window-width="1920"
     inkscape:window-height="1017"
     inkscape:window-x="1042"
     inkscape:window-y="276"
     inkscape:window-maximized="1"
     inkscape:current-layer="layer1" />
  <defs
     id="defs1" />
  <g
     inkscape:label="Layer 1"
     inkscape:groupmode="layer"
     id="layer1">
    <path
       id="path1"
       style="fill:#99192a;fill-opacity:1;fill-rule:evenodd;stroke-width:1.80093"
       d="M 242.17079,2.7657609e-6 C 239.54222,15.618706 238.58732,19.896667 247.33597,28.859285 c 5.257,10.720389 2.64934,16.423319 0.061,27.37305 7.81958,17.139166 21.40452,31.015816 2.70746,53.555335 -2.87511,1.15073 -5.58049,1.88095 -7.99446,2.00393 -11.23305,0.57227 -19.84456,-27.290819 -19.84456,-27.290819 -13.22191,20.347319 -11.55874,42.111859 6.09103,65.399319 l 5.38446,165.34949 37.81307,3.1186 -5.83214,-168.74219 c 7.41307,-25.33176 16.62769,-51.654309 32.70576,-73.418149 -0.085,-0.18209 -0.39609,-0.11258 -0.8223,0.0853 -18.71826,2.24841 -25.02326,-5.38985 -26.19748,-30.491667 3.20127,-10.329815 16.25089,-20.861466 3.22823,-30.860179 -19.70421,1.4047 -26.6813,-7.0657412 -32.46518,-14.941277234239 z M 175.41316,23.322532 c -1.54957,34.087543 -20.68031,45.061659 -31.35657,60.520409 -9.72379,14.0796 -4.3385,34.125869 24.76303,43.703109 l 3.82518,34.70055 9.37102,166.15657 33.62856,-11.02781 -10.47353,-158.98741 C 154.07237,135.16258 223.22983,87.928661 175.41316,23.322532 Z m 156.49161,9.319278 c -3.19468,12.479188 14.33268,47.758051 5.67378,57.091161 -43.47848,46.863779 -61.02829,112.044889 -38.32776,242.373539 l 27.67761,31.57586 -0.58474,-75.79012 c 41.45865,-28.19371 88.89519,-41.587 51.12805,-99.71616 -4.6487,55.03174 -48.49712,61.04209 -56.61302,4.73578 8.78439,-45.23781 28.78104,-87.29522 38.47395,-112.108329 4.80814,-12.30842 -2.32065,-22.842423 -8.31728,-28.88974 z M 107.89114,78.495041 c -0.10806,-3.9e-4 -0.23767,0.0476 -0.39289,0.14314 -61.862345,38.078169 5.01178,58.934409 7.41888,98.896909 l 6.65443,245.37947 c 10.23941,65.03407 52.48205,92.68457 104.54633,88.71269 155.32718,-11.84957 89.99642,-241.21233 -34.39856,-156.7068 0.008,0.003 0.0166,0.003 0.0244,0.006 -16.25919,11.17427 -26.1105,30.5564 -26.11831,51.38692 -4.5e-4,33.64446 23.16856,60.91909 54.28574,60.91938 31.11837,10e-4 56.34546,-27.27363 56.34501,-60.91938 -0.006,-16.54497 -6.237,-32.37542 -17.25891,-43.85233 12.38217,3.54246 23.78146,10.83788 28.28672,28.00654 C 320.84324,518.35549 95.189188,518.14448 163.56915,355.79755 149.57621,275.95498 172.94949,153.86841 130.2695,140.88556 93.143601,123.44388 111.23947,78.507141 107.89108,78.495211 Z m 322.7877,180.751129 c -46.846,34.64577 -71.36979,47.05104 -73.57044,105.82799 -1.96654,58.79979 -21.52717,105.11161 -58.68091,138.93626 67.23726,-9.10049 100.29474,-61.89061 99.171,-158.36967 -0.39799,-48.80974 10.62889,-54.73668 33.08035,-86.39458 z"
       sodipodi:nodetypes="ccccscccccccccsccscccccccscccccsccccccsccccccsccccccccc" />
  </g>
</svg>
