<?xml version="1.0" encoding="UTF-8" standalone="no"?>
<!-- Created with Inkscape (http://www.inkscape.org/) -->

<svg
   width="512"
   height="512"
   viewBox="0 0 512 512"
   version="1.1"
   id="svg1"
   inkscape:version="1.3.2 (091e20e, 2023-11-25, custom)"
   sodipodi:docname="bow.svg"
   xmlns:inkscape="http://www.inkscape.org/namespaces/inkscape"
   xmlns:sodipodi="http://sodipodi.sourceforge.net/DTD/sodipodi-0.dtd"
   xmlns="http://www.w3.org/2000/svg"
   xmlns:svg="http://www.w3.org/2000/svg">
  <sodipodi:namedview
     id="namedview1"
     pagecolor="#ffffff"
     bordercolor="#000000"
     borderopacity="0.25"
     inkscape:showpageshadow="2"
     inkscape:pageopacity="0.0"
     inkscape:pagecheckerboard="0"
     inkscape:deskcolor="#d1d1d1"
     inkscape:document-units="px"
     inkscape:zoom="0.78710938"
     inkscape:cx="229.95533"
     inkscape:cy="151.82134"
     inkscape:window-width="1920"
     inkscape:window-height="1017"
     inkscape:window-x="1042"
     inkscape:window-y="276"
     inkscape:window-maximized="1"
     inkscape:current-layer="layer1" />
  <defs
     id="defs1" />
  <g
     inkscape:label="Layer 1"
     inkscape:groupmode="layer"
     id="layer1">
    <g
       transform="matrix(0.44489368,0,0,0.44500407,181.38021,26.199898)"
       id="g4" />
    <path
       d="M 340.7097,204.2847 Q 319.60621,193.42154 307.93789,171.38803 291.35659,136.62034 266.4288,115.78762 226.23171,81.969397 163.89831,83.952125 119.87692,85.152949 80.461423,97.747508 60.697848,103.86329 42.664977,112.88333 l -3.321828,1.7314 357.977431,358.09344 q 0.94913,-1.70347 1.73071,-3.96546 1.98195,-3.71414 3.57308,-7.42832 23.61581,-52.13756 25.48609,-113.04391 3.04269,-101.2592 -87.40076,-143.98578 m 74.14128,258.34223 -0.41873,0.80984 q 1.59117,0.78191 3.32188,1.98274 l 0.13968,0.13968 q 5.30376,4.49604 5.83417,14.18632 0.39078,9.69027 -3.85224,18.71034 -4.7734,9.15969 -11.66831,12.20359 -6.89493,3.32321 -12.33829,-1.59175 -5.02465,-4.24473 -5.97373,-13.93504 0.279,-0.7819 -0.1116,-1.59175 0.25128,-4.77531 1.45155,-9.2714 l 0.92119,-1.45214 q -0.13969,-0.5306 0,-0.6702 L 29.796472,119.64144 q -0.530358,0.27938 -1.172397,0.80985 -5.582941,1.3125 -11.807891,1.3125 -9.5468095,-0.6702 -14.0689939,-6.08781 -4.6338151,-5.05461 -1.4515557,-12.09191 3.1822696,-6.758045 12.1987206,-11.673007 8.876831,-4.384374 18.702798,-3.853783 9.79804,0.670232 14.180635,5.836516 1.339914,1.871015 2.261072,3.60242 9.686387,-5.976125 20.573121,-11.030701 55.438489,-27.339444 121.344969,-29.322171 62.3334,-1.843118 102.53048,31.863428 28.24963,23.736978 45.75214,65.123088 5.97373,13.29275 19.09359,19.12927 100.0182,41.77708 96.83594,148.20256 -2.26111,77.60599 -39.91797,141.16527"
       fill="#ffffff"
       fill-rule="evenodd"
       stroke="none"
       id="path2"
       style="fill:#cb974d;fill-opacity:1;stroke-width:0.558405" />
  </g>
</svg>
