<?xml version="1.0" encoding="UTF-8" standalone="no"?>
<!-- Created with Inkscape (http://www.inkscape.org/) -->

<svg
   width="512"
   height="512"
   viewBox="0 0 135.46666 135.46667"
   version="1.1"
   id="svg1"
   inkscape:version="1.3.2 (091e20e, 2023-11-25, custom)"
   sodipodi:docname="KWD_KIT_Potion_EnhanceHealthRegen.svg"
   xmlns:inkscape="http://www.inkscape.org/namespaces/inkscape"
   xmlns:sodipodi="http://sodipodi.sourceforge.net/DTD/sodipodi-0.dtd"
   xmlns="http://www.w3.org/2000/svg"
   xmlns:svg="http://www.w3.org/2000/svg">
  <sodipodi:namedview
     id="namedview1"
     pagecolor="#ffffff"
     bordercolor="#000000"
     borderopacity="0.25"
     inkscape:showpageshadow="2"
     inkscape:pageopacity="0.0"
     inkscape:pagecheckerboard="0"
     inkscape:deskcolor="#d1d1d1"
     inkscape:document-units="px"
     inkscape:zoom="0.78710938"
     inkscape:cx="152.45657"
     inkscape:cy="322.06451"
     inkscape:window-width="1920"
     inkscape:window-height="1017"
     inkscape:window-x="1042"
     inkscape:window-y="276"
     inkscape:window-maximized="1"
     inkscape:current-layer="layer1" />
  <defs
     id="defs1" />
  <g
     inkscape:label="Layer 1"
     inkscape:groupmode="layer"
     id="layer1">
    <path
       style="fill:#8a2832;fill-opacity:1;fill-rule:evenodd;stroke:none;stroke-width:0.261416"
       d="M 60.87724,81.8647 H 46.151045 V 94.391311 H 60.87724 V 109.18184 H 73.404874 V 94.391311 H 88.306711 V 81.8647 H 73.404874 V 67.025153 H 60.87724 V 81.8647 M 78.092014,12.005895 v 2.992009 h 4.5115 c 1.242757,0 2.35174,0.527941 3.32797,1.583823 1.092644,1.241736 1.639989,2.633582 1.639989,4.175538 0,1.466391 -0.547345,2.762247 -1.639989,3.88859 -0.827143,0.938449 -1.653263,1.559316 -2.480406,1.863623 -0.14909,0.831226 -0.562659,1.526639 -1.239693,2.087257 0,0.228741 -0.130709,0.437059 -0.392124,0.623931 -0.382939,0.335964 -0.817954,0.541216 -1.303008,0.615762 v 13.487526 l 3.27181,0.847564 c 6.360821,2.186313 12.174307,5.873731 17.437387,11.062264 9.25379,8.991343 13.87965,19.881026 13.87965,32.670077 0,12.788021 -4.62586,23.697111 -13.87965,32.725221 -3.722138,3.61595 -7.764929,6.53238 -12.127342,8.75137 h -42.71628 c -4.44206,-2.21899 -8.486887,-5.13542 -12.134484,-8.75137 -9.257866,-9.02811 -13.885778,-19.9372 -13.885778,-32.725221 0,-12.789051 4.627912,-23.678734 13.885778,-32.670077 5.338644,-5.342725 11.506469,-9.105716 18.50348,-11.286917 0.452375,-0.154198 0.961936,-0.303286 1.52664,-0.448294 V 29.836428 h -0.118456 c -0.939471,0 -1.765591,-0.41255 -2.480405,-1.239693 -0.411527,-0.560618 -0.672949,-1.256031 -0.784252,-2.087257 -1.242758,-0.150111 -2.296598,-0.770979 -3.160501,-1.863623 -0.943556,-1.126343 -1.415333,-2.422199 -1.415333,-3.88859 0,-1.541956 0.471777,-2.933802 1.415333,-4.175538 0.981336,-1.055882 2.164863,-1.583823 3.552626,-1.583823 h 4.511497 v -2.992009 c 0,-3.9467958 1.91979,-5.9196835 5.759363,-5.9196835 h 10.782466 c 3.834466,0 5.752212,1.9728877 5.752212,5.9196835"
       id="path1" />
  </g>
</svg>
