<?xml version="1.0" encoding="UTF-8" standalone="no"?>
<!-- Created with Inkscape (http://www.inkscape.org/) -->

<svg
   width="512"
   height="512"
   viewBox="0 0 135.46666 135.46667"
   version="1.1"
   id="svg1"
   inkscape:version="1.3.2 (091e20e, 2023-11-25, custom)"
   sodipodi:docname="Misc_Bedrolll.svg"
   xml:space="preserve"
   xmlns:inkscape="http://www.inkscape.org/namespaces/inkscape"
   xmlns:sodipodi="http://sodipodi.sourceforge.net/DTD/sodipodi-0.dtd"
   xmlns="http://www.w3.org/2000/svg"
   xmlns:svg="http://www.w3.org/2000/svg"><sodipodi:namedview
     id="namedview1"
     pagecolor="#ffffff"
     bordercolor="#000000"
     borderopacity="0.25"
     inkscape:showpageshadow="2"
     inkscape:pageopacity="0.0"
     inkscape:pagecheckerboard="0"
     inkscape:deskcolor="#d1d1d1"
     inkscape:document-units="px"
     inkscape:zoom="1.0595392"
     inkscape:cx="245.38969"
     inkscape:cy="277.95102"
     inkscape:window-width="1920"
     inkscape:window-height="1009"
     inkscape:window-x="1042"
     inkscape:window-y="235"
     inkscape:window-maximized="1"
     inkscape:current-layer="svg1"
     showgrid="true"><inkscape:grid
       id="grid1"
       units="px"
       originx="0"
       originy="0"
       spacingx="0.26458332"
       spacingy="0.26458334"
       empcolor="#0099e5"
       empopacity="0.30196078"
       color="#0099e5"
       opacity="0.14901961"
       empspacing="5"
       dotted="false"
       gridanglex="30"
       gridanglez="30"
       visible="true" /></sodipodi:namedview><defs
     id="defs1" /><path
     id="path1"
     style="fill:#6b422e;fill-opacity:1;fill-rule:evenodd;stroke-width:0.268074"
     d="m 94.269494,17.817154 c -1.281363,0.054 -2.540441,0.26755 -3.780006,0.619174 -9.126327,2.588878 -17.20465,12.64995 -25.433839,21.683743 0.112894,-0.0036 0.225341,-0.01401 0.338326,-0.01589 6.150292,-0.15461 12.291196,1.776867 17.350453,5.25154 7.419854,4.900804 12.293505,13.588689 12.207327,22.525352 -0.0055,3.475148 -0.670813,6.883065 -1.800047,10.144657 C 113.5502,63.348512 124.96137,50.93132 121.59591,40.786911 118.01143,29.98237 113.69971,20.56773 97.301349,17.990523 c -0.58579,-0.09206 -1.16675,-0.149046 -1.743037,-0.173369 -0.432215,-0.01824 -0.861698,-0.01799 -1.288818,0 z M 66.349141,42.963603 c -1.838103,-0.01024 -3.660963,0.194439 -5.424441,0.630857 -3.904046,0.966169 -7.517429,3.067398 -10.360549,6.481945 27.508223,-8.656979 41.22889,22.393619 33.4976,38.613154 19.248569,-25.428114 0.05572,-45.626967 -17.71261,-45.725956 z m -9.654457,8.567513 c -3.820568,0.03022 -7.6748,1.025037 -11.276462,3.215971 l -14.017187,9.83577 c 8.651258,-1.671684 17.937394,0.624329 24.89177,6.015578 6.909792,5.243222 11.350843,13.488813 12.165737,22.100575 0.426446,4.08806 -0.02201,8.23383 -1.214051,12.15638 C 73.720174,96.67526 82.636245,91.506525 83.30519,77.578523 83.555385,63.619427 70.33957,51.423172 56.694684,51.531116 Z M 36.462849,67.429661 c -1.989106,0.06635 -4.001046,0.358905 -6.00483,0.895817 -27.140714,7.272333 -21.3035321,48.516202 11.831617,49.331652 14.74732,0.36292 24.77807,-15.90409 20.932321,-30.256856 -3.124769,-11.66159 -13.394525,-19.485977 -24.778683,-19.962203 -0.656778,-0.02747 -1.31739,-0.03053 -1.980425,-0.0084 z" /></svg>
