<?xml version="1.0" encoding="UTF-8" standalone="no"?>
<!-- Created with Inkscape (http://www.inkscape.org/) -->

<svg
   width="512"
   height="512"
   viewBox="0 0 135.46666 135.46667"
   version="1.1"
   id="svg1"
   inkscape:version="1.3.2 (091e20e, 2023-11-25, custom)"
   sodipodi:docname="KWD_KIT_Potion_EnhanceMagickaRate.svg"
   xmlns:inkscape="http://www.inkscape.org/namespaces/inkscape"
   xmlns:sodipodi="http://sodipodi.sourceforge.net/DTD/sodipodi-0.dtd"
   xmlns="http://www.w3.org/2000/svg"
   xmlns:svg="http://www.w3.org/2000/svg">
  <sodipodi:namedview
     id="namedview1"
     pagecolor="#ffffff"
     bordercolor="#000000"
     borderopacity="0.25"
     inkscape:showpageshadow="2"
     inkscape:pageopacity="0.0"
     inkscape:pagecheckerboard="0"
     inkscape:deskcolor="#d1d1d1"
     inkscape:document-units="px"
     inkscape:zoom="1.1131408"
     inkscape:cx="273.10112"
     inkscape:cy="278.04209"
     inkscape:window-width="1920"
     inkscape:window-height="1017"
     inkscape:window-x="1042"
     inkscape:window-y="276"
     inkscape:window-maximized="1"
     inkscape:current-layer="layer1" />
  <defs
     id="defs1" />
  <g
     inkscape:label="Layer 1"
     inkscape:groupmode="layer"
     id="layer1">
    <path
       style="fill:#246a8e;fill-opacity:1;fill-rule:evenodd;stroke:none;stroke-width:0.261449"
       d="m 44.099391,82.313163 v 9.223207 c 8.759546,-7.244983 17.405726,-7.658598 25.936505,-1.242904 7.768896,5.925483 15.425458,6.340129 22.970698,1.242904 V 82.313163 C 85.461354,87.40426 77.804792,87.006982 70.035896,81.119287 61.505117,74.632099 52.858937,75.029375 44.099391,82.313163 m 0,20.776987 v 9.28142 c 8.759546,-7.32158 17.405726,-7.75665 25.936505,-1.30725 7.768896,5.96328 15.425458,6.39936 22.970698,1.30725 v -9.28142 c -7.54524,5.09211 -15.201802,4.67543 -22.970698,-1.25005 -8.530779,-6.454515 -17.176959,-6.037833 -25.936505,1.25005 M 111.24058,85.478123 v 22.984997 c 0,8.60329 -2.5481,14.56656 -7.64431,17.89083 -3.13431,2.0344 -7.248041,3.0516 -12.340152,3.0516 h -47.26396 c -13.175571,0 -19.762845,-6.98047 -19.762845,-20.94243 V 85.478123 c -0.148087,-3.881902 4.799008,-10.032064 14.840259,-18.448453 3.581643,-3.248703 7.95682,-6.758856 13.125532,-10.531474 v -6.002079 h -0.171576 c -1.167326,0 -2.167166,-0.436087 -3.001552,-1.307241 -0.676091,-0.638303 -1.014133,-1.674904 -1.014133,-3.108788 0,-0.981453 0.338042,-1.888353 1.014133,-2.721718 0.834386,-0.677112 1.834226,-1.015156 3.001552,-1.015156 h 0.171576 v -9.623548 h -0.171576 c -1.167326,0 -2.167166,-0.414643 -3.001552,-1.243923 C 48.49806,30.94774 48.16001,30.247139 48.007843,29.374964 46.61175,29.265686 45.366808,28.646789 44.270966,27.51725 c -1.133625,-1.094815 -1.700434,-2.397973 -1.700434,-3.907429 0,-1.587073 0.566809,-2.982146 1.700434,-4.18726 1.248009,-1.133623 2.643084,-1.700435 4.187261,-1.700435 h 5.608886 v -3.794068 c 0,-5.2442867 2.281551,-7.8669415 6.844637,-7.8669415 h 13.018298 c 4.572286,0 6.858937,2.6226548 6.858937,7.8669415 v 3.794068 h 5.430161 c 1.510476,0 2.828952,0.566812 3.958496,1.700435 1.248002,1.205114 1.87201,2.600187 1.87201,4.18726 0,1.509456 -0.624008,2.812614 -1.87201,3.907429 -0.98146,0.977368 -2.038486,1.596265 -3.172112,1.857714 -0.105191,0.872175 -0.500425,1.572776 -1.186726,2.100779 -0.147066,0.266555 -0.37175,0.473874 -0.670984,0.621961 -0.534132,0.414642 -1.231666,0.621962 -2.093633,0.621962 h -0.407492 v 9.623548 h 0.407492 c 1.123409,0 2.045633,0.338044 2.764617,1.015156 0.790468,0.833365 1.186726,1.740265 1.186726,2.721718 0,1.433884 -0.396258,2.470485 -1.186726,3.108788 -0.718984,0.871154 -1.641208,1.307241 -2.764617,1.307241 h -0.407492 v 6.002079 c 5.135011,3.772618 9.588832,7.282771 13.361448,10.531474 2.986228,2.490903 5.515957,4.791854 7.588127,6.901822 4.90625,4.906251 7.45436,8.755462 7.64431,11.546631"
       id="path1" />
  </g>
</svg>
