<?xml version="1.0" encoding="UTF-8" standalone="no"?>
<!-- Created with Inkscape (http://www.inkscape.org/) -->

<svg
   width="512"
   height="512"
   viewBox="0 0 512 512"
   version="1.1"
   id="svg1"
   inkscape:version="1.3.2 (091e20e, 2023-11-25, custom)"
   sodipodi:docname="KIT_Poison_PoisonDefault.svg"
   xmlns:inkscape="http://www.inkscape.org/namespaces/inkscape"
   xmlns:sodipodi="http://sodipodi.sourceforge.net/DTD/sodipodi-0.dtd"
   xmlns="http://www.w3.org/2000/svg"
   xmlns:svg="http://www.w3.org/2000/svg">
  <sodipodi:namedview
     id="namedview1"
     pagecolor="#ffffff"
     bordercolor="#000000"
     borderopacity="0.25"
     inkscape:showpageshadow="2"
     inkscape:pageopacity="0.0"
     inkscape:pagecheckerboard="0"
     inkscape:deskcolor="#d1d1d1"
     inkscape:document-units="px"
     inkscape:zoom="1.1131408"
     inkscape:cx="273.99949"
     inkscape:cy="248.39626"
     inkscape:window-width="1920"
     inkscape:window-height="1017"
     inkscape:window-x="1042"
     inkscape:window-y="276"
     inkscape:window-maximized="1"
     inkscape:current-layer="layer1" />
  <defs
     id="defs1" />
  <g
     inkscape:label="Layer 1"
     inkscape:groupmode="layer"
     id="layer1">
    <path
       style="fill:#990099;fill-opacity:1;fill-rule:evenodd;stroke:none;stroke-width:0.98722"
       d="m 347.82584,89.354248 c 0,5.765226 -2.34468,10.678192 -7.03397,14.735052 -3.67124,3.78308 -7.62012,6.20099 -11.84281,7.25762 -0.66714,3.11207 -2.19811,5.73439 -4.58905,7.86693 -0.66714,1.03735 -1.4924,1.79705 -2.47576,2.27911 -2.1287,1.6505 -4.75102,2.47575 -7.86693,2.47575 h -1.58496 v 36.14158 h 1.58496 c 4.17254,0 7.62012,1.32658 10.34269,3.97588 3.05808,3.1699 4.58905,6.61748 4.58905,10.34269 0,5.15207 -1.53097,9.02769 -4.58905,11.623 -2.72257,3.25861 -6.17015,4.88983 -10.34269,4.88983 h -1.58496 v 22.8565 c 19.35111,14.21446 36.16088,27.38385 50.43317,39.50431 37.27533,31.5101 56.43746,54.85251 57.49409,70.0349 v 86.85239 c 0,52.60042 -25.19728,78.90062 -75.59188,78.90062 h -178.2938 c -36.99383,0 -60.27452,-14.4574 -69.83825,-43.3722 -3.316443,-10.08046 -4.978523,-21.92326 -4.978523,-35.52842 V 323.3374 c -0.204381,-4.58133 1.457699,-9.94549 4.978523,-16.1002 7.89392,-13.79025 24.93893,-31.7685 51.12729,-53.9347 13.54731,-12.12046 30.06401,-25.28985 49.54235,-39.50431 v -22.8565 h -0.69414 c -4.43092,0 -8.17542,-1.63122 -11.23351,-4.88983 -2.57602,-2.59531 -3.86404,-6.47093 -3.86404,-11.623 0,-3.72521 1.28802,-7.17279 3.86404,-10.34269 3.05809,-2.6493 6.80259,-3.97588 11.23351,-3.97588 h 0.69414 v -36.14158 h -0.69414 c -4.43092,0 -8.17542,-1.58495 -11.23351,-4.75486 -2.05542,-2.13254 -3.34343,-4.75486 -3.86404,-7.86693 -5.24462,-0.46276 -9.95322,-2.88452 -14.12191,-7.25762 -4.3191,-4.05686 -6.47864,-8.969826 -6.47864,-14.735052 0,-5.911757 2.15954,-11.18337 6.47864,-15.818694 4.57748,-4.373078 9.84908,-6.559624 15.81869,-6.559624 H 204.2853 V 52.962016 c 0,-20.033665 8.6536,-30.052424 25.96471,-30.052424 h 48.93305 c 17.31107,0 25.96471,10.018759 25.96471,30.052424 V 66.97593 h 20.71236 c 5.76522,0 10.74375,2.186546 14.93174,6.559624 4.68929,4.635324 7.03397,9.906937 7.03397,15.818694 M 309.23546,363.03837 c 3.70596,4.26126 5.56084,9.09709 5.56084,14.5114 0,12.34412 -3.11205,20.46942 -9.34003,24.38361 -3.11593,2.33308 -7.11881,3.50155 -12.01249,3.50155 -4.98625,0 -9.10866,-1.16847 -12.37114,-3.50155 -5.61481,-3.50541 -8.42222,-10.69748 -8.42222,-21.57621 0,-15.53331 7.21905,-23.29611 21.65718,-23.29611 6.91056,0 11.88908,1.98986 14.92786,5.97731 M 167.97404,339.3759 c 0,19.16598 2.68786,33.12207 8.0636,41.87209 5.56084,9.6177 8.96982,16.51283 10.23086,20.68539 -1.26104,17.23396 3.5864,27.15245 14.53837,29.74777 10.19617,2.90767 18.2482,6.85655 24.15997,11.8428 l 2.69941,15.73385 h 56.41049 l 2.78041,-15.73385 c 5.31789,-5.30247 13.07299,-9.25135 23.26914,-11.8428 11.00983,-5.82308 16.18117,-15.50633 15.51403,-29.05365 v -0.69412 c 0.35092,-2.1904 0.99107,-4.27283 1.91662,-6.25884 10.86328,-19.51692 16.29299,-38.28183 16.29299,-56.29864 0,-21.83071 -8.28726,-39.91307 -24.85408,-54.23936 -16.45883,-13.51261 -37.48744,-20.2689 -63.08194,-20.2689 -25.06233,0 -46.48811,6.75629 -64.28124,20.2689 -15.77242,13.73242 -23.65863,31.81476 -23.65863,54.23936 m 51.23912,17.68516 c 13.97537,0 20.96304,6.82956 20.96304,20.48871 0,12.34412 -2.94622,20.46942 -8.84256,24.38361 -3.24317,2.33308 -7.28077,3.50155 -12.12048,3.50155 -4.92838,0 -9.04309,-1.16847 -12.34411,-3.50155 -5.58012,-3.50541 -8.36825,-10.69748 -8.36825,-21.57621 0,-7.28461 1.60423,-13.05754 4.80886,-17.3188 3.57867,-3.98745 8.88113,-5.97731 15.9035,-5.97731 m 37.69954,46.37243 c 17.56947,25.54051 18.0631,33.33416 1.47313,23.38095 -2.24053,-1.59266 -4.05688,-1.59266 -5.44901,0 -16.84832,9.95321 -16.38556,2.15956 1.39213,-23.38095 1.05664,-1.12991 1.91661,-1.12991 2.58375,0"
       id="path1" />
  </g>
</svg>
