<?xml version="1.0" encoding="UTF-8" standalone="no"?>
<!-- Created with Inkscape (http://www.inkscape.org/) -->

<svg
   width="512"
   height="512"
   viewBox="0 0 512 512"
   version="1.1"
   id="svg1"
   sodipodi:docname="KWD_KIT_Potion_ResistShock.svg"
   inkscape:version="1.3.2 (091e20e, 2023-11-25, custom)"
   xmlns:inkscape="http://www.inkscape.org/namespaces/inkscape"
   xmlns:sodipodi="http://sodipodi.sourceforge.net/DTD/sodipodi-0.dtd"
   xmlns="http://www.w3.org/2000/svg"
   xmlns:svg="http://www.w3.org/2000/svg">
  <sodipodi:namedview
     id="namedview1"
     pagecolor="#ffffff"
     bordercolor="#000000"
     borderopacity="0.25"
     inkscape:showpageshadow="2"
     inkscape:pageopacity="0.0"
     inkscape:pagecheckerboard="0"
     inkscape:deskcolor="#d1d1d1"
     inkscape:document-units="px"
     inkscape:zoom="1.1131408"
     inkscape:cx="254.23559"
     inkscape:cy="181.01933"
     inkscape:window-width="1920"
     inkscape:window-height="1017"
     inkscape:window-x="1042"
     inkscape:window-y="276"
     inkscape:window-maximized="1"
     inkscape:current-layer="layer1" />
  <defs
     id="defs1" />
  <g
     inkscape:label="Layer 1"
     inkscape:groupmode="layer"
     id="layer1">
    <path
       id="rect1-7"
       style="display:inline;fill:#e9d262;fill-opacity:1;stroke-width:1.21745"
       d="m 229.12025,22.908157 c -12.9527,0 -19.42669,8.461369 -19.42669,25.382384 v 10.360664 h -16.30037 c -4.31772,1e-6 -8.25674,2.069296 -11.82957,6.213554 -3.27517,6.733582 -4.91892,12.438241 -4.91892,17.100611 0,6.388378 1.64375,12.340235 4.91892,17.865305 2.67988,4.144255 6.24291,6.473145 10.70923,6.992465 0.74436,3.28033 2.00807,5.96097 3.79498,8.03281 0.0994,0.16765 3.50206,0.30103 8.19108,0.41791 v 94.73979 c -0.91548,2.45175 -5.66698,4.45417 -9.25452,5.67294 -25.13334,3.57101 -47.3291,10.11198 -63.94057,22.14935 -38.729029,40.55192 -25.97182,237.41106 18.8932,243.97178 35.35949,4.86596 70.70713,7.28867 106.04298,7.28412 35.33585,0.005 70.68349,-2.41816 106.04298,-7.28412 44.86502,-6.56072 57.62223,-203.41986 18.8932,-243.97178 -16.61147,-12.03737 -38.80723,-18.57834 -63.94057,-22.14935 -3.58754,-1.21877 -8.33904,-3.22119 -9.25452,-5.67294 v -94.73979 c 4.68902,-0.11688 8.09166,-0.25026 8.19108,-0.41791 1.78691,-2.07184 3.05062,-4.75248 3.79498,-8.03281 4.46632,-0.51932 8.02935,-2.84821 10.70923,-6.992465 3.27517,-5.52507 4.91892,-11.476927 4.91892,-17.865305 0,-4.66237 -1.64375,-10.367029 -4.91892,-17.100611 -3.57283,-4.144258 -7.51185,-6.213553 -11.82957,-6.213554 H 302.30644 V 48.290541 c 0,-16.921015 -6.47399,-25.382384 -19.42669,-25.382384 H 256 Z m 26.89754,204.172313 c 32.12506,24.11268 69.50197,38.17271 112.13383,42.17891 0,44.29477 -8.9164,84.62132 -26.75528,120.97934 -17.68767,36.43361 -46.14818,64.743 -85.37855,84.92508 -36.88714,-20.18208 -65.04363,-48.14924 -84.46983,-83.90253 -19.12388,-36.13125 -28.3461,-77.02762 -27.66579,-122.683 38.62567,-2.79675 76.00437,-16.62923 112.13562,-41.4978 z m 0,28.00545 c -27.96771,19.27504 -56.91805,29.97207 -86.85105,32.08855 -0.52911,35.29978 6.57555,66.97035 21.31531,95.01365 15.11766,27.66535 36.96332,49.32346 65.53574,64.97023 30.38653,-15.64677 52.41974,-37.5689 66.10125,-65.76337 13.83267,-28.19446 20.74979,-59.41345 20.74979,-93.65499 -33.03213,-3.17474 -61.98247,-14.05932 -86.85104,-32.65407 z m 0,25.53178 c 19.65296,14.73973 37.09519,17.85612 63.24879,20.27497 0,36.53224 -4.42566,90.46685 -63.24879,120.61831 -50.92829,-27.76353 -64.04021,-72.06665 -63.24524,-120.95798 23.65919,-1.73853 41.09785,-4.74206 63.24524,-19.9353 z"
       sodipodi:nodetypes="sscscscccccccccccccccccscscsscsccccccccccccccccccc" />
  </g>
</svg>
