<?xml version="1.0" encoding="UTF-8" standalone="no"?>
<!-- Created with Inkscape (http://www.inkscape.org/) -->

<svg
   width="512"
   height="512"
   viewBox="0 0 512 512"
   version="1.1"
   id="svg1"
   xml:space="preserve"
   inkscape:version="1.3.2 (091e20e, 2023-11-25, custom)"
   sodipodi:docname="Skooma.svg"
   xmlns:inkscape="http://www.inkscape.org/namespaces/inkscape"
   xmlns:sodipodi="http://sodipodi.sourceforge.net/DTD/sodipodi-0.dtd"
   xmlns="http://www.w3.org/2000/svg"
   xmlns:svg="http://www.w3.org/2000/svg"><sodipodi:namedview
     id="namedview1"
     pagecolor="#ffffff"
     bordercolor="#000000"
     borderopacity="0.25"
     inkscape:showpageshadow="2"
     inkscape:pageopacity="0.0"
     inkscape:pagecheckerboard="0"
     inkscape:deskcolor="#d1d1d1"
     inkscape:document-units="px"
     inkscape:zoom="0.79979869"
     inkscape:cx="168.79247"
     inkscape:cy="110.65284"
     inkscape:window-width="1920"
     inkscape:window-height="1009"
     inkscape:window-x="1042"
     inkscape:window-y="235"
     inkscape:window-maximized="1"
     inkscape:current-layer="svg1" /><defs
     id="defs1" /><path
     id="rect2-9"
     style="fill:#79204d;fill-opacity:1;fill-rule:evenodd;stroke-width:1.99142"
     d="m 214.97701,32.954985 -19.33545,42.435967 8.19881,16.185529 c -6.76546,-0.608263 -15.32691,-1.337055 -23.0144,-0.199206 -1.97962,2.768235 -2.60849,11.255145 -2.81473,14.263165 l -0.0219,-0.018 c -83.214596,27.6392 -77.28542,86.16992 -64.26212,137.05076 l 73.18251,238.54602 H 324.72487 L 397.90738,242.67325 379.36213,221.4801 c -52.43434,-8.22136 -78.36815,-55.44526 -66.8586,-82.45053 -36.6842,-11.22846 -74.25935,-11.96325 -112.96769,-0.18526 15.15787,25.75871 -8.94647,57.48552 -45.47608,74.92664 -30.32784,-48.51569 -0.64483,-78.57201 36.67098,-90.3873 43.28476,-13.70524 86.54372,-13.7504 129.81482,-0.1235 3.52162,-2.30521 7.89358,-7.34003 13.23724,-7.34543 -0.28554,-5.81342 0.84146,-19.201689 -2.97433,-24.537477 -7.68748,-1.13785 -16.24895,-0.409057 -23.01439,0.199197 l 8.19879,-16.18552 -19.33544,-42.435967 c -24.49021,-2.808456 -55.67566,-2.987953 -81.68045,0 z m 40.84011,213.486055 c 21.4554,8e-5 41.15265,23.1916 41.15219,49.49194 -4.8e-4,26.29956 -19.69748,49.48988 -41.15219,49.48996 -21.45471,-8e-5 -41.15173,-23.1904 -41.15218,-49.48996 -4.6e-4,-26.30034 19.69679,-49.49186 41.15218,-49.49194 z"
     sodipodi:nodetypes="ccccccccccccccscccccccsssss" /></svg>
