<?xml version="1.0" encoding="UTF-8" standalone="no"?>
<!-- Created with Inkscape (http://www.inkscape.org/) -->

<svg
   width="512"
   height="512"
   viewBox="0 0 512 512"
   version="1.1"
   id="svg1"
   sodipodi:docname="KWD_KIT_Potion_TypeUtility.svg"
   inkscape:version="1.3.2 (091e20e, 2023-11-25, custom)"
   xmlns:inkscape="http://www.inkscape.org/namespaces/inkscape"
   xmlns:sodipodi="http://sodipodi.sourceforge.net/DTD/sodipodi-0.dtd"
   xmlns="http://www.w3.org/2000/svg"
   xmlns:svg="http://www.w3.org/2000/svg">
  <sodipodi:namedview
     id="namedview1"
     pagecolor="#ffffff"
     bordercolor="#000000"
     borderopacity="0.25"
     inkscape:showpageshadow="2"
     inkscape:pageopacity="0.0"
     inkscape:pagecheckerboard="0"
     inkscape:deskcolor="#d1d1d1"
     inkscape:document-units="px"
     inkscape:zoom="1.5742188"
     inkscape:cx="269.33994"
     inkscape:cy="263.3052"
     inkscape:window-width="1050"
     inkscape:window-height="1609"
     inkscape:window-x="-8"
     inkscape:window-y="-8"
     inkscape:window-maximized="1"
     inkscape:current-layer="layer1" />
  <defs
     id="defs1" />
  <g
     inkscape:label="Layer 1"
     inkscape:groupmode="layer"
     id="layer1">
    <path
       id="rect1-7"
       style="display:inline;fill:#a3c5f5;fill-opacity:1;stroke-width:1.21746"
       d="M 229.12109 22.908203 C 216.16843 22.908203 209.69336 31.370018 209.69336 48.291016 L 209.69336 58.650391 L 193.39258 58.650391 C 189.07487 58.650392 185.13728 60.720981 181.56445 64.865234 C 178.28929 71.598811 176.64453 77.302478 176.64453 81.964844 C 176.64453 88.353214 178.28929 94.305024 181.56445 99.830078 C 184.24433 103.97433 187.80713 106.30296 192.27344 106.82227 C 193.0178 110.10262 194.28145 112.78362 196.06836 114.85547 C 196.16766 115.02311 199.57073 115.15657 204.25977 115.27344 L 204.25977 210.01367 C 203.34428 212.46543 198.59144 214.46873 195.00391 215.6875 C 169.87058 219.2585 147.6759 225.79858 131.06445 237.83594 C 92.33545 278.38782 105.09206 475.24789 149.95703 481.80859 C 185.31649 486.67455 220.66418 489.09636 256 489.0918 C 291.33582 489.0968 326.68351 486.67455 362.04297 481.80859 C 406.90793 475.24789 419.66455 278.38782 380.93555 237.83594 C 364.3241 225.79858 342.12942 219.2585 316.99609 215.6875 C 313.40856 214.46873 308.65572 212.46543 307.74023 210.01367 L 307.74023 115.27344 C 312.42927 115.15657 315.83221 115.02311 315.93164 114.85547 C 317.71855 112.78362 318.9822 110.10262 319.72656 106.82227 C 324.19287 106.30296 327.75567 103.97433 330.43555 99.830078 C 333.71071 94.305024 335.35547 88.353214 335.35547 81.964844 C 335.35547 77.302478 333.71071 71.598811 330.43555 64.865234 C 326.86272 60.720981 322.92513 58.650392 318.60742 58.650391 L 302.30664 58.650391 L 302.30664 48.291016 C 302.30664 31.370018 295.83157 22.908203 282.87891 22.908203 L 256 22.908203 L 229.12109 22.908203 z M 255.94727 225.82422 L 377.83203 352.25 L 353.88281 376.3418 L 255.94727 275.54492 L 255.94727 275.53711 L 204.32227 328.68164 L 179.07812 302.99609 L 255.94727 225.82422 z M 158.01172 324.34766 L 255.94727 425.14648 L 255.94727 425.15234 L 307.57227 372.00586 L 332.91797 397.65234 L 255.94727 474.86328 L 134.06055 348.43945 L 158.01172 324.34766 z " />
  </g>
</svg>
