<?xml version="1.0" encoding="UTF-8" standalone="no"?>
<!-- Created with Inkscape (http://www.inkscape.org/) -->

<svg
   width="512"
   height="512"
   viewBox="0 0 512 512"
   version="1.1"
   id="svg1"
   sodipodi:docname="KWD_KIT_Potion_Etheral.svg"
   inkscape:version="1.3.2 (091e20e, 2023-11-25, custom)"
   xmlns:inkscape="http://www.inkscape.org/namespaces/inkscape"
   xmlns:sodipodi="http://sodipodi.sourceforge.net/DTD/sodipodi-0.dtd"
   xmlns="http://www.w3.org/2000/svg"
   xmlns:svg="http://www.w3.org/2000/svg">
  <sodipodi:namedview
     id="namedview1"
     pagecolor="#ffffff"
     bordercolor="#000000"
     borderopacity="0.25"
     inkscape:showpageshadow="2"
     inkscape:pageopacity="0.0"
     inkscape:pagecheckerboard="0"
     inkscape:deskcolor="#d1d1d1"
     inkscape:document-units="px"
     inkscape:zoom="1.5742188"
     inkscape:cx="269.97517"
     inkscape:cy="263.3052"
     inkscape:window-width="1920"
     inkscape:window-height="1017"
     inkscape:window-x="1042"
     inkscape:window-y="276"
     inkscape:window-maximized="1"
     inkscape:current-layer="layer1" />
  <defs
     id="defs1" />
  <g
     inkscape:label="Layer 1"
     inkscape:groupmode="layer"
     id="layer1">
    <path
       id="rect1-7"
       style="display:inline;fill:#a3c5f5;fill-opacity:1;stroke-width:1.21746"
       d="M 229.12109 22.908203 C 216.16845 22.908203 209.69336 31.370035 209.69336 48.291016 L 209.69336 58.650391 L 193.39258 58.650391 C 189.07487 58.650392 185.13728 60.720986 181.56445 64.865234 C 178.2893 71.598805 176.64453 77.302482 176.64453 81.964844 C 176.64453 88.353207 178.2893 94.30503 181.56445 99.830078 C 184.24433 103.97433 187.80713 106.30296 192.27344 106.82227 C 193.0178 110.10261 194.28145 112.78362 196.06836 114.85547 C 196.16766 115.02311 199.57073 115.15657 204.25977 115.27344 L 204.25977 210.01367 C 203.34428 212.46543 198.59143 214.46873 195.00391 215.6875 C 169.8706 219.2585 147.67589 225.79859 131.06445 237.83594 C 92.335492 278.38778 105.09211 475.2479 149.95703 481.80859 C 185.31646 486.67455 220.66422 489.09636 256 489.0918 C 291.33578 489.0968 326.68354 486.67455 362.04297 481.80859 C 406.90788 475.2479 419.66451 278.38778 380.93555 237.83594 C 364.32411 225.79859 342.1294 219.2585 316.99609 215.6875 C 313.40857 214.46873 308.65572 212.46543 307.74023 210.01367 L 307.74023 115.27344 C 312.42927 115.15657 315.83221 115.02311 315.93164 114.85547 C 317.71855 112.78362 318.9822 110.10261 319.72656 106.82227 C 324.19287 106.30296 327.75567 103.97433 330.43555 99.830078 C 333.7107 94.30503 335.35547 88.353207 335.35547 81.964844 C 335.35547 77.302482 333.7107 71.598805 330.43555 64.865234 C 326.86272 60.720986 322.92513 58.650392 318.60742 58.650391 L 302.30664 58.650391 L 302.30664 48.291016 C 302.30664 31.370035 295.83155 22.908203 282.87891 22.908203 L 256 22.908203 L 229.12109 22.908203 z M 253.19922 254.91406 C 292.54713 254.74544 331.66623 257.89429 370.65234 264.38867 C 369.07054 270.03621 367.4508 275.67423 365.69922 281.26758 C 353.02062 322.05672 335.12471 361.04465 313.01953 397.20703 C 296.20164 424.77931 276.96305 450.71424 256 475.00586 C 249.21148 467.10999 242.57043 459.07513 236.16211 450.8418 C 208.14089 414.9505 184.10924 375.58431 165.74609 333.44336 C 155.98074 311.09667 147.84456 287.98701 141.34766 264.38867 C 150.43019 262.88104 154.27246 262.42682 163.40039 261.25391 C 185.79537 325.10794 210.54825 380.0823 256 431.83203 C 287.61569 394.60546 318.4728 345.92756 335.71484 285.625 C 301.68258 280.15238 270.15516 276.68845 223.18359 279.80664 L 213.77148 256.1875 C 226.94207 255.39503 240.08321 254.97028 253.19922 254.91406 z " />
  </g>
</svg>
