<?xml version="1.0" encoding="UTF-8" standalone="no"?>
<!-- Created with Inkscape (http://www.inkscape.org/) -->

<svg
   width="512"
   height="512"
   viewBox="0 0 512 512"
   version="1.1"
   id="svg1"
   inkscape:version="1.3.2 (091e20e, 2023-11-25, custom)"
   sodipodi:docname="KWD_KIT_Potion_RestoreStamina.svg"
   xmlns:inkscape="http://www.inkscape.org/namespaces/inkscape"
   xmlns:sodipodi="http://sodipodi.sourceforge.net/DTD/sodipodi-0.dtd"
   xmlns="http://www.w3.org/2000/svg"
   xmlns:svg="http://www.w3.org/2000/svg">
  <sodipodi:namedview
     id="namedview1"
     pagecolor="#ffffff"
     bordercolor="#000000"
     borderopacity="0.25"
     inkscape:showpageshadow="2"
     inkscape:pageopacity="0.0"
     inkscape:pagecheckerboard="0"
     inkscape:deskcolor="#d1d1d1"
     inkscape:document-units="px"
     inkscape:zoom="1.1131408"
     inkscape:cx="203.02913"
     inkscape:cy="271.75359"
     inkscape:window-width="1920"
     inkscape:window-height="1017"
     inkscape:window-x="1042"
     inkscape:window-y="276"
     inkscape:window-maximized="1"
     inkscape:current-layer="layer1" />
  <defs
     id="defs1" />
  <g
     inkscape:label="Layer 1"
     inkscape:groupmode="layer"
     id="layer1">
    <path
       style="fill:#70c888;fill-opacity:1;fill-rule:evenodd;stroke:none;stroke-width:0.98761"
       d="M 299.8793,52.740981 V 66.90704 h 18.44442 c 5.15024,0 9.58678,2.137255 13.31347,6.41562 4.30923,4.741309 6.46577,10.111448 6.46577,16.118132 0,5.578466 -2.15654,10.443226 -6.46577,14.594288 -3.27917,3.85014 -6.85155,6.21115 -10.72098,7.08688 -0.26621,3.29462 -1.55087,5.94111 -3.85015,7.93563 -0.5864,1.1612 -1.38112,1.95207 -2.37645,2.38029 -1.85562,1.57015 -4.14333,2.35329 -6.87084,2.35329 h -1.49685 v 36.2716 c 17.3025,20.17274 32.33658,38.84092 45.09453,56.00068 33.18142,44.64314 50.27174,77.84002 51.27093,99.6022 l 16.75853,144.42282 v 4.76059 c 0,2.42274 -0.50922,4.64101 -1.52385,6.6548 -5.86394,10.72872 -27.25576,16.59266 -64.17933,17.58798 H 157.80591 c -36.47991,-0.99532 -57.65956,-6.85926 -63.538933,-17.58798 -1.141926,-1.87105 -1.712889,-4.08932 -1.712889,-6.6548 v -4.76059 L 109.50166,315.66565 c -0.55167,-20.88643 16.12972,-54.08718 50.04029,-99.6022 12.15612,-17.15976 26.88157,-35.82794 44.18792,-56.00068 v -36.2716 h -0.6404 c -3.86944,0 -7.15634,-1.57786 -9.86455,-4.73358 -2.01381,-1.99452 -3.16345,-4.64101 -3.44892,-7.93563 -4.7066,-0.42822 -8.91938,-2.78923 -12.64221,-7.08688 -2.17583,-2.29929 -3.75371,-4.791461 -4.73359,-7.484251 -0.72913,-2.171977 -1.09563,-4.544557 -1.09563,-7.110037 0,-2.708211 0.3665,-5.281407 1.09563,-7.72343 0.97988,-2.870248 2.55776,-5.667195 4.73359,-8.394702 4.13177,-4.278365 8.77663,-6.41562 13.923,-6.41562 h 19.1157 V 52.740981 c 0,-19.887262 7.72344,-29.832824 23.17417,-29.832824 h 43.57066 c 15.30798,0 22.96198,9.945562 22.96198,29.832824 m -124.88663,255.837789 50.20234,35.84722 -50.20234,35.63118 v 47.42082 l 82.60063,-63.51194 v -39.50833 l -82.60063,-63.29976 v 47.42081 m 98.0475,0 50.22932,35.84722 -50.22932,35.63118 v 47.42082 l 82.65462,-63.51194 v -39.50833 l -82.65462,-63.29976 v 47.42081"
       id="path1" />
  </g>
</svg>
