<?xml version="1.0" encoding="UTF-8" standalone="no"?>
<!-- Created with Inkscape (http://www.inkscape.org/) -->

<svg
   width="512"
   height="512"
   viewBox="0 0 512 512"
   version="1.1"
   id="svg1"
   xml:space="preserve"
   inkscape:version="1.3.2 (091e20e, 2023-11-25, custom)"
   sodipodi:docname="KWD_KIT_Potion_WelkyndStone.svg"
   xmlns:inkscape="http://www.inkscape.org/namespaces/inkscape"
   xmlns:sodipodi="http://sodipodi.sourceforge.net/DTD/sodipodi-0.dtd"
   xmlns="http://www.w3.org/2000/svg"
   xmlns:svg="http://www.w3.org/2000/svg"><sodipodi:namedview
     id="namedview1"
     pagecolor="#ffffff"
     bordercolor="#000000"
     borderopacity="0.25"
     inkscape:showpageshadow="2"
     inkscape:pageopacity="0.0"
     inkscape:pagecheckerboard="0"
     inkscape:deskcolor="#d1d1d1"
     inkscape:document-units="px"
     inkscape:zoom="0.56928391"
     inkscape:cx="63.237339"
     inkscape:cy="209.91283"
     inkscape:window-width="1920"
     inkscape:window-height="1017"
     inkscape:window-x="1042"
     inkscape:window-y="276"
     inkscape:window-maximized="1"
     inkscape:current-layer="svg1" /><defs
     id="defs1" /><path
     id="rect4-4"
     style="fill:#2e89b7;fill-opacity:1;fill-rule:evenodd;stroke-width:1.38521"
     d="M 47.199412,47.200293 38.889829,132.49304 158.62568,299.86873 c 53.81466,-40.65568 99.98051,-88.54672 141.24391,-141.24389 L 132.49391,38.88895 Z m 104.795708,280.095657 -11.9762,32.82167 11.82101,12.44521 34.21998,-10.88825 c 64.77238,-47.6931 125.62354,-108.69993 175.61205,-175.61206 l 10.88649,-34.2217 -12.43997,-11.82277 -32.82341,11.97795 C 276.85045,215.22986 217.32246,277.28057 151.99512,327.29595 Z m 50.69618,45.27036 60.20356,66.88471 93.80158,41.66003 c 21.29466,-20.52827 45.38137,-22.35366 65.63065,-12.56599 l 43.51465,-43.51465 c -5.87037,-24.84585 1.50018,-48.6553 15.26843,-68.33309 L 439.45015,262.89574 372.56542,202.69218 C 340.00724,252.17524 252.16135,340.01668 202.6913,372.56631 Z"
     sodipodi:nodetypes="cccccccccccccccccccccccc" /></svg>
