<?xml version="1.0" encoding="UTF-8" standalone="no"?>
<svg
   height="512"
   width="512"
   version="1.1"
   id="svg1"
   sodipodi:docname="DrinkSpecial_2.svg"
   inkscape:version="1.3.2 (091e20e, 2023-11-25, custom)"
   xmlns:inkscape="http://www.inkscape.org/namespaces/inkscape"
   xmlns:sodipodi="http://sodipodi.sourceforge.net/DTD/sodipodi-0.dtd"
   xmlns="http://www.w3.org/2000/svg"
   xmlns:svg="http://www.w3.org/2000/svg">
  <defs
     id="defs1" />
  <sodipodi:namedview
     id="namedview1"
     pagecolor="#ffffff"
     bordercolor="#000000"
     borderopacity="0.25"
     inkscape:showpageshadow="2"
     inkscape:pageopacity="0.0"
     inkscape:pagecheckerboard="0"
     inkscape:deskcolor="#d1d1d1"
     inkscape:zoom="0.64316465"
     inkscape:cx="157.03599"
     inkscape:cy="244.88286"
     inkscape:window-width="1920"
     inkscape:window-height="1009"
     inkscape:window-x="1042"
     inkscape:window-y="235"
     inkscape:window-maximized="1"
     inkscape:current-layer="svg1" />
  <path
     id="path1"
     style="fill:#ffcc99;fill-opacity:1;stroke-width:3.94203"
     d="M 235.50195 23.322266 C 222.36191 23.322266 215.79102 30.220531 215.79102 44.017578 L 215.79102 58.800781 L 204.55664 58.800781 C 199.69482 58.800781 195.62094 60.509369 192.33594 63.925781 C 188.91952 67.210793 187.21094 71.282714 187.21094 76.144531 C 187.21094 80.743547 188.91952 84.685691 192.33594 87.970703 C 195.62094 91.387115 199.69482 93.095703 204.55664 93.095703 L 210.66602 93.095703 L 210.66602 194.01172 C 185.83133 200.97593 163.55968 214.24749 143.84961 233.82617 C 112.9705 264.96808 97.53125 302.41749 97.53125 346.17383 C 97.53125 389.79878 112.9705 427.11645 143.84961 458.12695 C 156.72685 470.87281 170.78684 481.05652 186.0293 488.67773 L 325.9707 488.67773 L 326.5625 488.2832 C 341.41077 480.92478 355.20729 470.87281 367.95312 458.12695 C 398.96362 427.11645 414.46875 389.79878 414.46875 346.17383 C 414.46875 302.41749 398.96362 264.96808 367.95312 233.82617 C 347.58606 213.5905 324.39425 199.98961 298.37695 193.02539 L 298.37695 93.095703 L 303.30469 93.095703 C 307.90369 93.095703 311.84584 91.387115 315.13086 87.970703 C 318.67868 84.685691 320.45117 80.743547 320.45117 76.144531 C 320.45117 71.282714 318.67868 67.210793 315.13086 63.925781 C 311.84584 60.509369 307.90369 58.800781 303.30469 58.800781 L 292.66016 58.800781 L 292.66016 44.017578 C 292.66016 30.220531 285.95948 23.322266 272.55664 23.322266 L 235.50195 23.322266 z M 256 237.62109 A 105.9855 103.93251 0 0 1 361.98633 341.55273 A 105.9855 103.93251 0 0 1 256 445.48438 A 105.9855 103.93251 0 0 1 150.01367 341.55273 A 105.9855 103.93251 0 0 1 256 237.62109 z M 256 264.16406 A 79.638824 78.096191 0 0 0 176.36133 342.25977 A 79.638824 78.096191 0 0 0 256 420.35547 A 79.638824 78.096191 0 0 0 335.63867 342.25977 A 79.638824 78.096191 0 0 0 256 264.16406 z " />
</svg>
