<?xml version="1.0" encoding="UTF-8" standalone="no"?>
<!-- Created with Inkscape (http://www.inkscape.org/) -->

<svg
   width="512"
   height="512"
   viewBox="0 0 512 512"
   version="1.1"
   id="svg1"
   xml:space="preserve"
   inkscape:version="1.3.2 (091e20e, 2023-11-25, custom)"
   sodipodi:docname="KWD_KIT_Food_Bread.svg"
   xmlns:inkscape="http://www.inkscape.org/namespaces/inkscape"
   xmlns:sodipodi="http://sodipodi.sourceforge.net/DTD/sodipodi-0.dtd"
   xmlns="http://www.w3.org/2000/svg"
   xmlns:svg="http://www.w3.org/2000/svg"><sodipodi:namedview
     id="namedview1"
     pagecolor="#ffffff"
     bordercolor="#000000"
     borderopacity="0.25"
     inkscape:showpageshadow="2"
     inkscape:pageopacity="0.0"
     inkscape:pagecheckerboard="0"
     inkscape:deskcolor="#d1d1d1"
     inkscape:document-units="px"
     inkscape:zoom="0.58073907"
     inkscape:cx="219.54783"
     inkscape:cy="248.82087"
     inkscape:window-width="1920"
     inkscape:window-height="1017"
     inkscape:window-x="1042"
     inkscape:window-y="276"
     inkscape:window-maximized="1"
     inkscape:current-layer="svg1" /><defs
     id="defs1" /><path
     id="path1"
     style="fill:#8f6e56;fill-rule:evenodd;stroke-width:1.11612;fill-opacity:1"
     d="m 163.82532,82.575605 c -48.18465,-0.6222 -88.238627,14.58178 -111.207037,44.728525 -45.4476205,59.65137 10.89431,162.16511 122.310547,233.13086 111.7747,71.19409 251.18794,105.29279 292.82617,12.78123 15.97472,-35.49247 5.15822,-81.10171 -23.20898,-125.64256 -76.08748,8.47371 -111.65837,41.96079 -155.26563,81.39453 17.50853,-63.73818 58.74178,-91.32993 133.24024,-111.53125 -14.03143,-16.99302 -30.41141,-33.43092 -48.62305,-48.65039 -102.75566,2.8126 -148.37977,49.75783 -206.875,90.4414 21.72299,-71.99869 81.64023,-99.75822 164.12891,-121.61914 -25.69934,-16.32751 -53.56948,-30.01664 -82.60742,-39.707035 -64.75803,15.981245 -98.13753,43.195545 -138.3457,76.089855 15.13753,-53.93048 46.12781,-68.74248 94.68359,-87.357425 -14.16915,-2.542 -27.91538,-3.8889 -41.05664,-4.0586 z"
     sodipodi:nodetypes="sssscccccccccs" /></svg>
