<?xml version="1.0" encoding="UTF-8" standalone="no"?>
<!-- Created with Inkscape (http://www.inkscape.org/) -->

<svg
   width="512"
   height="512"
   viewBox="0 0 512 512"
   version="1.1"
   id="svg1"
   xml:space="preserve"
   inkscape:version="1.3.2 (091e20e, 2023-11-25, custom)"
   sodipodi:docname="food - Copy.svg"
   xmlns:inkscape="http://www.inkscape.org/namespaces/inkscape"
   xmlns:sodipodi="http://sodipodi.sourceforge.net/DTD/sodipodi-0.dtd"
   xmlns="http://www.w3.org/2000/svg"
   xmlns:svg="http://www.w3.org/2000/svg"><sodipodi:namedview
     id="namedview1"
     pagecolor="#ffffff"
     bordercolor="#000000"
     borderopacity="0.25"
     inkscape:showpageshadow="2"
     inkscape:pageopacity="0.0"
     inkscape:pagecheckerboard="0"
     inkscape:deskcolor="#d1d1d1"
     inkscape:document-units="px"
     inkscape:zoom="0.82128907"
     inkscape:cx="152.19976"
     inkscape:cy="196.64209"
     inkscape:window-width="1920"
     inkscape:window-height="1009"
     inkscape:window-x="1042"
     inkscape:window-y="235"
     inkscape:window-maximized="1"
     inkscape:current-layer="svg1" /><defs
     id="defs1" /><path
     d="m 275.86952,455.55905 q 36.85939,1.15186 57.5928,-76.59842 -27.64455,58.16873 -57.5928,76.59842 M 130.73566,286.23622 q -3.45557,-17.27784 -16.70192,-12.09449 10.94264,-1.72778 12.67042,10.94264 l -1.15186,-1.15186 3.45557,5.75928 11.51856,2.30371 q 16.12599,-1.15185 8.06299,-21.30933 -5.18335,-12.67042 -17.27784,-9.79078 6.91114,-0.57593 12.09449,9.79078 4.60743,14.3982 -5.75928,16.12598 l -6.91113,-0.57593 m 46.07424,-86.3892 -10.94263,2.87964 q -3.45557,6.91114 3.45557,14.3982 l 2.87964,0.57593 q 15.55005,4.0315 27.64454,0 l 5.75928,-2.87964 q -10.94263,-12.67042 -22.46119,-14.97413 h -6.33521 m -25.34084,-159.53206 6.33522,2.87964 q -18.4297,-3.455568 -38.58718,10.366704 l -8.63892,8.062992 -7.48707,6.911136 -12.670414,19.581552 -6.335208,13.822276 -0.575928,3.45556 -5.75928,26.49269 -0.575928,9.79078 3.455568,20.15748 q 5.75928,23.61305 22.46119,32.8279 l -6.911134,-1.72778 q -21.885264,-8.063 -29.372328,-36.28347 l -1.151856,-4.60743 -26.492688,3.45557 24.764904,-14.97413 q -1.151856,-20.15748 4.607424,-38.01125 L 4e-6,65.079864 77.174352,81.205848 Q 84.661416,66.807648 98.483688,54.71316 L 86.965128,22.461192 108.85039,47.226096 q 21.88527,-14.3982 42.61867,-6.911136 m 251.10462,-8.062992 q 98.48369,32.827896 102.51518,133.039372 1.15186,62.77615 -29.94825,105.39483 l -28.22048,40.31496 q -30.52418,40.31496 -2.87964,86.96512 Q 488.96288,437.12936 512,489.53881 H 241.31384 q 19.00562,-16.12599 25.91676,-38.01125 -13.82227,-13.24635 -17.85377,-29.94826 -12.09449,-13.82227 -28.22047,-20.15748 l 69.68729,-14.97413 q 43.1946,-19.58155 42.04274,-89.26884 -5.75928,60.47244 -48.95388,79.47807 l -93.87627,19.00562 q -44.34646,10.36671 -57.01687,-7.48706 -6.91114,-14.3982 0,-31.10011 2.87964,-10.94264 -3.45557,-16.70192 l -2.30371,-2.87964 q -3.45557,-7.48706 4.60742,-15.55005 l 12.09449,1.72778 3.45557,1.15186 q 5.75928,2.30371 12.09449,-4.60743 l -13.82228,-0.57592 -4.03149,-1.72779 -13.82227,0.57593 q -4.0315,-5.18335 -3.45557,-13.24634 l 0.57593,-4.0315 q 2.30371,-14.97413 -15.55006,-16.12598 -12.670416,-2.87964 -15.550056,-17.85377 -0.575928,-6.91114 5.75928,-12.67042 l 14.974126,-16.12598 16.12599,-16.70191 3.45556,-4.0315 q 10.36671,-12.09449 10.36671,-27.06862 v -1.15185 q -3.45557,-18.4297 7.48707,-32.25197 11.51856,-76.59843 78.90213,-110.578182 85.81328,-36.283464 171.62655,-14.3982 M 379.53656,225.76378 q 15.55005,9.21485 8.06299,27.06862 -5.75928,13.82227 -14.3982,19.00562 l -9.79078,12.09449 q -9.21484,19.58155 -23.61304,10.94263 14.3982,23.03712 27.06861,-2.30371 l 12.67042,-15.55006 q 11.51856,-6.91113 19.00562,-24.7649 10.36671,-23.61305 -10.94263,-35.13161 -15.55006,-8.06299 -35.13161,14.97413 15.55006,-12.67042 27.06862,-6.33521"
     fill="#ffffff"
     fill-rule="evenodd"
     stroke="none"
     id="path643"
     style="fill:#d9c68c;fill-opacity:1;stroke-width:11.5186" /></svg>
