<?xml version="1.0" encoding="UTF-8" standalone="no"?>
<!-- Created with Inkscape (http://www.inkscape.org/) -->

<svg
   width="512"
   height="512"
   viewBox="0 0 512 512"
   version="1.1"
   id="svg1"
   inkscape:version="1.3.2 (091e20e, 2023-11-25, custom)"
   sodipodi:docname="drawing.svg"
   xmlns:inkscape="http://www.inkscape.org/namespaces/inkscape"
   xmlns:sodipodi="http://sodipodi.sourceforge.net/DTD/sodipodi-0.dtd"
   xmlns="http://www.w3.org/2000/svg"
   xmlns:svg="http://www.w3.org/2000/svg">
  <sodipodi:namedview
     id="namedview1"
     pagecolor="#ffffff"
     bordercolor="#000000"
     borderopacity="0.25"
     inkscape:showpageshadow="2"
     inkscape:pageopacity="0.0"
     inkscape:pagecheckerboard="0"
     inkscape:deskcolor="#d1d1d1"
     inkscape:document-units="px"
     inkscape:zoom="1.1131408"
     inkscape:cx="220.99631"
     inkscape:cy="216.9537"
     inkscape:window-width="1920"
     inkscape:window-height="1017"
     inkscape:window-x="1042"
     inkscape:window-y="276"
     inkscape:window-maximized="1"
     inkscape:current-layer="svg1" />
  <defs
     id="defs1" />
  <path
     d="m 204.91767,123.04503 1.29585,1.48096 3.88752,4.25777 q 10.18159,13.69886 10.36671,31.28524 l 0.37023,4.07263 -0.18511,0.74049 -1.66608,10.55183 -2.03632,5.36849 q -3.51727,8.88574 -12.0328,17.03102 l -5.92383,5.92383 q -8.14527,8.51551 -17.58638,12.03279 l -5.5536,2.22144 -9.99648,1.48095 h -0.92559 l -3.88752,0.18513 q -17.21615,-0.18513 -31.10014,-10.92208 l -4.25775,-3.51728 -1.29585,-1.48095 -7.21966,-7.03455 Q 71.446268,190.7989 68.114108,147.66597 L 54.600362,134.15222 Q 39.050286,118.60215 38.680044,97.313372 q 0,-21.844145 15.364951,-37.209085 l 7.404793,-7.404803 Q 76.629623,37.519659 98.28864,37.704775 q 21.65901,0.370241 37.02397,15.735192 33.50669,5.553596 37.2091,37.209095 l 32.39596,32.395968 m 15.92031,89.41289 q 9.62624,-9.256 14.25424,-19.06734 l 26.1019,27.58286 7.58991,-7.58992 13.88399,14.06911 -7.58991,7.58991 190.30321,198.81873 q 7.58992,7.58992 7.58992,17.95663 1.66608,9.99648 -4.62801,16.29055 l -0.74046,0.74048 q -6.10896,6.10896 -17.21615,5.36847 -9.07089,-0.74047 -16.66079,-8.51551 l -198.07825,-191.22881 -7.4048,7.4048 -14.06911,-13.884 7.21968,-7.21967 -27.58287,-26.65725 q 10.36672,-4.62801 19.80782,-14.25425 l 7.21968,-7.40479"
     fill="#ffffff"
     fill-rule="evenodd"
     stroke="none"
     id="path516"
     style="fill:#d2902d;fill-opacity:1;stroke-width:3.70239" />
</svg>
