<?xml version="1.0" encoding="UTF-8" standalone="no"?>
<!-- Created with Inkscape (http://www.inkscape.org/) -->

<svg
   width="512"
   height="512"
   viewBox="0 0 512 512"
   version="1.1"
   id="svg1"
   inkscape:version="1.3.2 (091e20e, 2023-11-25, custom)"
   sodipodi:docname="KWD_KIT_MagicBoundBattleAxe.svg"
   xmlns:inkscape="http://www.inkscape.org/namespaces/inkscape"
   xmlns:sodipodi="http://sodipodi.sourceforge.net/DTD/sodipodi-0.dtd"
   xmlns="http://www.w3.org/2000/svg"
   xmlns:svg="http://www.w3.org/2000/svg">
  <sodipodi:namedview
     id="namedview1"
     pagecolor="#ffffff"
     bordercolor="#000000"
     borderopacity="0.25"
     inkscape:showpageshadow="2"
     inkscape:pageopacity="0.0"
     inkscape:pagecheckerboard="0"
     inkscape:deskcolor="#d1d1d1"
     inkscape:document-units="px"
     inkscape:zoom="0.82128906"
     inkscape:cx="228.90844"
     inkscape:cy="270.91558"
     inkscape:window-width="1920"
     inkscape:window-height="1017"
     inkscape:window-x="1042"
     inkscape:window-y="276"
     inkscape:window-maximized="1"
     inkscape:current-layer="layer1" />
  <defs
     id="defs1" />
  <g
     inkscape:label="Layer 1"
     inkscape:groupmode="layer"
     id="layer1">
    <path
       id="path1"
       d="m 223.38002,493.1587 c -1.44808,2.50797 -2.56229,3.38467 -5.51536,4.11174 l -3.71637,0.99568 -20.25721,-12.30334 c -11.1489,-6.8421 -39.40675,-23.25747 -39.25555,-23.37354 3.13698,-2.40705 3.09651,-13.33118 2.29989,-16.30485 -0.28094,-1.04856 18.63656,10.15183 35.66102,19.98092 l 31.00881,17.90292 0.72692,2.95327 c 0.65427,2.20168 0.36438,3.75696 -0.95215,6.0372 z m -36.14492,15.03895 c -0.26331,0.45583 -1.18152,1.34473 -1.96808,2.00496 -0.86265,0.61676 -2.71652,1.37029 -4.11117,1.67995 -2.42989,0.52243 -3.61382,-0.0596 -30.44232,-15.54922 C 129.2809,483.95919 122.34427,479.6504 120.47098,477.45405 119.10613,475.95673 67.041125,402.72791 66.339719,401.3097 65.606553,399.77175 44.858224,370.41561 43.824018,367.99459 42.789733,365.57332 40.422847,361.7746 38.625296,359.62229 35.647367,356.18012 33.150885,354.53603 18.178691,345.89196 8.8303832,340.49468 0.75391234,335.5278 0.2014253,334.90473 -0.64314268,333.9105 0.784405,331.08666 11.973834,311.7061 l 12.681135,-21.96445 36.957481,21.64128 c 36.501029,21.37813 36.957019,21.64141 40.81208,26.19771 2.16549,2.56771 5.21649,6.761 6.87054,9.33743 1.53282,2.60931 4.0264,7.5942 5.3818,11.21405 1.3994,3.54398 3.00558,9.53816 3.59775,13.42688 0.5602,3.76863 0.97913,9.88806 0.84362,13.45788 -3.21053,17.42556 -3.2192,9.71989 -2.73889,11.42912 0.76452,2.7207 3.60457,13.53383 15.94803,25.76618 5.69592,5.64472 9.01035,9.06641 12.61687,20.85642 0.27725,1.27484 1.46267,11.48581 0.62872,12.93013 -1.0969,1.89979 -2.49478,2.91689 -5.01241,3.59139 -1.99393,0.47012 -4.31229,0.44892 -5.37652,-0.16547 -1.06389,-0.61432 -5.98348,-8.78319 -17.34289,-24.56296 -13.56565,-18.97909 -19.394029,-19.63508 -20.557542,-19.90134 -0.93557,-0.13496 -8.81877,-5.12406 -9.661055,-4.19163 -3.269086,-1.29265 23.290447,39.67472 43.019217,59.40538 4.70829,4.70874 14.62659,4.48808 14.83558,3.0782 2.18155,-0.97012 3.32769,1.81347 21.89263,12.83582 13.97261,8.26985 19.04121,11.6015 20.07843,13.31531 0.83296,1.19008 1.20358,3.53191 0.91348,5.08726 -0.33368,1.63145 -0.78728,3.295 -1.12677,3.70696 z m 29.09686,-51.97658 c -0.96542,1.67209 -2.36329,2.68897 -4.47714,3.19116 l -3.02933,0.68316 -30.98828,-17.5871 -31.06461,-17.63092 -9.80164,-13.5632 c -5.40921,-7.48075 -9.6904,-14.10715 -9.61113,-14.77079 0.16683,-0.81558 9.72274,4.3974 44.07574,24.23096 36.93668,21.32554 43.9931,25.60216 45.24686,27.6434 0.86488,1.31015 1.39053,3.03241 1.34351,3.81596 -0.16688,0.81552 -0.90413,2.61936 -1.69398,3.98737 z m -22.50073,-49.75676 c -0.4387,0.76022 -1.48875,1.87672 -2.27543,2.53727 -0.86271,0.61656 -2.71666,1.3703 -4.1113,1.67973 -2.42977,0.52246 -3.76567,-0.1473 -28.06585,-13.87305 l -29.70539,-16.84644 c 0.46236,-9.96011 -5.46456,-24.24433 -5.65146,-23.3225 l 43.36091,24.72566 c 17.48056,10.09229 25.10115,14.79604 26.07409,16.2699 0.83302,1.19029 1.45506,3.27211 1.40489,4.76317 -0.0942,1.56705 -0.51571,3.3503 -1.03048,4.06626 z"
       style="fill:#6a55d5;fill-opacity:1;stroke-width:0.0827902" />
    <path
       id="path2"
       d="m 281.42632,19.685687 c 1.49471,-2.588734 2.64481,-3.493661 5.69297,-4.244154 l 3.83606,-1.027739 20.90957,12.699552 c 11.50793,7.062441 40.67579,24.006449 40.51972,24.126256 -3.23801,2.484561 -3.19623,13.76049 -2.37395,16.82992 0.28998,1.08233 -19.23673,-10.478753 -36.80944,-20.624371 L 281.19384,28.965687 280.4435,25.917308 c -0.67533,-2.272583 -0.3761,-3.877951 0.98282,-6.231621 z M 318.73524,4.1624303 c 0.27179,-0.4705058 1.21957,-1.3880388 2.03146,-2.0695253 0.89043,-0.6366277 2.804,-1.4144163 4.24356,-1.73405493 2.50815,-0.53924999 3.73021,0.0615169 31.42269,16.04996693 22.12284,12.772638 29.28285,17.220191 31.21647,19.487266 1.40881,1.545543 55.1505,77.132597 55.8745,78.596477 0.75678,1.58747 22.17327,31.88899 23.24078,34.38798 1.0676,2.49924 3.51071,6.42029 5.36615,8.64192 3.07382,3.55302 5.6507,5.25005 21.10505,14.17249 9.64937,5.5711 17.98593,10.69793 18.5562,11.34107 0.87177,1.02624 -0.60175,3.94102 -12.15151,23.9457 l -13.08953,22.6718 -38.14764,-22.33822 c -37.6765,-22.06658 -38.14718,-22.33834 -42.12639,-27.04137 -2.23523,-2.6504 -5.38447,-6.97873 -7.0918,-9.63813 -1.58218,-2.69334 -4.15606,-7.83876 -5.5551,-11.57519 -1.44447,-3.6581 -3.10238,-9.84532 -3.71362,-13.85927 -0.57823,-3.88999 -1.01066,-10.20649 -0.87078,-13.89127 3.31392,-17.98673 3.32287,-10.03291 2.8271,-11.79718 -0.78915,-2.80832 -3.72066,-13.96968 -16.46163,-26.595934 -5.87935,-5.826502 -9.30052,-9.358385 -13.02318,-21.528079 -0.28618,-1.315898 -1.50978,-11.855696 -0.64897,-13.346529 1.13222,-1.960973 2.57512,-3.010826 5.17383,-3.707042 2.05814,-0.485262 4.45116,-0.463384 5.54966,0.170791 1.09815,0.634109 6.17617,9.066042 17.90141,25.353984 14.0025,19.590284 20.01858,20.267389 21.21957,20.542219 0.9657,0.13931 9.10276,5.28908 9.97218,4.32662 3.37435,1.33427 -24.04049,-40.952385 -44.40461,-61.318437 -4.85991,-4.860386 -15.09762,-4.632616 -15.31334,-3.177328 -2.25181,1.001361 -3.43486,-1.871871 -22.59766,-13.249191 -14.42258,-8.53617 -19.65441,-11.975109 -20.72503,-13.744107 -0.85978,-1.228409 -1.24234,-3.6456556 -0.9429,-5.2510891 0.34443,-1.6839889 0.81264,-3.4011103 1.16306,-3.8263376 z M 288.70135,57.812846 c 0.99651,-1.725935 2.4394,-2.775566 4.62133,-3.293921 l 3.12688,-0.705162 31.98622,18.153464 32.06501,18.198704 10.11728,13.999969 c 5.58342,7.72166 10.00247,14.56146 9.92064,15.24647 -0.17219,0.84184 -10.03584,-4.53901 -45.49513,-25.01127 C 296.9174,72.388795 289.63373,67.974453 288.3396,65.86748 c -0.89273,-1.352349 -1.43531,-3.130069 -1.38678,-3.938852 0.17226,-0.841784 0.93324,-2.703713 1.74853,-4.115782 z m 23.22535,51.359104 c 0.45282,-0.7847 1.53668,-1.93715 2.34869,-2.61898 0.8905,-0.63642 2.80415,-1.41443 4.24371,-1.73382 2.50802,-0.53929 3.88694,0.15203 28.96967,14.31981 l 30.66201,17.38896 c -0.47724,10.28086 5.64057,25.02509 5.83347,24.07357 l -44.7573,-25.52192 c -18.0435,-10.4173 -25.9095,-15.27253 -26.91377,-16.79385 -0.85985,-1.22862 -1.50192,-3.37749 -1.45014,-4.91656 0.0972,-1.61752 0.53233,-3.4582 1.06367,-4.19721 z"
       style="fill:#6a55d5;fill-opacity:1;stroke-width:0.0854564" />
    <path
       d="M 511.92832,477.18346 C 447.53114,428.1128 404.85555,444.07999 373.58739,454.50269 l 4.6298,5.95661 c 6.95488,8.948 1.24047,16.46529 -7.70751,23.42017 l -3.55126,2.76025 c -8.948,6.95488 -17.6413,10.63604 -24.59617,1.68802 l -7.62541,-9.81068 -9.85542,7.66018 c -3.02932,2.35456 -7.36343,1.81136 -9.71797,-1.21796 l -41.95581,-53.9794 c -2.35455,-3.02932 -1.81137,-7.36343 1.21795,-9.71798 l 9.85544,-7.66018 -49.07972,-63.14489 35.85492,-27.86847 47.10183,60.60018 c 49.38926,-33.34825 -0.0463,-123.9559 -15.03773,-168.49132 94.15144,11.88868 212.20586,75.98478 208.80799,262.48624 z M 219.99862,350.84675 c -5.79613,4.50507 -14.0869,3.46597 -18.59197,-2.33015 l -14.53402,-18.69914 c -4.50507,-5.79614 -3.46733,-14.08863 2.32881,-18.5937 l 55.18553,-42.89327 c 5.79613,-4.50507 14.08997,-3.4656 18.59504,2.33052 l 14.53402,18.69915 c 4.50507,5.79613 3.46426,14.08825 -2.33187,18.59332 z M 193.33109,296.58753 3.4393839,52.276974 c -6.95489,-8.94803 -2.61292993,-18.22742 6.33498,-25.18224 l 3.5514001,-2.7603 c 8.94792,-6.95497 19.01367,-8.8738 25.96845,0.0741 L 229.18603,268.71907 Z"
       fill="#a4a5bf"
       stroke-width="2.73064"
       id="path1-7"
       sodipodi:nodetypes="ccsssscsccsccccccssssssscsccssccc"
       style="fill:#6a55d5" />
  </g>
</svg>
