<?xml version="1.0" encoding="UTF-8" standalone="no"?>
<svg
   height="512"
   viewBox="0 0 135.46666 135.46667"
   width="512"
   version="1.1"
   id="svg2"
   sodipodi:docname="KWD_KIT_SpellDamage_PoisonRune_R.svg"
   inkscape:version="1.3.2 (091e20e, 2023-11-25, custom)"
   xmlns:inkscape="http://www.inkscape.org/namespaces/inkscape"
   xmlns:sodipodi="http://sodipodi.sourceforge.net/DTD/sodipodi-0.dtd"
   xmlns="http://www.w3.org/2000/svg"
   xmlns:svg="http://www.w3.org/2000/svg">
  <defs
     id="defs2" />
  <sodipodi:namedview
     id="namedview2"
     pagecolor="#ffffff"
     bordercolor="#000000"
     borderopacity="0.25"
     inkscape:showpageshadow="2"
     inkscape:pageopacity="0.0"
     inkscape:pagecheckerboard="0"
     inkscape:deskcolor="#d1d1d1"
     inkscape:zoom="1.5742188"
     inkscape:cx="256.31761"
     inkscape:cy="255.68237"
     inkscape:window-width="1920"
     inkscape:window-height="1017"
     inkscape:window-x="1042"
     inkscape:window-y="235"
     inkscape:window-maximized="1"
     inkscape:current-layer="svg2" />
  <g
     fill="#9eda74"
     id="g2"
     style="fill:#8abf40;fill-opacity:1">
    <path
       d="m62.695443 39.268622-6.667592.09507c-.625816 5.686868-.617168 11.401514.0062 17.088081.258145 1.161446 1.238911.651269 2.6358-1.3715 1.495161-2.165083 2.982947-3.204376 5.284681-3.691511 2.934762-.621106 2.811236-.946433 2.864226 7.566338.04277 14.205618-1.094281 30.156152.622956 43.28713.127249.97299.604874 1.301.82906.47596 1.503426-5.532757 3.697855-21.81206 3.820572-26.570444.136174-10.536721 4.742271-19.590296 2.778906-21.527802-.499917-.493351-1.775445-3.013551-1.608583-3.178222.07576-.07479.746914.03153 1.491619.235597.744719.204066 1.548202.371683 1.785422.372751.54506.0026 1.342673-1.53344 1.640228-3.157846.125701-.686402.636846-1.624999 1.135244-2.085768.498383-.460768 1.476521-1.992081 2.174136-3.402274 1.730204-3.497494 1.69423-3.519052-5.730519-3.519052-3.397423 0-5.818914-.142918-6.034614-.355775-.22715-.224168-2.823298-.320498-7.027427-.260719z"
       stroke-width="1.32261"
       id="path1"
       style="fill:#8abf40;fill-opacity:1" />
    <path
       d="m67.73333.00000248a67.733116 67.733339 0 0 0 -67.7333337 67.73333252 67.733116 67.733339 0 0 0 67.7333337 67.733325 67.733116 67.733339 0 0 0 67.73333-67.733325 67.733116 67.733339 0 0 0 -67.73333-67.73333252zm0 2.05258802a65.680599 65.680817 0 0 1 65.68081 65.6807445 65.680599 65.680817 0 0 1 -65.68081 65.680735 65.680599 65.680817 0 0 1 -65.6807927-65.680735 65.680599 65.680817 0 0 1 65.6807927-65.6807445zm-4.078907 1.241268c-3.941531 0-3.941758.000001-3.941758 6.4543856 0 3.7432979.221297 6.5888179.52609 6.7747799.295443.180254.525569-.231841.525569-.942577 0-1.80683 1.464646-5.022432 2.28758-5.022432.38325 0 1.571694.933452 2.641449 2.074808 1.069721 1.141359 2.1813 2.075326 2.470273 2.075326.288984 0 1.435703-.945057 2.548271-2.099613 2.022846-2.099198 2.023386-2.099174 2.575493.389122 1.455138 5.316752.96253 10.955045-1.575134 15.951482-.668781.754365-.520234 1.321284.268019 1.022677.08945-.03388 4.19467-1.672916 4.441676-17.079578.153812-9.5984005.153245-9.5983805-3.260719-9.5983805-3.413996 0-3.413589.000602-2.596955 1.4273029.759636 1.3271126.01346 1.4589116-.418779 4.5392577-.671283 4.7841369-3.014637 3.6656009-3.731323 1.2050949-1.022335-3.5097673-1.924297-5.4605485-.13139-6.1334765.72261-.271214 1.313396-.616116 1.313396-.765845s-1.773909-.272334-3.941758-.272334zm-29.061702 14.8802285c-4.36893-.0179-9.166757.2135-9.441375.652157-.230014.367385.05532 1.194012.633928 1.837097 1.568458 1.743268 3.297885 6.256453 3.297885 8.605677 0 1.702456.217495 1.978621 1.228594 1.559078.675764-.28041 1.985701-.670956 2.911038-.867648 1.634027-.347313 1.671443-.259774 1.288793 3.034957-.453685 3.906435.651054 9.764312 2.176605 11.54038 1.407811 1.638976 1.555157 1.306143.828658-1.873787-1.056131-4.622664.489787-12.964437 3.847011-20.756872.887276-2.059446.961689-2.822262.314081-3.217375-.54872-.334778-3.687158-.499738-7.085218-.513664zm-1.706525 1.925981c3.874149 0 3.920298.02361 3.920298 2.04742 0 1.269927-.678844 2.718081-1.787142 3.81217-.982944.970335-1.916137 1.764234-2.073478 1.764234-.157438 0-.995845-1.48159-1.863044-3.292306-.867192-1.810717-1.698475-3.525751-1.846817-3.811653-.148415-.285889 1.494169-.519865 3.650183-.519865zm77.044894.47904c-1.09089-.0012-2.55589.01877-4.48618.04806-8.066798.122393-8.066809.122411-8.174565 3.962032-.112178 4.006032.56195 5.150862 1.194568 2.028299.567361-2.800361 1.890187-3.877281 4.764137-3.877281 1.37701 0 2.50378.145164 2.50378.322461 0 .1773-.62241 1.137291-1.38302 2.133203-3.36116 4.400999-6.144588 11.932988-6.062355 16.404166.04552 2.471443.04537 2.471376.901429-.08837.470861-1.407862 1.506496-4.134956 2.301196-6.060612 1.44485-3.501187 1.44463-3.501263 4.14015-3.716569 4.60762-.368054 5.75452.0098 6.54028 2.154907.77333 2.111153 1.42138 1.742116 1.30659-.744141-.26841-5.814018.18471-5.214285-4.08154-5.401737-3.82802-.168202-3.82814-.168033-1.29664-2.748153 1.39233-1.419062 3.17982-3.009785 3.97214-3.535184 1.03408-.685701 1.13268-.877592-2.13997-.881084zm-41.125684 11.170894a38.956517 37.675362 0 0 0 -38.956404 37.67522 38.956517 37.675362 0 0 0 38.956404 37.675728 38.956517 37.675362 0 0 0 38.956414-37.675728 38.956517 37.675362 0 0 0 -38.956414-37.67522zm0 1.780771a37.115503 35.894895 0 0 1 37.115344 35.894449 37.115503 35.894895 0 0 1 -37.115344 35.894968 37.115503 35.894895 0 0 1 -37.115346-35.894968 37.115503 35.894895 0 0 1 37.115346-35.894449zm-53.816781 20.683491c-8.4351474 0-8.4351713-.000074-8.6179514 13.156303-.1862101 13.391054.6804839 17.955065 1.3814471 7.274492.360198-5.488323 1.6475317-11.074935 3.3664613-14.609962.60179-1.237525.500694-1.679853-.566399-2.476851-1.1710236-.874576-.7352405-.972751 4.418118-.991671 5.432097-.02013 5.64032.03201 4.174707 1.045415-1.392804.963048-1.443533 1.175022-.51824 2.184362 1.626424 1.774116 3.031012 8.257233 3.158119 14.577922.06429 3.2007.249206 6.044204.411451 6.318994 1.249798 2.11817 1.574304-.869834 1.410237-12.989905-.182668-13.489449-.183034-13.489099-8.61795-13.489099zm102.060665.0026c-1.15814.018-2.53502.121008-3.46276.270784-2.24917.3631-2.24899.363282-.17328 2.70371 2.23628 2.521454 4.17155 7.903373 4.17155 11.600326 0 2.256341-.0494 2.292366-3.1487 2.292366-3.14883 0-3.14921.000006-3.14921 3.193088 0 2.759968.14227 3.07649 1.04957 2.33319.57731-.472969 1.04957-1.288406 1.04957-1.811776 0-.605687.79692-.951363 2.19178-.951363 2.13781 0 2.18121.06339 1.78557 2.59054-.22303 1.424725-.61583 3.289614-.87316 4.144449-.44345 1.472652-.276 1.554428 3.19372 1.554428 3.46971 0 3.63762-.08176 3.19424-1.554428-.25735-.854835-.65103-2.719724-.87368-4.144449-.39272-2.508253-.33843-2.59054 1.70076-2.59054 1.38292 0 2.49347.533818 3.23508 1.554427 1.10811 1.525069 1.12616 1.502013.96004-1.209227-.16835-2.749322-.18538-2.764669-3.43241-3.108339-3.26329-.345383-3.26334-.345491-1.55838-5.492688.93771-2.830958 2.49794-6.483116 3.46749-8.116299 1.76277-2.969441 1.76275-2.969804-2.11536-3.056145-2.13295-.04749-4.90105-.13296-6.15186-.19017-.31272-.01431-.67453-.01789-1.06057-.01189zm6.62771 2.287197c.28502-.02848-.10342 1.176678-.97786 2.954859-.99568 2.024723-2.05431 4.458115-2.35248 5.40794-.44568 1.420558-.55392 1.482167-.60932.345714-.0369-.759855-.80026-2.935726-1.69659-4.835364-1.62962-3.453873-1.6299-3.454207 1.42281-3.210656 1.69065.134887 3.4977-.120458 4.04959-.572575.0686-.05633.12312-.08584.16385-.08992zm-17.85936 35.162713c-6.221555 0-6.221495-.000184-6.221495 3.973917 0 4.056857.576965 4.816169 2.195955 2.890263.5012-.5961 1.36507-1.083655 1.9196-1.083655.81429 0 1.0082 2.223069 1.0082 11.561061 0 11.52939.95767 15.51444 1.77981 7.40626.23176-2.28506.80052-6.59347 1.2642-9.57409.46374-2.98053.83949-6.31341.83442-7.406272-.005-1.092899.26499-1.986959.59936-1.986959.67471 0 2.84143-3.82947 2.84143-5.021915 0-.470068-2.36557-.75861-6.22148-.75861zm-72.305367.715201v.000518c-.61008-.0061-1.297361.0043-2.072958.0186-2.976581.05948-5.412196.240448-5.412196.401526 0 .161283 1.53041 1.923649 3.400487 3.91759 1.870073 1.994022 3.286439 3.737951 3.147125 3.875731-.13944.13757-.999564-.0288-1.910157-.37052-.910598-.341752-3.187878-.621152-5.061469-.621152-3.406488 0-3.406424-.00042.519286 3.777542 5.451409 5.24637 7.207423 7.79006 8.021191 11.61996.602255 2.83448.551947 3.6138-.350204 5.48132-.476926.98741-.738517 1.52225-1.122329 1.62988l.731817.33176.578961.71054c-.01003-.4928.346641-1.08021.972616-2.10115 2.378413-3.87907 1.894245-7.13382-2.052018-13.78831-1.148442-1.93656-1.960265-3.64813-1.803368-3.80288.157019-.15494 1.117391.41 2.133681 1.2542 1.847806 1.5348 1.847116 1.53436 2.231045.0243.599297-2.35716-1.126394-7.621918-2.939305-8.966374-.379642-.281885.267076-.347692 1.463633-.149859 1.266191.209319 2.730504 1.033905 3.579513 2.01538 1.437041 1.661215 1.436916 1.661048 1.126517-.931727-.429449-3.58719-.911327-4.290113-5.181868-4.326867zm27.660884 14.328335c-1.086293.0132-.824412.26378 1.447403 1.38441 1.525677.75262 3.102764 1.87812 3.504661 2.50114.730735 1.1328.730929 1.13274-4.176276 1.13274-2.698957 0-4.907568.12566-4.907568.27906s.703717 1.52741 1.563617 3.05304c2.417104 4.28877 4.006918 13.28239 2.347779 13.28239-.373346 0-.985718-.56657-1.361032-1.25883-.693553-1.27934-1.530114-1.68329-1.530114-.73897 0 1.03194 1.602027 4.27456 2.662911 5.38932.59652.62669 1.569627 1.13999 2.162994 1.13999 1.134196 0 5.373461-3.45066 5.373461-4.3739 0-.29563.349303-.82433.776835-1.17461 1.504245-1.23238.299575-1.07106-1.620675.21705-1.068675.7169-2.457733 1.30379-3.086925 1.30379-1.020676 0-1.090205-.14122-.641256-1.30689.276757-.71858.614714-3.18063.751185-5.47151.215943-3.62687.116584-4.33022-.770554-5.44359-1.272123-1.59748-1.275004-1.8471-.01727-1.52239.560125.14457 2.053429-.32304 3.392633-1.06195 2.392382-1.31996 2.392423-1.31966 4.485648-.31937 3.825285 1.82807 5.066122 6.39996 3.187431 11.74503-1.119155 3.18413-2.126296 4.63285-4.078384 5.86734-1.613323 1.01935-1.613356 1.01944.426632 1.00924 1.803475-.01 2.224217-.25804 3.626626-2.14251.872491-1.17238 2.330461-3.54366 3.240304-5.26944.909823-1.7258 1.859875-3.26327 2.111171-3.41685.2527-.15418.456993 1.30949.456993 3.27526 0 2.03362.218538 3.55431.510385 3.55431.280499 0 .509866-.0771.509866-.17157 0-.0941.439574-1.86773.976802-3.94136.787464-3.03949.876979-4.23122.46275-6.14847-.634303-2.93592-1.682556-2.81075-2.661865.31781-.433201 1.38399-1.75799 1.03426-2.863402-.75551-.999785-1.61871-1.371145-3.90675-.631833-3.89485 1.638537.0293 2.677568.7332 2.677568 1.81385 0 1.5442.684786 1.52798 1.726417-.0413.867202-1.3066 1.140748-4.80023.375855-4.80023-.246243 0-1.271692.33962-2.278684.75499-1.077559.44448-3.411551.755-5.67236.755-3.314311 0-3.842621-.12091-3.852246-.88109-.0208-1.68277-5.575575-4.67764-8.60748-4.64054z"
       stroke-width=".31144"
       id="path2"
       style="fill:#8abf40;fill-opacity:1" />
  </g>
</svg>
