<?xml version="1.0" encoding="UTF-8" standalone="no"?>
<svg
   height="512"
   viewBox="0 0 135.46666 135.46667"
   width="512"
   version="1.1"
   id="svg3"
   sodipodi:docname="Magic_HandsHealing_1.svg"
   inkscape:version="1.3.2 (091e20e, 2023-11-25, custom)"
   xmlns:inkscape="http://www.inkscape.org/namespaces/inkscape"
   xmlns:sodipodi="http://sodipodi.sourceforge.net/DTD/sodipodi-0.dtd"
   xmlns="http://www.w3.org/2000/svg"
   xmlns:svg="http://www.w3.org/2000/svg">
  <defs
     id="defs3" />
  <sodipodi:namedview
     id="namedview3"
     pagecolor="#ffffff"
     bordercolor="#000000"
     borderopacity="0.25"
     inkscape:showpageshadow="2"
     inkscape:pageopacity="0.0"
     inkscape:pagecheckerboard="0"
     inkscape:deskcolor="#d1d1d1"
     inkscape:zoom="0.81347657"
     inkscape:cx="282.73709"
     inkscape:cy="252.61945"
     inkscape:window-width="1920"
     inkscape:window-height="1009"
     inkscape:window-x="1042"
     inkscape:window-y="235"
     inkscape:window-maximized="1"
     inkscape:current-layer="svg3" />
  <path
     id="path1"
     d="M 61.261111,4.22441 V 31.428581 H 34.056938 V 44.373037 H 61.261111 V 71.57672 H 74.205566 V 44.373037 H 101.40973 V 31.428581 H 74.205566 V 4.22441 Z M 12.88749,50.699931 c -0.299484,-0.02994 -0.621671,0.01404 -1.019668,0.120679 -0.875474,0.234614 -1.230991,0.499983 -1.69,1.333827 l -0.6019335,1.043119 2.0784245,7.120574 c 1.165325,3.924641 3.838832,13.796696 3.886171,13.760386 0.981787,-0.75336 4.281004,0.143683 5.115437,0.625383 0.294232,0.169864 -1.558973,-6.455887 -3.151344,-12.398711 L 14.603874,51.480683 13.769866,51.021418 C 13.463572,50.833352 13.186974,50.729873 12.88749,50.699931 Z m 109.69169,0 c -0.29948,0.02994 -0.57609,0.133421 -0.88238,0.321487 l -0.834,0.459265 -2.90071,10.824505 c -1.59237,5.942824 -3.44559,12.568575 -3.15135,12.398711 0.83444,-0.4817 4.13368,-1.378742 5.11544,-0.625383 0.0473,0.03631 2.72085,-9.835745 3.88617,-13.760386 l 2.07843,-7.120574 -0.60242,-1.043119 c -0.45902,-0.833844 -0.81403,-1.099213 -1.68952,-1.333827 -0.39799,-0.106645 -0.72017,-0.150621 -1.01966,-0.120679 z M 23.806291,55.75381 c -0.26006,-0.01562 -0.86508,0.06161 -1.34262,0.189569 -0.583686,0.156409 -1.004427,0.496556 -1.327474,1.094909 l -0.451937,0.860391 2.806407,10.792748 2.813737,10.819129 3.306225,4.06157 c 1.823333,2.241215 3.479784,4.072331 3.686829,4.102124 0.260074,0.01564 -0.541596,-3.295421 -3.754742,-15.287201 -3.4549,-12.893706 -4.17632,-15.373595 -4.69184,-15.917957 C 24.524868,56.101505 24.04698,55.80307 23.806291,55.75381 Z m 87.854089,0 c -0.24069,0.04926 -0.71858,0.347695 -1.04459,0.715282 -0.51553,0.544363 -1.23693,3.024251 -4.69183,15.917957 -3.21315,11.991781 -4.01482,15.30283 -3.75475,15.287201 0.20704,-0.02979 1.86351,-1.860909 3.68683,-4.102124 l 3.30622,-4.06157 2.81375,-10.819129 2.8064,-10.792748 -0.45194,-0.860391 c -0.32305,-0.598353 -0.7438,-0.938501 -1.32747,-1.094909 -0.47754,-0.127966 -1.08256,-0.205179 -1.34262,-0.189569 z M 4.8615738,60.471056 c -0.2189457,0.0053 -0.3920473,0.02351 -0.4680602,0.05815 -0.1591442,0.04268 -0.5022971,0.248092 -0.7656059,0.432393 -0.2563334,0.210831 -0.6342536,0.710109 -0.8408473,1.106637 -0.3547662,0.692261 -0.2746602,1.097278 2.234768,10.462466 2.0046897,7.481609 2.7456348,9.927845 3.2578557,10.672067 0.3421048,0.533893 18.2620679,22.205461 18.6339799,22.532371 0.40556,0.34622 7.599614,8.99657 8.24773,9.50534 0.648194,0.50879 1.604638,1.53215 2.10969,2.24991 0.799382,1.17907 1.094311,2.0666 2.494694,7.29303 0.874391,3.26327 1.721794,6.10719 1.865401,6.32468 0.232157,0.33586 1.201514,0.13302 7.966796,-1.67974 l 7.667296,-2.054 -3.548561,-12.92589 C 50.210626,101.68221 50.167702,101.52293 49.102554,99.988461 48.50173,99.125804 47.481409,97.86391 46.836517,97.155167 46.171865,96.480423 44.866587,95.322888 43.88207,94.619919 42.924054,93.909792 41.242244,92.938776 40.114625,92.444757 39.020713,91.970129 37.20478,91.347897 36.114615,91.099694 33.433298,90.885809 32.615374,90.92404 32.414104,90.986832 31.630631,90.522448 28.621521,88.787003 25.939921,84.093448 24.69487,81.91428 23.928971,80.634894 20.6569,78.589587 c -0.362944,-0.187086 -3.353655,-1.372689 -3.857833,-1.237575 -0.66318,0.177713 -1.083794,0.517923 -1.491637,1.224382 -0.303628,0.564709 -0.485011,1.267698 -0.38549,1.639189 0.09954,0.371382 2.170562,2.520202 6.020779,7.23246 4.638662,5.638376 4.364568,7.453265 4.350811,7.82657 -0.03497,0.293765 0.834783,3.081207 0.484671,3.260304 C 25.904167,99.62791 15.670647,88.280264 11.303999,80.717843 10.261889,78.913061 11.132009,75.932468 11.575162,75.983497 12.04515,75.402581 11.296742,74.83067 9.4684007,68.325483 8.1001927,63.43156 7.5035378,61.629439 7.06947,61.177055 6.7771595,60.828846 6.0993719,60.526934 5.6056822,60.488644 5.3455695,60.473006 5.0805196,60.465714 4.8615738,60.471056 Z m 125.7435262,0 c 0,0.219001 -0.484,0.0019 -0.74412,0.01758 -0.49369,0.03828 -1.17149,0.340202 -1.46379,0.688411 -0.43408,0.452384 -1.03071,2.254505 -2.39893,7.148423 -1.82834,6.505187 -2.57674,7.077096 -2.10676,7.658014 0.44315,-0.05104 1.31328,2.929564 0.27117,4.734347 -4.36665,7.56242 -14.60018,18.910058 -14.47421,17.817071 -0.35012,-0.179097 0.51965,-2.966537 0.48468,-3.260301 -0.0137,-0.373307 -0.28787,-2.188195 4.3508,-7.826572 3.85022,-4.712257 5.92126,-6.861077 6.02079,-7.23246 0.0995,-0.371491 -0.0818,-1.074479 -0.3855,-1.639188 -0.40784,-0.70646 -0.82846,-1.046669 -1.49163,-1.224382 -0.50418,-0.135114 -3.49489,1.050489 -3.85783,1.237575 -3.27209,2.045307 -4.03798,3.324693 -5.28302,5.503861 -2.68162,4.693555 -5.69072,6.428999 -6.47419,6.893385 -0.20128,-0.0628 -1.01919,-0.101022 -3.700496,0.112862 -1.090169,0.248203 -2.906103,0.870436 -4.000012,1.345062 -1.127623,0.494019 -2.809429,1.465036 -3.767445,2.175162 -0.984521,0.702969 -2.289795,1.860502 -2.954447,2.535246 -0.644895,0.708742 -1.665214,1.970647 -2.266037,2.833289 -1.065142,1.534469 -1.108075,1.693749 -4.614156,14.460009 l -3.548562,12.9259 7.667296,2.05399 c 6.765285,1.81277 7.734649,2.0156 7.966798,1.67974 0.143605,-0.21749 0.991001,-3.06141 1.8654,-6.32467 1.400382,-5.22643 1.695314,-6.11397 2.494694,-7.29304 0.505049,-0.71777 1.461505,-1.74112 2.109697,-2.24991 0.64811,-0.50877 7.84216,-9.15913 8.24771,-9.50534 0.37193,-0.32692 18.29189,-21.998475 18.63398,-22.532368 0.51224,-0.744223 1.25317,-3.190458 3.25785,-10.672068 2.50944,-9.365187 2.58954,-9.770206 2.23477,-10.462466 -0.20658,-0.396529 -0.58451,-0.895806 -0.84084,-1.106635 -0.26331,-0.184302 -0.60648,-0.389716 -0.7656,-0.432394 -0.076,-0.03463 -0.46806,-0.277157 -0.46806,-0.05815 z m -94.349775,6.240153 c 0,-0.235788 -0.443538,0.01569 -0.572616,0.06448 -0.26534,0.07106 -0.68785,0.29792 -0.951266,0.482229 -0.25627,0.210866 -0.634315,0.710576 -0.840848,1.107124 -0.354759,0.692215 -0.260407,1.150454 1.920612,9.608427 l 2.686704,10.344719 c 3.048471,0.667027 6.886233,3.615591 6.59242,3.597419 L 41.12794,76.804299 c -1.635011,-6.102022 -2.439663,-8.786455 -2.806407,-9.199969 -0.292364,-0.348249 -0.871187,-0.704945 -1.326007,-0.810555 -0.240681,-0.04923 -0.740201,0.153222 -0.740201,-0.08257 z m 62.956027,0 c -0.235747,0.0044 -0.499521,0.03333 -0.740201,0.08257 -0.454826,0.10561 -1.033648,0.462307 -1.326007,0.810555 -0.366745,0.413515 -1.171402,3.097946 -2.806408,9.199973 l -3.962389,15.111307 c -0.293816,0.01817 3.543939,-2.930392 6.592419,-3.597419 l 2.686706,-10.344719 c 2.181008,-8.457972 2.275358,-8.916213 1.920608,-9.608427 -0.20653,-0.396549 -0.58457,-0.896259 -0.84085,-1.107124 -0.26341,-0.18431 -0.68591,-0.411187 -0.95126,-0.482229 -0.129075,-0.04881 -0.336869,-0.06886 -0.572618,-0.06448 z"
     style="fill:#d9c68c;stroke-width:0.945461"
     sodipodi:nodetypes="cccccccccccccscccccscccsscccsscccsscsccccccccccccccccccsccccccccccsccccccccccscscccccscccccsccccscccccscsccccccccccccsccccccssscccccccccssccccccccccc" />
</svg>
