<?xml version="1.0" encoding="UTF-8" standalone="no"?>
<svg
   height="512"
   width="512"
   version="1.1"
   id="svg2"
   sodipodi:docname="KWD_KIT_SpellDamageType_ColdFireRune_D.svg"
   inkscape:version="1.3.2 (091e20e, 2023-11-25, custom)"
   xmlns:inkscape="http://www.inkscape.org/namespaces/inkscape"
   xmlns:sodipodi="http://sodipodi.sourceforge.net/DTD/sodipodi-0.dtd"
   xmlns="http://www.w3.org/2000/svg"
   xmlns:svg="http://www.w3.org/2000/svg">
  <defs
     id="defs2" />
  <sodipodi:namedview
     id="namedview2"
     pagecolor="#ffffff"
     bordercolor="#000000"
     borderopacity="0.25"
     inkscape:showpageshadow="2"
     inkscape:pageopacity="0.0"
     inkscape:pagecheckerboard="0"
     inkscape:deskcolor="#d1d1d1"
     inkscape:zoom="1.1131408"
     inkscape:cx="228.18317"
     inkscape:cy="215.15697"
     inkscape:window-width="1920"
     inkscape:window-height="1009"
     inkscape:window-x="1042"
     inkscape:window-y="235"
     inkscape:window-maximized="1"
     inkscape:current-layer="svg2" />
  <path
     id="path1"
     style="display:inline;fill:#4eb5fd;fill-rule:evenodd;stroke-width:4.29791;paint-order:stroke fill markers"
     d="M 256,11.49707 C 120.96403,11.496608 11.495628,120.96501 11.496095,256.00098 11.496714,391.0362 120.96479,500.5034 256,500.50293 391.0352,500.5034 500.50328,391.03618 500.5039,256.00098 500.50437,120.96501 391.03597,11.496612 256,11.49707 Z m 0,19.673829 C 380.17,31.17144 480.82954,131.83098 480.83007,256.00098 480.82953,380.17099 380.17,480.83052 256,480.83106 131.83,480.83052 31.170459,380.17099 31.169923,256.00098 31.170455,131.83098 131.83,31.171436 256,31.170899 Z M 391.10351,88.40137 c -34.78839,3.07977 -69.53808,7.63073 -104.52343,8.64258 -96.67507,2.17952 -122.38207,1.34347 -139.28516,0.35156 -29.95812,-0.71497 -22.85006,73.3978 -22.01172,102.92382 l 0.17383,12.26563 c 4.77131,-27.25053 6.15966,-49.96549 25.39258,-71.55078 18.23772,-19.84205 27.94805,-23.14198 79.05664,-22.84766 27.29605,0.15709 34.46871,0.78792 36.97265,3.25977 8.72951,8.61707 -40.06107,53.84999 -68.42187,111.46094 -19.59681,39.80813 -54.56143,137.35597 -57.7832,167.44531 -1.37982,15.51459 -1.80576,27.04839 -1.35157,36.94141 0.61955,13.49427 11.11992,-15.43148 17.65039,-48.62891 l 52.36133,-118.39649 c 1.17889,-2.68674 2.76295,-5.60359 5.13672,-5.86132 l 34.91992,-1.72656 c 43.70606,-2.15945 50.0991,-1.74357 85.94922,5.60352 25.20517,5.1655 34.65045,48.55954 35.26562,51.51367 0.66614,3.19873 1.72976,5.3012 2.36329,4.67577 -2.32078,-33.45304 -3.96056,-65.47841 -3.03711,-99.68554 -5.7765,1.79107 -6.69114,3.80581 -17.30078,5.46093 l -0.004,-0.0215 c -28.92771,3.30514 -91.44183,12.56205 -110.04102,-7.91016 C 270.52934,128.55897 382.7865,109.31544 391.10342,88.4033 Z"
     sodipodi:nodetypes="ccccccccccccccccccscsccccssccccccc" />
</svg>
