<?xml version="1.0" encoding="UTF-8" standalone="no"?>
<!-- Created with Inkscape (http://www.inkscape.org/) -->

<svg
   width="512"
   height="512"
   viewBox="0 0 512 512"
   version="1.1"
   id="svg1"
   xml:space="preserve"
   inkscape:version="1.3.2 (091e20e, 2023-11-25, custom)"
   sodipodi:docname="KWD_KIT_PowerAbilityType_Special_P.svg"
   xmlns:inkscape="http://www.inkscape.org/namespaces/inkscape"
   xmlns:sodipodi="http://sodipodi.sourceforge.net/DTD/sodipodi-0.dtd"
   xmlns="http://www.w3.org/2000/svg"
   xmlns:svg="http://www.w3.org/2000/svg"><sodipodi:namedview
     id="namedview1"
     pagecolor="#ffffff"
     bordercolor="#000000"
     borderopacity="0.25"
     inkscape:showpageshadow="2"
     inkscape:pageopacity="0.0"
     inkscape:pagecheckerboard="0"
     inkscape:deskcolor="#d1d1d1"
     inkscape:document-units="px"
     inkscape:zoom="0.70710678"
     inkscape:cx="238.29499"
     inkscape:cy="235.46656"
     inkscape:window-width="1920"
     inkscape:window-height="1009"
     inkscape:window-x="1072"
     inkscape:window-y="457"
     inkscape:window-maximized="1"
     inkscape:current-layer="svg1"
     showgrid="false"><inkscape:grid
       id="grid1"
       units="px"
       originx="0"
       originy="0"
       spacingx="1"
       spacingy="1"
       empcolor="#0099e5"
       empopacity="0.30196078"
       color="#0099e5"
       opacity="0.14901961"
       empspacing="5"
       dotted="false"
       gridanglex="30"
       gridanglez="30"
       visible="false" /></sodipodi:namedview><defs
     id="defs1"><inkscape:path-effect
       effect="fillet_chamfer"
       id="path-effect12"
       is_visible="true"
       lpeversion="1"
       nodesatellites_param="F,0,0,1,0,0,0,1 @ F,0,0,1,0,20.210818,0,1 @ F,0,0,1,0,0,0,1"
       radius="0"
       unit="px"
       method="auto"
       mode="F"
       chamfer_steps="1"
       flexible="false"
       use_knot_distance="true"
       apply_no_radius="true"
       apply_with_radius="true"
       only_selected="false"
       hide_knots="false" /></defs><path
     id="path11"
     style="fill:#d9c68c;fill-rule:evenodd;stroke-width:23.9621;fill-opacity:1"
     d="M 260,30.195755 C 127.80146,30.195625 26.379053,131.62278 26.379185,263.81657 26.379061,396.01511 127.8062,497.4375 260,497.43738 392.19853,497.4375 493.62095,396.01034 493.62081,263.81657 493.62095,131.61807 392.1938,30.195603 260,30.195755 Z m 142.39915,91.221665 c 24.73606,24.84474 42.98602,56.08251 52.18365,91.07453 -6.80027,-2.67025 -14.0347,-4.06559 -21.34026,-4.11559 -16.60345,0.004 -32.45018,6.94579 -43.7108,19.14713 -6.37493,-22.54928 -18.41956,-42.63918 -34.50598,-58.73268 -16.0935,-16.08642 -36.18341,-28.13106 -58.73268,-34.50598 12.20134,-11.26062 19.1433,-27.10735 19.14713,-43.71081 -0.05,-7.305552 -1.44536,-14.539996 -4.11559,-21.340256 34.99202,9.197627 66.22977,27.44758 91.07453,52.183656 z M 282.84562,64.84887 c 6.2541,5.716159 10.46671,14.290996 10.59555,25.723774 -0.005,23.122836 -16.72305,34.686816 -33.44117,34.686906 -16.71814,-9e-5 -33.4362,-11.56407 -33.44118,-34.686909 0.25767,-22.865537 16.84938,-34.297458 33.44117,-34.297441 8.29591,0 16.59153,2.857518 22.84563,8.57367 z m 176.12207,176.12207 c 5.71616,6.25411 8.57367,14.54973 8.57367,22.84563 0,16.5918 -11.43188,33.18351 -34.29744,33.44118 -23.12283,-0.005 -34.6868,-16.72305 -34.6869,-33.44118 8e-5,-16.71812 11.56406,-33.4362 34.6869,-33.44118 11.43277,0.12884 20.00762,4.34146 25.72377,10.59555 z m -83.15112,22.84563 C 375.81669,326.60779 322.79026,379.63326 260,379.63314 197.20883,379.63328 144.1833,326.60686 144.18342,263.81657 144.18328,201.02539 197.20971,147.99988 260,148 c 62.79118,-1.4e-4 115.81671,53.02629 115.81657,115.81657 z M 208.67537,69.233761 c -2.67023,6.800279 -4.0656,14.034706 -4.11558,21.340261 0.004,16.603458 6.94577,32.450188 19.14712,43.710808 -22.54928,6.37492 -42.63917,18.41955 -58.73267,34.50598 -16.08642,16.09349 -28.13107,36.1834 -34.50599,58.73268 -11.26063,-12.20134 -27.10734,-19.14331 -43.710798,-19.14713 -7.305562,0.05 -14.539982,1.44536 -21.340262,4.11558 9.197634,-34.99201 27.447588,-66.22979 52.18365,-91.07452 24.84472,-24.736115 56.08251,-42.986026 91.07453,-52.183659 z M 454.5828,315.1412 c -9.19763,34.99201 -27.44758,66.22978 -52.18365,91.07452 -24.84472,24.7361 -56.08252,42.98602 -91.07453,52.18365 2.67023,-6.80028 4.0656,-14.0347 4.11558,-21.34026 -0.004,-16.60346 -6.94577,-32.45018 -19.14712,-43.71079 22.54929,-6.37493 42.63918,-18.41956 58.73268,-34.50599 16.08642,-16.09349 28.13107,-36.1834 34.50598,-58.73268 11.26063,12.20134 27.10734,19.14331 43.7108,19.14713 7.30556,-0.05 14.53999,-1.44537 21.34026,-4.11558 z M 112.77125,240.82869 c 5.78135,6.2699 8.67168,14.62881 8.67172,22.98788 -8e-5,16.71813 -11.56406,33.43619 -34.686899,33.44118 -22.86555,-0.25768 -34.297444,-16.84938 -34.297437,-33.44119 -7e-6,-16.5918 11.431878,-33.1835 34.297437,-33.44117 11.561415,0.002 20.233829,4.18341 26.015179,10.4533 z m 170.21663,170.21663 c 6.26989,5.78135 10.4508,14.45375 10.4533,26.01518 -0.25768,22.86553 -16.8494,34.29745 -33.44118,34.29743 -16.5918,10e-6 -33.18351,-11.43188 -33.44118,-34.29743 0.005,-23.12285 16.72305,-34.68682 33.44118,-34.68691 8.35907,4e-5 16.71797,2.89037 22.98788,8.67173 z M 130.46825,300.10965 c 6.37493,22.54928 18.41956,42.63919 34.50599,58.73268 16.09349,16.08643 36.1834,28.13106 58.73267,34.50599 -12.20134,11.26061 -19.14329,27.10734 -19.14712,43.71079 0.05,7.30556 1.44535,14.53999 4.11558,21.34026 -34.992,-9.19764 -66.22978,-27.44758 -91.07452,-52.18365 C 92.864745,381.37101 74.614835,350.1332 65.417193,315.1412 c 6.800274,2.67023 14.034705,4.06558 21.340264,4.11558 16.603453,-0.004 32.450173,-6.94579 43.710793,-19.14713 z"
     sodipodi:nodetypes="ccscccccccccccsscccscsscccssssscccccccccccccccccccsccscsscscsccccccccc" /></svg>
