<?xml version="1.0" encoding="UTF-8" standalone="no"?>
<!-- Created with Inkscape (http://www.inkscape.org/) -->

<svg
   width="512"
   height="512"
   viewBox="0 0 135.46666 135.46667"
   version="1.1"
   id="svg1"
   inkscape:version="1.3.2 (091e20e, 2023-11-25, custom)"
   sodipodi:docname="KWD_KIT_MagicRuneVampiric.svg"
   xmlns:inkscape="http://www.inkscape.org/namespaces/inkscape"
   xmlns:sodipodi="http://sodipodi.sourceforge.net/DTD/sodipodi-0.dtd"
   xmlns="http://www.w3.org/2000/svg"
   xmlns:svg="http://www.w3.org/2000/svg">
  <sodipodi:namedview
     id="namedview1"
     pagecolor="#ffffff"
     bordercolor="#000000"
     borderopacity="0.25"
     inkscape:showpageshadow="2"
     inkscape:pageopacity="0.0"
     inkscape:pagecheckerboard="0"
     inkscape:deskcolor="#d1d1d1"
     inkscape:document-units="px"
     showgrid="false"
     inkscape:zoom="1.0595392"
     inkscape:cx="163.27853"
     inkscape:cy="285.50147"
     inkscape:window-width="1920"
     inkscape:window-height="1017"
     inkscape:window-x="1042"
     inkscape:window-y="276"
     inkscape:window-maximized="1"
     inkscape:current-layer="layer1">
    <inkscape:grid
       id="grid1"
       units="px"
       originx="0"
       originy="0"
       spacingx="0.26458332"
       spacingy="0.26458334"
       empcolor="#0099e5"
       empopacity="0.30196078"
       color="#0099e5"
       opacity="0.14901961"
       empspacing="5"
       dotted="false"
       gridanglex="30"
       gridanglez="30"
       visible="false" />
  </sodipodi:namedview>
  <defs
     id="defs1" />
  <g
     inkscape:label="Layer 1"
     inkscape:groupmode="layer"
     id="layer1">
    <path
       id="path1"
       style="fill:#99192a;fill-opacity:1;stroke-width:0.309437"
       d="M 67.733329,2.4999999e-6 A 66.864953,67.733339 0 0 0 0.86837033,67.733338 66.864953,67.733339 0 0 0 67.733329,135.46666 66.864953,67.733339 0 0 0 134.59828,67.733338 66.864953,67.733339 0 0 0 67.733329,2.4999999e-6 Z m 0,2.0527834000001 A 64.838745,65.680817 0 0 1 132.57206,67.733338 64.838745,65.680817 0 0 1 67.733329,133.41389 64.838745,65.680817 0 0 1 2.8945806,67.733338 64.838745,65.680817 0 0 1 67.733329,2.0527859 Z" />
    <path
       style="fill:#99192a;fill-opacity:1;stroke-width:1.90286"
       d="m 60.814621,131.73435 c -1.047288,-1.11476 -2.62911,-4.35719 -2.62911,-5.38914 0,-0.94432 0.825722,-0.5403 1.510387,0.73903 0.370503,0.69226 0.975173,1.25865 1.343736,1.25865 1.637874,0 0.06849,-8.99366 -2.317635,-13.28243 -0.848878,-1.52564 -1.543401,-2.89946 -1.543401,-3.05287 0,-0.1534 2.179927,-0.27894 4.844293,-0.27894 4.844312,0 4.844312,0 4.122941,-1.13281 -0.396745,-0.62302 -1.953655,-1.74855 -3.459777,-2.50117 -2.242701,-1.12063 -2.501392,-1.37126 -1.429022,-1.38451 2.993047,-0.0371 8.476829,2.95807 8.497362,4.64085 0.0095,0.76018 0.531065,0.88109 3.802898,0.88109 2.231835,0 4.535801,-0.31073 5.599552,-0.7552 0.994085,-0.41537 2.006325,-0.75517 2.249412,-0.75517 0.75509,0 0.484978,3.49399 -0.371108,4.80059 -1.028282,1.56933 -1.704213,1.58561 -1.704213,0.0414 0,-1.08065 -1.025654,-1.78453 -2.643191,-1.81398 -0.729836,-0.0119 -0.363159,2.27622 0.623812,3.89494 1.091245,1.78976 2.399036,2.1392 2.826684,0.75522 0.966757,-3.12857 2.00168,-3.25377 2.627853,-0.31784 0.40892,1.91726 0.320324,3.10904 -0.457049,6.14853 -0.530341,2.07363 -0.964269,3.84735 -0.964269,3.94149 0,0.0945 -0.226553,0.17125 -0.503456,0.17125 -0.288107,0 -0.503473,-1.52031 -0.503473,-3.55394 0,-1.96576 -0.201568,-3.42939 -0.451031,-3.27521 -0.248074,0.15357 -1.185933,1.69076 -2.084096,3.41657 -0.898183,1.72578 -2.337762,4.09701 -3.199069,5.2694 -1.384436,1.88447 -1.799485,2.13288 -3.579847,2.14276 -2.013843,0.0102 -2.013843,0.0102 -0.421197,-1.00915 1.92707,-1.2345 2.921216,-2.68338 4.026029,-5.8675 1.854613,-5.34508 0.629782,-9.91713 -3.146477,-11.74519 -2.066397,-1.0003 -2.066397,-1.0003 -4.428118,0.31966 -1.32204,0.73892 -2.796595,1.20627 -3.349544,1.0617 -1.24161,-0.32471 -1.23866,-0.0751 0.01716,1.52237 0.875768,1.11337 0.974109,1.81688 0.760933,5.44376 -0.13472,2.29088 -0.46835,4.75313 -0.741561,5.47171 -0.443194,1.16568 -0.375011,1.3065 0.632584,1.3065 0.621129,0 1.99249,-0.58652 3.047467,-1.30342 1.89564,-1.28811 3.085243,-1.44946 1.600278,-0.21707 -0.422053,0.35028 -0.767361,0.87872 -0.767361,1.17435 0,0.92324 -4.184649,4.37384 -5.304307,4.37384 -0.585847,0 -1.546977,-0.51287 -2.13583,-1.13968 z"
       id="path1-8" />
    <path
       style="fill:#99192a;fill-opacity:1;stroke-width:2.28468"
       d="m 33.950727,92.382682 c -0.602259,-0.0061 -1.280481,0.0041 -2.046137,0.0184 -2.938433,0.05948 -5.342979,0.24033 -5.342979,0.401409 0,0.161283 1.510947,1.924013 3.357056,3.917956 1.846106,1.994024 3.244233,3.737943 3.106703,3.875723 -0.137653,0.13757 -0.986649,-0.029 -1.885571,-0.37077 -0.898928,-0.341758 -3.146924,-0.621132 -4.996501,-0.621132 -3.362828,0 -3.36307,-4.9e-4 0.512327,3.777482 5.381541,5.24637 7.115006,7.78986 7.918344,11.61977 0.594536,2.83448 0.545166,3.61383 -0.345424,5.48136 -0.470812,0.98741 -0.729211,1.52232 -1.108104,1.62994 l 0.722539,0.33169 0.57148,0.71091 c -0.0098,-0.4928 0.342264,-1.08011 0.960215,-2.10106 2.34793,-3.87907 1.869623,-7.13395 -2.026064,-13.78844 -1.133723,-1.93655 -1.934822,-3.64809 -1.779937,-3.80283 0.155007,-0.15495 1.103081,0.40968 2.106346,1.25388 1.824124,1.5348 1.823467,1.53437 2.202475,0.0243 0.591617,-2.35716 -1.112096,-7.621785 -2.901773,-8.966241 -0.374776,-0.281888 0.263856,-0.347873 1.445077,-0.150041 1.249965,0.209321 2.695335,1.034032 3.533464,2.015509 1.418623,1.661217 1.41875,1.661074 1.112328,-0.931702 -0.423943,-3.587194 -0.900056,-4.290013 -5.115864,-4.326767 z"
       id="path2" />
    <path
       style="fill:#99192a;fill-opacity:1;stroke-width:2.73096"
       d="m 104.24584,109.00834 c 0,-9.337992 -0.19157,-11.561007 -0.99543,-11.561007 -0.54741,0 -1.40012,0.487734 -1.89487,1.083835 -1.598257,1.925892 -2.167678,1.166619 -2.167678,-2.890244 0,-3.974105 0,-3.974105 6.141808,-3.974105 3.80651,0 6.14173,0.288399 6.14173,0.758467 0,1.192447 -2.13906,5.022047 -2.80512,5.022047 -0.33008,0 -0.59634,0.894176 -0.59162,1.987076 0.005,1.092851 -0.36586,4.425711 -0.82366,7.406261 -0.45773,2.98063 -1.01943,7.28887 -1.24821,9.57395 -0.81161,8.10818 -1.75695,4.12311 -1.75695,-7.40628 z"
       id="path4" />
    <path
       style="fill:#99192a;fill-opacity:1;stroke-width:2.61082"
       d="m 115.8651,80.582204 c 0.25403,-0.854836 0.6421,-2.719936 0.86227,-4.144663 0.39057,-2.527151 0.34749,-2.590415 -1.76292,-2.590415 -1.37698,0 -2.16333,0.345896 -2.16333,0.951584 0,0.52337 -0.46621,1.338554 -1.03613,1.811523 -0.89567,0.7433 -1.03618,0.426834 -1.03618,-2.333138 0,-3.193084 0,-3.193084 3.10849,-3.193084 3.05968,0 3.10852,-0.036 3.10852,-2.292343 0,-3.696957 -1.91069,-9.079039 -4.11832,-11.600495 -2.0491,-2.340431 -2.0491,-2.340431 0.17122,-2.703531 1.22114,-0.199701 3.23048,-0.316271 4.46529,-0.259038 1.23478,0.05721 3.96777,0.142913 6.07338,0.190403 3.82841,0.08634 3.82841,0.08634 2.08822,3.055783 -0.95713,1.633187 -2.4976,5.285673 -3.42329,8.116635 -1.6831,5.147202 -1.6831,5.147202 1.53836,5.492586 3.20542,0.34367 3.22233,0.359178 3.38853,3.108501 0.16399,2.711243 0.14623,2.733932 -0.94769,1.208862 -0.73209,-1.02061 -1.82863,-1.554248 -3.19383,-1.554248 -2.01305,0 -2.06633,0.08216 -1.67866,2.590415 0.21981,1.424727 0.60821,3.289827 0.86227,4.144663 0.43771,1.47267 0.27218,1.554253 -3.15307,1.554253 -3.42525,0 -3.5908,-0.0816 -3.15302,-1.554253 z m 6.12941,-21.123451 c 0.98655,-2.032209 1.34647,-3.315609 0.8035,-2.864936 -0.54481,0.452118 -2.32836,0.707706 -3.99735,0.572819 -3.01358,-0.243551 -3.01358,-0.243551 -1.40484,3.210325 0.88484,1.899638 1.63858,4.075587 1.67495,4.835444 0.0547,1.136454 0.16141,1.075175 0.60137,-0.345386 0.29435,-0.949824 1.33945,-3.383541 2.32237,-5.408266 z"
       id="path23" />
    <path
       style="fill:#99192a;fill-opacity:1;stroke-width:2.51773"
       d="m 22.780006,80.693354 c -0.160164,-0.27479 -0.342944,-3.118362 -0.406421,-6.319065 -0.125476,-6.320695 -1.51156,-12.803566 -3.117138,-14.577683 -0.913435,-1.009342 -0.863802,-1.221411 0.511152,-2.18446 1.44683,-1.013406 1.241326,-1.065546 -4.121149,-1.045416 -5.087313,0.01892 -5.517457,0.116891 -4.361442,0.991467 1.053417,0.796999 1.1533,1.239337 0.559223,2.476864 -1.696899,3.53503 -2.9676219,9.121441 -3.3232035,14.60977 -0.6919801,10.680584 -1.5475385,6.116662 -1.3637149,-7.274405 0.1804372,-13.15639 0.1804372,-13.15639 8.5074754,-13.15639 8.326812,0 8.326812,0 8.50714,13.489464 0.161963,12.120083 -0.15814,15.108026 -1.391922,12.989854 z"
       id="path24" />
    <path
       style="fill:#99192a;fill-opacity:1;stroke-width:2.14993"
       d="m 97.895832,41.600208 c -0.08118,-4.471183 2.666678,-12.003298 5.984758,-16.404302 0.75086,-0.995913 1.36515,-1.955821 1.36515,-2.133121 0,-0.177297 -1.1122,-0.322375 -2.47155,-0.322375 -2.837113,0 -4.143108,1.076583 -4.703197,3.876949 -0.62451,3.122565 -1.290203,1.977798 -1.179462,-2.028238 0.106374,-3.839626 0.106374,-3.839626 8.069789,-3.962018 7.62219,-0.117146 7.9027,-0.08139 6.5416,0.832877 -0.78215,0.5254 -2.54665,2.116326 -3.92114,3.535391 -2.49906,2.580122 -2.49906,2.580122 1.2799,2.748324 4.21155,0.187452 3.76397,-0.412588 4.02896,5.401437 0.1133,2.486259 -0.52636,2.855402 -1.28977,0.744247 -0.7757,-2.145145 -1.90766,-2.52297 -6.45623,-2.154916 -2.66097,0.215307 -2.66097,0.215307 -4.08731,3.716498 -0.78451,1.925658 -1.806644,4.653083 -2.271477,6.060946 -0.845087,2.559745 -0.845087,2.559745 -0.890021,0.0883 z"
       id="path35" />
    <path
       id="path43"
       style="fill:#99192a;fill-opacity:1;stroke-width:1.96084"
       d="m 63.706667,3.2940259 c -3.891013,0 -3.891165,-2.44e-4 -3.891165,6.454147 0,3.7433011 0.218599,6.5891251 0.519486,6.7750881 0.291656,0.180254 0.518581,-0.232137 0.518581,-0.942874 0,-1.806832 1.445974,-5.022612 2.258362,-5.022612 0.378339,0 1.551364,0.933867 2.607409,2.075226 1.056012,1.141359 2.153512,2.075229 2.438782,2.075229 0.28528,0 1.41752,-0.945147 2.51583,-2.099705 1.99692,-2.0992 1.9971,-2.099366 2.54213,0.388934 1.43649,5.316757 0.9503,10.955339 -1.55484,15.951781 -0.66021,0.754366 -0.51342,1.321262 0.26473,1.022654 0.0883,-0.03388 4.14053,-1.672925 4.38437,-17.079602 0.15184,-9.5984101 0.15175,-9.5982661 -3.21846,-9.5982661 -3.37024,0 -3.37006,3e-4 -2.56389,1.427002 0.7499,1.327114 0.0133,1.45904 -0.41341,4.539389 -0.66268,4.7841411 -2.97605,3.6653931 -3.68355,1.2048841 -1.009235,-3.5097701 -1.899588,-5.4602811 -0.12966,-6.1332091 0.71335,-0.271214 1.29646,-0.616355 1.29646,-0.766084 0,-0.14973 -1.751102,-0.271982 -3.891168,-0.271982 z"
       sodipodi:nodetypes="sssssssscsscsscssss" />
    <path
       style="fill:#99192a;fill-opacity:1;stroke-width:2.61959"
       d="m 37.086251,44.535807 c -1.505998,-1.776071 -2.596792,-7.634115 -2.148922,-11.540554 0.377745,-3.294734 0.341121,-3.382109 -1.271963,-3.034796 -0.913478,0.196692 -2.206708,0.587033 -2.873811,0.867442 -0.998141,0.419544 -1.21292,0.143487 -1.21292,-1.558972 0,-2.349225 -1.707498,-6.862302 -3.255855,-8.605572 -0.571198,-0.643086 -0.852751,-1.469832 -0.625684,-1.837218 0.48195,-0.779835 15.076873,-0.90382 16.315022,-0.138612 0.639305,0.395112 0.565745,1.158257 -0.31016,3.217705 -3.314195,7.792443 -4.840494,16.134179 -3.797898,20.756847 0.717188,3.179933 0.571959,3.512698 -0.817809,1.873721 z m -1.647793,-18.57612 c 1.094092,-1.094091 1.764261,-2.542112 1.764261,-3.81204 0,-2.023808 -0.04531,-2.04779 -3.869804,-2.04779 -2.128383,0 -3.749904,0.233935 -3.603391,0.519824 0.14644,0.285903 0.966861,2.001319 1.822937,3.812038 0.856084,1.810717 1.683714,3.292215 1.839133,3.292215 0.155324,0 1.076516,-0.79391 2.046864,-1.764247 z"
       id="path36" />
    <path
       id="path2-5"
       style="fill:#99192a;fill-opacity:1;stroke-width:0.26314"
       d="M 68.791666,31.750001 A 38.457194,37.675362 0 0 0 30.334473,69.425463 38.457194,37.675362 0 0 0 68.791666,107.10093 38.457194,37.675362 0 0 0 107.24886,69.425463 38.457194,37.675362 0 0 0 68.791666,31.750001 Z m 0,1.780637 A 36.639779,35.894895 0 0 1 105.43151,69.425463 36.639779,35.894895 0 0 1 68.791666,105.32029 36.639779,35.894895 0 0 1 32.15183,69.425463 36.639779,35.894895 0 0 1 68.791666,33.530638 Z" />
    <path
       style="fill:#99192a;fill-opacity:1;stroke-width:1.37498"
       d="m 55.763716,100.98512 c -0.156624,-0.62405 0.06487,-1.402315 0.714738,-2.511192 10.701918,-18.261507 7.780288,-39.08965 -1.421445,-56.869007 -0.930176,-1.797262 -1.451347,-2.873974 -0.690195,-3.942689 0.658303,-0.924308 19.434631,-0.488919 19.585688,-0.244481 0.885689,1.433067 -4.913884,3.645113 -4.408651,6.762669 1.165591,5.476085 1.99746,10.602792 5.875523,14.428718 0.750586,0.740495 1.272192,0.781073 2.242511,0.08792 6.899828,-5.383762 2.870706,-18.24095 4.514002,-19.256567 4.020425,-2.484779 6.057974,25.421275 -3.383335,31.525827 -1.208962,0.78169 -1.032701,0.844224 -1.844952,0.0804 -0.307367,-0.289042 -1.402331,-1.736843 -2.665694,-3.03741 -2.297041,-2.364662 -2.297041,-2.364662 -2.303517,-0.534023 -0.830708,12.144893 -7.666614,22.895008 -13.796318,33.024235 -0.750554,1.50205 -2.095455,1.77209 -2.418355,0.4856 z"
       id="path12"
       sodipodi:nodetypes="sssscssssssscss" />
  </g>
</svg>
