<?xml version="1.0" encoding="UTF-8" standalone="no"?>
<!-- Created with Inkscape (http://www.inkscape.org/) -->

<svg
   width="512"
   height="512"
   viewBox="0 0 512 512"
   version="1.1"
   id="svg1"
   xml:space="preserve"
   inkscape:version="1.3.2 (091e20e, 2023-11-25, custom)"
   sodipodi:docname="KWD_KIT_MagicWard.svg"
   xmlns:inkscape="http://www.inkscape.org/namespaces/inkscape"
   xmlns:sodipodi="http://sodipodi.sourceforge.net/DTD/sodipodi-0.dtd"
   xmlns="http://www.w3.org/2000/svg"
   xmlns:svg="http://www.w3.org/2000/svg"><sodipodi:namedview
     id="namedview1"
     pagecolor="#ffffff"
     bordercolor="#000000"
     borderopacity="0.25"
     inkscape:showpageshadow="2"
     inkscape:pageopacity="0.0"
     inkscape:pagecheckerboard="0"
     inkscape:deskcolor="#d1d1d1"
     inkscape:document-units="px"
     inkscape:zoom="1.1131408"
     inkscape:cx="201.2324"
     inkscape:cy="208.86846"
     inkscape:window-width="1920"
     inkscape:window-height="1017"
     inkscape:window-x="1042"
     inkscape:window-y="276"
     inkscape:window-maximized="1"
     inkscape:current-layer="svg1" /><defs
     id="defs1" /><path
     id="path135-9"
     style="fill:#a3c5f5;fill-opacity:1;stroke-width:0.44215"
     d="m 242.47224,38.786506 c -11.04919,14.588231 -29.63285,22.539301 -55.75211,23.851909 -12.29531,0.382152 -16.74002,6.563112 -13.33388,18.542745 -16.03374,5.250435 -22.73711,14.571618 -20.11189,27.96357 10.16856,-8.30766 20.26091,-11.199134 30.27992,-8.67362 -4.36981,3.19016 -7.23447,6.92937 -8.5969,11.21611 20.91865,-0.21598 36.16312,1.6606 45.73352,5.63165 15.00369,10.22441 16.28558,24.92654 3.92092,40.09225 -11.42099,1.82905 -21.05404,-2.64002 -23.33947,-6.98692 -0.78111,-1.47383 -0.0427,-4.01661 2.21216,-7.62749 2.3139,-2.40235 1.95262,-3.72937 -1.08347,-3.97991 -30.78825,-0.6927 -61.80482,3.02057 -93.04997,11.14137 C 54.65736,161.9846 25.14349,159.3026 0,133.58431 c 14.59089,68.31189 59.62339,91.41402 155.90851,77.63375 -16.34476,12.49806 -47.08176,18.74724 -92.21034,18.74724 16.4479,42.57885 55.43842,53.36138 116.97069,32.34461 -6.8238,11.93798 -21.61297,21.06666 -44.36887,27.38938 16.25632,17.96595 38.35589,25.11491 66.29965,21.4451 2.32865,-7.22176 6.93484,-14.01633 13.81759,-20.38327 -8.04707,14.08979 -3.98628,29.32195 12.18159,45.69617 16.10894,16.10893 23.55127,35.4974 22.32798,58.16484 8.31237,-3.97933 12.49815,-12.41694 12.55715,-25.31291 13.85397,10.19887 15.82187,23.85397 5.90301,40.96511 l -0.11208,0.81801 c -16.43318,25.42351 -20.13268,46.1301 -11.09813,62.12115 3.97934,-16.43318 18.91814,-45.43855 44.81328,-87.01523 16.25632,-32.57157 14.24313,-63.83823 -6.03672,-93.80112 6.82383,5.79214 12.10039,12.04132 15.82918,18.74725 27.94376,3.66981 50.01577,-3.47914 66.21314,-21.4451 -26.16043,-5.80688 -40.98801,-14.93555 -44.48096,-27.38938 61.59124,21.01677 100.63195,10.23425 117.12408,-32.34461 -45.14333,0 -75.8646,-6.24918 -92.16513,-18.74724 96.28511,13.78026 140.19044,-7.02222 152.52638,-70.73576 -22.94748,21.11994 -51.33221,21.5023 -105.96696,9.47587 -31.51043,-8.25344 -62.78592,-11.96672 -93.82472,-11.14137 -4.89312,-0.10317 -4.89312,1.98973 0,6.27857 2.29916,2.5792 2.85142,5.03341 1.65762,7.36204 -4.72693,6.09595 -14.99347,10.33874 -29.92717,8.14119 9.04234,-15.09305 8.04328,-33.85898 -3.01048,-52.30137 3.77169,-3.48922 10.06108,-3.20665 18.86719,0.8475 -5.23382,-13.076252 -16.78881,-21.325821 -34.66687,-24.748576 6.76242,-9.553803 17.66869,-13.026362 32.72213,-10.417759 -15.26943,-13.009776 -35.18245,-16.208711 -59.73989,-9.595822 6.04797,-9.503951 7.50167,-18.036105 4.36139,-25.596067 z m -34.30505,34.649175 c 3.71896,0.08015 7.78582,0.917009 12.19926,2.511037 -8.63997,13.724243 -19.20691,16.373935 -31.7016,7.949982 4.82052,-7.150809 11.32059,-10.637359 19.50234,-10.461019 z M 254.9716,298.01304 c 40.01441,25.95409 53.02864,50.97844 39.04201,75.07551 -46.44028,-29.7713 -59.45451,-54.79564 -39.04201,-75.07551 z"
     sodipodi:nodetypes="ccccccccccccccccccccccccccccccccccccccccccccsccsccc" /></svg>
