<?xml version="1.0" encoding="UTF-8" standalone="no"?>
<!-- Created with Inkscape (http://www.inkscape.org/) -->

<svg
   width="512"
   height="512"
   viewBox="0 0 512 512"
   version="1.1"
   id="svg1"
   inkscape:version="1.3.2 (091e20e, 2023-11-25, custom)"
   sodipodi:docname="Animal_DodoHorse.svg"
   xmlns:inkscape="http://www.inkscape.org/namespaces/inkscape"
   xmlns:sodipodi="http://sodipodi.sourceforge.net/DTD/sodipodi-0.dtd"
   xmlns="http://www.w3.org/2000/svg"
   xmlns:svg="http://www.w3.org/2000/svg">
  <sodipodi:namedview
     id="namedview1"
     pagecolor="#ffffff"
     bordercolor="#000000"
     borderopacity="0.25"
     inkscape:showpageshadow="2"
     inkscape:pageopacity="0.0"
     inkscape:pagecheckerboard="0"
     inkscape:deskcolor="#d1d1d1"
     inkscape:document-units="px"
     inkscape:zoom="0.57521479"
     inkscape:cx="191.23291"
     inkscape:cy="216.44089"
     inkscape:window-width="1920"
     inkscape:window-height="1009"
     inkscape:window-x="1042"
     inkscape:window-y="235"
     inkscape:window-maximized="1"
     inkscape:current-layer="svg1" />
  <defs
     id="defs1" />
  <path
     id="path1"
     d="m 138.54293,26.992285 0.70015,7.501575 -5.30112,-5.201092 c -5.60117,-5.301113 -18.90354,-13.602856 -19.60369,-12.902709 4.95344,17.956584 4.14584,37.530188 2.20046,56.111786 -2.10044,17.00356 -2.10044,17.00356 -8.90187,25.90543 -15.003155,19.704145 -29.606641,55.011555 -48.110526,106.922455 -5.501155,15.20319 -7.301533,19.10401 -12.802688,27.00567 -12.402604,17.70372 -15.203192,26.40555 -14.403024,43.70918 1.100231,22.70477 10.202142,33.20697 34.307203,39.50829 21.661831,6.21821 39.702725,-8.59608 44.009245,-29.30615 0.40008,-2.4005 1.20025,-4.50094 1.80038,-4.60096 31.89766,-6.60758 57.41907,-26.9551 77.81634,-51.71086 3.40071,-4.40093 6.60138,-7.90166 7.10149,-7.90166 7.9489,0 46.70619,31.3904 32.90691,92.81949 -17.51253,77.83338 -63.26646,79.16521 -49.71044,167.13509 1.50031,9.60201 6.00126,28.90607 7.00147,30.0063 0.24627,0.24627 123.32003,-5.51798 198.94177,-76.91615 24.70519,-23.50494 46.80112,-60.41508 56.01176,-93.8197 19.4776,-70.64022 -9.40197,-116.72142 -9.40197,-119.02499 15.57062,0.0393 34.73675,12.44733 46.60978,19.5041 0.80017,-0.80017 -3.8008,-12.30259 -9.10191,-22.50473 -18.3238,-35.24884 -59.16338,-72.66737 -122.52572,-112.72409 19.04675,-4.26101 45.52485,5.28588 46.80982,4.00084 0.80017,-0.70014 -21.60453,-18.503885 -31.30657,-25.005255 -54.51542,-34.767642 -109.97541,-39.919342 -172.23616,-28.5064 0,0 -1.10023,-1.900399 -2.20046,-4.300903 -13.92249,-22.148969 -35.42279,-38.842793 -57.21202,-52.81024756 4.57337,8.19190376 5.63669,17.91277256 6.60139,27.10569056 z"
     style="fill:#d9c68c;fill-opacity:1;stroke-width:0.100021"
     sodipodi:nodetypes="ccccccccccccccccccccsccsccccc" />
</svg>
