<?xml version="1.0" encoding="UTF-8" standalone="no"?>
<!-- Created with Inkscape (http://www.inkscape.org/) -->

<svg
   width="512"
   height="512"
   viewBox="0 0 512 512"
   version="1.1"
   id="svg1"
   xml:space="preserve"
   inkscape:version="1.3.2 (091e20e, 2023-11-25, custom)"
   sodipodi:docname="Misc_InstrumentFlute.svg"
   xmlns:inkscape="http://www.inkscape.org/namespaces/inkscape"
   xmlns:sodipodi="http://sodipodi.sourceforge.net/DTD/sodipodi-0.dtd"
   xmlns="http://www.w3.org/2000/svg"
   xmlns:svg="http://www.w3.org/2000/svg"><sodipodi:namedview
     id="namedview1"
     pagecolor="#ffffff"
     bordercolor="#000000"
     borderopacity="0.25"
     inkscape:showpageshadow="2"
     inkscape:pageopacity="0.0"
     inkscape:pagecheckerboard="0"
     inkscape:deskcolor="#d1d1d1"
     inkscape:document-units="px"
     inkscape:zoom="0.78710938"
     inkscape:cx="174.68983"
     inkscape:cy="267.43424"
     inkscape:window-width="1920"
     inkscape:window-height="1009"
     inkscape:window-x="1042"
     inkscape:window-y="235"
     inkscape:window-maximized="1"
     inkscape:current-layer="svg1" /><defs
     id="defs1" /><path
     id="rect1"
     style="display:inline;fill:#d9c68c;fill-rule:evenodd;stroke-width:0.790873;fill-opacity:1"
     d="M 481.128,8.4897213 472.61096,0.04725806 335.82723,127.4563 c 12.65803,3.97166 23.47909,9.74299 31.75628,18.02017 8.00938,8.00938 13.6289,18.37313 17.51747,30.43321 L 512.11503,39.55132 503.67256,31.03428 C 485.08838,55.555554 462.08095,63.24546 457.18858,54.973708 448.91681,50.081339 456.60677,27.073915 481.128,8.4897213 Z M 345.35521,163.74386 C 337.38215,155.871 327.51335,150.01497 315.85422,146.05929 L 182.35744,270.40787 c 16.2486,3.90482 29.96178,10.28986 39.9833,20.31138 9.77081,9.77081 16.01671,23.01493 19.8418,38.62708 L 365.07825,197.40739 c -4.26781,-13.67744 -10.84346,-24.89558 -19.72304,-33.66353 z M 201.72277,309.91194 C 191.6891,299.82974 178.56429,292.87253 162.37753,289.01776 L 4.1775766,436.37633 C -15.55194,470.99903 41.16337,527.71417 75.785955,507.98471 L 222.78268,350.17146 c -3.86445,-16.60174 -10.88005,-30.03041 -21.05991,-40.25952 z M 58.022655,454.13963 c 14.106045,14.10604 22.402281,34.02094 9.979596,44.835 -20.837136,18.14144 -72.956018,-33.97744 -54.814593,-54.8146 10.814074,-12.42268 30.728952,-4.12645 44.834997,9.9796 z" /></svg>
