<?xml version="1.0" encoding="UTF-8" standalone="no"?>
<svg
   height="512"
   viewBox="0 0 135.46666 135.46667"
   width="512"
   version="1.1"
   id="svg4"
   sodipodi:docname="KWD_KIT_MagicDamage_AshFireRune.svg"
   inkscape:version="1.3.2 (091e20e, 2023-11-25, custom)"
   xmlns:inkscape="http://www.inkscape.org/namespaces/inkscape"
   xmlns:sodipodi="http://sodipodi.sourceforge.net/DTD/sodipodi-0.dtd"
   xmlns="http://www.w3.org/2000/svg"
   xmlns:svg="http://www.w3.org/2000/svg">
  <defs
     id="defs4" />
  <sodipodi:namedview
     id="namedview4"
     pagecolor="#ffffff"
     bordercolor="#000000"
     borderopacity="0.25"
     inkscape:showpageshadow="2"
     inkscape:pageopacity="0.0"
     inkscape:pagecheckerboard="0"
     inkscape:deskcolor="#d1d1d1"
     inkscape:zoom="1.1131408"
     inkscape:cx="246.15036"
     inkscape:cy="238.51431"
     inkscape:window-width="1920"
     inkscape:window-height="1017"
     inkscape:window-x="1042"
     inkscape:window-y="276"
     inkscape:window-maximized="1"
     inkscape:current-layer="svg4" />
  <g
     fill="#db5e40"
     id="g4"
     style="fill:#cc4f35">
    <path
       d="m67.733332 0c-37.408049-.00012037-67.73332908 30.325159-67.73333295 67.733332.00000607 37.408168 30.32528595 67.733448 67.73333295 67.733328 37.408048.00012 67.733318-30.32516 67.733328-67.733328 0-37.408171-30.32528-67.73344964-67.733328-67.733332zm0 2.0525879c36.274438-.0001099 65.680758 29.4061811 65.680798 65.6807441-.00004 36.274568-29.40635 65.680858-65.680798 65.680748-36.274442.00011-65.6807538-29.40619-65.6807919-65.680748.0000403-36.27456 29.4063519-65.6808506 65.6807919-65.6807441zm-4.078908 1.2412679c-3.941529 0-3.941758.0000017-3.941758 6.4543863 0 3.7432969.221297 6.5888169.526091 6.7747799.295442.180254.525567-.231842.525567-.942578 0-1.80683 1.464646-5.022432 2.287581-5.022432.383252 0 1.571694.933451 2.64145 2.074808 1.069722 1.141358 2.181299 2.075326 2.470273 2.075326.288983 0 1.435702-.945057 2.54827-2.099613 2.022846-2.099198 2.023386-2.099174 2.575493.389123 1.455139 5.316752.962531 10.955044-1.575134 15.951481-.668781.754365-.520234 1.321284.268019 1.022677.08945-.03388 4.194671-1.672916 4.441676-17.079578.153811-9.5984003.153246-9.5983802-3.260718-9.5983802-3.413996 0-3.413591.0006024-2.596955 1.427303.759636 1.3271127.01347 1.4589118-.418779 4.5392578-.671283 4.7841364-3.014636 3.6656004-3.731322 1.2050944-1.022338-3.5097667-1.924299-5.4605484-.131391-6.1334757.722611-.2712138 1.313395-.6161159 1.313395-.7658448 0-.1497298-1.773908-.2723347-3.941758-.2723347zm-29.0617 14.8802282c-4.368932-.0179-9.166758.2135-9.441375.652157-.230015.367385.05531 1.194012.633927 1.837097 1.568459 1.743268 3.297885 6.256453 3.297885 8.605676 0 1.702457.217494 1.978622 1.228594 1.559078.675763-.280409 1.9857-.670955 2.911038-.867647 1.634027-.347313 1.671442-.259774 1.288793 3.034957-.453685 3.906435.651054 9.764311 2.176604 11.54038 1.407812 1.638976 1.555158 1.306143.828659-1.873787-1.056132-4.622663.489787-12.964437 3.84701-20.756872.887277-2.059446.961689-2.822263.314084-3.217375-.548722-.334778-3.687161-.499739-7.085219-.513664zm-1.706525 1.925981c3.874147 0 3.920296.02361 3.920296 2.04742 0 1.269927-.678844 2.718081-1.78714 3.81217-.982946.970336-1.916139 1.764234-2.07348 1.764234-.157437 0-.995845-1.48159-1.863043-3.292306-.867191-1.810717-1.698475-3.525751-1.846816-3.811653-.148416-.285889 1.494168-.519865 3.650183-.519865zm77.044891.47904c-1.09089-.0012-2.55588.01877-4.48618.04806-8.066797.122392-8.066808.12241-8.174563 3.962032-.112179 4.006032.561949 5.150862 1.194567 2.0283.567361-2.800363 1.890186-3.877282 4.764136-3.877282 1.377 0 2.50377.145164 2.50377.322461 0 .1773-.6224 1.137291-1.38301 2.133203-3.36116 4.400999-6.144588 11.932988-6.062354 16.404166.04552 2.471443.04536 2.471376.901422-.08837.470869-1.407862 1.506502-4.134956 2.301192-6.060612 1.44485-3.501188 1.44464-3.501263 4.14016-3.716569 4.60762-.368054 5.75451.0098 6.54028 2.154907.77332 2.111153 1.42136 1.742116 1.30659-.744141-.26843-5.814019.1847-5.214285-4.08153-5.401737-3.82802-.168202-3.82815-.168033-1.29664-2.748153 1.39233-1.419063 3.17981-3.009785 3.97211-3.535184 1.03409-.6857 1.13269-.877592-2.13995-.881084zm-41.125683 11.170895c-21.514988.00006-38.956321 16.867789-38.956403 37.675219-.000211 20.80763 17.441209 37.675671 38.956403 37.675731 21.515194-.00006 38.956613-16.868101 38.956403-37.675731-.00008-20.80743-17.441415-37.675159-38.956403-37.675219zm0 1.780769c20.498084.000085 37.115093 16.070481 37.115343 35.89445.00004 19.824172-16.617049 35.894881-37.115343 35.894971-20.498296-.00008-37.115389-16.070798-37.115346-35.894971.000254-19.82397 16.617261-35.894366 37.115346-35.89445zm-53.81678 20.683492c-8.4351465 0-8.4351709-.000074-8.6179507 13.156303-.1862101 13.391054.6804836 17.955065 1.3814476 7.274491.3601981-5.488323 1.6475312-11.074934 3.3664601-14.609961.601791-1.237525.500695-1.679853-.566398-2.476851-1.1710239-.874575-.7352413-.972751 4.418119-.991671 5.432096-.02013 5.640319.03201 4.174704 1.045415-1.392804.963048-1.443532 1.175021-.518238 2.184362 1.626422 1.774116 3.031012 8.257233 3.158118 14.577922.0643 3.2007.249207 6.044204.41145 6.318994 1.249799 2.11817 1.574305-.869834 1.410239-12.989905-.182669-13.48945-.183034-13.489099-8.617951-13.489099zm102.060653.0026c-1.15814.018-2.53503.121009-3.46277.270785-2.24915.363099-2.24898.363282-.17327 2.70371 2.23628 2.521454 4.17156 7.903373 4.17156 11.600326 0 2.256341-.0493 2.292366-3.1487 2.292366-3.14884 0-3.14922.000006-3.14922 3.193087 0 2.759969.14227 3.07649 1.04957 2.333191.57732-.472969 1.04957-1.288406 1.04957-1.811776 0-.605687.79692-.951363 2.19178-.951363 2.13781 0 2.18121.06339 1.78557 2.59054-.22303 1.424725-.61583 3.289614-.87315 4.144449-.44347 1.472652-.27601 1.554428 3.19371 1.554428 3.46971 0 3.63763-.08176 3.19423-1.554428-.25736-.854835-.65101-2.719724-.87368-4.144449-.3927-2.508253-.33841-2.59054 1.70077-2.59054 1.38293 0 2.49347.533818 3.23507 1.554427 1.10812 1.525069 1.12617 1.502012.96005-1.209228-.16835-2.749321-.18538-2.764668-3.43241-3.108338-3.26329-.345383-3.26334-.345491-1.55838-5.492688.9377-2.830959 2.49793-6.483115 3.46749-8.1163 1.76277-2.96944 1.76275-2.969804-2.11536-3.056144-2.13295-.04749-4.90105-.132959-6.15186-.190169-.31272-.01431-.67452-.01789-1.06057-.01189zm6.62771 2.287199c.28502-.02848-.10341 1.176677-.97785 2.954858-.99568 2.024723-2.05432 4.458116-2.35249 5.407939-.44568 1.420559-.55391 1.482168-.60932.345715-.0369-.759856-.80026-2.935727-1.69659-4.835364-1.62962-3.453872-1.6299-3.454207 1.42281-3.210656 1.69066.134887 3.49771-.120458 4.04959-.572575.0687-.05633.12313-.08585.16385-.08992zm-17.85936 35.162711c-6.221547 0-6.221489-.000183-6.221489 3.973918 0 4.056859.576969 4.816161 2.195969 2.890262.50118-.5961 1.36506-1.083654 1.91958-1.083654.8143 0 1.00821 2.223068 1.00821 11.561053 0 11.52938.95767 15.51444 1.77981 7.40627.23175-2.28508.80052-6.59347 1.2642-9.57409.46374-2.98055.83948-6.31342.83441-7.406275-.005-1.092898.26501-1.986958.59938-1.986958.6747 0 2.84141-3.82947 2.84141-5.021916 0-.470067-2.36556-.75861-6.22148-.75861zm-72.305356.715202v.000517c-.610078-.0061-1.297361.0043-2.072957.0186-2.976582.05948-5.412196.240447-5.412196.401526 0 .161283 1.53041 1.923649 3.400486 3.91759 1.870074 1.994022 3.286441 3.737954 3.147125 3.875734-.13944.13757-.999564-.0288-1.910156-.37052-.910598-.341759-3.187879-.621152-5.061469-.621152-3.406487 0-3.406424-.000421.519286 3.777542 5.451409 5.24637 7.207422 7.79006 8.021191 11.61996.602254 2.83448.551947 3.6138-.350205 5.48132-.476924.98741-.738516 1.52226-1.122327 1.62988l.731816.33176.578962.71055c-.0099-.4928.346641-1.08021.972615-2.10116 2.378412-3.87907 1.894246-7.13382-2.052019-13.78831-1.148441-1.93655-1.960263-3.64813-1.803367-3.80287.15702-.15495 1.11739.40999 2.13368 1.25419 1.847806 1.5348 1.847117 1.53436 2.231045.0243.599299-2.35716-1.126393-7.621921-2.939305-8.966376-.379642-.281887.267076-.347693 1.463633-.149861 1.266192.209321 2.730504 1.033905 3.579514 2.015381 1.437041 1.661215 1.436916 1.661047 1.126516-.931727-.429447-3.58719-.911327-4.290113-5.181868-4.326867zm35.084267 16.416057c-7.131494 0-7.701402.0816-7.295655 1.04696.554079 1.31815.542903 1.59204-.209914 5.23638-.99197 4.80244.765877 10.72432 4.307667 14.51229 1.472525 1.5748 2.869698 1.84308 1.558382.29921-.489261-.57601-1.38993-2.18774-2.001241-3.58222-1.523023-3.47417-.978118-9.43053 1.197185-13.0948 2.340613-3.94276 3.618122-3.49544 5.333676 1.86552.998821 3.12137 1.186006 4.93697 1.08359 10.5394-.04606 2.52268-.437239 3.90319-1.571469 5.55315-1.22824 1.78675-1.30286 2.08636-.39784 1.60817 2.157158-1.13965 4.361083-4.76694 5.015927-8.25737.663804-3.53808.311177-9.25155-.738098-11.97602-.45338-1.17717-.353301-1.7782.435007-2.63808.989864-1.07972.78696-1.11259-6.717217-1.11259zm.0079 7.12411c-.07611-.003-.152316.002-.228758.0165-1.201967.22486-1.675952 3.11439-.700931 4.27416.845265 1.00547 2.211925.54056 2.678615-.91106.450024-1.39969-.607227-3.33211-1.748926-3.37964z"
       stroke-width=".311439"
       id="path1"
       style="fill:#cc4f35" />
    <g
       stroke-width=".844656"
       id="g3"
       style="fill:#cc4f35">
      <path
         d="m93.9934 51.013799c-7.839067 4.067302-14.635997 2.651988-23.220137 3.163101-.05578 1.99921 2.889082 2.038985 4.488829 2.909934 1.610064.876566 8.123388 2.90166 7.181529 18.243042-2.093368 5.253681-3.533957 11.307007-8.02344 15.409327-1.309885 1.19693-5.254656 1.900475-3.93735 3.464387 2.593429-.188059 6.22777 1.175828 7.657229-1.709811 5.853119-5.733613 10.540856-19.868102 12.716981-20.244182 2.79296-.482681 1.519541 11.246532 1.730827 13.70087 3.420853-2.37281 6.590924-16.575474 3.219563-23.92656-1.372796-1.95335-3.702357 1.577204-3.167537 3.710404.889698 3.548681-5.144575 3.472953-6.319086.381175-1.419384-2.603181-3.627302-5.619112-2.458931-8.685614 2.009126-1.424891 4.584514-.283039 6.481132.704893 1.363199.710075-1.241982 4.120139.71903 4.642414 2.376964-1.209113 3.381148-3.945062 4.163997-6.325712.368472-1.772322.871655-4.566944-1.232636-5.437668z"
         id="path2"
         style="fill:#cc4f35" />
      <path
         d="m48.334 42.605847c-.0829 1.179448 8.733092 4.382265 11.177775 5.901982 8.789295 7.433144-13.594122 4.681086-16.629135 4.801635-.336662.689388 11.91774 15.942838 8.939283 31.705227-1.146381 6.066797-4.829811-3.749462-6.465802-3.552281-2.497664 1.365013 3.382363 11.994151 7.385707 13.501813 6.344296.722209 10.07477-7.104188 13.657917-11.054076 1.521159-1.092049.576746-3.011894-.960475-1.304059-1.677466 1.606745-3.667565 2.478396-5.558877 4.080409-1.87334 1.246039-6.183846 2.021912-4.585311-1.910805 3.517159-8.652937 2.650309-17.430938-2.541439-25.430968-1.542422-1.516296-.824167-1.933891.796917-.763751 3.186471 3.335328 16.820779-3.359164 13.730136-7.211466-4.000752-6.351844-12.045377-7.589851-18.946696-8.76366z"
         id="path3"
         style="fill:#cc4f35" />
    </g>
  </g>
</svg>
