<?xml version="1.0" encoding="UTF-8" standalone="no"?>
<!-- Created with Inkscape (http://www.inkscape.org/) -->

<svg
   width="512"
   height="512"
   viewBox="0 0 512 512"
   version="1.1"
   id="svg1"
   xml:space="preserve"
   inkscape:version="1.3.2 (091e20e, 2023-11-25, custom)"
   sodipodi:docname="KWD_KIT_PowerAbilityType_Doomstone_P.svg"
   xmlns:inkscape="http://www.inkscape.org/namespaces/inkscape"
   xmlns:sodipodi="http://sodipodi.sourceforge.net/DTD/sodipodi-0.dtd"
   xmlns="http://www.w3.org/2000/svg"
   xmlns:svg="http://www.w3.org/2000/svg"><sodipodi:namedview
     id="namedview1"
     pagecolor="#ffffff"
     bordercolor="#000000"
     borderopacity="0.25"
     inkscape:showpageshadow="2"
     inkscape:pageopacity="0.0"
     inkscape:pagecheckerboard="0"
     inkscape:deskcolor="#d1d1d1"
     inkscape:document-units="px"
     inkscape:zoom="0.78710941"
     inkscape:cx="174.05458"
     inkscape:cy="273.78659"
     inkscape:window-width="1920"
     inkscape:window-height="1009"
     inkscape:window-x="1042"
     inkscape:window-y="235"
     inkscape:window-maximized="1"
     inkscape:current-layer="svg1" /><defs
     id="defs1" /><path
     id="path3019"
     style="overflow:visible;fill:#d9c68c;stroke-width:14.4983;stroke-linecap:round;stroke-linejoin:round"
     inkscape:label="icon"
     d="m 254.86429,19.533032 c -0.11653,-0.02279 -0.28367,0.01609 -0.37451,0.08812 -26.04304,15.541719 -48.87895,28.39663 -61.78695,56.050161 -20.82553,13.293274 -29.70561,26.033907 -45.33884,45.591657 v 26.65421 l 11.23848,99.32535 -2.24688,27.35538 c 7.5357,26.18535 5.24478,43.31203 5.24478,70.15192 9.08093,25.41153 8.25091,46.20334 9.73851,72.67307 6.27197,18.4496 18.51354,34.1313 29.21966,50.5018 l 29.21969,23.84759 15.73225,0.70119 c 19.50585,-3.26426 38.79366,-6.22806 58.43932,-5.36979 l 15.73226,-18.47781 c 0.18279,-26.05844 5.99233,-51.54084 10.48951,-77.15599 l -0.74896,-25.95111 13.48539,-66.64603 c -3.57126,-39.89505 -0.3564,-59.74546 11.98743,-96.52066 -1.25742,-34.82814 5.38598,-63.42982 9.74058,-97.92305 L 363.13809,84.089238 308.66457,27.49528 c -1.11239,-1.23671 -2.63555,-2.088641 -4.32596,-2.419627 z m -0.0348,95.837028 c 1.21609,0 3.10226,1.7989 3.10226,1.7989 l 48.6476,65.71115 c 0,0 1.92151,2.29717 1.92151,3.65531 0,1.35814 -1.92151,3.6572 -1.92151,3.6572 l -48.6476,65.71116 c 0,0 -1.88617,1.79701 -3.10226,1.79701 -1.21611,0 -3.10225,-1.79701 -3.10224,-1.79701 l -48.64763,-65.71116 c 0,0 -1.91944,-2.29906 -1.91944,-3.6572 0,-1.35814 1.91944,-3.65531 1.91944,-3.65531 l 48.6476,-65.71115 c 0,0 1.88613,-1.79891 3.10224,-1.7989 z"
     sodipodi:nodetypes="cccccccccccccccccccccccsccsccsccsccs" /></svg>
