<?xml version="1.0" encoding="UTF-8" standalone="no"?>
<!-- Created with Inkscape (http://www.inkscape.org/) -->

<svg
   width="512"
   height="512"
   viewBox="0 0 512 512"
   version="1.1"
   id="svg1"
   inkscape:version="1.3.2 (091e20e, 2023-11-25, custom)"
   sodipodi:docname="KWD_KIT_SpellBoundType_Halberd2H_Normal_C.svg"
   xmlns:inkscape="http://www.inkscape.org/namespaces/inkscape"
   xmlns:sodipodi="http://sodipodi.sourceforge.net/DTD/sodipodi-0.dtd"
   xmlns="http://www.w3.org/2000/svg"
   xmlns:svg="http://www.w3.org/2000/svg">
  <sodipodi:namedview
     id="namedview1"
     pagecolor="#ffffff"
     bordercolor="#000000"
     borderopacity="0.25"
     inkscape:showpageshadow="2"
     inkscape:pageopacity="0.0"
     inkscape:pagecheckerboard="0"
     inkscape:deskcolor="#d1d1d1"
     inkscape:document-units="px"
     inkscape:zoom="1.1614781"
     inkscape:cx="317.69862"
     inkscape:cy="229.449"
     inkscape:window-width="1920"
     inkscape:window-height="1009"
     inkscape:window-x="1042"
     inkscape:window-y="235"
     inkscape:window-maximized="1"
     inkscape:current-layer="layer1" />
  <defs
     id="defs1" />
  <g
     inkscape:label="Layer 1"
     inkscape:groupmode="layer"
     id="layer1">
    <path
       id="path1"
       d="m 204.89923,434.72481 c -1.32828,2.30048 -2.3503,3.10465 -5.05906,3.77156 l -3.40891,0.91331 -18.58128,-11.28546 c -10.22652,-6.27603 -36.14653,-21.33332 -36.00784,-21.43979 2.87745,-2.20791 2.84033,-12.22826 2.10961,-14.95591 -0.25769,-0.96181 17.09472,9.31195 32.7107,18.32785 l 28.44338,16.42177 0.66678,2.70894 c 0.60014,2.01953 0.33423,3.44614 -0.87338,5.53773 z m -33.15456,13.79474 c -0.24153,0.41812 -1.08377,1.23348 -1.80526,1.83908 -0.79128,0.56574 -2.49177,1.25693 -3.77104,1.54097 -2.22886,0.47921 -3.31484,-0.0547 -27.92376,-14.2628 -19.65945,-11.35041 -26.0222,-15.30272 -27.74051,-17.31736 -1.25193,-1.37344 -49.009472,-68.54387 -49.652849,-69.84474 -0.672509,-1.41072 -19.704279,-28.33815 -20.652922,-30.55887 -0.948717,-2.22096 -3.119784,-5.7054 -4.76862,-7.67964 C 32.698152,309.0788 30.40821,307.57072 16.674701,299.6418 8.0998007,294.69105 0.69151618,290.13509 0.18473778,289.56357 c -0.7746949,-0.91198 0.5347479,-3.50219 10.79844922,-21.27935 l 11.631994,-20.14728 33.8999,19.85084 c 33.481211,19.60947 33.899476,19.85097 37.435598,24.03032 1.98633,2.35527 4.78492,6.20164 6.302121,8.56492 1.40601,2.39343 3.69329,6.96591 4.93655,10.28628 1.28363,3.25078 2.75693,8.74905 3.3001,12.31604 0.51386,3.45685 0.89813,9.07 0.77383,12.34448 -2.94492,15.9839 -2.95287,8.91574 -2.5123,10.48356 0.70127,2.49561 3.30636,12.41415 14.62862,23.63448 5.22468,5.17772 8.2649,8.31633 11.57304,19.13092 0.25431,1.16937 1.34166,10.53556 0.57671,11.86039 -1.00616,1.74262 -2.28839,2.67557 -4.59773,3.29427 -1.82896,0.43122 -3.95552,0.41178 -4.9317,-0.15178 -0.97587,-0.5635 -5.48846,-8.05654 -15.90807,-22.53081 -12.443341,-17.4089 -17.789519,-18.01062 -18.856772,-18.25485 -0.858168,-0.1238 -8.089172,-4.70014 -8.861773,-3.84485 -2.998626,-1.18571 21.363575,36.39233 39.460135,54.49063 4.31876,4.31917 13.4165,4.11677 13.6082,2.82353 2.00106,-0.88986 3.05238,1.66344 20.0814,11.77388 12.81662,7.58567 17.46588,10.64168 18.41729,12.21371 0.76405,1.09162 1.104,3.2397 0.83791,4.66637 -0.30608,1.49648 -0.72215,3.0224 -1.03355,3.40028 z m 26.6896,-47.67643 c -0.88554,1.53375 -2.16777,2.4665 -4.10673,2.92714 l -2.77871,0.62664 -28.42454,-16.13207 -28.49456,-16.17227 -8.99073,-12.44109 c -4.96169,-6.86185 -8.88869,-12.94003 -8.81598,-13.54876 0.15303,-0.74811 8.91836,4.03359 40.42925,22.22627 33.88082,19.56123 40.35345,23.48403 41.50348,25.35639 0.79333,1.20176 1.27549,2.78154 1.23236,3.50026 -0.15308,0.74805 -0.82933,2.40266 -1.55384,3.65749 z m -20.63919,-45.64027 c -0.4024,0.69733 -1.36558,1.72146 -2.08717,2.32736 -0.79134,0.56555 -2.49191,1.25693 -3.77117,1.54076 -2.22875,0.47924 -3.45412,-0.13511 -25.74389,-12.7253 l -27.24779,-15.45269 c 0.4241,-9.13609 -5.01247,-22.23854 -5.1839,-21.39298 l 39.77355,22.68005 c 16.03435,9.25733 23.02447,13.57193 23.91692,14.92385 0.7641,1.09182 1.33468,3.0014 1.28866,4.3691 -0.0864,1.43741 -0.47304,3.07313 -0.94522,3.72985 z"
       style="fill:#6a55d5;fill-opacity:1;stroke-width:0.0759408" />
    <path
       id="path2"
       d="m 281.42632,19.685687 c 1.49471,-2.588734 2.64481,-3.493661 5.69297,-4.244154 l 3.83606,-1.027739 20.90957,12.699552 c 11.50793,7.062441 40.67579,24.006449 40.51972,24.126256 -3.23801,2.484561 -3.19623,13.76049 -2.37395,16.82992 0.28998,1.08233 -19.23673,-10.478753 -36.80944,-20.624371 L 281.19384,28.965687 280.4435,25.917308 c -0.67533,-2.272583 -0.3761,-3.877951 0.98282,-6.231621 z M 318.73524,4.1624303 c 0.27179,-0.4705058 1.21957,-1.3880388 2.03146,-2.0695253 0.89043,-0.6366277 2.804,-1.4144163 4.24356,-1.73405493 2.50815,-0.53924999 3.73021,0.0615169 31.42269,16.04996693 22.12284,12.772638 29.28285,17.220191 31.21647,19.487266 1.40881,1.545543 55.1505,77.132597 55.8745,78.596477 0.75678,1.58747 22.17327,31.88899 23.24078,34.38798 1.0676,2.49924 3.51071,6.42029 5.36615,8.64192 3.07382,3.55302 5.6507,5.25005 21.10505,14.17249 9.64937,5.5711 17.98593,10.69793 18.5562,11.34107 0.87177,1.02624 -0.60175,3.94102 -12.15151,23.9457 l -13.08953,22.6718 -38.14764,-22.33822 c -37.6765,-22.06658 -38.14718,-22.33834 -42.12639,-27.04137 -2.23523,-2.6504 -5.38447,-6.97873 -7.0918,-9.63813 -1.58218,-2.69334 -4.15606,-7.83876 -5.5551,-11.57519 -1.44447,-3.6581 -3.10238,-9.84532 -3.71362,-13.85927 -0.57823,-3.88999 -1.01066,-10.20649 -0.87078,-13.89127 3.31392,-17.98673 3.32287,-10.03291 2.8271,-11.79718 -0.78915,-2.80832 -3.72066,-13.96968 -16.46163,-26.595934 -5.87935,-5.826502 -9.30052,-9.358385 -13.02318,-21.528079 -0.28618,-1.315898 -1.50978,-11.855696 -0.64897,-13.346529 1.13222,-1.960973 2.57512,-3.010826 5.17383,-3.707042 2.05814,-0.485262 4.45116,-0.463384 5.54966,0.170791 1.09815,0.634109 6.17617,9.066042 17.90141,25.353984 14.0025,19.590284 20.01858,20.267389 21.21957,20.542219 0.9657,0.13931 9.10276,5.28908 9.97218,4.32662 3.37435,1.33427 -24.04049,-40.952385 -44.40461,-61.318437 -4.85991,-4.860386 -15.09762,-4.632616 -15.31334,-3.177328 -2.25181,1.001361 -3.43486,-1.871871 -22.59766,-13.249191 -14.42258,-8.53617 -19.65441,-11.975109 -20.72503,-13.744107 -0.85978,-1.228409 -1.24234,-3.6456556 -0.9429,-5.2510891 0.34443,-1.6839889 0.81264,-3.4011103 1.16306,-3.8263376 z M 288.70135,57.812846 c 0.99651,-1.725935 2.4394,-2.775566 4.62133,-3.293921 l 3.12688,-0.705162 31.98622,18.153464 32.06501,18.198704 10.11728,13.999969 c 5.58342,7.72166 10.00247,14.56146 9.92064,15.24647 -0.17219,0.84184 -10.03584,-4.53901 -45.49513,-25.01127 C 296.9174,72.388795 289.63373,67.974453 288.3396,65.86748 c -0.89273,-1.352349 -1.43531,-3.130069 -1.38678,-3.938852 0.17226,-0.841784 0.93324,-2.703713 1.74853,-4.115782 z m 23.22535,51.359104 c 0.45282,-0.7847 1.53668,-1.93715 2.34869,-2.61898 0.8905,-0.63642 2.80415,-1.41443 4.24371,-1.73382 2.50802,-0.53929 3.88694,0.15203 28.96967,14.31981 l 30.66201,17.38896 c -0.47724,10.28086 5.64057,25.02509 5.83347,24.07357 l -44.7573,-25.52192 c -18.0435,-10.4173 -25.9095,-15.27253 -26.91377,-16.79385 -0.85985,-1.22862 -1.50192,-3.37749 -1.45014,-4.91656 0.0972,-1.61752 0.53233,-3.4582 1.06367,-4.19721 z"
       style="fill:#6a55d5;fill-opacity:1;stroke-width:0.0854564" />
    <path
       d="m 415.78078,512 -63.09956,-28.93477 c -6.49483,-20.27823 -1.77495,-41.08412 -24.88068,-38.6221 -17.08444,32.17748 -111.09781,46.33114 -150.84027,19.48729 61.95352,-6.08142 129.25028,-33.64025 77.20929,-112.05473 l -23.00919,-28.92671 -1.10342,0.87769 c -6.98237,5.554 -15.07603,2.40521 -20.63003,-4.57716 -5.55399,-6.98238 -6.40268,-15.07575 0.5797,-20.62974 l 39.95807,-31.78387 c 6.98237,-5.55399 15.07462,-2.40409 20.62861,4.57828 5.554,6.98238 6.4041,15.07462 -0.57828,20.62862 l -1.10481,0.87882 c 19.6112,22.52613 46.87398,21.27044 44.53468,-7.46969 -4.05219,-49.78437 0.072,-82.91624 30.91853,-99.97445 30.43494,94.64675 122.38519,168.72919 167.63658,198.26043 -28.01771,15.81718 -55.90642,30.1423 -83.1242,36.70695 -11.04695,-49.97287 -85.04148,-25.37908 -59.90652,6.13266 9.99233,6.56798 23.44874,11.18671 33.60416,17.73236 z M 203.48298,284.98439 3.3557728,33.388241 c -5.30218,-6.66569 -4.20329004,-16.2991 2.46248,-21.60124 L 16.416123,3.3571411 c 6.66576,-5.30219 16.300799,-4.20692 21.602979,2.45881 L 238.14634,257.41209 Z"
       fill="#a3abc2"
       stroke-width="2.45999"
       id="path1-77"
       sodipodi:nodetypes="ccccccsssssscsccccccccssccc"
       style="fill:#6a55d5" />
  </g>
</svg>
