<?xml version="1.0" encoding="UTF-8" standalone="no"?>
<!-- Created with Inkscape (http://www.inkscape.org/) -->

<svg
   width="512"
   height="512"
   viewBox="0 0 512 512"
   version="1.1"
   id="svg1"
   inkscape:version="1.3.2 (091e20e, 2023-11-25, custom)"
   sodipodi:docname="ZZZ_EnhanceSpeed_A_Spell.svg"
   xmlns:inkscape="http://www.inkscape.org/namespaces/inkscape"
   xmlns:sodipodi="http://sodipodi.sourceforge.net/DTD/sodipodi-0.dtd"
   xmlns="http://www.w3.org/2000/svg"
   xmlns:svg="http://www.w3.org/2000/svg">
  <sodipodi:namedview
     id="namedview1"
     pagecolor="#ffffff"
     bordercolor="#000000"
     borderopacity="0.25"
     inkscape:showpageshadow="2"
     inkscape:pageopacity="0.0"
     inkscape:pagecheckerboard="0"
     inkscape:deskcolor="#d1d1d1"
     inkscape:document-units="px"
     inkscape:zoom="1.1131408"
     inkscape:cx="271.3044"
     inkscape:cy="213.36025"
     inkscape:window-width="1920"
     inkscape:window-height="1009"
     inkscape:window-x="1042"
     inkscape:window-y="235"
     inkscape:window-maximized="1"
     inkscape:current-layer="svg1" />
  <defs
     id="defs1" />
  <path
     d="m 468.25512,22.180504 q 17.86763,0 30.80625,14.170878 12.32251,13.554754 12.32251,33.270759 0,19.716004 -12.32251,33.270759 -12.93862,14.17088 -30.80625,14.17088 h -4.929 -1.23226 v 0.61612 q -0.61612,22.79663 -16.63537,38.81589 -16.63538,17.2515 -40.66426,17.2515 h -0.61613 q -1.23225,9.858 -8.00963,16.63538 -6.16125,6.16125 -14.17087,7.3935 l 0.61612,6.77738 q 0,11.09025 -8.00963,19.09988 -8.00962,8.00962 -19.09988,8.00962 -11.09025,0 -19.09988,-8.00962 -6.16125,-6.16125 -7.3935,-14.17088 -8.62575,-5.54513 -17.2515,-4.31288 -11.70638,2.4645 -23.41276,0 Q 272.32732,391.85559 322.23346,512 l -41.28039,-41.89651 -33.27076,24.645 -35.11913,-20.33213 -38.81589,36.35139 q 55.45127,-141.09266 32.65464,-343.18171 -25.87726,4.31287 -38.81589,25.26113 -26.49338,43.74489 -59.76414,10.47413 35.11914,12.93863 56.06739,-28.34176 9.24188,-21.56438 33.88689,-24.64501 -10.47413,-19.716 -33.27076,-14.17087 l -27.10951,12.3225 q -16.01925,8.62575 -30.19013,11.09025 3.69675,-8.00963 1.84837,-16.63538 Q 51.138386,153.41516 32.654631,93.034896 28.957881,76.399517 14.787002,59.764138 L 0.6161238,32.038506 q 19.7160042,3.080626 28.3417572,30.190133 4.312876,22.180505 17.867629,43.744881 20.33213,32.65464 43.12876,22.18051 11.09026,-10.47413 0,-51.754513 Q 54.835137,70.238266 38.815883,29.574006 L 65.92539,52.986762 q 12.322503,10.474127 20.332129,7.393501 8.625753,-6.777376 6.161252,-17.867629 -2.464501,-16.019254 -9.241877,-31.422383 26.493386,17.86763 20.948256,71.470518 -1.23225,16.635379 3.08063,32.654631 6.16125,25.26113 29.57401,11.70638 14.787,-8.00963 7.3935,-20.94826 L 121.37666,55.451262 q 17.86763,-14.787003 0,-36.967509 36.96751,19.716005 13.55475,44.977136 8.00963,18.483755 24.64501,37.583631 29.574,26.49338 41.89651,12.32251 8.62575,-17.867633 -11.70638,-40.664264 -20.33213,-22.79663 -19.09988,-47.441636 12.3225,39.432009 39.43201,23.412755 0,10.474128 -11.09025,16.019254 14.787,17.86763 16.01925,48.057761 1.23225,18.48375 8.00963,21.56438 19.09988,-2.4645 10.47412,-28.95788 -8.00962,-17.86763 -8.00962,-36.96751 0,-28.341757 19.716,-48.673887 Q 265.54994,-1e-6 293.8917,-1e-6 q 28.34176,0 48.05776,19.716004 9.858,9.858003 14.787,21.564381 l 13.55476,3.080625 6.77737,-8.009627 q 17.25151,-17.251504 41.89651,-17.251504 16.63538,0 29.57401,8.009627 9.24188,-4.929001 19.71601,-4.929001 m -243.98556,431.903726 22.79663,22.18051 24.02888,-24.64501 -24.64501,-45.59326 -22.1805,48.05776"
     fill="#ffffff"
     fill-rule="evenodd"
     stroke="none"
     id="path727"
     style="fill:#b2b2b2;fill-opacity:1;stroke-width:12.3225" />
</svg>
