<?xml version="1.0" encoding="UTF-8" standalone="no"?>
<svg
   height="512"
   viewBox="0 0 135.46666 135.46667"
   width="512"
   version="1.1"
   id="svg1"
   sodipodi:docname="KWD_ABB_KIT_PowerEnhance_SightNormal_P.svg"
   inkscape:version="1.3.2 (091e20e, 2023-11-25, custom)"
   xmlns:inkscape="http://www.inkscape.org/namespaces/inkscape"
   xmlns:sodipodi="http://sodipodi.sourceforge.net/DTD/sodipodi-0.dtd"
   xmlns="http://www.w3.org/2000/svg"
   xmlns:svg="http://www.w3.org/2000/svg">
  <defs
     id="defs1" />
  <sodipodi:namedview
     id="namedview1"
     pagecolor="#ffffff"
     bordercolor="#000000"
     borderopacity="0.25"
     inkscape:showpageshadow="2"
     inkscape:pageopacity="0.0"
     inkscape:pagecheckerboard="0"
     inkscape:deskcolor="#d1d1d1"
     inkscape:zoom="1.5742187"
     inkscape:cx="249.33003"
     inkscape:cy="247.42433"
     inkscape:window-width="1920"
     inkscape:window-height="1017"
     inkscape:window-x="1042"
     inkscape:window-y="235"
     inkscape:window-maximized="1"
     inkscape:current-layer="svg1" />
  <path
     d="m67.114772 23.813224c-18.074636-.143074-34.586753 10.181892-48.180732 22.263237-6.374259 5.895536-12.5553482 12.185432-17.7167388 19.344307-3.2788677 5.275144.6870373 10.915716 4.557243 14.147728 15.4171768 15.97652 34.6075968 29.494814 56.2802158 31.833154 13.080012 1.3583 26.184384-2.18519 37.794615-8.61769 12.770115-6.955268 24.303285-16.597456 34.019315-27.911128 4.03699-5.27606-.41161-11.305664-4.11183-14.981227-14.09803-16.29864-31.547992-30.802158-52.189304-35.234408-3.44364-.677627-6.953368-.99241-10.452784-.843973zm1.340716 14.929279c14.798224-.272296 27.40892 15.270174 25.979188 31.065225-.763232 15.233872-14.06952 28.096104-28.173584 26.938412-14.850072-.32392-27.455997-16.202028-25.304743-32.18164 1.12256-14.518075 13.984019-26.906059 27.499139-25.821997zm26.980248 6.236518c10.134994 6.332996 19.099354 14.73842 26.976954 24.058303-2.06043 5.388104-9.18908 9.278888-13.54101 13.532508-5.25471 4.055108-10.8554 7.938712-16.749048 10.61728 11.256558-12.153724 12.818978-33.219723 2.977384-46.897199-1.337688-2.217132-3.191976-3.736096.33576-1.310892zm-53.874719-.907824c-9.075101 11.70768-10.543631 29.622347-2.964412 42.628703 1.091831 2.943816 7.594736 9.04552 1.47148 5.054624-10.309333-5.608048-19.601982-13.255796-27.778778-22.037956 8.414486-10.134159 18.172338-19.144759 29.27171-25.645371zm26.756107 5.29802c-9.784636-1.042412-18.801708 9.135356-17.608408 19.687055.23848 11.570816 12.486296 20.268868 22.448808 16.08142 9.344944-3.052416 14.298792-15.659332 10.022044-25.082975-2.678372-6.062248-8.551716-10.718052-14.862444-10.6855z"
     fill="#931826"
     stroke-width=".842036"
     id="path1"
     style="fill:#d9c68c;fill-opacity:1" />
</svg>
