<?xml version="1.0" encoding="UTF-8" standalone="no"?>
<svg
   height="512"
   viewBox="0 0 512 512"
   width="512"
   version="1.1"
   id="svg2"
   sodipodi:docname="KWD_KIT_SpellFearType_NormalRune_I.svg"
   inkscape:version="1.3.2 (091e20e, 2023-11-25, custom)"
   xmlns:inkscape="http://www.inkscape.org/namespaces/inkscape"
   xmlns:sodipodi="http://sodipodi.sourceforge.net/DTD/sodipodi-0.dtd"
   xmlns="http://www.w3.org/2000/svg"
   xmlns:svg="http://www.w3.org/2000/svg">
  <defs
     id="defs2" />
  <sodipodi:namedview
     id="namedview2"
     pagecolor="#ffffff"
     bordercolor="#000000"
     borderopacity="0.25"
     inkscape:showpageshadow="2"
     inkscape:pageopacity="0.0"
     inkscape:pagecheckerboard="0"
     inkscape:deskcolor="#d1d1d1"
     inkscape:zoom="1.1614781"
     inkscape:cx="291.0085"
     inkscape:cy="218.25637"
     inkscape:window-width="1920"
     inkscape:window-height="1009"
     inkscape:window-x="1042"
     inkscape:window-y="235"
     inkscape:window-maximized="1"
     inkscape:current-layer="svg2" />
  <path
     id="path12"
     style="fill:#bf4b40;fill-opacity:1;stroke-width:8.32781"
     d="M 255.99998,11.00274 C 120.691,11.002249 10.999998,120.6933 11.000467,256.00229 11.001073,391.31049 120.69176,500.99773 255.99998,500.99726 391.30818,500.99773 500.99893,391.31049 500.99953,256.00229 501,120.6933 391.30896,11.002273 255.99998,11.00274 Z m 0,19.714543 C 380.42101,30.71782 481.28446,131.58125 481.28497,256.00229 481.28443,380.42332 380.42101,481.28674 255.99998,481.28728 131.57893,481.28674 30.715538,380.42332 30.715001,256.00229 30.715538,131.58125 131.57893,30.717791 255.99998,30.717283 Z m -27.27599,34.823706 c -29.04327,-0.144563 -58.47047,0.595526 -60.46403,3.394646 -4.61007,6.472835 -1.4533,12.991353 4.1805,23.876785 55.73189,107.68378 73.42569,233.83634 8.60768,344.44036 -3.93603,6.71608 -5.27987,11.42999 -4.33126,15.20967 1.95572,7.79187 10.10185,6.15507 14.64771,-2.94233 37.12564,-61.34946 78.52818,-126.46164 83.55953,-200.01929 0.0393,-11.08759 0.041,-11.08727 13.95325,3.23473 7.65177,7.87711 14.28466,16.64807 16.14628,18.39871 4.91955,4.62621 3.85311,4.24557 11.1754,-0.48886 57.18293,-36.97329 44.84165,-205.990501 20.49124,-190.941007 -9.95292,6.151259 14.45009,84.025697 -27.33995,116.633397 -5.87691,4.19819 -9.03711,3.9504 -13.58316,-0.53457 -23.48817,-23.17237 -28.52709,-54.22136 -35.5867,-87.38822 -3.06002,-18.882006 32.06464,-32.280036 26.70029,-40.959671 -0.45743,-0.740236 -29.11349,-1.769805 -58.15678,-1.91435 z" />
</svg>
