<?xml version="1.0" encoding="UTF-8" standalone="no"?>
<!-- Created with Inkscape (http://www.inkscape.org/) -->

<svg
   width="512"
   height="512"
   viewBox="0 0 512 512"
   version="1.1"
   id="svg1"
   sodipodi:docname="KWD_KIT_SpellTeleportType_Normal_I.svg"
   inkscape:version="1.3.2 (091e20e, 2023-11-25, custom)"
   xmlns:inkscape="http://www.inkscape.org/namespaces/inkscape"
   xmlns:sodipodi="http://sodipodi.sourceforge.net/DTD/sodipodi-0.dtd"
   xmlns="http://www.w3.org/2000/svg"
   xmlns:svg="http://www.w3.org/2000/svg">
  <sodipodi:namedview
     id="namedview1"
     pagecolor="#ffffff"
     bordercolor="#000000"
     borderopacity="0.25"
     inkscape:showpageshadow="2"
     inkscape:pageopacity="0.0"
     inkscape:pagecheckerboard="0"
     inkscape:deskcolor="#d1d1d1"
     inkscape:document-units="px"
     inkscape:zoom="1.1131408"
     inkscape:cx="229.08153"
     inkscape:cy="219.64876"
     inkscape:window-width="1920"
     inkscape:window-height="1009"
     inkscape:window-x="1042"
     inkscape:window-y="235"
     inkscape:window-maximized="1"
     inkscape:current-layer="svg1" />
  <defs
     id="defs1" />
  <path
     id="rect1"
     style="fill:#66cca1;fill-rule:evenodd;stroke-width:3.01661;fill-opacity:1"
     d="M 256.00003,-1.1165852e-7 C 252.1311,0.00299989 248.25716,1.4169889 245.70149,4.2479039 L 195.2046,67.380935 c -7.96038,8.81771 -9.78136,20.454227 -4.02683,30.468976 L 251.45318,208.4381 c 0.95866,1.58788 2.75279,2.38125 4.54685,2.38125 1.79402,0 3.58816,-0.79337 4.5468,-2.38125 L 320.82225,97.849911 c 5.75452,-10.014749 3.93355,-21.651266 -4.02684,-30.468976 L 266.29852,4.2479039 C 263.74285,1.4169889 259.86892,0.00265689 256.00003,-1.1165852e-7 Z M 128.18823,48.998853 c -2.57839,0.110345 -5.14852,0.99937 -7.19756,2.742518 L 60.613795,103.05579 c -7.309667,6.21443 -9.528763,15.63243 -5.612181,23.8179 57.467566,120.12366 121.426246,240.25037 178.898446,360.37234 7.89578,16.50279 14.99928,24.75525 22.09997,24.75397 7.10064,10e-4 14.20414,-8.25118 22.09992,-24.75397 57.4722,-120.12197 121.43092,-240.24868 178.89842,-360.37234 3.91661,-8.18547 1.69752,-17.60347 -5.61215,-23.8179 L 391.00935,51.741371 c -2.04903,-1.743148 -4.61915,-2.632233 -7.19755,-2.742518 -4.29736,-0.183858 -8.62218,1.791453 -10.62826,5.55076 L 256.00003,274.18229 138.81649,54.549613 c -2.00609,-3.759307 -6.33092,-5.734618 -10.62826,-5.55076 z" />
</svg>
