<?xml version="1.0" encoding="UTF-8" standalone="no"?>
<!-- Created with Inkscape (http://www.inkscape.org/) -->

<svg
   width="512"
   height="512"
   viewBox="0 0 512 512"
   version="1.1"
   id="svg1"
   sodipodi:docname="KWD_KIT_SpellDamageType_FireCloak_D.svg"
   inkscape:version="1.3.2 (091e20e, 2023-11-25, custom)"
   xmlns:inkscape="http://www.inkscape.org/namespaces/inkscape"
   xmlns:sodipodi="http://sodipodi.sourceforge.net/DTD/sodipodi-0.dtd"
   xmlns="http://www.w3.org/2000/svg"
   xmlns:svg="http://www.w3.org/2000/svg">
  <sodipodi:namedview
     id="namedview1"
     pagecolor="#ffffff"
     bordercolor="#000000"
     borderopacity="0.25"
     inkscape:showpageshadow="2"
     inkscape:pageopacity="0.0"
     inkscape:pagecheckerboard="0"
     inkscape:deskcolor="#d1d1d1"
     inkscape:document-units="px"
     inkscape:zoom="1.1131408"
     inkscape:cx="267.71097"
     inkscape:cy="292.41584"
     inkscape:window-width="1920"
     inkscape:window-height="1009"
     inkscape:window-x="1042"
     inkscape:window-y="235"
     inkscape:window-maximized="1"
     inkscape:current-layer="svg1" />
  <defs
     id="defs1" />
  <path
     id="path6"
     style="display:inline;fill:#d2902d;fill-opacity:1;stroke-width:3.24408"
     d="m 357.90277,18.738785 c -22.14967,0.522098 -44.46614,9.023963 -64.76576,28.22188 97.685,-30.420085 176.1464,41.524003 195.83932,147.116235 22.95232,-76.89186 -49.57895,-173.491324 -126.64648,-175.338115 -1.4745,-0.03534 -2.95044,-0.03481 -4.42708,0 z M 177.93013,30.945219 C 75.334387,30.971211 28.279841,89.373532 23.746895,200.89876 61.171524,92.35809 109.96292,60.156129 211.56801,32.818298 199.75148,31.565766 188.54348,30.94253 177.93013,30.945219 Z M 279.71329,67.352913 C 131.54553,66.552415 -36.09144,186.11507 93.11783,401.14423 -4.0365382,-5.6949837 513.25519,39.101088 427.98186,331.39197 511.88659,151.31181 402.48083,68.01618 279.71329,67.352913 Z M 263.79841,173.73703 c -38.39735,-0.002 -69.52498,36.633 -69.52599,81.8267 -0.002,45.19655 31.12623,81.83732 69.52599,81.83508 38.39692,-0.002 69.52208,-36.64187 69.51969,-81.83508 -0.001,-45.19038 -31.12519,-81.82424 -69.51969,-81.8267 z m 98.64876,25.88997 c 119.70358,199.9752 -229.46034,325.98141 -233.898,13.00887 -91.838829,354.79508 433.01147,262.65158 233.898,-13.00887 z m 113.95607,84.66773 c -8.04834,73.72133 -44.61741,153.84758 -139.58413,204.9952 61.95074,30.20964 195.00975,-117.91542 139.58413,-204.9952 z M 29.196421,329.6844 C -12.624158,377.6795 76.26559,548.29509 196.60853,475.35708 117.67157,507.99678 26.792785,403.23195 29.196421,329.6844 Z" />
</svg>
