<?xml version="1.0" encoding="UTF-8" standalone="no"?>
<!-- Created with Inkscape (http://www.inkscape.org/) -->

<svg
   width="512"
   height="512"
   viewBox="0 0 512 512"
   version="1.1"
   id="svg1"
   inkscape:version="1.3.2 (091e20e, 2023-11-25, custom)"
   sodipodi:docname="KWD_KIT_PowerTypeSummon_Karstaag_P.svg"
   xmlns:inkscape="http://www.inkscape.org/namespaces/inkscape"
   xmlns:sodipodi="http://sodipodi.sourceforge.net/DTD/sodipodi-0.dtd"
   xmlns="http://www.w3.org/2000/svg"
   xmlns:svg="http://www.w3.org/2000/svg">
  <sodipodi:namedview
     id="namedview1"
     pagecolor="#ffffff"
     bordercolor="#000000"
     borderopacity="0.25"
     inkscape:showpageshadow="2"
     inkscape:pageopacity="0.0"
     inkscape:pagecheckerboard="0"
     inkscape:deskcolor="#d1d1d1"
     inkscape:document-units="px"
     inkscape:zoom="1.1131408"
     inkscape:cx="265.91425"
     inkscape:cy="242.10774"
     inkscape:window-width="1920"
     inkscape:window-height="1009"
     inkscape:window-x="1042"
     inkscape:window-y="235"
     inkscape:window-maximized="1"
     inkscape:current-layer="svg1" />
  <defs
     id="defs1" />
  <path
     id="path814-5-3-4-2-9"
     style="display:inline;fill:#d9c68c;stroke-width:3.52864"
     d="M 92.426337,4.7955525 C -39.301042,41.430452 19.94095,127.99948 82.911981,201.26054 c -3.326249,17.25414 -5.018019,37.04069 -4.927509,59.72726 0,35.28646 5.078385,60.49314 15.193311,75.66601 11.879987,17.64329 19.097787,30.54489 21.683837,38.6606 -2.11573,30.81682 8.12399,48.56386 30.70726,53.26881 13.17305,3.17578 24.56943,7.23337 34.21404,12.17349 l 7.07565,36.87516 c 1.99938,9.76264 8.88387,16.9865 20.64584,25.57258 -2.58774,-10.58579 -1.88871,-17.52 2.11007,-24.69488 h 44.69826 3.37451 44.69826 c 3.99878,7.17488 4.69781,14.10908 2.11007,24.69488 11.76197,-8.58607 18.64646,-15.80994 20.64584,-25.57258 l 7.07565,-36.87516 c 9.64462,-4.94012 21.041,-8.99771 34.21404,-12.17349 22.58327,-4.70494 32.82299,-22.45198 30.70726,-53.26881 2.58606,-8.11572 9.80386,-21.01731 21.68385,-38.6606 10.11492,-15.17286 15.19331,-40.37955 15.19331,-75.66601 0.0905,-22.68656 -1.60128,-42.47312 -4.92752,-59.72726 C 492.05904,127.99948 551.30105,41.430452 419.57367,4.7955525 436.32764,34.34685 491.63175,54.819656 371.79747,111.97824 294.59916,77.895719 217.40083,72.845165 140.20252,111.97824 20.368251,54.819658 75.672354,34.346851 92.426337,4.7955525 Z M 187.08702,233.00578 c 11.76696,0 20.93229,2.51976 27.5271,7.56261 5.94832,5.81899 8.92524,14.16594 8.92524,25.02829 0,21.33644 -10.66899,32.00577 -32.00577,32.00577 -18.62105,0 -31.15744,-4.58136 -37.62261,-13.76256 -3.36221,-4.65513 -5.0317,-10.74327 -5.0317,-18.24321 0,-7.50026 1.66949,-13.75123 5.0317,-18.79427 5.81865,-9.18085 16.88175,-13.79663 33.17604,-13.79663 z m 137.82596,0 c 16.29428,0 27.35738,4.61578 33.17603,13.79663 3.36221,5.04304 5.0317,11.29401 5.0317,18.79427 0,7.49994 -1.66949,13.58808 -5.0317,18.24321 -6.46517,9.1812 -19.00156,13.76256 -37.62261,13.76256 -21.33678,0 -32.00577,-10.66933 -32.00577,-32.00576 0,-10.86236 2.97692,-19.2093 8.92524,-25.02829 6.59481,-5.04285 15.76015,-7.56261 27.52711,-7.56262 z m -50.73592,34.73304 c 3.7445,3.74319 5.61486,9.08148 5.61486,16.06902 0,29.36929 -47.58385,29.36929 -47.58385,0 0,-6.98754 1.87036,-12.32583 5.61486,-16.06902 8.70791,-6.65884 27.64711,-6.65818 36.35413,0 z m -84.49303,61.90347 c 7.57042,0 13.48077,1.62567 17.72218,4.86938 3.82758,3.74318 5.74711,9.11355 5.74711,16.10108 0,13.72531 -6.88896,20.57973 -20.61379,20.57973 -11.9797,0 -20.02436,-2.95504 -24.18266,-8.8611 -2.16227,-2.99463 -3.24627,-6.894 -3.24627,-11.71863 0,-4.82496 1.08067,-8.86329 3.24627,-12.10736 3.74277,-5.9059 10.84492,-8.8631 21.32716,-8.8631 z m 132.63193,0 c 10.48224,0 17.58438,2.95719 21.32716,8.8631 2.1656,3.24407 3.24628,7.28241 3.24628,12.10736 0,4.82463 -1.084,8.724 -3.24628,11.71863 -4.1583,5.90606 -12.20296,8.8611 -24.18266,8.8611 -13.72483,0 -20.61379,-6.85442 -20.61379,-20.57973 0,-6.98753 1.91953,-12.3579 5.74711,-16.10108 4.24141,-3.24371 10.15176,-4.86938 17.72218,-4.86938 z M 256,347.59292 c 0.9373,0 2.15725,1.57946 2.27038,1.78745 27.8913,51.27424 28.48548,66.73392 1.78545,46.38552 -1.09194,-1.26405 -2.3931,-1.83522 -3.86346,-1.83755 -0.0635,-0.004 -0.12955,-0.0158 -0.19237,-0.0181 -0.062,0.002 -0.12764,0.0139 -0.19035,0.0181 -1.4705,0.002 -2.77346,0.57341 -3.86549,1.83755 -26.70003,20.3484 -26.10582,4.88873 1.78545,-46.38552 0.11297,-0.20769 1.333,-1.78745 2.27039,-1.78745 z"
     sodipodi:nodetypes="cccccccccccccccccccccccccscsscscsscscsscscssccscsscscsscscsscssscccccss"
     inkscape:label="path1" />
</svg>
