<?xml version="1.0" encoding="UTF-8" standalone="no"?>
<!-- Created with Inkscape (http://www.inkscape.org/) -->

<svg
   width="512"
   height="512"
   viewBox="0 0 512 512"
   version="1.1"
   id="svg1"
   inkscape:version="1.3.2 (091e20e, 2023-11-25, custom)"
   sodipodi:docname="KWD_KIT_PowerTypeSummon_DarkBrotherhood_P.svg"
   xmlns:inkscape="http://www.inkscape.org/namespaces/inkscape"
   xmlns:sodipodi="http://sodipodi.sourceforge.net/DTD/sodipodi-0.dtd"
   xmlns="http://www.w3.org/2000/svg"
   xmlns:svg="http://www.w3.org/2000/svg">
  <sodipodi:namedview
     id="namedview1"
     pagecolor="#ffffff"
     bordercolor="#000000"
     borderopacity="0.25"
     inkscape:showpageshadow="2"
     inkscape:pageopacity="0.0"
     inkscape:pagecheckerboard="0"
     inkscape:deskcolor="#d1d1d1"
     inkscape:document-units="px"
     inkscape:zoom="0.78710941"
     inkscape:cx="181.67741"
     inkscape:cy="222.96773"
     inkscape:window-width="1920"
     inkscape:window-height="1009"
     inkscape:window-x="1042"
     inkscape:window-y="235"
     inkscape:window-maximized="1"
     inkscape:current-layer="svg1" />
  <defs
     id="defs1" />
  <path
     id="path239"
     d="m 312.10226,9.957945 c -36.73455,-1.724562 -33.56262,36.682915 -29.76784,63.477022 -4.39087,21.645097 -19.1881,59.251633 11.14158,66.338283 -29.76324,3.25608 -14.31148,65.90533 11.12228,49.2427 12.152,-21.01941 7.81454,-51.25131 9.84466,-71.54027 6.00697,-18.94851 2.22338,-33.771281 0.93498,-49.642843 14.99592,-25.977972 10.41495,-57.232155 -3.27566,-57.874892 z M 172.42509,32.292346 c -32.77094,-3.11759 -29.43016,54.313409 -9.77721,70.643544 6.29096,23.40017 11.09957,48.45645 21.37468,74.03345 -7.41392,20.12581 33.5257,57.1581 35.37725,24.04765 -5.18608,-22.90054 -17.873,-49.1826 -17.02815,-70.38804 7.67021,-14.5968 -16.03534,-36.40264 -9.35082,-56.151979 2.52008,-15.879845 -4.45536,-40.649142 -20.59575,-42.184625 z m 233.06912,4.936805 c -38.07362,-2.389018 -17.99869,52.267693 -27.7454,77.614849 -3.20604,26.44884 -0.94909,55.3681 -20.91394,74.48115 -13.24777,30.45654 39.09025,29.67064 27.46096,-0.15426 3.75918,-11.6064 12.96514,-1.39203 11.20907,-18.15142 1.81865,-18.91491 23.67934,-50.21873 11.56581,-58.76922 6.94599,-11.85254 31.53593,-72.943381 -1.5765,-75.021099 z m 87.53976,93.696599 c -0.66411,-0.002 -1.35198,0.0392 -2.05862,0.12535 -37.10663,7.05462 -19.64462,57.55539 -46.93824,76.44818 -10.65253,17.10074 -42.3867,52.09162 -20.36913,66.35277 17.59478,-14.75399 31.3086,-35.34272 43.63576,-55.00392 13.2076,-23.55106 22.94391,-45.74718 35.16511,-69.54917 5.51253,-8.73825 0.52627,-18.34288 -9.43488,-18.37321 z m -274.82498,97.37866 c -28.87317,14.40078 -21.43871,58.67848 -1.42224,77.31598 -1.10691,28.63012 -44.46066,18.77026 -35.24223,50.37083 -22.99272,4.17866 -0.12046,37.37461 -28.63731,32.66293 -17.53806,-5.32007 -37.04531,-7.13469 -29.30748,17.74166 12.295,29.61184 42.35997,46.76967 61.85472,71.36671 26.84723,27.36829 68.74174,20.52028 103.05582,16.58459 29.11904,-7.14146 68.39287,5.71526 87.35349,-25.17096 1.31943,-1.11567 2.45933,-2.33744 3.51457,-3.60618 0.62941,-0.1979 1.21931,-0.75872 0.82438,-1.07992 12.00289,-15.85931 6.71466,-41.47648 17.11974,-53.68295 5.62596,-18.0684 4.37409,-42.44409 3.58691,-61.28098 5.39947,-17.70994 11.79184,-35.0566 15.00324,-53.34547 -12.5491,-11.5938 -40.22234,-7.13186 -53.75524,-25.06489 -27.04179,-9.25049 -44.74125,-33.38241 -76.32763,-29.51959 -9.51903,2.89513 -18.77043,1.76565 -27.97204,-0.70388 z M 23.575329,281.44947 c -29.5018839,0.67199 -25.2129018,46.17143 2.05861,50.40457 14.640866,21.17674 34.061081,33.92032 55.866891,43.11992 C 105.09262,385.4 119.19066,363.03951 96.132876,348.95448 80.440692,329.79474 86.10747,296.0035 53.875928,290.26725 49.88774,288.63915 29.5046,281.31463 23.575329,281.44947 Z m 283.631141,61.13428 c -2.38047,23.95568 14.28525,63.92182 -14.69471,59.88286 -14.08492,-4.78203 -31.71269,-9.1138 -32.98113,-29.9776 -18.19462,0.33874 -8.31212,-50.37598 -2.14057,-54.04936 13.85745,9.66671 45.02122,11.61173 51.08434,3.70726 1.06874,6.59921 3.08934,13.06246 -1.26793,20.43684 z"
     style="fill:#d9c68c;fill-opacity:1;stroke-width:0.713559"
     sodipodi:nodetypes="scccccsscccccsscccccsscccccscccccccccccccccccsccccscccccc"
     inkscape:label="path1" />
</svg>
