<?xml version="1.0" encoding="UTF-8" standalone="no"?>
<!-- Created with Inkscape (http://www.inkscape.org/) -->

<svg
   width="512"
   height="512"
   viewBox="0 0 512 512"
   version="1.1"
   id="svg1"
   sodipodi:docname="KWD_ABC_KIT_SpellSchool_Illusion_P.svg"
   inkscape:version="1.3.2 (091e20e, 2023-11-25, custom)"
   xmlns:inkscape="http://www.inkscape.org/namespaces/inkscape"
   xmlns:sodipodi="http://sodipodi.sourceforge.net/DTD/sodipodi-0.dtd"
   xmlns="http://www.w3.org/2000/svg"
   xmlns:svg="http://www.w3.org/2000/svg">
  <sodipodi:namedview
     id="namedview1"
     pagecolor="#ffffff"
     bordercolor="#000000"
     borderopacity="0.25"
     inkscape:showpageshadow="2"
     inkscape:pageopacity="0.0"
     inkscape:pagecheckerboard="0"
     inkscape:deskcolor="#d1d1d1"
     inkscape:document-units="px"
     inkscape:zoom="0.78710938"
     inkscape:cx="132.76427"
     inkscape:cy="216.61538"
     inkscape:window-width="1920"
     inkscape:window-height="1017"
     inkscape:window-x="1042"
     inkscape:window-y="235"
     inkscape:window-maximized="1"
     inkscape:current-layer="layer1" />
  <defs
     id="defs1" />
  <g
     inkscape:label="Layer 1"
     inkscape:groupmode="layer"
     id="layer1">
    <path
       d="M 326.66363,81.145009 Q 297.36655,51.390567 255.36477,51.390567 l -10.31623,0.533598 q -47.87137,10.112953 -60.75395,46.14352 -4.77697,13.441585 -4.77697,28.738065 0,34.96337 24.5201,59.71216 24.82501,24.82501 59.78839,24.82501 33.31176,0 76.71106,-29.39871 -31.91424,67.61449 -94.52307,65.2006 -66.16616,-9.98591 -94.95504,-64.76864 -8.43593,-16.49072 -8.43593,-38.06332 0,-52.216375 36.89449,-89.415782 16.59236,-16.643176 36.46253,-25.638114 2.49013,-1.067196 5.20893,-2.159802 22.13162,-9.020347 47.74432,-9.020347 52.19097,0 89.08546,36.818263 37.12318,37.199407 37.12318,89.415782 0,50.43771 -31.05032,90.58461 -12.9334,14.22928 -39.18134,34.40437 -26.37499,20.04804 -36.03058,59.68675 -4.44665,14.22929 -4.44665,30.28805 0,40.45181 28.53479,68.78332 28.66184,28.86512 69.13906,28.86512 24.21519,0 44.39027,-10.31624 13.13668,-7.03841 24.82502,-18.54889 28.45856,-28.33151 28.45856,-68.78332 0,-5.1073 -1.75325,-10.31623 -14.10224,-43.75504 -35.34452,-53.18193 -21.16605,-9.52854 -45.2796,-9.52854 -24.08814,-0.2541 -47.84596,23.40208 -24.08814,24.01191 -24.08814,57.62859 0,32.24457 35.80189,72.39146 -72.62015,-29.09379 -70.43494,-89.51742 9.57936,-63.90471 62.73588,-91.6264 15.83008,-8.10561 36.56417,-8.10561 50.33608,0 86.36665,35.5732 16.05876,15.98254 24.85042,35.16666 l 2.18521,4.87861 Q 512,347.53746 512,372.28625 q 0,50.46312 -35.49697,86.18878 -36.03057,35.44616 -86.36665,35.44616 -48.60824,0 -87.35762,-29.70362 -37.22481,-32.24456 -45.58451,-69.36775 -7.57201,-36.03057 -19.84477,-61.71949 -12.3998,-26.17172 -23.78322,-37.7076 -29.83068,-29.47495 -71.27345,-29.14461 -42.560799,-0.22869 -72.061147,29.3987 -17.710372,17.55791 -24.977469,39.91821 -4.548288,14.99156 -4.44665,31.91424 -0.101638,36.66582 23.122581,64.23505 62.278515,43.42471 113.605555,3.786 24.31683,-23.1988 24.54551,-56.10401 0,-34.91256 -24.74878,-59.66134 -23.52913,-23.52914 -76.83812,-26.57827 67.71613,-31.05032 114.39326,13.77191 39.91821,53.94421 21.5726,112.94492 -5.43762,17.60873 -20.81032,32.8798 -36.79286,37.04695 -89.21251,37.37727 -23.65618,0 -44.161587,-7.74988 -2.490124,-1.06719 -5.107295,-2.36307 Q 55.2401,471.02729 37.097767,452.78332 0.1270473,415.88883 1.0000001e-7,363.69786 0.1270473,311.04952 37.097767,274.18044 q 35.395336,-35.47156 85.324863,-41.79851 30.51673,-5.41221 101.56149,17.17677 l 1.09261,0.10164 q 14.22928,4.34501 30.28804,4.34501 42.00178,0 71.29886,-29.62739 29.90689,-29.75444 29.90689,-71.73082 0,-25.07911 -10.59573,-45.88943 -7.39414,-13.797315 -19.31116,-25.612701 M 246.31901,281.77786 q 4.0401,13.89896 15.32189,27.54382 8.8933,-13.64486 11.38342,-27.54382 h -26.70531"
       fill="#ffffff"
       fill-rule="evenodd"
       stroke="none"
       id="path639"
       style="fill:#d9c68c;stroke-width:0.508189;fill-opacity:1" />
  </g>
</svg>
