<?xml version="1.0" encoding="UTF-8" standalone="no"?>
<!-- Created with Inkscape (http://www.inkscape.org/) -->

<svg
   width="512"
   height="512"
   viewBox="0 0 512 512"
   version="1.1"
   id="svg1"
   inkscape:version="1.4 (86a8ad7, 2024-10-11)"
   sodipodi:docname="KWD_KIT_SpellSacrificeType_Blood_A.svg"
   xmlns:inkscape="http://www.inkscape.org/namespaces/inkscape"
   xmlns:sodipodi="http://sodipodi.sourceforge.net/DTD/sodipodi-0.dtd"
   xmlns="http://www.w3.org/2000/svg"
   xmlns:svg="http://www.w3.org/2000/svg">
  <sodipodi:namedview
     id="namedview1"
     pagecolor="#ffffff"
     bordercolor="#000000"
     borderopacity="0.25"
     inkscape:showpageshadow="2"
     inkscape:pageopacity="0.0"
     inkscape:pagecheckerboard="0"
     inkscape:deskcolor="#d1d1d1"
     inkscape:document-units="px"
     inkscape:zoom="1.1131408"
     inkscape:cx="356.19934"
     inkscape:cy="234.02251"
     inkscape:window-width="1920"
     inkscape:window-height="1009"
     inkscape:window-x="1072"
     inkscape:window-y="386"
     inkscape:window-maximized="1"
     inkscape:current-layer="layer1" />
  <defs
     id="defs1" />
  <g
     inkscape:label="Layer 1"
     inkscape:groupmode="layer"
     id="layer1">
    <path
       id="path3"
       style="fill:#99192a;fill-opacity:1;stroke-width:0.139814"
       d="m 81.931813,24.799511 c -4.890668,1.73e-4 -7.113661,0.889878 -10.670563,4.594878 l -4.592456,4.594877 0.887995,40.015846 c 0.592716,22.082841 0.740585,77.270618 1.038022,77.147488 6.16924,-2.55543 22.112037,6.72841 25.788431,10.4044 1.296296,1.29625 0.88797,-35.82909 0.887981,-69.027195 V 32.060821 l -3.704447,-3.556856 c -2.667549,-2.815928 -5.188339,-3.704484 -9.634963,-3.704454 z m 348.133957,0 c -4.44663,-3e-5 -6.96499,0.888526 -9.63255,3.704454 l -3.70688,3.556856 v 60.468984 c 1e-5,33.198105 -0.40588,70.323445 0.89042,69.027195 3.67639,-3.67599 19.61919,-12.95983 25.78843,-10.4044 0.29744,0.12314 0.44287,-55.064647 1.0356,-77.147488 l 0.89041,-40.015846 -4.59486,-4.594877 c -3.55691,-3.705 -5.77992,-4.594705 -10.67057,-4.594878 z M 29.418584,64.962948 c -0.889069,2.22e-4 -2.965099,0.592758 -4.594877,1.185629 -1.630454,0.740853 -4.297542,2.816658 -5.928093,4.594868 -2.815843,3.112636 -2.96422,5.336178 -2.964047,57.652545 -1.4e-5,41.79414 0.443251,55.57708 2.073622,60.17135 1.037445,3.26045 64.174788,141.23897 65.656659,143.46229 1.63027,2.37092 27.043132,57.50496 29.710632,61.06178 2.66784,3.55715 6.22418,10.22634 7.85414,14.67263 2.51974,7.26183 2.81661,12.30061 2.81643,41.49664 1e-5,18.22945 0.44568,34.23446 0.89042,35.56858 0.74096,2.07478 6.07532,2.37131 43.86789,2.37123 h 42.8323 l -0.44522,-72.32273 c -0.44497,-71.43485 -0.44345,-72.32475 -3.85203,-81.81011 -1.92679,-5.33522 -5.48512,-13.3373 -7.85656,-17.93188 -2.52186,-4.44504 -7.70654,-12.30266 -11.85617,-17.34149 -4.00149,-5.03912 -11.41138,-12.44905 -16.59867,-16.59867 -5.03865,-4.00147 -13.63454,-9.78046 -18.96991,-12.5966 -13.68432,-4.8622 -17.9984,-5.80609 -19.13201,-5.75872 -3.43821,-3.51777 -16.69376,-16.76645 -24.11402,-44.96882 -3.44593,-13.09671 -5.65046,-20.83228 -19.848243,-36.06217 -1.630405,-1.48195 -15.562993,-11.83693 -18.379495,-11.83682 -3.704721,6e-5 -6.372635,1.18474 -9.48495,4.29727 -2.371164,2.51922 -4.299583,5.92648 -4.299683,8.00172 1.15e-4,2.07467 7.794097,16.16849 21.280645,46.10604 16.302539,35.86565 12.340345,44.94415 11.747298,46.87065 -0.592508,1.48222 0.0473,17.22363 -2.027642,17.66814 -0.869871,5.8726 -38.357993,-67.56262 -50.555752,-113.07658 -2.911032,-10.86197 5.787448,-25.18278 8.025913,-24.29791 3.260894,-2.37139 0.156556,-6.39778 -0.287936,-42.85649 C 44.682732,85.267211 44.090987,75.040719 42.46039,72.076656 41.423146,69.853549 38.309123,67.335197 35.78947,66.446181 33.121716,65.556631 30.307684,64.814273 29.418584,64.962948 Z m 453.162826,0 c -0.88909,-0.148675 -3.70555,0.593683 -6.3733,1.483233 -2.51965,0.889016 -5.63125,3.407368 -6.6685,5.630475 -1.63061,2.964063 -2.22477,13.190555 -2.52126,40.608664 -0.44448,36.45871 -3.54641,40.4851 -0.28552,42.85649 2.23847,-0.88487 10.93454,13.43594 8.02351,24.29791 -12.19777,45.51396 -49.6859,118.94918 -50.55577,113.07658 -2.07497,-0.44451 -1.43513,-16.18592 -2.02764,-17.66814 -0.59305,-1.9265 -4.55524,-11.005 11.74732,-46.87065 13.48654,-29.93755 21.28052,-44.03137 21.28063,-46.10604 -10e-5,-2.07524 -1.92609,-5.4825 -4.29727,-8.00172 -3.1123,-3.11253 -5.78021,-4.29721 -9.48495,-4.29727 -2.8165,-1.1e-4 -16.74908,10.35487 -18.3795,11.83682 -14.19779,15.22989 -16.40472,22.96546 -19.85064,36.06217 -7.42083,28.20449 -20.67704,41.45467 -24.11404,44.97125 -1.13589,-0.0464 -5.45345,0.89614 -19.13201,5.75629 -5.33535,2.81614 -13.93124,8.59513 -18.9699,12.5966 -5.18729,4.14962 -12.59719,11.55955 -16.59867,16.59867 -4.14962,5.03883 -9.33431,12.89645 -11.85618,17.34149 -2.37144,4.59458 -5.92734,12.59666 -7.85413,17.93188 -3.40858,9.48536 -3.40949,10.37526 -3.85446,81.81011 l -0.44521,72.32273 h 42.83229 c 37.79258,8e-5 43.12693,-0.29645 43.8679,-2.37123 0.44473,-1.33412 0.8904,-17.33913 0.89041,-35.56858 -1.7e-4,-29.19603 0.29669,-34.23481 2.81646,-41.49664 1.62994,-4.44629 5.18627,-11.11548 7.8541,-14.67263 2.66751,-3.55682 28.0828,-58.69086 29.71307,-61.06178 1.48187,-2.22332 64.6168,-140.20184 65.65424,-143.46229 1.63038,-4.59427 2.07606,-18.37721 2.07605,-60.17135 1.6e-4,-52.316367 -0.14821,-54.539909 -2.96406,-57.652545 -1.63055,-1.77821 -4.30004,-3.854015 -5.93051,-4.594868 -1.62976,-0.592871 -3.70339,-1.185407 -4.59246,-1.185629 z m -352.5788,1.333223 c -3.26063,5.5e-5 -5.92757,1.186977 -8.44694,3.854459 l -3.55686,3.854482 -0.44521,60.171358 -0.44521,60.31896 11.561,25.78841 c 6.37327,14.22771 12.44949,26.08439 13.48701,26.52883 1.33368,0.44468 1.7782,-17.9327 1.77843,-84.92175 -2.3e-4,-72.027563 -0.29697,-85.959448 -2.22363,-89.516637 -1.18584,-2.371181 -3.25916,-4.5948 -4.44486,-5.187682 -1.33363,-0.444586 -4.59606,-0.890464 -7.26373,-0.89043 z m 251.99236,0 c -2.66767,-3.4e-5 -5.92769,0.445844 -7.26129,0.89043 -1.18572,0.592882 -3.26147,2.816501 -4.4473,5.187682 -1.92668,3.557189 -2.22341,17.489074 -2.22363,89.516637 2.2e-4,66.98905 0.44476,85.36643 1.77843,84.92175 1.03753,-0.44444 7.11373,-12.30112 13.48701,-26.52883 l 11.561,-25.78841 -0.44522,-60.31896 -0.4452,-60.171358 -3.55687,-3.854482 c -2.51936,-2.667482 -5.1863,-3.854404 -8.44693,-3.854459 z M 183.77405,141.22001 c -1.4822,-2.4e-4 -4.00257,0.59046 -5.63292,1.1832 -1.63017,0.74114 -4.29783,2.81648 -5.92807,4.59489 -2.81574,3.11241 -2.9623,5.63319 -3.40684,52.76244 l -0.44521,57.66947 c 14.95722,7.73395 30.84402,28.46386 29.338,27.95881 l 0.45005,-84.29506 c 1.1e-4,-34.08744 -0.44443,-49.20462 -1.77843,-51.87203 -1.03745,-2.22339 -3.55744,-4.89006 -5.78048,-6.07569 -2.37137,-1.18543 -5.33427,-2.07425 -6.8161,-1.92603 z m 144.44949,0 c -1.48184,-0.14822 -4.44475,0.7406 -6.81611,1.92603 -2.22304,1.18563 -4.74302,3.8523 -5.78049,6.07569 -1.33399,2.66741 -1.77854,17.78459 -1.77844,51.87203 l 0.45249,84.29506 c -1.50602,0.50505 14.38078,-20.22486 29.338,-27.95881 l -0.44521,-57.66947 c -0.44454,-47.12925 -0.59352,-49.65003 -3.40925,-52.76244 -1.63026,-1.77841 -4.29792,-3.85375 -5.92809,-4.59489 -1.63035,-0.59274 -4.1507,-1.18344 -5.6329,-1.1832 z" />
  </g>
</svg>
