<?xml version="1.0" encoding="UTF-8" standalone="no"?>
<!-- Created with Inkscape (http://www.inkscape.org/) -->

<svg
   width="512"
   height="512"
   viewBox="0 0 512 512"
   version="1.1"
   id="svg1"
   xml:space="preserve"
   inkscape:version="1.3.2 (091e20e, 2023-11-25, custom)"
   sodipodi:docname="KWD_KIT_MagicReduceArmor.svg"
   xmlns:inkscape="http://www.inkscape.org/namespaces/inkscape"
   xmlns:sodipodi="http://sodipodi.sourceforge.net/DTD/sodipodi-0.dtd"
   xmlns="http://www.w3.org/2000/svg"
   xmlns:svg="http://www.w3.org/2000/svg"><sodipodi:namedview
     id="namedview1"
     pagecolor="#ffffff"
     bordercolor="#000000"
     borderopacity="0.25"
     inkscape:showpageshadow="2"
     inkscape:pageopacity="0.0"
     inkscape:pagecheckerboard="0"
     inkscape:deskcolor="#d1d1d1"
     inkscape:document-units="px"
     inkscape:zoom="1"
     inkscape:cx="223"
     inkscape:cy="246.5"
     inkscape:window-width="1920"
     inkscape:window-height="1017"
     inkscape:window-x="1042"
     inkscape:window-y="276"
     inkscape:window-maximized="1"
     inkscape:current-layer="layer1" /><defs
     id="defs1" /><g
     inkscape:label="Layer 1"
     inkscape:groupmode="layer"
     id="layer1"><path
       id="path2"
       style="fill:#d2902d;stroke-width:4.68007"
       d="M 256.03711,0 C 181.46809,51.3247 104.3245,79.872453 24.607422,85.644531 23.203402,179.86982 42.234587,264.26889 81.703125,338.83789 121.79567,412.6269 179.90808,470.34743 256.03711,512 337.00222,470.34743 395.73574,411.92349 432.24023,336.73047 469.05674,261.69344 487.46484,178.46607 487.46484,87.048828 399.47965,78.780715 322.33801,49.764678 256.03711,0 Z m 0,57.798828 c 51.3247,38.376522 111.07316,60.840482 179.24609,67.392582 0,70.66896 -14.27387,135.09831 -42.82226,193.28711 C 364.22456,376.66731 318.74997,421.90873 256.03711,454.20117 197.06831,421.90873 151.98168,377.21396 120.78125,320.11719 90.360836,262.2404 75.697048,196.87447 76.789062,124.02148 138.5659,119.65343 198.31633,97.579366 256.03711,57.798828 Z m 0,41.417969 c -16.40708,11.255363 -33.02286,20.650363 -49.83203,28.328123 -3.93838,15.66798 7.38782,26.80142 15.45508,41.66602 6.92962,12.76841 9.16164,49.95522 18.78906,62.50781 9.95681,0.0385 20.29657,-0.34314 30.78906,-1.03516 23.00829,-30.25308 41.18547,-70.63832 46.68164,-97.02929 -22.09932,-8.6894 -42.76403,-20.09842 -61.88281,-34.437503 z m -81.16602,40.412113 c -19.94452,6.39785 -40.14659,10.4999 -60.64062,12.00586 -0.56428,34.70332 3.54957,67.24026 12.16992,97.6914 40.64407,-0.0123 53.88606,3.92658 81.37109,-6.95117 l -4.36914,-30.37891 c -0.72542,-31.50331 -8.20935,-51.64525 -28.53125,-72.36718 z m 163.37891,1.1582 c -23.5647,81.69218 -25.01453,45.12151 -33.48047,86.96289 20.072,-3.20519 70.62305,-11.48013 88.37891,-15.0918 3.11931,-19.42095 4.69336,-39.52459 4.69336,-60.32226 -20.87667,-1.9308 -40.72234,-5.81409 -59.5918,-11.54883 z m 17.08789,100.69531 c -32.12609,-0.10231 -56.34611,5.95131 -80.17969,12.20703 0.007,0.007 0.0135,0.0223 0.0195,0.0293 -1.08488,12.27166 -5.33452,25.91081 -11.17382,42.62109 l 48.3457,34.10743 30.40625,10.01757 c 8.04097,-10.95038 15.11641,-22.63002 21.15625,-35.08984 9.97985,-20.30383 17.62646,-41.63735 23.20312,-63.88477 -11.44915,-1.33843 -22.00356,0.0233 -31.77734,-0.008 z m -110.75195,16.90235 -62.26758,7.07617 -34.82227,7.42773 -11.53711,4.55274 c 3.95868,10.00999 8.32644,19.83065 13.3711,29.33789 11.77986,21.68394 26.15012,41.07004 43.05469,58.20703 24.73052,-14.52765 56.39993,-41.88748 52.20117,-106.60156 z m 9.93164,64.09961 C 244.67018,345.74309 223.61984,364.9701 207,378.6582 c 14.70849,12.74953 31.02598,24.07185 49.03711,33.89063 24.37443,-12.49381 45.43502,-27.48808 63.21875,-44.95313 l -15.30469,-18.94726 z"
       sodipodi:nodetypes="ccccccccccccccccscccccccccccccccccccccccscccccccccccccc" /></g></svg>
