<?xml version="1.0" encoding="UTF-8" standalone="no"?>
<svg
   height="512"
   viewBox="0 0 512 512"
   width="512"
   version="1.1"
   id="svg2"
   sodipodi:docname="KWD_KIT_MagicRuneFrost.svg"
   inkscape:version="1.3.2 (091e20e, 2023-11-25, custom)"
   xmlns:inkscape="http://www.inkscape.org/namespaces/inkscape"
   xmlns:sodipodi="http://sodipodi.sourceforge.net/DTD/sodipodi-0.dtd"
   xmlns="http://www.w3.org/2000/svg"
   xmlns:svg="http://www.w3.org/2000/svg">
  <defs
     id="defs2" />
  <sodipodi:namedview
     id="namedview2"
     pagecolor="#ffffff"
     bordercolor="#000000"
     borderopacity="0.25"
     inkscape:showpageshadow="2"
     inkscape:pageopacity="0.0"
     inkscape:pagecheckerboard="0"
     inkscape:deskcolor="#d1d1d1"
     inkscape:zoom="1.5742188"
     inkscape:cx="250.28288"
     inkscape:cy="251.23573"
     inkscape:window-width="1920"
     inkscape:window-height="1017"
     inkscape:window-x="1042"
     inkscape:window-y="276"
     inkscape:window-maximized="1"
     inkscape:current-layer="svg2" />
  <g
     fill="#5b2fc2"
     id="g2"
     style="fill:#a3e5f5;fill-opacity:1">
    <path
       d="m283.21117 147.64962c-11.94424-.28696-24.74864.80253-30.39286.77393-12.93874-.264-25.82465.1852-38.63005 1.95053l5.02442 3.25001c2.76368 1.78699 6.71493 4.01177 8.78016 4.94429 2.38647 1.07764 4.7348 3.72583 6.44408 7.26612 3.1301 6.48302 5.50428 8.80483 13.00469 12.72027 3.00807 1.57031 6.06254 3.95143 6.78576 5.29205 2.87816 5.33492 10.36019 16.34007 14.19128 20.87535 4.67783 5.53761 6.36891 11.20616 4.13978 13.85763-9.84644 5.44014-28.78251-5.24966-39.08561-7.56417-12.47232-2.52274-19.95359-3.40607-32.78986-3.87492-8.1184-.29652-14.7336-.0862-14.70511.4654.0963 1.86356 47.28077 36.83921 50.21245 44.45164 13.8759 14.21434 24.88115 30.40452 36.09797 46.55382 2.93647 4.19551 5.33961 8.85469 5.33961 10.35402 0 1.49932 1.13152 5.03569 2.51353 7.85962 10.417 27.05374 14.38613 50.31618-1.26338 74.82079l2.97174-2.21199c10.0316-9.00263 14.43874-29.59446 14.98321-41.75855.17143-7.94009-.11173-14.43548-.62771-14.43548-13.37956-33.34897-31.64915-63.41878-50.07207-93.62533-5.09304-8.27579-5.4994-11.17327-1.77458-12.5843 6.89-2.61004 33.48523 18.38452 36.61976 21.30678l6.701 6.24638c.90972-27.69334-3.49705-56.5805-22.84961-77.9296-9.00483-6.32883-9.22858-13.31118-.42644-13.31118 44.95966 1.76821 53.45791 24.08546 53.42524 28.80298-.0259 3.7376.89294 4.14153 1.41964 3.77294 2.22229-2.19379-.78684-18.87484-5.0403-27.94276-1.99566-4.25449-4.59138-10.02974-5.77133-12.83791-2.19667-5.53753-13.28119-7.2014-25.22541-7.48836z"
       stroke-width=".700742"
       id="path1"
       style="fill:#a3e5f5;fill-opacity:1" />
    <path
       d="m256 0a255.99917 256.00002 0 0 0 -255.99999 256 255.99917 256.00002 0 0 0 255.99999 255.99998 255.99917 256.00002 0 0 0 255.99997-255.99998 255.99917 256.00002 0 0 0 -255.99997-256zm0 7.757813a248.24163 248.24246 0 0 1 248.24238 248.242187 248.24163 248.24246 0 0 1 -248.24238 248.2422 248.24163 248.24246 0 0 1 -248.242355-248.2422 248.24163 248.24246 0 0 1 248.242355-248.242187zm-15.41635 4.691406c-14.89711 0-14.89798.000006-14.89798 24.394531 0 14.147894.8364 24.902615 1.98838 25.605468 1.11663.681275 1.9864-.876254 1.9864-3.5625 0-6.828964 5.53567-18.98242 8.64597-18.98242 1.44851 0 5.94026 3.528004 9.98343 7.841794 4.04304 4.313794 8.24428 7.843752 9.33647 7.843752 1.09221 0 5.42627-3.571869 9.63125-7.935546 7.6454-7.933976 7.64745-7.933886 9.73415 1.470702 5.49973 20.094811 3.63791 41.40489-5.95326 60.28906-2.52768 2.85115-1.96624 4.99383 1.01298 3.86524.33804-.12805 15.85387-6.32283 16.78744-64.552738.58133-36.277419.57919-36.277343-12.32398-36.277343-12.90329 0-12.90175.0023-9.81526 5.394531 2.87106 5.015859.0509 5.513997-1.58279 17.15625-2.53713 18.081776-11.3939 13.854238-14.10263 4.554688-3.86395-13.26526-7.27294-20.638294-.4966-23.181641 2.73113-1.02506 4.96402-2.328627 4.96402-2.894532 0-.565907-6.70454-1.029296-14.89799-1.029296zm-109.83949 56.240233c-16.51249-.06765-34.64601.806929-35.68394 2.464845-.86934 1.388542.20909 4.512802 2.39595 6.943359 5.92804 6.588734 12.46445 23.646434 12.46445 32.525394 0 6.43448.82202 7.47825 4.6435 5.89257 2.55407-1.05981 7.50501-2.53589 11.00235-3.27929 6.17585-1.31268 6.31726-.98182 4.87103 11.4707-1.71472 14.76448 2.46067 36.90449 8.22654 43.61719 5.32086 6.19455 5.87776 4.9366 3.13193-7.08203-3.99167-17.47148 1.85117-48.99945 14.53989-78.45117 3.35348-7.783736 3.63473-10.666824 1.18708-12.160161-2.07391-1.265302-13.93572-1.888777-26.77878-1.941407zm-6.44985 7.279298c14.64244 0 14.81686.08924 14.81686 7.73828 0 4.79972-2.56571 10.27306-6.75455 14.408203-3.71506 3.667407-7.24209 6.667967-7.83677 6.667967-.59503 0-3.76382-5.599707-7.04142-12.44336-3.27757-6.84365-6.41944-13.325671-6.98009-14.406245-.56094-1.080526 5.64724-1.964845 13.79597-1.964845zm291.19327 1.810545c-4.12305-.0045-9.66002.07094-16.95564.181644-30.48868.462584-30.48872.462652-30.89598 14.974611-.42399 15.14091 2.1239 19.46782 4.5149 7.66601 2.14436-10.58404 7.144-14.65429 18.00617-14.65429 5.20445 0 9.46311.54865 9.46311 1.21875 0 .67011-2.35242 4.29842-5.22716 8.0625-12.7036 16.6337-23.22363 45.10106-22.91283 62 .17205 9.34089.17144 9.34063 3.40695-.334 1.77966-5.32105 5.69386-15.62818 8.69745-22.90625 5.46085-13.23284 5.46002-13.23312 15.64781-14.04687 17.41463-1.39107 21.74933.037 24.71917 8.14453 2.92278 7.97916 5.37207 6.58437 4.93829-2.81251-1.01454-21.97424.69808-19.70753-15.42625-20.41601-14.46811-.63572-14.46856-.63508-4.90069-10.38672 5.26235-5.36339 12.01818-11.37557 15.01274-13.36133 3.90833-2.591617 4.28099-3.316878-8.08804-3.330076zm-155.43564 42.220705a147.23722 142.39507 0 0 0 -147.2368 142.39453 147.23722 142.39507 0 0 0 147.2368 142.39647 147.23722 142.39507 0 0 0 147.23679-142.39647 147.23722 142.39507 0 0 0 -147.23679-142.39453zm0 6.73047a140.27906 135.66575 0 0 1 140.27845 135.66406 140.27906 135.66575 0 0 1 -140.27845 135.66603 140.27906 135.66575 0 0 1 -140.27847-135.66603 140.27906 135.66575 0 0 1 140.27847-135.66406zm-203.402 78.17383c-31.88087 0-31.88096-.00028-32.57178 49.72461-.70379 50.61185 2.57191 67.86166 5.22122 27.49414 1.36138-20.74327 6.22689-41.85802 12.72363-55.21876 2.27448-4.67726 1.89239-6.34905-2.14072-9.36132-4.42592-3.30548-2.77886-3.67654 16.6984-3.74805 20.53076-.0761 21.31774.12098 15.77841 3.95117-5.26414 3.63987-5.45587 4.44103-1.9587 8.25586 6.14712 6.70532 11.4558 31.20844 11.9362 55.09766.24302 12.09713.94188 22.84424 1.55509 23.88281 4.72365 8.00568 5.95012-3.28756 5.33003-49.0957-.6904-50.98375-.69178-50.98242-32.57178-50.98242zm385.74104.01c-4.37723.068-9.58122.45736-13.08764 1.02344-8.50072 1.37234-8.50008 1.37304-.65488 10.21875 8.45208 9.5299 15.76653 29.87101 15.76653 43.84375 0 8.5279-.18633 8.66406-11.9006 8.66406-11.90113 0-11.90256.00002-11.90256 12.06836 0 10.43138.53771 11.62768 3.96687 8.81836 2.182-1.7876 3.96688-4.86956 3.96688-6.84766 0-2.28921 3.01198-3.5957 8.2839-3.5957 8.07991 0 8.24394.23959 6.74861 9.79102-.84295 5.38479-2.32751 12.43319-3.3001 15.66406-1.6761 5.56593-1.04318 5.875 12.07072 5.875 13.11386 0 13.74852-.30901 12.07268-5.875-.97266-3.23087-2.46051-10.27927-3.30206-15.66406-1.48426-9.48001-1.27907-9.79102 6.42811-9.79102 5.22678 0 9.42413 2.01758 12.22699 5.875 4.18817 5.76404 4.25639 5.6769 3.62854-4.57031-.63628-10.39113-.70065-10.44914-12.97289-11.74805-12.33369-1.30538-12.33388-1.30579-5.88994-20.75976 3.5441-10.69969 9.441-24.50312 13.10548-30.67578 6.66243-11.22308 6.66236-11.22446-7.99507-11.55079-8.06154-.17948-18.52365-.50252-23.25112-.71874-1.18193-.0541-2.54937-.0676-4.00845-.0449zm25.04961 8.64453c1.07724-.10764-.39084 4.44729-3.69581 11.16797-3.7632 7.6525-7.76436 16.84957-8.8913 20.43946-1.68446 5.36904-2.09352 5.60189-2.30295 1.30664-.13908-2.8719-3.0246-11.09567-6.4123-18.2754-6.1592-13.054-6.16026-13.05527 5.37755-12.13476 6.38989.50981 13.21969-.45527 15.30553-2.16406.25966-.2129.46538-.32447.61928-.33986zm-67.49995 132.89844c-23.5145 0-23.51428-.00069-23.51428 15.01953 0 15.33301 2.18067 18.20282 8.29972 10.92383 1.89422-2.25298 5.15928-4.0957 7.25511-4.0957 3.07767 0 3.81055 8.40215 3.81055 43.69532 0 43.57561 3.61954 58.63725 6.72684 27.9922.87595-8.63652 3.02559-24.9202 4.77808-36.18554 1.75272-11.26507 3.17284-23.86174 3.15368-27.99222-.0189-4.13064 1.00161-7.50976 2.26537-7.50976 2.55009 0 10.73919-14.47359 10.73919-18.98047 0-1.77663-8.9407-2.86719-23.51426-2.86719zm-285.97995 14.26563c-13.66407.017-25.79321.12555-25.91024.31249-.41613.66469 8.69022 8.37581 11.08545 9.38672 2.32392.98078 3.76308 2.5332 4.29331 4.63086.22625.89513 1.7277 2.90413 3.33573 4.46288 2.31874 2.24769 3.2154 3.72847 4.3309 7.16016.77356 2.37978 1.88144 4.87234 2.46321 5.53905.58177.66667 1.23136 2.1673 1.44232 3.334.21089 1.16678.67091 3.34757 1.02287 4.84766 1.61899 6.89975 1.95957 12.12253 2.1981 33.63866.14044 12.66739.38267 23.59541.53814 24.2832.27455 1.21501.64005 1.25069 12.83641 1.21289 6.90432-.0189 12.48445-.10507 12.40114-.18746-.0833-.0824-3.00919-1.52806-6.50328-3.21487-7.49765-3.61946-10.67217-5.95718-12.25473-9.0195-1.09228-2.11381-1.15095-3.82545-1.01496-29.78124l.14445-27.53715-1.74106-2.23045c-.95773-1.226-2.05329-3.1347-2.43354-4.24218-.85339-2.48538-2.58876-5.06532-5.06294-7.52538-2.42686-2.41314-4.79369-6.27454-4.42587-7.22071.36805-.94686 5.72681-1.51322 13.97799-1.47656 6.52555.0287 6.5264.0299 8.97836 2.10157 5.0829 4.29502 5.84477 13.23966 1.52937 17.95507-1.19133 1.30179-2.04363 2.48652-1.89539 2.63278.64545.63719 7.10221-4.65928 8.49759-6.97069.8442-1.39843 2.30567-3.44962 3.24669-4.55664 1.631-1.91866 2.8571-5.19626 4.18648-11.19529 1.41734-6.39593 1.4255-6.0585-.14839-6.10352-6.25476-.17892-21.45403-.25349-35.11808-.23633zm117.24495 42.5918c-4.10567.0499-3.11589.99697 5.47051 5.23242 5.76633 2.84455 11.72697 7.09841 13.24595 9.45313 2.76184 4.28148 2.76257 4.28126-15.78435 4.28126-10.20078 0-18.54829.4749-18.54829 1.05467 0 .57982 2.65973 5.77289 5.90974 11.53909 9.13551 16.20949 15.14426 50.20116 8.8735 50.20116-1.41108 0-3.72555-2.1414-5.14406-4.75782-2.6213-4.83526-5.78311-6.36204-5.78311-2.79296 0 3.90029 6.05491 16.15586 10.06455 20.36912 2.25456 2.3686 5.93244 4.30863 8.17509 4.30863 4.28672 0 20.30914-13.04187 20.30914-16.53128 0-1.11734 1.32021-3.11554 2.93608-4.43943 5.68533-4.65785 1.13225-4.04814-6.12539.82031-4.03909 2.70954-9.28907 4.92771-11.66712 4.92771-3.85767 0-4.12046-.53371-2.42365-4.93943 1.04602-2.71589 2.32334-12.02128 2.83913-20.67968.81616-13.7079.44063-16.36623-2.91233-20.57424-4.80803-6.03768-4.81891-6.98117-.0653-5.75392 2.11701.54641 7.76099-1.2209 12.82255-4.01366 9.04207-4.98883 9.04222-4.9877 16.95363-1.20703 14.45777 6.9092 19.14755 24.18878 12.04698 44.39062-4.22988 12.03447-8.03639 17.50999-15.41437 22.17578-6.09759 3.85266-6.09772 3.853 1.61247 3.81445 6.81629-.0378 8.40649-.97524 13.70694-8.09764 3.2976-4.43108 8.80803-13.3934 12.24681-19.91603 3.4387-6.52271 7.02945-12.33362 7.97923-12.91404.95509-.58273 1.72722 4.94925 1.72722 12.37889 0 7.68616.82597 13.43362 1.92901 13.43362 1.06016 0 1.92705-.29141 1.92705-.64846 0-.35565 1.66139-7.05913 3.69185-14.89648 2.97625-11.48783 3.31457-15.99197 1.74898-23.23827-2.39736-11.09643-6.35927-10.62335-10.06059 1.20117-1.63729 5.23079-6.64437 3.90898-10.82231-2.85547-3.77871-6.118-5.18228-14.76571-2.38803-14.72073 6.1929.11112 10.11995 2.77115 10.11995 6.8555 0 5.83638 2.58816 5.77504 6.52504-.1561 3.27761-4.93833 4.31149-18.1426 1.42055-18.1426-.93068 0-4.80639 1.28364-8.61234 2.85354-4.07267 1.67985-12.89406 2.85351-21.43885 2.85351-12.52653 0-14.52329-.45698-14.55967-3.33011-.0786-6.36007-21.07304-17.67927-32.53221-17.53904z"
       stroke-width="8.17829"
       id="path2"
       style="fill:#a3e5f5;fill-opacity:1" />
  </g>
</svg>
