<?xml version="1.0" encoding="UTF-8" standalone="no"?>
<!-- Created with Inkscape (http://www.inkscape.org/) -->

<svg
   width="512"
   height="512"
   viewBox="0 0 512 512"
   version="1.1"
   id="svg1"
   inkscape:version="1.3.2 (091e20e, 2023-11-25, custom)"
   sodipodi:docname="KWD_KIT_MagicAbsorbMagicka.svg"
   xml:space="preserve"
   xmlns:inkscape="http://www.inkscape.org/namespaces/inkscape"
   xmlns:sodipodi="http://sodipodi.sourceforge.net/DTD/sodipodi-0.dtd"
   xmlns="http://www.w3.org/2000/svg"
   xmlns:svg="http://www.w3.org/2000/svg"><sodipodi:namedview
     id="namedview1"
     pagecolor="#ffffff"
     bordercolor="#000000"
     borderopacity="0.25"
     inkscape:showpageshadow="2"
     inkscape:pageopacity="0.0"
     inkscape:pagecheckerboard="0"
     inkscape:deskcolor="#d1d1d1"
     inkscape:document-units="px"
     inkscape:zoom="0.70710678"
     inkscape:cx="42.426407"
     inkscape:cy="174.65537"
     inkscape:window-width="1920"
     inkscape:window-height="1017"
     inkscape:window-x="1042"
     inkscape:window-y="276"
     inkscape:window-maximized="1"
     inkscape:current-layer="svg1" /><defs
     id="defs1" /><path
     id="path1"
     style="fill:#3366cc;fill-rule:evenodd;stroke-width:1.80093;fill-opacity:1"
     d="M 242.17079,1.765761e-6 C 239.54222,15.618705 238.58732,19.896666 247.33597,28.859284 c 5.257,10.720389 2.64934,16.423319 0.061,27.37305 7.81958,17.139163 21.40451,31.015813 2.70746,53.555336 -2.87511,1.15073 -5.58049,1.88095 -7.99446,2.00393 -11.23305,0.57227 -19.84456,-27.290819 -19.84456,-27.290819 -13.22191,20.347319 -11.55874,42.111859 6.09103,65.399319 l 5.38446,165.34949 37.81307,3.1186 -5.83214,-168.74219 c 7.41307,-25.33176 16.62769,-51.654315 32.70575,-73.418149 -0.085,-0.182095 -0.39609,-0.112581 -0.8223,0.08529 -18.71826,2.248405 -25.02326,-5.389851 -26.19748,-30.491668 3.20127,-10.329815 16.25089,-20.861466 3.22823,-30.860179 -19.70421,1.4047 -26.6813,-7.0657407 -32.46518,-14.941276641218 z M 175.41316,23.322531 c -1.54957,34.087543 -20.68031,45.061662 -31.35657,60.520411 -9.72379,14.079595 -4.3385,34.125868 24.76303,43.703108 l 3.82518,34.70055 9.37102,166.15657 33.62856,-11.02781 -10.47353,-158.98741 C 154.07237,135.16258 223.22983,87.928657 175.41316,23.322531 Z m 156.4916,9.319278 c -3.19468,12.479188 14.33268,47.758055 5.67378,57.091164 -43.47848,46.863777 -61.02829,112.044887 -38.32776,242.373537 l 27.67761,31.57586 -0.58474,-75.79012 c 41.45865,-28.19371 88.89519,-41.587 51.12805,-99.71616 -4.6487,55.03174 -48.49712,61.04209 -56.61302,4.73578 8.78439,-45.23781 28.78104,-87.29522 38.47395,-112.108334 4.80814,-12.308414 -2.32065,-22.842419 -8.31728,-28.889736 z M 107.89113,78.495036 c -0.10806,-3.9e-4 -0.23767,0.04756 -0.39289,0.143144 -61.86234,38.07817 5.01178,58.93441 7.41888,98.89691 l 6.65443,245.37947 c 10.23941,65.03407 52.48205,92.68457 104.54634,88.71269 155.32717,-11.84957 89.99641,-241.21233 -34.39856,-156.7068 0.008,0.003 0.0166,0.003 0.0244,0.006 -16.25919,11.17427 -26.1105,30.5564 -26.11831,51.38692 -4.5e-4,33.64446 23.16857,60.91909 54.28574,60.91938 31.11837,10e-4 56.34546,-27.27363 56.34501,-60.91938 -0.006,-16.54497 -6.23699,-32.37542 -17.2589,-43.85233 12.38217,3.54246 23.78145,10.83788 28.28671,28.00654 C 320.84324,518.35549 95.189183,518.14448 163.56915,355.79755 149.57621,275.95498 172.94949,153.86841 130.2695,140.88556 93.143596,123.44388 111.23946,78.507135 107.89107,78.495207 Z M 430.67884,259.24617 c -46.84601,34.64577 -71.36979,47.05104 -73.57044,105.82799 -1.96654,58.79979 -21.52717,105.11161 -58.68091,138.93626 67.23725,-9.10049 100.29473,-61.89061 99.17099,-158.36967 -0.39799,-48.80974 10.6289,-54.73668 33.08036,-86.39458 z"
     sodipodi:nodetypes="ccccscccccccccsccscccccccscccccsccccccsccccccsccccccccc" /></svg>
