<?xml version="1.0" encoding="UTF-8" standalone="no"?>
<!-- Created with Inkscape (http://www.inkscape.org/) -->

<svg
   width="512"
   height="512"
   viewBox="0 0 512 512"
   version="1.1"
   id="svg1"
   inkscape:version="1.3.2 (091e20e, 2023-11-25, custom)"
   sodipodi:docname="KWD_KIT_SpellSlowTimeType_Normal_A.svg"
   xmlns:inkscape="http://www.inkscape.org/namespaces/inkscape"
   xmlns:sodipodi="http://sodipodi.sourceforge.net/DTD/sodipodi-0.dtd"
   xmlns="http://www.w3.org/2000/svg"
   xmlns:svg="http://www.w3.org/2000/svg">
  <sodipodi:namedview
     id="namedview1"
     pagecolor="#ffffff"
     bordercolor="#000000"
     borderopacity="0.25"
     inkscape:showpageshadow="2"
     inkscape:pageopacity="0.0"
     inkscape:pagecheckerboard="0"
     inkscape:deskcolor="#d1d1d1"
     inkscape:document-units="px"
     inkscape:zoom="0.5565704"
     inkscape:cx="77.25887"
     inkscape:cy="171.58656"
     inkscape:window-width="1920"
     inkscape:window-height="1009"
     inkscape:window-x="1042"
     inkscape:window-y="235"
     inkscape:window-maximized="1"
     inkscape:current-layer="layer1" />
  <defs
     id="defs1" />
  <g
     inkscape:label="Layer 1"
     inkscape:groupmode="layer"
     id="layer1">
    <path
       d="m 115.8636,33.239297 c -14.70889,0 -26.553448,11.844556 -26.553448,26.553447 0,13.678555 10.250656,24.861306 23.514688,26.363099 l 1.8015,3.106739 c 8.75504,15.159508 17.52848,37.276528 26.27473,52.440678 13.2965,44.73434 26.96663,85.76889 65.37749,114.28994 -38.41191,28.52739 -52.09601,69.58325 -65.38429,114.33073 -9.41794,16.28579 -18.82074,37.99559 -28.24618,55.54743 -13.177239,1.58164 -23.337938,12.71882 -23.337938,26.33591 0,14.70888 11.844558,26.55343 26.553448,26.55343 h 280.27279 c 14.70892,0 26.55346,-11.84455 26.55346,-26.55343 0,-13.61709 -10.16072,-24.75427 -23.33794,-26.33591 -9.42544,-17.55184 -18.82823,-39.26163 -28.24621,-55.54743 -13.28826,-44.74748 -26.97235,-85.80334 -65.38427,-114.33073 38.41085,-28.52105 52.081,-69.5556 65.3775,-114.28994 8.74624,-15.16415 17.51968,-37.28117 26.27473,-52.440678 l 1.80147,-3.106739 c 13.26405,-1.501793 23.51471,-12.684544 23.51471,-26.363099 0,-14.708891 -11.84453,-26.553447 -26.55345,-26.553447 z m 102.95069,53.100094 h 74.37141 c 10.47045,18.017759 20.92142,36.049119 31.4073,54.058629 -5.08999,38.38176 -33.50614,68.83592 -62.96416,93.22938 v 43.48756 c 6.46211,10.305 54.07133,39.05547 63.12732,94.2083 -10.54035,18.10278 -21.04629,36.22593 -31.57046,54.33736 h -74.37141 c -10.52418,-18.11143 -21.03011,-36.23458 -31.57045,-54.33736 9.05597,-55.15283 56.6652,-83.9033 63.1273,-94.2083 V 233.6274 c -29.45801,-24.39346 -57.87416,-54.84762 -62.96416,-93.22938 10.48589,-18.00951 20.93685,-36.04087 31.40731,-54.058629 z"
       fill="#800000"
       fill-rule="evenodd"
       stroke-width="2.96053"
       id="path1"
       style="fill:#a3c5f5;fill-opacity:1" />
  </g>
</svg>
