<?xml version="1.0" encoding="UTF-8" standalone="no"?>
<!-- Created with Inkscape (http://www.inkscape.org/) -->

<svg
   width="512"
   height="512"
   viewBox="0 0 135.46666 135.46667"
   version="1.1"
   id="svg1"
   inkscape:version="1.3.2 (091e20e, 2023-11-25, custom)"
   sodipodi:docname="KWD_KIT_MagicRuneSun.svg"
   xml:space="preserve"
   xmlns:inkscape="http://www.inkscape.org/namespaces/inkscape"
   xmlns:sodipodi="http://sodipodi.sourceforge.net/DTD/sodipodi-0.dtd"
   xmlns="http://www.w3.org/2000/svg"
   xmlns:svg="http://www.w3.org/2000/svg"><sodipodi:namedview
     id="namedview1"
     pagecolor="#ffffff"
     bordercolor="#000000"
     borderopacity="0.25"
     inkscape:showpageshadow="2"
     inkscape:pageopacity="0.0"
     inkscape:pagecheckerboard="0"
     inkscape:deskcolor="#d1d1d1"
     inkscape:document-units="px"
     showgrid="false"
     inkscape:zoom="1"
     inkscape:cx="228"
     inkscape:cy="226.5"
     inkscape:window-width="1920"
     inkscape:window-height="1017"
     inkscape:window-x="1042"
     inkscape:window-y="276"
     inkscape:window-maximized="1"
     inkscape:current-layer="svg1"><inkscape:grid
       id="grid1"
       units="px"
       originx="0"
       originy="0"
       spacingx="0.26458332"
       spacingy="0.26458334"
       empcolor="#0099e5"
       empopacity="0.30196078"
       color="#0099e5"
       opacity="0.14901961"
       empspacing="5"
       dotted="false"
       gridanglex="30"
       gridanglez="30"
       visible="false" /></sodipodi:namedview><defs
     id="defs1" /><path
     id="path1"
     style="fill:#ecb279;fill-opacity:1;stroke-width:0.311439"
     d="M 67.733332,0 C 30.325283,-1.2037112e-4 2.9157955e-6,30.325159 -9.4999981e-7,67.733332 5.1249318e-6,105.1415 30.325285,135.46678 67.733332,135.46666 105.14138,135.46678 135.46665,105.1415 135.46666,67.733332 135.46666,30.325161 105.14138,-1.1763729e-4 67.733332,0 Z m 0,2.0525879 C 104.00777,2.052478 133.41409,31.458769 133.41413,67.733332 133.41409,104.0079 104.00778,133.41419 67.733332,133.41408 31.45889,133.41419 2.0525782,104.00789 2.0525401,67.733332 2.0525804,31.458772 31.458892,2.0524814 67.733332,2.0525879 Z m -4.078908,1.2412679 c -3.941529,0 -3.941758,1.7e-6 -3.941758,6.4543863 0,3.7432969 0.221297,6.5888169 0.526091,6.7747799 0.295442,0.180254 0.525567,-0.231842 0.525567,-0.942578 0,-1.80683 1.464646,-5.022432 2.287581,-5.022432 0.383252,0 1.571694,0.933451 2.64145,2.074808 1.069722,1.141358 2.181299,2.075326 2.470273,2.075326 0.288983,0 1.435702,-0.945057 2.54827,-2.099613 2.022846,-2.099198 2.023386,-2.099174 2.575493,0.389123 1.455139,5.316752 0.962531,10.955044 -1.575134,15.951481 -0.668781,0.754365 -0.520234,1.321284 0.268019,1.022677 0.08945,-0.03388 4.194671,-1.672916 4.441676,-17.079578 0.153811,-9.5984003 0.153246,-9.5983802 -3.260718,-9.5983802 -3.413996,0 -3.413591,6.024e-4 -2.596955,1.427303 0.759636,1.3271127 0.01347,1.4589118 -0.418779,4.5392578 -0.671283,4.7841364 -3.014636,3.6656004 -3.731322,1.2050944 -1.022338,-3.5097667 -1.924299,-5.4605484 -0.131391,-6.1334757 0.722611,-0.2712138 1.313395,-0.6161159 1.313395,-0.7658448 0,-0.1497298 -1.773908,-0.2723347 -3.941758,-0.2723347 z m -29.0617,14.8802282 c -4.368932,-0.0179 -9.166758,0.2135 -9.441375,0.652157 -0.230015,0.367385 0.05531,1.194012 0.633927,1.837097 1.568459,1.743268 3.297885,6.256453 3.297885,8.605676 0,1.702457 0.217494,1.978622 1.228594,1.559078 0.675763,-0.280409 1.9857,-0.670955 2.911038,-0.867647 1.634027,-0.347313 1.671442,-0.259774 1.288793,3.034957 -0.453685,3.906435 0.651054,9.764311 2.176604,11.54038 1.407812,1.638976 1.555158,1.306143 0.828659,-1.873787 -1.056132,-4.622663 0.489787,-12.964437 3.84701,-20.756872 0.887277,-2.059446 0.961689,-2.822263 0.314084,-3.217375 -0.548722,-0.334778 -3.687161,-0.499739 -7.085219,-0.513664 z m -1.706525,1.925981 c 3.874147,0 3.920296,0.02361 3.920296,2.04742 0,1.269927 -0.678844,2.718081 -1.78714,3.81217 -0.982946,0.970336 -1.916139,1.764234 -2.07348,1.764234 -0.157437,0 -0.995845,-1.48159 -1.863043,-3.292306 -0.867191,-1.810717 -1.698475,-3.525751 -1.846816,-3.811653 -0.148416,-0.285889 1.494168,-0.519865 3.650183,-0.519865 z m 77.044891,0.47904 c -1.09089,-0.0012 -2.55588,0.01877 -4.48618,0.04806 -8.066797,0.122392 -8.066808,0.12241 -8.174563,3.962032 -0.112179,4.006032 0.561949,5.150862 1.194567,2.0283 0.567361,-2.800363 1.890186,-3.877282 4.764136,-3.877282 1.377,0 2.50377,0.145164 2.50377,0.322461 0,0.1773 -0.6224,1.137291 -1.38301,2.133203 -3.36116,4.400999 -6.144588,11.932988 -6.062354,16.404166 0.04552,2.471443 0.04536,2.471376 0.901422,-0.08837 0.470869,-1.407862 1.506502,-4.134956 2.301192,-6.060612 1.44485,-3.501188 1.44464,-3.501263 4.14016,-3.716569 4.60762,-0.368054 5.75451,0.0098 6.54028,2.154907 0.77332,2.111153 1.42136,1.742116 1.30659,-0.744141 -0.26843,-5.814019 0.1847,-5.214285 -4.08153,-5.401737 -3.82802,-0.168202 -3.82815,-0.168033 -1.29664,-2.748153 1.39233,-1.419063 3.17981,-3.009785 3.97211,-3.535184 1.03409,-0.6857 1.13269,-0.877592 -2.13995,-0.881084 z M 68.805407,31.75 c -21.514988,6e-5 -38.956321,16.867789 -38.956403,37.675219 -2.11e-4,20.80763 17.441209,37.675671 38.956403,37.675731 21.515194,-6e-5 38.956613,-16.868101 38.956403,-37.675731 C 107.76173,48.617789 90.320395,31.75006 68.805407,31.75 Z m 0,1.780769 c 20.498084,8.5e-5 37.115093,16.070481 37.115343,35.89445 4e-5,19.824172 -16.617049,35.894881 -37.115343,35.894971 -20.498296,-8e-5 -37.115389,-16.070798 -37.115346,-35.894971 2.54e-4,-19.82397 16.617261,-35.894366 37.115346,-35.89445 z m -53.81678,20.683492 c -8.4351465,0 -8.4351709,-7.4e-5 -8.6179507,13.156303 -0.1862101,13.391054 0.6804836,17.955065 1.3814476,7.274491 0.3601981,-5.488323 1.6475312,-11.074934 3.3664601,-14.609961 0.601791,-1.237525 0.500695,-1.679853 -0.566398,-2.476851 -1.1710239,-0.874575 -0.7352413,-0.972751 4.418119,-0.991671 5.432096,-0.02013 5.640319,0.03201 4.174704,1.045415 -1.392804,0.963048 -1.443532,1.175021 -0.518238,2.184362 1.626422,1.774116 3.031012,8.257233 3.158118,14.577922 0.0643,3.2007 0.249207,6.044204 0.41145,6.318994 1.249799,2.11817 1.574305,-0.869834 1.410239,-12.989905 C 23.423909,54.21391 23.423544,54.214261 14.988627,54.214261 Z m 102.060653,0.0026 c -1.15814,0.018 -2.53503,0.121009 -3.46277,0.270785 -2.24915,0.363099 -2.24898,0.363282 -0.17327,2.70371 2.23628,2.521454 4.17156,7.903373 4.17156,11.600326 0,2.256341 -0.0493,2.292366 -3.1487,2.292366 -3.14884,0 -3.14922,6e-6 -3.14922,3.193087 0,2.759969 0.14227,3.07649 1.04957,2.333191 0.57732,-0.472969 1.04957,-1.288406 1.04957,-1.811776 0,-0.605687 0.79692,-0.951363 2.19178,-0.951363 2.13781,0 2.18121,0.06339 1.78557,2.59054 -0.22303,1.424725 -0.61583,3.289614 -0.87315,4.144449 -0.44347,1.472652 -0.27601,1.554428 3.19371,1.554428 3.46971,0 3.63763,-0.08176 3.19423,-1.554428 -0.25736,-0.854835 -0.65101,-2.719724 -0.87368,-4.144449 -0.3927,-2.508253 -0.33841,-2.59054 1.70077,-2.59054 1.38293,0 2.49347,0.533818 3.23507,1.554427 1.10812,1.525069 1.12617,1.502012 0.96005,-1.209228 -0.16835,-2.749321 -0.18538,-2.764668 -3.43241,-3.108338 -3.26329,-0.345383 -3.26334,-0.345491 -1.55838,-5.492688 0.9377,-2.830959 2.49793,-6.483115 3.46749,-8.1163 1.76277,-2.96944 1.76275,-2.969804 -2.11536,-3.056144 -2.13295,-0.04749 -4.90105,-0.132959 -6.15186,-0.190169 -0.31272,-0.01431 -0.67452,-0.01789 -1.06057,-0.01189 z m 6.62771,2.287199 c 0.28502,-0.02848 -0.10341,1.176677 -0.97785,2.954858 -0.99568,2.024723 -2.05432,4.458116 -2.35249,5.407939 -0.44568,1.420559 -0.55391,1.482168 -0.60932,0.345715 -0.0369,-0.759856 -0.80026,-2.935727 -1.69659,-4.835364 -1.62962,-3.453872 -1.6299,-3.454207 1.42281,-3.210656 1.69066,0.134887 3.49771,-0.120458 4.04959,-0.572575 0.0687,-0.05633 0.12313,-0.08585 0.16385,-0.08992 z m -17.85936,35.162711 c -6.221547,0 -6.221489,-1.83e-4 -6.221489,3.973918 0,4.056859 0.576969,4.816161 2.195969,2.890262 0.50118,-0.5961 1.36506,-1.083654 1.91958,-1.083654 0.8143,0 1.00821,2.223068 1.00821,11.561053 0,11.52938 0.95767,15.51444 1.77981,7.40627 0.23175,-2.28508 0.80052,-6.59347 1.2642,-9.57409 0.46374,-2.98055 0.83948,-6.31342 0.83441,-7.406275 -0.005,-1.092898 0.26501,-1.986958 0.59938,-1.986958 0.6747,0 2.84141,-3.82947 2.84141,-5.021916 0,-0.470067 -2.36556,-0.75861 -6.22148,-0.75861 z m -72.369743,0.577226 v 5.17e-4 c -0.610079,-0.0061 -1.296837,0.0043 -2.072433,0.0186 -2.976582,0.05948 -5.412197,0.23993 -5.412197,0.401009 0,0.161283 1.530409,1.924166 3.400487,3.918107 1.870073,1.994022 3.28644,3.73795 3.147125,3.87573 -0.139441,0.13757 -0.999564,-0.0288 -1.910157,-0.37052 -0.910598,-0.341753 -3.187879,-0.621148 -5.061468,-0.621148 -3.406488,0 -3.406425,-4.19e-4 0.519286,3.777548 5.451407,5.24637 7.207422,7.78954 8.021189,11.61944 0.602256,2.83448 0.551949,3.61379 -0.350203,5.48132 -0.476925,0.98741 -0.738516,1.52226 -1.122329,1.62988 l 0.731817,0.33176 0.578962,0.71107 c -0.0099,-0.4928 0.346641,-1.08022 0.972614,-2.10117 2.378413,-3.87906 1.893723,-7.13382 -2.052541,-13.7883 -1.148441,-1.93655 -1.95974,-3.64813 -1.802844,-3.80287 0.15702,-0.15495 1.117389,0.40946 2.13368,1.25367 1.847807,1.5348 1.847117,1.53435 2.231046,0.0243 0.599297,-2.35717 -1.126394,-7.621407 -2.939306,-8.965862 -0.379641,-0.281887 0.267077,-0.34821 1.463633,-0.150378 1.266193,0.209321 2.730505,1.034421 3.579515,2.015897 1.43704,1.661216 1.436915,1.661048 1.126516,-0.931726 -0.429448,-3.58719 -0.911851,-4.290113 -5.182392,-4.326867 z M 61.173158,106.7103 c -1.086293,0.0132 -0.824412,0.26378 1.447405,1.38441 1.525676,0.75262 3.102762,1.87812 3.504658,2.50114 0.730736,1.13281 0.73093,1.13275 -4.176275,1.13275 -2.698957,0 -4.907568,0.12565 -4.907568,0.27905 0,0.15341 0.703718,1.52741 1.563616,3.05305 2.417104,4.28876 4.00692,13.28239 2.347781,13.28239 -0.373347,0 -0.985718,-0.56658 -1.361032,-1.25884 -0.693554,-1.27933 -1.530114,-1.68329 -1.530114,-0.73897 0,1.03195 1.602027,4.27457 2.662912,5.38933 0.596519,0.62669 1.569624,1.13999 2.162993,1.13999 1.134195,0 5.37346,-3.45066 5.37346,-4.3739 0,-0.29563 0.349303,-0.82432 0.776835,-1.1746 1.504245,-1.23239 0.299576,-1.07107 -1.620675,0.21704 -1.068673,0.7169 -2.457732,1.30379 -3.086925,1.30379 -1.020676,0 -1.090203,-0.14121 -0.641256,-1.30689 0.276758,-0.71858 0.614716,-3.18063 0.751185,-5.4715 0.215944,-3.62688 0.116584,-4.33023 -0.770553,-5.4436 -1.272125,-1.59747 -1.275005,-1.8471 -0.01727,-1.52239 0.560128,0.14457 2.053431,-0.32303 3.392634,-1.06195 2.392383,-1.31996 2.392424,-1.31966 4.485648,-0.31936 3.825285,1.82806 5.066124,6.39995 3.187433,11.74502 -1.119157,3.18412 -2.126297,4.63285 -4.078385,5.86734 -1.613323,1.01935 -1.613357,1.01944 0.426631,1.00924 1.803476,-0.01 2.224217,-0.25803 3.626627,-2.1425 0.872489,-1.17239 2.330459,-3.54367 3.240303,-5.26945 0.909824,-1.7258 1.859876,-3.26327 2.111171,-3.41684 0.252701,-0.15418 0.456992,1.30949 0.456992,3.27525 0,2.03363 0.218539,3.55431 0.510387,3.55431 0.280498,0 0.509864,-0.0771 0.509864,-0.17157 0,-0.0941 0.439575,-1.86773 0.976802,-3.94136 0.787465,-3.03949 0.87698,-4.23121 0.46275,-6.14846 -0.634302,-2.93593 -1.682556,-2.81076 -2.661864,0.31781 -0.4332,1.38398 -1.75799,1.03425 -2.863402,-0.75551 -0.999785,-1.61872 -1.371145,-3.90676 -0.631833,-3.89486 1.638537,0.0294 2.677569,0.7332 2.677569,1.81385 0,1.54421 0.684785,1.52798 1.726417,-0.0413 0.8672,-1.3066 1.140748,-4.80023 0.375855,-4.80023 -0.246244,0 -1.271692,0.33963 -2.278683,0.755 -1.077561,0.44446 -3.411552,0.75499 -5.672363,0.75499 -3.31431,0 -3.842621,-0.12091 -3.852244,-0.88109 -0.0208,-1.68277 -5.575576,-4.67764 -8.607481,-4.64054 z"
     sodipodi:nodetypes="cscsccccccssssscssccscssccssssccsscsccsssssssscssscsssscccsscsscssccccccccccscscccsccccssssssssssscsscsscsscsssssscccscsssscsscccssscccscccscscccccsccscccsscccssscscscsscssscccccsccsscssssssscscsssccc" /><path
     id="rect1"
     style="fill:#ecb279;fill-rule:evenodd;stroke-width:0.387532"
     d="m 67.729492,37.919286 c -8.741302,-0.04657 -17.562928,2.833646 -22.333088,11.367877 0.04189,-0.02235 14.335994,-7.096042 25.982101,-2.607519 2.321577,0.89476 4.498708,1.739285 6.523716,2.486417 -0.927721,0.912606 -24.300372,7.596284 -24.365361,14.896542 -0.03603,4.044766 1.827158,13.229853 1.827158,13.229853 2.24518,9.196843 9.076306,25.618134 11.73573,25.419724 0.764026,-0.87261 -3.592314,-17.031617 -3.268296,-25.637712 -3.524471,-18.768576 9.40642,-22.895961 24.818798,-25.150967 0.678768,-0.01011 1.289309,-0.09246 1.806727,-0.279297 0.386648,-0.139614 0.711356,-0.312448 0.996837,-0.48593 -0.595191,-1.55418 -0.350704,-2.055537 0.468526,-3.365933 -2.217122,-4.857438 -13.908794,-9.818227 -24.192796,-9.873004 z"
     sodipodi:nodetypes="ccsccccccscccc" /></svg>
