<?xml version="1.0" encoding="UTF-8" standalone="no"?>
<!-- Created with Inkscape (http://www.inkscape.org/) -->

<svg
   width="512"
   height="512"
   viewBox="0 0 512 512"
   version="1.1"
   id="svg1"
   inkscape:version="1.3.2 (091e20e, 2023-11-25, custom)"
   sodipodi:docname="KWD_ABB_KIT_PowerAction_PrayNormal_P.svg"
   xmlns:inkscape="http://www.inkscape.org/namespaces/inkscape"
   xmlns:sodipodi="http://sodipodi.sourceforge.net/DTD/sodipodi-0.dtd"
   xmlns="http://www.w3.org/2000/svg"
   xmlns:svg="http://www.w3.org/2000/svg">
  <sodipodi:namedview
     id="namedview1"
     pagecolor="#ffffff"
     bordercolor="#000000"
     borderopacity="0.25"
     inkscape:showpageshadow="2"
     inkscape:pageopacity="0.0"
     inkscape:pagecheckerboard="0"
     inkscape:deskcolor="#d1d1d1"
     inkscape:document-units="px"
     inkscape:zoom="0.78710938"
     inkscape:cx="393.21092"
     inkscape:cy="229.3201"
     inkscape:window-width="1920"
     inkscape:window-height="1017"
     inkscape:window-x="1042"
     inkscape:window-y="235"
     inkscape:window-maximized="1"
     inkscape:current-layer="layer1" />
  <defs
     id="defs1" />
  <g
     inkscape:label="Layer 1"
     inkscape:groupmode="layer"
     id="layer1">
    <path
       id="path3"
       style="fill:#d9c68c;fill-opacity:1;stroke-width:0.124448"
       d="m 101.06228,50.20894 c -4.353173,1.54e-4 -6.331855,0.792079 -9.497845,4.089891 l -4.087736,4.08989 0.790403,35.618019 c 0.527575,19.65589 0.659193,68.77841 0.923941,68.66881 5.491227,-2.27458 19.681877,5.98895 22.954227,9.26094 1.15383,1.15379 0.79038,-31.8914 0.79039,-61.44096 V 56.672217 l -3.29732,-3.16595 c -2.37438,-2.506452 -4.61813,-3.297354 -8.57606,-3.297327 z m 309.87329,0 c -3.95794,-2.7e-5 -6.19952,0.790875 -8.57391,3.297327 l -3.29949,3.16595 v 53.823313 c 1e-5,29.54956 -0.36127,62.59475 0.79256,61.44096 3.27235,-3.27199 17.463,-11.53552 22.95423,-9.26094 0.26475,0.10961 0.3942,-49.01292 0.92178,-68.66881 l 0.79256,-35.618019 -4.08988,-4.08989 c -3.166,-3.297812 -5.14469,-4.089737 -9.49785,-4.089891 z M 54.320367,85.958329 c -0.791358,1.98e-4 -2.639228,0.527613 -4.08989,1.055326 -1.451264,0.659432 -3.825233,2.507101 -5.276583,4.089882 -2.506376,2.770551 -2.638446,4.749721 -2.638292,51.316403 -1.2e-5,37.20088 0.394537,49.46904 1.845727,53.55839 0.923427,2.90212 57.121841,125.71651 58.440851,127.69548 1.4511,2.11035 24.07103,51.18504 26.44537,54.35096 2.37464,3.16621 5.54013,9.10244 6.99095,13.06008 2.24282,6.46374 2.50706,10.94874 2.5069,36.93607 1e-5,16.22599 0.3967,30.47202 0.79256,31.65951 0.65953,1.84676 5.40763,2.1107 39.04672,2.11063 h 38.12494 l -0.39629,-64.37431 c -0.39607,-63.584 -0.39472,-64.3761 -3.42869,-72.819 -1.71503,-4.74887 -4.88229,-11.8715 -6.9931,-15.96113 -2.24471,-3.95652 -6.85958,-10.95057 -10.55316,-15.43562 -3.56171,-4.48531 -10.15724,-11.08087 -14.77444,-14.77444 -4.48489,-3.5617 -12.13607,-8.70557 -16.88507,-11.21221 -12.18039,-4.32783 -16.02034,-5.16799 -17.02936,-5.12582 -3.06035,-3.13116 -14.85908,-14.92378 -21.46384,-40.02665 -3.06722,-11.65736 -5.02946,-18.54277 -17.66688,-32.09886 -1.45122,-1.31908 -13.852587,-10.53603 -16.359549,-10.53593 -3.297564,5e-5 -5.672269,1.05453 -8.442534,3.82499 -2.110568,2.24235 -3.827049,5.27515 -3.827138,7.12231 1.02e-4,1.84666 6.937509,14.39154 18.941856,41.03889 14.510855,31.92394 10.984115,40.00469 10.456245,41.71947 -0.52739,1.31932 0.0421,15.33071 -1.8048,15.72637 -0.77427,5.22719 -34.142367,-60.13734 -44.999566,-100.64922 -2.591104,-9.66822 5.151395,-22.41514 7.143848,-21.62752 2.902514,-2.11077 0.13935,-5.69465 -0.256292,-38.14647 -0.263907,-24.4048 -0.790618,-33.507378 -2.242009,-36.145684 -0.923249,-1.978783 -3.695034,-4.220363 -5.937772,-5.011674 -2.374562,-0.791787 -4.879326,-1.452558 -5.670712,-1.320223 z m 403.359263,0 c -0.79138,-0.132335 -3.2983,0.528436 -5.67286,1.320223 -2.24274,0.791311 -5.01237,3.032891 -5.93562,5.011674 -1.4514,2.638306 -1.98026,11.740884 -2.24417,36.145684 -0.39563,32.45182 -3.15665,36.0357 -0.25414,38.14647 1.99246,-0.78762 9.73281,11.9593 7.14171,21.62752 -10.85721,40.51188 -44.22531,105.87641 -44.99958,100.64922 -1.84693,-0.39566 -1.27741,-14.40705 -1.8048,-15.72637 -0.52787,-1.71478 -4.05461,-9.79553 10.45626,-41.71947 12.00434,-26.64735 18.94175,-39.19223 18.94185,-41.03889 -9e-5,-1.84716 -1.71441,-4.87996 -3.82499,-7.12231 -2.77026,-2.77046 -5.14496,-3.82494 -8.44254,-3.82499 -2.50696,-1e-4 -14.90832,9.21685 -16.35955,10.53593 -12.63742,13.55609 -14.60181,20.4415 -17.66901,32.09886 -6.60527,25.10475 -18.40459,36.89871 -21.46386,40.02881 -1.01105,-0.0413 -4.8541,0.79765 -17.02936,5.12366 -4.74898,2.50664 -12.40017,7.65051 -16.88507,11.21221 -4.61719,3.69357 -11.21273,10.28913 -14.77444,14.77444 -3.69357,4.48505 -8.30845,11.4791 -10.55316,15.43562 -2.11081,4.08963 -5.27591,11.21226 -6.99094,15.96113 -3.03397,8.4429 -3.03478,9.235 -3.43085,72.819 l -0.39628,64.37431 h 38.12493 c 33.63909,7e-5 38.38719,-0.26387 39.04672,-2.11063 0.39586,-1.18749 0.79255,-15.43352 0.79256,-31.65951 -1.6e-4,-25.98733 0.26408,-30.47233 2.50692,-36.93607 1.45081,-3.95764 4.61629,-9.89387 6.99092,-13.06008 2.37434,-3.16592 24.99644,-52.24061 26.44754,-54.35096 1.31901,-1.97897 57.51527,-124.79336 58.4387,-127.69548 1.45119,-4.08935 1.84789,-16.35751 1.84788,-53.55839 1.5e-4,-46.566682 -0.13192,-48.545852 -2.6383,-51.316403 -1.45135,-1.582781 -3.82746,-3.43045 -5.27873,-4.089882 -1.45065,-0.527713 -3.29638,-1.055128 -4.08774,-1.055326 z m -313.82964,1.186699 c -2.90228,4.9e-5 -5.27611,1.056526 -7.5186,3.430846 l -3.16595,3.430866 -0.39628,53.5584 -0.39628,53.68977 10.29042,22.95421 c 5.67283,12.66406 11.08126,23.21766 12.00476,23.61326 1.1871,0.39581 1.58277,-15.96186 1.58297,-75.58867 -2e-4,-64.11158 -0.26433,-76.512321 -1.97925,-79.678567 -1.05551,-2.110583 -2.90097,-4.089822 -3.95636,-4.617545 -1.18706,-0.395725 -4.09094,-0.7926 -6.46543,-0.79257 z m 224.29786,0 c -2.37448,-3e-5 -5.27622,0.396845 -6.46326,0.79257 -1.0554,0.527723 -2.90302,2.506962 -3.95853,4.617545 -1.71493,3.166246 -1.97905,15.566987 -1.97925,79.678567 2e-4,59.62681 0.39588,75.98448 1.58298,75.58867 0.9235,-0.3956 6.33192,-10.9492 12.00476,-23.61326 l 10.29042,-22.95421 -0.39629,-53.68977 -0.39627,-53.5584 -3.16596,-3.430866 c -2.24248,-2.37432 -4.61632,-3.430797 -7.5186,-3.430846 z M 191.71184,153.83458 c -1.31931,-2.2e-4 -3.56268,0.52556 -5.01385,1.05316 -1.45101,0.65969 -3.82549,2.50694 -5.27657,4.0899 -2.50628,2.77035 -2.63673,5.01409 -3.03242,46.96374 l -0.39628,51.33147 c 13.31339,6.88397 27.4542,25.33562 26.11369,24.88608 l 0.40059,-75.03086 c 1e-4,-30.34115 -0.39558,-43.79692 -1.58297,-46.17118 -0.92344,-1.97903 -3.16647,-4.35263 -5.1452,-5.40796 -2.11075,-1.05515 -4.74802,-1.84628 -6.06699,-1.71435 z m 128.57418,0 c -1.31898,-0.13193 -3.95626,0.6592 -6.06701,1.71435 -1.97872,1.05533 -4.22175,3.42893 -5.1452,5.40796 -1.18738,2.37426 -1.58307,15.83003 -1.58298,46.17118 l 0.40276,75.03086 c -1.34051,0.44954 12.8003,-18.00211 26.11369,-24.88608 L 333.611,205.94138 c -0.39569,-41.94965 -0.52829,-44.19339 -3.03457,-46.96374 -1.45109,-1.58296 -3.82557,-3.43021 -5.27658,-4.0899 -1.45117,-0.5276 -3.69453,-1.05338 -5.01383,-1.05316 z" />
  </g>
</svg>
