<?xml version="1.0" encoding="UTF-8" standalone="no"?>
<svg
   height="512"
   viewBox="0 0 512 512"
   width="512"
   version="1.1"
   id="svg2"
   sodipodi:docname="KWD_KIT_SpellDamageType_ArcaneRune_D.svg"
   inkscape:version="1.3.2 (091e20e, 2023-11-25, custom)"
   xmlns:inkscape="http://www.inkscape.org/namespaces/inkscape"
   xmlns:sodipodi="http://sodipodi.sourceforge.net/DTD/sodipodi-0.dtd"
   xmlns="http://www.w3.org/2000/svg"
   xmlns:svg="http://www.w3.org/2000/svg">
  <defs
     id="defs2" />
  <sodipodi:namedview
     id="namedview2"
     pagecolor="#ffffff"
     bordercolor="#000000"
     borderopacity="0.25"
     inkscape:showpageshadow="2"
     inkscape:pageopacity="0.0"
     inkscape:pagecheckerboard="0"
     inkscape:deskcolor="#d1d1d1"
     inkscape:zoom="0.82128905"
     inkscape:cx="248.39002"
     inkscape:cy="210.03567"
     inkscape:window-width="1920"
     inkscape:window-height="1009"
     inkscape:window-x="1042"
     inkscape:window-y="235"
     inkscape:window-maximized="1"
     inkscape:current-layer="svg2" />
  <path
     id="path3"
     style="fill:#6abfc7;fill-opacity:1;stroke-width:8.41798"
     d="M 256.00038,11.49707 C 120.96509,11.496604 11.499269,120.96241 11.499739,255.99771 11.500347,391.03223 120.96586,500.50339 256.00038,500.50293 391.03487,500.50339 500.50496,391.03223 500.50557,255.99771 500.50606,120.96241 391.03565,11.496627 256.00038,11.49707 Z m 0,19.671743 C 380.16974,31.169326 480.82878,131.82832 480.82929,255.99771 480.82876,380.16709 380.16974,480.83064 256.00038,480.83118 131.831,480.83064 31.171998,380.16709 31.171458,255.99771 31.171998,131.82832 131.831,31.169303 256.00038,31.168813 Z m -33.1162,56.652021 c -49.87554,0.06235 -94.14955,0.457764 -94.5767,1.140517 -1.51894,2.427493 31.72286,30.592229 40.46574,34.284119 57.62485,44.48441 68.69044,155.13396 69.66767,232.31983 0.51259,46.26224 1.39418,86.17063 1.96172,88.68247 1.00197,4.43726 2.339,4.56786 46.8572,4.42982 25.20168,-0.0689 45.56914,-0.38335 45.26507,-0.68432 -4.9711,-4.91654 -56.31279,-21.14806 -68.46785,-44.68112 -3.98701,-7.71982 -4.2054,-13.96789 -3.70898,-108.76021 l 0.5292,-100.57128 c -6.70813,-24.97084 -51.97933,-52.52838 -49.87276,-77.49166 1.34354,-3.45804 20.90459,-5.52626 51.02242,-5.3924 70.4111,0.31047 46.18943,64.68209 38.35347,73.24893 -4.3485,4.75414 -7.46179,9.08271 -6.92068,9.6169 40.92453,-5.61649 70.42708,-104.908026 57.61006,-105.274793 -22.83071,-0.65341 -78.3101,-0.929426 -128.18558,-0.866803 z" />
</svg>
