<?xml version="1.0" encoding="UTF-8" standalone="no"?>
<svg
   height="512"
   viewBox="0 0 512 512"
   width="512"
   version="1.1"
   id="svg2"
   sodipodi:docname="KWD_KIT_SpellCharmType_NormalRune_I.svg"
   inkscape:version="1.3.2 (091e20e, 2023-11-25, custom)"
   xmlns:inkscape="http://www.inkscape.org/namespaces/inkscape"
   xmlns:sodipodi="http://sodipodi.sourceforge.net/DTD/sodipodi-0.dtd"
   xmlns="http://www.w3.org/2000/svg"
   xmlns:svg="http://www.w3.org/2000/svg">
  <defs
     id="defs2" />
  <sodipodi:namedview
     id="namedview2"
     pagecolor="#ffffff"
     bordercolor="#000000"
     borderopacity="0.25"
     inkscape:showpageshadow="2"
     inkscape:pageopacity="0.0"
     inkscape:pagecheckerboard="0"
     inkscape:deskcolor="#d1d1d1"
     inkscape:zoom="1.1614781"
     inkscape:cx="296.17433"
     inkscape:cy="188.12236"
     inkscape:window-width="1920"
     inkscape:window-height="1009"
     inkscape:window-x="1042"
     inkscape:window-y="235"
     inkscape:window-maximized="1"
     inkscape:current-layer="svg2" />
  <path
     id="path12-5"
     style="fill:#5cd6a3;fill-opacity:1;stroke-width:8.32781"
     d="M 255.99997,11.002739 C 120.69099,11.002248 10.99998,120.6933 11.00045,256.00229 c 6e-4,135.3082 109.6913,244.99544 244.99952,244.99497 135.3082,4.7e-4 244.99898,-109.68677 244.99958,-244.99497 4e-4,-135.30899 -109.6906,-245.000018 -244.99958,-244.999551 z m 0,19.714543 C 380.421,30.717819 481.28445,131.58125 481.28496,256.00229 481.28442,380.42332 380.421,481.28674 255.99997,481.28728 131.57892,481.28674 30.71552,380.42332 30.71498,256.00229 30.71552,131.58125 131.57892,30.71779 255.99997,30.717282 Z m -27.27599,34.823706 c -29.04327,-0.144563 -58.47047,0.595526 -60.46403,3.394646 -4.61007,6.472835 -1.4533,12.991353 4.1805,23.876781 55.73189,107.683785 73.42569,233.836345 8.60768,344.440365 -3.93603,6.71608 -5.27987,11.42999 -4.33126,15.20967 1.95572,7.79187 10.10185,6.15507 14.64771,-2.94233 37.12564,-61.34946 78.52818,-126.46164 83.55953,-200.01929 0.0393,-11.08759 0.041,-11.08727 13.95325,3.23473 7.65177,7.87711 14.28466,16.64807 16.14628,18.39871 4.91955,4.62621 3.85311,4.24557 11.1754,-0.48886 57.18293,-36.97329 44.84165,-205.990502 20.49124,-190.941008 -9.95292,6.151259 14.45009,84.025698 -27.33995,116.633398 -5.87691,4.19819 -9.03711,3.9504 -13.58316,-0.53457 -23.48817,-23.17237 -28.52709,-54.22136 -35.5867,-87.38822 -3.06002,-18.882007 32.06464,-32.280037 26.70029,-40.959672 -0.45743,-0.740236 -29.11349,-1.769805 -58.15678,-1.91435 z" />
</svg>
