<?xml version="1.0" encoding="UTF-8" standalone="no"?>
<svg
   height="512"
   width="512"
   version="1.1"
   id="svg2"
   sodipodi:docname="KWD_KIT_SpellDamage_ColdFireRune_D.svg"
   inkscape:version="1.3.2 (091e20e, 2023-11-25, custom)"
   xmlns:inkscape="http://www.inkscape.org/namespaces/inkscape"
   xmlns:sodipodi="http://sodipodi.sourceforge.net/DTD/sodipodi-0.dtd"
   xmlns="http://www.w3.org/2000/svg"
   xmlns:svg="http://www.w3.org/2000/svg">
  <defs
     id="defs2" />
  <sodipodi:namedview
     id="namedview2"
     pagecolor="#ffffff"
     bordercolor="#000000"
     borderopacity="0.25"
     inkscape:showpageshadow="2"
     inkscape:pageopacity="0.0"
     inkscape:pagecheckerboard="0"
     inkscape:deskcolor="#d1d1d1"
     inkscape:zoom="1.1131408"
     inkscape:cx="227.73399"
     inkscape:cy="215.15697"
     inkscape:window-width="1920"
     inkscape:window-height="1017"
     inkscape:window-x="1042"
     inkscape:window-y="235"
     inkscape:window-maximized="1"
     inkscape:current-layer="svg2" />
  <g
     fill="#931826"
     id="g2"
     style="fill:#4eb5fd;fill-opacity:1">
    <path
       d="m104.69182 21.269461c-9.516601.853434-19.022713 2.114451-28.593194 2.394842-15.093647.344703-14.160076.329478-21.41199.335848-3.090687.0021-7.010238.01487-8.710103.02846-1.699866.01281-5.290874-.106829-7.980234-.266695-8.195248-.198124-6.250488 20.338835-6.021154 28.520776l.04716 3.399096c1.305224-7.55138 1.685057-13.845643 6.946351-19.827133 4.989052-5.49842 8.192579-6.413281 22.173678-6.331722 7.467019.04353 9.428887.218292 10.113857.903264 3.015476 3.015297-18.249623 22.981395-25.325761 43.097259l-9.330233 29.465744-.414856 4.72493c-.377458 4.29924-.494122 7.49536-.369874 10.23681.16948 3.73939 3.041625-4.27635 4.82808-13.47567l14.324044-32.808859 1.404862-1.624362 9.553024-.478532c11.956088-.598401 13.704528-.482926 23.51157 1.553022 2.812799.583937 3.461302.977493 4.912613 2.980944.919596 1.269443 1.813917 2.955587 1.987651 3.747007.173733.791421.789041 2.451486 1.366441 3.687752.577398 1.236266 1.198482 2.972535 1.380705 3.858957.182225.886399.473163 1.469511.646468 1.296202-.634864-9.270153-1.083454-18.144958-.830838-27.624078-1.580199.496325-1.830246 1.054901-4.732586 1.513552l-.0011-.0063c-7.913372.915887-25.014385 3.481242-30.102318-2.191799 7.644131-25.981337 38.352587-31.314101 40.627737-37.109053z"
       stroke-width="2.12388"
       transform="matrix(2.2454462 0 0 2.2166584 106.14755 110.5942)"
       id="path1"
       style="fill:#4eb5fd;fill-opacity:1" />
    <path
       d="m256.00002-.00001487a255.99918 256.00002 0 0 0 -256.00000342 256.00000487 255.99918 256.00002 0 0 0 256.00000342 255.99998 255.99918 256.00002 0 0 0 255.99998-255.99998 255.99918 256.00002 0 0 0 -255.99998-256.00000487zm0 7.75781297a248.24164 248.24246 0 0 1 248.24239 248.2421919 248.24164 248.24246 0 0 1 -248.24239 248.2422 248.24164 248.24246 0 0 1 -248.2423677-248.2422 248.24164 248.24246 0 0 1 248.2423677-248.2421919zm-15.41634 4.6914059c-14.89713 0-14.89799.000006-14.89799 24.394531 0 14.147894.8364 24.90262 1.98838 25.60547 1.11663.68127 1.98639-.87626 1.98639-3.562502 0-6.828964 5.53567-18.98242 8.64598-18.98242 1.44851 0 5.94026 3.528004 9.98343 7.841794 4.04304 4.313794 8.24428 7.843752 9.33647 7.843752 1.09222 0 5.42627-3.571869 9.63125-7.935546 7.6454-7.933976 7.64745-7.933886 9.73415 1.470702 5.49974 20.09481 3.63791 41.40489-5.95326 60.289065-2.52768 2.85115-1.96624 4.99383 1.01298 3.86524.33804-.12805 15.85387-6.32283 16.78744-64.552743.58133-36.277419.57919-36.277343-12.32398-36.277343-12.90329 0-12.90175.0023-9.81526 5.394531 2.87107 5.015859.0509 5.513997-1.58279 17.15625-2.53713 18.081776-11.3939 13.854238-14.10263 4.554688-3.86395-13.26526-7.27294-20.638294-.4966-23.181641 2.73113-1.02506 4.96402-2.328627 4.96402-2.894532 0-.565907-6.70453-1.029296-14.89798-1.029296zm-109.8395 56.240231c-16.5125-.0677-34.646023.80693-35.683945 2.46485-.869348 1.38854.209083 4.5128 2.395948 6.94336 5.928037 6.58873 12.464447 23.646435 12.464447 32.525395 0 6.43448.82203 7.47825 4.64351 5.89257 2.55406-1.05981 7.50501-2.53589 11.00235-3.27929 6.17585-1.31268 6.31726-.98182 4.87102 11.4707-1.71471 14.76448 2.46068 36.90449 8.22654 43.61719 5.32086 6.19455 5.87776 4.9366 3.13194-7.08203-3.99168-17.47148 1.85116-48.99945 14.53988-78.451175 3.35348-7.78374 3.63473-10.66682 1.18709-12.16016-2.07391-1.2653-13.93573-1.88878-26.77878-1.94141zm282.8144.91016.004.004c-1.26479.0627-2.8221.52117-4.65143 1.39843-3.26143 1.56384-14.43912 3.42553-24.84185 4.13672l-18.91431 1.29297 7.62706 3.44727c15.74732 7.12047 16.88144 27.018565 13.61596 50.228515-1.53002 10.87485-9.08733 16.82402-18.09525 24.32813l-4.66724 3.73242h7.38172c1.13296 0 2.1275.0878 3.08644.2383l-.0197-.039c6.2505-3.17402 10.63879-6.95828 14.66252-12.39063 4.43905-6.00059 14.19798-24.11814 16.06529-29.82226 2.74625-8.38979 5.52394-2.9149 5.52394 10.89062 0 7.98738.82046 14.52344 1.82615 14.52344 5.24995 0 10.79849-46.316595 6.10363-50.951175-2.53322-2.50086-7.92978 3.40417-7.92978 8.67578 0 7.039005-7.04637 6.420425-12.46644-1.09375-5.03229-6.97674-5.83022-16.79492-1.36512-16.79492 6.17896 0 9.62925 2.6823 9.62925 7.48437 0 9.85758 6.6141 3.83006 10.50773-9.57226 1.8892-6.50274.71176-9.90264-3.08247-9.7168zm-289.26426 6.36914c14.64245 0 14.81687.0892 14.81687 7.73828 0 4.79972-2.56571 10.27306-6.75455 14.4082-3.71507 3.667415-7.2421 6.667975-7.83677 6.667975-.59504 0-3.76383-5.599715-7.04143-12.443365-3.27757-6.84365-6.41943-13.32567-6.98009-14.40625-.56094-1.08052 5.64725-1.96484 13.79597-1.96484zm135.75764 44.031255a147.23722 142.39507 0 0 0 -147.23681 142.39453 147.23722 142.39507 0 0 0 147.23681 142.39647 147.23722 142.39507 0 0 0 147.2368-142.39647 147.23722 142.39507 0 0 0 -147.2368-142.39453zm0 6.73047a140.27907 135.66575 0 0 1 140.27846 135.66406 140.27907 135.66575 0 0 1 -140.27846 135.66603 140.27907 135.66575 0 0 1 -140.27848-135.66603 140.27907 135.66575 0 0 1 140.27848-135.66406zm-203.40201 78.17383c-31.880869 0-31.880962-.00028-32.571783 49.72461-.703786 50.61185 2.571907 67.86166 5.221219 27.49414 1.361379-20.74327 6.22689-41.85802 12.723634-55.21876 2.274478-4.67726 1.892383-6.34905-2.140721-9.36132-4.425918-3.30548-2.778866-3.67654 16.698403-3.74805 20.530756-.0761 21.317737.12098 15.778409 3.95117-5.264141 3.63987-5.455873 4.44103-1.958699 8.25586 6.147111 6.70532 11.455797 31.20844 11.936198 55.09766.243024 12.09713.941885 22.84424 1.555087 23.88281 4.723649 8.00568 5.950129-3.28756 5.330033-49.0957-.690399-50.98375-.691782-50.98242-32.57178-50.98242zm385.74105.01c-4.37722.068-9.58121.45736-13.08763 1.02344-8.50072 1.37234-8.50008 1.37304-.65488 10.21875 8.45208 9.5299 15.76653 29.87101 15.76653 43.84375 0 8.5279-.18633 8.66406-11.9006 8.66406-11.90113 0-11.90257.00002-11.90257 12.06836 0 10.43138.53772 11.62768 3.96688 8.81836 2.182-1.7876 3.96688-4.86956 3.96688-6.84766 0-2.28921 3.01198-3.5957 8.2839-3.5957 8.07991 0 8.24394.23959 6.74861 9.79102-.84295 5.38479-2.32755 12.43319-3.3001 15.66406-1.67611 5.56593-1.04319 5.875 12.07072 5.875 13.11386 0 13.74852-.30901 12.07268-5.875-.9727-3.23087-2.46051-10.27927-3.30206-15.66406-1.48426-9.48001-1.27907-9.79102 6.42807-9.79102 5.22682 0 9.42414 2.01758 12.22703 5.875 4.18817 5.76404 4.25639 5.6769 3.62854-4.57031-.63629-10.39113-.70065-10.44914-12.97289-11.74805-12.33369-1.30538-12.33388-1.30579-5.88994-20.75976 3.54406-10.69969 9.441-24.50312 13.10547-30.67578 6.66244-11.22308 6.66237-11.22446-7.99506-11.55079-8.06154-.17948-18.52365-.50252-23.25112-.71874-1.18194-.0541-2.54937-.0676-4.00846-.0449zm25.04962 8.64453c1.07724-.10764-.39084 4.44729-3.69581 11.16797-3.7632 7.6525-7.76436 16.84957-8.8913 20.43946-1.68446 5.36904-2.09352 5.60189-2.30295 1.30664-.13908-2.8719-3.0246-11.09567-6.41231-18.2754-6.15919-13.054-6.16025-13.05527 5.37755-12.13476 6.3899.50981 13.2197-.45527 15.30554-2.16406.25966-.2129.46537-.32447.61928-.33986zm-67.49995 132.89844c-23.51451 0-23.51428-.00069-23.51428 15.01953 0 15.33301 2.18066 18.20282 8.29972 10.92383 1.89422-2.25298 5.15928-4.0957 7.2551-4.0957 3.07767 0 3.81056 8.40215 3.81056 43.69532 0 43.57561 3.61954 58.63725 6.72684 27.9922.87591-8.63652 3.02559-24.9202 4.77808-36.18554 1.75272-11.26507 3.17284-23.86174 3.15368-27.99222-.0189-4.13064 1.00161-7.50976 2.26537-7.50976 2.55005 0 10.73919-14.47359 10.73919-18.98047 0-1.77663-8.9407-2.86719-23.51426-2.86719zm-273.28008 2.70313v.002c-2.30581-.0231-4.90341.0163-7.8348.0703-11.25007.22481-20.455547.90878-20.455547 1.51758 0 .60957 5.784227 7.27048 12.852237 14.80664 7.06799 7.53646 12.42119 14.1277 11.89464 14.64844-.52701.51995-3.77788-.10885-7.21948-1.40039-3.44164-1.29169-12.04868-2.34766-19.12997-2.34766-12.874915 0-12.874673-.002 1.962656 14.27732 20.603754 19.8288 27.240654 29.44275 30.316314 43.91796 2.27624 10.713 2.0861 13.65846-1.32361 20.7168-1.80255 3.73195-2.79124 5.75343-4.24186 6.16018l2.76592 1.2539 2.18819 2.68554c-.0378-1.86255 1.31015-4.08268 3.67603-7.94139 8.98928-14.66105 7.15936-26.96247-7.75566-52.1133-4.34056-7.31924-7.40887-13.78821-6.81588-14.37305.59347-.58564 4.22321 1.54957 8.06431 4.74024 6.98383 5.80082 6.98123 5.79916 8.43229.0919 2.26507-8.90896-4.25723-28.80727-11.10918-33.88867-1.43487-1.0654 1.00942-1.31412 5.53184-.5664 4.78561.79113 10.32002 3.90767 13.52887 7.61718 5.43134 6.27861 5.43086 6.27798 4.2577-3.52148-1.62311-13.55789-3.44438-16.2146-19.58501-16.35352zm104.54507 54.1543c-4.10567.0499-3.11589.99697 5.47051 5.23242 5.76633 2.84455 11.72697 7.09841 13.24595 9.45313 2.76184 4.28148 2.76257 4.28126-15.78435 4.28126-10.20078 0-18.54828.4749-18.54828 1.05467 0 .57982 2.65971 5.77289 5.90973 11.53909 9.13551 16.20949 15.14426 50.20116 8.8735 50.20116-1.41108 0-3.72555-2.1414-5.14406-4.75782-2.62131-4.83526-5.78311-6.36204-5.78311-2.79296 0 3.90029 6.0549 16.15586 10.06455 20.36912 2.25456 2.3686 5.93244 4.30863 8.17509 4.30863 4.28672 0 20.30914-13.04187 20.30914-16.53128 0-1.11734 1.3202-3.11554 2.93607-4.43943 5.68534-4.65785 1.13226-4.04814-6.12538.82031-4.03908 2.70954-9.28907 4.92771-11.66712 4.92771-3.85768 0-4.12046-.53371-2.42365-4.93943 1.04602-2.71589 2.32334-12.02128 2.83913-20.67968.81616-13.7079.44063-16.36623-2.91233-20.57424-4.80803-6.03768-4.81891-6.98117-.0653-5.75392 2.11701.54641 7.76099-1.2209 12.82255-4.01366 9.04207-4.98883 9.04223-4.9877 16.95363-1.20703 14.45777 6.9092 19.14755 24.18878 12.04699 44.39062-4.22988 12.03447-8.0364 17.50999-15.41437 22.17578-6.0976 3.85266-6.09773 3.853 1.61246 3.81445 6.81629-.0378 8.40649-.97524 13.70694-8.09764 3.2976-4.43108 8.80804-13.3934 12.24682-19.91603 3.4387-6.52271 7.02945-12.33362 7.97922-12.91404.95509-.58273 1.72722 4.94925 1.72722 12.37889 0 7.68616.82598 13.43362 1.92902 13.43362 1.06015 0 1.92705-.29141 1.92705-.64846 0-.35565 1.66138-7.05913 3.69185-14.89648 2.97624-11.48783 3.31456-15.99197 1.74897-23.23827-2.39736-11.09643-6.35926-10.62335-10.06058 1.20117-1.6373 5.23079-6.64438 3.90898-10.82231-2.85547-3.77872-6.118-5.18228-14.76571-2.38803-14.72073 6.1929.11112 10.11994 2.77115 10.11994 6.8555 0 5.83638 2.58817 5.77504 6.52504-.1561 3.27761-4.93833 4.31149-18.1426 1.42056-18.1426-.93069 0-4.8064 1.28364-8.61235 2.85354-4.07267 1.67985-12.89405 2.85351-21.43885 2.85351-12.52652 0-14.52329-.45698-14.55966-3.33011-.0786-6.36007-21.07305-17.67927-32.53222-17.53904z"
       stroke-width="1.1771"
       id="path2"
       style="fill:#4eb5fd;fill-opacity:1" />
  </g>
</svg>
