<?xml version="1.0" encoding="UTF-8" standalone="no"?>
<!-- Created with Inkscape (http://www.inkscape.org/) -->

<svg
   width="512"
   height="512"
   viewBox="0 0 512 512"
   version="1.1"
   id="svg1"
   xml:space="preserve"
   inkscape:version="1.3.2 (091e20e, 2023-11-25, custom)"
   sodipodi:docname="KWD_KIT_MagicFireResist.svg"
   xmlns:inkscape="http://www.inkscape.org/namespaces/inkscape"
   xmlns:sodipodi="http://sodipodi.sourceforge.net/DTD/sodipodi-0.dtd"
   xmlns="http://www.w3.org/2000/svg"
   xmlns:svg="http://www.w3.org/2000/svg"><sodipodi:namedview
     id="namedview1"
     pagecolor="#ffffff"
     bordercolor="#000000"
     borderopacity="0.25"
     inkscape:showpageshadow="2"
     inkscape:pageopacity="0.0"
     inkscape:pagecheckerboard="0"
     inkscape:deskcolor="#d1d1d1"
     inkscape:document-units="px"
     inkscape:zoom="1"
     inkscape:cx="179"
     inkscape:cy="259.5"
     inkscape:window-width="1920"
     inkscape:window-height="1017"
     inkscape:window-x="1042"
     inkscape:window-y="276"
     inkscape:window-maximized="1"
     inkscape:current-layer="layer1" /><defs
     id="defs1" /><g
     inkscape:label="Layer 1"
     inkscape:groupmode="layer"
     id="layer1"><path
       id="path2"
       style="fill:#d2902d;stroke-width:4.68007"
       d="M 256.03711,0 C 181.46802,51.324751 104.32458,79.872447 24.607422,85.644531 23.203401,179.86991 42.234548,264.26881 81.703125,338.83789 121.79571,412.62697 179.908,470.34739 256.03711,512 337.0023,470.34739 395.7357,411.92357 432.24023,336.73047 469.05677,261.69337 487.46484,178.46616 487.46484,87.048828 399.47956,78.780707 322.33808,49.764728 256.03711,0 Z m 0,57.798828 c 51.32475,38.37656 111.07309,60.840482 179.24609,67.392582 0,70.66903 -14.27384,135.09826 -42.82226,193.28711 C 364.22453,376.66737 318.75003,421.9087 256.03711,454.20117 197.06825,421.9087 151.98171,377.21402 120.78125,320.11719 90.360806,262.24034 75.697046,196.87454 76.789062,124.02148 138.56596,119.65342 198.31627,97.579406 256.03711,57.798828 Z m 0,41.417969 c -45.70867,31.356453 -92.97792,48.829913 -141.80664,52.417973 -0.93601,57.56484 10.76325,109.27986 35.09961,155.14453 24.49236,45.08466 60.06235,80.34116 106.70703,105.76953 49.60872,-25.42837 85.56668,-61.15316 107.875,-107.17383 22.62033,-46.02067 33.92969,-97.03425 33.92969,-153.03906 -53.97679,-4.99208 -101.2441,-22.6987 -141.80469,-53.119143 z M 256,134.79492 345.63281,252.33984 H 294.31836 V 358.06641 H 217.68164 V 252.33984 h -51.31445 z"
       sodipodi:nodetypes="ccccccccccccccccccccccccccccc" /></g></svg>
