<?xml version="1.0" encoding="UTF-8" standalone="no"?>
<svg
   viewBox="0 0 512 512"
   version="1.1"
   id="svg1"
   sodipodi:docname="KWD_KIT_SpellReduce_Weapon_A.svg"
   inkscape:version="1.3.2 (091e20e, 2023-11-25, custom)"
   xmlns:inkscape="http://www.inkscape.org/namespaces/inkscape"
   xmlns:sodipodi="http://sodipodi.sourceforge.net/DTD/sodipodi-0.dtd"
   xmlns="http://www.w3.org/2000/svg"
   xmlns:svg="http://www.w3.org/2000/svg"
   xmlns:bx="https://boxy-svg.com">
  <sodipodi:namedview
     id="namedview1"
     pagecolor="#ffffff"
     bordercolor="#000000"
     borderopacity="0.25"
     inkscape:showpageshadow="2"
     inkscape:pageopacity="0.0"
     inkscape:pagecheckerboard="0"
     inkscape:deskcolor="#d1d1d1"
     showgrid="false"
     inkscape:zoom="0.81933594"
     inkscape:cx="239.21812"
     inkscape:cy="280.10489"
     inkscape:window-width="1920"
     inkscape:window-height="1017"
     inkscape:window-x="1042"
     inkscape:window-y="276"
     inkscape:window-maximized="1"
     inkscape:current-layer="svg1">
    <inkscape:grid
       id="grid1"
       units="px"
       originx="0"
       originy="0"
       spacingx="1"
       spacingy="1"
       empcolor="#0099e5"
       empopacity="0.30196078"
       color="#0099e5"
       opacity="0.14901961"
       empspacing="5"
       dotted="false"
       gridanglex="30"
       gridanglez="30"
       visible="false" />
  </sodipodi:namedview>
  <defs
     id="defs1">
    <bx:grid
       x="0"
       y="0"
       width="512"
       height="512" />
    <bx:grid
       x="0"
       y="0"
       width="512"
       height="512" />
    <bx:grid
       x="0"
       y="0"
       width="100"
       height="100" />
    <bx:grid
       x="0"
       y="0"
       width="512"
       height="512" />
    <bx:grid
       x="0"
       y="0"
       width="512"
       height="512" />
    <bx:grid
       x="0"
       y="0"
       width="512"
       height="512" />
    <bx:grid
       x="0"
       y="0"
       width="512"
       height="512" />
    <bx:grid
       x="0"
       y="0"
       width="512"
       height="512" />
    <bx:grid
       x="0"
       y="0"
       width="512"
       height="512" />
    <bx:grid
       x="0"
       y="0"
       width="512"
       height="512" />
    <bx:grid
       x="0"
       y="0"
       width="100"
       height="100" />
    <bx:grid
       x="0"
       y="0"
       width="512"
       height="512" />
    <bx:grid
       x="0"
       y="0"
       width="512"
       height="512" />
    <bx:grid
       x="0"
       y="0"
       width="512"
       height="512" />
    <bx:grid
       x="0"
       y="0"
       width="512"
       height="512" />
    <bx:grid
       x="0"
       y="0"
       width="512"
       height="512" />
    <bx:grid
       x="0"
       y="0"
       width="512"
       height="512" />
    <bx:grid
       x="0"
       y="0"
       width="512"
       height="512" />
    <bx:grid
       x="0"
       y="0"
       width="512"
       height="512" />
    <bx:grid
       x="0"
       y="0"
       width="512"
       height="512" />
    <bx:grid
       x="0"
       y="0"
       width="512"
       height="512" />
    <bx:grid
       x="0"
       y="0"
       width="512"
       height="512" />
    <bx:grid
       x="0"
       y="0"
       width="512"
       height="512" />
    <bx:grid
       x="0"
       y="0"
       width="512"
       height="512" />
    <bx:grid
       x="0"
       y="0"
       width="512"
       height="512" />
    <bx:grid
       x="0"
       y="0"
       width="512"
       height="512" />
    <bx:grid
       x="0"
       y="0"
       width="100"
       height="100" />
    <bx:grid
       x="0"
       y="0"
       width="100"
       height="100" />
    <bx:grid
       x="0"
       y="0"
       width="100"
       height="100" />
    <bx:grid
       x="0"
       y="0"
       width="100"
       height="100" />
    <bx:grid
       x="0"
       y="0"
       width="100"
       height="100" />
    <bx:grid
       x="0"
       y="0"
       width="512"
       height="512" />
    <bx:grid
       x="0"
       y="0"
       width="512"
       height="512" />
    <bx:grid
       x="0"
       y="0"
       width="512"
       height="512" />
    <bx:grid
       x="0"
       y="0"
       width="512"
       height="512" />
    <bx:grid
       x="0"
       y="0"
       width="512"
       height="512" />
    <bx:grid
       x="0"
       y="0"
       width="512"
       height="512" />
    <bx:grid
       x="0"
       y="0"
       width="512"
       height="512" />
    <bx:grid
       x="0"
       y="0"
       width="512"
       height="512" />
    <bx:grid
       x="0"
       y="0"
       width="512"
       height="512" />
    <bx:grid
       x="0"
       y="0"
       width="512"
       height="512" />
    <bx:grid
       x="0"
       y="0"
       width="512"
       height="512" />
    <bx:grid
       x="0"
       y="0"
       width="512"
       height="512" />
    <bx:grid
       x="0"
       y="0"
       width="512"
       height="512" />
    <bx:grid
       x="0"
       y="0"
       width="512"
       height="512" />
    <bx:grid
       x="0"
       y="0"
       width="512"
       height="512" />
    <bx:grid
       x="0"
       y="0"
       width="512"
       height="512" />
    <bx:grid
       x="0"
       y="0"
       width="512"
       height="512" />
    <bx:grid
       x="0"
       y="0"
       width="512"
       height="512" />
    <bx:grid
       x="0"
       y="0"
       width="512"
       height="512" />
    <bx:grid
       x="0"
       y="0"
       width="512"
       height="512" />
    <bx:grid
       x="0"
       y="0"
       width="512"
       height="512" />
    <bx:grid
       x="0"
       y="0"
       width="512"
       height="512" />
    <bx:grid
       x="0"
       y="0"
       width="512"
       height="512" />
    <bx:grid
       x="0"
       y="0"
       width="512"
       height="512" />
    <bx:grid
       x="0"
       y="0"
       width="512"
       height="512" />
    <bx:grid
       x="0"
       y="0"
       width="512"
       height="512" />
    <bx:grid
       x="0"
       y="0"
       width="512"
       height="512" />
    <bx:grid
       x="0"
       y="0"
       width="512"
       height="512" />
    <bx:grid
       x="0"
       y="0"
       width="512"
       height="512" />
    <bx:grid
       x="0"
       y="0"
       width="512"
       height="512" />
    <bx:grid
       x="0"
       y="0"
       width="512"
       height="512" />
    <bx:grid
       x="0"
       y="0"
       width="512"
       height="512" />
    <bx:grid
       x="0"
       y="0"
       width="512"
       height="512" />
    <bx:grid
       x="0"
       y="0"
       width="512"
       height="512" />
    <bx:grid
       x="0"
       y="0"
       width="512"
       height="512" />
    <bx:grid
       x="0"
       y="0"
       width="512"
       height="512" />
    <bx:grid
       x="0"
       y="0"
       width="512"
       height="512" />
    <bx:grid
       x="0"
       y="0"
       width="512"
       height="512" />
    <bx:grid
       x="0"
       y="0"
       width="512"
       height="512" />
    <bx:grid
       x="0"
       y="0"
       width="512"
       height="512" />
    <bx:grid
       x="0"
       y="0"
       width="512"
       height="512" />
    <bx:grid
       x="0"
       y="0"
       width="512"
       height="512" />
    <bx:grid
       x="0"
       y="0"
       width="512"
       height="512" />
    <bx:grid
       x="0"
       y="0"
       width="512"
       height="512" />
    <bx:grid
       x="0"
       y="0"
       width="512"
       height="512" />
    <bx:grid
       x="0"
       y="0"
       width="512"
       height="512" />
    <bx:grid
       x="0"
       y="0"
       width="512"
       height="512" />
    <bx:grid
       x="0"
       y="0"
       width="512"
       height="512" />
    <bx:grid
       x="0"
       y="0"
       width="512"
       height="512" />
    <bx:grid
       x="0"
       y="0"
       width="512"
       height="512" />
    <bx:grid
       x="0"
       y="0"
       width="512"
       height="512" />
    <bx:grid
       x="0"
       y="0"
       width="512"
       height="512" />
    <bx:grid
       x="0"
       y="0"
       width="512"
       height="512" />
    <bx:grid
       x="0"
       y="0"
       width="512"
       height="512" />
    <bx:grid
       x="0"
       y="0"
       width="512"
       height="512" />
  </defs>
  <g
     transform="matrix(-4.1144307,0,0,-4.1144307,645.87774,1912.3874)"
     id="g1"
     style="fill:#d2902d;fill-opacity:1">
    <path
       id="path3"
       style="fill:#d2902d;fill-opacity:1"
       d="m 96.695852,413.53845 v -22.79942 l -16.605995,-16.606 -5.956076,8.19762 -5.7586,-19.91277 -20.757732,-20.75773 -12.500305,-1.30021 1.399894,13.00017 6.746452,6.74598 3.450128,-9.25003 4.65492,17.35555 z" />
    <path
       id="path2"
       style="fill:#d2902d;fill-opacity:1"
       d="m 147.14976,464.80001 7.25032,-7.24982 -23.20021,-23.1501 9.50038,-9.55 c 0.56667,-0.53333 0.94959,-1.13338 1.14959,-1.80005 0.23333,-1 0.23333,-2.05009 0,-3.15009 -0.23334,-2.2 -1.24987,-4.20002 -3.04987,-6 l -35.1,35.1 c 0.86667,0.9 1.76675,1.60022 2.70008,2.10022 1.06667,0.6 2.09998,0.96665 3.09998,1.09998 2.13332,0.43333 3.81653,0.0499 5.04986,-1.15009 l 9.35005,-9.40016 z M 112.34994,434.29986 123.7501,422.9002 103.11014,402.26025 v 22.79981 z" />
  </g>
</svg>
