<?xml version="1.0" encoding="UTF-8" standalone="no"?>
<!-- Created with Inkscape (http://www.inkscape.org/) -->

<svg
   width="512"
   height="512"
   viewBox="0 0 512 512"
   version="1.1"
   id="svg1"
   inkscape:version="1.3.2 (091e20e, 2023-11-25, custom)"
   sodipodi:docname="KWD_KIT_SpellLightType_Normal_I.svg"
   xmlns:inkscape="http://www.inkscape.org/namespaces/inkscape"
   xmlns:sodipodi="http://sodipodi.sourceforge.net/DTD/sodipodi-0.dtd"
   xmlns="http://www.w3.org/2000/svg"
   xmlns:svg="http://www.w3.org/2000/svg">
  <sodipodi:namedview
     id="namedview1"
     pagecolor="#ffffff"
     bordercolor="#000000"
     borderopacity="0.25"
     inkscape:showpageshadow="2"
     inkscape:pageopacity="0.0"
     inkscape:pagecheckerboard="0"
     inkscape:deskcolor="#d1d1d1"
     inkscape:document-units="px"
     inkscape:zoom="0.78710941"
     inkscape:cx="189.93548"
     inkscape:cy="161.9851"
     inkscape:window-width="1920"
     inkscape:window-height="1009"
     inkscape:window-x="1042"
     inkscape:window-y="235"
     inkscape:window-maximized="1"
     inkscape:current-layer="svg1" />
  <defs
     id="defs1" />
  <path
     id="path1"
     style="fill:#a3c5f5;fill-opacity:1;fill-rule:evenodd;stroke-width:39.9609"
     d="M 255.99787,0 196.01223,111.18649 74.978848,74.983114 111.18436,196.01862 0,256.00213 111.08838,315.93871 74.978848,436.69698 195.87787,400.53838 255.99787,512 315.98138,400.81564 437.01688,437.02115 400.81351,315.98777 512,256.00213 400.71967,195.96957 437.01688,74.658937 315.84488,110.90924 Z m 0.002,112.99932 c 78.97651,-1e-5 143.00068,64.0241 143.00068,143.00068 0,78.97652 -64.02413,143.00068 -143.00068,143.00068 -78.97656,0 -143.00067,-64.02412 -143.00067,-143.00068 0,-78.97656 64.0241,-143.00069 143.00067,-143.00068 z m 0,37.00102 C 197.45793,150.00033 150.0004,197.45788 150.0004,256 c 0,58.54211 47.45755,105.99967 105.99965,105.99966 58.54211,0 105.99966,-47.45756 105.99966,-105.99966 0,-58.54213 -47.45758,-105.99967 -105.99966,-105.99966 z" />
</svg>
