<?xml version="1.0" encoding="UTF-8" standalone="no"?>
<svg
   height="512"
   viewBox="0 0 512 512"
   width="512"
   version="1.1"
   id="svg2"
   sodipodi:docname="KWD_KIT_MagicDamageShockRune.svg"
   inkscape:version="1.3.2 (091e20e, 2023-11-25, custom)"
   xmlns:inkscape="http://www.inkscape.org/namespaces/inkscape"
   xmlns:sodipodi="http://sodipodi.sourceforge.net/DTD/sodipodi-0.dtd"
   xmlns="http://www.w3.org/2000/svg"
   xmlns:svg="http://www.w3.org/2000/svg">
  <defs
     id="defs2" />
  <sodipodi:namedview
     id="namedview2"
     pagecolor="#ffffff"
     bordercolor="#000000"
     borderopacity="0.25"
     inkscape:showpageshadow="2"
     inkscape:pageopacity="0.0"
     inkscape:pagecheckerboard="0"
     inkscape:deskcolor="#d1d1d1"
     inkscape:zoom="1.6425781"
     inkscape:cx="255.6956"
     inkscape:cy="256"
     inkscape:window-width="1920"
     inkscape:window-height="1017"
     inkscape:window-x="1042"
     inkscape:window-y="276"
     inkscape:window-maximized="1"
     inkscape:current-layer="svg2" />
  <g
     fill="#6bc1c6"
     id="g2"
     style="fill:#e9d262">
    <path
       d="m244.84764 161.29289c-30.40466.038-57.39397.27895-57.65436.69517-.92597 1.47982 19.33699 18.64775 24.66676 20.89838 35.12872 27.11819 41.87507 94.57161 42.4708 141.62497.31248 28.20198.85084 52.5316 1.1968 54.06286.61082 2.705 1.42422 2.78361 28.56301 2.69947 15.36321-.0421 27.77961-.23364 27.59424-.41711-3.03043-2.99717-34.32906-12.89228-41.73894-27.23831-2.4305-4.70607-2.56162-8.5158-2.25901-66.30224l.32144-61.30704c-4.08935-15.22249-31.68689-32.02234-30.4027-47.24021.81905-2.10806 12.74328-3.36948 31.10343-3.28786 42.92336.18926 28.15784 39.43064 23.38098 44.65307-2.65089 2.89819-4.54759 5.53601-4.21772 5.86165 24.94805-3.42387 42.93211-63.95311 35.11871-64.1767-13.91784-.39834-47.73876-.5643-78.14344-.5261z"
       stroke-width="5.13169"
       id="path1"
       style="fill:#e9d262" />
    <path
       d="m256.00003.000001a255.99917 256.00002 0 0 0 -255.99999 255.999999 255.99917 256.00002 0 0 0 255.99999 255.99998 255.99917 256.00002 0 0 0 255.99997-255.99998 255.99917 256.00002 0 0 0 -255.99997-255.999999zm0 7.7578126a248.24163 248.24246 0 0 1 248.24238 248.2421864 248.24163 248.24246 0 0 1 -248.24238 248.2422 248.24163 248.24246 0 0 1 -248.242355-248.2422 248.24163 248.24246 0 0 1 248.242355-248.2421864zm-15.41635 4.6914064c-14.89711 0-14.89798.000006-14.89798 24.394531 0 14.147894.8364 24.902615 1.98838 25.605468 1.11663.681275 1.9864-.876254 1.9864-3.5625 0-6.828964 5.53567-18.98242 8.64597-18.98242 1.44851 0 5.94026 3.528004 9.98343 7.841794 4.04304 4.313794 8.24428 7.843752 9.33647 7.843752 1.09221 0 5.42627-3.571869 9.63125-7.935546 7.6454-7.933976 7.64745-7.933886 9.73415 1.470702 5.49973 20.094811 3.63791 41.404891-5.95326 60.289059-2.52768 2.85115-1.96624 4.99383 1.01298 3.86524.33804-.12805 15.85387-6.32283 16.78744-64.552737.58133-36.277419.57919-36.277343-12.32398-36.277343-12.90329 0-12.90175.0023-9.81526 5.394531 2.87106 5.015859.0509 5.513997-1.58279 17.15625-2.53713 18.081776-11.3939 13.854238-14.10263 4.554688-3.86395-13.26526-7.27294-20.638294-.4966-23.181641 2.73113-1.02506 4.96402-2.328627 4.96402-2.894532 0-.565907-6.70454-1.029296-14.89799-1.029296zm-109.83949 56.240233c-16.51249-.06765-34.64601.806929-35.68394 2.464845-.86934 1.388542.20909 4.512802 2.39595 6.943359 5.92804 6.58873 12.46445 23.646433 12.46445 32.525393 0 6.43448.82202 7.47825 4.6435 5.89257 2.55407-1.05981 7.50501-2.53589 11.00235-3.27929 6.17585-1.31268 6.31726-.98182 4.87103 11.4707-1.71472 14.76448 2.46067 36.90449 8.22654 43.61719 5.32086 6.19455 5.87776 4.9366 3.13193-7.08203-3.99167-17.47148 1.85117-48.99945 14.53989-78.451172 3.35348-7.783733 3.63473-10.666821 1.18708-12.160158-2.07391-1.265302-13.93572-1.888777-26.77878-1.941407zm-6.44985 7.279298c14.64244 0 14.81686.08924 14.81686 7.738281 0 4.799724-2.56571 10.273062-6.75455 14.408198-3.71506 3.66741-7.24209 6.66797-7.83677 6.66797-.59503 0-3.76382-5.59971-7.04142-12.443357-3.27757-6.843655-6.41944-13.325673-6.98009-14.406247-.56094-1.080526 5.64724-1.964845 13.79597-1.964845zm291.19327 1.810545c-4.12305-.0045-9.66002.07094-16.95564.181644-30.48868.462584-30.48872.462652-30.89598 14.97461-.42399 15.14091 2.1239 19.46782 4.5149 7.66601 2.14436-10.584044 7.144-14.654289 18.00617-14.654289 5.20445 0 9.46311.548652 9.46311 1.21875 0 .670111-2.35242 4.298423-5.22716 8.0625-12.7036 16.633699-23.22363 45.101059-22.91283 61.999999.17205 9.34089.17144 9.34063 3.40695-.334 1.77966-5.32105 5.69386-15.62818 8.69745-22.90625 5.46085-13.23284 5.46002-13.23312 15.64781-14.04687 17.41463-1.39107 21.74933.037 24.71917 8.14453 2.92278 7.97916 5.37207 6.58437 4.93829-2.81251-1.01454-21.97424.69808-19.70753-15.42625-20.41601-14.46811-.63572-14.46856-.63508-4.90069-10.386718 5.26235-5.363388 12.01818-11.375566 15.01274-13.361326 3.90833-2.591622 4.28099-3.316883-8.08804-3.330081zm-155.43564 42.220704a147.23722 142.39507 0 0 0 -147.2368 142.39453 147.23722 142.39507 0 0 0 147.2368 142.39647 147.23722 142.39507 0 0 0 147.23679-142.39647 147.23722 142.39507 0 0 0 -147.23679-142.39453zm0 6.73047a140.27906 135.66575 0 0 1 140.27845 135.66406 140.27906 135.66575 0 0 1 -140.27845 135.66603 140.27906 135.66575 0 0 1 -140.27847-135.66603 140.27906 135.66575 0 0 1 140.27847-135.66406zm-203.401997 78.17383c-31.88087 0-31.880963-.00028-32.571784 49.72461-.703786 50.61185 2.571907 67.86166 5.221219 27.49414 1.361379-20.74327 6.226892-41.85802 12.723631-55.21876 2.274482-4.67726 1.892387-6.34905-2.140721-9.36132-4.425915-3.30548-2.778862-3.67654 16.698403-3.74805 20.530757-.0761 21.317737.12098 15.778413 3.95117-5.264142 3.63987-5.455873 4.44103-1.958703 8.25586 6.147115 6.70532 11.455799 31.20844 11.936199 55.09766.24302 12.09713.94188 22.84424 1.55509 23.88281 4.72365 8.00568 5.95012-3.28756 5.33003-49.0957-.6904-50.98375-.69178-50.98242-32.571777-50.98242zm385.741037.01c-4.37723.068-9.58122.45736-13.08764 1.02344-8.50072 1.37234-8.50008 1.37304-.65488 10.21875 8.45208 9.5299 15.76653 29.87101 15.76653 43.84375 0 8.5279-.18633 8.66406-11.9006 8.66406-11.90113 0-11.90256.00002-11.90256 12.06836 0 10.43138.53771 11.62768 3.96687 8.81836 2.182-1.7876 3.96688-4.86956 3.96688-6.84766 0-2.28921 3.01198-3.5957 8.2839-3.5957 8.07991 0 8.24394.23959 6.74861 9.79102-.84295 5.38479-2.32751 12.43319-3.3001 15.66406-1.6761 5.56593-1.04318 5.875 12.07072 5.875 13.11386 0 13.74852-.30901 12.07268-5.875-.97266-3.23087-2.46051-10.27927-3.30206-15.66406-1.48426-9.48001-1.27907-9.79102 6.42811-9.79102 5.22678 0 9.42413 2.01758 12.22699 5.875 4.18817 5.76404 4.25639 5.6769 3.62854-4.57031-.63628-10.39113-.70065-10.44914-12.97289-11.74805-12.33369-1.30538-12.33388-1.30579-5.88994-20.75976 3.5441-10.69969 9.441-24.50312 13.10548-30.67578 6.66243-11.22308 6.66236-11.22446-7.99507-11.55079-8.06154-.17948-18.52365-.50252-23.25112-.71874-1.18193-.0541-2.54937-.0676-4.00845-.0449zm25.04961 8.64453c1.07724-.10764-.39084 4.44729-3.69581 11.16797-3.7632 7.6525-7.76436 16.84957-8.8913 20.43946-1.68446 5.36904-2.09352 5.60189-2.30295 1.30664-.13908-2.8719-3.0246-11.09567-6.4123-18.2754-6.1592-13.054-6.16026-13.05527 5.37755-12.13476 6.38989.50981 13.21969-.45527 15.30553-2.16406.25966-.2129.46538-.32447.61928-.33986zm-67.49995 132.89844c-23.5145 0-23.51428-.00069-23.51428 15.01953 0 15.33301 2.18067 18.20282 8.29972 10.92383 1.89422-2.25298 5.15928-4.0957 7.25511-4.0957 3.07767 0 3.81055 8.40215 3.81055 43.69532 0 43.57561 3.61954 58.63725 6.72684 27.9922.87595-8.63652 3.02559-24.9202 4.77808-36.18554 1.75272-11.26507 3.17284-23.86174 3.15368-27.99222-.0189-4.13064 1.00161-7.50976 2.26537-7.50976 2.55009 0 10.73919-14.47359 10.73919-18.98047 0-1.77663-8.9407-2.86719-23.51426-2.86719zm-273.52342 2.18164v.002c-2.30581-.0231-4.90143.0163-7.83282.0703-11.25007.2248-20.45554.90682-20.45554 1.51562 0 .60957 5.78422 7.27244 12.85223 14.80859 7.06799 7.53647 12.42119 14.12769 11.89464 14.64843-.52701.51995-3.77788-.10885-7.21948-1.40039-3.44163-1.29166-12.04868-2.34764-19.12997-2.34764-12.87491 0-12.87467-.002 1.96266 14.27734 20.60375 19.8288 27.24065 29.44078 30.31631 43.916 2.27624 10.71299 2.0861 13.65842-1.32361 20.7168-1.80255 3.73194-2.79124 5.75342-4.24187 6.16017l2.76593 1.2539 2.18819 2.68751c-.0378-1.86255 1.31015-4.08272 3.67603-7.94143 8.98928-14.66102 7.15738-26.96247-7.75764-52.11326-4.34056-7.31925-7.40689-13.78821-6.81389-14.37305.59346-.58564 4.2232 1.54756 8.06429 4.73828 6.98384 5.80082 6.98123 5.79911 8.4323.0918 2.26507-8.90899-4.25723-28.80532-11.10918-33.88672-1.43487-1.0654 1.00942-1.31607 5.53184-.56836 4.78561.79113 10.32002 3.90962 13.52887 7.61914 5.43134 6.27861 5.43086 6.27797 4.2577-3.52149-1.6231-13.55788-3.44636-16.2146-19.58699-16.35351zm104.78842 54.67579c-4.10567.0499-3.11589.99697 5.47051 5.23242 5.76633 2.84455 11.72697 7.09841 13.24595 9.45313 2.76184 4.28148 2.76257 4.28126-15.78435 4.28126-10.20078 0-18.54829.4749-18.54829 1.05467 0 .57982 2.65973 5.77289 5.90974 11.53909 9.13551 16.20949 15.14426 50.20116 8.8735 50.20116-1.41108 0-3.72555-2.1414-5.14406-4.75782-2.6213-4.83526-5.78311-6.36204-5.78311-2.79296 0 3.90029 6.05491 16.15586 10.06455 20.36912 2.25456 2.3686 5.93244 4.30863 8.17509 4.30863 4.28672 0 20.30914-13.04187 20.30914-16.53128 0-1.11734 1.32021-3.11554 2.93608-4.43943 5.68533-4.65785 1.13225-4.04814-6.12539.82031-4.03909 2.70954-9.28907 4.92771-11.66712 4.92771-3.85767 0-4.12046-.53371-2.42365-4.93943 1.04602-2.71589 2.32334-12.02128 2.83913-20.67968.81616-13.7079.44063-16.36623-2.91233-20.57424-4.80803-6.03768-4.81891-6.98117-.0653-5.75392 2.11701.54641 7.76099-1.2209 12.82255-4.01366 9.04207-4.98883 9.04222-4.9877 16.95363-1.20703 14.45777 6.9092 19.14755 24.18878 12.04698 44.39062-4.22988 12.03447-8.03639 17.50999-15.41437 22.17578-6.09759 3.85266-6.09772 3.853 1.61247 3.81445 6.81629-.0378 8.40649-.97524 13.70694-8.09764 3.2976-4.43108 8.80803-13.3934 12.24681-19.91603 3.4387-6.52271 7.02945-12.33362 7.97923-12.91404.95509-.58273 1.72722 4.94925 1.72722 12.37889 0 7.68616.82597 13.43362 1.92901 13.43362 1.06016 0 1.92705-.29141 1.92705-.64846 0-.35565 1.66139-7.05913 3.69185-14.89648 2.97625-11.48783 3.31457-15.99197 1.74898-23.23827-2.39736-11.09643-6.35927-10.62335-10.06059 1.20117-1.63729 5.23079-6.64437 3.90898-10.82231-2.85547-3.77871-6.118-5.18228-14.76571-2.38803-14.72073 6.1929.11112 10.11995 2.77115 10.11995 6.8555 0 5.83638 2.58816 5.77504 6.52504-.1561 3.27761-4.93833 4.31149-18.1426 1.42055-18.1426-.93068 0-4.80639 1.28364-8.61234 2.85354-4.07267 1.67985-12.89406 2.85351-21.43885 2.85351-12.52653 0-14.52329-.45698-14.55967-3.33011-.0786-6.36007-21.07304-17.67927-32.53221-17.53904z"
       stroke-width="1.1771"
       id="path2"
       style="fill:#e9d262" />
  </g>
</svg>
