<?xml version="1.0" encoding="UTF-8" standalone="no"?>
<svg
   height="512"
   viewBox="0 0 135.46666 135.46667"
   width="512"
   version="1.1"
   id="svg1"
   sodipodi:docname="KWD_KIT_SpellDamageType_Wind_D.svg"
   inkscape:version="1.3.2 (091e20e, 2023-11-25, custom)"
   xmlns:inkscape="http://www.inkscape.org/namespaces/inkscape"
   xmlns:sodipodi="http://sodipodi.sourceforge.net/DTD/sodipodi-0.dtd"
   xmlns="http://www.w3.org/2000/svg"
   xmlns:svg="http://www.w3.org/2000/svg">
  <defs
     id="defs1" />
  <sodipodi:namedview
     id="namedview1"
     pagecolor="#ffffff"
     bordercolor="#000000"
     borderopacity="0.25"
     inkscape:showpageshadow="2"
     inkscape:pageopacity="0.0"
     inkscape:pagecheckerboard="0"
     inkscape:deskcolor="#d1d1d1"
     inkscape:zoom="0.81347656"
     inkscape:cx="263.06843"
     inkscape:cy="172.71549"
     inkscape:window-width="1920"
     inkscape:window-height="1009"
     inkscape:window-x="1042"
     inkscape:window-y="235"
     inkscape:window-maximized="1"
     inkscape:current-layer="svg1" />
  <path
     d="m 102.80707,5.5398279 c -6.689327,-0.139698 -16.207951,2.824758 -28.953328,10.5988401 -7.498345,5.513405 -2.541522,4.054646 1.848193,1.65292 23.993379,-13.1274031 27.093435,14.831512 10.093226,19.822636 -9.010287,2.645348 -46.772943,1.8783 -63.364823,-7.320691 -0.777059,-0.430821 -1.630719,-0.78349 -1.896896,-0.78349 -2.642404,0 5.874789,7.856628 11.980092,10.939262 8.071092,4.075186 13.48331,5.200102 24.282466,5.975718 1.816528,0.130519 13.168936,1.223535 3.253796,1.852976 -4.721992,0.08291 -3.373661,1.803086 1.704968,2.175247 11.397806,-0.165821 22.11044,-0.830047 29.927796,-3.598517 24.64032,-7.275091 32.9763,-40.8585511 11.12451,-41.3149011 z m 9.93328,44.9158091 c -2.09339,0.05047 -5.39694,0.928646 -9.86405,2.640277 -25.562946,9.794766 -39.362154,1.6005 -39.362154,5.636258 0,6.251465 46.264714,4.980095 51.203314,-4.374846 1.40568,-2.662729 0.71439,-3.966548 -1.97711,-3.901689 z M 80.548018,72.755262 c -9.398247,0.0191 -17.033872,1.317153 -17.033872,3.85681 0,4.035761 13.799204,-4.15851 39.362154,5.636261 4.46711,1.711638 7.77066,2.589836 9.86405,2.64028 2.6915,0.06487 3.38279,-1.238956 1.97711,-3.901692 -2.93231,-5.554497 -20.433532,-8.259339 -34.169442,-8.231659 z M 61.754764,85.013229 c -5.078629,0.372112 -6.42696,2.09235 -1.704968,2.175246 9.91514,0.629441 -1.437268,1.722509 -3.253796,1.852976 -10.799156,0.775605 -16.211374,1.900533 -24.282466,5.975717 -6.105303,3.08264 -14.622496,10.939252 -11.980092,10.939252 0.266188,0 1.119837,-0.35265 1.896896,-0.78348 16.59188,-9.198992 54.354536,-9.966042 63.364823,-7.320692 17.000209,4.991132 13.900153,32.950032 -10.093226,19.822642 -4.389715,-2.40173 -9.346538,-3.8605 -1.848193,1.65292 C 128.23404,152.49721 123.86583,98.113918 91.68256,88.611749 83.865204,85.843275 73.15257,85.17909 61.754764,85.013229 Z"
     fill="#c1c1c1"
     stroke-width="6.07204"
     id="path1"
     style="fill:#b2b2b2;fill-opacity:1" />
</svg>
