<?xml version="1.0" encoding="UTF-8" standalone="no"?>
<!-- Created with Inkscape (http://www.inkscape.org/) -->

<svg
   width="512"
   height="512"
   viewBox="0 0 135.46666 135.46667"
   version="1.1"
   id="svg1"
   xml:space="preserve"
   inkscape:version="1.3.2 (091e20e, 2023-11-25, custom)"
   sodipodi:docname="KWD_KIT_SpellDamage_Poison_R.svg"
   xmlns:inkscape="http://www.inkscape.org/namespaces/inkscape"
   xmlns:sodipodi="http://sodipodi.sourceforge.net/DTD/sodipodi-0.dtd"
   xmlns="http://www.w3.org/2000/svg"
   xmlns:svg="http://www.w3.org/2000/svg"><sodipodi:namedview
     id="namedview1"
     pagecolor="#ffffff"
     bordercolor="#000000"
     borderopacity="0.25"
     inkscape:showpageshadow="2"
     inkscape:pageopacity="0.0"
     inkscape:pagecheckerboard="0"
     inkscape:deskcolor="#d1d1d1"
     inkscape:document-units="px"
     inkscape:zoom="0.90509668"
     inkscape:cx="175.11941"
     inkscape:cy="208.26504"
     inkscape:window-width="1920"
     inkscape:window-height="1017"
     inkscape:window-x="1042"
     inkscape:window-y="235"
     inkscape:window-maximized="1"
     inkscape:current-layer="svg1"
     showgrid="false" /><defs
     id="defs1" /><path
     id="path9"
     style="display:inline;fill:#8abf40;stroke-width:3.0388;fill-opacity:1"
     d="M 67.423195,-1.1683726e-4 C 65.897606,-1.1683726e-4 54.267245,14.784611 41.283188,36.443653 28.523061,57.466122 8.5683226,81.27282 21.619186,108.0009 c 6.746273,15.74273 23.581144,25.43596 39.679318,27.16335 29.601991,3.1764 54.399266,-19.04024 54.399266,-48.738119 0,-12.678538 -2.61258,-18.351899 -21.352188,-46.364611 C 92.443644,37.218429 87.775225,29.906617 83.971539,23.812899 74.013999,7.8604839 68.551454,-1.1683726e-4 67.423195,-1.1683726e-4 Z M 67.114169,11.891146 c 0.664123,0.01638 1.170556,1.129058 1.797307,4.124813 C 77.7675,58.346153 -10.579967,133.52 57.278594,27.121224 64.208374,16.25568 66.007298,11.863846 67.114169,11.891146 Z"
     sodipodi:nodetypes="sccssscsssss" /></svg>
