<?xml version="1.0" encoding="UTF-8" standalone="no"?>
<!-- Created with Inkscape (http://www.inkscape.org/) -->

<svg
   width="512"
   height="512"
   viewBox="0 0 512 512"
   version="1.1"
   id="svg1"
   inkscape:version="1.3.2 (091e20e, 2023-11-25, custom)"
   sodipodi:docname="KWD_KIT_PowerTypeAbility_RegenNormal_P.svg"
   xml:space="preserve"
   xmlns:inkscape="http://www.inkscape.org/namespaces/inkscape"
   xmlns:sodipodi="http://sodipodi.sourceforge.net/DTD/sodipodi-0.dtd"
   xmlns="http://www.w3.org/2000/svg"
   xmlns:svg="http://www.w3.org/2000/svg"><sodipodi:namedview
     id="namedview1"
     pagecolor="#ffffff"
     bordercolor="#000000"
     borderopacity="0.25"
     inkscape:showpageshadow="2"
     inkscape:pageopacity="0.0"
     inkscape:pagecheckerboard="0"
     inkscape:deskcolor="#d1d1d1"
     inkscape:document-units="px"
     inkscape:zoom="1.008372"
     inkscape:cx="220.6527"
     inkscape:cy="212.71912"
     inkscape:window-width="1920"
     inkscape:window-height="1009"
     inkscape:window-x="1042"
     inkscape:window-y="235"
     inkscape:window-maximized="1"
     inkscape:current-layer="svg1" /><defs
     id="defs1" /><path
     id="path4"
     style="display:inline;fill:#d9c68c;fill-rule:evenodd;stroke-width:8.57864;paint-order:stroke fill markers"
     d="m 271.42001,30.5218 c 8.24833,14.480672 10.22986,30.72974 11.68069,45.210412 90.57692,28.426988 174.85024,145.162388 100.2094,249.420358 -1.11115,15.81067 5.82312,30.3889 16.79595,42.8988 C 504.98327,289.43665 497.98344,159.13736 443.07561,65.026941 432.278,171.67963 361.91336,17.326298 271.42001,30.5218 Z M 68.924373,65.06319 C 14.016564,159.17363 7.0167236,289.47291 111.89394,368.0876 122.86677,355.57773 129.80105,340.99949 128.68989,325.18883 54.049046,220.93086 138.32237,104.19547 228.89929,75.768469 230.35012,61.287798 232.33165,45.03873 240.57998,30.558052 150.08656,17.362542 79.722011,171.71595 68.924373,65.06319 Z M 276.7459,100.39007 c -7.56594,-0.0336 -14.87153,5.69706 -14.14941,15.51324 l -0.0275,-0.0569 5.71259,94.19126 c 17.63445,-8.66406 43.10476,3.66876 43.49786,24.47488 0.73142,22.56809 -0.40873,41.43412 0.0759,64.00723 -4.0362,3.67893 -9.58664,3.01849 -12.94612,0.15019 v -62.74703 c 0,-21.86629 -37.43135,-21.86633 -37.43135,0 v 155.29644 c 0,0.42185 0.0167,0.58653 0.16228,1.56236 12.83441,50.69521 92.44946,78.07045 144.34428,89.46788 l 22.26855,-73.69912 c -34.0842,-11.27746 -58.12859,-22.27159 -68.83764,-57.24327 -1.08493,-66.03167 1.06458,-104.22854 -4.87184,-119.33251 L 293.57463,111.72029 c -3.06133,-7.78847 -10.94406,-11.297 -16.82873,-11.32332 z m -41.49181,0.0363 v 0.007 c -5.88467,0.0263 -13.76739,3.53484 -16.82873,11.32331 l -60.96881,120.25435 c -5.93642,15.10397 -3.78692,53.30083 -4.87185,119.33251 -10.70904,34.97168 -34.75343,45.9658 -68.837636,57.24327 l 22.268566,73.69913 c 51.89483,-11.39743 131.50986,-38.77267 144.34429,-89.46787 0.14557,-0.97587 0.16227,-1.14053 0.16227,-1.56238 v -155.2966 c 0,-21.86631 -37.43135,-21.86627 -37.43135,0 v 62.74698 c -3.35948,2.86832 -8.9099,3.52875 -12.94612,-0.15018 0.48469,-22.57311 -0.65546,-41.43915 0.0759,-64.00725 0.3931,-20.8061 25.86341,-33.13891 43.49786,-24.47487 l 5.71259,-94.19126 -0.0276,0.0569 c 0.72212,-9.81617 -6.58347,-15.54683 -14.14942,-15.51324 z"
     sodipodi:nodetypes="cccccccccccccccccccsssccccccccccccccccssscccccccc" /></svg>
