<?xml version="1.0" encoding="UTF-8" standalone="no"?>
<!-- Created with Inkscape (http://www.inkscape.org/) -->

<svg
   width="512"
   height="512"
   viewBox="0 0 512 512"
   version="1.1"
   id="svg1"
   xml:space="preserve"
   sodipodi:docname="KWD_KIT_PowerActionType_Relax_P.svg"
   inkscape:version="1.4 (86a8ad7, 2024-10-11)"
   xmlns:inkscape="http://www.inkscape.org/namespaces/inkscape"
   xmlns:sodipodi="http://sodipodi.sourceforge.net/DTD/sodipodi-0.dtd"
   xmlns="http://www.w3.org/2000/svg"
   xmlns:svg="http://www.w3.org/2000/svg"><sodipodi:namedview
     id="namedview1"
     pagecolor="#ffffff"
     bordercolor="#000000"
     borderopacity="0.25"
     inkscape:showpageshadow="2"
     inkscape:pageopacity="0.0"
     inkscape:pagecheckerboard="0"
     inkscape:deskcolor="#d1d1d1"
     inkscape:document-units="px"
     showgrid="true"
     inkscape:zoom="0.70710678"
     inkscape:cx="234.05234"
     inkscape:cy="239.7092"
     inkscape:window-width="1920"
     inkscape:window-height="1009"
     inkscape:window-x="1072"
     inkscape:window-y="457"
     inkscape:window-maximized="1"
     inkscape:current-layer="svg1"><inkscape:grid
       id="grid1"
       units="px"
       originx="0"
       originy="0"
       spacingx="1"
       spacingy="1"
       empcolor="#0099e5"
       empopacity="0.30196078"
       color="#0099e5"
       opacity="0.14901961"
       empspacing="5"
       dotted="false"
       gridanglex="30"
       gridanglez="30"
       visible="true" /></sodipodi:namedview><defs
     id="defs1" /><path
     id="path2"
     style="display:inline;fill:#d9c68c;stroke-width:1.23412"
     d="M 299.07391,12.318332 271.99177,27.681666 307.8058,69.414164 C 291.08415,63.512363 271.84547,59.79478 255.99999,60.336623 135.01288,64.473831 36.32748,158.95132 36.32748,280.00914 c 0,121.05781 98.6147,219.67253 219.67251,219.67253 121.05781,0 219.67253,-98.61472 219.67253,-219.67253 0,-27.3998 -5.06751,-53.64074 -14.28632,-77.85774 l -39.88458,19.94349 c 6.30753,18.11802 9.74276,37.60074 9.74276,57.91425 0,83.18631 -57.47322,152.4705 -135.00549,170.58027 v -25.2873 c 0,-16.27746 -13.10513,-29.38255 -29.38256,-29.38255 h -16.77382 c -16.27747,0 -29.38255,13.10509 -29.38255,29.38255 v 26.41777 C 151.95776,437.75454 98.065296,383.76408 84.228989,314.97415 h 26.550351 c 16.27747,0 29.38252,-13.10752 29.38252,-29.38498 v -16.77144 c 0,-16.27741 -13.10505,-29.38497 -29.38253,-29.38497 H 85.496853 C 103.72851,162.07102 172.93422,104.76477 256,104.76477 c 12.34358,-0.006 34.17287,3.18354 46.24858,5.74115 l -54.10124,26.72667 17.34885,25.09908 C 301.82406,144.92983 339.47957,129.12111 379.18496,115.77225 355.40177,78.933352 326.84418,45.616182 299.07391,12.318332 Z M 252.30727,219.35189 c -1.01299,0.006 -2.02621,0.0816 -3.02741,0.22175 -6.01116,0.84258 -11.67832,4.04573 -15.5325,9.34745 l -0.0192,-0.0168 -0.21453,0.30853 -92.01392,134.39805 c -2.02935,2.88592 -3.83781,6.09367 -3.59146,9.36916 v 0.005 c 2.0406,27.13158 31.903,34.77558 43.30732,18.55751 l 82.67849,-121.12654 88.66103,28.6811 c 43.41405,11.10105 53.73473,-34.67012 5.2908,-49.41281 L 255.34917,219.526 v 0.005 c -1.01324,-0.12666 -2.02805,-0.18549 -3.0419,-0.17834 z"
     sodipodi:nodetypes="cccssssccscssssccssssccccccccccccccccccccccc" /></svg>
