<?xml version="1.0" encoding="UTF-8" standalone="no"?>
<!-- Created with Inkscape (http://www.inkscape.org/) -->

<svg
   width="512"
   height="512"
   viewBox="0 0 512 512"
   version="1.1"
   id="svg1"
   inkscape:version="1.3.2 (091e20e, 2023-11-25, custom)"
   sodipodi:docname="destruction_frost.svg"
   xmlns:inkscape="http://www.inkscape.org/namespaces/inkscape"
   xmlns:sodipodi="http://sodipodi.sourceforge.net/DTD/sodipodi-0.dtd"
   xmlns="http://www.w3.org/2000/svg"
   xmlns:svg="http://www.w3.org/2000/svg">
  <sodipodi:namedview
     id="namedview1"
     pagecolor="#ffffff"
     bordercolor="#000000"
     borderopacity="0.25"
     inkscape:showpageshadow="2"
     inkscape:pageopacity="0.0"
     inkscape:pagecheckerboard="0"
     inkscape:deskcolor="#d1d1d1"
     inkscape:document-units="px"
     inkscape:zoom="1.1131408"
     inkscape:cx="245.252"
     inkscape:cy="257.37985"
     inkscape:window-width="1920"
     inkscape:window-height="1017"
     inkscape:window-x="1042"
     inkscape:window-y="276"
     inkscape:window-maximized="1"
     inkscape:current-layer="svg1" />
  <defs
     id="defs1" />
  <path
     d="m 211.45344,44.767078 q 0,-17.304923 13.54298,-30.847906 Q 237.97511,-4.9999999e-6 254.90384,-4.9999999e-6 q 19.37399,0 32.91698,13.9191769999999 13.54298,13.542983 13.54298,30.847906 0,18.621602 -14.48347,34.42175 -9.40485,7.523877 -13.91918,8.088167 V 210.29243 l 17.11683,-29.15503 -1.69287,-3.57384 -1.50478,-3.19765 q -4.51433,-9.02866 2.44526,-18.43351 9.78105,-17.11682 30.09552,-7.90007 7.14769,3.76194 9.59295,13.54298 2.06906,9.02866 -1.50478,16.36444 -4.13813,8.65246 -15.42395,11.28582 h -5.07862 -3.95004 l -18.4335,31.78839 109.66054,-63.57678 -0.18809,-7.33578 q -0.75239,-3.38575 0.18809,-7.71198 2.63336,-19.93828 21.81925,-30.65981 15.80015,-8.46436 33.48127,-4.13813 18.4335,4.32623 28.02645,19.56208 8.08817,17.30492 3.95004,35.55034 -4.32623,18.4335 -21.06687,26.52167 -9.59294,4.89052 -18.6216,6.5834 -8.65246,2.25716 -18.4335,-1.69288 l -7.33579,-3.95003 -7.14768,-5.26672 -107.40338,62.8244 h 37.99559 q 0,-3.57385 2.82145,-7.14769 7.14769,-6.95959 17.30493,-6.95959 21.25496,0 21.25496,22.00734 0,22.00735 -21.25496,22.00735 -12.22631,0 -17.30493,-6.5834 -2.82145,-4.89051 -2.82145,-8.08817 h -36.67891 l 108.34386,63.38869 q 3.76194,-2.82146 7.52388,-3.95004 l 7.71198,-3.19765 q 19.37399,-6.2072 36.11462,3.19765 15.04776,9.40485 20.12638,27.08597 5.07862,17.86921 -5.07862,34.42175 -9.59295,17.11683 -28.02645,22.19545 -17.68112,5.07862 -33.48127,-4.89052 -19.18589,-11.09772 -21.81925,-33.48126 -0.94048,-3.38575 -0.18809,-6.95959 l 0.18809,-6.95959 -109.66054,-63.76488 19.93828,34.23365 2.44526,-0.37619 5.07862,0.37619 q 10.90962,3.76194 15.42395,10.15724 8.08817,18.8097 -8.08817,30.09552 -18.8097,10.34533 -30.09552,-6.95959 -8.08817,-10.15724 -2.44526,-20.12638 1.50478,-3.95004 5.26672,-5.64291 l -19.1859,-31.2241 V 425.0992 q 8.84056,4.13813 13.91918,8.84056 14.48347,12.97869 14.48347,33.85745 0,17.30493 -13.54298,30.8479 Q 274.27783,512 254.90384,512 q -16.92873,0 -29.90742,-13.35489 -13.54298,-13.54298 -13.54298,-30.84791 0,-21.63115 15.23585,-35.55033 l 6.95959,-4.13813 6.95959,-3.00955 V 297.75753 l -19.37399,34.04556 q -0.56429,0.56429 1.88097,2.06907 l 1.12858,3.57384 q 3.95004,10.34533 -2.06906,20.12638 -9.21676,17.30492 -27.83836,6.95959 -20.12638,-11.28582 -8.08817,-30.09552 5.07862,-8.27627 12.97869,-10.15724 5.83101,-1.69287 9.02866,0 l 19.18589,-33.66936 -112.2939,63.20059 q 2.63336,4.89052 1.50478,13.91918 -4.13814,25.20499 -21.254956,33.48126 -15.42396,8.08817 -33.481269,4.32623 -18.057311,-3.76194 -27.274063,-21.63115 -7.335783,-14.67157 -2.821455,-31.4122 4.32623,-17.11683 19.185893,-26.14548 17.869214,-10.34534 35.362234,-3.95004 l 9.40485,3.95004 114.551066,-63.38869 h -37.4313 l -0.3762,2.06907 -2.63336,6.0191 q -2.82145,6.5834 -15.80014,6.5834 -23.51213,0 -23.51213,-22.00735 0,-22.00735 23.51213,-22.00735 10.72152,0 14.85966,6.95959 l 3.95004,7.14769 h 38.55988 L 97.466664,184.89934 q 0,0.75239 -8.08817,4.32623 -16.55253,8.08817 -38.371784,0 -15.800147,-8.08817 -21.443057,-26.52167 -5.64291,-18.05731 5.078619,-34.23366 9.592946,-16.17634 26.897869,-19.18589 17.116823,-3.19765 31.788393,5.26672 15.612046,9.02865 20.314466,29.34313 l 0.1881,6.39529 -0.1881,7.14769 112.8582,62.4482 -18.24541,-30.65981 h -7.14769 q -9.59294,0 -14.85966,-11.28582 -5.83101,-7.33578 -3.57384,-16.36444 1.50477,-9.78104 9.40485,-13.54298 21.81925,-8.46436 30.09552,7.90007 5.26671,9.21676 2.06906,18.43351 l -1.12858,3.19765 q -2.44526,1.69287 -1.88097,3.57384 l 19.37399,33.66936 V 87.276995 Q 237.59892,87.088905 226.68929,80.8817 211.45344,64.141068 211.45344,44.767078"
     fill="#38ffff"
     fill-rule="evenodd"
     stroke="none"
     id="path516"
     style="stroke-width:3.76194;fill:#a3e5f5;fill-opacity:1" />
</svg>
