<?xml version="1.0" encoding="UTF-8" standalone="no"?>
<!-- Created with Inkscape (http://www.inkscape.org/) -->

<svg
   width="512"
   height="512"
   viewBox="0 0 512 512"
   version="1.1"
   id="svg1"
   sodipodi:docname="KWD_KIT_PowerTypeEnhance_Weapon_P.svg"
   inkscape:version="1.3.2 (091e20e, 2023-11-25, custom)"
   xml:space="preserve"
   xmlns:inkscape="http://www.inkscape.org/namespaces/inkscape"
   xmlns:sodipodi="http://sodipodi.sourceforge.net/DTD/sodipodi-0.dtd"
   xmlns="http://www.w3.org/2000/svg"
   xmlns:svg="http://www.w3.org/2000/svg"><sodipodi:namedview
     id="namedview1"
     pagecolor="#ffffff"
     bordercolor="#000000"
     borderopacity="0.25"
     inkscape:showpageshadow="2"
     inkscape:pageopacity="0.0"
     inkscape:pagecheckerboard="0"
     inkscape:deskcolor="#d1d1d1"
     inkscape:document-units="px"
     inkscape:zoom="0.78710941"
     inkscape:cx="351.28534"
     inkscape:cy="272.51612"
     inkscape:window-width="1920"
     inkscape:window-height="1009"
     inkscape:window-x="1042"
     inkscape:window-y="235"
     inkscape:window-maximized="1"
     inkscape:current-layer="svg1" /><defs
     id="defs1"><inkscape:path-effect
       effect="fillet_chamfer"
       id="path-effect6"
       is_visible="true"
       lpeversion="1"
       nodesatellites_param="F,0,0,1,0,0,0,1 @ F,0,0,1,0,0,0,1 @ F,0,0,1,0,6.7269084,0,1 @ F,0,0,1,0,0,0,1 @ F,0,0,1,0,0,0,1"
       radius="0"
       unit="px"
       method="auto"
       mode="F"
       chamfer_steps="1"
       flexible="false"
       use_knot_distance="true"
       apply_no_radius="true"
       apply_with_radius="true"
       only_selected="false"
       hide_knots="false" /></defs><path
     id="path1"
     style="display:inline;fill:#d9c68c;fill-opacity:1;fill-rule:evenodd;stroke:none;stroke-width:0.940682"
     d="M 113.11435,0 80.110156,19.977203 144.08374,125.4067 100.79232,151.7706 c -10.699441,6.04287 -12.345622,26.10236 -2.896418,41.71316 L 257.68275,96.7656 C 248.52226,80.969591 231.06309,72.96507 219.87747,79.529065 L 177.27159,105.47433 Z M 66.824712,48.188731 C -3.1629692,99.180275 55.595704,246.11823 0,197.62705 13.870972,339.83869 124.10595,379.82327 254.34191,358.37328 L 229.57536,318.39819 C 90.095819,312.51832 36.397015,167.78894 86.859262,83.792868 Z M 212.86982,142.70809 160.97594,174.11905 358.84825,496.0211 403.35383,512 l 6.56126,-48.75819 z m 231.27963,45.30929 c -0.17421,3.84413 0.95976,8.67441 -2.15678,15.59268 -15.63611,34.70984 -113.04971,-34.06644 -181.18738,-12.6978 l 22.25524,34.25923 c 109.41472,5.56712 223.67469,111.69208 140.77115,236.21281 L 416.96399,512 C 498.73325,497.29368 566.9045,298.84687 444.14945,188.01738 Z"
     sodipodi:nodetypes="ccccccccccccccccccccccsccccc" /></svg>
