<?xml version="1.0" encoding="UTF-8" standalone="no"?>
<!-- Created with Inkscape (http://www.inkscape.org/) -->

<svg
   width="512"
   height="512"
   viewBox="0 0 512 512"
   version="1.1"
   id="svg1"
   sodipodi:docname="KWD_ABB_KIT_PowerAction_TransformWerewolf_P.svg"
   inkscape:version="1.3.2 (091e20e, 2023-11-25, custom)"
   xmlns:inkscape="http://www.inkscape.org/namespaces/inkscape"
   xmlns:sodipodi="http://sodipodi.sourceforge.net/DTD/sodipodi-0.dtd"
   xmlns="http://www.w3.org/2000/svg"
   xmlns:svg="http://www.w3.org/2000/svg">
  <sodipodi:namedview
     id="namedview1"
     pagecolor="#ffffff"
     bordercolor="#000000"
     borderopacity="0.25"
     inkscape:showpageshadow="2"
     inkscape:pageopacity="0.0"
     inkscape:pagecheckerboard="0"
     inkscape:deskcolor="#d1d1d1"
     inkscape:document-units="px"
     inkscape:zoom="1.1131408"
     inkscape:cx="280.73717"
     inkscape:cy="243.90445"
     inkscape:window-width="1920"
     inkscape:window-height="1017"
     inkscape:window-x="1042"
     inkscape:window-y="235"
     inkscape:window-maximized="1"
     inkscape:current-layer="svg1" />
  <defs
     id="defs1" />
  <path
     id="rect1"
     style="fill:#d9c68c;fill-rule:evenodd;stroke-width:5.37993"
     d="M 500.49517,3.5072551e-4 C 320.20768,107.90178 355.34351,-35.929917 137.9229,45.283551 c 26.42863,22.69352 45.35336,37.46221 50.09375,69.501959 -40.99339,14.67612 -67.01695,-2.89417 -92.919923,-23.720709 -4.23831,31.119469 3.02996,49.068929 30.794923,57.072269 0.42488,34.10899 -38.929313,39.10852 -58.810545,40.52539 34.940255,19.27667 73.366815,18.27091 97.640625,-35.58594 7.73791,0.19986 16.1241,0.15796 25.39844,-0.17578 -38.81999,133.90717 -105.386465,91.44984 -115.884775,170.66016 14.879162,-8.26848 54.399785,-16.17297 55.429695,-0.59571 2.75277,41.63509 -114.286195,130.76545 -114.160155,148.42188 0.0281,3.93304 13.47932,0.005 16.7871,3.2207 80.157165,77.93691 359.994645,40.96441 359.458995,-176.76953 -100.39607,82.99505 -140.78422,7.82691 -156.37891,79.13867 27.44651,-9.87576 61.95305,-12.56407 79.27735,-8.94725 44.41889,9.27336 -3.85164,59.61083 -58.51758,85.91796 -71.95708,34.62822 -184.238125,40.93196 -161.792973,-9.18165 33.130253,-73.97039 120.456833,-96.27825 74.402343,-136.55858 -22.25198,-19.46211 34.29272,-40.2157 87.05664,-48.07032 36.58436,-76.67031 103.78465,-94.27942 180.08985,-105.90039 -23.1192,75.89098 -157.99122,162.14483 -83.75,47.40234 -28.6298,14.66853 -98.04386,70.49515 -41.29492,88.26758 57.49659,18.00655 117.35729,-66.43914 180.02343,-146.5918 C 416.84577,100.49681 293.08341,105.53388 227.27447,229.64683 258.47735,-60.43656 378.32872,191.01474 500.49517,3.5072551e-4 Z M 252.49712,279.80308 c -19.79081,2.27737 -65.39461,6.1699 -58.17968,25.50391 4.48593,12.0211 15.668,25.92323 7.18164,42.65821 21.44593,-20.33903 49.20881,-37.29271 50.99804,-68.16212 z"
     sodipodi:nodetypes="cccccccccsscccsssscccsccccscc" />
</svg>
