<?xml version="1.0" encoding="UTF-8" standalone="no"?>
<!-- Created with Inkscape (http://www.inkscape.org/) -->

<svg
   width="512"
   height="512"
   viewBox="0 0 135.46666 135.46667"
   version="1.1"
   id="svg1"
   inkscape:version="1.3.2 (091e20e, 2023-11-25, custom)"
   sodipodi:docname="KWD_KIT_SpellAbsorbType_HealthRune_D.svg"
   xmlns:inkscape="http://www.inkscape.org/namespaces/inkscape"
   xmlns:sodipodi="http://sodipodi.sourceforge.net/DTD/sodipodi-0.dtd"
   xmlns="http://www.w3.org/2000/svg"
   xmlns:svg="http://www.w3.org/2000/svg">
  <sodipodi:namedview
     id="namedview1"
     pagecolor="#ffffff"
     bordercolor="#000000"
     borderopacity="0.25"
     inkscape:showpageshadow="2"
     inkscape:pageopacity="0.0"
     inkscape:pagecheckerboard="0"
     inkscape:deskcolor="#d1d1d1"
     inkscape:document-units="px"
     showgrid="false"
     inkscape:zoom="1.0595392"
     inkscape:cx="218.0193"
     inkscape:cy="253.41205"
     inkscape:window-width="1920"
     inkscape:window-height="1009"
     inkscape:window-x="1042"
     inkscape:window-y="235"
     inkscape:window-maximized="1"
     inkscape:current-layer="svg1">
    <inkscape:grid
       id="grid1"
       units="px"
       originx="0"
       originy="0"
       spacingx="0.26458332"
       spacingy="0.26458334"
       empcolor="#0099e5"
       empopacity="0.30196078"
       color="#0099e5"
       opacity="0.14901961"
       empspacing="5"
       dotted="false"
       gridanglex="30"
       gridanglez="30"
       visible="false" />
  </sodipodi:namedview>
  <defs
     id="defs1" />
  <path
     id="path12"
     style="fill:#99192a;fill-opacity:1;stroke-width:2.2034"
     d="M 67.733329,2.9111392 C 31.932828,2.9110092 2.9104151,31.933434 2.9105391,67.733937 2.9106995,103.53423 31.93303,132.55565 67.733329,132.55553 103.53363,132.55565 132.55597,103.53423 132.55613,67.733937 132.55625,31.933434 103.53383,2.9110156 67.733329,2.9111392 Z m 0,5.2161394 C 100.65306,8.1274207 127.33985,34.814204 127.33999,67.733937 127.33984,100.65367 100.65306,127.34045 67.733329,127.34059 34.813593,127.34045 8.1268183,100.65367 8.1266762,67.733937 8.1268183,34.814204 34.813593,8.127413 67.733329,8.1272786 Z m -7.216772,9.2137724 c -7.684365,-0.03825 -15.470312,0.157566 -15.997775,0.898166 -1.219747,1.712605 -0.384519,3.437296 1.106091,6.317399 14.745729,28.491335 19.427213,61.869199 2.277449,91.133184 -1.041408,1.77696 -1.396966,3.02418 -1.14598,4.02422 0.517451,2.0616 2.672781,1.62853 3.87554,-0.77849 9.822826,-16.23205 20.777248,-33.459643 22.108459,-52.921771 0.0104,-2.933592 0.01085,-2.933507 3.691797,0.855855 2.024531,2.084152 3.779483,4.404802 4.272037,4.867992 1.301631,1.224018 1.019468,1.123307 2.956824,-0.129344 15.12965,-9.782516 11.864353,-54.501653 5.421641,-50.519808 -2.633377,1.627521 3.823253,22.231799 -7.233695,30.859253 -1.554933,1.110771 -2.391069,1.04521 -3.593878,-0.141438 -6.214578,-6.131023 -7.547792,-14.346068 -9.415647,-23.121466 -0.809631,-4.995865 8.483769,-8.54076 7.064451,-10.837247 -0.121028,-0.195854 -7.702944,-0.468261 -15.387314,-0.506505 z" />
</svg>
