<?xml version="1.0" encoding="UTF-8" standalone="no"?>
<svg
   height="512"
   viewBox="0 0 135.46666 135.46667"
   width="512"
   version="1.1"
   id="svg1"
   sodipodi:docname="KWD_KIT_SpellEnhanceType_Sight_I - Copy.svg"
   inkscape:version="1.4 (86a8ad7, 2024-10-11)"
   xmlns:inkscape="http://www.inkscape.org/namespaces/inkscape"
   xmlns:sodipodi="http://sodipodi.sourceforge.net/DTD/sodipodi-0.dtd"
   xmlns="http://www.w3.org/2000/svg"
   xmlns:svg="http://www.w3.org/2000/svg">
  <defs
     id="defs1" />
  <sodipodi:namedview
     id="namedview1"
     pagecolor="#ffffff"
     bordercolor="#000000"
     borderopacity="0.25"
     inkscape:showpageshadow="2"
     inkscape:pageopacity="0.0"
     inkscape:pagecheckerboard="0"
     inkscape:deskcolor="#d1d1d1"
     inkscape:zoom="1.5742187"
     inkscape:cx="249.33003"
     inkscape:cy="248.05956"
     inkscape:window-width="1920"
     inkscape:window-height="1009"
     inkscape:window-x="1072"
     inkscape:window-y="386"
     inkscape:window-maximized="1"
     inkscape:current-layer="svg1" />
  <path
     d="M 67.114772,23.813224 C 49.040136,23.67015 32.528019,33.995116 18.93404,46.076461 12.559781,51.971997 6.3786918,58.261893 1.2173012,65.420768 -2.0615665,70.695912 1.9043385,76.336484 5.7745442,79.568496 21.191721,95.545016 40.382141,109.06331 62.05476,111.40165 c 13.080012,1.3583 26.184384,-2.18519 37.794613,-8.61769 12.770117,-6.955268 24.303287,-16.597456 34.019317,-27.911128 4.03699,-5.27606 -0.41161,-11.305664 -4.11183,-14.981227 C 115.65883,43.592965 98.208868,29.089447 77.567556,24.657197 74.123916,23.97957 70.614188,23.664787 67.114772,23.813224 Z m 1.340716,14.929279 C 83.253712,38.470207 95.864408,54.012677 94.434676,69.807728 93.671444,85.0416 80.365156,97.903832 66.261092,96.74614 51.41102,96.42222 38.805095,80.544112 40.956349,64.5645 42.078909,50.046425 54.940368,37.658441 68.455488,38.742503 Z m 26.980248,6.236518 c 10.134994,6.332996 19.099354,14.73842 26.976954,24.058303 -2.06043,5.388104 -9.18908,9.278888 -13.54101,13.532508 -5.25471,4.055108 -10.8554,7.938712 -16.749048,10.61728 11.256558,-12.153724 12.818978,-33.219723 2.977384,-46.897199 -1.337688,-2.217132 -3.191976,-3.736096 0.33576,-1.310892 z M 41.561017,44.071197 c -9.075101,11.70768 -10.543631,29.622347 -2.964412,42.628703 1.091831,2.943816 7.594736,9.04552 1.47148,5.054624 C 29.758752,86.146476 20.466103,78.498728 12.289307,69.716568 20.703793,59.582409 30.461645,50.571809 41.561017,44.071197 Z m 26.756107,5.29802 C 58.532488,48.326805 49.515416,58.504573 50.708716,69.056272 50.947196,80.627088 63.195012,89.32514 73.157524,85.137692 82.502468,82.085276 87.456316,69.47836 83.179568,60.054717 80.501196,53.992469 74.627852,49.336665 68.317124,49.369217 Z"
     fill="#931826"
     stroke-width="0.842036"
     id="path1"
     style="fill:#a3c5f5;fill-opacity:1" />
</svg>
