<?xml version="1.0" encoding="UTF-8" standalone="no"?>
<!-- Created with Inkscape (http://www.inkscape.org/) -->

<svg
   width="512"
   height="512"
   viewBox="0 0 512 512"
   version="1.1"
   id="svg1"
   inkscape:version="1.3.2 (091e20e, 2023-11-25, custom)"
   sodipodi:docname="KWD_KIT_MagicEnhance_Weight.svg"
   xmlns:inkscape="http://www.inkscape.org/namespaces/inkscape"
   xmlns:sodipodi="http://sodipodi.sourceforge.net/DTD/sodipodi-0.dtd"
   xmlns="http://www.w3.org/2000/svg"
   xmlns:svg="http://www.w3.org/2000/svg">
  <sodipodi:namedview
     id="namedview1"
     pagecolor="#ffffff"
     bordercolor="#000000"
     borderopacity="0.25"
     inkscape:showpageshadow="2"
     inkscape:pageopacity="0.0"
     inkscape:pagecheckerboard="0"
     inkscape:deskcolor="#d1d1d1"
     inkscape:document-units="px"
     inkscape:zoom="1.1131408"
     inkscape:cx="256.0323"
     inkscape:cy="246.59953"
     inkscape:window-width="1920"
     inkscape:window-height="1017"
     inkscape:window-x="1042"
     inkscape:window-y="276"
     inkscape:window-maximized="1"
     inkscape:current-layer="layer1" />
  <defs
     id="defs1" />
  <g
     inkscape:label="Layer 1"
     inkscape:groupmode="layer"
     id="layer1">
    <path
       id="path1"
       style="fill:#8ed65c;stroke-width:2.1498"
       d="M 258.06543,0.10699471 C 171.33709,-0.19345529 84.608401,23.562013 84.608401,72.273003 V 180.21246 c 46.543409,15.28285 86.797529,23.70242 132.720699,26.29493 v -85.5293 c 0,-18.09942 20.56855,-32.671891 38.66797,-32.671891 18.09941,0 38.67187,14.572471 38.67187,32.671891 v 85.30078 c 48.0378,-3.00991 89.68063,-12.06063 136.85352,-26.35156 V 72.273003 c 0,-47.5092 -86.72869,-71.86557829 -173.45703,-72.16600829 z M 80.47559,214.52496 c -18.234839,0 -36.91407,14.68119 -36.91407,32.91602 v 155.59764 c 0,18.2349 18.679231,32.916 36.91407,32.916 1.90658,0 3.76198,-0.1958 5.57812,-0.5039 39.73671,112.9634 324.61876,90.1329 343.91211,0.4258 0.5195,0.023 1.03094,0.0781 1.55664,0.0781 18.23483,2e-4 36.91602,-14.6791 36.91602,-32.914 V 247.44098 c 0,-18.23483 -18.68119,-32.91602 -36.91602,-32.91602 -47.80945,15.43806 -89.42646,24.48939 -136.85352,27.33985 v 38.91992 h 24.14649 c 3.09384,0 5.58594,2.49014 5.58594,5.58398 v 100.83008 c 0,3.09385 -2.4921,5.58594 -5.58594,5.58594 h -24.14649 v 64.06449 c 0,18.0993 -20.57246,32.6699 -38.67187,32.6699 -18.09942,0 -38.66797,-14.5706 -38.66797,-32.6699 v -64.06449 h -24.14648 c -3.09385,0 -5.58399,-2.49209 -5.58399,-5.58594 V 286.36871 c 0,-3.09384 2.49014,-5.58398 5.58399,-5.58398 h 24.14648 v -38.99609 c -46.42585,-2.91172 -86.66868,-11.82108 -132.720699,-26.97852 -1.35592,-0.16879 -2.729721,-0.28516 -4.132811,-0.28516 z"
       sodipodi:nodetypes="ssccsssccsssssscccsscccsssscssscsssscccs" />
    <path
       id="rect3"
       style="display:inline;fill:#86e052;fill-rule:evenodd;stroke-width:3.2559"
       d="m 255.39941,104.31598 c -7.4257,0.13931 -14.41518,5.89642 -15.71107,13.25755 -0.69763,3.88089 -0.23052,7.83753 -0.36118,11.75339 6.4e-4,55.81927 0.001,111.63854 0.002,167.45781 -9.91472,-0.002 -19.82943,-0.004 -29.74414,0.01 0.0104,26.66666 0.0208,53.33333 0.0312,80 9.90429,-0.003 19.80859,-0.008 29.71289,-0.01 0.0135,27.29799 -0.0737,54.59759 0.102,81.89439 0.67122,7.1891 6.58376,13.5831 13.76864,14.6058 5.80374,0.9972 12.12523,-1.2453 15.7646,-5.9316 2.63848,-3.2089 3.88982,-7.4236 3.7095,-11.5522 2.6e-4,-26.3387 -0.003,-52.6776 -0.005,-79.01639 9.91472,0.002 19.82943,0.004 29.74414,-0.01 -0.01,-26.66601 -0.0195,-53.33203 -0.0293,-79.99804 -9.90495,0.002 -19.80989,0.006 -29.71484,0.008 -0.008,-59.07738 0.0285,-118.15569 -0.063,-177.23247 -0.49049,-7.21082 -6.26479,-13.75248 -13.43281,-14.92965 -1.24089,-0.24564 -2.51013,-0.33355 -3.77376,-0.30663 z" />
  </g>
</svg>
