<?xml version="1.0" encoding="UTF-8" standalone="no"?>
<svg
   height="512"
   viewBox="0 0 135.46666 135.46667"
   width="512"
   version="1.1"
   id="svg2"
   sodipodi:docname="KWD_KIT_SpellDamageType_EldritchRune_R.svg"
   inkscape:version="1.3.2 (091e20e, 2023-11-25, custom)"
   xmlns:inkscape="http://www.inkscape.org/namespaces/inkscape"
   xmlns:sodipodi="http://sodipodi.sourceforge.net/DTD/sodipodi-0.dtd"
   xmlns="http://www.w3.org/2000/svg"
   xmlns:svg="http://www.w3.org/2000/svg">
  <defs
     id="defs2" />
  <sodipodi:namedview
     id="namedview2"
     pagecolor="#ffffff"
     bordercolor="#000000"
     borderopacity="0.25"
     inkscape:showpageshadow="2"
     inkscape:pageopacity="0.0"
     inkscape:pagecheckerboard="0"
     inkscape:deskcolor="#d1d1d1"
     inkscape:zoom="0.3935547"
     inkscape:cx="147.37469"
     inkscape:cy="252.82381"
     inkscape:window-width="1920"
     inkscape:window-height="1009"
     inkscape:window-x="1042"
     inkscape:window-y="235"
     inkscape:window-maximized="1"
     inkscape:current-layer="svg2" />
  <path
     id="path1-8"
     style="fill:#85a036;fill-opacity:1;stroke-width:0.297505"
     d="M 67.733337,3.0419325 C 32.005078,3.0418045 3.0412076,32.0057 3.0413241,67.73394 3.0414869,103.46197 32.005288,132.42487 67.733337,132.42473 103.46133,132.42487 132.42518,103.46197 132.42534,67.73394 132.42546,32.0057 103.46154,3.0418115 67.733337,3.0419325 Z m 0,5.2056148 C 100.58659,8.2476897 127.21959,34.88066 127.21973,67.73394 127.21959,100.58721 100.58659,127.22018 67.733337,127.22032 34.880047,127.22018 8.2470864,100.58721 8.2469461,67.73394 8.2470864,34.88066 34.880047,8.247685 67.733337,8.2475473 Z M 63.393918,18.494708 c -1.381339,-0.0067 -2.947549,4.58e-4 -4.679628,0.02532 h -0.0012 l -10.990304,0.156834 c -1.031605,9.374228 -1.01699,18.794512 0.0097,28.168242 0.425514,1.914527 2.041589,1.073542 4.344251,-2.260796 2.464634,-3.568919 4.917241,-5.282096 8.711432,-6.085082 4.837633,-1.023838 4.634478,-1.559462 4.721835,12.472972 0.0705,23.416518 -1.804026,49.708632 1.02666,71.353762 0.20964,1.60386 0.996072,2.14533 1.365628,0.78535 2.478262,-9.12022 6.096312,-35.955854 6.298625,-43.799562 0.224347,-17.368718 7.817085,-32.292484 4.580709,-35.486268 -0.824068,-0.813241 -2.926726,-4.967946 -2.651667,-5.239395 0.124897,-0.123287 1.231036,0.05207 2.458617,0.388463 1.227593,0.336374 2.552591,0.613501 2.943637,0.615262 0.898489,0.0044 2.213052,-2.52795 2.703535,-5.205615 0.207313,-1.131469 1.049564,-2.678711 1.871124,-3.438245 0.821525,-0.759523 2.434258,-3.283996 3.584197,-5.608554 2.852067,-5.765262 2.792848,-5.800371 -9.446097,-5.800371 -5.600308,0 -9.5924,-0.235433 -9.947971,-0.586311 -0.280794,-0.277102 -2.757847,-0.435591 -6.901819,-0.456018 z" />
</svg>
