<?xml version="1.0" encoding="UTF-8" standalone="no"?>
<svg
   height="512"
   viewBox="0 0 512 512"
   width="512"
   version="1.1"
   id="svg2"
   sodipodi:docname="KWD_KIT_SpellCommandType_NormalRune_I.svg"
   inkscape:version="1.3.2 (091e20e, 2023-11-25, custom)"
   xmlns:inkscape="http://www.inkscape.org/namespaces/inkscape"
   xmlns:sodipodi="http://sodipodi.sourceforge.net/DTD/sodipodi-0.dtd"
   xmlns="http://www.w3.org/2000/svg"
   xmlns:svg="http://www.w3.org/2000/svg">
  <defs
     id="defs2" />
  <sodipodi:namedview
     id="namedview2"
     pagecolor="#ffffff"
     bordercolor="#000000"
     borderopacity="0.25"
     inkscape:showpageshadow="2"
     inkscape:pageopacity="0.0"
     inkscape:pagecheckerboard="0"
     inkscape:deskcolor="#d1d1d1"
     inkscape:zoom="0.82128905"
     inkscape:cx="424.94174"
     inkscape:cy="246.56362"
     inkscape:window-width="1920"
     inkscape:window-height="1009"
     inkscape:window-x="1042"
     inkscape:window-y="235"
     inkscape:window-maximized="1"
     inkscape:current-layer="svg2" />
  <path
     id="path12-1"
     style="fill:#bf4b40;fill-opacity:1;stroke-width:8.32781"
     d="M 255.99999,11.00274 C 120.69101,11.00225 10.999995,120.6933 11.000465,256.00229 c 6e-4,135.3082 109.691305,244.99544 244.999525,244.99497 135.3082,4.7e-4 244.99895,-109.68677 244.99955,-244.99497 C 501.00001,120.6933 391.30897,11.00227 255.99999,11.00274 Z m 0,19.71454 C 380.42102,30.71782 481.28447,131.58125 481.28498,256.00229 481.28444,380.42332 380.42102,481.28674 255.99999,481.28728 131.57894,481.28674 30.715535,380.42332 30.714995,256.00229 30.715535,131.58125 131.57894,30.71779 255.99999,30.71728 Z M 228.724,65.54099 c -29.04327,-0.14457 -58.47047,0.59552 -60.46403,3.39464 -4.61007,6.47284 -1.4533,12.99136 4.1805,23.87678 55.73189,107.68379 73.42569,233.83635 8.60768,344.44037 -3.93603,6.71608 -5.27987,11.42999 -4.33126,15.20967 1.95572,7.79187 10.10185,6.15507 14.6477,-2.94233 37.12564,-61.34946 78.52819,-126.46164 83.55953,-200.01929 0.0393,-11.08759 0.041,-11.08727 13.95326,3.23473 7.65177,7.87711 14.28466,16.64807 16.14628,18.39871 4.91955,4.62621 3.85311,4.24557 11.1754,-0.48886 57.18292,-36.97329 44.84164,-205.9905 20.49123,-190.94101 -9.95291,6.15126 14.4501,84.0257 -27.33995,116.6334 -5.87691,4.19819 -9.03711,3.9504 -13.58316,-0.53457 -23.48817,-23.17237 -28.52709,-54.22136 -35.5867,-87.38822 C 257.12046,89.533 292.24512,76.13497 286.88077,67.45534 286.42334,66.7151 257.76729,65.68553 228.724,65.54099 Z" />
</svg>
