<?xml version="1.0" encoding="UTF-8" standalone="no"?>
<!-- Created with Inkscape (http://www.inkscape.org/) -->

<svg
   width="512"
   height="512"
   viewBox="0 0 512 512"
   version="1.1"
   id="svg1"
   inkscape:version="1.3.2 (091e20e, 2023-11-25, custom)"
   sodipodi:docname="KWD_KIT_PowerAbility_RacialNormal_P.svg"
   xmlns:inkscape="http://www.inkscape.org/namespaces/inkscape"
   xmlns:sodipodi="http://sodipodi.sourceforge.net/DTD/sodipodi-0.dtd"
   xmlns="http://www.w3.org/2000/svg"
   xmlns:svg="http://www.w3.org/2000/svg">
  <sodipodi:namedview
     id="namedview1"
     pagecolor="#ffffff"
     bordercolor="#000000"
     borderopacity="0.25"
     inkscape:showpageshadow="2"
     inkscape:pageopacity="0.0"
     inkscape:pagecheckerboard="0"
     inkscape:deskcolor="#d1d1d1"
     inkscape:document-units="px"
     inkscape:zoom="0.78710938"
     inkscape:cx="223.60298"
     inkscape:cy="206.45161"
     inkscape:window-width="1920"
     inkscape:window-height="1017"
     inkscape:window-x="1042"
     inkscape:window-y="276"
     inkscape:window-maximized="1"
     inkscape:current-layer="layer1" />
  <defs
     id="defs1" />
  <g
     inkscape:label="Layer 1"
     inkscape:groupmode="layer"
     id="layer1">
    <g
       id="g4"
       transform="matrix(4.176886,0,0,4.176886,-859.39171,-644.5309)"
       style="fill:#d9c68c;fill-opacity:1">
      <path
         id="rect3-0"
         style="fill:#d9c68c;fill-rule:evenodd;fill-opacity:1"
         d="m 266.96289,178.95508 c -1.45359,0.0797 -2.05189,1.65239 -2.31641,2.86523 -0.94959,4.71078 -1.1107,9.54258 -2.11215,14.24663 -0.66767,3.34753 -1.57468,6.6105 -2.98941,9.72212 -3.19217,3.11533 -7.61238,4.62645 -11.84,5.43136 -4.71039,0.99339 -9.61587,0.90186 -14.36225,1.79517 -1.27138,0.25648 -2.85372,0.93935 -2.94481,2.43186 -0.12406,1.56338 1.48614,2.53859 2.84245,2.75931 3.76911,0.79714 7.70646,0.69194 11.46672,1.24246 5.15236,0.64181 10.50552,2.01145 14.45703,5.56836 0.83261,0.80523 1.03039,2.00912 1.50286,3.02802 2.28179,6.0636 2.7376,12.55743 3.49871,18.94921 0.23391,1.64817 0.41669,3.49002 1.59023,4.77081 0.95508,0.86872 2.65524,0.46767 3.08398,-0.76757 1.01829,-2.12282 1.02521,-4.53769 1.37887,-6.82396 0.72307,-6.1665 1.55963,-12.30027 3.98043,-18.04059 0.49244,-1.33409 1.87279,-2.00616 2.94468,-2.81668 4.82924,-3.07101 10.66196,-3.81116 16.24752,-4.27307 2.76947,-0.24819 5.60471,-0.28006 8.28639,-1.07695 1.18317,-0.36875 2.29008,-1.52424 1.95329,-2.84335 -0.37996,-1.51227 -2.1127,-1.9906 -3.46268,-2.21547 -4.43494,-0.75064 -9.00963,-0.73148 -13.40272,-1.6111 -3.60666,-0.66043 -7.30562,-1.77993 -10.35742,-3.94727 -0.92797,-0.68511 -2.11569,-1.48017 -2.41911,-2.74243 -2.48436,-5.79284 -3.15531,-12.08637 -3.82766,-18.28969 -0.28728,-2.00604 -0.29565,-4.13427 -1.2089,-5.98511 -0.36437,-0.78611 -1.07536,-1.42797 -1.98964,-1.3773 z" />
      <path
         id="path4"
         style="fill:#d9c68c;fill-rule:evenodd;stroke-width:1.21891;fill-opacity:1"
         d="m 267.03906,160.68945 a 56.443462,54.909252 0 0 0 -56.44336,54.91016 56.443462,54.909252 0 0 0 56.44336,54.9082 56.443462,54.909252 0 0 0 56.44336,-54.9082 56.443462,54.909252 0 0 0 -56.44336,-54.91016 z m 0,6.375 a 49.890339,48.534252 0 0 1 49.88867,48.53516 49.890339,48.534252 0 0 1 -49.88867,48.5332 49.890339,48.534252 0 0 1 -49.89062,-48.5332 49.890339,48.534252 0 0 1 49.89062,-48.53516 z" />
    </g>
  </g>
</svg>
