<?xml version="1.0" encoding="UTF-8" standalone="no"?>
<!-- Created with Inkscape (http://www.inkscape.org/) -->

<svg
   width="512"
   height="512"
   viewBox="0 0 512 512"
   version="1.1"
   id="svg1"
   inkscape:version="1.3.2 (091e20e, 2023-11-25, custom)"
   sodipodi:docname="KWD_ABB_KIT_PowerCheatMenu_Normal_P.svg"
   xmlns:inkscape="http://www.inkscape.org/namespaces/inkscape"
   xmlns:sodipodi="http://sodipodi.sourceforge.net/DTD/sodipodi-0.dtd"
   xmlns="http://www.w3.org/2000/svg"
   xmlns:svg="http://www.w3.org/2000/svg">
  <sodipodi:namedview
     id="namedview1"
     pagecolor="#ffffff"
     bordercolor="#000000"
     borderopacity="0.25"
     inkscape:showpageshadow="2"
     inkscape:pageopacity="0.0"
     inkscape:pagecheckerboard="0"
     inkscape:deskcolor="#d1d1d1"
     inkscape:document-units="px"
     inkscape:zoom="1.1131408"
     inkscape:cx="177.87507"
     inkscape:cy="207.07174"
     inkscape:window-width="1920"
     inkscape:window-height="1009"
     inkscape:window-x="1042"
     inkscape:window-y="235"
     inkscape:window-maximized="1"
     inkscape:current-layer="svg1" />
  <defs
     id="defs1" />
  <path
     id="rect1-8"
     style="fill:#d9c68c;fill-rule:evenodd;stroke-width:2.34395;fill-opacity:1"
     d="m 69.635407,109.83037 c -2.873988,2.87399 -2.873963,7.50236 0,10.37631 l 13.65566,13.65567 -51.15703,51.15698 c -9.340453,9.34044 -9.340425,24.38261 3e-6,33.72304 l 68.8446,68.84468 c 9.34043,9.34045 24.38261,9.34039 33.72308,-4e-5 l 50.4699,-50.46992 238.02934,238.02934 c 10.40767,10.40765 27.28175,10.40762 37.68942,-4e-5 l 14.06077,-14.06071 c 10.56021,-10.56016 10.56016,-27.68155 -10e-6,-38.24171 L 237.19793,185.09079 287.66787,134.62085 c 9.34044,-9.34043 9.34041,-24.38259 -3e-5,-33.72302 L 218.8232,32.053175 c -9.34044,-9.340432 -24.38256,-9.340445 -33.72302,1.2e-5 l -54.54812,54.548088 -13.65561,-13.65564 c -2.87396,-2.873949 -7.50231,-2.873937 -10.37628,3.5e-5 z"
     sodipodi:nodetypes="sscsssscsssscsssscsss" />
</svg>
