<?xml version="1.0" encoding="UTF-8" standalone="no"?>
<svg
   height="512"
   viewBox="0 0 135.46666 135.46667"
   width="512"
   version="1.1"
   id="svg4"
   sodipodi:docname="KWD_KIT_SpellDamageType_AshFireRune_D.svg"
   inkscape:version="1.3.2 (091e20e, 2023-11-25, custom)"
   xmlns:inkscape="http://www.inkscape.org/namespaces/inkscape"
   xmlns:sodipodi="http://sodipodi.sourceforge.net/DTD/sodipodi-0.dtd"
   xmlns="http://www.w3.org/2000/svg"
   xmlns:svg="http://www.w3.org/2000/svg">
  <defs
     id="defs4" />
  <sodipodi:namedview
     id="namedview4"
     pagecolor="#ffffff"
     bordercolor="#000000"
     borderopacity="0.25"
     inkscape:showpageshadow="2"
     inkscape:pageopacity="0.0"
     inkscape:pagecheckerboard="0"
     inkscape:deskcolor="#d1d1d1"
     inkscape:zoom="0.78710941"
     inkscape:cx="139.75186"
     inkscape:cy="314.44167"
     inkscape:window-width="1920"
     inkscape:window-height="1009"
     inkscape:window-x="1042"
     inkscape:window-y="235"
     inkscape:window-maximized="1"
     inkscape:current-layer="svg4" />
  <path
     id="path12-0"
     style="fill:#cc4f35;fill-opacity:1;stroke-width:2.20339"
     d="M 67.733329,2.9111391 C 31.932876,2.9110104 2.9104349,31.933453 2.910559,67.733911 2.9107225,103.53415 31.93308,132.55558 67.733329,132.55547 103.53357,132.55558 132.55595,103.53415 132.55612,67.733911 132.55623,31.933453 103.53377,2.9110152 67.733329,2.9111391 Z m 0,5.2161394 C 100.65302,8.1274212 127.33984,34.814221 127.33997,67.733911 127.3398,100.65361 100.65302,127.3404 67.733329,127.34054 34.813641,127.3404 8.1268407,100.65361 8.1266975,67.733911 8.1268362,34.814221 34.813641,8.1274164 67.733329,8.1272785 Z M 33.46154,22.772361 c -0.141338,2.010622 14.887441,7.47048 19.054926,10.061164 14.983216,12.671366 -23.174646,7.980761 -28.348478,8.186259 -0.573906,1.1752 20.316038,27.178065 15.238621,54.048391 -1.954257,10.342145 -8.233292,-6.392418 -11.022192,-6.056282 -4.257789,2.326955 5.766719,20.446167 12.591265,23.016297 10.8152,1.23114 17.173997,-12.109973 23.282237,-18.843386 2.593133,-1.861634 0.982539,-5.13442 -1.637979,-2.223054 -2.859601,2.739035 -6.251947,4.225885 -9.476086,6.956857 -3.193506,2.124153 -10.541393,3.445143 -7.816352,-3.259018 5.995745,-14.750759 4.517957,-29.713635 -4.332479,-43.351377 -2.629387,-2.584851 -1.404752,-3.297893 1.358737,-1.30313 5.432017,5.685762 28.674188,-5.725617 23.405535,-12.29268 C 58.939172,26.884336 45.226295,24.773373 33.46154,22.772361 Z m 77.83593,14.334413 c -13.363366,6.933585 -24.951162,4.520117 -39.584644,5.391418 -0.09509,3.408081 4.926052,3.475149 7.653158,4.959866 2.744691,1.494292 13.848713,4.947164 12.243123,31.099797 -3.568586,8.956014 -6.024745,19.275978 -13.678014,26.269275 -2.23298,2.0404 -8.95832,3.23915 -6.712681,5.90519 4.421037,-0.3206 10.61743,2.00466 13.054251,-2.91452 9.977879,-9.77416 17.968427,-33.87004 21.678107,-34.51114 4.76119,-0.82284 2.59059,19.172035 2.95078,23.355973 5.83157,-4.044959 11.23529,-28.25594 5.48812,-40.78743 -2.34022,-3.329905 -6.31038,2.689365 -5.39867,6.325853 1.51668,6.049478 -8.77097,5.919724 -10.773174,0.649146 -2.419641,-4.43768 -6.183987,-9.57956 -4.192259,-14.807066 3.42499,-2.429033 7.815593,-0.482553 11.048793,1.201586 2.32386,1.210476 -2.11719,7.02394 1.22577,7.914268 4.05205,-2.061186 5.76377,-6.72452 7.09828,-10.782843 0.62814,-3.021299 1.48627,-7.785047 -2.10094,-9.269373 z" />
</svg>
