<?xml version="1.0" encoding="UTF-8" standalone="no"?>
<!-- Created with Inkscape (http://www.inkscape.org/) -->

<svg
   width="512"
   height="512"
   viewBox="0 0 512 512"
   version="1.1"
   id="svg1"
   sodipodi:docname="KWD_KIT_MagicDamage_ShockCloak.svg"
   inkscape:version="1.3.2 (091e20e, 2023-11-25, custom)"
   xmlns:inkscape="http://www.inkscape.org/namespaces/inkscape"
   xmlns:sodipodi="http://sodipodi.sourceforge.net/DTD/sodipodi-0.dtd"
   xmlns="http://www.w3.org/2000/svg"
   xmlns:svg="http://www.w3.org/2000/svg">
  <sodipodi:namedview
     id="namedview1"
     pagecolor="#ffffff"
     bordercolor="#000000"
     borderopacity="0.25"
     inkscape:showpageshadow="2"
     inkscape:pageopacity="0.0"
     inkscape:pagecheckerboard="0"
     inkscape:deskcolor="#d1d1d1"
     inkscape:document-units="px"
     inkscape:zoom="0.78710941"
     inkscape:cx="351.92058"
     inkscape:cy="303.00743"
     inkscape:window-width="1920"
     inkscape:window-height="1017"
     inkscape:window-x="1042"
     inkscape:window-y="276"
     inkscape:window-maximized="1"
     inkscape:current-layer="svg1" />
  <defs
     id="defs1" />
  <g
     id="g14"
     transform="matrix(15.123304,0,0,15.123304,0.15165736,-0.0030695)"
     style="fill:#e9d262;fill-opacity:1">
    <path
       style="display:inline;fill:#e9d262;stroke-width:0.231425;fill-opacity:1"
       d="M 0.73784126,22.184175 C -2.2455542,25.608048 4.0956365,37.779417 12.680659,32.576167 7.0494555,34.904617 0.56637066,27.430908 0.73784126,22.184175 Z"
       id="path6"
       sodipodi:nodetypes="ccc" />
    <path
       style="display:inline;fill:#e9d262;stroke-width:0.235713;fill-opacity:1"
       d="m 32.640602,18.946217 c -0.574151,5.25913 -3.182948,10.975128 -9.957681,14.623896 4.41944,2.155095 13.911632,-8.411801 9.957681,-14.623896 z"
       id="path5"
       sodipodi:nodetypes="ccc" />
    <path
       style="display:inline;fill:#e9d262;stroke-width:0.230266;fill-opacity:1"
       d="M 24.511165,12.906189 C 33.050576,27.172015 8.1419358,36.161125 7.825362,13.834297 1.2737652,39.14466 38.715517,32.571249 24.511165,12.906189 Z"
       id="path4" />
    <path
       style="display:inline;fill:#e9d262;stroke-width:0.230266;fill-opacity:1"
       d="m 17.473868,11.059273 c -2.739188,-1.6e-4 -4.959831,2.613342 -4.959903,5.83737 -1.71e-4,3.22423 2.220543,5.838046 4.959903,5.837886 2.739159,-1.75e-4 4.959559,-2.613893 4.959388,-5.837886 -7.2e-5,-3.223791 -2.220401,-5.837195 -4.959388,-5.83737 z"
       id="path3" />
    <path
       style="display:inline;fill:#e9d262;stroke-width:0.230266;fill-opacity:1"
       d="M 18.6092,3.4700724 C 8.0392126,3.4129665 -3.9196603,11.94231 5.2978677,27.282055 -1.6329284,-1.7410318 35.269559,1.4546912 29.186332,22.306132 35.171926,9.4595779 27.367188,3.5173885 18.6092,3.4700724 Z"
       id="path2" />
    <path
       style="display:inline;fill:#e9d262;stroke-width:0.238404;fill-opacity:1"
       d="M 0.3490055,12.996906 C 3.0188028,5.2538333 6.4994157,2.9566138 13.747718,1.0063882 4.7560615,0.05328911 0.70582894,4.2178879 0.3490055,12.996906 Z"
       id="path1" />
    <path
       style="display:inline;fill:#e9d262;stroke-width:0.230266;fill-opacity:1"
       d="M 24.502897,0.00206706 C 22.819883,-0.03826349 21.11144,0.55453756 19.566764,2.0153808 26.535415,-0.1547266 32.132634,4.9776098 33.537487,12.510347 35.174859,7.0250374 30.000738,0.13381342 24.502897,0.00206706 Z"
       id="rect10"
       sodipodi:nodetypes="sccs" />
  </g>
</svg>
