<?xml version="1.0" encoding="UTF-8" standalone="no"?>
<!-- Created with Inkscape (http://www.inkscape.org/) -->

<svg
   width="512"
   height="512"
   viewBox="0 0 512 512"
   version="1.1"
   id="svg1"
   xml:space="preserve"
   inkscape:version="1.3.2 (091e20e, 2023-11-25, custom)"
   sodipodi:docname="Misc_InstrumentDrum.svg"
   xmlns:inkscape="http://www.inkscape.org/namespaces/inkscape"
   xmlns:sodipodi="http://sodipodi.sourceforge.net/DTD/sodipodi-0.dtd"
   xmlns="http://www.w3.org/2000/svg"
   xmlns:svg="http://www.w3.org/2000/svg"><sodipodi:namedview
     id="namedview1"
     pagecolor="#ffffff"
     bordercolor="#000000"
     borderopacity="0.25"
     inkscape:showpageshadow="2"
     inkscape:pageopacity="0.0"
     inkscape:pagecheckerboard="0"
     inkscape:deskcolor="#d1d1d1"
     inkscape:document-units="px"
     inkscape:zoom="0.78710938"
     inkscape:cx="206.45161"
     inkscape:cy="226.77915"
     inkscape:window-width="1920"
     inkscape:window-height="1009"
     inkscape:window-x="1042"
     inkscape:window-y="235"
     inkscape:window-maximized="1"
     inkscape:current-layer="layer1" /><defs
     id="defs1" /><g
     inkscape:label="Layer 1"
     inkscape:groupmode="layer"
     id="layer1"><path
       id="path1"
       style="display:inline;fill:#d9c68c;fill-opacity:1;fill-rule:evenodd;stroke-width:2.03203"
       d="m 255.99814,36.937965 c -110.40257,3.58e-4 -199.90066,19.49863 -199.900635,43.55084 -4.533895,17.7952 -6.694899,35.408985 -3.704045,52.625365 0,0 21.621391,24.78002 33.665848,19.82683 11.4684,-4.71632 50.454272,15.96458 65.695522,11.55522 14.66117,-4.24144 53.95562,11.10583 75.09956,6.17342 11.63496,-2.71419 48.99276,-2.80873 58.28746,0 20.78344,6.28041 60.44225,-10.41486 75.10334,-6.17342 15.24126,4.40936 54.22706,-16.27154 65.69556,-11.55522 12.04436,4.95319 33.66583,-19.82683 33.66583,-19.82683 2.99077,-17.21638 0.82985,-34.830165 -3.70404,-52.625365 2e-5,-24.052532 -89.50037,-43.550937 -199.9044,-43.55084 z M 61.002123,179.95244 110.2113,427.89101 c 0.0485,14.928 18.51303,29.10425 50.55366,38.81287 -0.42822,-2.13078 -0.74706,-4.56491 -0.9279,-7.32855 L 108.24945,204.15746 c 0.52275,-5.36133 1.82847,-9.19269 3.54496,-11.87339 -2.31195,-0.71437 -4.63321,-1.43035 -6.9498,-2.0944 -4.79204,-1.19784 -9.557714,-2.96329 -14.551049,-2.97686 -4.92717,1.61984 -10.360909,1.66791 -15.323646,0.10982 -5.053157,-1.69029 -9.669967,-4.28657 -13.967792,-7.37022 z m 387.265097,1.79899 c -6.27594,4.11635 -13.53274,7.40415 -21.17893,6.60896 -2.26441,-0.0207 -4.30046,-1.31272 -6.56348,-1.17408 -7.72194,0.98777 -15.1325,3.56733 -22.55373,5.80602 -4.74844,1.38183 -9.49465,2.87984 -14.29349,4.13957 1.13924,2.49691 2.0059,5.67849 2.40497,9.7714 l -51.58763,255.22544 c -0.21777,3.32839 -0.65485,6.12756 -1.22331,8.54428 41.05454,-9.38872 65.92669,-25.48287 66.11593,-42.78201 z M 131.7235,197.87044 c 0.63297,1.94046 0.98,4.05403 0.89003,6.28702 l 45.54678,251.04042 c 0.75886,-0.10516 1.54534,-0.0815 2.35954,0.0871 l 2.63599,-244.38982 c 0.32523,-3.33578 0.96782,-6.05123 1.80278,-8.31324 -2.94048,-0.55424 -5.88161,-1.11803 -8.81318,-1.64374 -6.46265,-1.04674 -12.95859,-2.51878 -19.54279,-2.18908 -3.77574,0.7067 -7.60341,1.46226 -11.47568,1.24604 -4.54719,-0.29086 -8.99212,-1.12368 -13.40347,-2.12471 z m 220.72353,0.9241 c -3.86452,0.14034 -7.7189,0.88627 -11.51739,1.54904 -9.35278,1.71258 -18.94034,3.91609 -28.49608,5.32882 -0.92139,0.12874 -1.85369,0.2237 -2.77991,0.34087 0.70468,2.11941 1.23167,4.64854 1.5225,7.63152 l 2.63601,244.10577 c 0.75224,-0.003 1.52938,0.11295 2.33302,0.36358 L 361.72226,206.9033 c -0.10157,-2.52216 0.35556,-4.88587 1.15895,-7.02177 -2.20601,-0.1767 -4.40112,-0.52953 -6.56729,-0.99986 -1.28841,-0.11329 -2.57873,-0.1339 -3.86689,-0.0872 z m -100.3196,4.75694 c -4.46284,0.065 -8.94031,0.24678 -13.35042,0.6022 -5.54956,0.24344 -10.94646,1.64294 -16.45609,2.20803 -5.15327,0.31684 -10.2721,0.0246 -15.37668,-0.46586 0.39048,1.58622 0.64651,3.24147 0.57569,4.99932 l -7.9989,251.6161 c 0.43259,4.82672 -0.26341,8.99904 -1.57935,12.24074 17.93178,2.78444 37.2748,4.25076 56.85587,4.31003 14.00553,-0.0583 27.91281,-0.83654 41.28599,-2.31031 -1.11967,-3.12788 -1.66794,-7.04471 -1.26879,-11.49843 l -8.00267,-251.60851 c -0.10656,-2.64432 0.41067,-5.10376 1.2915,-7.31718 -0.77143,-0.10946 -1.54995,-0.1419 -2.31789,-0.28785 -6.62921,-1.88689 -13.55218,-2.1958 -20.40248,-2.38603 -4.34468,-0.11561 -8.79292,-0.16729 -13.25578,-0.10226 z"
       sodipodi:nodetypes="cccscscssccccccccccccccccccccccccscccccccccsscccccccccssscccccccccccccss" /></g></svg>
