<?xml version="1.0" encoding="UTF-8" standalone="no"?>
<svg
   height="512"
   viewBox="0 0 512 512"
   width="512"
   version="1.1"
   id="svg2"
   sodipodi:docname="KWD_KIT_SpellDamageType_FrostRune_D.svg"
   inkscape:version="1.3.2 (091e20e, 2023-11-25, custom)"
   xmlns:inkscape="http://www.inkscape.org/namespaces/inkscape"
   xmlns:sodipodi="http://sodipodi.sourceforge.net/DTD/sodipodi-0.dtd"
   xmlns="http://www.w3.org/2000/svg"
   xmlns:svg="http://www.w3.org/2000/svg">
  <defs
     id="defs2" />
  <sodipodi:namedview
     id="namedview2"
     pagecolor="#ffffff"
     bordercolor="#000000"
     borderopacity="0.25"
     inkscape:showpageshadow="2"
     inkscape:pageopacity="0.0"
     inkscape:pagecheckerboard="0"
     inkscape:deskcolor="#d1d1d1"
     inkscape:zoom="1.1131408"
     inkscape:cx="254.23559"
     inkscape:cy="226.83564"
     inkscape:window-width="1920"
     inkscape:window-height="1009"
     inkscape:window-x="1042"
     inkscape:window-y="235"
     inkscape:window-maximized="1"
     inkscape:current-layer="svg2" />
  <path
     id="path1-7"
     style="fill:#a3e5f5;fill-opacity:1;stroke-width:1.16622"
     d="M 256,11.49707 C 120.96403,11.496604 11.494302,120.96634 11.494785,256.00227 11.495421,391.03753 120.96477,500.5034 256,500.50293 391.03519,500.5034 500.50461,391.0375 500.50523,256.00227 500.5057,120.96634 391.03596,11.496627 256,11.49707 Z m 0,19.674763 C 380.16998,31.17237 480.8299,131.83227 480.83044,256.00227 480.82987,380.17229 380.16998,480.83218 256,480.83272 131.82998,480.83218 31.170091,380.17229 31.169549,256.00227 31.170091,131.83227 131.82998,31.17237 256,31.171833 Z m 45.04451,31.443159 c -19.87827,-0.47755 -41.18646,1.333366 -50.57989,1.285812 -21.53342,-0.439405 -42.97917,0.30853 -64.2907,3.246463 l 8.36237,5.407697 c 4.59947,2.973978 11.17653,6.678148 14.61358,8.230142 3.9717,1.793454 7.87956,6.200176 10.72422,12.092102 5.20932,10.789392 9.1574,14.654082 21.63997,21.170332 15.87879,8.28932 26.27176,27.07241 34.91305,43.54896 3.72646,7.10539 10.5994,18.64984 6.88958,23.06259 -16.38704,9.05375 -47.90055,-8.73718 -65.04757,-12.58912 -20.75717,-4.19851 -33.21126,-5.66707 -54.57413,-6.44732 -13.51112,-0.49352 -24.51891,-0.14264 -24.47149,0.77514 0.16038,3.10142 75.43575,63.10494 83.56876,73.97531 16.88911,22.57348 130.06156,139.90008 71.04348,232.31279 l 5.07941,-3.57474 c 26.38338,-23.67759 26.55796,-85.91475 23.75564,-93.6273 -20.5081,-56.44262 -52.67115,-105.54448 -83.33166,-155.81599 -8.47613,-13.77306 -9.15368,-18.59863 -2.95463,-20.94691 11.46674,-4.34382 55.72726,30.59684 60.9439,35.4602 l 11.15285,10.39592 c 1.51399,-46.08888 -5.81955,-94.16349 -38.02724,-129.69391 -14.98633,-10.5328 -15.36037,-22.150648 -0.71131,-22.150648 74.82446,2.942718 88.97159,40.084128 88.9172,47.935328 -0.043,6.22028 1.48532,6.89206 2.36189,6.27859 3.69848,-3.65096 -1.31082,-31.41224 -8.3897,-46.503582 C 349.3108,89.362251 344.98873,79.75 343.02495,75.076441 339.36918,65.860592 320.92282,63.092543 301.04451,62.614992 Z" />
</svg>
