<?xml version="1.0" encoding="UTF-8" standalone="no"?>
<!-- Created with Inkscape (http://www.inkscape.org/) -->

<svg
   width="512"
   height="512"
   viewBox="0 0 135.46666 135.46667"
   version="1.1"
   id="svg1"
   inkscape:version="1.3.2 (091e20e, 2023-11-25, custom)"
   sodipodi:docname="KWD_KIT_SpellDamageType_SunRune_R.svg"
   xml:space="preserve"
   xmlns:inkscape="http://www.inkscape.org/namespaces/inkscape"
   xmlns:sodipodi="http://sodipodi.sourceforge.net/DTD/sodipodi-0.dtd"
   xmlns="http://www.w3.org/2000/svg"
   xmlns:svg="http://www.w3.org/2000/svg"><sodipodi:namedview
     id="namedview1"
     pagecolor="#ffffff"
     bordercolor="#000000"
     borderopacity="0.25"
     inkscape:showpageshadow="2"
     inkscape:pageopacity="0.0"
     inkscape:pagecheckerboard="0"
     inkscape:deskcolor="#d1d1d1"
     inkscape:document-units="px"
     showgrid="false"
     inkscape:zoom="1"
     inkscape:cx="339"
     inkscape:cy="219.5"
     inkscape:window-width="1920"
     inkscape:window-height="1009"
     inkscape:window-x="1042"
     inkscape:window-y="235"
     inkscape:window-maximized="1"
     inkscape:current-layer="svg1"><inkscape:grid
       id="grid1"
       units="px"
       originx="0"
       originy="0"
       spacingx="0.26458332"
       spacingy="0.26458334"
       empcolor="#0099e5"
       empopacity="0.30196078"
       color="#0099e5"
       opacity="0.14901961"
       empspacing="5"
       dotted="false"
       gridanglex="30"
       gridanglez="30"
       visible="false" /></sodipodi:namedview><defs
     id="defs1" /><path
     id="path16"
     style="fill:#ecb279;stroke-width:2.27813"
     d="M 67.733338,3.041934 C 32.005111,3.0418032 3.0412218,32.005702 3.0413385,67.733932 3.0415019,103.46196 32.005321,132.42484 67.733338,132.42473 103.46138,132.42484 132.42516,103.46196 132.42531,67.733932 132.42544,32.005702 103.46157,3.0418103 67.733338,3.041934 Z m 0,5.2056164 C 100.58662,8.2476928 127.21958,34.880655 127.21972,67.733932 127.21958,100.5872 100.58662,127.22018 67.733338,127.22032 34.880081,127.22018 8.2470996,100.5872 8.2469596,67.733932 8.2470996,34.880655 34.880081,8.2476858 67.733338,8.2475504 Z m -1.50075,8.3615576 c -14.106681,-0.07515 -28.343162,4.573233 -36.041218,18.345727 0.0677,-0.0361 23.135184,-11.451477 41.929641,-4.207924 3.746519,1.443958 7.260308,2.806771 10.528272,4.012487 -1.497155,1.472759 -39.21531,12.258819 -39.320199,24.039936 -0.05813,6.527423 2.948437,21.349662 2.948437,21.349662 3.623278,14.841826 14.64752,41.342624 18.939268,41.022424 1.23298,-1.40818 -5.79726,-27.485027 -5.274373,-41.373488 -5.687771,-30.288623 15.18012,-36.949012 40.052475,-40.588123 1.095449,-0.01657 2.079659,-0.149667 2.914669,-0.451194 0.62393,-0.225305 1.1486,-0.504197 1.60934,-0.78416 -0.96054,-2.508127 -0.56563,-3.317709 0.75641,-5.432421 -3.578,-7.838907 -22.446431,-15.844529 -39.042722,-15.932926 z" /></svg>
