<?xml version="1.0" encoding="UTF-8" standalone="no"?>
<!-- Created with Inkscape (http://www.inkscape.org/) -->

<svg
   width="512"
   height="512"
   viewBox="0 0 512 512"
   version="1.1"
   id="svg1"
   xml:space="preserve"
   inkscape:version="1.3.2 (091e20e, 2023-11-25, custom)"
   sodipodi:docname="Misc_InstrumentLute.svg"
   xmlns:inkscape="http://www.inkscape.org/namespaces/inkscape"
   xmlns:sodipodi="http://sodipodi.sourceforge.net/DTD/sodipodi-0.dtd"
   xmlns="http://www.w3.org/2000/svg"
   xmlns:svg="http://www.w3.org/2000/svg"><sodipodi:namedview
     id="namedview1"
     pagecolor="#ffffff"
     bordercolor="#000000"
     borderopacity="0.25"
     inkscape:showpageshadow="2"
     inkscape:pageopacity="0.0"
     inkscape:pagecheckerboard="0"
     inkscape:deskcolor="#d1d1d1"
     inkscape:document-units="px"
     inkscape:zoom="0.78710938"
     inkscape:cx="172.14888"
     inkscape:cy="275.05707"
     inkscape:window-width="1920"
     inkscape:window-height="1009"
     inkscape:window-x="1042"
     inkscape:window-y="235"
     inkscape:window-maximized="1"
     inkscape:current-layer="svg1" /><defs
     id="defs1" /><path
     id="rect1"
     style="fill:#d9c68c;fill-rule:evenodd;stroke-width:0.924113;fill-opacity:1"
     d="m 462.63839,1.2728038 c -2.04198,-2.05556512 -3.92091,-1.64618784 -5.62334,1.4117122 l -5.09436,25.708033 -63.05372,32.592377 -6.45317,6.940455 -6.22661,26.539565 C 336.53162,82.749473 318.81,86.09386 282.29297,99.815877 265.03522,97.712382 227.14503,88.362469 230.55764,116.45517 c 16.81166,-19.058709 38.61422,12.89666 4.35453,9.23354 l 7.56006,14.64137 c -39.56674,33.45966 -86.49757,58.48467 -130.00305,87.19061 -67.726559,48.89963 -182.642939,87.63822 -54.770294,226.78044 139.142184,127.87262 177.880804,12.95627 226.780434,-54.7703 28.70594,-43.50547 53.73095,-90.43631 87.19061,-130.00305 l 14.64137,7.56007 c -3.66311,-34.25969 28.29225,-12.45714 9.23354,4.35452 28.09269,3.41261 18.74279,-34.47758 16.63929,-51.73533 13.72202,-36.51703 17.0664,-54.23865 5.35093,-93.89422 l 26.5409,-6.22528 6.93912,-6.45449 32.59238,-63.053738 25.70804,-5.094353 c 4.0772,-2.269912 3.44634,-4.850813 -1.45842,-7.717209 L 467.89426,44.105748 464.7336,4.1442646 C 464.017,2.9180762 463.31908,1.9579719 462.63839,1.2728038 Z M 362.74809,107.09278 151.06223,305.98312 150.89514,305.7941 c -43.36648,-71.12333 62.34817,-89.55864 117.05131,-156.49821 31.43794,-53.430052 62.70133,-45.264 94.80164,-42.20311 z m 42.1579,42.16039 c 3.06097,32.09988 11.22749,63.36287 -42.2019,94.80041 -66.93957,54.70315 -85.37488,160.41779 -156.49821,117.05133 l -0.18643,-0.16699 z M 153.42288,358.57713 c 28.73685,28.73667 44.82893,59.23621 35.94238,68.12211 -8.88585,8.88664 -39.38539,-7.20548 -68.12214,-35.94235 -28.736154,-28.73642 -44.827458,-59.23514 -35.940998,-68.1208 8.885724,-8.88638 39.384388,7.20495 68.120758,35.94104 z"
     sodipodi:nodetypes="sccccccccccccccccccccccccsccccccccccscscs" /></svg>
