<?xml version="1.0" encoding="UTF-8" standalone="no"?>
<svg
   height="512"
   width="512"
   version="1.1"
   id="svg2"
   sodipodi:docname="KWD_KIT_SpellDamageType_FireRune_D.svg"
   inkscape:version="1.3.2 (091e20e, 2023-11-25, custom)"
   xmlns:inkscape="http://www.inkscape.org/namespaces/inkscape"
   xmlns:sodipodi="http://sodipodi.sourceforge.net/DTD/sodipodi-0.dtd"
   xmlns="http://www.w3.org/2000/svg"
   xmlns:svg="http://www.w3.org/2000/svg">
  <defs
     id="defs2" />
  <sodipodi:namedview
     id="namedview2"
     pagecolor="#ffffff"
     bordercolor="#000000"
     borderopacity="0.25"
     inkscape:showpageshadow="2"
     inkscape:pageopacity="0.0"
     inkscape:pagecheckerboard="0"
     inkscape:deskcolor="#d1d1d1"
     inkscape:zoom="1.5742188"
     inkscape:cx="289.03225"
     inkscape:cy="208.67493"
     inkscape:window-width="1920"
     inkscape:window-height="1009"
     inkscape:window-x="1042"
     inkscape:window-y="235"
     inkscape:window-maximized="1"
     inkscape:current-layer="svg2" />
  <path
     id="path1"
     style="display:inline;fill:#d2902d;fill-rule:evenodd;stroke-width:4.29791;paint-order:stroke fill markers"
     d="M 256,11.421875 C 120.96403,11.421413 11.495627,120.88982 11.496094,255.92579 11.496713,390.961 120.96479,500.4282 256,500.42774 391.0352,500.4282 500.50328,390.96099 500.5039,255.92579 500.50437,120.88982 391.03597,11.421417 256,11.421875 Z m 0,19.673829 C 380.17,31.096245 480.82954,131.75579 480.83007,255.92579 480.82953,380.09579 380.17,480.75533 256,480.75587 131.83,480.75533 31.170458,380.09579 31.169922,255.92579 31.170454,131.75579 131.83,31.096241 256,31.095704 Z M 391.10351,88.326173 C 356.31512,91.405946 321.56543,95.95691 286.58008,96.968752 189.90501,99.148273 164.19801,98.312229 147.29492,97.320314 117.3368,96.605348 124.44486,170.71812 125.2832,200.24414 l 0.17383,12.26563 c 4.77131,-27.25053 6.15966,-49.96549 25.39258,-71.55078 18.23772,-19.84205 27.94805,-23.14198 79.05664,-22.84766 27.29605,0.15709 34.46871,0.78792 36.97265,3.25977 8.72951,8.61707 -40.06107,53.84999 -68.42187,111.46094 -19.59681,39.80813 -54.56143,137.35597 -57.7832,167.44531 -1.37982,15.51459 -1.80576,27.04839 -1.35157,36.94141 0.61955,13.49427 11.11992,-15.43148 17.65039,-48.62891 l 52.36133,-118.39649 c 1.17889,-2.68674 2.76295,-5.60359 5.13672,-5.86132 l 34.91992,-1.72657 c 43.70606,-2.15944 50.0991,-1.74357 85.94922,5.60352 25.20517,5.16551 34.65045,48.55954 35.26562,51.51367 0.66614,3.19873 1.72976,5.3012 2.36329,4.67578 -2.32078,-33.45304 -3.96056,-65.47841 -3.03711,-99.68555 -5.7765,1.79108 -6.69114,3.80582 -17.30078,5.46094 l -0.004,-0.0215 c -28.92771,3.30514 -91.44183,12.56205 -110.04102,-7.91016 27.9435,-93.75839 140.20066,-113.00192 148.51758,-133.914063 z"
     sodipodi:nodetypes="ccccccccccccccccccscsccccssccccccc" />
</svg>
