<?xml version="1.0" encoding="UTF-8" standalone="no"?>
<svg
   height="512"
   viewBox="0 0 512 512"
   width="512"
   version="1.1"
   id="svg2"
   sodipodi:docname="KWD_KIT_SpellDamageType_BloodRune_D.svg"
   inkscape:version="1.3.2 (091e20e, 2023-11-25, custom)"
   xmlns:inkscape="http://www.inkscape.org/namespaces/inkscape"
   xmlns:sodipodi="http://sodipodi.sourceforge.net/DTD/sodipodi-0.dtd"
   xmlns="http://www.w3.org/2000/svg"
   xmlns:svg="http://www.w3.org/2000/svg">
  <defs
     id="defs2" />
  <sodipodi:namedview
     id="namedview2"
     pagecolor="#ffffff"
     bordercolor="#000000"
     borderopacity="0.25"
     inkscape:showpageshadow="2"
     inkscape:pageopacity="0.0"
     inkscape:pagecheckerboard="0"
     inkscape:deskcolor="#d1d1d1"
     inkscape:zoom="1.1614781"
     inkscape:cx="300.47919"
     inkscape:cy="249.25136"
     inkscape:window-width="1920"
     inkscape:window-height="1009"
     inkscape:window-x="1042"
     inkscape:window-y="235"
     inkscape:window-maximized="1"
     inkscape:current-layer="svg2" />
  <path
     id="path12"
     style="fill:#99192a;fill-opacity:1;stroke-width:8.32781"
     d="M 256.00001,11.002738 C 120.69103,11.002247 11.000018,120.6933 11.000487,256.00229 11.001093,391.31049 120.69179,500.99773 256.00001,500.99726 391.30821,500.99773 500.99896,391.31049 500.99956,256.00229 501.00003,120.6933 391.30899,11.002271 256.00001,11.002738 Z m 0,19.714543 C 380.42104,30.717818 481.28449,131.58125 481.285,256.00229 481.28446,380.42332 380.42104,481.28674 256.00001,481.28728 131.57896,481.28674 30.715558,380.42332 30.715021,256.00229 30.715558,131.58125 131.57896,30.717789 256.00001,30.717281 Z m -27.27599,34.823706 c -29.04327,-0.144563 -58.47047,0.595526 -60.46403,3.394646 -4.61007,6.472835 -1.4533,12.991353 4.1805,23.876781 55.73189,107.683786 73.42569,233.836346 8.60768,344.440366 -3.93603,6.71608 -5.27987,11.42999 -4.33126,15.20967 1.95572,7.79187 10.10185,6.15507 14.64771,-2.94233 37.12564,-61.34946 78.52818,-126.46164 83.55953,-200.01929 0.0393,-11.08759 0.041,-11.08727 13.95325,3.23473 7.65177,7.87711 14.28466,16.64807 16.14628,18.39871 4.91955,4.62621 3.85311,4.24557 11.1754,-0.48886 57.18293,-36.97329 44.84165,-205.990503 20.49124,-190.941009 -9.95292,6.151259 14.45009,84.025699 -27.33995,116.633399 -5.87691,4.19819 -9.03711,3.9504 -13.58316,-0.53457 -23.48817,-23.17237 -28.52709,-54.22136 -35.5867,-87.38822 -3.06002,-18.882008 32.06464,-32.280038 26.70029,-40.959673 -0.45743,-0.740236 -29.11349,-1.769805 -58.15678,-1.91435 z" />
</svg>
