<?xml version="1.0" encoding="UTF-8" standalone="no"?>
<!-- Created with Inkscape (http://www.inkscape.org/) -->

<svg
   width="512"
   height="512"
   viewBox="0 0 512 512"
   version="1.1"
   id="svg1"
   xml:space="preserve"
   inkscape:version="1.3.2 (091e20e, 2023-11-25, custom)"
   sodipodi:docname="KWD_KIT_Food_TypeIngredient.svg"
   xmlns:inkscape="http://www.inkscape.org/namespaces/inkscape"
   xmlns:sodipodi="http://sodipodi.sourceforge.net/DTD/sodipodi-0.dtd"
   xmlns="http://www.w3.org/2000/svg"
   xmlns:svg="http://www.w3.org/2000/svg"><sodipodi:namedview
     id="namedview1"
     pagecolor="#ffffff"
     bordercolor="#000000"
     borderopacity="0.25"
     inkscape:showpageshadow="2"
     inkscape:pageopacity="0.0"
     inkscape:pagecheckerboard="0"
     inkscape:deskcolor="#d1d1d1"
     inkscape:document-units="px"
     inkscape:zoom="0.83105468"
     inkscape:cx="162.44418"
     inkscape:cy="172.67215"
     inkscape:window-width="1920"
     inkscape:window-height="1009"
     inkscape:window-x="1042"
     inkscape:window-y="235"
     inkscape:window-maximized="1"
     inkscape:current-layer="layer1" /><defs
     id="defs1" /><g
     inkscape:label="Layer 1"
     inkscape:groupmode="layer"
     id="layer1"><path
       id="rect2"
       style="fill:#8f6e56;fill-opacity:1;stroke-width:1.83876"
       d="m 214.65244,41.296803 c -34.50182,1.173103 -85.50416,19.217716 -107.24523,38.688142 -2.82303,2.658173 -5.68763,5.591074 -6.93757,9.349741 -0.792836,2.838709 0.0157,5.886739 1.25205,8.477891 2.80494,5.511303 7.92266,9.397133 13.1678,12.432143 3.40639,1.90608 6.94445,3.63418 10.70436,4.71995 32.26386,14.4704 66.05871,26.51309 96.64521,44.28879 7.98708,4.61163 16.72273,8.58427 26.07564,8.99074 2.51785,0.081 5.08451,0.0274 7.54592,-0.51637 40.25045,-15.93661 15.8542,-37.38244 93.78563,-66.37484 4.31123,-1.92114 52.60667,-3.26127 53.13453,-17.327162 -0.1405,-2.723847 -1.95608,-4.990821 -3.62177,-7.010092 -13.20015,-15.026538 -60.74494,-38.73961 -86.11237,-34.178623 -31.05956,6.731451 -49.23194,8.926704 -80.78231,0.109646 -5.74298,-1.442932 -11.71237,-1.753568 -17.61189,-1.649953 z m 202.62068,42.608772 c -0.0125,3.814635 -1.15767,7.636108 -3.23976,10.835224 -3.8212,5.775211 -10.02604,9.444301 -16.34215,11.940511 -22.41985,8.43421 -48.31521,5.50845 -78.51163,22.46448 -3.30496,1.95131 -6.65176,4.01163 -9.24364,6.88454 -5.09924,7.619 -10.30857,15.23106 -16.63392,21.90388 -9.20425,9.86778 -20.01031,18.63781 -32.71437,23.52556 -4.80567,1.36601 -9.89483,1.52584 -14.85489,1.15123 -10.6651,-0.86565 -20.73948,-5.07182 -29.94675,-10.33123 -4.15166,-2.35026 -8.2883,-5.01682 -12.30302,-7.40975 -2.53178,-1.61876 -5.25121,-2.91078 -8.09592,-3.87818 -16.69399,-6.00739 -32.51457,-14.08921 -48.57018,-21.57142 -16.4305,-8.18564 -34.67237,-11.65033 -49.006992,-23.58569 C 91.703861,110.48542 86.954569,103.19558 85.885316,95.036126 85.31742,91.404461 85.74205,87.704382 86.907479,84.241578 72.869891,85.319838 55.36388,89.898436 61.21736,111.1024 l 24.363787,44.44973 -8.780302,210.80324 c 71.440345,41.14498 170.971545,46.8545 273.140735,43.65746 -106.40082,26.78424 -208.97397,14.83791 -285.289913,-5.52992 -14.586465,23.6673 -58.5084129,71.10394 -11.289714,70.2265 H 458.66522 c 52.16227,0.96931 -7.02807,-57.12557 -14.87081,-76.87759 -8.12818,-29.41723 -9.57301,-55.61337 -10.82283,-85.61722 l -6.52733,-156.66247 24.36733,-44.44973 c 6.9049,-25.012725 -15.82407,-26.92574 -33.53846,-27.196825 z m -43.14107,95.212775 c -73.73308,71.57015 -150.23943,74.35685 -228.42221,27.3878 81.84902,22.16872 157.8161,11.6147 228.42221,-27.3878 z"
       sodipodi:nodetypes="ccccccccccccccccccccccccccccccccccccccccccccc" /></g></svg>
