<?xml version="1.0" encoding="UTF-8" standalone="no"?>
<!-- Created with Inkscape (http://www.inkscape.org/) -->

<svg
   width="512"
   height="512"
   viewBox="0 0 512 512"
   version="1.1"
   id="svg1"
   xml:space="preserve"
   inkscape:version="1.3.2 (091e20e, 2023-11-25, custom)"
   sodipodi:docname="KWD_KIT_Food_Fish.svg"
   xmlns:inkscape="http://www.inkscape.org/namespaces/inkscape"
   xmlns:sodipodi="http://sodipodi.sourceforge.net/DTD/sodipodi-0.dtd"
   xmlns="http://www.w3.org/2000/svg"
   xmlns:svg="http://www.w3.org/2000/svg"><sodipodi:namedview
     id="namedview1"
     pagecolor="#ffffff"
     bordercolor="#000000"
     borderopacity="0.25"
     inkscape:showpageshadow="2"
     inkscape:pageopacity="0.0"
     inkscape:pagecheckerboard="0"
     inkscape:deskcolor="#d1d1d1"
     inkscape:document-units="px"
     inkscape:zoom="1.6425781"
     inkscape:cx="225.86445"
     inkscape:cy="243.82402"
     inkscape:window-width="1920"
     inkscape:window-height="1017"
     inkscape:window-x="1042"
     inkscape:window-y="276"
     inkscape:window-maximized="1"
     inkscape:current-layer="svg1" /><defs
     id="defs1" /><path
     id="rect3"
     style="fill:#9eafa3;fill-opacity:1;fill-rule:evenodd;stroke-width:1.3313"
     d="m 342.13647,141.87514 c -22.6956,-23.91677 -54.75911,-33.9961 -88.15103,-13.6957 C 195.89607,85.725198 136.57254,48.272907 66.748151,52.289633 c 0,0 25.117135,24.645304 18.063766,32.572697 -8.446854,9.49355 -33.255564,-20.856985 -33.255564,-20.856985 2.553815,43.584565 15.19732,81.474775 41.107926,119.272915 26.825411,1.21757 54.587921,-7.47454 80.809311,-18.19053 -19.93002,16.35659 -40.41551,32.84898 -64.29744,39.67604 6.89999,8.07678 14.40142,16.00459 22.70653,23.7333 0,0 -10.52939,17.93726 -10.70304,27.8951 -0.24374,13.97574 0.27584,35.57735 13.64701,39.6507 8.48576,2.58501 17.47429,-4.71394 20.8539,-12.91566 3.84246,-9.32487 2.40671,-25.23309 -0.1586,-33.8896 l 41.86765,34.63859 c -15.00653,27.75127 -29.57856,57.9134 8.45154,78.71293 46.68321,25.5321 85.566,16.10872 94.45999,-25.3237 23.23327,18.03808 27.34042,38.07971 24.26074,58.87571 -2.97385,17.63731 -8.39687,37.83698 6.34412,51.12485 48.78945,43.98001 155.45868,-36.08107 123.74975,-85.80321 -13.79659,-21.6342 -39.58754,-32.03776 -67.23696,-24.40831 -16.76144,-9.45837 -32.15031,-20.77568 -37.97965,-45.04033 40.71121,-41.84554 28.10246,-112.82888 -7.30269,-150.139 z M 154.02064,87.728131 c 8.63629,9.083779 9.19374,22.573819 1.24497,30.130139 -7.94826,7.55681 -21.39291,6.31859 -30.02876,-2.76563 -8.63469,-9.08391 -9.19128,-22.572538 -1.24318,-30.128247 7.94761,-7.556243 21.3909,-6.318891 30.02697,2.763738 z"
     sodipodi:nodetypes="cccscccccsssccsccssccscccccc" /></svg>
