<?xml version="1.0" encoding="UTF-8" standalone="no"?>
<!-- Created with Inkscape (http://www.inkscape.org/) -->

<svg
   width="512"
   height="512"
   viewBox="0 0 512 512"
   version="1.1"
   id="svg1"
   xml:space="preserve"
   inkscape:version="1.3.2 (091e20e, 2023-11-25, custom)"
   sodipodi:docname="KWD_KIT_Food_Treat.svg"
   xmlns:inkscape="http://www.inkscape.org/namespaces/inkscape"
   xmlns:sodipodi="http://sodipodi.sourceforge.net/DTD/sodipodi-0.dtd"
   xmlns="http://www.w3.org/2000/svg"
   xmlns:svg="http://www.w3.org/2000/svg"><sodipodi:namedview
     id="namedview1"
     pagecolor="#ffffff"
     bordercolor="#000000"
     borderopacity="0.25"
     inkscape:showpageshadow="2"
     inkscape:pageopacity="0.0"
     inkscape:pagecheckerboard="0"
     inkscape:deskcolor="#d1d1d1"
     inkscape:document-units="px"
     inkscape:zoom="1"
     inkscape:cx="269.99999"
     inkscape:cy="239.49999"
     inkscape:window-width="1920"
     inkscape:window-height="1017"
     inkscape:window-x="1042"
     inkscape:window-y="276"
     inkscape:window-maximized="1"
     inkscape:current-layer="svg1" /><defs
     id="defs1" /><path
     id="rect1-4"
     style="fill:#cbbf9a;fill-opacity:1;stroke-width:0.728561"
     d="m 246.19855,70.373987 c -40.29374,1.193082 -74.75378,14.76964 -89.8937,34.082373 -13.42856,38.78024 -12.69359,83.02138 -38.70221,116.95051 2.97815,5.66355 6.03245,11.2729 9.37358,16.71688 4.26884,6.87766 8.79528,13.68559 14.4848,19.48514 2.88137,2.83991 6.09265,5.6085 10.03873,6.79564 3.13935,1.04246 6.61637,0.16816 9.28754,-1.65462 4.66046,-3.14795 8.04938,-7.74823 11.27974,-12.26589 1.79393,-2.5817 3.65033,-5.4261 5.37595,-8.19384 8.94978,-14.33148 17.36949,-29.18458 28.83554,-41.71538 7.52193,-8.26728 16.48586,-15.44984 26.86816,-19.7647 2.24107,-0.99525 4.61943,-1.78263 7.09514,-1.81516 1.38035,-0.0322 2.77297,0.12927 4.08862,0.55761 3.32872,1.01976 5.81104,3.82231 7.14147,6.95611 1.74181,4.16397 2.16812,8.74128 2.23708,13.21405 0.14468,8.02813 -1.15642,15.97442 -1.84327,23.95104 -0.54743,6.44008 -0.9654,12.9959 -0.61553,19.50334 0.20398,2.95115 0.46051,6.12147 1.57688,8.97476 0.44183,1.16259 1.15437,2.61305 2.55312,2.72522 2.43189,-0.0314 4.56132,-1.40446 6.58384,-2.60441 5.27401,-3.42751 9.99343,-7.61512 14.78097,-11.67354 7.01424,-5.92178 13.99663,-11.99581 21.97371,-16.60938 5.05114,-2.9076 10.67302,-5.26318 16.59115,-5.27166 5.25573,-0.0738 10.38177,2.25375 14.05955,5.95669 4.83542,3.56485 8.73786,8.33023 11.44684,13.6823 4.39949,8.56464 6.09953,18.15946 7.52865,27.58797 0.51943,3.43692 0.97342,6.71577 1.68442,10.12804 0.62196,2.73343 1.17298,5.65449 3.00817,7.87452 1.05202,1.20266 2.84349,1.02416 4.22265,0.59235 3.38078,-0.97526 6.3374,-2.98215 9.20977,-4.95074 1.16861,-0.82591 2.22074,-1.60396 3.32916,-2.45385 2.14084,-1.65548 4.37238,-3.49268 6.46471,-5.3197 9.73716,-8.52643 18.84018,-17.73748 27.82289,-27.0485 C 398.01969,236.35882 391.19555,227.68598 383.483,218.7197 381.29525,173.26962 369.87177,130.89861 344.4598,93.189885 312.40702,76.00934 277.5381,69.445986 246.19855,70.373987 Z m 5.04005,30.824373 c 30.47075,0 52.22326,12.42931 55.17258,27.10314 4.11397,20.46853 -10.95583,37.33257 -54.4859,33.78128 -31.57733,-2.57619 -56.06296,-18.26918 -55.85924,-33.78128 0.19657,-14.96755 24.70183,-27.10314 55.17256,-27.10314 z m -21.33502,110.43612 c -2.14533,2.79857 -4.0887,5.7443 -5.97493,8.72171 -10.07676,16.01339 -19.27746,32.56575 -29.61985,48.41327 -4.52947,6.86173 -9.14143,13.72286 -14.69493,19.81112 -2.6618,2.82127 -5.54132,5.69423 -9.26769,7.03557 -4.36091,1.1886 -8.94496,1.5744 -13.44731,1.16817 -7.73049,-0.64317 -15.02136,-4.11373 -20.95611,-9.01619 -7.67889,-6.363 -13.5055,-14.61435 -18.57342,-23.12368 -5.34227,-8.99713 -9.89741,-18.42023 -14.52119,-27.78816 -5.254372,4.44904 -11.126285,8.66028 -17.962854,12.4992 -114.579925,243.25329 487.437534,264.96515 330.580394,12.43143 -0.0342,0.0415 -0.0667,0.0847 -0.10098,0.12571 -9.7683,11.72734 -19.85032,23.2445 -31.03457,33.65387 -6.07697,5.60122 -12.45658,10.98123 -19.67211,15.06887 -4.67933,2.63152 -9.87436,4.78479 -15.32865,4.73896 -4.36342,0.0475 -8.63044,-1.83457 -11.71161,-4.8912 -4.15944,-4.21801 -6.47358,-9.84176 -8.12596,-15.43782 -3.04114,-10.48579 -4.12875,-21.38771 -5.77969,-32.14486 -0.81374,-5.17576 -1.60236,-10.45598 -3.24806,-15.47424 -0.77636,-2.14719 -1.56968,-4.4499 -3.3093,-6.02294 -1.16986,-1.15242 -2.96805,-0.79966 -4.31863,-0.20679 -2.03968,1.01001 -3.79641,2.50442 -5.54473,3.94463 -7.05192,6.00904 -13.05556,13.10519 -19.64233,19.59602 -5.44966,5.33309 -11.27415,10.52993 -18.27888,13.72193 -5.88669,2.78494 -12.76957,3.55563 -19.05989,1.75563 -6.86804,-1.90141 -12.77773,-6.21381 -17.87515,-11.06959 -1.71031,-3.04791 -3.05998,-6.31412 -4.09856,-9.6565 -2.11982,-6.60623 -2.44981,-13.65754 -1.78206,-20.52598 0.93925,-9.13021 2.814,-18.1537 3.34901,-27.32814 z" /></svg>
