<?xml version="1.0" encoding="UTF-8" standalone="no"?>
<svg
   height="512"
   width="512"
   version="1.1"
   id="svg1"
   sodipodi:docname="KWD_KIT_Data_TypeDrink.svg"
   inkscape:version="1.4 (86a8ad7, 2024-10-11)"
   xmlns:inkscape="http://www.inkscape.org/namespaces/inkscape"
   xmlns:sodipodi="http://sodipodi.sourceforge.net/DTD/sodipodi-0.dtd"
   xmlns="http://www.w3.org/2000/svg"
   xmlns:svg="http://www.w3.org/2000/svg">
  <defs
     id="defs1" />
  <sodipodi:namedview
     id="namedview1"
     pagecolor="#ffffff"
     bordercolor="#000000"
     borderopacity="0.25"
     inkscape:showpageshadow="2"
     inkscape:pageopacity="0.0"
     inkscape:pagecheckerboard="0"
     inkscape:deskcolor="#d1d1d1"
     inkscape:zoom="1.2863293"
     inkscape:cx="323.01216"
     inkscape:cy="274.81299"
     inkscape:window-width="1920"
     inkscape:window-height="1009"
     inkscape:window-x="1072"
     inkscape:window-y="386"
     inkscape:window-maximized="1"
     inkscape:current-layer="svg1" />
  <path
     id="path1"
     style="fill:#cbbf9a;fill-opacity:1;stroke-width:3.94203"
     d="m 235.50195,23.322266 c -13.14004,0 -19.71093,6.898265 -19.71093,20.695312 v 14.783203 h -11.23438 c -4.86182,0 -8.9357,1.708588 -12.2207,5.125 -3.41642,3.285012 -5.125,7.356933 -5.125,12.21875 0,4.599016 1.70858,8.54116 5.125,11.826172 3.285,3.416412 7.35888,5.125 12.2207,5.125 h 6.10938 V 194.01172 c -24.83469,6.96421 -47.10634,20.23577 -66.81641,39.81445 -30.87911,31.14191 -46.31836,68.59132 -46.31836,112.34766 0,92.46388 70.76373,133.63676 88.49805,142.5039 h 139.9414 l 0.5918,-0.39453 c 14.84827,-7.35842 28.64479,-17.41039 41.39062,-30.15625 31.0105,-31.0105 46.51563,-68.32817 46.51563,-111.95312 0,-43.75634 -15.50513,-81.20575 -46.51563,-112.34766 -20.36706,-20.23567 -43.55887,-33.83656 -69.57617,-40.80078 V 93.095703 h 4.92774 c 4.599,0 8.54115,-1.708588 11.82617,-5.125 3.54782,-3.285012 5.32031,-7.227156 5.32031,-11.826172 0,-4.861817 -1.77249,-8.933738 -5.32031,-12.21875 -3.28502,-3.416412 -7.22717,-5.125 -11.82617,-5.125 H 292.66016 V 44.017578 c 0,-13.797047 -6.70068,-20.695312 -20.10352,-20.695312 z"
     sodipodi:nodetypes="sscscscscccscccsscccscscscsss" />
</svg>
