<?xml version="1.0" encoding="UTF-8" standalone="no"?>
<!-- Created with Inkscape (http://www.inkscape.org/) -->

<svg
   width="512"
   height="512"
   viewBox="0 0 512 512"
   version="1.1"
   id="svg1"
   xml:space="preserve"
   inkscape:version="1.3.2 (091e20e, 2023-11-25, custom)"
   sodipodi:docname="KWD_KIT_Food_Soup.svg"
   xmlns:inkscape="http://www.inkscape.org/namespaces/inkscape"
   xmlns:sodipodi="http://sodipodi.sourceforge.net/DTD/sodipodi-0.dtd"
   xmlns="http://www.w3.org/2000/svg"
   xmlns:svg="http://www.w3.org/2000/svg"><sodipodi:namedview
     id="namedview1"
     pagecolor="#ffffff"
     bordercolor="#000000"
     borderopacity="0.25"
     inkscape:showpageshadow="2"
     inkscape:pageopacity="0.0"
     inkscape:pagecheckerboard="0"
     inkscape:deskcolor="#d1d1d1"
     inkscape:document-units="px"
     inkscape:zoom="0.82128905"
     inkscape:cx="220.38526"
     inkscape:cy="239.25803"
     inkscape:window-width="1920"
     inkscape:window-height="1017"
     inkscape:window-x="1042"
     inkscape:window-y="276"
     inkscape:window-maximized="1"
     inkscape:current-layer="svg1"
     showgrid="false" /><defs
     id="defs1" /><path
     id="rect1"
     style="display:inline;fill:#74503e;fill-opacity:1;fill-rule:evenodd;stroke-width:1.49354"
     d="m 119.76678,144.54898 c -60.027462,14.99967 -101.3981,41.16511 -102.566407,78.62305 0,-0.111 -0.0136,0.221 -0.01953,0.33203 -0.04113,1.51963 -0.04142,3.0567 0,4.61132 0.0572,42.21748 30.907578,97.51312 65.615234,152.88672 11.793912,18.81636 39.172583,22.07151 56.318353,38.38477 l -8.89453,26.17383 125.61524,0.70703 0.008,0.004 h 0.15606 0.1543 l 0.008,-0.004 125.61914,-0.70703 -8.89453,-26.17383 c 17.14579,-16.31326 44.95298,-19.35317 56.3164,-38.38477 33.48811,-56.08624 65.531,-110.62136 65.61524,-152.83007 0.0433,-1.59045 0.043,-3.16296 0,-4.7168 -0.004,-0.078 -0.0112,-0.15655 -0.0156,-0.23438 -1.0474,-34.25639 -35.07496,-59.03632 -86.77929,-74.50781 -0.47037,1.49169 -0.95356,2.97799 -1.46875,4.45117 -2.38576,6.76344 -5.21791,13.3457 -8.35352,19.78125 37.78999,10.28998 59.36132,23.81183 59.36133,36.22071 -10e-6,24.32369 -90.24165,44.04095 -201.5625,44.04101 -111.32086,-6e-5 -201.564437,-19.71732 -201.564452,-44.04101 8e-6,-12.59497 22.32328,-26.32761 61.113282,-36.67188 -0.0102,-0.42555 -0.0441,-0.84943 -0.0488,-1.27539 -0.13875,-9.03047 1.19785,-18.16354 4.26758,-26.66992 z"
     sodipodi:nodetypes="ccccscccccccccsccccccscscccc" /><path
     id="rect2"
     style="fill:#74503e;fill-opacity:1;fill-rule:evenodd;stroke-width:1.10564"
     d="m 245.02068,32.875149 c 14.90988,26.764802 11.73337,58.01094 -5.80468,86.994141 -15.25675,25.21317 -6.61768,58.79077 5.80468,89.36133 52.53657,-57.33401 96.33392,-151.963699 0,-176.355471 z m -99.59375,20.664062 c 14.90988,26.764803 11.73337,58.008989 -5.80468,86.992189 -15.25675,25.21317 -6.61768,58.79272 5.80468,89.36328 52.53657,-57.33401 96.33392,-151.963697 0,-176.355469 z m 195.18946,0 c 14.90987,26.764803 11.73336,58.008989 -5.80469,86.992189 -15.25674,25.21317 -6.61768,58.79272 5.80469,89.36328 52.53656,-57.33401 96.33391,-151.963697 0,-176.355469 z"
     sodipodi:nodetypes="cscccscccscc" /></svg>
