<?xml version="1.0" encoding="UTF-8" standalone="no"?>
<!-- Created with Inkscape (http://www.inkscape.org/) -->

<svg
   width="512"
   height="512"
   viewBox="0 0 135.46666 135.46667"
   version="1.1"
   id="svg1"
   sodipodi:docname="KWD_KIT_Food_TypeMeatCooked.svg"
   inkscape:version="1.3.2 (091e20e, 2023-11-25, custom)"
   xml:space="preserve"
   xmlns:inkscape="http://www.inkscape.org/namespaces/inkscape"
   xmlns:sodipodi="http://sodipodi.sourceforge.net/DTD/sodipodi-0.dtd"
   xmlns="http://www.w3.org/2000/svg"
   xmlns:svg="http://www.w3.org/2000/svg"><sodipodi:namedview
     id="namedview1"
     pagecolor="#b3b3b3"
     bordercolor="#000000"
     borderopacity="0.25"
     inkscape:showpageshadow="2"
     inkscape:pageopacity="0.0"
     inkscape:pagecheckerboard="0"
     inkscape:deskcolor="#d1d1d1"
     inkscape:document-units="px"
     inkscape:zoom="0.86471233"
     inkscape:cx="114.48894"
     inkscape:cy="236.49484"
     inkscape:window-width="1920"
     inkscape:window-height="1009"
     inkscape:window-x="1042"
     inkscape:window-y="235"
     inkscape:window-maximized="1"
     inkscape:current-layer="svg1" /><defs
     id="defs1" /><path
     id="path6"
     style="fill:#7d3f35;stroke-width:1.56338;fill-opacity:1"
     d="M 102.75032,7.8325967 C 96.263937,7.5215474 89.68413,11.013411 84.631526,19.105294 71.889957,39.51126 50.942146,28.235814 34.649564,33.49718 13.518003,40.321174 2.4972311,63.713629 10.490316,84.77777 34.040317,146.83884 91.532225,134.64278 114.80436,91.812999 140.82348,43.927763 122.20947,8.765745 102.75032,7.8325967 Z M 99.803209,17.430977 C 117.30898,18.232484 134.05473,48.434079 110.64751,89.564041 89.711496,126.35174 37.991155,136.82698 16.805176,83.520999 9.614462,65.428421 19.528421,45.335911 38.538732,39.474593 c 14.65708,-4.519134 35.258651,4.907348 46.721179,-12.619902 4.545411,-6.950344 8.708029,-9.690884 14.543298,-9.423714 z m 0.709001,7.167004 C 95.241598,24.358583 91.057883,26.787674 86.952314,33.015555 76.59896,48.720914 56.488852,38.759371 43.250073,42.808756 26.079305,48.060813 17.124847,66.06471 23.619747,82.276631 42.755654,130.04165 87.167114,119.78893 106.07724,86.82519 127.21945,49.970539 116.32402,25.316174 100.51221,24.597981 Z m -6.75721,20.75429 9.50071,16.455843 c 3.18389,5.514636 -3.906853,10.208771 -6.92774,4.976439 L 86.827258,50.328193 C 82.43905,44.410614 91.130923,38.90546 93.755,45.352271 Z m -25.483581,5.845363 c 2.002172,0.05895 4.266053,1.598972 5.709729,4.099491 l 13.304614,23.044588 c 1.924898,3.334022 1.641793,7.076653 -0.635103,8.391219 -2.276896,1.314566 -5.659652,-0.311234 -7.58455,-3.645255 L 65.760978,60.042572 c -1.924901,-3.334026 -1.641276,-7.076135 0.63562,-8.390702 0.569223,-0.328641 1.20743,-0.473886 1.874821,-0.454236 z m -25.664718,4.608261 c 2.630931,0.07746 5.605339,2.100456 7.502384,5.386235 l 17.483171,30.282389 c 2.529397,4.381045 2.157354,9.298291 -0.834575,11.025681 -2.991928,1.72739 -7.436924,-0.40885 -9.966316,-4.789886 L 39.307678,67.428442 c -2.529394,-4.381038 -2.156837,-9.29881 0.835091,-11.026201 0.747982,-0.431847 1.586955,-0.622166 2.463932,-0.596346 z"
     sodipodi:nodetypes="sscccsssscssssccsscccccsccsccsssccsccss" /></svg>
