<?xml version="1.0" encoding="UTF-8" standalone="no"?>
<!-- Created with Inkscape (http://www.inkscape.org/) -->

<svg
   width="512"
   height="512"
   viewBox="0 0 512 512"
   version="1.1"
   id="svg1"
   inkscape:version="1.3.2 (091e20e, 2023-11-25, custom)"
   sodipodi:docname="KWD_KIT_Ammo_EnchantedBoltFrost.svg"
   xmlns:inkscape="http://www.inkscape.org/namespaces/inkscape"
   xmlns:sodipodi="http://sodipodi.sourceforge.net/DTD/sodipodi-0.dtd"
   xmlns="http://www.w3.org/2000/svg"
   xmlns:svg="http://www.w3.org/2000/svg">
  <sodipodi:namedview
     id="namedview1"
     pagecolor="#ffffff"
     bordercolor="#000000"
     borderopacity="0.25"
     inkscape:showpageshadow="2"
     inkscape:pageopacity="0.0"
     inkscape:pagecheckerboard="0"
     inkscape:deskcolor="#d1d1d1"
     inkscape:document-units="px"
     inkscape:zoom="0.7871094"
     inkscape:cx="192.47642"
     inkscape:cy="292.84366"
     inkscape:window-width="1920"
     inkscape:window-height="1009"
     inkscape:window-x="1042"
     inkscape:window-y="235"
     inkscape:window-maximized="1"
     inkscape:current-layer="svg1" />
  <defs
     id="defs1" />
  <path
     id="rect1"
     style="fill:#a3e5f5;fill-rule:evenodd;stroke-width:8.2944;fill-opacity:1"
     d="m 77.708531,77.70853 39.655989,103.01109 18.84329,-18.84328 156.16564,156.16564 -1.27472,49.57895 c -0.0329,1.27886 0.44009,2.51906 1.31615,3.45129 l 58.81416,62.59553 c 1.04478,1.0575 2.43519,0.0808 2.53978,-1.37417 l 3.57421,-49.28202 50.1811,50.1811 c 1.46529,1.46508 3.84077,1.46508 5.30607,0 l 20.36246,-20.36247 c 1.46508,-1.46529 1.46508,-3.84077 -10e-6,-5.30606 l -50.18109,-50.1811 49.28202,-3.57421 c 1.45499,-0.10459 2.43167,-1.495 1.37417,-2.53978 l -62.59553,-58.81416 c -0.93222,-0.87608 -2.17242,-1.34902 -3.45128,-1.31616 l -49.57896,1.27473 -156.16565,-156.16564 18.8433,-18.84329 z"
     sodipodi:nodetypes="cccccccccccccccccccccc" />
</svg>
