<?xml version="1.0" encoding="UTF-8" standalone="no"?>
<!-- Created with Inkscape (http://www.inkscape.org/) -->

<svg
   width="512"
   height="512"
   viewBox="0 0 512 512"
   version="1.1"
   id="svg1"
   inkscape:version="1.3.2 (091e20e, 2023-11-25, custom)"
   sodipodi:docname="KIT_Ammo_TypeBulletCircle.svg"
   xmlns:inkscape="http://www.inkscape.org/namespaces/inkscape"
   xmlns:sodipodi="http://sodipodi.sourceforge.net/DTD/sodipodi-0.dtd"
   xmlns="http://www.w3.org/2000/svg"
   xmlns:svg="http://www.w3.org/2000/svg">
  <sodipodi:namedview
     id="namedview1"
     pagecolor="#ffffff"
     bordercolor="#000000"
     borderopacity="0.25"
     inkscape:showpageshadow="2"
     inkscape:pageopacity="0.0"
     inkscape:pagecheckerboard="0"
     inkscape:deskcolor="#d1d1d1"
     inkscape:document-units="px"
     inkscape:zoom="0.55657039"
     inkscape:cx="156.31446"
     inkscape:cy="288.37323"
     inkscape:window-width="1920"
     inkscape:window-height="1017"
     inkscape:window-x="1042"
     inkscape:window-y="235"
     inkscape:window-maximized="1"
     inkscape:current-layer="svg1" />
  <defs
     id="defs1" />
  <path
     id="path1"
     style="fill:#a3abc2;fill-opacity:1;stroke-width:30.1841"
     d="m 168.36393,79.570283 c -2.54971,-0.02217 -5.1244,0.08361 -7.71798,0.324244 -41.49733,3.850093 -72.016591,40.611633 -68.166501,82.108963 3.8501,41.49733 40.611641,72.01659 82.108981,68.16649 41.49733,-3.85009 72.01658,-40.61163 68.16649,-82.10897 -3.60946,-38.90374 -36.14542,-68.158209 -74.39099,-68.490727 z m -18.43767,19.143476 c 1.6735,0.08939 3.27597,0.681104 4.73919,1.992951 3.90193,3.49824 5.55326,11.30623 0.73037,13.35621 -17.59185,7.47751 -26.19532,20.57868 -30.29713,36.49378 -1.30789,5.07466 -9.45428,4.22697 -13.35621,0.72873 -11.11738,-9.96717 17.86746,-50.10047 36.48887,-52.501256 0.57074,-0.07357 1.13707,-0.100197 1.69491,-0.07041 z m 31.97402,1.901241 c 1.29614,-0.0837 2.6389,0.0288 3.95152,0.33073 5.52001,1.2709 9.2513,5.53302 8.33372,9.51934 -0.91769,3.98685 -6.13739,6.18749 -11.65803,4.91605 -5.52001,-1.27089 -9.2513,-5.53301 -8.33372,-9.51933 0.67248,-2.91949 3.71405,-4.98989 7.70652,-5.24685 z m 170.14931,69.80409 c -28.07454,0.13977 -54.95277,16.01114 -67.82097,43.06054 -17.90357,37.63394 -1.90981,82.65616 35.72413,100.55974 37.63394,17.90358 82.65616,1.90818 100.55975,-35.72576 17.90355,-37.63394 1.90983,-82.65616 -35.72412,-100.55974 -10.58456,-5.03538 -21.75311,-7.38948 -32.73879,-7.33478 z m 2.56775,15.59317 c 3.77138,-0.0357 7.15273,0.46613 9.84522,1.63105 2.11263,0.91404 3.76493,2.44163 4.5476,4.94225 1.56539,5.00124 -1.00747,12.55644 -6.20158,11.8529 -18.94208,-2.56589 -33.03233,4.29628 -44.69322,15.87812 -3.71817,3.69297 -10.28753,-1.20034 -11.85291,-6.20157 -3.76319,-12.02303 27.98943,-27.90984 48.35489,-28.10275 z m 32.63396,19.20733 c 1.6224,-0.0995 3.43108,0.29855 5.21247,1.20855 1.15679,0.59061 2.25392,1.37351 3.22769,2.3041 4.09463,3.91402 5.12229,9.48372 2.29591,12.4408 -2.82674,2.95747 -8.43759,2.18222 -12.5325,-1.73258 -4.09466,-3.91401 -5.12229,-9.48371 -2.29591,-12.4408 1.03519,-1.08273 2.46998,-1.68057 4.09234,-1.78007 z M 168.42124,281.484 c -12.16762,-0.0964 -24.53251,2.75636 -36.02543,8.88231 -36.777341,19.60304 -50.699321,65.30864 -31.09627,102.08599 19.60304,36.77732 65.30865,50.69929 102.08598,31.09626 36.77733,-19.60303 50.6993,-65.30864 31.09628,-102.08598 -13.4771,-25.28442 -39.29177,-39.76657 -66.06056,-39.97858 z m -2.57429,18.34105 c 4.72301,-0.11432 8.69425,2.23072 9.30317,5.75778 0.69601,4.03147 -3.26523,8.07967 -8.84792,9.0428 -5.58189,0.96339 -10.67064,-1.52215 -11.36654,-5.55308 -0.50925,-2.95235 1.49428,-6.03977 5.07654,-7.82116 1.16285,-0.57858 2.44411,-0.99404 3.77138,-1.22328 0.69774,-0.12042 1.38865,-0.18672 2.06337,-0.20306 z m -32.72241,11.63347 c 0.58646,0.0634 1.18898,0.19811 1.8079,0.41267 4.95141,1.71649 9.49406,8.27862 5.83967,12.03469 -13.32974,13.70053 -16.19373,29.10836 -13.81966,45.37117 0.75699,5.18552 -7.08491,7.55778 -12.03632,5.8413 -14.10743,-4.89066 -2.90327,-53.11411 13.33984,-62.53152 1.49355,-0.86594 3.10916,-1.31817 4.86857,-1.12831 z" />
</svg>
