<?xml version="1.0" encoding="UTF-8" standalone="no"?>
<!-- Created with Inkscape (http://www.inkscape.org/) -->

<svg
   width="512"
   height="512"
   viewBox="0 0 512 512"
   version="1.1"
   id="svg1"
   inkscape:version="1.3.2 (091e20e, 2023-11-25, custom)"
   sodipodi:docname="KWD_KIT_Boots_Heavy_Legendary_PNK.svg"
   xmlns:inkscape="http://www.inkscape.org/namespaces/inkscape"
   xmlns:sodipodi="http://sodipodi.sourceforge.net/DTD/sodipodi-0.dtd"
   xmlns="http://www.w3.org/2000/svg"
   xmlns:svg="http://www.w3.org/2000/svg">
  <sodipodi:namedview
     id="namedview1"
     pagecolor="#ffffff"
     bordercolor="#000000"
     borderopacity="0.25"
     inkscape:showpageshadow="2"
     inkscape:pageopacity="0.0"
     inkscape:pagecheckerboard="0"
     inkscape:deskcolor="#d1d1d1"
     inkscape:document-units="px"
     inkscape:zoom="0.83886719"
     inkscape:cx="206.2305"
     inkscape:cy="264.04656"
     inkscape:window-width="1920"
     inkscape:window-height="1017"
     inkscape:window-x="1042"
     inkscape:window-y="276"
     inkscape:window-maximized="1"
     inkscape:current-layer="layer1" />
  <defs
     id="defs1" />
  <g
     inkscape:label="Layer 1"
     inkscape:groupmode="layer"
     id="layer1">
    <path
       d="m 281.92837,98.252693 q -1.55497,47.575637 13.69702,82.678377 22.00125,49.92464 11.67886,109.97317 -40.26394,-2.38209 -70.60251,-15.58284 5.3597,-60.64405 -21.10796,-111.09804 -27.72489,-53.06768 -19.51991,-134.720437 53.59703,59.750763 85.8545,68.74977 m 29.4122,2.580597 q 63.9525,-27.526375 132.10675,-5.392786 -38.14653,23.920156 -47.2117,81.586586 -8.99901,57.63335 13.7301,131.31272 22.56369,73.64629 6.55075,152.71845 -40.82638,29.64379 -91.54505,13.23384 l -16.01294,-39.56917 -34.67265,39.56917 q -81.65276,16.40995 -164.43039,0 l -6.15374,-3.40771 Q 59.004427,445.14458 71.14647,407.759 l 21.604235,19.12289 10.950995,-0.76095 q 122.97541,-10.35547 172.10602,-56.77315 l 5.32662,-5.32662 q 24.11866,-24.51568 45.75598,-49.59379 14.12712,-72.95152 -11.28184,-133.16546 -14.1602,-34.07713 -13.3,-78.31122 4.83035,-0.29776 9.03209,-2.11741 m -52.07514,256.14087 q -45.75598,43.53931 -161.71746,52.53832 l -4.40025,0.29776 -21.372643,-19.25523 q 13.366173,-1.25721 25.772893,-3.6393 54.92042,-11.11642 92.96769,-47.31096 l 3.83781,-3.8709 q 19.65225,-20.1816 37.65026,-40.95872 32.81991,14.02787 69.60997,16.50921 -13.76319,15.78135 -28.51891,31.39727 l -13.82936,14.29255"
       fill="#ffffff"
       fill-rule="evenodd"
       stroke="none"
       id="path1"
       style="fill:#ac3aac;stroke-width:0.661692;fill-opacity:1" />
  </g>
</svg>
