<?xml version="1.0" encoding="UTF-8" standalone="no"?>
<!-- Created with Inkscape (http://www.inkscape.org/) -->

<svg
   width="512"
   height="512"
   viewBox="0 0 512 512"
   version="1.1"
   id="svg1"
   inkscape:version="1.3.2 (091e20e, 2023-11-25, custom)"
   sodipodi:docname="KWD_KIT_Bracer_Clothing.svg"
   xmlns:inkscape="http://www.inkscape.org/namespaces/inkscape"
   xmlns:sodipodi="http://sodipodi.sourceforge.net/DTD/sodipodi-0.dtd"
   xmlns="http://www.w3.org/2000/svg"
   xmlns:svg="http://www.w3.org/2000/svg">
  <sodipodi:namedview
     id="namedview1"
     pagecolor="#ffffff"
     bordercolor="#000000"
     borderopacity="0.25"
     inkscape:showpageshadow="2"
     inkscape:pageopacity="0.0"
     inkscape:pagecheckerboard="0"
     inkscape:deskcolor="#d1d1d1"
     inkscape:document-units="px"
     inkscape:zoom="0.78710938"
     inkscape:cx="221.06203"
     inkscape:cy="220.4268"
     inkscape:window-width="1920"
     inkscape:window-height="1017"
     inkscape:window-x="1042"
     inkscape:window-y="276"
     inkscape:window-maximized="1"
     inkscape:current-layer="layer1" />
  <defs
     id="defs1" />
  <g
     inkscape:label="Layer 1"
     inkscape:groupmode="layer"
     id="layer1">
    <path
       style="fill:#cbbf9a;fill-opacity:1;fill-rule:evenodd;stroke:none;stroke-width:0.822613"
       d="m 447.9971,204.04434 -10.694,7.23964 -36.68671,26.81534 C 363.76259,169.87688 302.06645,129.45948 215.52797,116.84712 l -12.01146,-1.48134 32.24587,-51.166021 C 358.16816,52.683142 428.91307,99.299079 447.9971,204.04434 m 1.31747,12.33922 c 1.64523,13.27109 2.74098,27.47406 3.29047,42.61211 L 441.41618,268.3722 193.15027,449.51141 C 121.85909,440.51728 77.273989,403.33572 59.39496,337.96673 l 12.008253,3.94598 c 45.298467,15.68753 81.879147,42.33898 109.738807,79.96077 l 5.92218,13.32572 23.19712,-21.88285 c 15.6843,-13.92983 31.53572,-27.5287 47.54779,-40.79979 4.27696,-4.49867 9.37653,-9.10339 15.30193,-13.82057 20.72926,-19.19329 42.44502,-37.34866 65.15048,-54.4565 l 16.4523,-13.4928 c 24.23823,-20.07052 52.04327,-42.22651 83.4119,-66.46795 l 11.18885,-7.89518 m -300.58551,-11.18886 11.02496,2.30397 c 65.04123,15.90283 114.01254,50.89289 146.91715,104.96699 -19.52105,15.24408 -38.66292,31.64177 -57.41598,49.18982 -30.71311,-44.74899 -73.87148,-75.29501 -129.48155,-91.63805 -3.50897,-1.205 -7.18503,-2.24934 -11.02176,-3.12658 l 39.97718,-61.69615 m 46.39741,-76.5032 12.17535,1.80911 c 83.79429,12.39707 143.57205,52.15573 179.33012,119.2792 -22.3777,16.01529 -44.25735,33.39945 -65.64534,52.15572 C 286.87378,245.44822 235.43462,209.5295 166.6627,194.17295 l -11.18564,-2.30396 39.64941,-63.17749 m -112.03955,200.55423 -11.024971,-3.45435 28.299901,-45.40771 11.02175,3.12336 c 52.64738,16.89253 93.94202,47.16541 123.88714,90.81864 -13.92983,11.40737 -27.25877,22.86935 -39.98039,34.38596 -27.31018,-37.8403 -64.71346,-64.33108 -112.20343,-79.4659"
       id="path1" />
  </g>
</svg>
