<?xml version="1.0" encoding="UTF-8" standalone="no"?>
<!-- Created with Inkscape (http://www.inkscape.org/) -->

<svg
   width="512"
   height="512"
   viewBox="0 0 512 512"
   version="1.1"
   id="svg1"
   inkscape:version="1.3.2 (091e20e, 2023-11-25, custom)"
   sodipodi:docname="WKD_KIT_Appar_BootsLegendaryRDD.svg"
   xmlns:inkscape="http://www.inkscape.org/namespaces/inkscape"
   xmlns:sodipodi="http://sodipodi.sourceforge.net/DTD/sodipodi-0.dtd"
   xmlns="http://www.w3.org/2000/svg"
   xmlns:svg="http://www.w3.org/2000/svg">
  <sodipodi:namedview
     id="namedview1"
     pagecolor="#ffffff"
     bordercolor="#000000"
     borderopacity="0.25"
     inkscape:showpageshadow="2"
     inkscape:pageopacity="0.0"
     inkscape:pagecheckerboard="0"
     inkscape:deskcolor="#d1d1d1"
     inkscape:document-units="px"
     inkscape:zoom="1.1863374"
     inkscape:cx="212.41849"
     inkscape:cy="276.05974"
     inkscape:window-width="1920"
     inkscape:window-height="1017"
     inkscape:window-x="1042"
     inkscape:window-y="235"
     inkscape:window-maximized="1"
     inkscape:current-layer="layer1" />
  <defs
     id="defs1" />
  <g
     inkscape:label="Layer 1"
     inkscape:groupmode="layer"
     id="layer1">
    <g
       id="shape0-5"
       transform="matrix(0.65278578,0,0,0.65278578,209.96587,76.155585)"
       style="display:inline;fill:#ac3aac">
      <path
         d="M 17.467669,10.538417 H 315.30951 q 21.07917,0 21.07917,19.46408 V 141.44471 q 0,19.62972 -21.07917,19.62972 h -34.2485 q -22.69429,91.93672 0.95249,187.14505 64.81124,102.95256 40.87457,202.13654 -60.79419,37.1474 -136.41421,16.60658 L 162.53718,517.22567 111.0609,566.9626 q -121.546962,20.54082 -245.04032,0 -90.23879,-39.25945 -47.79053,-101.33744 Q -73.185244,457.4254 -3.2387979,401.60076 33.742953,370.58247 66.376345,338.77733 80.82946,249.6567 62.856245,161.07443 H 17.467669 q -21.0377699,0 -21.0377699,-19.62972 V 30.002497 q 0,-19.46408 21.0377699,-19.46408"
         fill="#ffffff"
         fill-rule="evenodd"
         stroke="none"
         id="path1-2"
         style="fill:#b24d5e;fill-opacity:1;stroke-width:0.828258" />
    </g>
  </g>
</svg>
