<?xml version="1.0" encoding="UTF-8" standalone="no"?>
<!-- Created with Inkscape (http://www.inkscape.org/) -->

<svg
   width="512"
   height="512"
   viewBox="0 0 512 512"
   version="1.1"
   id="svg1"
   inkscape:version="1.3.2 (091e20e, 2023-11-25, custom)"
   sodipodi:docname="KWD_KIT_Circlet_Heavy.svg"
   xmlns:inkscape="http://www.inkscape.org/namespaces/inkscape"
   xmlns:sodipodi="http://sodipodi.sourceforge.net/DTD/sodipodi-0.dtd"
   xmlns="http://www.w3.org/2000/svg"
   xmlns:svg="http://www.w3.org/2000/svg">
  <sodipodi:namedview
     id="namedview1"
     pagecolor="#ffffff"
     bordercolor="#000000"
     borderopacity="0.25"
     inkscape:showpageshadow="2"
     inkscape:pageopacity="0.0"
     inkscape:pagecheckerboard="0"
     inkscape:deskcolor="#d1d1d1"
     inkscape:document-units="px"
     inkscape:zoom="1.1131408"
     inkscape:cx="272.20276"
     inkscape:cy="194.49471"
     inkscape:window-width="1920"
     inkscape:window-height="1017"
     inkscape:window-x="1042"
     inkscape:window-y="276"
     inkscape:window-maximized="1"
     inkscape:current-layer="layer1" />
  <defs
     id="defs1" />
  <g
     inkscape:label="Layer 1"
     inkscape:groupmode="layer"
     id="layer1">
    <path
       id="path1"
       d="m 166.94922,143.09961 c -39.94748,3.84109 -157.798829,19.0826 -157.798829,51.6992 0,3.91655 0.523584,7.51521 7.999999,14.10157 35.003215,-29.43451 145.72172,-32.42288 154.15039,-40.85157 10.64048,-10.3604 4.46967,-18.9508 -4.35156,-24.9492 z m 178.10156,0 c -8.82123,5.9984 -14.99204,14.5888 -4.35156,24.9492 8.42867,8.42868 119.14718,11.41706 154.15039,40.85157 7.47641,-6.58636 8,-10.18502 8,-14.10157 0,-32.6166 -117.85135,-47.85811 -157.79883,-51.6992 z M 256,192.5 c -3.93333,1.93331 -9.98374,4.93332 -18.15039,8.99999 -42.1016,21.3972 -85.07878,41.41356 -131.40039,51.79882 C 99.107522,210.56423 86.3244,222.43295 48.300781,232.8496 36.825085,230.18561 3.191763,220.88558 0,202.79881 v 57.1504 c 3.232333,22.62636 57.160688,35.90349 80.40039,40.5996 19.089932,3.91586 51.44608,35.7554 82.09961,41.1504 19.92057,3.46444 35.15625,-5.82437 37.5,-17.25 13.1361,15.98221 29.01281,28.94929 48.34961,40.25 1.71098,0.99421 3.51536,1.95157 5.30664,2.91406 0.7911,0.42495 1.537,0.86842 2.34375,1.28711 0.80675,-0.41869 1.5526,-0.86201 2.34375,-1.28711 1.79128,-0.96249 3.59566,-1.91985 5.30664,-2.91406 19.3368,-11.30071 35.21351,-24.26779 48.34961,-40.25 2.34375,11.42563 17.57943,20.71444 37.5,17.25 30.65353,-5.395 63.00968,-37.23454 82.09961,-41.1504 23.2397,-4.6961 77.16805,-17.97323 80.40039,-40.5996 v -57.1504 c -3.19177,18.08677 -36.82508,27.3868 -48.30078,30.05079 C 425.6756,222.43295 412.89247,210.56423 405.55078,253.29881 359.22917,242.91355 316.25199,222.89719 274.15039,201.49999 265.98374,197.43332 259.93333,194.43331 256,192.5 Z m 0,44.40038 c 0.78313,0 1.56275,0.0866 2.34375,0.14258 20.38891,1.46122 39.70703,21.57309 39.70703,41.40625 C 298.05078,299.27426 276.98194,320 256,320 c -20.98194,0 -42.05078,-20.72573 -42.05078,-41.55079 0,-19.83316 19.31813,-39.94503 39.70703,-41.40625 0.781,-0.056 1.56062,-0.14258 2.34375,-0.14258 z"
       style="fill:#808080;fill-opacity:1" />
  </g>
</svg>
