<?xml version="1.0" encoding="UTF-8" standalone="no"?>
<!-- Created with Inkscape (http://www.inkscape.org/) -->

<svg
   width="512"
   height="512"
   viewBox="0 0 512 512"
   version="1.1"
   id="svg1"
   inkscape:version="1.3.2 (091e20e, 2023-11-25, custom)"
   sodipodi:docname="KWD_KIT_MagicBoundBow.svg"
   xmlns:inkscape="http://www.inkscape.org/namespaces/inkscape"
   xmlns:sodipodi="http://sodipodi.sourceforge.net/DTD/sodipodi-0.dtd"
   xmlns="http://www.w3.org/2000/svg"
   xmlns:svg="http://www.w3.org/2000/svg">
  <sodipodi:namedview
     id="namedview1"
     pagecolor="#ffffff"
     bordercolor="#000000"
     borderopacity="0.25"
     inkscape:showpageshadow="2"
     inkscape:pageopacity="0.0"
     inkscape:pagecheckerboard="0"
     inkscape:deskcolor="#d1d1d1"
     inkscape:document-units="px"
     inkscape:zoom="0.82128906"
     inkscape:cx="137.58858"
     inkscape:cy="169.85493"
     inkscape:window-width="1920"
     inkscape:window-height="1017"
     inkscape:window-x="1042"
     inkscape:window-y="276"
     inkscape:window-maximized="1"
     inkscape:current-layer="layer1" />
  <defs
     id="defs1" />
  <g
     inkscape:label="Layer 1"
     inkscape:groupmode="layer"
     id="layer1">
    <path
       d="M 383.51168,165.73324 Q 359.75895,153.5091 346.62583,128.71516 327.96297,89.591652 299.90585,66.148968 254.66255,28.093889 184.50403,30.325029 134.95634,31.676283 90.59278,45.848737 68.34816,52.730704 48.051515,62.88082 l -3.738854,1.94832 402.916649,402.95647 q 1.06825,-1.91689 1.94798,-4.46228 2.23075,-4.17945 4.02164,-8.35892 26.58044,-58.66955 28.68549,-127.20641 3.42468,-113.94527 -98.37274,-162.02476 m 83.44874,290.70813 -0.47128,0.9113 q 1.79089,0.87989 3.73886,2.23114 l 0.15709,0.15713 q 5.96961,5.05935 6.56656,15.96364 0.43986,10.90432 -4.33581,21.05444 -5.37264,10.30723 -13.13312,13.7325 -7.76049,3.73952 -13.88718,-1.7912 -5.65541,-4.77652 -6.72365,-15.68082 0.31419,-0.87989 -0.12568,-1.7912 0.28276,-5.3736 1.63377,-10.43294 l 1.03684,-1.63408 q -0.1571,-0.59707 0,-0.75419 L 33.567377,70.485551 Q 32.970418,70.799796 32.247781,71.396862 25.96399,72.873814 18.957564,72.873814 8.2122819,72.119626 3.1224114,66.02327 -2.093135,60.335436 1.4886262,52.416458 5.0703866,44.811728 15.218709,39.281015 q 9.991227,-4.933649 21.050698,-4.336583 11.028054,0.754188 15.96083,6.567722 1.508109,2.105442 2.544935,4.053762 Q 65.677548,38.84107 77.930941,33.153234 140.32899,2.3886409 214.50912,0.15750084 284.66766,-1.9165168 329.91095,36.012865 q 31.79598,26.710832 51.49567,73.281945 6.72365,14.95808 21.49056,21.5258 112.57411,47.01106 108.99236,166.76986 -2.54495,87.32872 -44.92912,158.8509"
       fill="#ffffff"
       fill-rule="evenodd"
       stroke="none"
       id="path1609"
       style="fill:#ecb279;stroke-width:0.628435" />
    <path
       id="path1"
       d="m 292.63572,487.3198 c -1.89684,3.28519 -3.35634,4.43357 -7.22458,5.38597 l -4.86806,1.30423 -26.53492,-16.11612 c -14.60394,-8.96248 -51.61888,-30.46496 -51.42081,-30.617 4.10913,-3.15299 4.0561,-17.4625 3.01261,-21.35771 -0.36799,-1.37351 24.41202,13.29788 46.71236,26.17298 l 40.61841,23.45103 0.95222,3.86849 c 0.85701,2.88399 0.47728,4.92125 -1.24723,7.90813 z m -47.34621,19.69951 c -0.34491,0.59708 -1.54768,1.76147 -2.57799,2.62629 -1.13,0.80791 -3.55837,1.79495 -5.38522,2.20059 -3.18292,0.68432 -4.73375,-0.0781 -39.87638,-20.36793 C 169.37532,475.26937 160.28904,469.62528 157.83521,466.7483 156.0474,464.78696 87.847463,368.86455 86.928692,367.00684 85.968317,364.99229 58.790091,326.5387 57.435386,323.3674 56.080576,320.19579 52.980192,315.21983 50.625581,312.40054 46.724794,307.89162 43.454654,305.73805 23.842585,294.41517 11.597241,287.34529 1.0178758,280.83915 0.29417327,280.02301 -0.81212589,278.72067 1.0578181,275.02172 15.714845,249.63514 l 16.611013,-28.77123 48.410586,28.3479 c 47.812686,28.0032 48.409996,28.34807 53.459736,34.31637 2.83658,3.36344 6.83307,8.85623 8.99972,12.2311 2.00784,3.41793 5.27418,9.94764 7.04961,14.68927 1.83308,4.64225 3.93701,12.49404 4.7127,17.58786 0.7338,4.93653 1.28255,12.95236 1.10506,17.62848 -4.20548,22.82572 -4.21684,12.73207 -3.58768,14.971 1.00144,3.56384 4.72163,17.72796 20.89031,33.7511 7.46108,7.39401 11.80266,11.87609 16.52683,27.31982 0.36318,1.66992 1.91596,15.04525 0.82356,16.93717 -1.43683,2.48853 -3.2679,3.82083 -6.56574,4.70435 -2.61186,0.61581 -5.64868,0.58805 -7.04271,-0.21674 -1.39359,-0.80471 -7.83776,-11.50509 -22.71744,-32.17501 -17.76964,-24.8607 -25.40424,-25.71998 -26.92831,-26.06875 -1.22551,-0.1768 -11.5517,-6.71201 -12.65502,-5.49062 -4.28218,-1.69323 30.50813,51.9699 56.35086,77.81507 6.16738,6.16799 19.15937,5.87894 19.43311,4.03213 2.85761,-1.27077 4.35896,2.37547 28.67716,16.81365 18.3027,10.83266 24.94208,15.19679 26.30072,17.44171 1.09109,1.55889 1.57657,4.62645 1.19657,6.66379 -0.43709,2.13703 -1.03127,4.31611 -1.47596,4.85575 z m 38.11396,-68.08409 c -1.2646,2.19027 -3.09569,3.52228 -5.8646,4.18009 l -3.96813,0.89487 -40.59154,-23.03731 -40.6915,-23.09475 -12.83916,-17.76642 c -7.08553,-9.79903 -12.69345,-18.47896 -12.58962,-19.34826 0.21852,-1.06832 12.7358,5.76015 57.73479,31.74012 48.38333,27.93433 57.62654,33.53626 59.26884,36.21008 1.13289,1.71617 1.82145,3.97215 1.75986,4.99853 -0.2186,1.06825 -1.18431,3.43109 -2.21894,5.22305 z m -29.47371,-65.17635 c -0.57464,0.99581 -1.9501,2.45829 -2.98056,3.32356 -1.13009,0.80763 -3.55856,1.79495 -5.38542,2.20027 -3.18273,0.68439 -4.93263,-0.19293 -36.76342,-18.17228 l -38.91109,-22.06715 c 0.60566,-13.04675 -7.15802,-31.75764 -7.40284,-30.55013 l 56.79844,32.38812 c 22.89778,13.2199 32.87999,19.38134 34.15444,21.31193 1.09118,1.55916 1.90598,4.28614 1.84026,6.23929 -0.1234,2.05266 -0.67553,4.38855 -1.34982,5.32639 z"
       style="fill:#ecb279;fill-opacity:1;stroke-width:0.108447" />
    <path
       id="path2"
       d="m 365.77622,12.383415 c 0.94791,-1.641708 1.67727,-2.215589 3.61035,-2.6915318 l 2.43271,-0.6517632 13.26031,8.053713 c 7.29803,4.478822 25.79551,15.224262 25.69653,15.300241 -2.05346,1.575645 -2.02696,8.72654 -1.50549,10.673094 0.18389,0.686385 -12.19943,-6.645353 -23.34358,-13.07943 L 365.6288,18.268549 365.15295,16.335347 c -0.42828,-1.441217 -0.23852,-2.459297 0.62327,-3.951932 z m 23.66034,-9.8444407 c 0.17236,-0.2983789 0.77342,-0.8802598 1.2883,-1.3124365 0.56469,-0.40373712 1.77822,-0.89699086 2.69116,-1.09970144 1.5906,-0.34197542 2.36559,0.0390289 19.92743,10.17847064 14.02973,8.100073 18.57042,10.920596 19.79667,12.35831 0.89342,0.98014 34.97499,48.91547 35.43413,49.843824 0.47993,1.006731 14.06171,20.223154 14.7387,21.807948 0.67704,1.58495 2.22639,4.071583 3.40306,5.480467 1.94934,2.253244 3.58353,3.329444 13.38428,8.987834 6.11936,3.53303 11.40619,6.78435 11.76785,7.1922 0.55285,0.65082 -0.38161,2.49929 -7.70618,15.18574 l -8.30102,14.37785 -24.19224,-14.1663 c -23.89344,-13.99405 -24.19193,-14.16639 -26.71544,-17.14893 -1.41753,-1.68081 -3.41469,-4.42573 -4.49743,-6.11225 -1.00338,-1.70805 -2.63567,-4.97114 -3.52291,-7.34068 -0.91604,-2.319868 -1.96744,-6.24364 -2.35508,-8.789176 -0.3667,-2.466934 -0.64093,-6.472687 -0.55223,-8.809485 2.10161,-11.406703 2.10728,-6.362601 1.79287,-7.481462 -0.50045,-1.780959 -2.35954,-8.859198 -10.43952,-16.866446 -3.72852,-3.695011 -5.89814,-5.934842 -8.25895,-13.652539 -0.1815,-0.834509 -0.95747,-7.518567 -0.41156,-8.464016 0.71803,-1.243594 1.63307,-1.909385 3.2811,-2.350906 1.30522,-0.307739 2.82281,-0.293867 3.51945,0.108311 0.69642,0.402138 3.91677,5.749442 11.35259,16.078824 8.88003,12.423645 12.69527,12.853053 13.4569,13.027344 0.61242,0.08835 5.77273,3.354194 6.32409,2.743829 2.13994,0.846158 -15.24583,-25.97093 -28.16023,-38.886544 -3.08202,-3.082331 -9.57451,-2.937884 -9.71131,-2.014977 -1.42803,0.635042 -2.1783,-1.187094 -14.33085,-8.40229 -9.14641,-5.413408 -12.46431,-7.5942956 -13.14326,-8.7161501 -0.54525,-0.7790245 -0.78786,-2.3119771 -0.59796,-3.3300973 0.21842,-1.0679386 0.51535,-2.1568908 0.73758,-2.4265653 z m -19.0467,34.0236797 c 0.63196,-1.094544 1.54701,-1.76019 2.93072,-2.088917 l 1.98299,-0.447194 20.28482,11.512441 20.33478,11.541144 6.41611,8.878417 c 3.54086,4.896872 6.34331,9.234496 6.29142,9.668911 -0.1092,0.533872 -6.36447,-2.878521 -28.85182,-15.861498 -24.17862,-13.959628 -28.79773,-16.759082 -29.61844,-18.095271 -0.56614,-0.857622 -0.91023,-1.985003 -0.87945,-2.497917 0.10924,-0.533836 0.59183,-1.714619 1.10887,-2.610116 z m 14.7289,32.570593 c 0.28717,-0.497637 0.97453,-1.228482 1.48948,-1.660884 0.56474,-0.403597 1.77832,-0.896991 2.69126,-1.099541 1.5905,-0.342011 2.46498,0.09641 18.37179,9.081238 l 19.44505,11.027623 c -0.30267,6.519856 3.57708,15.870247 3.69942,15.266817 l -28.3839,-16.185317 c -11.44271,-6.606384 -16.43112,-9.685442 -17.068,-10.650216 -0.5453,-0.779159 -0.95248,-2.141914 -0.91964,-3.117962 0.0617,-1.025776 0.33759,-2.193091 0.67455,-2.661758 z"
       style="fill:#ecb279;fill-opacity:1;stroke-width:0.0541942" />
  </g>
</svg>
