<?xml version="1.0" encoding="UTF-8" standalone="no"?>
<!-- Created with Inkscape (http://www.inkscape.org/) -->

<svg
   width="512"
   height="512"
   viewBox="0 0 512 512"
   version="1.1"
   id="svg1"
   inkscape:version="1.3.2 (091e20e, 2023-11-25, custom)"
   sodipodi:docname="KWD_KIT_MagicBoundBattleAxe.svg"
   xmlns:inkscape="http://www.inkscape.org/namespaces/inkscape"
   xmlns:sodipodi="http://sodipodi.sourceforge.net/DTD/sodipodi-0.dtd"
   xmlns="http://www.w3.org/2000/svg"
   xmlns:svg="http://www.w3.org/2000/svg">
  <sodipodi:namedview
     id="namedview1"
     pagecolor="#ffffff"
     bordercolor="#000000"
     borderopacity="0.25"
     inkscape:showpageshadow="2"
     inkscape:pageopacity="0.0"
     inkscape:pagecheckerboard="0"
     inkscape:deskcolor="#d1d1d1"
     inkscape:document-units="px"
     inkscape:zoom="0.82128906"
     inkscape:cx="187.51011"
     inkscape:cy="128.4566"
     inkscape:window-width="1920"
     inkscape:window-height="1017"
     inkscape:window-x="1042"
     inkscape:window-y="276"
     inkscape:window-maximized="1"
     inkscape:current-layer="layer1" />
  <defs
     id="defs1" />
  <g
     inkscape:label="Layer 1"
     inkscape:groupmode="layer"
     id="layer1">
    <path
       d="m 114.34937,325.25266 -6.68203,-15.40502 q 9.92519,1.62158 19.40305,2.57217 70.06345,6.17878 126.23164,-32.71119 L 23.932292,50.227052 16.355592,57.691912 2.49e-6,41.336312 41.098672,0.23764249 57.454272,16.593242 50.324912,23.834432 279.69464,253.316 q 39.02976,-56.30798 32.82303,-126.37143 -0.92263,-9.56173 -2.46033,-19.37509 l 15.32113,6.65407 q 104.75969,47.41725 156.59434,131.26413 18.34063,29.77557 30.02719,63.99651 -54.07131,-10.84782 -98.10561,4.19374 -25.58182,8.66707 -47.75274,26.05712 l 23.34516,23.34516 -5.84328,5.73145 9.4499,24.63124 -24.74308,-9.22623 -5.25615,5.25616 -23.37313,-23.34517 q -17.27821,22.08705 -25.91732,47.64092 -15.06952,44.0343 -4.19375,97.99378 -34.22093,-11.57473 -63.9965,-29.8874 -83.87484,-51.86261 -131.26413,-156.6223 m 238.12068,-29.44007 q 0.11183,-12.1339 -8.63911,-20.88484 -8.63911,-8.63911 -21.02463,-8.7789 -12.38552,0.13979 -21.24829,9.00257 l 42.0213,41.93742 q 8.89073,-8.89073 8.89073,-21.27625 m -77.33261,5.73145 q -8.75094,8.75094 -8.75094,21.13646 0,12.27368 8.63911,20.91279 8.7789,8.75094 21.02463,8.75094 12.38552,-0.11183 21.13646,-8.86277 l -42.04926,-41.93742"
       fill="#ffffff"
       fill-rule="evenodd"
       stroke="none"
       id="path1482"
       style="fill:#ecb279;stroke-width:0.559166" />
    <path
       id="path1"
       d="m 175.78759,497.17295 c -1.13956,1.97363 -2.01638,2.66354 -4.34028,3.23571 l -2.92458,0.78354 -15.94129,-9.68204 c -8.77356,-5.38435 -31.01091,-18.30233 -30.89192,-18.39367 2.46863,-1.89421 2.43678,-10.49089 1.80988,-12.831 -0.22108,-0.82516 14.66593,7.98892 28.06323,15.72386 l 24.4022,14.0886 0.57205,2.32406 c 0.51487,1.7326 0.28674,2.95652 -0.74929,4.75094 z m -28.44403,11.83481 c -0.20721,0.35871 -0.92979,1.05823 -1.54877,1.57779 -0.67886,0.48536 -2.13775,1.07834 -3.23526,1.32203 -1.91219,0.41112 -2.84388,-0.0469 -23.95641,-12.23637 -16.86628,-9.73776 -22.325018,-13.12854 -23.799193,-14.85694 -1.074058,-1.17831 -42.046308,-58.8053 -42.598275,-59.92135 -0.576961,-1.21028 -16.904736,-24.31192 -17.718598,-26.21713 -0.813925,-1.9054 -2.676532,-4.89478 -4.091104,-6.58853 -2.343463,-2.7088 -4.308055,-4.0026 -16.090335,-10.805 C 6.9490197,377.0349 0.59328869,373.12624 0.15851228,372.63592 -0.5061155,371.85352 0.61728471,369.63131 9.4227397,354.3799 l 9.9793443,-17.2848 29.083471,17.03048 c 28.724269,16.82339 29.083108,17.03058 32.116827,20.61613 1.704121,2.02065 4.105083,5.32053 5.406731,7.34804 1.206244,2.05338 3.168551,5.97621 4.23517,8.82483 1.101255,2.78891 2.365229,7.506 2.831233,10.5662 0.440844,2.9657 0.770518,7.78135 0.663884,10.5906 -2.526512,13.71294 -2.533335,7.64901 -2.155359,8.99408 0.601637,2.14104 2.836599,10.65037 12.550209,20.27654 4.48237,4.44208 7.09064,7.13476 9.92877,16.41284 0.21818,1.00323 1.15104,9.03869 0.49477,10.17529 -0.8632,1.49503 -1.96325,2.29543 -3.94449,2.82622 -1.56911,0.36996 -3.39353,0.35328 -4.23102,-0.13021 -0.83722,-0.48344 -4.70866,-6.91188 -13.647881,-19.32968 -10.675405,-14.93548 -15.262017,-15.45171 -16.177637,-15.66124 -0.736241,-0.10621 -6.939879,-4.03235 -7.60271,-3.29858 -2.572588,-1.01724 18.328276,31.22179 33.853718,46.74871 3.70516,3.70552 11.51031,3.53187 11.67477,2.42237 1.71676,-0.76343 2.61871,1.4271 17.22828,10.10108 10.99566,6.50791 14.98437,9.12973 15.8006,10.4784 0.65549,0.93653 0.94715,2.77942 0.71886,4.00339 -0.26259,1.28386 -0.61955,2.59298 -0.88671,2.91717 z m 22.8976,-40.90266 c -0.75973,1.31584 -1.85978,2.11607 -3.52326,2.51126 l -2.38391,0.53761 -24.38605,-13.84006 -24.44611,-13.87455 -7.71334,-10.67348 c -4.25675,-5.88693 -7.6258,-11.10154 -7.56342,-11.62379 0.13128,-0.64181 7.65125,3.46051 34.68514,19.06841 29.0671,16.78201 34.62011,20.14747 35.60675,21.75381 0.68061,1.03102 1.09427,2.38634 1.05727,3.00295 -0.13133,0.64177 -0.7115,2.06129 -1.33307,3.13784 z m -17.70682,-39.15579 c -0.34523,0.59825 -1.17156,1.47687 -1.79063,1.99669 -0.67891,0.4852 -2.13786,1.07835 -3.23537,1.32185 -1.91209,0.41115 -2.96337,-0.11591 -22.08625,-10.91731 l -23.37648,-13.25721 c 0.36385,-7.83805 -4.300309,-19.07893 -4.447386,-18.3535 l 34.122616,19.45771 c 13.75622,7.94207 19.7532,11.64366 20.51885,12.8035 0.65554,0.93669 1.14505,2.57497 1.10557,3.74835 -0.0741,1.23318 -0.40584,2.6365 -0.81093,3.19992 z"
       style="fill:#ecb279;fill-opacity:1;stroke-width:0.0651513" />
    <path
       id="path2"
       d="m 336.21242,15.06468 c 1.13956,-1.97363 2.01638,-2.66354 4.34028,-3.23571 l 2.92458,-0.78354 15.94129,9.68204 c 8.77356,5.38435 31.01091,18.30233 30.89192,18.39367 -2.46863,1.89421 -2.43678,10.49089 -1.80988,12.831 0.22108,0.82516 -14.66593,-7.98892 -28.06323,-15.72386 l -24.4022,-14.0886 -0.57205,-2.32406 c -0.51487,-1.7326 -0.28674,-2.95652 0.74929,-4.75094 z M 364.65645,3.2298702 c 0.20721,-0.35871 0.92979,-1.05823 1.54877,-1.57779 0.67886,-0.48536 2.13775,-1.07833999 3.23526,-1.32202999 1.91219,-0.41112 2.84388,0.0469 23.95641,12.23636979 16.86628,9.73776 22.32502,13.12854 23.7992,14.85694 1.07406,1.17831 42.04631,58.80529 42.59828,59.92134 0.57696,1.21028 16.90473,24.31192 17.71859,26.21713 0.81393,1.9054 2.67654,4.89478 4.09111,6.58853 2.34346,2.7088 4.30805,4.0026 16.09033,10.805 7.3566,4.24736 13.71233,8.15602 14.1471,8.64634 0.66463,0.7824 -0.45877,3.00461 -9.26422,18.25602 l -9.97935,17.2848 -29.08347,-17.03048 c -28.72427,-16.82339 -29.08311,-17.03058 -32.11683,-20.61613 -1.70412,-2.02065 -4.10508,-5.32053 -5.40673,-7.34804 -1.20624,-2.05338 -3.16855,-5.97621 -4.23517,-8.82483 -1.10125,-2.78891 -2.36523,-7.506 -2.83123,-10.5662 -0.44084,-2.9657 -0.77052,-7.78135 -0.66388,-10.5906 2.52651,-13.71294 2.53333,-7.64901 2.15536,-8.99408 -0.60164,-2.14104 -2.8366,-10.65037 -12.55022,-20.27653 -4.48237,-4.44208 -7.09064,-7.13476 -9.92877,-16.41284 -0.21818,-1.00323 -1.15104,-9.03869 -0.49477,-10.17529 0.8632,-1.49503 1.96325,-2.29543 3.94449,-2.82622 1.56911,-0.36996 3.39353,-0.35328 4.23102,0.13021 0.83722,0.48344 4.70866,6.91188 13.64789,19.32968 10.6754,14.93548 15.26201,15.4517 16.17764,15.66123 0.73624,0.10621 6.93987,4.03235 7.60271,3.29858 2.57258,1.01724 -18.32828,-31.22178 -33.85373,-46.7487 -3.70516,-3.70552 -11.51031,-3.53187 -11.67477,-2.42237 -1.71676,0.76343 -2.61871,-1.4271 -17.22828,-10.10108 -10.99566,-6.50791 -14.98437,-9.12973 -15.8006,-10.4784 -0.65549,-0.9365298 -0.94715,-2.7794198 -0.71886,-4.0033898 0.26259,-1.28386 0.61955,-2.59298 0.88671,-2.91717 z M 341.75885,44.13253 c 0.75973,-1.31584 1.85978,-2.11607 3.52326,-2.51126 l 2.38391,-0.53761 24.38605,13.84006 24.44611,13.87455 7.71334,10.67347 c 4.25675,5.88693 7.6258,11.10154 7.56342,11.62379 -0.13128,0.64181 -7.65125,-3.46051 -34.68514,-19.0684 -29.0671,-16.78201 -34.62011,-20.14747 -35.60675,-21.75381 -0.68061,-1.03102 -1.09427,-2.38634 -1.05727,-3.00295 0.13133,-0.64177 0.7115,-2.06129 1.33307,-3.13784 z m 17.70682,39.15578 c 0.34523,-0.59825 1.17156,-1.47687 1.79063,-1.99669 0.67891,-0.4852 2.13786,-1.07835 3.23537,-1.32185 1.91209,-0.41115 2.96337,0.11591 22.08625,10.91731 l 23.37648,13.25721 c -0.36385,7.83805 4.30032,19.07893 4.44739,18.3535 l -34.12262,-19.45771 c -13.75622,-7.94207 -19.7532,-11.64366 -20.51885,-12.8035 -0.65554,-0.93669 -1.14505,-2.57497 -1.10557,-3.74835 0.0741,-1.23318 0.40584,-2.6365 0.81093,-3.19992 z"
       style="fill:#ecb279;fill-opacity:1;stroke-width:0.0651513" />
  </g>
</svg>
