<?xml version="1.0" encoding="UTF-8" standalone="no"?>
<!-- Created with Inkscape (http://www.inkscape.org/) -->

<svg
   width="512"
   height="512"
   viewBox="0 0 512 512"
   version="1.1"
   id="svg1"
   inkscape:version="1.3.2 (091e20e, 2023-11-25, custom)"
   sodipodi:docname="KWD_KIT_MagicBoundWarhammer.svg"
   xmlns:inkscape="http://www.inkscape.org/namespaces/inkscape"
   xmlns:sodipodi="http://sodipodi.sourceforge.net/DTD/sodipodi-0.dtd"
   xmlns="http://www.w3.org/2000/svg"
   xmlns:svg="http://www.w3.org/2000/svg">
  <sodipodi:namedview
     id="namedview1"
     pagecolor="#ffffff"
     bordercolor="#000000"
     borderopacity="0.25"
     inkscape:showpageshadow="2"
     inkscape:pageopacity="0.0"
     inkscape:pagecheckerboard="0"
     inkscape:deskcolor="#d1d1d1"
     inkscape:document-units="px"
     inkscape:zoom="0.82128906"
     inkscape:cx="180.20452"
     inkscape:cy="104.10464"
     inkscape:window-width="1920"
     inkscape:window-height="1017"
     inkscape:window-x="1042"
     inkscape:window-y="276"
     inkscape:window-maximized="1"
     inkscape:current-layer="layer1" />
  <defs
     id="defs1" />
  <g
     inkscape:label="Layer 1"
     inkscape:groupmode="layer"
     id="layer1">
    <path
       id="path1"
       d="m 196.43243,495.43164 c -1.27338,2.20542 -2.25318,2.97634 -4.85001,3.61572 l -3.26804,0.87556 -17.81348,-10.81911 c -9.80394,-6.01671 -34.65289,-20.4518 -34.51992,-20.55387 2.75855,-2.11667 2.72295,-11.72296 2.02243,-14.33789 -0.24704,-0.92207 16.38833,8.92715 31.35903,17.57049 l 27.26805,15.74319 0.63923,2.597 c 0.57533,1.93609 0.32041,3.30374 -0.83729,5.30891 z m -31.78455,13.22471 c -0.23154,0.40084 -1.03899,1.18252 -1.73066,1.76309 -0.75859,0.54237 -2.38881,1.20499 -3.61522,1.4773 -2.13676,0.4594 -3.17787,-0.0524 -26.76989,-13.67344 -18.8471,-10.88138 -24.94692,-14.67038 -26.59422,-16.60176 -1.2002,-1.3167 -46.984318,-65.71153 -47.601113,-66.95865 -0.644716,-1.35241 -18.890061,-27.16715 -19.799498,-29.29612 -0.909518,-2.12917 -2.990869,-5.46964 -4.571573,-7.36229 -2.618689,-3.02694 -4.814004,-4.47268 -17.980014,-12.07398 -8.2205754,-4.74617 -15.32273379,-9.11387 -15.80857342,-9.66177 -0.74268396,-0.8743 0.51265915,-3.35747 10.35223442,-20.40004 l 11.151341,-19.31477 32.499094,19.03057 c 32.097704,18.79916 32.49869,19.03069 35.888692,23.03734 1.904257,2.25796 4.587193,5.94538 6.041713,8.211 1.347905,2.29454 3.540668,6.67808 4.732557,9.86124 1.23059,3.11644 2.64301,8.38753 3.16374,11.80711 0.49262,3.314 0.86101,8.69521 0.74185,11.83439 -2.82323,15.32341 -2.83085,8.54732 -2.40849,10.05036 0.6723,2.39249 3.16973,11.90117 14.02413,22.65786 5.00879,4.96376 7.92338,7.97269 11.09482,18.3404 0.24381,1.12106 1.28623,10.10021 0.55288,11.37029 -0.96458,1.67061 -2.19382,2.56501 -4.40773,3.15814 -1.7534,0.41341 -3.79208,0.39477 -4.72793,-0.1455 -0.93554,-0.54022 -5.26165,-7.72362 -15.25071,-21.5998 -11.929156,-16.68954 -17.054432,-17.26639 -18.077575,-17.50053 -0.822704,-0.11869 -7.754913,-4.50592 -8.495592,-3.68597 -2.874719,-1.1367 20.480782,34.88855 37.829577,52.23897 4.1403,4.14071 12.8621,3.94666 13.04587,2.70686 1.91838,-0.8531 2.92626,1.5947 19.25161,11.28738 12.287,7.2722 16.74417,10.20194 17.65626,11.709 0.73247,1.04652 1.05838,3.10584 0.80328,4.47355 -0.29343,1.43464 -0.69231,2.8975 -0.99085,3.25977 z M 190.23462,462.95 c -0.84895,1.47037 -2.0782,2.36458 -3.93703,2.80619 l -2.6639,0.60075 -27.24999,-15.46546 -27.3171,-15.50402 -8.61921,-11.92699 c -4.75668,-6.57831 -8.52139,-12.40533 -8.45169,-12.98891 0.14669,-0.71719 8.54982,3.86691 38.75864,21.30784 32.48079,18.75293 38.68597,22.51363 39.78847,24.30863 0.76054,1.1521 1.22278,2.66659 1.18143,3.35562 -0.14674,0.71715 -0.79505,2.30336 -1.48962,3.50635 z m -19.78634,-43.75432 c -0.38578,0.6685 -1.30915,1.6503 -2.00092,2.23118 -0.75866,0.54218 -2.38894,1.20498 -3.61536,1.47709 -2.13663,0.45944 -3.31138,-0.12952 -24.68009,-12.19946 l -26.12187,-14.81415 c 0.40659,-8.75858 -4.80534,-21.31961 -4.96969,-20.50898 l 38.13004,21.74285 c 15.37178,8.87482 22.07306,13.01113 22.92863,14.30717 0.73253,1.0467 1.27953,2.87738 1.23541,4.18858 -0.0828,1.378 -0.4535,2.94612 -0.90616,3.57572 z"
       style="fill:#ecb279;fill-opacity:1;stroke-width:0.0728028" />
    <path
       d="m 315.38439,200.59905 q -13.6769,13.56814 3.45321,30.80701 L 269.976,280.26766 50.764948,60.920669 58.487098,53.307279 41.846418,36.666599 -1.45e-6,78.513019 16.640678,95.153699 l 7.25991,-7.23272 219.211042,219.319811 -50.76495,50.76495 29.82815,29.82815 -34.83123,34.72245 52.91301,52.77706 34.83123,-34.69527 30.07286,30.07286 50.76495,-50.76495 10.93064,10.93064 26.86437,-26.97312 -10.93064,-10.95783 48.8616,-48.83441 1.54987,1.52267 q 17.23887,17.23888 30.91577,3.69793 L 512,301.42199 363.29432,152.68912 315.38439,200.59905"
       fill="#ffffff"
       fill-rule="evenodd"
       stroke="none"
       id="path4"
       style="fill:#ecb279;stroke-width:0.543813" />
    <path
       id="path2"
       d="m 315.56757,16.56836 c 1.27338,-2.20542 2.25318,-2.97634 4.85001,-3.61572 l 3.26804,-0.87556 17.81348,10.81911 c 9.80394,6.01671 34.65289,20.4518 34.51992,20.55387 -2.75855,2.11667 -2.72295,11.72296 -2.02243,14.33789 0.24704,0.92207 -16.38833,-8.92715 -31.35903,-17.57049 l -27.26805,-15.74319 -0.63923,-2.597 c -0.57533,-1.93609 -0.32041,-3.30374 0.83729,-5.30891 z M 347.35212,3.3436498 c 0.23154,-0.40084 1.03899,-1.18252 1.73066,-1.76309 0.75859,-0.54237 2.38881,-1.20499001 3.61522,-1.47730001 2.13676,-0.4594 3.17787,0.0524 26.76989,13.67344021 18.8471,10.88138 24.94692,14.67038 26.59422,16.60176 1.2002,1.3167 46.98432,65.71153 47.60111,66.95865 0.64472,1.35241 18.89006,27.16715 19.7995,29.29612 0.90952,2.12917 2.99087,5.46964 4.57157,7.36229 2.61869,3.02694 4.81401,4.47268 17.98002,12.07398 8.22057,4.74617 15.32273,9.11387 15.80857,9.66177 0.74269,0.8743 -0.51266,3.35747 -10.35223,20.40004 l -11.15134,19.31477 -32.4991,-19.03057 c -32.0977,-18.79916 -32.49869,-19.03069 -35.88869,-23.03734 -1.90426,-2.25796 -4.58719,-5.94538 -6.04171,-8.211 -1.34791,-2.29454 -3.54067,-6.67808 -4.73256,-9.86124 -1.23059,-3.11644 -2.64301,-8.38753 -3.16374,-11.80711 -0.49262,-3.314 -0.86101,-8.69521 -0.74185,-11.83439 2.82323,-15.32341 2.83085,-8.54732 2.40849,-10.05036 -0.6723,-2.39249 -3.16973,-11.90117 -14.02413,-22.65786 -5.00879,-4.96376 -7.92338,-7.97269 -11.09482,-18.3404 -0.24381,-1.12106 -1.28623,-10.10021 -0.55288,-11.37029 0.96458,-1.67061 2.19382,-2.56501 4.40773,-3.15814 1.7534,-0.41341 3.79208,-0.39477 4.72793,0.1455 0.93554,0.54022 5.26165,7.72362 15.25071,21.5998 11.92916,16.68954 17.05443,17.26639 18.07757,17.50053 0.82271,0.11869 7.75492,4.50592 8.4956,3.68597 2.87472,1.1367 -20.48079,-34.88855 -37.82958,-52.23897 -4.1403,-4.14071 -12.8621,-3.94666 -13.04587,-2.70686 -1.91838,0.8531 -2.92626,-1.5947 -19.25161,-11.28738 -12.287,-7.2722 -16.74417,-10.20194 -17.65626,-11.709 -0.73247,-1.04652 -1.05838,-3.1058402 -0.80328,-4.4735502 0.29343,-1.43464 0.69231,-2.8975 0.99085,-3.25977 z M 321.76538,49.05 c 0.84895,-1.47037 2.0782,-2.36458 3.93703,-2.80619 l 2.6639,-0.60075 27.24999,15.46546 27.3171,15.50402 8.61921,11.92699 c 4.75668,6.57831 8.52139,12.40533 8.45169,12.98891 -0.14669,0.71719 -8.54982,-3.86691 -38.75864,-21.30784 -32.48079,-18.75293 -38.68597,-22.51363 -39.78847,-24.30863 -0.76054,-1.1521 -1.22278,-2.66659 -1.18143,-3.35562 0.14674,-0.71715 0.79505,-2.30336 1.48962,-3.50635 z m 19.78634,43.75432 c 0.38578,-0.6685 1.30915,-1.6503 2.00092,-2.23118 0.75866,-0.54218 2.38894,-1.20498 3.61536,-1.47709 2.13663,-0.45944 3.31138,0.12952 24.68009,12.19946 l 26.12187,14.81415 c -0.40659,8.75858 4.80534,21.31961 4.96969,20.50898 l -38.13004,-21.74285 c -15.37178,-8.87482 -22.07306,-13.01113 -22.92863,-14.30717 -0.73253,-1.0467 -1.27953,-2.87738 -1.23541,-4.18858 0.0828,-1.378 0.4535,-2.94612 0.90616,-3.57572 z"
       style="fill:#ecb279;fill-opacity:1;stroke-width:0.0728028" />
  </g>
</svg>
