<?xml version="1.0" encoding="UTF-8" standalone="no"?>
<!-- Created with Inkscape (http://www.inkscape.org/) -->

<svg
   width="512"
   height="512"
   viewBox="0 0 512 512"
   version="1.1"
   id="svg1"
   inkscape:version="1.3.2 (091e20e, 2023-11-25, custom)"
   sodipodi:docname="KWD_KIT_MagicBoundGreatsword.svg"
   xmlns:inkscape="http://www.inkscape.org/namespaces/inkscape"
   xmlns:sodipodi="http://sodipodi.sourceforge.net/DTD/sodipodi-0.dtd"
   xmlns="http://www.w3.org/2000/svg"
   xmlns:svg="http://www.w3.org/2000/svg">
  <sodipodi:namedview
     id="namedview1"
     pagecolor="#ffffff"
     bordercolor="#000000"
     borderopacity="0.25"
     inkscape:showpageshadow="2"
     inkscape:pageopacity="0.0"
     inkscape:pagecheckerboard="0"
     inkscape:deskcolor="#d1d1d1"
     inkscape:document-units="px"
     inkscape:zoom="1"
     inkscape:cx="213"
     inkscape:cy="271.5"
     inkscape:window-width="1920"
     inkscape:window-height="1017"
     inkscape:window-x="1042"
     inkscape:window-y="276"
     inkscape:window-maximized="1"
     inkscape:current-layer="layer1" />
  <defs
     id="defs1" />
  <g
     inkscape:label="Layer 1"
     inkscape:groupmode="layer"
     id="layer1">
    <path
       d="m 212.46393,132.11627 299.2394,300.32719 -0.0989,79.01265 L 432.14679,512 132.3635,212.19198 l 23.5604,-23.5604 -22.76929,-22.74457 -31.2985,31.2985 -6.304202,16.83593 -4.96919,3.90613 q -7.367269,7.39198 -15.179529,-0.445 l -15.15481,-15.13009 q -7.78754,-7.81226 -0.42028,-15.20424 l 4.42531,-4.40058 16.41564,-5.1917 L 115.40396,142.82105 25.71125,53.177789 17.72593,61.163109 0.29666925,43.75857 44.079959,0 l 17.42926,17.404539 -7.6392,7.639201 89.667981,89.64327 35.15519,-35.155191 5.6367,-16.88537 3.85669,-3.85669 q 5.19169,-5.19169 10.35867,-3.48585 2.74418,0.76639 5.36475,3.38696 l 15.13008,15.13008 q 2.62057,2.6453 3.41168,5.38948 1.68113,5.14225 -3.51057,10.35866 l -3.85669,3.85669 -16.88537,7.416711 -31.64461,31.64462 22.76929,22.74456 23.14012,-23.1154"
       fill="#ffffff"
       fill-rule="evenodd"
       stroke="none"
       id="path389"
       style="stroke-width:0.494447;fill:#6a55d5" />
    <path
       id="path1"
       d="m 254.53143,490.5312 c -1.65002,2.85772 -2.91961,3.85667 -6.28451,4.68514 l -4.23463,1.13453 -23.08218,-14.01909 c -12.70367,-7.79627 -44.90221,-26.50084 -44.72991,-26.6331 3.57445,-2.74272 3.52832,-15.19027 2.62061,-18.57863 -0.32011,-1.19479 21.23551,11.56755 40.63412,22.76734 l 35.33313,20.39957 0.82831,3.36512 c 0.7455,2.50872 0.41518,4.28089 -1.08494,6.87912 z m -41.1855,17.1362 c -0.30003,0.51939 -1.34629,1.53227 -2.24254,2.28456 -0.98296,0.70278 -3.09535,1.56139 -4.68449,1.91424 -2.76876,0.59528 -4.11779,-0.0679 -34.68765,-17.71764 -24.42152,-14.09978 -32.32549,-19.00946 -34.46002,-21.51209 -1.55518,-1.70613 -60.880906,-85.14707 -61.680126,-86.76305 -0.83541,-1.75242 -24.47719,-35.20241 -25.65562,-37.96106 -1.17853,-2.75892 -3.87548,-7.0874 -5.92371,-9.53985 -3.39322,-3.92221 -6.23785,-5.79556 -23.29798,-15.6451 -10.65198,-6.14995 -19.85475018,-11.8095 -20.48428018,-12.51945 -0.96235,-1.13288 0.66427,-4.35052 13.41412018,-26.43378 l 14.44958,-25.02751 42.11138,24.65926 c 41.591276,24.35941 42.110856,24.65941 46.503526,29.85111 2.46748,2.92579 5.94395,7.70385 7.82867,10.63958 1.74658,2.97319 4.5879,8.65325 6.13231,12.7779 1.59456,4.0382 3.42473,10.86831 4.09948,15.29932 0.63832,4.29418 1.11567,11.26699 0.96127,15.33465 -3.65826,19.85563 -3.66814,11.07537 -3.12085,13.02297 0.87114,3.10011 4.10725,15.42119 18.17206,29.35939 6.49024,6.4319 10.26689,10.33077 14.37635,23.76495 0.31592,1.45263 1.66665,13.08756 0.7164,14.7333 -1.24987,2.16472 -2.84268,3.32366 -5.71141,4.09222 -2.272,0.53568 -4.91367,0.51153 -6.12631,-0.18854 -1.21225,-0.7 -6.8179,-10.00804 -19.76143,-27.98838 -15.45745,-21.62582 -22.09863,-22.37329 -23.42439,-22.67668 -1.06604,-0.15379 -10.04859,-5.83864 -11.008336,-4.77617 -3.72498,-1.47291 26.538396,45.20755 49.018456,67.68973 5.36488,5.36541 16.66634,5.11397 16.90446,3.50747 2.48578,-1.10542 3.79177,2.06637 24.94568,14.62585 15.92114,9.42311 21.6966,13.21938 22.87846,15.17219 0.94911,1.35604 1.37142,4.02445 1.04087,5.79669 -0.38022,1.85896 -0.89708,3.7545 -1.28391,4.22392 z m 33.15456,-59.22496 c -1.10005,1.90527 -2.69288,3.06396 -5.1015,3.63618 l -3.45179,0.77843 -35.30975,-20.03969 -35.39671,-20.08965 -11.16852,-15.45464 c -6.16356,-8.52398 -11.04177,-16.07447 -10.95145,-16.83066 0.19008,-0.92931 11.07861,5.01064 50.22231,27.61008 42.08767,24.2995 50.12815,29.17251 51.55675,31.49841 0.98548,1.49286 1.58444,3.45529 1.53087,4.34812 -0.19016,0.92925 -1.03021,2.98463 -1.93021,4.54342 z m -25.63858,-56.69557 c -0.49987,0.86623 -1.69635,2.13842 -2.59273,2.8911 -0.98304,0.70254 -3.09552,1.56139 -4.68466,1.91397 -2.7686,0.59533 -4.2908,-0.16783 -31.97975,-15.8077 l -33.84796,-19.19576 c 0.52685,-11.3491 -6.22662,-27.62532 -6.43958,-26.57493 l 49.4078,28.17376 c 19.91831,11.49972 28.60163,16.85943 29.71025,18.53881 0.94919,1.35628 1.65797,3.72843 1.6008,5.42743 -0.10734,1.78557 -0.58763,3.81751 -1.17418,4.63332 z"
       style="fill:#6a55d5;fill-opacity:1;stroke-width:0.0943358" />
    <path
       id="path2"
       d="m 257.46857,21.468802 c 1.65002,-2.85772 2.91961,-3.85667 6.28451,-4.68514 l 4.23463,-1.13453 23.08218,14.01909 c 12.70367,7.79627 44.90221,26.50084 44.72991,26.6331 -3.57445,2.74272 -3.52832,15.19027 -2.62061,18.57863 0.32011,1.19479 -21.23551,-11.56755 -40.63412,-22.76734 l -35.33313,-20.39957 -0.82831,-3.36512 c -0.7455,-2.50872 -0.41518,-4.28089 1.08494,-6.87912 z m 41.1855,-17.1362002 c 0.30003,-0.51939 1.34629,-1.53227 2.24254,-2.28456 0.98296,-0.70278 3.09535,-1.56138998 4.68449,-1.91423998 2.76876,-0.59528 4.11779,0.0679 34.68765,17.71764018 24.42152,14.09978 32.32549,19.00946 34.46002,21.51209 1.55518,1.70613 60.88091,85.147068 61.68013,86.763048 0.8354,1.75242 24.47719,35.20241 25.65562,37.96106 1.17852,2.75892 3.87548,7.0874 5.92371,9.53985 3.39322,3.92221 6.23784,5.79556 23.29798,15.6451 10.65198,6.14995 19.85475,11.8095 20.48428,12.51945 0.96235,1.13288 -0.66428,4.35052 -13.41412,26.43378 l -14.44958,25.02751 -42.11138,-24.65926 c -41.59128,-24.35941 -42.11086,-24.65941 -46.50353,-29.85111 -2.46748,-2.92579 -5.94395,-7.70385 -7.82867,-10.63958 -1.74658,-2.97319 -4.5879,-8.65325 -6.13231,-12.7779 -1.59456,-4.0382 -3.42473,-10.86831 -4.09948,-15.29932 -0.63832,-4.29418 -1.11567,-11.26699 -0.96127,-15.33465 3.65826,-19.85563 3.66814,-11.07537 3.12085,-13.02297 -0.87114,-3.10011 -4.10725,-15.42119 -18.17206,-29.35939 -6.49024,-6.431898 -10.26689,-10.330768 -14.37635,-23.764948 -0.31592,-1.45263 -1.66665,-13.08756 -0.7164,-14.7333 1.24987,-2.16472 2.84268,-3.32366 5.71141,-4.09222 2.272,-0.53568 4.91367,-0.51153 6.12631,0.18854 1.21225,0.7 6.8179,10.00804 19.76143,27.98838 15.45745,21.625818 22.09863,22.373288 23.42439,22.676678 1.06604,0.15379 10.04859,5.83864 11.00834,4.77617 3.72498,1.47291 -26.5384,-45.207548 -49.01846,-67.689728 -5.36488,-5.36541 -16.66634,-5.11397 -16.90446,-3.50747 -2.48578,1.10542 -3.79177,-2.06637 -24.94568,-14.62585 -15.92114,-9.42311 -21.6966,-13.21938 -22.87846,-15.17219 -0.94911,-1.35604 -1.37142,-4.02445 -1.04087,-5.7966902 0.38022,-1.85896 0.89708,-3.7545 1.28391,-4.22392 z M 265.49951,63.557562 c 1.10005,-1.90527 2.69288,-3.06396 5.1015,-3.63618 l 3.45179,-0.77843 35.30975,20.03969 35.39671,20.08965 11.16852,15.454638 c 6.16356,8.52398 11.04177,16.07447 10.95145,16.83066 -0.19008,0.92931 -11.07861,-5.01064 -50.22231,-27.61008 -42.08767,-24.299498 -50.12815,-29.172508 -51.55675,-31.498408 -0.98548,-1.49286 -1.58444,-3.45529 -1.53087,-4.34812 0.19016,-0.92925 1.03021,-2.98463 1.93021,-4.54342 z m 25.63858,56.695568 c 0.49987,-0.86623 1.69635,-2.13842 2.59273,-2.8911 0.98304,-0.70254 3.09552,-1.56139 4.68466,-1.91397 2.7686,-0.59533 4.2908,0.16783 31.97975,15.8077 l 33.84796,19.19576 c -0.52685,11.3491 6.22662,27.62532 6.43958,26.57493 l -49.4078,-28.17376 c -19.91831,-11.49972 -28.60163,-16.85943 -29.71025,-18.53881 -0.94919,-1.35628 -1.65797,-3.72843 -1.6008,-5.42743 0.10734,-1.78557 0.58763,-3.81751 1.17418,-4.63332 z"
       style="fill:#6a55d5;fill-opacity:1;stroke-width:0.0943358" />
  </g>
</svg>
