<?xml version="1.0" encoding="UTF-8" standalone="no"?>
<!-- Created with Inkscape (http://www.inkscape.org/) -->

<svg
   width="512"
   height="512"
   viewBox="0 0 512 512"
   version="1.1"
   id="svg1"
   inkscape:version="1.3.2 (091e20e, 2023-11-25, custom)"
   sodipodi:docname="KWD_KIT_Hood_Daedric.svg"
   xmlns:inkscape="http://www.inkscape.org/namespaces/inkscape"
   xmlns:sodipodi="http://sodipodi.sourceforge.net/DTD/sodipodi-0.dtd"
   xmlns="http://www.w3.org/2000/svg"
   xmlns:svg="http://www.w3.org/2000/svg">
  <sodipodi:namedview
     id="namedview1"
     pagecolor="#ffffff"
     bordercolor="#000000"
     borderopacity="0.25"
     inkscape:showpageshadow="2"
     inkscape:pageopacity="0.0"
     inkscape:pagecheckerboard="0"
     inkscape:deskcolor="#d1d1d1"
     inkscape:document-units="px"
     inkscape:zoom="1.1131408"
     inkscape:cx="236.2684"
     inkscape:cy="196.29143"
     inkscape:window-width="1920"
     inkscape:window-height="1017"
     inkscape:window-x="1042"
     inkscape:window-y="276"
     inkscape:window-maximized="1"
     inkscape:current-layer="svg1" />
  <defs
     id="defs1" />
  <path
     d="M 414.26324,328.6837 Q 365.31515,430.58856 256.02587,486.49911 153.06609,430.58856 99.265381,330.58255 45.886636,229.94357 47.574506,102.72073 L 256.02587,25.500892 464.47723,103.98662 q 0,123.42514 -50.21399,224.69708 M 155.17591,182.05039 256.02587,144.70636 356.87581,182.68334 q 0,59.49726 -24.47404,108.44535 -23.41914,49.15908 -76.3759,76.58688 -49.79202,-27.4278 -75.95395,-75.53196 Q 154.121,243.44649 155.17591,182.05039 M 91.459002,134.79016 q -1.476883,100.84996 40.719758,179.96863 42.61859,78.69673 123.84711,123.21417 86.50311,-44.51744 124.90204,-124.69104 39.45384,-79.75164 39.45384,-177.22585 L 256.02587,74.237999 91.459002,134.79016"
     fill="#ffffff"
     fill-rule="evenodd"
     stroke="none"
     id="path275"
     style="fill:#943838;fill-opacity:1;stroke-width:4.21966" />
</svg>
