<?xml version="1.0" encoding="UTF-8" standalone="no"?>
<!-- Created with Inkscape (http://www.inkscape.org/) -->

<svg
   width="512"
   height="512"
   viewBox="0 0 512 512"
   version="1.1"
   id="svg1"
   inkscape:version="1.3.2 (091e20e, 2023-11-25, custom)"
   sodipodi:docname="KWD_KIT_Helmet_Heavy_Legendary_ONG.svg"
   xmlns:inkscape="http://www.inkscape.org/namespaces/inkscape"
   xmlns:sodipodi="http://sodipodi.sourceforge.net/DTD/sodipodi-0.dtd"
   xmlns="http://www.w3.org/2000/svg"
   xmlns:svg="http://www.w3.org/2000/svg">
  <sodipodi:namedview
     id="namedview1"
     pagecolor="#ffffff"
     bordercolor="#000000"
     borderopacity="0.25"
     inkscape:showpageshadow="2"
     inkscape:pageopacity="0.0"
     inkscape:pagecheckerboard="0"
     inkscape:deskcolor="#d1d1d1"
     inkscape:document-units="px"
     inkscape:zoom="1.1131408"
     inkscape:cx="271.3044"
     inkscape:cy="194.49471"
     inkscape:window-width="1920"
     inkscape:window-height="1017"
     inkscape:window-x="1042"
     inkscape:window-y="276"
     inkscape:window-maximized="1"
     inkscape:current-layer="layer1" />
  <defs
     id="defs1" />
  <g
     inkscape:label="Layer 1"
     inkscape:groupmode="layer"
     id="layer1">
    <g
       id="shape0"
       transform="matrix(4.1169699,0,0,4.1169699,-25.426812,84.528204)"
       style="fill:#cf9317;fill-opacity:1">
      <path
         d="m 112.5,37.5 q 7.55,20.05 7.2,44 -17.8,11.4 -40,14.85 v -46.6 l 18.9,-7 -2.1,-6.4 -2,-4.85 -26.15,9.5 -26,-9.75 q -1.05,2.4 -1.95,4.95 -1.15,3.05 -2,6.3 L 57,49.45 V 96.1 q -19.95,-1.95 -40,-15 0,-23.55 7.45,-43.8 2.05,-5.65 4.7,-11 l 0.15,-0.5 q 12.15,-25 39.05,-38.85 25.35,13.85 38.7,38.4 l 0.65,1.3 q 2.7,5.25 4.8,10.85"
         fill="#ffffff"
         fill-rule="evenodd"
         stroke="none"
         id="path1"
         style="fill:#cf9317;fill-opacity:1" />
    </g>
  </g>
</svg>
