<?xml version="1.0" encoding="UTF-8" standalone="no"?>
<!-- Created with Inkscape (http://www.inkscape.org/) -->

<svg
   width="512"
   height="512"
   viewBox="0 0 512 512"
   version="1.1"
   id="svg1"
   inkscape:version="1.3.2 (091e20e, 2023-11-25, custom)"
   sodipodi:docname="KWD_KIT_SpellBoundType_Whip1H_Normal_C.svg"
   xmlns:inkscape="http://www.inkscape.org/namespaces/inkscape"
   xmlns:sodipodi="http://sodipodi.sourceforge.net/DTD/sodipodi-0.dtd"
   xmlns="http://www.w3.org/2000/svg"
   xmlns:svg="http://www.w3.org/2000/svg">
  <sodipodi:namedview
     id="namedview1"
     pagecolor="#ffffff"
     bordercolor="#000000"
     borderopacity="0.25"
     inkscape:showpageshadow="2"
     inkscape:pageopacity="0.0"
     inkscape:pagecheckerboard="0"
     inkscape:deskcolor="#d1d1d1"
     inkscape:document-units="px"
     inkscape:zoom="1"
     inkscape:cx="251"
     inkscape:cy="276.5"
     inkscape:window-width="1920"
     inkscape:window-height="1009"
     inkscape:window-x="1042"
     inkscape:window-y="235"
     inkscape:window-maximized="1"
     inkscape:current-layer="layer1" />
  <defs
     id="defs1" />
  <g
     inkscape:label="Layer 1"
     inkscape:groupmode="layer"
     id="layer1">
    <path
       id="path2"
       d="m 284.11072,492.77835 c 1.47732,2.5586 2.61401,3.45298 5.62672,4.19474 l 3.79138,1.01578 20.66616,-12.55171 c 11.37397,-6.98024 40.2023,-23.72699 40.04803,-23.84541 -3.20031,-2.45564 -3.15901,-13.60029 -2.34631,-16.634 0.28659,-1.06973 -19.01279,10.35678 -36.38094,20.38427 l -31.63481,18.26434 -0.7416,3.0129 c -0.66747,2.24614 -0.37172,3.83281 0.97137,6.15909 z m 36.87461,15.34254 c 0.26863,0.46503 1.20537,1.3719 2.00781,2.04544 0.88007,0.62922 2.77135,1.39796 4.19417,1.71388 2.47895,0.53297 3.68676,-0.0609 31.05688,-15.86314 21.86532,-12.62395 28.94198,-17.01973 30.85309,-19.2604 1.3924,-1.52756 54.50849,-76.23471 55.22405,-77.68156 0.74796,-1.56898 21.91516,-31.51776 22.97024,-33.98766 1.05516,-2.47014 3.46984,-6.34555 5.30368,-8.54132 3.03804,-3.51166 5.58492,-5.18893 20.85937,-14.00752 9.53704,-5.50622 17.77655,-10.57339 18.34019,-11.20903 0.86162,-1.0143 -0.59475,-3.89515 -12.01006,-23.66695 l -12.93714,-22.40787 -37.70356,22.07817 c -37.23792,21.8097 -37.70311,22.0783 -41.63601,26.72658 -2.2092,2.61955 -5.32179,6.89749 -7.00923,9.52593 -1.56378,2.66199 -4.10769,7.74752 -5.49045,11.44044 -1.42766,3.61553 -3.06626,9.73072 -3.67038,13.69794 -0.57151,3.8447 -0.99889,10.08766 -0.86065,13.72957 3.27534,17.77733 3.28418,9.9161 2.79418,11.65985 -0.77995,2.77561 -3.67734,13.80705 -16.26998,26.28633 -5.81091,5.75868 -9.19226,9.24945 -12.87158,21.27747 -0.28286,1.30058 -1.4922,11.71768 -0.64143,13.19116 1.11906,1.93813 2.54515,2.97577 5.1136,3.66389 2.03419,0.47961 4.39936,0.45799 5.48508,-0.1688 1.08537,-0.62673 6.10428,-8.96051 17.693,-25.05884 13.83951,-19.36224 19.78555,-20.03147 20.97255,-20.30311 0.95447,-0.13769 8.9968,-5.2275 9.85609,-4.27623 3.33509,-1.31875 -23.76061,40.47566 -43.88768,60.60461 -4.80334,4.80381 -14.92188,4.5787 -15.13508,3.14036 -2.22558,-0.98973 -3.39488,1.85007 -22.3346,13.09495 -14.25467,8.43679 -19.42562,11.8357 -20.48378,13.58412 -0.84976,1.21409 -1.22787,3.6032 -0.93191,5.18995 0.34042,1.66438 0.80318,3.36151 1.14952,3.78179 z m -29.68426,-53.02586 c 0.9849,1.70584 2.411,2.74325 4.56751,3.25558 l 3.0905,0.69695 31.61387,-17.94214 31.69172,-17.98686 9.99952,-13.837 c 5.51842,-7.63176 9.88603,-14.39195 9.80517,-15.06898 -0.17018,-0.83204 -9.91902,4.48617 -44.96554,24.72012 -37.68235,21.75606 -44.88122,26.11902 -46.16029,28.20146 -0.88233,1.33661 -1.4186,3.09363 -1.37064,3.893 0.17025,0.83199 0.92237,2.67224 1.72818,4.06787 z m 22.95498,-50.76124 c 0.44754,0.77557 1.51879,1.9146 2.32134,2.58849 0.88015,0.629 2.77151,1.39796 4.19433,1.71364 2.47881,0.53301 3.84168,-0.15027 28.63241,-14.15311 l 30.30509,-17.18653 c -0.4717,-10.16119 5.57488,-24.73377 5.76555,-23.79334 l -44.23628,25.22481 c -17.83346,10.29605 -25.60789,15.09476 -26.60047,16.59836 -0.84983,1.21431 -1.48443,3.33817 -1.43325,4.85933 0.0961,1.59868 0.52613,3.41793 1.05128,4.14835 z"
       style="fill:#6a55d5;fill-opacity:1;stroke-width:0.0844617" />
    <path
       id="path1"
       d="m 227.68409,492.77835 c -1.47732,2.5586 -2.61401,3.45298 -5.62672,4.19474 l -3.79139,1.01578 -20.66615,-12.55171 c -11.37397,-6.98024 -40.2023,-23.72699 -40.04803,-23.84541 3.20031,-2.45564 3.15901,-13.60029 2.3463,-16.634 -0.28658,-1.06973 19.0128,10.35678 36.38095,20.38427 l 31.63481,18.26434 0.7416,3.0129 c 0.66747,2.24614 0.37172,3.83281 -0.97137,6.15909 z m -36.87461,15.34254 c -0.26863,0.46503 -1.20537,1.3719 -2.00781,2.04544 -0.88007,0.62922 -2.77135,1.39796 -4.19417,1.71388 -2.47895,0.53297 -3.68676,-0.0609 -31.05688,-15.86314 -21.86532,-12.62395 -28.94198,-17.01973 -30.85309,-19.2604 -1.3924,-1.52756 -54.50849,-76.23471 -55.224049,-77.68156 -0.747963,-1.56898 -21.915163,-31.51776 -22.970243,-33.98766 -1.055163,-2.47014 -3.469841,-6.34555 -5.303677,-8.54132 -3.038045,-3.51166 -5.58492,-5.18893 -20.859372,-14.00752 C 8.8031494,337.03239 0.5636364,331.96522 0,331.32958 c -0.8616246,-1.0143 0.5947481,-3.89515 12.010061,-23.66695 l 12.93714,-22.40787 37.703568,22.07817 c 37.237907,21.8097 37.703101,22.0783 41.636001,26.72658 2.2092,2.61955 5.32179,6.89749 7.00923,9.52593 1.56378,2.66199 4.10769,7.74752 5.49045,11.44044 1.42766,3.61553 3.06626,9.73072 3.67038,13.69794 0.57151,3.8447 0.99889,10.08766 0.86065,13.72957 -3.27534,17.77733 -3.28418,9.9161 -2.79418,11.65985 0.77995,2.77561 3.67734,13.80705 16.26998,26.28633 5.81091,5.75868 9.19226,9.24945 12.87158,21.27747 0.28286,1.30058 1.4922,11.71768 0.64143,13.19116 -1.11906,1.93813 -2.54515,2.97577 -5.1136,3.66389 -2.03419,0.47961 -4.39936,0.45799 -5.48508,-0.1688 -1.08537,-0.62673 -6.10428,-8.96051 -17.693,-25.05884 -13.83951,-19.36224 -19.78555,-20.03147 -20.972554,-20.30311 -0.95447,-0.13769 -8.996797,-5.2275 -9.856086,-4.27623 -3.335088,-1.31875 23.76061,40.47566 43.88768,60.60461 4.80334,4.80381 14.92188,4.5787 15.13508,3.14036 2.22558,-0.98973 3.39488,1.85007 22.3346,13.09495 14.25467,8.43679 19.42562,11.8357 20.48378,13.58412 0.84976,1.21409 1.22787,3.6032 0.93191,5.18995 -0.34042,1.66438 -0.80318,3.36151 -1.14952,3.78179 z m 29.68426,-53.02586 c -0.9849,1.70584 -2.411,2.74325 -4.56751,3.25558 l -3.0905,0.69695 -31.61387,-17.94214 -31.69172,-17.98686 -9.99952,-13.837 c -5.51842,-7.63176 -9.88603,-14.39195 -9.80517,-15.06898 0.17018,-0.83204 9.91902,4.48617 44.96554,24.72012 37.68235,21.75606 44.88122,26.11902 46.16029,28.20146 0.88233,1.33661 1.4186,3.09363 1.37064,3.893 -0.17025,0.83199 -0.92237,2.67224 -1.72818,4.06787 z m -22.95498,-50.76124 c -0.44754,0.77557 -1.51879,1.9146 -2.32134,2.58849 -0.88015,0.629 -2.77151,1.39796 -4.19433,1.71364 -2.47881,0.53301 -3.84168,-0.15027 -28.63241,-14.15311 l -30.30509,-17.18653 c 0.4717,-10.16119 -5.57488,-24.73377 -5.76555,-23.79334 l 44.23628,25.22481 c 17.83346,10.29605 25.60789,15.09476 26.60047,16.59836 0.84983,1.21431 1.48443,3.33817 1.43325,4.85933 -0.0961,1.59868 -0.52613,3.41793 -1.05128,4.14835 z"
       style="fill:#6a55d5;fill-opacity:1;stroke-width:0.0844617" />
    <path
       d="m 232.81993,3.072687 c -63.1017,14.545823 -124.41013,72.91651 -69.54221,144.838033 14.86102,20.23047 37.79859,39.8075 59.56646,66.86982 14.41886,18.60651 20.22258,36.53515 18.32151,60.6994 -9.23034,90.07222 -163.639069,51.64121 -143.903473,-67.85567 -0.813667,-2.52657 18.296443,-8.32263 19.629633,-30.06133 0.0463,-0.94917 -0.50592,-1.94091 -1.65836,-2.97192 -4.98057,-4.7521 -29.611449,-11.49872 -39.703179,-7.36818 -1.485915,0.82935 -2.33791,1.80297 -2.562364,2.9254 0.654531,23.65055 7.779644,35.14105 8.487687,39.33792 -26.965202,139.24557 166.215766,175.11918 181.986956,67.22857 0.77867,-5.55346 4.65565,-40.18491 -14.90963,-69.16128 L 192.97892,145.52338 C 104.43376,45.824926 300.8122,-32.962074 317.17635,85.189266 c 5.16307,29.242864 6.72174,53.660634 20.82301,80.096164 5.35424,-6.89567 12.61625,-10.64255 21.68266,-11.41055 0.007,-0.002 0.009,-0.002 0.0152,-0.004 C 346.70426,129.40652 346.17008,106.05043 341.23904,79.366724 334.64139,10.569066 281.90012,-8.2413052 232.82102,3.0721165 Z M 365.68725,165.36679 c -8.88704,1.20661 -16.24351,5.01549 -21.63534,12.16448 -4.50319,2.53223 7.97181,33.20165 27.96997,68.76518 19.99808,35.56355 39.72349,62.15576 44.2267,59.6235 l 21.63376,-12.16533 c 4.50318,-2.53227 -7.97055,-33.20203 -27.96869,-68.76556 -19.99815,-35.56353 -39.72322,-62.15448 -44.22639,-59.62222 z"
       fill="#a3abc2"
       stroke-width="0.70028"
       id="path1-5"
       style="fill:#6a55d5" />
  </g>
</svg>
