<?xml version="1.0" encoding="UTF-8" standalone="no"?>
<!-- Created with Inkscape (http://www.inkscape.org/) -->

<svg
   width="512"
   height="512"
   viewBox="0 0 512 512"
   version="1.1"
   id="svg1"
   inkscape:version="1.3.2 (091e20e, 2023-11-25, custom)"
   sodipodi:docname="KWD_KIT_WheelerScrollColor_Destruction.svg"
   xmlns:inkscape="http://www.inkscape.org/namespaces/inkscape"
   xmlns:sodipodi="http://sodipodi.sourceforge.net/DTD/sodipodi-0.dtd"
   xmlns="http://www.w3.org/2000/svg"
   xmlns:svg="http://www.w3.org/2000/svg">
  <sodipodi:namedview
     id="namedview1"
     pagecolor="#ffffff"
     bordercolor="#000000"
     borderopacity="0.25"
     inkscape:showpageshadow="2"
     inkscape:pageopacity="0.0"
     inkscape:pagecheckerboard="0"
     inkscape:deskcolor="#d1d1d1"
     inkscape:document-units="px"
     inkscape:zoom="1.1614781"
     inkscape:cx="226.43561"
     inkscape:cy="254.41719"
     inkscape:window-width="1920"
     inkscape:window-height="1017"
     inkscape:window-x="1042"
     inkscape:window-y="235"
     inkscape:window-maximized="1"
     inkscape:current-layer="layer1" />
  <defs
     id="defs1" />
  <g
     inkscape:label="Layer 1"
     inkscape:groupmode="layer"
     id="layer1">
    <path
       d="m 332.75052,242.45987 q -50.24238,26.80287 -82.38502,76.49047 -3.74477,5.8252 -7.07346,11.99715 v 0.10402 q -4.47292,-3.43271 -8.46041,-6.86542 -15.25649,-12.75997 -28.81395,-27.66971 -3.53674,-3.50206 -6.55336,-7.31618 -5.37444,-6.1026 -10.64487,-12.69063 33.32155,-58.07866 88.9037,-88.10619 32.0733,22.64201 54.36857,53.39769 l 0.6588,0.6588 m 12.51725,198.473 q 6.69205,6.69205 27.77374,-1.21358 14.1816,-4.88902 27.53102,-16.33138 3.81412,-4.02216 -2.28847,-9.15388 l -24.20233,-21.91387 7.24682,-7.87095 20.52691,18.72386 6.27597,6.58803 q 10.09008,12.37856 4.85433,17.82235 -30.3396,26.52548 -78.2935,34.0497 Q 304.422,404.49068 264.02699,354.73373 l -11.06095,-12.96801 q 3.67543,-6.58803 7.73226,-12.51725 32.21199,-50.17304 82.9398,-76.87188 54.09117,46.18554 117.99504,82.31567 -5.8252,50.45042 -45.0413,71.25472 l -5.99857,-6.58803 q 22.98875,-11.44237 29.57677,-27.94711 7.83629,-19.93745 1.14424,-26.6295 -6.37999,-6.484 -25.20788,2.94728 -18.86256,9.36194 -38.69599,29.23003 l -2.08042,2.08043 q -3.84881,3.8488 -7.24684,8.00966 -12.79464,14.49366 -19.93745,28.70993 -9.29258,18.68919 -2.87793,25.1732 M 237.08543,352.23722 q -3.01663,25.76265 2.28847,50.17303 1.73369,8.00965 4.29955,16.12332 l -23.92494,-23.92494 -18.96658,22.3993 q -3.25934,-11.33834 -5.13173,-22.71136 -6.83075,-39.73621 4.54227,-76.38644 l 2.28847,-6.76141 q 16.50474,17.92638 35.40198,33.25221 -0.69347,3.91815 -0.79749,7.83629 m -58.8415,-85.26295 q -57.00377,-49.6876 -127.87707,-89.66652 31.379815,-88.3836 126.94088,-126.9409 39.59752,69.62505 90.81076,127.63437 -56.37964,30.02754 -89.87457,88.97305"
       fill="#ffffff"
       fill-rule="evenodd"
       stroke="none"
       id="path1146-9"
       style="fill:#99192a;fill-opacity:1;stroke-width:0.693477" />
  </g>
</svg>
