<?xml version="1.0" encoding="UTF-8" standalone="no"?>
<!-- Created with Inkscape (http://www.inkscape.org/) -->

<svg
   width="512"
   height="512"
   viewBox="0 0 512 512"
   version="1.1"
   id="svg1"
   xml:space="preserve"
   sodipodi:docname="KWD_KIT_Food_Sack.svg"
   inkscape:version="1.3.2 (091e20e, 2023-11-25, custom)"
   xmlns:inkscape="http://www.inkscape.org/namespaces/inkscape"
   xmlns:sodipodi="http://sodipodi.sourceforge.net/DTD/sodipodi-0.dtd"
   xmlns="http://www.w3.org/2000/svg"
   xmlns:svg="http://www.w3.org/2000/svg"><sodipodi:namedview
     id="namedview1"
     pagecolor="#ffffff"
     bordercolor="#000000"
     borderopacity="0.25"
     inkscape:showpageshadow="2"
     inkscape:pageopacity="0.0"
     inkscape:pagecheckerboard="0"
     inkscape:deskcolor="#d1d1d1"
     inkscape:document-units="px"
     inkscape:zoom="0.78710938"
     inkscape:cx="268.06948"
     inkscape:cy="234.40198"
     inkscape:window-width="1920"
     inkscape:window-height="1017"
     inkscape:window-x="1042"
     inkscape:window-y="276"
     inkscape:window-maximized="1"
     inkscape:current-layer="layer1" /><defs
     id="defs1" /><g
     inkscape:label="Layer 1"
     inkscape:groupmode="layer"
     id="layer1"><path
       id="rect1"
       style="fill:#8f6e56;fill-opacity:1;fill-rule:evenodd;stroke-width:1.77673"
       d="M 232.9457,0.02383895 C 179.24918,-0.33426839 125.45909,3.2939514 70.845554,14.192687 c 24.9606,167.264023 47.104626,316.224433 0,483.635323 124.961946,12.04329 245.393916,24.7142 370.308896,0 -24.20881,-167.25892 -47.82874,-316.64985 0,-483.635323 C 370.8697,7.5342402 301.98411,0.48426098 232.9457,0.02383895 Z M 323.62906,39.527039 c 22.81209,0.26127 44.56904,3.443592 63.55677,9.85885 -84.08824,3.034142 -225.02174,42.902756 -270.15187,84.895051 30.20245,-59.362146 125.12328,-95.686979 206.5951,-94.753901 z m 67.44687,338.264751 c -38.65908,75.98356 -183.35082,114.22194 -270.15186,84.89505 84.08825,-3.03414 225.02178,-42.90274 270.15186,-84.89505 z"
       sodipodi:nodetypes="sccccssccsccc" /></g></svg>
