<?xml version="1.0" encoding="UTF-8" standalone="no"?>
<!-- Created with Inkscape (http://www.inkscape.org/) -->

<svg
   width="512"
   height="512"
   viewBox="0 0 512 512"
   version="1.1"
   id="svg1"
   xml:space="preserve"
   sodipodi:docname="KWD_KIT_Food_Cheese.svg"
   inkscape:version="1.3.2 (091e20e, 2023-11-25, custom)"
   xmlns:inkscape="http://www.inkscape.org/namespaces/inkscape"
   xmlns:sodipodi="http://sodipodi.sourceforge.net/DTD/sodipodi-0.dtd"
   xmlns="http://www.w3.org/2000/svg"
   xmlns:svg="http://www.w3.org/2000/svg"><sodipodi:namedview
     id="namedview1"
     pagecolor="#ffffff"
     bordercolor="#000000"
     borderopacity="0.25"
     inkscape:showpageshadow="2"
     inkscape:pageopacity="0.0"
     inkscape:pagecheckerboard="0"
     inkscape:deskcolor="#d1d1d1"
     inkscape:document-units="px"
     inkscape:zoom="1"
     inkscape:cx="233"
     inkscape:cy="238.5"
     inkscape:window-width="1920"
     inkscape:window-height="1017"
     inkscape:window-x="1042"
     inkscape:window-y="276"
     inkscape:window-maximized="1"
     inkscape:current-layer="layer1" /><defs
     id="defs1"><inkscape:path-effect
       effect="fillet_chamfer"
       id="path-effect5"
       is_visible="true"
       lpeversion="1"
       nodesatellites_param="F,0,0,1,0,0,0,1 @ F,0,0,1,0,0,0,1 @ F,0,0,1,0,0,0,1 @ F,0,0,1,0,7.3231325,0,1 @ F,0,0,1,0,9.3076473,0,1"
       radius="0"
       unit="px"
       method="auto"
       mode="F"
       chamfer_steps="1"
       flexible="false"
       use_knot_distance="true"
       apply_no_radius="true"
       apply_with_radius="true"
       only_selected="false"
       hide_knots="false" /></defs><g
     inkscape:label="Layer 1"
     inkscape:groupmode="layer"
     id="layer1"><path
       id="rect5"
       style="display:inline;fill:#d9c68c;fill-opacity:1;fill-rule:evenodd;stroke-width:2.77282"
       d="M 178.28588,86.588008 C 124.45803,107.27577 84.863501,138.45439 65.422727,184.48127 c 18.043152,2.06068 37.546723,17.56061 44.759223,30.81661 l 348.09389,0.0642 z m -2.90729,29.341892 c 24.31078,0 44.01885,8.69041 44.01885,19.41011 0,10.71972 -19.70807,19.41011 -44.01885,19.41011 -24.31079,0 -44.01886,-8.69039 -44.01886,-19.41011 0,-10.7197 19.70807,-19.41011 44.01886,-19.41011 z m 97.04855,38.126 c 24.31077,0 44.01885,8.6904 44.01885,19.41011 0,10.71972 -19.70808,19.41011 -44.01885,19.41011 -24.31079,0 -44.01886,-8.69039 -44.01886,-19.41011 0,-10.71971 19.70807,-19.41011 44.01886,-19.41011 z m -162.22713,73.34471 c -1.24547,22.14183 -24.24822,39.59996 -52.241167,39.64887 -0.711902,-0.0287 -1.422991,-0.0687 -2.132825,-0.12039 l -2.154896,134.49237 c -0.223766,13.86493 11.495112,24.9361 25.325039,23.92657 L 434.97929,399.32676 c 11.47159,-0.83741 20.41239,-10.28149 20.62199,-21.78169 l 0.4996,-27.31742 c -21.55901,-7.58942 -35.62735,-25.40909 -35.67415,-45.1886 0.0659,-20.3154 14.91021,-38.49302 37.32543,-45.70827 l 0.57987,-31.93017 z m 223.23033,22.67055 c 18.95244,0 34.31594,15.74972 34.3138,35.17856 -7.7e-4,19.42674 -15.36343,35.17656 -34.3138,35.17656 -18.95036,0 -34.31303,-15.74982 -34.3138,-35.17656 -0.002,-19.42884 15.36137,-35.17856 34.3138,-35.17856 z m -210.73635,16.97832 c 17.03669,0 30.84872,18.15522 30.84872,40.55177 0,22.39653 -13.81203,40.55176 -30.84872,40.55176 -17.03669,0 -30.846706,-18.15523 -30.846706,-40.55176 0,-22.39655 13.810016,-40.55177 30.846706,-40.55177 z m 110.22071,65.85474 c 13.20823,0 23.91452,14.11938 23.91452,31.53892 0,17.41953 -10.70629,31.54093 -23.91452,31.54092 -13.20824,0 -23.91653,-14.12139 -23.91653,-31.54092 0,-17.41954 10.70829,-31.53892 23.91653,-31.53892 z"
       sodipodi:nodetypes="cccccssssssssssccccccccccccscscsssssssssss" /></g></svg>
