<?xml version="1.0" encoding="UTF-8" standalone="no"?>
<!-- Created with Inkscape (http://www.inkscape.org/) -->

<svg
   width="512"
   height="512"
   viewBox="0 0 512 512"
   version="1.1"
   id="svg1"
   xml:space="preserve"
   inkscape:version="1.3.2 (091e20e, 2023-11-25, custom)"
   sodipodi:docname="KWD_KIT_Food_Meal.svg"
   xmlns:inkscape="http://www.inkscape.org/namespaces/inkscape"
   xmlns:sodipodi="http://sodipodi.sourceforge.net/DTD/sodipodi-0.dtd"
   xmlns="http://www.w3.org/2000/svg"
   xmlns:svg="http://www.w3.org/2000/svg"><sodipodi:namedview
     id="namedview1"
     pagecolor="#ffffff"
     bordercolor="#000000"
     borderopacity="0.25"
     inkscape:showpageshadow="2"
     inkscape:pageopacity="0.0"
     inkscape:pagecheckerboard="0"
     inkscape:deskcolor="#d1d1d1"
     inkscape:document-units="px"
     inkscape:zoom="0.90509668"
     inkscape:cx="216.55145"
     inkscape:cy="178.43398"
     inkscape:window-width="1920"
     inkscape:window-height="1017"
     inkscape:window-x="1042"
     inkscape:window-y="276"
     inkscape:window-maximized="1"
     inkscape:current-layer="svg1" /><defs
     id="defs1" /><path
     id="rect5"
     style="fill:#74503e;fill-rule:evenodd;stroke-width:1.00911;fill-opacity:1"
     d="m 208.49648,78.730912 c -5.52138,0.146909 -10.99612,0.249873 -16.43739,0.626749 2.3319,37.673739 -17.20736,66.605789 -60.46751,91.635479 C 120.0772,135.07989 128.76549,106.83473 157.06164,84.334205 30.503488,111.40849 -52.314395,215.5099 37.955621,248.11287 c 144.214909,52.08633 290.434739,50.9483 435.953439,0 90.59046,-31.71709 7.42539,-136.79993 -119.12968,-163.796405 28.31419,22.504535 37.01117,50.753845 25.49372,86.676675 -42.57866,-25.54193 -61.45208,-54.76695 -60.06742,-91.603944 -5.57286,-0.394272 -11.18165,-0.454834 -16.83748,-0.658284 l -26.87518,-0.966748 c 9.25425,33.239186 1.41804,67.546746 -29.67417,97.377736 -20.66597,-32.62047 -20.13992,-67.12426 -1.9885,-97.377736 z M 477.40545,270.02742 c -76.87217,53.84261 -360.38632,56.65122 -442.784608,0.52229 l 61.862918,168.2822 c 114.00887,36.85727 214.72875,35.15382 318.89716,0 z"
     sodipodi:nodetypes="scccsscccscccsccccc" /></svg>
