<?xml version="1.0" encoding="UTF-8" standalone="no"?>
<!-- Created with Inkscape (http://www.inkscape.org/) -->

<svg
   width="512"
   height="512"
   viewBox="0 0 135.46666 135.46667"
   version="1.1"
   id="svg1"
   sodipodi:docname="KWD_KIT_Food_MeatRaw.svg"
   inkscape:version="1.3.2 (091e20e, 2023-11-25, custom)"
   xml:space="preserve"
   xmlns:inkscape="http://www.inkscape.org/namespaces/inkscape"
   xmlns:sodipodi="http://sodipodi.sourceforge.net/DTD/sodipodi-0.dtd"
   xmlns="http://www.w3.org/2000/svg"
   xmlns:svg="http://www.w3.org/2000/svg"><sodipodi:namedview
     id="namedview1"
     pagecolor="#b3b3b3"
     bordercolor="#000000"
     borderopacity="0.25"
     inkscape:showpageshadow="2"
     inkscape:pageopacity="0.0"
     inkscape:pagecheckerboard="0"
     inkscape:deskcolor="#d1d1d1"
     inkscape:document-units="px"
     inkscape:zoom="0.61144393"
     inkscape:cx="269.85303"
     inkscape:cy="259.22246"
     inkscape:window-width="1920"
     inkscape:window-height="1017"
     inkscape:window-x="1042"
     inkscape:window-y="276"
     inkscape:window-maximized="1"
     inkscape:current-layer="svg1" /><defs
     id="defs1" /><path
     id="path6"
     style="fill:#842e2e;stroke-width:1.56338;fill-opacity:1"
     d="M 102.75055,7.8325287 C 96.264164,7.521479 89.683962,11.013363 84.631353,19.105254 71.889772,39.511241 50.941932,28.235947 34.649334,33.497318 13.517752,40.321319 2.4974665,63.713414 10.490559,84.777576 34.040584,146.83871 91.531971,134.64292 114.80413,91.813097 140.82328,43.927813 122.20972,8.7656779 102.75055,7.8325287 Z M 99.803366,17.430739 C 117.30915,18.232247 134.05455,48.434121 110.6473,89.564124 89.711267,126.35186 37.99104,136.82693 16.805039,83.520891 9.6143182,65.428295 19.528245,45.336118 38.538575,39.474794 53.195669,34.955656 73.797612,44.381777 85.260152,26.85451 c 4.545415,-6.950351 8.707939,-9.690941 14.543214,-9.423771 z m 0.708714,7.167491 C 95.241463,24.358831 91.05805,26.787669 86.952477,33.015557 76.599112,48.720931 56.489026,38.759365 43.250233,42.808754 26.079448,48.060816 17.124638,66.064598 23.619544,82.276535 42.755471,130.0416 87.16705,119.78894 106.0772,86.82517 127.21943,49.970482 116.32391,25.316423 100.51208,24.59823 Z m -2.77275,13.54864 c 6.86353,-1.97e-4 12.42765,5.991823 12.42758,13.383337 -1.6e-4,7.391333 -5.5642,13.383076 -12.42758,13.382878 -6.863201,-7.2e-5 -12.426962,-5.991735 -12.42712,-13.382878 -7.1e-5,-7.391324 5.563751,-13.383263 12.42712,-13.383337 z" /></svg>
