<?xml version="1.0" encoding="UTF-8" standalone="no"?>
<svg
   viewBox="0 0 512 512"
   version="1.1"
   id="svg1"
   sodipodi:docname="KWD_KIT_StaffDamageFrostRune.svg"
   width="512"
   height="512"
   xml:space="preserve"
   inkscape:version="1.3.2 (091e20e, 2023-11-25, custom)"
   xmlns:inkscape="http://www.inkscape.org/namespaces/inkscape"
   xmlns:sodipodi="http://sodipodi.sourceforge.net/DTD/sodipodi-0.dtd"
   xmlns="http://www.w3.org/2000/svg"
   xmlns:svg="http://www.w3.org/2000/svg"
   xmlns:bx="https://boxy-svg.com"><sodipodi:namedview
     id="namedview1"
     pagecolor="#ffffff"
     bordercolor="#000000"
     borderopacity="0.25"
     inkscape:showpageshadow="2"
     inkscape:pageopacity="0.0"
     inkscape:pagecheckerboard="0"
     inkscape:deskcolor="#d1d1d1"
     showgrid="true"
     inkscape:zoom="1.4142136"
     inkscape:cx="236.17366"
     inkscape:cy="257.03331"
     inkscape:window-width="1920"
     inkscape:window-height="1017"
     inkscape:window-x="1042"
     inkscape:window-y="276"
     inkscape:window-maximized="1"
     inkscape:current-layer="svg1"><inkscape:grid
       id="grid1"
       units="px"
       originx="0"
       originy="0"
       spacingx="1"
       spacingy="1"
       empcolor="#0099e5"
       empopacity="0.30196078"
       color="#0099e5"
       opacity="0.14901961"
       empspacing="5"
       dotted="false"
       gridanglex="30"
       gridanglez="30"
       visible="true" /></sodipodi:namedview><defs
     id="defs1"><inkscape:path-effect
       effect="fillet_chamfer"
       id="path-effect1"
       is_visible="true"
       lpeversion="1"
       nodesatellites_param="F,0,0,1,0,0,0,1 @ F,0,0,1,0,0,0,1 @ F,0,0,1,0,5,0,1 @ F,0,0,1,0,5,0,1"
       radius="0"
       unit="px"
       method="auto"
       mode="F"
       chamfer_steps="1"
       flexible="false"
       use_knot_distance="true"
       apply_no_radius="true"
       apply_with_radius="true"
       only_selected="false"
       hide_knots="false" /><bx:grid
       x="0"
       y="0"
       width="512"
       height="512" /><bx:grid
       x="0"
       y="0"
       width="512"
       height="512" /><bx:grid
       x="0"
       y="0"
       width="100"
       height="100" /><bx:grid
       x="0"
       y="0"
       width="512"
       height="512" /><bx:grid
       x="0"
       y="0"
       width="512"
       height="512" /><bx:grid
       x="0"
       y="0"
       width="512"
       height="512" /><bx:grid
       x="0"
       y="0"
       width="512"
       height="512" /><bx:grid
       x="0"
       y="0"
       width="512"
       height="512" /><bx:grid
       x="0"
       y="0"
       width="512"
       height="512" /><bx:grid
       x="0"
       y="0"
       width="512"
       height="512" /><bx:grid
       x="0"
       y="0"
       width="100"
       height="100" /><bx:grid
       x="0"
       y="0"
       width="512"
       height="512" /><bx:grid
       x="0"
       y="0"
       width="512"
       height="512" /><bx:grid
       x="0"
       y="0"
       width="512"
       height="512" /><bx:grid
       x="0"
       y="0"
       width="512"
       height="512" /><bx:grid
       x="0"
       y="0"
       width="512"
       height="512" /><bx:grid
       x="0"
       y="0"
       width="512"
       height="512" /><bx:grid
       x="0"
       y="0"
       width="512"
       height="512" /><bx:grid
       x="0"
       y="0"
       width="512"
       height="512" /><bx:grid
       x="0"
       y="0"
       width="512"
       height="512" /><bx:grid
       x="0"
       y="0"
       width="512"
       height="512" /><bx:grid
       x="0"
       y="0"
       width="512"
       height="512" /><bx:grid
       x="0"
       y="0"
       width="512"
       height="512" /><bx:grid
       x="0"
       y="0"
       width="512"
       height="512" /><bx:grid
       x="0"
       y="0"
       width="512"
       height="512" /><bx:grid
       x="0"
       y="0"
       width="512"
       height="512" /><bx:grid
       x="0"
       y="0"
       width="100"
       height="100" /><bx:grid
       x="0"
       y="0"
       width="100"
       height="100" /><bx:grid
       x="0"
       y="0"
       width="100"
       height="100" /><bx:grid
       x="0"
       y="0"
       width="100"
       height="100" /><bx:grid
       x="0"
       y="0"
       width="100"
       height="100" /><bx:grid
       x="0"
       y="0"
       width="512"
       height="512" /><bx:grid
       x="0"
       y="0"
       width="512"
       height="512" /><bx:grid
       x="0"
       y="0"
       width="512"
       height="512" /><bx:grid
       x="0"
       y="0"
       width="512"
       height="512" /><bx:grid
       x="0"
       y="0"
       width="512"
       height="512" /><bx:grid
       x="0"
       y="0"
       width="512"
       height="512" /><bx:grid
       x="0"
       y="0"
       width="512"
       height="512" /><bx:grid
       x="0"
       y="0"
       width="512"
       height="512" /><bx:grid
       x="0"
       y="0"
       width="512"
       height="512" /><bx:grid
       x="0"
       y="0"
       width="512"
       height="512" /><bx:grid
       x="0"
       y="0"
       width="512"
       height="512" /><bx:grid
       x="0"
       y="0"
       width="512"
       height="512" /><bx:grid
       x="0"
       y="0"
       width="512"
       height="512" /><bx:grid
       x="0"
       y="0"
       width="512"
       height="512" /><bx:grid
       x="0"
       y="0"
       width="512"
       height="512" /><bx:grid
       x="0"
       y="0"
       width="512"
       height="512" /><bx:grid
       x="0"
       y="0"
       width="512"
       height="512" /><bx:grid
       x="0"
       y="0"
       width="512"
       height="512" /><bx:grid
       x="0"
       y="0"
       width="512"
       height="512" /><bx:grid
       x="0"
       y="0"
       width="512"
       height="512" /><bx:grid
       x="0"
       y="0"
       width="512"
       height="512" /><bx:grid
       x="0"
       y="0"
       width="512"
       height="512" /><bx:grid
       x="0"
       y="0"
       width="512"
       height="512" /><bx:grid
       x="0"
       y="0"
       width="512"
       height="512" /><bx:grid
       x="0"
       y="0"
       width="512"
       height="512" /><bx:grid
       x="0"
       y="0"
       width="512"
       height="512" /><bx:grid
       x="0"
       y="0"
       width="512"
       height="512" /><bx:grid
       x="0"
       y="0"
       width="512"
       height="512" /><bx:grid
       x="0"
       y="0"
       width="512"
       height="512" /><bx:grid
       x="0"
       y="0"
       width="512"
       height="512" /><bx:grid
       x="0"
       y="0"
       width="512"
       height="512" /><bx:grid
       x="0"
       y="0"
       width="512"
       height="512" /><bx:grid
       x="0"
       y="0"
       width="512"
       height="512" /><bx:grid
       x="0"
       y="0"
       width="512"
       height="512" /><bx:grid
       x="0"
       y="0"
       width="512"
       height="512" /><bx:grid
       x="0"
       y="0"
       width="512"
       height="512" /><bx:grid
       x="0"
       y="0"
       width="512"
       height="512" /><bx:grid
       x="0"
       y="0"
       width="512"
       height="512" /><bx:grid
       x="0"
       y="0"
       width="512"
       height="512" /><bx:grid
       x="0"
       y="0"
       width="512"
       height="512" /><bx:grid
       x="0"
       y="0"
       width="512"
       height="512" /><bx:grid
       x="0"
       y="0"
       width="512"
       height="512" /><bx:grid
       x="0"
       y="0"
       width="512"
       height="512" /><bx:grid
       x="0"
       y="0"
       width="512"
       height="512" /><bx:grid
       x="0"
       y="0"
       width="512"
       height="512" /><bx:grid
       x="0"
       y="0"
       width="512"
       height="512" /><bx:grid
       x="0"
       y="0"
       width="512"
       height="512" /><bx:grid
       x="0"
       y="0"
       width="512"
       height="512" /><bx:grid
       x="0"
       y="0"
       width="512"
       height="512" /><bx:grid
       x="0"
       y="0"
       width="512"
       height="512" /><bx:grid
       x="0"
       y="0"
       width="512"
       height="512" /><bx:grid
       x="0"
       y="0"
       width="512"
       height="512" /><bx:grid
       x="0"
       y="0"
       width="512"
       height="512" /></defs><path
     d="m 4.4806455,0.09189325 c -0.32386,0.01 -0.47982,0.006 -0.58593,0.12305 l -0.002,0.002 v 0.0117 c -0.10578,0.11481 -0.15346,0.33847 -0.25196,0.79492005 -0.69453,13.5651297 -3.36264004,28.0883497 -3.62500004,41.1503927 -0.16516,1.427967 0.61209,4.731793 2.03125004,5.013672 L 18.500125,49.74622 c 0.3178,-10.242537 -9.6598595,-23.330197 2.29107,-26.707077 l 19.86914,5.38476 20.66602,4.64258 10.47655,8.078127 -3.43554,14.009766 -18.54101,0.43164 c -0.99665,0.679918 -1.02963,1.048063 -1.1504,1.710938 -0.58203,0.837318 29.60757,20.110719 30.54492,20.220703 l 25.265625,3.013672 c 0.93637,0.109662 1.2326,-0.310817 0.88086,-1.257813 l -3.39844,-11.677734 12.3711,0.152344 c 25.76834,7.150132 36.9743,20.052588 30.77931,49.269534 -11.96921,56.44934 40.65653,113.41296 68.39453,116.91406 5.69115,-23.24881 37.6255,-22.53114 50.61131,21.78711 -2.66313,12.92607 -5.65879,27.30129 6.79102,40.56054 7.80674,8.31435 13.75691,9.03291 23.92969,8.81836 l 0.58008,0.65235 -0.41016,-0.64844 20.07616,-45.08594 C 303.34926,212.10072 289.44051,165.46628 212.94157,168.70713 195.34489,152.401 193.58694,147.41569 192.41228,131.72861 l 26.18554,5.6211 c -7.64365,-37.479287 2.1943,-95.677354 -79.80664,-110.658207 0.0435,-0.23816 0.0677,-0.47965 0.0527,-0.72461 l -0.42578,-8.44921 c -0.0866,-1.68382 -1.56256,-2.79195 -3.28906,-2.47266 l -29.39255,5.43555 -14.320305,-2.85157 c -0.0381,-0.0621 -0.0859,-0.12584 -0.16992,-0.20507 L 77.660325,4.7969733 c -0.37862,-0.35092 -0.80857,-0.45339 -1.28515,-0.32422 -0.15896,0.0427 -0.31843,0.10831 -0.48828,0.20508 L 62.996275,11.974713 15.754085,2.5762733 c -0.0561,-0.009 -0.10845,0.004 -0.16406,-0.002 z M 329.68767,276.33018 308.65838,320.64268 476.28472,510.08 c 10.79047,10.08177 44.31656,-22.34205 33.64514,-32.28498 z"
     fill="#a2a3c1"
     stroke-width="0.770254"
     id="path3-6"
     sodipodi:nodetypes="ccccccccccccccccccccsccscccccccccccccccccccccccccc"
     style="fill:#a3abc2" /><path
     id="path1-7"
     style="fill:#a3e5f5;fill-opacity:1;stroke-width:0.481566"
     d="M 106,296 C 48.157243,296 1.2665036,342.89185 1.2664995,400.7344 1.2665163,458.57696 48.157252,505.46701 106,505.46701 c 57.84277,0 104.73347,-46.89005 104.7335,-104.73261 C 210.7335,342.89187 163.84277,296 106,296 Z m 0,8.69492 c 56.08978,3e-5 95.96905,39.94991 95.96929,96.03948 -2.4e-4,56.08958 -39.87951,96.03946 -95.96929,96.03949 -56.089792,0 -95.967257,-39.9499 -95.967487,-96.03949 C 10.032743,344.64482 49.910208,304.69492 106,304.69492 Z m 16.56188,15.51934 c -8.20834,-0.19719 -17.0078,0.55151 -20.88664,0.53187 -8.891778,-0.18145 -17.74725,0.12727 -26.547409,1.34044 l 3.452892,2.23348 c 1.899268,1.22805 4.614652,2.75697 6.033918,3.39782 1.64004,0.74058 3.253861,2.56049 4.428508,4.99345 2.151076,4.45526 3.782671,6.05085 8.937113,8.74162 2.067218,1.07917 4.166308,2.71552 4.663318,3.63683 1.97794,3.66627 7.11974,11.22925 9.75255,14.34599 3.21471,3.80556 4.37686,7.70112 2.84496,9.52327 -6.7667,3.73858 -19.77997,-3.60768 -26.860491,-5.19827 -8.57125,-1.73368 -13.712539,-2.34072 -22.533899,-2.66292 -5.579142,-0.20377 -10.125251,-0.0593 -10.105675,0.31983 0.06619,1.28067 32.492379,25.3167 34.507091,30.54813 9.535818,9.76841 17.098864,20.89466 24.807314,31.99281 2.018,2.88324 3.66949,6.08512 3.66949,7.1155 0,1.03036 0.7776,3.46064 1.72736,5.40131 7.15879,18.59191 9.88646,34.57836 -0.86823,51.41846 l 2.04225,-1.52011 c 6.89393,-6.18682 9.92261,-20.33796 10.29679,-28.6974 0.11781,-5.4566 -0.0768,-9.92038 -0.43138,-9.92038 -9.19473,-22.91813 -21.74998,-43.58275 -34.410617,-64.34136 -3.50005,-5.6873 -3.779308,-7.67852 -1.219531,-8.6482 4.734958,-1.79368 23.011778,12.63425 25.165888,14.64248 l 4.60508,4.29265 c 0.62517,-19.03147 -2.40324,-38.88335 -15.70275,-53.55492 -6.18831,-4.34931 -6.34208,-9.14772 -0.29305,-9.14772 30.89725,1.21514 36.73744,16.55204 36.71498,19.79403 -0.0178,2.56855 0.61364,2.84615 0.97561,2.59284 1.5272,-1.50761 -0.54074,-12.9712 -3.46381,-19.20286 -1.37146,-2.9238 -3.15529,-6.89267 -3.96619,-8.82251 -1.50959,-3.80552 -9.12711,-4.94896 -17.33544,-5.14616 z" /></svg>
