<?xml version="1.0" encoding="UTF-8" standalone="no"?>
<!-- Created with Inkscape (http://www.inkscape.org/) -->

<svg
   width="512"
   height="512"
   viewBox="0 0 135.46666 135.46667"
   version="1.1"
   id="svg1"
   inkscape:version="1.3.2 (091e20e, 2023-11-25, custom)"
   sodipodi:docname="KWD_KIT_StaffDamageType_EldritchRune_R.svg"
   xmlns:inkscape="http://www.inkscape.org/namespaces/inkscape"
   xmlns:sodipodi="http://sodipodi.sourceforge.net/DTD/sodipodi-0.dtd"
   xmlns="http://www.w3.org/2000/svg"
   xmlns:svg="http://www.w3.org/2000/svg">
  <sodipodi:namedview
     id="namedview1"
     pagecolor="#ffffff"
     bordercolor="#000000"
     borderopacity="0.25"
     inkscape:showpageshadow="2"
     inkscape:pageopacity="0.0"
     inkscape:pagecheckerboard="0"
     inkscape:deskcolor="#d1d1d1"
     inkscape:document-units="px"
     showgrid="true"
     inkscape:zoom="1.0000001"
     inkscape:cx="176.99998"
     inkscape:cy="136.49999"
     inkscape:window-width="1920"
     inkscape:window-height="1009"
     inkscape:window-x="1042"
     inkscape:window-y="235"
     inkscape:window-maximized="1"
     inkscape:current-layer="svg1">
    <inkscape:grid
       id="grid1"
       units="px"
       originx="0"
       originy="0"
       spacingx="0.26458332"
       spacingy="0.26458334"
       empcolor="#0099e5"
       empopacity="0.30196078"
       color="#0099e5"
       opacity="0.14901961"
       empspacing="5"
       dotted="false"
       gridanglex="30"
       gridanglez="30"
       visible="true" />
  </sodipodi:namedview>
  <defs
     id="defs1" />
  <g
     id="g21"
     transform="matrix(0.79329369,-0.79329369,0.79329369,0.79329369,-34.690831,72.571805)">
    <ellipse
       style="fill:#85a036;stroke-width:0.264583;fill-opacity:1"
       id="path12"
       cx="67.46875"
       cy="-3.4854465"
       rx="13.890625"
       ry="14.552084" />
    <path
       id="rect13"
       style="fill:#a3abc2;stroke-width:0.153129;fill-opacity:1"
       d="m 67.073032,-18.25334 c -7.5527,0.169455 -14.945034,6.939523 -15.479161,22.2221886 1.189749,8.8970904 4.786605,14.2126454 9.286575,22.5506114 0.371168,2.993154 -1.007693,8.374108 -1.942898,10.522421 1.191905,0.359724 1.879451,1.002482 2.299419,1.823597 l 0.0023,-0.0018 11.529338,14.206466 c 0.06752,-3.273139 0.149488,-6.545232 0.260711,-9.815368 0.118304,-3.478329 -0.233995,-5.662413 2.831896,-6.134087 C 74.876164,34.857825 73.603304,29.805131 74.134348,26.561837 77.826133,19.505001 81.45923,15.049343 83.343539,6.6146543 85.536913,-9.0479835 76.188359,-18.457855 67.073032,-18.25334 Z m 1.117466,0.77937 c 6.676861,-0.08602 19.815079,11.1497128 8.995923,23.5754928 -3.411594,0.7800229 -7.086103,0.9709405 -11.714507,-0.9760555 -3.152148,-7.5316353 -2.13745,-14.6262698 0.330265,-22.0913723 0.690246,-0.348703 1.498781,-0.496606 2.388319,-0.508065 z m -6.013404,0.805166 C 59.136712,-9.5476677 58.680557,-2.4916009 61.42536,4.7878323 59.256695,5.4014259 57.271245,5.6842479 56.181193,4.3511638 54.769036,-1.0489049 54.678682,-10.312815 62.177094,-16.668804 Z m -0.254263,60.866428 c 0.346009,17.294083 0.514513,48.906859 0.514513,84.303736 l -1.455561,11.76379 h 13.237319 l -1.719036,-11.76379 c 0.351489,-23.66922 -0.171342,-47.380674 0.197145,-71.028645 z" />
  </g>
  <path
     id="path1-8"
     style="fill:#85a036;fill-opacity:1;stroke-width:0.127437"
     d="M 106.69759,0.79380732 C 91.393308,0.79375132 78.986568,13.200505 78.986618,28.504777 c 7e-5,15.304182 12.40678,27.710505 27.710972,27.710452 15.30417,5.3e-5 27.7109,-12.40627 27.71097,-27.710452 5e-5,-15.304272 -12.40671,-27.71102268 -27.71097,-27.71096968 z m 0,2.22983798 c 14.07277,6.1e-5 25.48107,11.4083537 25.48113,25.4811317 -6e-5,14.072775 -11.40836,25.481071 -25.48113,25.481131 -14.072782,-6e-5 -25.481072,-11.408356 -25.481132,-25.481131 6e-5,-14.072778 11.40835,-25.4810737 25.481132,-25.4811317 z m -1.8588,4.3893957 c -0.5917,-0.0029 -1.26259,1.94e-4 -2.00453,0.01085 h -5.2e-4 l -4.707722,0.06718 c -0.44189,4.015472 -0.43563,8.050673 0.0041,12.06593 0.18227,0.820092 0.87452,0.459854 1.86087,-0.968416 1.055732,-1.528755 2.106312,-2.262598 3.731562,-2.606559 2.07221,-0.438563 1.98519,-0.667999 2.02261,5.342826 0.0302,10.030518 -0.77276,21.292806 0.43977,30.564542 0.0898,0.687025 0.42667,0.918962 0.58497,0.336414 1.06157,-3.906667 2.61137,-15.401774 2.69803,-18.761645 0.0961,-7.439928 3.34847,-13.832559 1.96216,-15.200623 -0.35299,-0.348355 -1.25367,-2.128031 -1.13585,-2.244307 0.0535,-0.05281 0.52732,0.02231 1.05316,0.166398 0.52584,0.144087 1.09341,0.262796 1.26091,0.26355 0.38487,0.0019 0.94797,-1.082854 1.15807,-2.229838 0.0888,-0.484666 0.44958,-1.147431 0.8015,-1.472779 0.3519,-0.325344 1.04272,-1.406707 1.5353,-2.402437 1.22169,-2.469564 1.19632,-2.484603 -4.04626,-2.484603 -2.39891,0 -4.10893,-0.100847 -4.26124,-0.251147 C 107.6754,7.48968 106.61435,7.421791 104.83927,7.41304 Z" />
</svg>
