<?xml version="1.0" encoding="UTF-8" standalone="no"?>
<!-- Created with Inkscape (http://www.inkscape.org/) -->

<svg
   width="512"
   height="512"
   viewBox="0 0 135.46666 135.46667"
   version="1.1"
   id="svg1"
   inkscape:version="1.3.2 (091e20e, 2023-11-25, custom)"
   sodipodi:docname="KWD_KIT_StaffLightType_Normal_I.svg"
   xmlns:inkscape="http://www.inkscape.org/namespaces/inkscape"
   xmlns:sodipodi="http://sodipodi.sourceforge.net/DTD/sodipodi-0.dtd"
   xmlns="http://www.w3.org/2000/svg"
   xmlns:svg="http://www.w3.org/2000/svg">
  <sodipodi:namedview
     id="namedview1"
     pagecolor="#ffffff"
     bordercolor="#000000"
     borderopacity="0.25"
     inkscape:showpageshadow="2"
     inkscape:pageopacity="0.0"
     inkscape:pagecheckerboard="0"
     inkscape:deskcolor="#d1d1d1"
     inkscape:document-units="px"
     showgrid="true"
     inkscape:zoom="0.7964015"
     inkscape:cx="262.43044"
     inkscape:cy="202.78716"
     inkscape:window-width="1920"
     inkscape:window-height="1009"
     inkscape:window-x="1042"
     inkscape:window-y="235"
     inkscape:window-maximized="1"
     inkscape:current-layer="svg1">
    <inkscape:grid
       id="grid1"
       units="px"
       originx="0"
       originy="0"
       spacingx="0.26458332"
       spacingy="0.26458334"
       empcolor="#0099e5"
       empopacity="0.30196078"
       color="#0099e5"
       opacity="0.14901961"
       empspacing="5"
       dotted="false"
       gridanglex="30"
       gridanglez="30"
       visible="true" />
  </sodipodi:namedview>
  <defs
     id="defs1" />
  <g
     id="g21"
     transform="matrix(0.22661638,-0.22655735,0.22661638,0.22655735,-14.088337,93.580068)">
    <path
       d="m 269.04335,-95.646888 c 0.79217,-0.921706 1.58496,-0.921299 2.37649,-3.95e-4 l 21.38233,24.846617 c 0.2343,0.271536 0.36327,0.501459 0.39209,0.692992 0.53354,0.735825 0.74094,1.981995 0.74063,3.146139 l 8.70708,60.588826 c -1.54363,12.318473 -6.57655,65.943203 -8.70677,78.218913 0,0.62955 -1.05527,1.45509 -2.49588,1.45468 l -43.15064,-0.13011 c -1.44158,0 -1.9396,-0.69501 -1.93929,-1.32496 -1.88799,-12.32155 -7.29223,-65.88402 -8.70742,-78.218523 l 8.70743,-60.588824 c -1e-5,-1.036867 0.34886,-2.260415 0.91603,-3.116233 0.0188,-0.195983 0.14978,-0.437212 0.39559,-0.722493 z"
       style="fill:#a3c5f5"
       id="path14-2"
       sodipodi:nodetypes="ccccccccccccccc"
       transform="translate(-32.641968,-78.627291)" />
    <path
       id="rect19"
       style="display:inline;fill:#a3abc2;fill-opacity:1;stroke-width:2.00001"
       d="m 237.37202,-66.725463 -8.59189,34.381387 -20.55683,-22.65679 -4.22382,2.000247 0.99266,42.844984 -9.94529,0.2012649 -6.5e-4,4.999242 21.67023,29.9555421 0.0775,57.262452 c 14.29447,-3.077312 27.91961,-2.68065 41.28409,-0.0054 l 0.20789,-57.259261 21.66837,-29.9547364 6.5e-4,-4.9992421 -9.95008,-0.1986735 0.99575,-42.845243 -0.005,0.0032 0.003,-0.0048 -4.22168,-2.00076 -20.5579,22.657307 z M 209.07963,93.526503 c -1.97518,4.209612 -1.80785,7.524597 -0.9998,12.001537 2.81873,1.34092 7.39,0.99889 10.43216,0.99849 l 0.005,74.01781 c -3.0085,-0.0792 -7.62351,0.57726 -10.59207,1.00123 -1.55326,4.09284 -0.30497,8.0801 0.99989,11.99966 19.1249,5.67023 35.5194,6.02343 56.8559,-9.6e-4 1.97518,-4.20959 1.80623,-7.52461 0.99819,-12.00153 -2.95074,-0.4152 -7.5043,-0.99887 -10.48538,-0.99848 l -0.002,-74.01781 c 3.02571,0.0874 7.65684,-0.57311 10.64207,-0.99963 1.58356,-4.46203 0.398,-7.80232 -0.9999,-12.001272 -18.95099,-6.169243 -37.90233,-6.257437 -56.85406,9.55e-4 z m 49.10883,110.244627 c -14.25267,3.29762 -27.94665,3.34538 -41.29216,0.23115 l -0.0661,160.5934 -10.10235,5.00056 -7.3e-4,17.99889 5.00085,9.6e-4 -0.001,9.00025 51.5696,-2.7e-4 -4.4e-4,-9.00025 5.00086,-6.5e-4 7.3e-4,-18.0005 -10.00106,-4.99955 z"
       sodipodi:nodetypes="cccccccccccccccccccccccccccccccccccccccccccccc" />
  </g>
  <path
     id="path1-0"
     style="fill:#a3c5f5;fill-opacity:1;fill-rule:evenodd;stroke-width:4.1286"
     d="M 134.91856,26.969011 123.42152,20.766698 127.17168,8.2332147 114.65269,11.978547 108.46948,0.51993074 102.272,12.007316 89.767295,8.2668137 l 3.7405,12.5049243 -11.486963,6.197273 11.477092,6.192445 -3.73063,12.47616 12.490846,-3.735679 6.21134,11.515731 6.19728,-11.48696 12.50492,3.740502 -3.7405,-12.504713 z m -12.9019,0 c -0.008,1.706532 -0.3196,3.398018 -0.9227,4.994442 -0.70865,1.711011 -1.7429,3.268098 -3.04529,4.584746 -1.2114,1.201346 -2.62801,2.17623 -4.18283,2.878567 -1.71128,0.709068 -3.54402,1.078924 -5.39636,1.089015 -1.321,-0.0055 -2.63489,-0.193943 -3.90417,-0.560047 -2.13534,-0.686155 -4.07935,-1.864943 -5.67501,-3.441133 -1.291044,-1.298404 -2.320725,-2.832677 -3.033117,-4.51944 -0.610847,-1.605654 -0.927387,-3.30824 -0.934463,-5.02615 0.01011,-1.852339 0.37995,-3.685081 1.089017,-5.396365 0.702338,-1.554814 1.677223,-2.971418 2.878563,-4.182824 1.31664,-1.302381 2.87373,-2.336636 4.58473,-3.045299 1.59643,-0.603098 3.28792,-0.915594 4.99445,-0.922705 2.22665,0.01393 4.4193,0.547622 6.40328,1.55856 1.16384,0.640588 2.23276,1.440228 3.17591,2.375846 1.20849,1.225686 2.18579,2.659475 2.88487,4.232381 0.70501,1.706717 1.07284,3.533831 1.08312,5.380406 z m -3.22546,-2.09e-4 c 0,-5.700413 -4.62109,-10.32151 -10.3215,-10.321509 -5.70042,-1e-6 -10.321509,4.621095 -10.321509,10.321509 0,5.700412 4.621089,10.321509 10.321509,10.321509 5.70041,0 10.3215,-4.621097 10.3215,-10.321509 z"
     sodipodi:nodetypes="ccccccccccccccccccccccccccccccccccsssss" />
</svg>
