<?xml version="1.0" encoding="UTF-8" standalone="no"?>
<svg
   viewBox="0 0 512 512"
   version="1.1"
   id="svg1"
   sodipodi:docname="KWD_KIT_StaffDamage_AshFireRune.svg"
   width="512"
   height="512"
   xml:space="preserve"
   inkscape:version="1.3.2 (091e20e, 2023-11-25, custom)"
   xmlns:inkscape="http://www.inkscape.org/namespaces/inkscape"
   xmlns:sodipodi="http://sodipodi.sourceforge.net/DTD/sodipodi-0.dtd"
   xmlns="http://www.w3.org/2000/svg"
   xmlns:svg="http://www.w3.org/2000/svg"
   xmlns:bx="https://boxy-svg.com"><sodipodi:namedview
     id="namedview1"
     pagecolor="#ffffff"
     bordercolor="#000000"
     borderopacity="0.25"
     inkscape:showpageshadow="2"
     inkscape:pageopacity="0.0"
     inkscape:pagecheckerboard="0"
     inkscape:deskcolor="#d1d1d1"
     showgrid="true"
     inkscape:zoom="1"
     inkscape:cx="246.5"
     inkscape:cy="263.5"
     inkscape:window-width="1920"
     inkscape:window-height="1017"
     inkscape:window-x="1042"
     inkscape:window-y="235"
     inkscape:window-maximized="1"
     inkscape:current-layer="g2-9-2"><inkscape:grid
       id="grid1"
       units="px"
       originx="0"
       originy="0"
       spacingx="1"
       spacingy="1"
       empcolor="#0099e5"
       empopacity="0.30196078"
       color="#0099e5"
       opacity="0.14901961"
       empspacing="5"
       dotted="false"
       gridanglex="30"
       gridanglez="30"
       visible="true" /></sodipodi:namedview><defs
     id="defs1"><inkscape:path-effect
       effect="fillet_chamfer"
       id="path-effect1"
       is_visible="true"
       lpeversion="1"
       nodesatellites_param="F,0,0,1,0,0,0,1 @ F,0,0,1,0,0,0,1 @ F,0,0,1,0,5,0,1 @ F,0,0,1,0,5,0,1"
       radius="0"
       unit="px"
       method="auto"
       mode="F"
       chamfer_steps="1"
       flexible="false"
       use_knot_distance="true"
       apply_no_radius="true"
       apply_with_radius="true"
       only_selected="false"
       hide_knots="false" /><bx:grid
       x="0"
       y="0"
       width="512"
       height="512" /><bx:grid
       x="0"
       y="0"
       width="512"
       height="512" /><bx:grid
       x="0"
       y="0"
       width="100"
       height="100" /><bx:grid
       x="0"
       y="0"
       width="512"
       height="512" /><bx:grid
       x="0"
       y="0"
       width="512"
       height="512" /><bx:grid
       x="0"
       y="0"
       width="512"
       height="512" /><bx:grid
       x="0"
       y="0"
       width="512"
       height="512" /><bx:grid
       x="0"
       y="0"
       width="512"
       height="512" /><bx:grid
       x="0"
       y="0"
       width="512"
       height="512" /><bx:grid
       x="0"
       y="0"
       width="512"
       height="512" /><bx:grid
       x="0"
       y="0"
       width="100"
       height="100" /><bx:grid
       x="0"
       y="0"
       width="512"
       height="512" /><bx:grid
       x="0"
       y="0"
       width="512"
       height="512" /><bx:grid
       x="0"
       y="0"
       width="512"
       height="512" /><bx:grid
       x="0"
       y="0"
       width="512"
       height="512" /><bx:grid
       x="0"
       y="0"
       width="512"
       height="512" /><bx:grid
       x="0"
       y="0"
       width="512"
       height="512" /><bx:grid
       x="0"
       y="0"
       width="512"
       height="512" /><bx:grid
       x="0"
       y="0"
       width="512"
       height="512" /><bx:grid
       x="0"
       y="0"
       width="512"
       height="512" /><bx:grid
       x="0"
       y="0"
       width="512"
       height="512" /><bx:grid
       x="0"
       y="0"
       width="512"
       height="512" /><bx:grid
       x="0"
       y="0"
       width="512"
       height="512" /><bx:grid
       x="0"
       y="0"
       width="512"
       height="512" /><bx:grid
       x="0"
       y="0"
       width="512"
       height="512" /><bx:grid
       x="0"
       y="0"
       width="512"
       height="512" /><bx:grid
       x="0"
       y="0"
       width="100"
       height="100" /><bx:grid
       x="0"
       y="0"
       width="100"
       height="100" /><bx:grid
       x="0"
       y="0"
       width="100"
       height="100" /><bx:grid
       x="0"
       y="0"
       width="100"
       height="100" /><bx:grid
       x="0"
       y="0"
       width="100"
       height="100" /><bx:grid
       x="0"
       y="0"
       width="512"
       height="512" /><bx:grid
       x="0"
       y="0"
       width="512"
       height="512" /><bx:grid
       x="0"
       y="0"
       width="512"
       height="512" /><bx:grid
       x="0"
       y="0"
       width="512"
       height="512" /><bx:grid
       x="0"
       y="0"
       width="512"
       height="512" /><bx:grid
       x="0"
       y="0"
       width="512"
       height="512" /><bx:grid
       x="0"
       y="0"
       width="512"
       height="512" /><bx:grid
       x="0"
       y="0"
       width="512"
       height="512" /><bx:grid
       x="0"
       y="0"
       width="512"
       height="512" /><bx:grid
       x="0"
       y="0"
       width="512"
       height="512" /><bx:grid
       x="0"
       y="0"
       width="512"
       height="512" /><bx:grid
       x="0"
       y="0"
       width="512"
       height="512" /><bx:grid
       x="0"
       y="0"
       width="512"
       height="512" /><bx:grid
       x="0"
       y="0"
       width="512"
       height="512" /><bx:grid
       x="0"
       y="0"
       width="512"
       height="512" /><bx:grid
       x="0"
       y="0"
       width="512"
       height="512" /><bx:grid
       x="0"
       y="0"
       width="512"
       height="512" /><bx:grid
       x="0"
       y="0"
       width="512"
       height="512" /><bx:grid
       x="0"
       y="0"
       width="512"
       height="512" /><bx:grid
       x="0"
       y="0"
       width="512"
       height="512" /><bx:grid
       x="0"
       y="0"
       width="512"
       height="512" /><bx:grid
       x="0"
       y="0"
       width="512"
       height="512" /><bx:grid
       x="0"
       y="0"
       width="512"
       height="512" /><bx:grid
       x="0"
       y="0"
       width="512"
       height="512" /><bx:grid
       x="0"
       y="0"
       width="512"
       height="512" /><bx:grid
       x="0"
       y="0"
       width="512"
       height="512" /><bx:grid
       x="0"
       y="0"
       width="512"
       height="512" /><bx:grid
       x="0"
       y="0"
       width="512"
       height="512" /><bx:grid
       x="0"
       y="0"
       width="512"
       height="512" /><bx:grid
       x="0"
       y="0"
       width="512"
       height="512" /><bx:grid
       x="0"
       y="0"
       width="512"
       height="512" /><bx:grid
       x="0"
       y="0"
       width="512"
       height="512" /><bx:grid
       x="0"
       y="0"
       width="512"
       height="512" /><bx:grid
       x="0"
       y="0"
       width="512"
       height="512" /><bx:grid
       x="0"
       y="0"
       width="512"
       height="512" /><bx:grid
       x="0"
       y="0"
       width="512"
       height="512" /><bx:grid
       x="0"
       y="0"
       width="512"
       height="512" /><bx:grid
       x="0"
       y="0"
       width="512"
       height="512" /><bx:grid
       x="0"
       y="0"
       width="512"
       height="512" /><bx:grid
       x="0"
       y="0"
       width="512"
       height="512" /><bx:grid
       x="0"
       y="0"
       width="512"
       height="512" /><bx:grid
       x="0"
       y="0"
       width="512"
       height="512" /><bx:grid
       x="0"
       y="0"
       width="512"
       height="512" /><bx:grid
       x="0"
       y="0"
       width="512"
       height="512" /><bx:grid
       x="0"
       y="0"
       width="512"
       height="512" /><bx:grid
       x="0"
       y="0"
       width="512"
       height="512" /><bx:grid
       x="0"
       y="0"
       width="512"
       height="512" /><bx:grid
       x="0"
       y="0"
       width="512"
       height="512" /><bx:grid
       x="0"
       y="0"
       width="512"
       height="512" /><bx:grid
       x="0"
       y="0"
       width="512"
       height="512" /><bx:grid
       x="0"
       y="0"
       width="512"
       height="512" /><bx:grid
       x="0"
       y="0"
       width="512"
       height="512" /><bx:grid
       x="0"
       y="0"
       width="512"
       height="512" /></defs><path
     d="m 4.4806455,0.09189325 c -0.32386,0.01 -0.47982,0.006 -0.58593,0.12305 l -0.002,0.002 v 0.0117 c -0.10578,0.11481 -0.15346,0.33847 -0.25196,0.79492005 -0.69453,13.5651297 -3.36264004,28.0883497 -3.62500004,41.1503927 -0.16516,1.427967 0.61209,4.731793 2.03125004,5.013672 L 18.500125,49.74622 c 0.3178,-10.242537 -9.6598595,-23.330197 2.29107,-26.707077 l 19.86914,5.38476 20.66602,4.64258 10.47655,8.078127 -3.43554,14.009766 -18.54101,0.43164 c -0.99665,0.679918 -1.02963,1.048063 -1.1504,1.710938 -0.58203,0.837318 29.60757,20.110719 30.54492,20.220703 l 25.265625,3.013672 c 0.93637,0.109662 1.2326,-0.310817 0.88086,-1.257813 l -3.39844,-11.677734 12.3711,0.152344 c 25.76834,7.150132 36.9743,20.052588 30.77931,49.269534 -11.96921,56.44934 40.65653,113.41296 68.39453,116.91406 5.69115,-23.24881 37.6255,-22.53114 50.61131,21.78711 -2.66313,12.92607 -5.65879,27.30129 6.79102,40.56054 7.80674,8.31435 13.75691,9.03291 23.92969,8.81836 l 0.58008,0.65235 -0.41016,-0.64844 20.07616,-45.08594 C 303.34926,212.10072 289.44051,165.46628 212.94157,168.70713 195.34489,152.401 193.58694,147.41569 192.41228,131.72861 l 26.18554,5.6211 c -7.64365,-37.479287 2.1943,-95.677354 -79.80664,-110.658207 0.0435,-0.23816 0.0677,-0.47965 0.0527,-0.72461 l -0.42578,-8.44921 c -0.0866,-1.68382 -1.56256,-2.79195 -3.28906,-2.47266 l -29.39255,5.43555 -14.320305,-2.85157 c -0.0381,-0.0621 -0.0859,-0.12584 -0.16992,-0.20507 L 77.660325,4.7969733 c -0.37862,-0.35092 -0.80857,-0.45339 -1.28515,-0.32422 -0.15896,0.0427 -0.31843,0.10831 -0.48828,0.20508 L 62.996275,11.974713 15.754085,2.5762733 c -0.0561,-0.009 -0.10845,0.004 -0.16406,-0.002 z M 329.68767,276.33018 308.65838,320.64268 476.28472,510.08 c 10.79047,10.08177 44.31656,-22.34205 33.64514,-32.28498 z"
     fill="#a2a3c1"
     stroke-width="0.770254"
     id="path3-6"
     sodipodi:nodetypes="ccccccccccccccccccccsccscccccccccccccccccccccccccc"
     style="fill:#a3abc2" /><g
     id="g2-9-2"
     transform="matrix(1.5695202,0,0,1.5480617,-0.54795619,296.63217)"
     style="fill:#cc4f35"><path
       d="M 67.733328,-0.6512795 C 30.804833,-0.65128267 0.50672984,30.324366 0.50672793,67.732457 0.5067372,105.14054 30.784748,135.77195 67.713237,135.77195 c 36.928493,0 67.510133,-30.58736 67.510143,-67.995438 0,-37.408088 -30.56156,-68.42779038 -67.490052,-68.4277915 z m 0.130029,7.3099339 C 103.6727,6.6586623 128.12012,31.444542 128.12026,67.718947 128.12012,103.99335 103.54267,128.63002 67.733329,128.63003 31.92398,128.63003 7.6154958,104.00774 7.6153513,67.733331 7.6154958,31.45892 32.054008,6.6586525 67.863357,6.6586544 Z"
       id="path1-8"
       style="fill:#cc4f35;fill-opacity:1"
       transform="matrix(1.0004178,0,0,1.0012815,-0.00603556,-1.3467616)"
       sodipodi:nodetypes="sssssscscs" /><path
       style="fill:#cc4f35;fill-opacity:1;stroke-width:1.50164"
       d="m 112.45448,34.326774 c -13.840812,7.280849 -25.841604,4.747305 -40.997928,5.662244 -0.09848,3.578773 5.10102,3.649974 7.925564,5.209054 2.84276,1.569135 14.342808,5.194241 12.679846,32.656745 -3.696091,9.404579 -6.239623,20.240595 -14.166341,27.584143 -2.312757,2.14261 -9.277723,3.40202 -6.951861,6.20157 4.579009,-0.33664 10.995872,2.10484 13.519751,-3.06072 10.33438,-10.263714 18.611139,-35.56576 22.453349,-36.238979 4.9313,-0.864044 2.68293,20.13234 3.05598,24.525832 6.03992,-4.247549 11.63705,-29.671642 5.68453,-42.830769 -2.42384,-3.49668 -6.53695,2.82334 -5.59267,6.641968 1.57086,6.35247 -9.08336,6.216908 -11.157104,0.682339 -2.506092,-4.659938 -6.404429,-10.058736 -4.341536,-15.548059 3.547356,-2.550687 8.09451,-0.506665 11.44322,1.261824 2.40688,1.271101 -2.19287,7.375432 1.26952,8.310353 4.19682,-2.164424 5.96982,-7.062028 7.35204,-11.323613 0.65058,-3.172621 1.539,-8.175256 -2.17636,-9.733932 z"
       id="path1-9" /><path
       style="fill:#cc4f35;fill-opacity:1;stroke-width:1.50164"
       d="m 31.837355,19.275756 c -0.146377,2.111322 15.419317,7.844663 19.735696,10.565097 15.518549,13.306021 -24.002043,8.379581 -29.360722,8.595376 -0.594417,1.234067 21.042192,28.539165 15.783371,56.755308 -2.024072,10.860133 -8.527607,-6.711885 -11.416144,-6.358912 -4.409925,2.443499 5.971965,21.470665 13.040346,24.169505 11.201613,1.29283 17.788209,-12.71716 24.114683,-19.787828 2.685787,-1.95487 1.018313,-5.391571 -1.695834,-2.334388 -2.961766,2.876224 -6.475524,4.436562 -9.81486,7.304312 -3.307605,2.230534 -10.918317,3.619424 -8.095913,-3.420518 C 50.337941,79.274145 48.807413,63.560705 39.640762,49.239906 36.917434,46.525595 38.185597,45.77806 41.047814,47.872721 46.673911,53.843268 70.746907,41.859505 65.290009,34.963524 58.226203,23.593131 44.022458,21.376983 31.837355,19.275756 Z"
       id="path12-6" /></g></svg>
