<?xml version="1.0" encoding="UTF-8" standalone="no"?>
<!-- Created with Inkscape (http://www.inkscape.org/) -->

<svg
   width="512"
   height="512"
   viewBox="0 0 135.46666 135.46667"
   version="1.1"
   id="svg1"
   inkscape:version="1.3.2 (091e20e, 2023-11-25, custom)"
   sodipodi:docname="KWD_KIT_StaffDamageSun.svg"
   xmlns:inkscape="http://www.inkscape.org/namespaces/inkscape"
   xmlns:sodipodi="http://sodipodi.sourceforge.net/DTD/sodipodi-0.dtd"
   xmlns="http://www.w3.org/2000/svg"
   xmlns:svg="http://www.w3.org/2000/svg">
  <sodipodi:namedview
     id="namedview1"
     pagecolor="#ffffff"
     bordercolor="#000000"
     borderopacity="0.25"
     inkscape:showpageshadow="2"
     inkscape:pageopacity="0.0"
     inkscape:pagecheckerboard="0"
     inkscape:deskcolor="#d1d1d1"
     inkscape:document-units="px"
     showgrid="true"
     inkscape:zoom="0.70710678"
     inkscape:cx="223.44574"
     inkscape:cy="116.67262"
     inkscape:window-width="1920"
     inkscape:window-height="1017"
     inkscape:window-x="1042"
     inkscape:window-y="276"
     inkscape:window-maximized="1"
     inkscape:current-layer="svg1">
    <inkscape:grid
       id="grid1"
       units="px"
       originx="0"
       originy="0"
       spacingx="0.26458332"
       spacingy="0.26458334"
       empcolor="#0099e5"
       empopacity="0.30196078"
       color="#0099e5"
       opacity="0.14901961"
       empspacing="5"
       dotted="false"
       gridanglex="30"
       gridanglez="30"
       visible="true" />
  </sodipodi:namedview>
  <defs
     id="defs1" />
  <g
     id="g21"
     transform="matrix(0.79329369,-0.79329369,0.79329369,0.79329369,-34.690831,72.571805)">
    <ellipse
       style="fill:#ecb279;stroke-width:0.264583"
       id="path12"
       cx="67.46875"
       cy="-3.4854465"
       rx="13.890625"
       ry="14.552084" />
    <path
       id="rect13"
       style="fill:#a3abc2;stroke-width:0.153129;fill-opacity:1"
       d="m 67.073032,-18.25334 c -7.5527,0.169455 -14.945034,6.939523 -15.479161,22.2221886 1.189749,8.8970904 4.786605,14.2126454 9.286575,22.5506114 0.371168,2.993154 -1.007693,8.374108 -1.942898,10.522421 1.191905,0.359724 1.879451,1.002482 2.299419,1.823597 l 0.0023,-0.0018 11.529338,14.206466 c 0.06752,-3.273139 0.149488,-6.545232 0.260711,-9.815368 0.118304,-3.478329 -0.233995,-5.662413 2.831896,-6.134087 C 74.876164,34.857825 73.603304,29.805131 74.134348,26.561837 77.826133,19.505001 81.45923,15.049343 83.343539,6.6146543 85.536913,-9.0479835 76.188359,-18.457855 67.073032,-18.25334 Z m 1.117466,0.77937 c 6.676861,-0.08602 19.815079,11.1497128 8.995923,23.5754928 -3.411594,0.7800229 -7.086103,0.9709405 -11.714507,-0.9760555 -3.152148,-7.5316353 -2.13745,-14.6262698 0.330265,-22.0913723 0.690246,-0.348703 1.498781,-0.496606 2.388319,-0.508065 z m -6.013404,0.805166 C 59.136712,-9.5476677 58.680557,-2.4916009 61.42536,4.7878323 59.256695,5.4014259 57.271245,5.6842479 56.181193,4.3511638 54.769036,-1.0489049 54.678682,-10.312815 62.177094,-16.668804 Z m -0.254263,60.866428 c 0.346009,17.294083 0.514513,48.906859 0.514513,84.303736 l -1.455561,11.76379 h 13.237319 l -1.719036,-11.76379 c 0.351489,-23.66922 -0.171342,-47.380674 0.197145,-71.028645 z" />
  </g>
  <path
     id="path1"
     style="fill:#ecb279;fill-opacity:1;fill-rule:evenodd;stroke-width:4.1286"
     d="M 134.91856,26.969011 123.42152,20.766698 127.17168,8.2332154 114.65269,11.978547 108.46948,0.51993052 102.272,12.007316 89.767295,8.2668143 l 3.7405,12.5049237 -11.486963,6.197273 11.477092,6.192445 -3.73063,12.47616 12.490846,-3.735679 6.21134,11.515731 6.19728,-11.48696 12.50492,3.740502 -3.7405,-12.504713 z m -12.9019,0 c -0.008,1.706532 -0.3196,3.398018 -0.9227,4.994442 -0.70865,1.711011 -1.7429,3.268098 -3.04529,4.584746 -1.2114,1.201346 -2.62801,2.17623 -4.18283,2.878567 -1.71128,0.709068 -3.54402,1.078924 -5.39636,1.089015 -1.321,-0.0055 -2.63489,-0.193943 -3.90417,-0.560047 -2.13534,-0.686155 -4.07935,-1.864943 -5.67501,-3.441133 -1.291044,-1.298404 -2.320725,-2.832677 -3.033117,-4.51944 -0.610847,-1.605654 -0.927387,-3.30824 -0.934463,-5.02615 0.01011,-1.852339 0.37995,-3.685081 1.089017,-5.396365 0.702338,-1.554814 1.677223,-2.971418 2.878563,-4.182824 1.31664,-1.302381 2.87373,-2.336636 4.58473,-3.045299 1.59643,-0.603098 3.28792,-0.915594 4.99445,-0.922705 2.22665,0.01393 4.4193,0.547622 6.40328,1.55856 1.16384,0.640588 2.23276,1.440228 3.17591,2.375846 1.20849,1.225686 2.18579,2.659475 2.88487,4.232381 0.70501,1.706717 1.07284,3.533831 1.08312,5.380406 z m -3.22546,-2.09e-4 c 0,-5.700413 -4.62109,-10.32151 -10.3215,-10.321509 -5.70042,-1e-6 -10.321509,4.621095 -10.321509,10.321509 0,5.700412 4.621089,10.321509 10.321509,10.321509 5.70041,0 10.3215,-4.621097 10.3215,-10.321509 z"
     sodipodi:nodetypes="ccccccccccccccccccccccccccccccccccsssss" />
</svg>
