<?xml version="1.0" encoding="UTF-8" standalone="no"?>
<svg
   version="1.1"
   id="svg4"
   sodipodi:docname="KWD_KIT_StaffParalysisType_NormalRune_A.svg"
   width="512"
   height="512"
   inkscape:version="1.4 (86a8ad7, 2024-10-11)"
   xml:space="preserve"
   xmlns:inkscape="http://www.inkscape.org/namespaces/inkscape"
   xmlns:sodipodi="http://sodipodi.sourceforge.net/DTD/sodipodi-0.dtd"
   xmlns="http://www.w3.org/2000/svg"
   xmlns:svg="http://www.w3.org/2000/svg"><defs
     id="defs4"><inkscape:path-effect
       effect="fillet_chamfer"
       id="path-effect19"
       is_visible="true"
       lpeversion="1"
       nodesatellites_param="F,0,0,1,0,0,0,1 @ F,0,0,1,0,0,0,1 @ F,0,0,1,0,0,0,1"
       radius="0"
       unit="px"
       method="auto"
       mode="F"
       chamfer_steps="1"
       flexible="false"
       use_knot_distance="true"
       apply_no_radius="true"
       apply_with_radius="true"
       only_selected="false"
       hide_knots="false" /><inkscape:path-effect
       effect="fillet_chamfer"
       id="path-effect70"
       is_visible="true"
       lpeversion="1"
       nodesatellites_param="F,0,0,1,0,1.3229158,0,1 @ F,0,0,1,0,1.3229161,0,1 @ F,0,0,1,0,0,0,1 @ F,0,0,1,0,0,0,1"
       radius="0"
       unit="px"
       method="auto"
       mode="F"
       chamfer_steps="1"
       flexible="false"
       use_knot_distance="true"
       apply_no_radius="true"
       apply_with_radius="true"
       only_selected="false"
       hide_knots="false" /><inkscape:path-effect
       effect="fillet_chamfer"
       id="path-effect68"
       is_visible="true"
       lpeversion="1"
       nodesatellites_param="F,0,0,1,0,0,0,1 @ F,0,0,1,0,0,0,1 @ F,0,0,1,0,0,0,1 @ F,0,0,1,0,0,0,1"
       radius="0"
       unit="px"
       method="auto"
       mode="F"
       chamfer_steps="1"
       flexible="false"
       use_knot_distance="true"
       apply_no_radius="true"
       apply_with_radius="true"
       only_selected="false"
       hide_knots="false" /><inkscape:path-effect
       effect="fillet_chamfer"
       id="path-effect67"
       is_visible="true"
       lpeversion="1"
       nodesatellites_param="F,0,0,1,0,0,0,1 @ F,0,0,1,0,0,0,1 @ F,0,0,1,0,0,0,1 @ F,0,0,1,0,0,0,1"
       radius="0"
       unit="px"
       method="auto"
       mode="F"
       chamfer_steps="1"
       flexible="false"
       use_knot_distance="true"
       apply_no_radius="true"
       apply_with_radius="true"
       only_selected="false"
       hide_knots="false" /><inkscape:path-effect
       effect="fillet_chamfer"
       id="path-effect65"
       is_visible="true"
       lpeversion="1"
       nodesatellites_param="F,0,0,1,0,0.52916652,0,1 @ F,0,0,1,0,0.52916652,0,1 @ F,0,0,1,0,0.52916652,0,1 @ F,0,0,1,0,0.52916652,0,1"
       radius="0.52916652"
       unit="px"
       method="auto"
       mode="F"
       chamfer_steps="1"
       flexible="false"
       use_knot_distance="true"
       apply_no_radius="true"
       apply_with_radius="true"
       only_selected="false"
       hide_knots="false" /><inkscape:path-effect
       effect="fillet_chamfer"
       id="path-effect63"
       is_visible="true"
       lpeversion="1"
       nodesatellites_param="F,0,0,1,0,0.52916652,0,1 @ F,0,0,1,0,0.52916652,0,1 @ F,0,0,1,0,0.52916652,0,1 @ F,0,0,1,0,0,0,1"
       radius="0.52916652"
       unit="px"
       method="auto"
       mode="F"
       chamfer_steps="1"
       flexible="false"
       use_knot_distance="true"
       apply_no_radius="true"
       apply_with_radius="true"
       only_selected="false"
       hide_knots="false" /><inkscape:path-effect
       effect="mirror_symmetry"
       start_point="36.379876,98.706102"
       end_point="36.379876,129.13318"
       center_point="36.379876,113.91964"
       id="path-effect61"
       is_visible="true"
       lpeversion="1.2"
       lpesatellites=""
       mode="free"
       discard_orig_path="false"
       fuse_paths="false"
       oposite_fuse="false"
       split_items="false"
       split_open="false"
       link_styles="false" /><inkscape:path-effect
       effect="mirror_symmetry"
       start_point="36.379876,98.706104"
       end_point="36.379876,129.13318"
       center_point="36.379876,113.91964"
       id="path-effect57"
       is_visible="true"
       lpeversion="1.2"
       lpesatellites=""
       mode="free"
       discard_orig_path="false"
       fuse_paths="false"
       oposite_fuse="false"
       split_items="false"
       split_open="false"
       link_styles="false" /><inkscape:path-effect
       effect="fillet_chamfer"
       id="path-effect31"
       is_visible="true"
       lpeversion="1"
       nodesatellites_param="F,0,0,1,0,0,0,1 @ F,0,0,1,0,0,0,1 @ F,0,0,1,0,0,0,1 @ F,0,0,1,0,0,0,1 @ F,0,0,1,0,0,0,1 @ F,0,0,1,0,0,0,1 @ F,0,0,1,0,0,0,1 @ F,0,0,1,0,0,0,1"
       radius="0"
       unit="px"
       method="auto"
       mode="F"
       chamfer_steps="1"
       flexible="false"
       use_knot_distance="true"
       apply_no_radius="true"
       apply_with_radius="true"
       only_selected="false"
       hide_knots="false" /><inkscape:perspective
       sodipodi:type="inkscape:persp3d"
       inkscape:vp_x="0 : 42.904881 : 1"
       inkscape:vp_y="0 : 999.99987 : 0"
       inkscape:vp_z="296.99999 : 42.904881 : 1"
       inkscape:persp3d-origin="148.49998 : 7.9048923 : 1"
       id="perspective4" /><inkscape:path-effect
       effect="fillet_chamfer"
       id="path-effect70-7"
       is_visible="true"
       lpeversion="1"
       nodesatellites_param="F,0,0,1,0,1.3229158,0,1 @ F,0,0,1,0,1.3229161,0,1 @ F,0,0,1,0,0,0,1 @ F,0,0,1,0,0,0,1"
       radius="0"
       unit="px"
       method="auto"
       mode="F"
       chamfer_steps="1"
       flexible="false"
       use_knot_distance="true"
       apply_no_radius="true"
       apply_with_radius="true"
       only_selected="false"
       hide_knots="false" /><inkscape:path-effect
       effect="fillet_chamfer"
       id="path-effect68-6"
       is_visible="true"
       lpeversion="1"
       nodesatellites_param="F,0,0,1,0,0,0,1 @ F,0,0,1,0,0,0,1 @ F,0,0,1,0,0,0,1 @ F,0,0,1,0,0,0,1"
       radius="0"
       unit="px"
       method="auto"
       mode="F"
       chamfer_steps="1"
       flexible="false"
       use_knot_distance="true"
       apply_no_radius="true"
       apply_with_radius="true"
       only_selected="false"
       hide_knots="false" /><inkscape:path-effect
       effect="fillet_chamfer"
       id="path-effect67-4"
       is_visible="true"
       lpeversion="1"
       nodesatellites_param="F,0,0,1,0,0,0,1 @ F,0,0,1,0,0,0,1 @ F,0,0,1,0,0,0,1 @ F,0,0,1,0,0,0,1"
       radius="0"
       unit="px"
       method="auto"
       mode="F"
       chamfer_steps="1"
       flexible="false"
       use_knot_distance="true"
       apply_no_radius="true"
       apply_with_radius="true"
       only_selected="false"
       hide_knots="false" /><inkscape:path-effect
       effect="fillet_chamfer"
       id="path-effect65-6"
       is_visible="true"
       lpeversion="1"
       nodesatellites_param="F,0,0,1,0,0.52916652,0,1 @ F,0,0,1,0,0.52916652,0,1 @ F,0,0,1,0,0.52916652,0,1 @ F,0,0,1,0,0.52916652,0,1"
       radius="0.52916652"
       unit="px"
       method="auto"
       mode="F"
       chamfer_steps="1"
       flexible="false"
       use_knot_distance="true"
       apply_no_radius="true"
       apply_with_radius="true"
       only_selected="false"
       hide_knots="false" /><inkscape:path-effect
       effect="fillet_chamfer"
       id="path-effect63-2"
       is_visible="true"
       lpeversion="1"
       nodesatellites_param="F,0,0,1,0,0.52916652,0,1 @ F,0,0,1,0,0.52916652,0,1 @ F,0,0,1,0,0.52916652,0,1 @ F,0,0,1,0,0,0,1"
       radius="0.52916652"
       unit="px"
       method="auto"
       mode="F"
       chamfer_steps="1"
       flexible="false"
       use_knot_distance="true"
       apply_no_radius="true"
       apply_with_radius="true"
       only_selected="false"
       hide_knots="false" /><inkscape:path-effect
       effect="mirror_symmetry"
       start_point="36.379876,98.706102"
       end_point="36.379876,129.13318"
       center_point="36.379876,113.91964"
       id="path-effect61-8"
       is_visible="true"
       lpeversion="1.2"
       lpesatellites=""
       mode="free"
       discard_orig_path="false"
       fuse_paths="false"
       oposite_fuse="false"
       split_items="false"
       split_open="false"
       link_styles="false" /><inkscape:path-effect
       effect="mirror_symmetry"
       start_point="36.379876,98.706104"
       end_point="36.379876,129.13318"
       center_point="36.379876,113.91964"
       id="path-effect57-7"
       is_visible="true"
       lpeversion="1.2"
       lpesatellites=""
       mode="free"
       discard_orig_path="false"
       fuse_paths="false"
       oposite_fuse="false"
       split_items="false"
       split_open="false"
       link_styles="false" /><inkscape:path-effect
       effect="fillet_chamfer"
       id="path-effect31-5"
       is_visible="true"
       lpeversion="1"
       nodesatellites_param="F,0,0,1,0,0,0,1 @ F,0,0,1,0,0,0,1 @ F,0,0,1,0,0,0,1 @ F,0,0,1,0,0,0,1 @ F,0,0,1,0,0,0,1 @ F,0,0,1,0,0,0,1 @ F,0,0,1,0,0,0,1 @ F,0,0,1,0,0,0,1"
       radius="0"
       unit="px"
       method="auto"
       mode="F"
       chamfer_steps="1"
       flexible="false"
       use_knot_distance="true"
       apply_no_radius="true"
       apply_with_radius="true"
       only_selected="false"
       hide_knots="false" /><inkscape:perspective
       sodipodi:type="inkscape:persp3d"
       inkscape:vp_x="0 : 42.904881 : 1"
       inkscape:vp_y="0 : 999.99987 : 0"
       inkscape:vp_z="296.99999 : 42.904881 : 1"
       inkscape:persp3d-origin="148.49998 : 7.9048923 : 1"
       id="perspective4-8" /></defs><sodipodi:namedview
     id="namedview4"
     pagecolor="#ffffff"
     bordercolor="#000000"
     borderopacity="0.25"
     inkscape:showpageshadow="2"
     inkscape:pageopacity="0.0"
     inkscape:pagecheckerboard="0"
     inkscape:deskcolor="#d1d1d1"
     showgrid="true"
     inkscape:zoom="1"
     inkscape:cx="311.5"
     inkscape:cy="181.5"
     inkscape:window-width="1920"
     inkscape:window-height="1009"
     inkscape:window-x="1072"
     inkscape:window-y="386"
     inkscape:window-maximized="1"
     inkscape:current-layer="svg4"><inkscape:grid
       id="grid4"
       units="px"
       originx="0"
       originy="0"
       spacingx="1"
       spacingy="1"
       empcolor="#0099e5"
       empopacity="0.30196078"
       color="#0099e5"
       opacity="0.14901961"
       empspacing="5"
       dotted="false"
       gridanglex="30"
       gridanglez="30"
       visible="true" /></sodipodi:namedview><g
     id="g3"
     transform="matrix(3.3050417,-3.3050417,3.3050417,3.3050417,-42.942943,376.28589)"><g
       id="g8"><path
         d="m 67.96786,-13.234365 c 0.156713,-0.144427 0.313549,-0.144365 0.470134,-6.4e-5 l 4.230007,3.8934099 c 0.04637,0.042529 0.07185,0.078593 0.07756,0.1085908 0.105551,0.1153006 0.14658,0.3105741 0.146517,0.4929921 l 1.217791,15.9622183 c -6.3e-5,0.059963 -0.01051,0.1173914 -0.02969,0.1710213 0.01918,0.018426 0.02963,0.038752 0.02963,0.059518 l -1.217663,5.5580966 c 0,0.09865 -0.20876,0.228006 -0.493752,0.227944 l -8.536373,-0.02039 c -0.285183,0 -0.383705,-0.108908 -0.383642,-0.207619 L 62.260521,7.4533215 c 5e-6,-0.020768 0.01045,-0.041091 0.02957,-0.059583 -0.01906,-0.053627 -0.02957,-0.1109942 -0.02951,-0.1709576 l 1.217796,-15.9622183 c 0,-0.1624734 0.06902,-0.3541992 0.181216,-0.4883061 0.0037,-0.030708 0.02963,-0.068509 0.07826,-0.1132126 z"
         style="fill:#8ed65c;fill-opacity:1;stroke:none;stroke-width:0.0895448"
         id="path1-5"
         transform="matrix(0.97608189,0,0,0.97608189,-3.063607,-25.889893)" /></g><path
       id="rect3-2"
       style="fill:#a3abc2;fill-opacity:1;stroke-width:1.34741"
       d="m 68.779367,-17.944471 c -4.694922,-0.06884 -9.203403,1.645073 -11.801184,3.963839 -2.549495,2.275662 -3.278285,5.1638613 -0.5788,7.585191 -5.680377,9.7496532 -5.868835,27.758361 7.491864,26.676601 l -3.925309,3.531879 2.207317,10.068209 c 4.121315,-1.499509 8.068927,-1.260864 11.914205,0 L 76.294349,23.812611 72.325373,20.28801 c 12.969379,1.086868 12.82697,-16.2499244 7.539812,-26.2420732 3.41034,-3.1142051 1.179201,-6.2459358 -0.60363,-8.0406968 -3.066203,-2.764455 -6.830582,-3.896167 -10.482188,-3.949711 z m -0.507734,2.481734 c 8.967288,0 12.893451,5.452228 10.008274,7.1609376 -0.291597,-0.455925 -0.590107,-0.8869713 -0.894315,-1.2898849 -0.912624,-1.2087407 -1.875335,-2.1618867 -2.848621,-2.7565777 0.581543,2.8247539 9.646625,27.268464 -0.899023,29.8874 -0.340181,0.08448 -0.702491,0.145808 -1.088247,0.181517 l 0.655859,-1.252639 h 4.28e-4 C 85.217492,13.680021 64.858157,-3.6085885 60.046422,-7.2585038 l 0.07021,-0.2119127 c 0.799251,-2.3663332 1.477436,-4.2475325 1.607111,-4.8774175 -1.117951,0.683084 -2.75174,2.3769077 -3.782321,3.8486775 -2.692941,-1.4002399 0.8667,-6.9635805 10.330211,-6.9635805 z M 60.04,-7.2396671 59.446217,-5.4262079 c 0.01443,-0.045046 0.02619,-0.096885 0.04067,-0.1417032 z m -0.714937,2.234716 c 2.493853,2.0743269 18.337492,15.3795931 15.022685,19.2926201 l -1.45599,-1.276185 -9.413634,-4.28e-4 -1.566014,1.276613 1.798476,3.432986 C 54.920147,16.906924 56.53704,3.9326805 59.325063,-5.0049511 Z M 68.02804,36.149785 c -3.840363,0.01488 -7.646986,1.100169 -8.062102,3.211227 -0.199302,1.081121 0.884936,1.984701 1.984274,1.984701 h 0.786431 l 0.50431,19.623547 -1.355385,4.28e-4 c -0.75085,2.38e-4 -1.355814,0.603682 -1.355814,1.354529 v 1.355814 c 0,0.750848 0.604538,1.355385 1.355386,1.355385 h 1.355813 l -4.28e-4,18.974537 h -1.354957 c -0.75085,0 -1.35629,0.604112 -1.355814,1.354957 l 8.57e-4,1.355813 c 0,0.750856 0.60368,1.354957 1.354529,1.354957 h 1.255636 v 39.68505 c -2.5e-5,1.11298 0.902543,2.01554 2.015525,2.01552 h 3.037416 c 2.57e-4,4.8e-4 5.98e-4,8.6e-4 8.56e-4,8.6e-4 2.55e-4,-4.7e-4 6.02e-4,-8.6e-4 8.57e-4,-8.6e-4 h 2.764712 c 1.265001,1.7e-4 2.290536,-1.02493 2.290369,-2.28994 l -4.28e-4,-39.41063 h 1.253496 c 0.750847,0 1.354957,-0.604101 1.354957,-1.354957 V 85.36491 c 0,-0.750845 -0.603681,-1.354957 -1.354529,-1.354957 H 73.14905 l -4.28e-4,-18.974537 h 1.354957 c 0.750847,0 1.354957,-0.604537 1.354957,-1.355385 v -1.355814 c 0,-0.750847 -0.603682,-1.354529 -1.354529,-1.354529 l -1.355385,-4.28e-4 0.503881,-19.623547 h 0.656716 c 1.099338,0 2.2553,-0.919187 1.984702,-1.984701 -0.551246,-2.17059 -4.425518,-3.22611 -8.265881,-3.211227 z"
       transform="matrix(0.97608189,0,0,0.97608189,-3.063607,-25.889893)" /></g><g
     id="g2"
     transform="matrix(1.5763682,0,0,1.576368,299.39676,3.2383043)"
     style="fill:#8ed65c;fill-opacity:1"><path
       id="rect3"
       style="fill:#8ed65c;fill-opacity:1;fill-rule:evenodd;stroke-width:2.70319"
       d="m 246.84869,48.085428 c -59.28227,0.519244 -117.76398,30.924844 -121.91326,83.783382 18.43012,14.536 40.73988,21.3119 65.74794,22.6921 40.60998,10.79273 75.74417,31.32324 102.40484,66.91477 9.92131,91.25112 -7.69417,172.85991 -16.23505,261.27064 42.39831,-94.91782 96.63596,-193.51166 69.17978,-289.78098 -35.1174,-29.89374 -75.63415,-51.525 -120.05485,-67.17874 38.78933,-23.78108 91.01801,-30.00465 179.40378,8.41055 C 386.75517,87.451741 342.39924,65.84174 287.35973,52.594289 274.25237,49.439496 260.52921,47.965632 246.84869,48.085428 Z"
       sodipodi:nodetypes="scccccccss"
       transform="matrix(0.25895165,0,0,0.25895167,-0.31946638,-0.34437072)" /><path
       d="M 65.972162,-0.04813089 C 29.360309,-0.04813399 -0.3194632,29.631643 -0.3194651,66.243505 c 9.2e-6,36.611855 29.6797801,66.291625 66.2916271,66.291625 36.611848,0 66.291608,-29.67977 66.291618,-66.291625 0,-36.611859 -29.67977,-66.2916348 -66.291618,-66.29163589 z m 0,6.81450189 c 35.502298,7.8e-6 59.431288,23.974827 59.431428,59.477134 -1.4e-4,35.502305 -23.92913,59.477125 -59.431428,59.477135 -35.502303,0 -59.431305,-23.97482 -59.4314483,-59.477135 C 6.540857,30.741192 30.469859,6.7663692 65.972162,6.766371 Z"
       id="path1"
       style="fill:#8ed65c;fill-opacity:1;stroke-width:0.98505"
       sodipodi:nodetypes="sssssscscs" /></g></svg>
