<?xml version="1.0" encoding="UTF-8" standalone="no"?>
<!-- Created with Inkscape (http://www.inkscape.org/) -->

<svg
   width="512"
   height="512"
   viewBox="0 0 135.46666 135.46667"
   version="1.1"
   id="svg1"
   inkscape:version="1.3.2 (091e20e, 2023-11-25, custom)"
   sodipodi:docname="KWD_KIT_StaffWard.svg"
   xmlns:inkscape="http://www.inkscape.org/namespaces/inkscape"
   xmlns:sodipodi="http://sodipodi.sourceforge.net/DTD/sodipodi-0.dtd"
   xmlns="http://www.w3.org/2000/svg"
   xmlns:svg="http://www.w3.org/2000/svg">
  <sodipodi:namedview
     id="namedview1"
     pagecolor="#ffffff"
     bordercolor="#000000"
     borderopacity="0.25"
     inkscape:showpageshadow="2"
     inkscape:pageopacity="0.0"
     inkscape:pagecheckerboard="0"
     inkscape:deskcolor="#d1d1d1"
     inkscape:document-units="px"
     showgrid="true"
     inkscape:zoom="1"
     inkscape:cx="229"
     inkscape:cy="154.5"
     inkscape:window-width="1920"
     inkscape:window-height="1017"
     inkscape:window-x="1042"
     inkscape:window-y="276"
     inkscape:window-maximized="1"
     inkscape:current-layer="svg1">
    <inkscape:grid
       id="grid1"
       units="px"
       originx="0"
       originy="0"
       spacingx="0.26458332"
       spacingy="0.26458334"
       empcolor="#0099e5"
       empopacity="0.30196078"
       color="#0099e5"
       opacity="0.14901961"
       empspacing="5"
       dotted="false"
       gridanglex="30"
       gridanglez="30"
       visible="true" />
  </sodipodi:namedview>
  <defs
     id="defs1" />
  <g
     id="g21"
     transform="matrix(0.79329369,-0.79329369,0.79329369,0.79329369,-34.690831,72.571805)">
    <ellipse
       style="fill:#a3c5f5;stroke-width:0.264583;fill-opacity:1"
       id="path12"
       cx="67.46875"
       cy="-3.4854465"
       rx="13.890625"
       ry="14.552084" />
    <path
       id="rect13"
       style="fill:#a3abc2;stroke-width:0.153129;fill-opacity:1"
       d="m 67.073032,-18.25334 c -7.5527,0.169455 -14.945034,6.939523 -15.479161,22.2221886 1.189749,8.8970904 4.786605,14.2126454 9.286575,22.5506114 0.371168,2.993154 -1.007693,8.374108 -1.942898,10.522421 1.191905,0.359724 1.879451,1.002482 2.299419,1.823597 l 0.0023,-0.0018 11.529338,14.206466 c 0.06752,-3.273139 0.149488,-6.545232 0.260711,-9.815368 0.118304,-3.478329 -0.233995,-5.662413 2.831896,-6.134087 C 74.876164,34.857825 73.603304,29.805131 74.134348,26.561837 77.826133,19.505001 81.45923,15.049343 83.343539,6.6146543 85.536913,-9.0479835 76.188359,-18.457855 67.073032,-18.25334 Z m 1.117466,0.77937 c 6.676861,-0.08602 19.815079,11.1497128 8.995923,23.5754928 -3.411594,0.7800229 -7.086103,0.9709405 -11.714507,-0.9760555 -3.152148,-7.5316353 -2.13745,-14.6262698 0.330265,-22.0913723 0.690246,-0.348703 1.498781,-0.496606 2.388319,-0.508065 z m -6.013404,0.805166 C 59.136712,-9.5476677 58.680557,-2.4916009 61.42536,4.7878323 59.256695,5.4014259 57.271245,5.6842479 56.181193,4.3511638 54.769036,-1.0489049 54.678682,-10.312815 62.177094,-16.668804 Z m -0.254263,60.866428 c 0.346009,17.294083 0.514513,48.906859 0.514513,84.303736 l -1.455561,11.76379 h 13.237319 l -1.719036,-11.76379 c 0.351489,-23.66922 -0.171342,-47.380674 0.197145,-71.028645 z" />
  </g>
  <path
     id="path135"
     style="fill:#a3c5f5;fill-opacity:1;stroke-width:0.0548246"
     d="m 101.51579,0.44796976 c -1.37004,1.80886804 -3.674322,2.79476084 -6.912978,2.95751804 -1.524558,0.047384 -2.07568,0.8137927 -1.653336,2.2992082 -1.988103,0.651027 -2.819289,1.806808 -2.493773,3.467343 1.26085,-1.030109 2.512251,-1.388637 3.754559,-1.075486 -0.541835,0.395564 -0.897039,0.859208 -1.065973,1.390743 2.593808,-0.02679 4.48405,0.205906 5.670731,0.698295 1.86037,1.267777 2.01932,3.090769 0.486176,4.971241 -1.416146,0.226793 -2.610597,-0.32735 -2.893981,-0.866344 -0.09686,-0.182747 -0.0053,-0.498039 0.274299,-0.945771 0.286913,-0.297879 0.242113,-0.462423 -0.134345,-0.493489 -3.817593,-0.08589 -7.663493,0.374536 -11.537737,1.381475 -6.781748,1.491218 -10.441322,1.158663 -13.55899,-2.030277 1.809198,8.470335 7.393005,11.334884 19.331882,9.626199 -2.026669,1.549698 -5.837905,2.324565 -11.433625,2.324565 2.039459,5.279566 6.874089,6.616546 14.503785,4.01057 -0.846117,1.480251 -2.679901,2.612162 -5.50152,3.396148 2.015704,2.227689 4.75594,3.114124 8.220823,2.659087 0.288748,-0.895463 0.859891,-1.737956 1.713316,-2.527425 -0.997799,1.747064 -0.494282,3.635776 1.510463,5.666098 1.997414,1.997428 2.920224,4.401501 2.768544,7.212151 1.03069,-0.493417 1.5497,-1.539639 1.55702,-3.138675 1.71782,1.26461 1.96183,2.957774 0.73194,5.07947 l -0.0139,0.101429 c -2.03763,3.15239 -2.49634,5.719904 -1.3761,7.702715 0.49341,-2.037633 2.34575,-5.634155 5.55661,-10.789456 2.01571,-4.038714 1.76608,-7.915624 -0.74852,-11.630873 0.84612,0.718196 1.50039,1.493064 1.96274,2.324566 3.46488,0.455037 6.2017,-0.431397 8.2101,-2.659087 -3.24376,-0.720024 -5.08231,-1.851934 -5.51542,-3.396148 7.63701,2.605976 12.47786,1.268997 14.52281,-4.01057 -5.59756,0 -9.40684,-0.774867 -11.42802,-2.324565 11.93887,1.708685 17.38292,-0.87072 18.91251,-8.770883 -2.84537,2.618768 -6.36494,2.666179 -13.13937,1.174961 -3.90714,-1.023385 -7.78515,-1.483814 -11.6338,-1.381475 -0.60673,-0.01279 -0.60673,0.246717 0,0.778512 0.28508,0.319808 0.35356,0.624118 0.20553,0.912856 -0.58612,0.755868 -1.85912,1.281952 -3.71082,1.009468 1.12121,-1.871464 0.99733,-4.198346 -0.37328,-6.485111 0.46766,-0.432646 1.24753,-0.397608 2.33944,0.105086 -0.64897,-1.62139 -2.08173,-2.644295 -4.29853,-3.0687 0.83851,-1.184624 2.19083,-1.615204 4.05739,-1.29175 -1.89334,-1.6131469 -4.36245,-2.0097993 -7.40745,-1.1898337 0.74993,-1.178443 0.93017,-2.2363877 0.5408,-3.17378554 z M 97.26214,4.744294 c 0.461134,0.0099 0.965401,0.113705 1.51265,0.311357 -1.071318,1.701737 -2.381564,2.030287 -3.930843,0.985758 0.597721,-0.886665 1.403697,-1.31898 2.418193,-1.297115 z m 5.80351,27.846479 c 4.96157,3.218178 6.57528,6.321072 4.841,9.30899 -5.75836,-3.691494 -7.37205,-6.794388 -4.841,-9.30899 z"
     sodipodi:nodetypes="ccccccccccccccccccccccccccccccccccccccccccccsccsccc" />
</svg>
