<?xml version="1.0" encoding="UTF-8" standalone="no"?>
<svg
   version="1.1"
   id="svg4"
   sodipodi:docname="KWD_KIT_StaffFearType_NormalRune_I.svg"
   width="512"
   height="512"
   inkscape:version="1.3.2 (091e20e, 2023-11-25, custom)"
   xml:space="preserve"
   xmlns:inkscape="http://www.inkscape.org/namespaces/inkscape"
   xmlns:sodipodi="http://sodipodi.sourceforge.net/DTD/sodipodi-0.dtd"
   xmlns="http://www.w3.org/2000/svg"
   xmlns:svg="http://www.w3.org/2000/svg"><defs
     id="defs4"><inkscape:path-effect
       effect="fillet_chamfer"
       id="path-effect19"
       is_visible="true"
       lpeversion="1"
       nodesatellites_param="F,0,0,1,0,0,0,1 @ F,0,0,1,0,0,0,1 @ F,0,0,1,0,0,0,1"
       radius="0"
       unit="px"
       method="auto"
       mode="F"
       chamfer_steps="1"
       flexible="false"
       use_knot_distance="true"
       apply_no_radius="true"
       apply_with_radius="true"
       only_selected="false"
       hide_knots="false" /><inkscape:path-effect
       effect="fillet_chamfer"
       id="path-effect70"
       is_visible="true"
       lpeversion="1"
       nodesatellites_param="F,0,0,1,0,1.3229158,0,1 @ F,0,0,1,0,1.3229161,0,1 @ F,0,0,1,0,0,0,1 @ F,0,0,1,0,0,0,1"
       radius="0"
       unit="px"
       method="auto"
       mode="F"
       chamfer_steps="1"
       flexible="false"
       use_knot_distance="true"
       apply_no_radius="true"
       apply_with_radius="true"
       only_selected="false"
       hide_knots="false" /><inkscape:path-effect
       effect="fillet_chamfer"
       id="path-effect68"
       is_visible="true"
       lpeversion="1"
       nodesatellites_param="F,0,0,1,0,0,0,1 @ F,0,0,1,0,0,0,1 @ F,0,0,1,0,0,0,1 @ F,0,0,1,0,0,0,1"
       radius="0"
       unit="px"
       method="auto"
       mode="F"
       chamfer_steps="1"
       flexible="false"
       use_knot_distance="true"
       apply_no_radius="true"
       apply_with_radius="true"
       only_selected="false"
       hide_knots="false" /><inkscape:path-effect
       effect="fillet_chamfer"
       id="path-effect67"
       is_visible="true"
       lpeversion="1"
       nodesatellites_param="F,0,0,1,0,0,0,1 @ F,0,0,1,0,0,0,1 @ F,0,0,1,0,0,0,1 @ F,0,0,1,0,0,0,1"
       radius="0"
       unit="px"
       method="auto"
       mode="F"
       chamfer_steps="1"
       flexible="false"
       use_knot_distance="true"
       apply_no_radius="true"
       apply_with_radius="true"
       only_selected="false"
       hide_knots="false" /><inkscape:path-effect
       effect="fillet_chamfer"
       id="path-effect65"
       is_visible="true"
       lpeversion="1"
       nodesatellites_param="F,0,0,1,0,0.52916652,0,1 @ F,0,0,1,0,0.52916652,0,1 @ F,0,0,1,0,0.52916652,0,1 @ F,0,0,1,0,0.52916652,0,1"
       radius="0.52916652"
       unit="px"
       method="auto"
       mode="F"
       chamfer_steps="1"
       flexible="false"
       use_knot_distance="true"
       apply_no_radius="true"
       apply_with_radius="true"
       only_selected="false"
       hide_knots="false" /><inkscape:path-effect
       effect="fillet_chamfer"
       id="path-effect63"
       is_visible="true"
       lpeversion="1"
       nodesatellites_param="F,0,0,1,0,0.52916652,0,1 @ F,0,0,1,0,0.52916652,0,1 @ F,0,0,1,0,0.52916652,0,1 @ F,0,0,1,0,0,0,1"
       radius="0.52916652"
       unit="px"
       method="auto"
       mode="F"
       chamfer_steps="1"
       flexible="false"
       use_knot_distance="true"
       apply_no_radius="true"
       apply_with_radius="true"
       only_selected="false"
       hide_knots="false" /><inkscape:path-effect
       effect="mirror_symmetry"
       start_point="36.379876,98.706102"
       end_point="36.379876,129.13318"
       center_point="36.379876,113.91964"
       id="path-effect61"
       is_visible="true"
       lpeversion="1.2"
       lpesatellites=""
       mode="free"
       discard_orig_path="false"
       fuse_paths="false"
       oposite_fuse="false"
       split_items="false"
       split_open="false"
       link_styles="false" /><inkscape:path-effect
       effect="mirror_symmetry"
       start_point="36.379876,98.706104"
       end_point="36.379876,129.13318"
       center_point="36.379876,113.91964"
       id="path-effect57"
       is_visible="true"
       lpeversion="1.2"
       lpesatellites=""
       mode="free"
       discard_orig_path="false"
       fuse_paths="false"
       oposite_fuse="false"
       split_items="false"
       split_open="false"
       link_styles="false" /><inkscape:path-effect
       effect="fillet_chamfer"
       id="path-effect31"
       is_visible="true"
       lpeversion="1"
       nodesatellites_param="F,0,0,1,0,0,0,1 @ F,0,0,1,0,0,0,1 @ F,0,0,1,0,0,0,1 @ F,0,0,1,0,0,0,1 @ F,0,0,1,0,0,0,1 @ F,0,0,1,0,0,0,1 @ F,0,0,1,0,0,0,1 @ F,0,0,1,0,0,0,1"
       radius="0"
       unit="px"
       method="auto"
       mode="F"
       chamfer_steps="1"
       flexible="false"
       use_knot_distance="true"
       apply_no_radius="true"
       apply_with_radius="true"
       only_selected="false"
       hide_knots="false" /><inkscape:perspective
       sodipodi:type="inkscape:persp3d"
       inkscape:vp_x="0 : 42.904881 : 1"
       inkscape:vp_y="0 : 999.99987 : 0"
       inkscape:vp_z="296.99999 : 42.904881 : 1"
       inkscape:persp3d-origin="148.49998 : 7.9048923 : 1"
       id="perspective4" /><inkscape:path-effect
       effect="fillet_chamfer"
       id="path-effect70-7"
       is_visible="true"
       lpeversion="1"
       nodesatellites_param="F,0,0,1,0,1.3229158,0,1 @ F,0,0,1,0,1.3229161,0,1 @ F,0,0,1,0,0,0,1 @ F,0,0,1,0,0,0,1"
       radius="0"
       unit="px"
       method="auto"
       mode="F"
       chamfer_steps="1"
       flexible="false"
       use_knot_distance="true"
       apply_no_radius="true"
       apply_with_radius="true"
       only_selected="false"
       hide_knots="false" /><inkscape:path-effect
       effect="fillet_chamfer"
       id="path-effect68-6"
       is_visible="true"
       lpeversion="1"
       nodesatellites_param="F,0,0,1,0,0,0,1 @ F,0,0,1,0,0,0,1 @ F,0,0,1,0,0,0,1 @ F,0,0,1,0,0,0,1"
       radius="0"
       unit="px"
       method="auto"
       mode="F"
       chamfer_steps="1"
       flexible="false"
       use_knot_distance="true"
       apply_no_radius="true"
       apply_with_radius="true"
       only_selected="false"
       hide_knots="false" /><inkscape:path-effect
       effect="fillet_chamfer"
       id="path-effect67-4"
       is_visible="true"
       lpeversion="1"
       nodesatellites_param="F,0,0,1,0,0,0,1 @ F,0,0,1,0,0,0,1 @ F,0,0,1,0,0,0,1 @ F,0,0,1,0,0,0,1"
       radius="0"
       unit="px"
       method="auto"
       mode="F"
       chamfer_steps="1"
       flexible="false"
       use_knot_distance="true"
       apply_no_radius="true"
       apply_with_radius="true"
       only_selected="false"
       hide_knots="false" /><inkscape:path-effect
       effect="fillet_chamfer"
       id="path-effect65-6"
       is_visible="true"
       lpeversion="1"
       nodesatellites_param="F,0,0,1,0,0.52916652,0,1 @ F,0,0,1,0,0.52916652,0,1 @ F,0,0,1,0,0.52916652,0,1 @ F,0,0,1,0,0.52916652,0,1"
       radius="0.52916652"
       unit="px"
       method="auto"
       mode="F"
       chamfer_steps="1"
       flexible="false"
       use_knot_distance="true"
       apply_no_radius="true"
       apply_with_radius="true"
       only_selected="false"
       hide_knots="false" /><inkscape:path-effect
       effect="fillet_chamfer"
       id="path-effect63-2"
       is_visible="true"
       lpeversion="1"
       nodesatellites_param="F,0,0,1,0,0.52916652,0,1 @ F,0,0,1,0,0.52916652,0,1 @ F,0,0,1,0,0.52916652,0,1 @ F,0,0,1,0,0,0,1"
       radius="0.52916652"
       unit="px"
       method="auto"
       mode="F"
       chamfer_steps="1"
       flexible="false"
       use_knot_distance="true"
       apply_no_radius="true"
       apply_with_radius="true"
       only_selected="false"
       hide_knots="false" /><inkscape:path-effect
       effect="mirror_symmetry"
       start_point="36.379876,98.706102"
       end_point="36.379876,129.13318"
       center_point="36.379876,113.91964"
       id="path-effect61-8"
       is_visible="true"
       lpeversion="1.2"
       lpesatellites=""
       mode="free"
       discard_orig_path="false"
       fuse_paths="false"
       oposite_fuse="false"
       split_items="false"
       split_open="false"
       link_styles="false" /><inkscape:path-effect
       effect="mirror_symmetry"
       start_point="36.379876,98.706104"
       end_point="36.379876,129.13318"
       center_point="36.379876,113.91964"
       id="path-effect57-7"
       is_visible="true"
       lpeversion="1.2"
       lpesatellites=""
       mode="free"
       discard_orig_path="false"
       fuse_paths="false"
       oposite_fuse="false"
       split_items="false"
       split_open="false"
       link_styles="false" /><inkscape:path-effect
       effect="fillet_chamfer"
       id="path-effect31-5"
       is_visible="true"
       lpeversion="1"
       nodesatellites_param="F,0,0,1,0,0,0,1 @ F,0,0,1,0,0,0,1 @ F,0,0,1,0,0,0,1 @ F,0,0,1,0,0,0,1 @ F,0,0,1,0,0,0,1 @ F,0,0,1,0,0,0,1 @ F,0,0,1,0,0,0,1 @ F,0,0,1,0,0,0,1"
       radius="0"
       unit="px"
       method="auto"
       mode="F"
       chamfer_steps="1"
       flexible="false"
       use_knot_distance="true"
       apply_no_radius="true"
       apply_with_radius="true"
       only_selected="false"
       hide_knots="false" /><inkscape:perspective
       sodipodi:type="inkscape:persp3d"
       inkscape:vp_x="0 : 42.904881 : 1"
       inkscape:vp_y="0 : 999.99987 : 0"
       inkscape:vp_z="296.99999 : 42.904881 : 1"
       inkscape:persp3d-origin="148.49998 : 7.9048923 : 1"
       id="perspective4-8" /></defs><sodipodi:namedview
     id="namedview4"
     pagecolor="#ffffff"
     bordercolor="#000000"
     borderopacity="0.25"
     inkscape:showpageshadow="2"
     inkscape:pageopacity="0.0"
     inkscape:pagecheckerboard="0"
     inkscape:deskcolor="#d1d1d1"
     showgrid="true"
     inkscape:zoom="0.5"
     inkscape:cx="124"
     inkscape:cy="-35"
     inkscape:window-width="1920"
     inkscape:window-height="1009"
     inkscape:window-x="1042"
     inkscape:window-y="235"
     inkscape:window-maximized="1"
     inkscape:current-layer="svg4"><inkscape:grid
       id="grid4"
       units="px"
       originx="0"
       originy="0"
       spacingx="1"
       spacingy="1"
       empcolor="#0099e5"
       empopacity="0.30196078"
       color="#0099e5"
       opacity="0.14901961"
       empspacing="5"
       dotted="false"
       gridanglex="30"
       gridanglez="30"
       visible="true" /></sodipodi:namedview><g
     id="g21"
     transform="matrix(0.85650285,-0.85627976,0.85650285,0.85627976,-53.200444,353.70011)"><path
       d="m 269.04335,-95.646888 c 0.79217,-0.921706 1.58496,-0.921299 2.37649,-3.95e-4 l 21.38233,24.846617 c 0.2343,0.271536 0.36327,0.501459 0.39209,0.692992 0.53354,0.735825 0.74094,1.981995 0.74063,3.146139 l 8.70708,60.588826 c -1.54363,12.318473 -6.57655,65.943203 -8.70677,78.218913 0,0.62955 -1.05527,1.45509 -2.49588,1.45468 l -43.15064,-0.13011 c -1.44158,0 -1.9396,-0.69501 -1.93929,-1.32496 -1.88799,-12.32155 -7.29223,-65.88402 -8.70742,-78.218523 l 8.70743,-60.588824 c -1e-5,-1.036867 0.34886,-2.260415 0.91603,-3.116233 0.0188,-0.195983 0.14978,-0.437212 0.39559,-0.722493 z"
       style="fill:#bf4b40"
       id="path14-2"
       sodipodi:nodetypes="ccccccccccccccc"
       transform="translate(-32.641968,-78.627291)" /><path
       id="rect19"
       style="display:inline;fill:#a3abc2;fill-opacity:1;stroke-width:2.00001"
       d="m 237.37202,-66.725463 -8.59189,34.381387 -20.55683,-22.65679 -4.22382,2.000247 0.99266,42.844984 -9.94529,0.2012649 -6.5e-4,4.999242 21.67023,29.9555421 0.0775,57.262452 c 14.29447,-3.077312 27.91961,-2.68065 41.28409,-0.0054 l 0.20789,-57.259261 21.66837,-29.9547364 6.5e-4,-4.9992421 -9.95008,-0.1986735 0.99575,-42.845243 -0.005,0.0032 0.003,-0.0048 -4.22168,-2.00076 -20.5579,22.657307 z M 209.07963,93.526503 c -1.97518,4.209612 -1.80785,7.524597 -0.9998,12.001537 2.81873,1.34092 7.39,0.99889 10.43216,0.99849 l 0.005,74.01781 c -3.0085,-0.0792 -7.62351,0.57726 -10.59207,1.00123 -1.55326,4.09284 -0.30497,8.0801 0.99989,11.99966 19.1249,5.67023 35.5194,6.02343 56.8559,-9.6e-4 1.97518,-4.20959 1.80623,-7.52461 0.99819,-12.00153 -2.95074,-0.4152 -7.5043,-0.99887 -10.48538,-0.99848 l -0.002,-74.01781 c 3.02571,0.0874 7.65684,-0.57311 10.64207,-0.99963 1.58356,-4.46203 0.398,-7.80232 -0.9999,-12.001272 -18.95099,-6.169243 -37.90233,-6.257437 -56.85406,9.55e-4 z m 49.10883,110.244627 c -14.25267,3.29762 -27.94665,3.34538 -41.29216,0.23115 l -0.0661,160.5934 -10.10235,5.00056 -7.3e-4,17.99889 5.00085,9.6e-4 -0.001,9.00025 51.5696,-2.7e-4 -4.4e-4,-9.00025 5.00086,-6.5e-4 7.3e-4,-18.0005 -10.00106,-4.99955 z"
       sodipodi:nodetypes="cccccccccccccccccccccccccccccccccccccccccccccc" /></g><path
     id="path12-2"
     style="fill:#bf4b40;fill-opacity:1;stroke-width:3.56004"
     d="m 403.26648,3.000204 c -57.84297,-2.1e-4 -104.73457,46.8914 -104.73437,104.734376 2.6e-4,57.84264 46.89172,104.73262 104.73437,104.73242 57.84264,2e-4 104.73412,-46.88978 104.73438,-104.73242 C 508.00106,49.891604 461.10945,3.000004 403.26648,3.000204 Z m 0,8.42773 c 53.1885,2.3e-4 96.30642,43.11814 96.30664,96.306646 -2.3e-4,53.1885 -43.11814,96.30641 -96.30664,96.30664 -53.18851,-2.3e-4 -96.30641,-43.11814 -96.30664,-96.30664 2.3e-4,-53.188506 43.11813,-96.306426 96.30664,-96.306646 z m -11.66016,14.88672 c -12.41565,-0.0618 -24.99543,0.25458 -25.84765,1.45117 -1.97075,2.76706 -0.62127,5.55365 1.78711,10.20704 23.82472,46.033531 31.38861,99.962236 3.67968,147.244136 -1.6826,2.87104 -2.25708,4.88618 -1.85156,6.50195 0.83605,3.33093 4.31842,2.63122 6.26172,-1.25781 15.87077,-26.22616 33.56986,-54.06084 35.7207,-85.50586 0.0168,-4.73981 0.0175,-4.73967 5.96485,1.38281 3.27104,3.36737 6.10652,7.11685 6.90234,7.86523 2.10305,1.97765 1.64716,1.81493 4.77735,-0.20898 24.44502,-15.805635 19.16927,-88.058476 8.75976,-81.624996 -4.25475,2.62959 6.17724,35.91998 -11.6875,49.859381 -2.51231,1.79468 -3.86326,1.68875 -5.80664,-0.22852 -10.04091,-9.905911 -12.19499,-23.178981 -15.21289,-37.357421 -1.30812,-8.07183 13.70725,-13.79933 11.41406,-17.50977 -0.19555,-0.31644 -12.44567,-0.75657 -24.86133,-0.81836 z" /></svg>
