<?xml version="1.0" encoding="UTF-8" standalone="no"?>
<svg
   viewBox="0 0 512 512"
   version="1.1"
   id="svg1"
   sodipodi:docname="KWD_KIT_StaffDamageType_FrostRune_D.svg"
   width="512"
   height="512"
   xml:space="preserve"
   inkscape:version="1.3.2 (091e20e, 2023-11-25, custom)"
   xmlns:inkscape="http://www.inkscape.org/namespaces/inkscape"
   xmlns:sodipodi="http://sodipodi.sourceforge.net/DTD/sodipodi-0.dtd"
   xmlns="http://www.w3.org/2000/svg"
   xmlns:svg="http://www.w3.org/2000/svg"
   xmlns:bx="https://boxy-svg.com"><sodipodi:namedview
     id="namedview1"
     pagecolor="#ffffff"
     bordercolor="#000000"
     borderopacity="0.25"
     inkscape:showpageshadow="2"
     inkscape:pageopacity="0.0"
     inkscape:pagecheckerboard="0"
     inkscape:deskcolor="#d1d1d1"
     showgrid="false"
     inkscape:zoom="0.70710678"
     inkscape:cx="179.60512"
     inkscape:cy="265.16504"
     inkscape:window-width="1920"
     inkscape:window-height="1009"
     inkscape:window-x="1042"
     inkscape:window-y="235"
     inkscape:window-maximized="1"
     inkscape:current-layer="svg1"><inkscape:grid
       id="grid1"
       units="px"
       originx="0"
       originy="0"
       spacingx="1"
       spacingy="1"
       empcolor="#0099e5"
       empopacity="0.30196078"
       color="#0099e5"
       opacity="0.14901961"
       empspacing="5"
       dotted="false"
       gridanglex="30"
       gridanglez="30"
       visible="false" /></sodipodi:namedview><defs
     id="defs1"><inkscape:path-effect
       effect="fillet_chamfer"
       id="path-effect1"
       is_visible="true"
       lpeversion="1"
       nodesatellites_param="F,0,0,1,0,0,0,1 @ F,0,0,1,0,0,0,1 @ F,0,0,1,0,5,0,1 @ F,0,0,1,0,5,0,1"
       radius="0"
       unit="px"
       method="auto"
       mode="F"
       chamfer_steps="1"
       flexible="false"
       use_knot_distance="true"
       apply_no_radius="true"
       apply_with_radius="true"
       only_selected="false"
       hide_knots="false" /><bx:grid
       x="0"
       y="0"
       width="512"
       height="512" /><bx:grid
       x="0"
       y="0"
       width="512"
       height="512" /><bx:grid
       x="0"
       y="0"
       width="100"
       height="100" /><bx:grid
       x="0"
       y="0"
       width="512"
       height="512" /><bx:grid
       x="0"
       y="0"
       width="512"
       height="512" /><bx:grid
       x="0"
       y="0"
       width="512"
       height="512" /><bx:grid
       x="0"
       y="0"
       width="512"
       height="512" /><bx:grid
       x="0"
       y="0"
       width="512"
       height="512" /><bx:grid
       x="0"
       y="0"
       width="512"
       height="512" /><bx:grid
       x="0"
       y="0"
       width="512"
       height="512" /><bx:grid
       x="0"
       y="0"
       width="100"
       height="100" /><bx:grid
       x="0"
       y="0"
       width="512"
       height="512" /><bx:grid
       x="0"
       y="0"
       width="512"
       height="512" /><bx:grid
       x="0"
       y="0"
       width="512"
       height="512" /><bx:grid
       x="0"
       y="0"
       width="512"
       height="512" /><bx:grid
       x="0"
       y="0"
       width="512"
       height="512" /><bx:grid
       x="0"
       y="0"
       width="512"
       height="512" /><bx:grid
       x="0"
       y="0"
       width="512"
       height="512" /><bx:grid
       x="0"
       y="0"
       width="512"
       height="512" /><bx:grid
       x="0"
       y="0"
       width="512"
       height="512" /><bx:grid
       x="0"
       y="0"
       width="512"
       height="512" /><bx:grid
       x="0"
       y="0"
       width="512"
       height="512" /><bx:grid
       x="0"
       y="0"
       width="512"
       height="512" /><bx:grid
       x="0"
       y="0"
       width="512"
       height="512" /><bx:grid
       x="0"
       y="0"
       width="512"
       height="512" /><bx:grid
       x="0"
       y="0"
       width="512"
       height="512" /><bx:grid
       x="0"
       y="0"
       width="100"
       height="100" /><bx:grid
       x="0"
       y="0"
       width="100"
       height="100" /><bx:grid
       x="0"
       y="0"
       width="100"
       height="100" /><bx:grid
       x="0"
       y="0"
       width="100"
       height="100" /><bx:grid
       x="0"
       y="0"
       width="100"
       height="100" /><bx:grid
       x="0"
       y="0"
       width="512"
       height="512" /><bx:grid
       x="0"
       y="0"
       width="512"
       height="512" /><bx:grid
       x="0"
       y="0"
       width="512"
       height="512" /><bx:grid
       x="0"
       y="0"
       width="512"
       height="512" /><bx:grid
       x="0"
       y="0"
       width="512"
       height="512" /><bx:grid
       x="0"
       y="0"
       width="512"
       height="512" /><bx:grid
       x="0"
       y="0"
       width="512"
       height="512" /><bx:grid
       x="0"
       y="0"
       width="512"
       height="512" /><bx:grid
       x="0"
       y="0"
       width="512"
       height="512" /><bx:grid
       x="0"
       y="0"
       width="512"
       height="512" /><bx:grid
       x="0"
       y="0"
       width="512"
       height="512" /><bx:grid
       x="0"
       y="0"
       width="512"
       height="512" /><bx:grid
       x="0"
       y="0"
       width="512"
       height="512" /><bx:grid
       x="0"
       y="0"
       width="512"
       height="512" /><bx:grid
       x="0"
       y="0"
       width="512"
       height="512" /><bx:grid
       x="0"
       y="0"
       width="512"
       height="512" /><bx:grid
       x="0"
       y="0"
       width="512"
       height="512" /><bx:grid
       x="0"
       y="0"
       width="512"
       height="512" /><bx:grid
       x="0"
       y="0"
       width="512"
       height="512" /><bx:grid
       x="0"
       y="0"
       width="512"
       height="512" /><bx:grid
       x="0"
       y="0"
       width="512"
       height="512" /><bx:grid
       x="0"
       y="0"
       width="512"
       height="512" /><bx:grid
       x="0"
       y="0"
       width="512"
       height="512" /><bx:grid
       x="0"
       y="0"
       width="512"
       height="512" /><bx:grid
       x="0"
       y="0"
       width="512"
       height="512" /><bx:grid
       x="0"
       y="0"
       width="512"
       height="512" /><bx:grid
       x="0"
       y="0"
       width="512"
       height="512" /><bx:grid
       x="0"
       y="0"
       width="512"
       height="512" /><bx:grid
       x="0"
       y="0"
       width="512"
       height="512" /><bx:grid
       x="0"
       y="0"
       width="512"
       height="512" /><bx:grid
       x="0"
       y="0"
       width="512"
       height="512" /><bx:grid
       x="0"
       y="0"
       width="512"
       height="512" /><bx:grid
       x="0"
       y="0"
       width="512"
       height="512" /><bx:grid
       x="0"
       y="0"
       width="512"
       height="512" /><bx:grid
       x="0"
       y="0"
       width="512"
       height="512" /><bx:grid
       x="0"
       y="0"
       width="512"
       height="512" /><bx:grid
       x="0"
       y="0"
       width="512"
       height="512" /><bx:grid
       x="0"
       y="0"
       width="512"
       height="512" /><bx:grid
       x="0"
       y="0"
       width="512"
       height="512" /><bx:grid
       x="0"
       y="0"
       width="512"
       height="512" /><bx:grid
       x="0"
       y="0"
       width="512"
       height="512" /><bx:grid
       x="0"
       y="0"
       width="512"
       height="512" /><bx:grid
       x="0"
       y="0"
       width="512"
       height="512" /><bx:grid
       x="0"
       y="0"
       width="512"
       height="512" /><bx:grid
       x="0"
       y="0"
       width="512"
       height="512" /><bx:grid
       x="0"
       y="0"
       width="512"
       height="512" /><bx:grid
       x="0"
       y="0"
       width="512"
       height="512" /><bx:grid
       x="0"
       y="0"
       width="512"
       height="512" /><bx:grid
       x="0"
       y="0"
       width="512"
       height="512" /><bx:grid
       x="0"
       y="0"
       width="512"
       height="512" /><bx:grid
       x="0"
       y="0"
       width="512"
       height="512" /><bx:grid
       x="0"
       y="0"
       width="512"
       height="512" /><bx:grid
       x="0"
       y="0"
       width="512"
       height="512" /></defs><path
     id="path1-7"
     style="fill:#a3e5f5;fill-opacity:1;stroke-width:0.499553"
     d="M 106.3125 296.17383 C 48.469527 296.17363 1.577925 343.06524 1.578125 400.9082 C 1.578395 458.75086 48.469852 505.64082 106.3125 505.64062 C 164.15514 505.64082 211.04662 458.75085 211.04688 400.9082 C 211.04708 343.06524 164.15547 296.17364 106.3125 296.17383 z M 106.3125 304.60156 C 159.501 304.60179 202.61891 347.71969 202.61914 400.9082 C 202.6189 454.09671 159.501 497.21461 106.3125 497.21484 C 53.12399 497.21461 10.006089 454.09671 10.005859 400.9082 C 10.006089 347.71969 53.12399 304.60179 106.3125 304.60156 z M 125.60742 318.07031 C 117.09252 317.86575 107.96511 318.64146 103.94141 318.62109 C 94.717524 318.43287 85.531181 318.75325 76.402344 320.01172 L 79.984375 322.32812 C 81.95457 323.60203 84.771872 325.18872 86.244141 325.85352 C 87.945433 326.62175 89.619369 328.50938 90.837891 331.0332 C 93.069311 335.65486 94.760479 337.31031 100.10742 340.10156 C 106.90913 343.65231 111.36099 351.69809 115.0625 358.75586 C 116.65874 361.79947 119.60278 366.74456 118.01367 368.63477 C 110.99424 372.51297 97.49536 364.89218 90.150391 363.24219 C 81.259014 361.44375 75.924267 360.81469 66.773438 360.48047 C 60.985922 360.26907 56.270705 360.41932 56.291016 360.8125 C 56.359696 362.141 88.6041 387.84365 92.087891 392.5 C 99.322382 402.1694 147.80006 452.42652 122.51953 492.01172 L 124.69531 490.48047 C 135.99669 480.33812 136.07147 453.67869 134.87109 450.375 C 126.0864 426.19767 112.30928 405.16478 99.175781 383.63086 C 95.545007 377.73114 95.25478 375.66409 97.910156 374.6582 C 102.82196 372.79752 121.78106 387.76443 124.01562 389.84766 L 128.79297 394.30078 C 129.44149 374.5585 126.30015 353.96563 112.50391 338.74609 C 106.08448 334.23434 105.92426 329.25781 112.19922 329.25781 C 144.25045 330.51833 150.31041 346.42794 150.28711 349.79102 C 150.26871 352.45549 150.92335 352.74325 151.29883 352.48047 C 152.88308 350.91657 150.73734 339.02496 147.70508 332.56055 C 146.2824 329.52756 144.43103 325.41013 143.58984 323.4082 C 142.02388 319.46057 134.12234 318.27487 125.60742 318.07031 z " /><path
     d="m 4.4868051,0 c -0.32386,0.01 -0.47982,0.006 -0.58593,0.12305 l -0.002,0.002 v 0.0117 c -0.10578,0.11481 -0.15346,0.33847 -0.25196,0.79492 -0.69453,13.56513 -3.36263999,28.08835 -3.62499999,41.15039 -0.16516,1.42797 0.61209,4.7318 2.03124999,5.01367 l 16.4531199,2.5586 c 0.3178,-10.24254 -9.6598599,-23.3302 2.29106,-26.70708 l 19.86914,5.38476 20.666025,4.64258 10.47655,8.07813 -3.43554,14.00976 -18.54101,0.43164 c -0.99665,0.67992 -1.02963,1.04807 -1.1504,1.71094 -0.58203,0.83732 29.60757,20.110718 30.54492,20.220698 l 25.26563,3.01368 c 0.93637,0.10966 1.2326,-0.31082 0.88086,-1.25782 l -3.39844,-11.677728 12.3711,0.15234 c 25.76834,7.15013 36.9743,20.052588 30.77931,49.26954 -11.96921,56.44934 40.65653,113.41296 68.39453,116.91406 5.69115,-23.24881 37.6255,-22.53114 50.61131,21.78711 -2.66313,12.92607 -5.65879,27.30129 6.79102,40.56054 7.80674,8.31435 13.75691,9.03291 23.92969,8.81836 l 0.58008,0.65235 -0.41016,-0.64844 20.07616,-45.08594 C 303.35542,212.00883 289.44667,165.37439 212.94773,168.61524 195.35105,152.30911 193.5931,147.3238 192.41844,131.63672 l 26.18554,5.6211 c -7.64365,-37.479292 2.1943,-95.67736 -79.80664,-110.65821 0.0435,-0.23816 0.0677,-0.47965 0.0527,-0.72461 l -0.42578,-8.44921 c -0.0866,-1.68382 -1.56256,-2.79195 -3.28906,-2.47266 l -29.39255,5.43555 -14.32031,-2.85157 c -0.0381,-0.0621 -0.0859,-0.12584 -0.16992,-0.20507 L 77.66648,4.70508 C 77.28786,4.35416 76.85791,4.25169 76.38133,4.38086 76.22237,4.42356 76.0629,4.48917 75.89305,4.58594 L 63.00243,11.88282 15.760245,2.48438 c -0.0561,-0.009 -0.10845,0.004 -0.16406,-0.002 z m 325.2070249,276.23829 -21.02929,44.3125 167.62634,189.43732 c 10.79047,10.08177 44.31656,-22.34205 33.64514,-32.28498 z"
     fill="#a2a3c1"
     stroke-width="0.770254"
     id="path3-6-5"
     sodipodi:nodetypes="ccccccccccccccccccccsccscccccccccccccccccccccccccc"
     style="fill:#a3abc2" /></svg>
