<?xml version="1.0" encoding="UTF-8" standalone="no"?>
<svg
   viewBox="0 0 512 512"
   version="1.1"
   id="svg1"
   sodipodi:docname="KWD_KIT_StaffDamageType_ShadowRune_D.svg"
   width="512"
   height="512"
   xml:space="preserve"
   inkscape:version="1.3.2 (091e20e, 2023-11-25, custom)"
   xmlns:inkscape="http://www.inkscape.org/namespaces/inkscape"
   xmlns:sodipodi="http://sodipodi.sourceforge.net/DTD/sodipodi-0.dtd"
   xmlns="http://www.w3.org/2000/svg"
   xmlns:svg="http://www.w3.org/2000/svg"
   xmlns:bx="https://boxy-svg.com"><sodipodi:namedview
     id="namedview1"
     pagecolor="#ffffff"
     bordercolor="#000000"
     borderopacity="0.25"
     inkscape:showpageshadow="2"
     inkscape:pageopacity="0.0"
     inkscape:pagecheckerboard="0"
     inkscape:deskcolor="#d1d1d1"
     showgrid="true"
     inkscape:zoom="1.4142136"
     inkscape:cx="209.3036"
     inkscape:cy="300.87393"
     inkscape:window-width="1920"
     inkscape:window-height="1009"
     inkscape:window-x="1042"
     inkscape:window-y="235"
     inkscape:window-maximized="1"
     inkscape:current-layer="svg1"><inkscape:grid
       id="grid1"
       units="px"
       originx="0"
       originy="0"
       spacingx="1"
       spacingy="1"
       empcolor="#0099e5"
       empopacity="0.30196078"
       color="#0099e5"
       opacity="0.14901961"
       empspacing="5"
       dotted="false"
       gridanglex="30"
       gridanglez="30"
       visible="true" /></sodipodi:namedview><defs
     id="defs1"><inkscape:path-effect
       effect="fillet_chamfer"
       id="path-effect1"
       is_visible="true"
       lpeversion="1"
       nodesatellites_param="F,0,0,1,0,0,0,1 @ F,0,0,1,0,0,0,1 @ F,0,0,1,0,5,0,1 @ F,0,0,1,0,5,0,1"
       radius="0"
       unit="px"
       method="auto"
       mode="F"
       chamfer_steps="1"
       flexible="false"
       use_knot_distance="true"
       apply_no_radius="true"
       apply_with_radius="true"
       only_selected="false"
       hide_knots="false" /><bx:grid
       x="0"
       y="0"
       width="512"
       height="512" /><bx:grid
       x="0"
       y="0"
       width="512"
       height="512" /><bx:grid
       x="0"
       y="0"
       width="100"
       height="100" /><bx:grid
       x="0"
       y="0"
       width="512"
       height="512" /><bx:grid
       x="0"
       y="0"
       width="512"
       height="512" /><bx:grid
       x="0"
       y="0"
       width="512"
       height="512" /><bx:grid
       x="0"
       y="0"
       width="512"
       height="512" /><bx:grid
       x="0"
       y="0"
       width="512"
       height="512" /><bx:grid
       x="0"
       y="0"
       width="512"
       height="512" /><bx:grid
       x="0"
       y="0"
       width="512"
       height="512" /><bx:grid
       x="0"
       y="0"
       width="100"
       height="100" /><bx:grid
       x="0"
       y="0"
       width="512"
       height="512" /><bx:grid
       x="0"
       y="0"
       width="512"
       height="512" /><bx:grid
       x="0"
       y="0"
       width="512"
       height="512" /><bx:grid
       x="0"
       y="0"
       width="512"
       height="512" /><bx:grid
       x="0"
       y="0"
       width="512"
       height="512" /><bx:grid
       x="0"
       y="0"
       width="512"
       height="512" /><bx:grid
       x="0"
       y="0"
       width="512"
       height="512" /><bx:grid
       x="0"
       y="0"
       width="512"
       height="512" /><bx:grid
       x="0"
       y="0"
       width="512"
       height="512" /><bx:grid
       x="0"
       y="0"
       width="512"
       height="512" /><bx:grid
       x="0"
       y="0"
       width="512"
       height="512" /><bx:grid
       x="0"
       y="0"
       width="512"
       height="512" /><bx:grid
       x="0"
       y="0"
       width="512"
       height="512" /><bx:grid
       x="0"
       y="0"
       width="512"
       height="512" /><bx:grid
       x="0"
       y="0"
       width="512"
       height="512" /><bx:grid
       x="0"
       y="0"
       width="100"
       height="100" /><bx:grid
       x="0"
       y="0"
       width="100"
       height="100" /><bx:grid
       x="0"
       y="0"
       width="100"
       height="100" /><bx:grid
       x="0"
       y="0"
       width="100"
       height="100" /><bx:grid
       x="0"
       y="0"
       width="100"
       height="100" /><bx:grid
       x="0"
       y="0"
       width="512"
       height="512" /><bx:grid
       x="0"
       y="0"
       width="512"
       height="512" /><bx:grid
       x="0"
       y="0"
       width="512"
       height="512" /><bx:grid
       x="0"
       y="0"
       width="512"
       height="512" /><bx:grid
       x="0"
       y="0"
       width="512"
       height="512" /><bx:grid
       x="0"
       y="0"
       width="512"
       height="512" /><bx:grid
       x="0"
       y="0"
       width="512"
       height="512" /><bx:grid
       x="0"
       y="0"
       width="512"
       height="512" /><bx:grid
       x="0"
       y="0"
       width="512"
       height="512" /><bx:grid
       x="0"
       y="0"
       width="512"
       height="512" /><bx:grid
       x="0"
       y="0"
       width="512"
       height="512" /><bx:grid
       x="0"
       y="0"
       width="512"
       height="512" /><bx:grid
       x="0"
       y="0"
       width="512"
       height="512" /><bx:grid
       x="0"
       y="0"
       width="512"
       height="512" /><bx:grid
       x="0"
       y="0"
       width="512"
       height="512" /><bx:grid
       x="0"
       y="0"
       width="512"
       height="512" /><bx:grid
       x="0"
       y="0"
       width="512"
       height="512" /><bx:grid
       x="0"
       y="0"
       width="512"
       height="512" /><bx:grid
       x="0"
       y="0"
       width="512"
       height="512" /><bx:grid
       x="0"
       y="0"
       width="512"
       height="512" /><bx:grid
       x="0"
       y="0"
       width="512"
       height="512" /><bx:grid
       x="0"
       y="0"
       width="512"
       height="512" /><bx:grid
       x="0"
       y="0"
       width="512"
       height="512" /><bx:grid
       x="0"
       y="0"
       width="512"
       height="512" /><bx:grid
       x="0"
       y="0"
       width="512"
       height="512" /><bx:grid
       x="0"
       y="0"
       width="512"
       height="512" /><bx:grid
       x="0"
       y="0"
       width="512"
       height="512" /><bx:grid
       x="0"
       y="0"
       width="512"
       height="512" /><bx:grid
       x="0"
       y="0"
       width="512"
       height="512" /><bx:grid
       x="0"
       y="0"
       width="512"
       height="512" /><bx:grid
       x="0"
       y="0"
       width="512"
       height="512" /><bx:grid
       x="0"
       y="0"
       width="512"
       height="512" /><bx:grid
       x="0"
       y="0"
       width="512"
       height="512" /><bx:grid
       x="0"
       y="0"
       width="512"
       height="512" /><bx:grid
       x="0"
       y="0"
       width="512"
       height="512" /><bx:grid
       x="0"
       y="0"
       width="512"
       height="512" /><bx:grid
       x="0"
       y="0"
       width="512"
       height="512" /><bx:grid
       x="0"
       y="0"
       width="512"
       height="512" /><bx:grid
       x="0"
       y="0"
       width="512"
       height="512" /><bx:grid
       x="0"
       y="0"
       width="512"
       height="512" /><bx:grid
       x="0"
       y="0"
       width="512"
       height="512" /><bx:grid
       x="0"
       y="0"
       width="512"
       height="512" /><bx:grid
       x="0"
       y="0"
       width="512"
       height="512" /><bx:grid
       x="0"
       y="0"
       width="512"
       height="512" /><bx:grid
       x="0"
       y="0"
       width="512"
       height="512" /><bx:grid
       x="0"
       y="0"
       width="512"
       height="512" /><bx:grid
       x="0"
       y="0"
       width="512"
       height="512" /><bx:grid
       x="0"
       y="0"
       width="512"
       height="512" /><bx:grid
       x="0"
       y="0"
       width="512"
       height="512" /><bx:grid
       x="0"
       y="0"
       width="512"
       height="512" /><bx:grid
       x="0"
       y="0"
       width="512"
       height="512" /><bx:grid
       x="0"
       y="0"
       width="512"
       height="512" /><bx:grid
       x="0"
       y="0"
       width="512"
       height="512" /></defs><path
     d="m 4.4806455,0.09189325 c -0.32386,0.01 -0.47982,0.006 -0.58593,0.12305 l -0.002,0.002 v 0.0117 c -0.10578,0.11481 -0.15346,0.33847 -0.25196,0.79492005 -0.69453,13.5651297 -3.36264004,28.0883497 -3.62500004,41.1503927 -0.16516,1.427967 0.61209,4.731793 2.03125004,5.013672 L 18.500125,49.74622 c 0.3178,-10.242537 -9.6598595,-23.330197 2.29107,-26.707077 l 19.86914,5.38476 20.66602,4.64258 10.47655,8.078127 -3.43554,14.009766 -18.54101,0.43164 c -0.99665,0.679918 -1.02963,1.048063 -1.1504,1.710938 -0.58203,0.837318 29.60757,20.110719 30.54492,20.220703 l 25.265625,3.013672 c 0.93637,0.109662 1.2326,-0.310817 0.88086,-1.257813 l -3.39844,-11.677734 12.3711,0.152344 c 25.76834,7.150132 36.9743,20.052588 30.77931,49.269534 -11.96921,56.44934 40.65653,113.41296 68.39453,116.91406 5.69115,-23.24881 37.6255,-22.53114 50.61131,21.78711 -2.66313,12.92607 -5.65879,27.30129 6.79102,40.56054 7.80674,8.31435 13.75691,9.03291 23.92969,8.81836 l 0.58008,0.65235 -0.41016,-0.64844 20.07616,-45.08594 C 303.34926,212.10072 289.44051,165.46628 212.94157,168.70713 195.34489,152.401 193.58694,147.41569 192.41228,131.72861 l 26.18554,5.6211 c -7.64365,-37.479287 2.1943,-95.677354 -79.80664,-110.658207 0.0435,-0.23816 0.0677,-0.47965 0.0527,-0.72461 l -0.42578,-8.44921 c -0.0866,-1.68382 -1.56256,-2.79195 -3.28906,-2.47266 l -29.39255,5.43555 -14.320305,-2.85157 c -0.0381,-0.0621 -0.0859,-0.12584 -0.16992,-0.20507 L 77.660325,4.7969733 c -0.37862,-0.35092 -0.80857,-0.45339 -1.28515,-0.32422 -0.15896,0.0427 -0.31843,0.10831 -0.48828,0.20508 L 62.996275,11.974713 15.754085,2.5762733 c -0.0561,-0.009 -0.10845,0.004 -0.16406,-0.002 z M 329.68767,276.33018 308.65838,320.64268 476.28472,510.08 c 10.79047,10.08177 44.31656,-22.34205 33.64514,-32.28498 z"
     fill="#a2a3c1"
     stroke-width="0.770254"
     id="path3-6"
     sodipodi:nodetypes="ccccccccccccccccccccsccscccccccccccccccccccccccccc"
     style="fill:#a3abc2" /><path
     id="path12"
     style="fill:#6a55d5;fill-opacity:1;stroke-width:3.56004"
     d="M 106 296 C 48.157026 295.99979 1.2654279 342.8914 1.265625 400.73438 C 1.2658905 458.57702 48.157352 505.467 106 505.4668 C 163.84264 505.467 210.73412 458.57702 210.73438 400.73438 C 210.73458 342.8914 163.84297 295.9998 106 296 z M 106 304.42773 C 159.1885 304.42796 202.30642 347.54587 202.30664 400.73438 C 202.30641 453.92288 159.1885 497.04079 106 497.04102 C 52.81149 497.04079 9.6935906 453.92288 9.6933594 400.73438 C 9.6935864 347.54587 52.81149 304.42795 106 304.42773 z M 94.339844 319.31445 C 81.924188 319.25267 69.34441 319.56903 68.492188 320.76562 C 66.521442 323.53268 67.870919 326.31927 70.279297 330.97266 C 94.104021 377.00619 101.66791 430.9349 73.958984 478.2168 C 72.276376 481.08784 71.701904 483.10298 72.107422 484.71875 C 72.943469 488.04968 76.425838 487.34997 78.369141 483.46094 C 94.239905 457.23478 111.939 429.4001 114.08984 397.95508 C 114.1066 393.21527 114.10729 393.21541 120.05469 399.33789 C 123.32573 402.70526 126.16121 406.45474 126.95703 407.20312 C 129.06008 409.18077 128.60419 409.01805 131.73438 406.99414 C 156.1794 391.1885 150.90365 318.93566 140.49414 325.36914 C 136.23939 327.99873 146.67138 361.28912 128.80664 375.22852 C 126.29433 377.0232 124.94338 376.91727 123 375 C 112.95909 365.09409 110.80501 351.82102 107.78711 337.64258 C 106.47899 329.57075 121.49436 323.84325 119.20117 320.13281 C 119.00562 319.81637 106.7555 319.37624 94.339844 319.31445 z "
     transform="translate(0)" /></svg>
