<?xml version="1.0" encoding="UTF-8" standalone="no"?>
<!-- Created with Inkscape (http://www.inkscape.org/) -->

<svg
   width="512"
   height="512"
   viewBox="0 0 135.46666 135.46667"
   version="1.1"
   id="svg1"
   inkscape:version="1.3.2 (091e20e, 2023-11-25, custom)"
   sodipodi:docname="KWD_KIT_WheelerStaffFallbackIconAlter.svg"
   xmlns:inkscape="http://www.inkscape.org/namespaces/inkscape"
   xmlns:sodipodi="http://sodipodi.sourceforge.net/DTD/sodipodi-0.dtd"
   xmlns="http://www.w3.org/2000/svg"
   xmlns:svg="http://www.w3.org/2000/svg">
  <sodipodi:namedview
     id="namedview1"
     pagecolor="#ffffff"
     bordercolor="#000000"
     borderopacity="0.25"
     inkscape:showpageshadow="2"
     inkscape:pageopacity="0.0"
     inkscape:pagecheckerboard="0"
     inkscape:deskcolor="#d1d1d1"
     inkscape:document-units="px"
     showgrid="false"
     inkscape:zoom="0.7964015"
     inkscape:cx="217.22711"
     inkscape:cy="160.09513"
     inkscape:window-width="1920"
     inkscape:window-height="1017"
     inkscape:window-x="1042"
     inkscape:window-y="276"
     inkscape:window-maximized="1"
     inkscape:current-layer="svg1">
    <inkscape:grid
       id="grid1"
       units="px"
       originx="0"
       originy="0"
       spacingx="0.26458332"
       spacingy="0.26458334"
       empcolor="#0099e5"
       empopacity="0.30196078"
       color="#0099e5"
       opacity="0.14901961"
       empspacing="5"
       dotted="false"
       gridanglex="30"
       gridanglez="30"
       visible="false" />
  </sodipodi:namedview>
  <defs
     id="defs1" />
  <g
     id="g3"
     transform="matrix(0.87445895,-0.87445895,0.87445895,0.87445895,-11.361987,99.558976)">
    <g
       id="g8">
      <path
         d="m 67.96786,-13.234365 c 0.156713,-0.144427 0.313549,-0.144365 0.470134,-6.4e-5 l 4.230007,3.8934099 c 0.04637,0.042529 0.07185,0.078593 0.07756,0.1085908 0.105551,0.1153006 0.14658,0.3105741 0.146517,0.4929921 l 1.217791,15.9622183 c -6.3e-5,0.059963 -0.01051,0.1173914 -0.02969,0.1710213 0.01918,0.018426 0.02963,0.038752 0.02963,0.059518 l -1.217663,5.5580966 c 0,0.09865 -0.20876,0.228006 -0.493752,0.227944 l -8.536373,-0.02039 c -0.285183,0 -0.383705,-0.108908 -0.383642,-0.207619 L 62.260521,7.4533215 c 5e-6,-0.020768 0.01045,-0.041091 0.02957,-0.059583 -0.01906,-0.053627 -0.02957,-0.1109942 -0.02951,-0.1709576 l 1.217796,-15.9622183 c 0,-0.1624734 0.06902,-0.3541992 0.181216,-0.4883061 0.0037,-0.030708 0.02963,-0.068509 0.07826,-0.1132126 z"
         style="fill:#d2902d;stroke:none;stroke-width:0.0895448"
         id="path1"
         transform="matrix(0.97608189,0,0,0.97608189,-3.063607,-25.889893)" />
    </g>
    <path
       id="rect3"
       style="fill:#a3abc2;stroke-width:1.34741;fill-opacity:1"
       d="m 68.779367,-17.944471 c -4.694922,-0.06884 -9.203403,1.645073 -11.801184,3.963839 -2.549495,2.275662 -3.278285,5.1638613 -0.5788,7.585191 -5.680377,9.7496532 -5.868835,27.758361 7.491864,26.676601 l -3.925309,3.531879 2.207317,10.068209 c 4.121315,-1.499509 8.068927,-1.260864 11.914205,0 L 76.294349,23.812611 72.325373,20.28801 c 12.969379,1.086868 12.82697,-16.2499244 7.539812,-26.2420732 3.41034,-3.1142051 1.179201,-6.2459358 -0.60363,-8.0406968 -3.066203,-2.764455 -6.830582,-3.896167 -10.482188,-3.949711 z m -0.507734,2.481734 c 8.967288,0 12.893451,5.452228 10.008274,7.1609376 -0.291597,-0.455925 -0.590107,-0.8869713 -0.894315,-1.2898849 -0.912624,-1.2087407 -1.875335,-2.1618867 -2.848621,-2.7565777 0.581543,2.8247539 9.646625,27.268464 -0.899023,29.8874 -0.340181,0.08448 -0.702491,0.145808 -1.088247,0.181517 l 0.655859,-1.252639 h 4.28e-4 C 85.217492,13.680021 64.858157,-3.6085885 60.046422,-7.2585038 l 0.07021,-0.2119127 c 0.799251,-2.3663332 1.477436,-4.2475325 1.607111,-4.8774175 -1.117951,0.683084 -2.75174,2.3769077 -3.782321,3.8486775 -2.692941,-1.4002399 0.8667,-6.9635805 10.330211,-6.9635805 z M 60.04,-7.2396671 59.446217,-5.4262079 c 0.01443,-0.045046 0.02619,-0.096885 0.04067,-0.1417032 z m -0.714937,2.234716 c 2.493853,2.0743269 18.337492,15.3795931 15.022685,19.2926201 l -1.45599,-1.276185 -9.413634,-4.28e-4 -1.566014,1.276613 1.798476,3.432986 C 54.920147,16.906924 56.53704,3.9326805 59.325063,-5.0049511 Z M 68.02804,36.149785 c -3.840363,0.01488 -7.646986,1.100169 -8.062102,3.211227 -0.199302,1.081121 0.884936,1.984701 1.984274,1.984701 h 0.786431 l 0.50431,19.623547 -1.355385,4.28e-4 c -0.75085,2.38e-4 -1.355814,0.603682 -1.355814,1.354529 v 1.355814 c 0,0.750848 0.604538,1.355385 1.355386,1.355385 h 1.355813 l -4.28e-4,18.974537 h -1.354957 c -0.75085,0 -1.35629,0.604112 -1.355814,1.354957 l 8.57e-4,1.355813 c 0,0.750856 0.60368,1.354957 1.354529,1.354957 h 1.255636 v 39.68505 c -2.5e-5,1.11298 0.902543,2.01554 2.015525,2.01552 h 3.037416 c 2.57e-4,4.8e-4 5.98e-4,8.6e-4 8.56e-4,8.6e-4 2.55e-4,-4.7e-4 6.02e-4,-8.6e-4 8.57e-4,-8.6e-4 h 2.764712 c 1.265001,1.7e-4 2.290536,-1.02493 2.290369,-2.28994 l -4.28e-4,-39.41063 h 1.253496 c 0.750847,0 1.354957,-0.604101 1.354957,-1.354957 V 85.36491 c 0,-0.750845 -0.603681,-1.354957 -1.354529,-1.354957 H 73.14905 l -4.28e-4,-18.974537 h 1.354957 c 0.750847,0 1.354957,-0.604537 1.354957,-1.355385 v -1.355814 c 0,-0.750847 -0.603682,-1.354529 -1.354529,-1.354529 l -1.355385,-4.28e-4 0.503881,-19.623547 h 0.656716 c 1.099338,0 2.2553,-0.919187 1.984702,-1.984701 -0.551246,-2.17059 -4.425518,-3.22611 -8.265881,-3.211227 z"
       transform="matrix(0.97608189,0,0,0.97608189,-3.063607,-25.889893)" />
  </g>
</svg>
