<?xml version="1.0" encoding="UTF-8" standalone="no"?>
<!-- Created with Inkscape (http://www.inkscape.org/) -->

<svg
   width="512"
   height="512"
   viewBox="0 0 135.46666 135.46667"
   version="1.1"
   id="svg1"
   inkscape:version="1.3.2 (091e20e, 2023-11-25, custom)"
   sodipodi:docname="KWD_KIT_StaffDamageType_SunRune_R.svg"
   xmlns:inkscape="http://www.inkscape.org/namespaces/inkscape"
   xmlns:sodipodi="http://sodipodi.sourceforge.net/DTD/sodipodi-0.dtd"
   xmlns="http://www.w3.org/2000/svg"
   xmlns:svg="http://www.w3.org/2000/svg">
  <sodipodi:namedview
     id="namedview1"
     pagecolor="#ffffff"
     bordercolor="#000000"
     borderopacity="0.25"
     inkscape:showpageshadow="2"
     inkscape:pageopacity="0.0"
     inkscape:pagecheckerboard="0"
     inkscape:deskcolor="#d1d1d1"
     inkscape:document-units="px"
     showgrid="true"
     inkscape:zoom="1"
     inkscape:cx="313"
     inkscape:cy="183.5"
     inkscape:window-width="1920"
     inkscape:window-height="1009"
     inkscape:window-x="1042"
     inkscape:window-y="235"
     inkscape:window-maximized="1"
     inkscape:current-layer="svg1">
    <inkscape:grid
       id="grid1"
       units="px"
       originx="0"
       originy="0"
       spacingx="0.26458332"
       spacingy="0.26458334"
       empcolor="#0099e5"
       empopacity="0.30196078"
       color="#0099e5"
       opacity="0.14901961"
       empspacing="5"
       dotted="false"
       gridanglex="30"
       gridanglez="30"
       visible="true" />
  </sodipodi:namedview>
  <defs
     id="defs1" />
  <g
     id="g21"
     transform="matrix(0.79329369,-0.79329369,0.79329369,0.79329369,-34.690831,72.571805)">
    <ellipse
       style="fill:#ecb279;stroke-width:0.264583"
       id="path12"
       cx="67.46875"
       cy="-3.4854465"
       rx="13.890625"
       ry="14.552084" />
    <path
       id="rect13"
       style="fill:#a3abc2;stroke-width:0.153129;fill-opacity:1"
       d="m 67.073032,-18.25334 c -7.5527,0.169455 -14.945034,6.939523 -15.479161,22.2221886 1.189749,8.8970904 4.786605,14.2126454 9.286575,22.5506114 0.371168,2.993154 -1.007693,8.374108 -1.942898,10.522421 1.191905,0.359724 1.879451,1.002482 2.299419,1.823597 l 0.0023,-0.0018 11.529338,14.206466 c 0.06752,-3.273139 0.149488,-6.545232 0.260711,-9.815368 0.118304,-3.478329 -0.233995,-5.662413 2.831896,-6.134087 C 74.876164,34.857825 73.603304,29.805131 74.134348,26.561837 77.826133,19.505001 81.45923,15.049343 83.343539,6.6146543 85.536913,-9.0479835 76.188359,-18.457855 67.073032,-18.25334 Z m 1.117466,0.77937 c 6.676861,-0.08602 19.815079,11.1497128 8.995923,23.5754928 -3.411594,0.7800229 -7.086103,0.9709405 -11.714507,-0.9760555 -3.152148,-7.5316353 -2.13745,-14.6262698 0.330265,-22.0913723 0.690246,-0.348703 1.498781,-0.496606 2.388319,-0.508065 z m -6.013404,0.805166 C 59.136712,-9.5476677 58.680557,-2.4916009 61.42536,4.7878323 59.256695,5.4014259 57.271245,5.6842479 56.181193,4.3511638 54.769036,-1.0489049 54.678682,-10.312815 62.177094,-16.668804 Z m -0.254263,60.866428 c 0.346009,17.294083 0.514513,48.906859 0.514513,84.303736 l -1.455561,11.76379 h 13.237319 l -1.719036,-11.76379 c 0.351489,-23.66922 -0.171342,-47.380674 0.197145,-71.028645 z" />
  </g>
  <path
     id="path16"
     style="fill:#ecb279;stroke-width:0.975841"
     d="M 106.69759,0.79380367 C 91.393325,0.79374767 78.986575,13.200502 78.986625,28.504773 c 7e-5,15.304183 12.40679,27.710506 27.710965,27.710453 15.30419,5.3e-5 27.7109,-12.40627 27.71097,-27.710453 5e-5,-15.304271 -12.4067,-27.71102233 -27.71097,-27.71096933 z m 0,2.22983803 c 14.07278,6.1e-5 25.48107,11.4083533 25.48113,25.4811313 -6e-5,14.072776 -11.40835,25.481072 -25.48113,25.481132 -14.072765,-6e-5 -25.481065,-11.408356 -25.481125,-25.481132 6e-5,-14.072778 11.40836,-25.4810733 25.481125,-25.4811313 z m -0.64285,3.581693 c -6.04263,-0.03219 -12.140855,1.958955 -15.438335,7.8584353 0.029,-0.01546 9.910005,-4.9052673 17.960655,-1.802474 1.60483,0.618523 3.10997,1.202287 4.50981,1.718758 -0.64131,0.63086 -16.797965,5.251094 -16.842895,10.297563 -0.0249,2.796037 1.26297,9.145178 1.26297,9.145178 1.552035,6.35753 6.274295,17.709216 8.112675,17.572054 0.52815,-0.603205 -2.48327,-11.773279 -2.25929,-17.722433 -2.43637,-12.974203 6.50244,-15.827196 17.15657,-17.386018 0.46924,-0.0071 0.89083,-0.06411 1.24851,-0.19327 0.26726,-0.09651 0.492,-0.215974 0.68936,-0.335897 -0.41145,-1.074362 -0.24229,-1.421148 0.32401,-2.32699 -1.53264,-3.357814 -9.61498,-6.7870413 -16.72404,-6.8249063 z" />
</svg>
