<?xml version="1.0" encoding="UTF-8" standalone="no"?>
<svg
   version="1.1"
   id="svg4"
   sodipodi:docname="KWD_KIT_StaffSneak.svg"
   width="512"
   height="512"
   inkscape:version="1.3.2 (091e20e, 2023-11-25, custom)"
   xml:space="preserve"
   xmlns:inkscape="http://www.inkscape.org/namespaces/inkscape"
   xmlns:sodipodi="http://sodipodi.sourceforge.net/DTD/sodipodi-0.dtd"
   xmlns="http://www.w3.org/2000/svg"
   xmlns:svg="http://www.w3.org/2000/svg"><defs
     id="defs4"><inkscape:path-effect
       effect="fillet_chamfer"
       id="path-effect19"
       is_visible="true"
       lpeversion="1"
       nodesatellites_param="F,0,0,1,0,0,0,1 @ F,0,0,1,0,0,0,1 @ F,0,0,1,0,0,0,1"
       radius="0"
       unit="px"
       method="auto"
       mode="F"
       chamfer_steps="1"
       flexible="false"
       use_knot_distance="true"
       apply_no_radius="true"
       apply_with_radius="true"
       only_selected="false"
       hide_knots="false" /><inkscape:path-effect
       effect="fillet_chamfer"
       id="path-effect70"
       is_visible="true"
       lpeversion="1"
       nodesatellites_param="F,0,0,1,0,1.3229158,0,1 @ F,0,0,1,0,1.3229161,0,1 @ F,0,0,1,0,0,0,1 @ F,0,0,1,0,0,0,1"
       radius="0"
       unit="px"
       method="auto"
       mode="F"
       chamfer_steps="1"
       flexible="false"
       use_knot_distance="true"
       apply_no_radius="true"
       apply_with_radius="true"
       only_selected="false"
       hide_knots="false" /><inkscape:path-effect
       effect="fillet_chamfer"
       id="path-effect68"
       is_visible="true"
       lpeversion="1"
       nodesatellites_param="F,0,0,1,0,0,0,1 @ F,0,0,1,0,0,0,1 @ F,0,0,1,0,0,0,1 @ F,0,0,1,0,0,0,1"
       radius="0"
       unit="px"
       method="auto"
       mode="F"
       chamfer_steps="1"
       flexible="false"
       use_knot_distance="true"
       apply_no_radius="true"
       apply_with_radius="true"
       only_selected="false"
       hide_knots="false" /><inkscape:path-effect
       effect="fillet_chamfer"
       id="path-effect67"
       is_visible="true"
       lpeversion="1"
       nodesatellites_param="F,0,0,1,0,0,0,1 @ F,0,0,1,0,0,0,1 @ F,0,0,1,0,0,0,1 @ F,0,0,1,0,0,0,1"
       radius="0"
       unit="px"
       method="auto"
       mode="F"
       chamfer_steps="1"
       flexible="false"
       use_knot_distance="true"
       apply_no_radius="true"
       apply_with_radius="true"
       only_selected="false"
       hide_knots="false" /><inkscape:path-effect
       effect="fillet_chamfer"
       id="path-effect65"
       is_visible="true"
       lpeversion="1"
       nodesatellites_param="F,0,0,1,0,0.52916652,0,1 @ F,0,0,1,0,0.52916652,0,1 @ F,0,0,1,0,0.52916652,0,1 @ F,0,0,1,0,0.52916652,0,1"
       radius="0.52916652"
       unit="px"
       method="auto"
       mode="F"
       chamfer_steps="1"
       flexible="false"
       use_knot_distance="true"
       apply_no_radius="true"
       apply_with_radius="true"
       only_selected="false"
       hide_knots="false" /><inkscape:path-effect
       effect="fillet_chamfer"
       id="path-effect63"
       is_visible="true"
       lpeversion="1"
       nodesatellites_param="F,0,0,1,0,0.52916652,0,1 @ F,0,0,1,0,0.52916652,0,1 @ F,0,0,1,0,0.52916652,0,1 @ F,0,0,1,0,0,0,1"
       radius="0.52916652"
       unit="px"
       method="auto"
       mode="F"
       chamfer_steps="1"
       flexible="false"
       use_knot_distance="true"
       apply_no_radius="true"
       apply_with_radius="true"
       only_selected="false"
       hide_knots="false" /><inkscape:path-effect
       effect="mirror_symmetry"
       start_point="36.379876,98.706102"
       end_point="36.379876,129.13318"
       center_point="36.379876,113.91964"
       id="path-effect61"
       is_visible="true"
       lpeversion="1.2"
       lpesatellites=""
       mode="free"
       discard_orig_path="false"
       fuse_paths="false"
       oposite_fuse="false"
       split_items="false"
       split_open="false"
       link_styles="false" /><inkscape:path-effect
       effect="mirror_symmetry"
       start_point="36.379876,98.706104"
       end_point="36.379876,129.13318"
       center_point="36.379876,113.91964"
       id="path-effect57"
       is_visible="true"
       lpeversion="1.2"
       lpesatellites=""
       mode="free"
       discard_orig_path="false"
       fuse_paths="false"
       oposite_fuse="false"
       split_items="false"
       split_open="false"
       link_styles="false" /><inkscape:path-effect
       effect="fillet_chamfer"
       id="path-effect31"
       is_visible="true"
       lpeversion="1"
       nodesatellites_param="F,0,0,1,0,0,0,1 @ F,0,0,1,0,0,0,1 @ F,0,0,1,0,0,0,1 @ F,0,0,1,0,0,0,1 @ F,0,0,1,0,0,0,1 @ F,0,0,1,0,0,0,1 @ F,0,0,1,0,0,0,1 @ F,0,0,1,0,0,0,1"
       radius="0"
       unit="px"
       method="auto"
       mode="F"
       chamfer_steps="1"
       flexible="false"
       use_knot_distance="true"
       apply_no_radius="true"
       apply_with_radius="true"
       only_selected="false"
       hide_knots="false" /><inkscape:perspective
       sodipodi:type="inkscape:persp3d"
       inkscape:vp_x="0 : 42.904881 : 1"
       inkscape:vp_y="0 : 999.99987 : 0"
       inkscape:vp_z="296.99999 : 42.904881 : 1"
       inkscape:persp3d-origin="148.49998 : 7.9048923 : 1"
       id="perspective4" /><inkscape:path-effect
       effect="fillet_chamfer"
       id="path-effect70-7"
       is_visible="true"
       lpeversion="1"
       nodesatellites_param="F,0,0,1,0,1.3229158,0,1 @ F,0,0,1,0,1.3229161,0,1 @ F,0,0,1,0,0,0,1 @ F,0,0,1,0,0,0,1"
       radius="0"
       unit="px"
       method="auto"
       mode="F"
       chamfer_steps="1"
       flexible="false"
       use_knot_distance="true"
       apply_no_radius="true"
       apply_with_radius="true"
       only_selected="false"
       hide_knots="false" /><inkscape:path-effect
       effect="fillet_chamfer"
       id="path-effect68-6"
       is_visible="true"
       lpeversion="1"
       nodesatellites_param="F,0,0,1,0,0,0,1 @ F,0,0,1,0,0,0,1 @ F,0,0,1,0,0,0,1 @ F,0,0,1,0,0,0,1"
       radius="0"
       unit="px"
       method="auto"
       mode="F"
       chamfer_steps="1"
       flexible="false"
       use_knot_distance="true"
       apply_no_radius="true"
       apply_with_radius="true"
       only_selected="false"
       hide_knots="false" /><inkscape:path-effect
       effect="fillet_chamfer"
       id="path-effect67-4"
       is_visible="true"
       lpeversion="1"
       nodesatellites_param="F,0,0,1,0,0,0,1 @ F,0,0,1,0,0,0,1 @ F,0,0,1,0,0,0,1 @ F,0,0,1,0,0,0,1"
       radius="0"
       unit="px"
       method="auto"
       mode="F"
       chamfer_steps="1"
       flexible="false"
       use_knot_distance="true"
       apply_no_radius="true"
       apply_with_radius="true"
       only_selected="false"
       hide_knots="false" /><inkscape:path-effect
       effect="fillet_chamfer"
       id="path-effect65-6"
       is_visible="true"
       lpeversion="1"
       nodesatellites_param="F,0,0,1,0,0.52916652,0,1 @ F,0,0,1,0,0.52916652,0,1 @ F,0,0,1,0,0.52916652,0,1 @ F,0,0,1,0,0.52916652,0,1"
       radius="0.52916652"
       unit="px"
       method="auto"
       mode="F"
       chamfer_steps="1"
       flexible="false"
       use_knot_distance="true"
       apply_no_radius="true"
       apply_with_radius="true"
       only_selected="false"
       hide_knots="false" /><inkscape:path-effect
       effect="fillet_chamfer"
       id="path-effect63-2"
       is_visible="true"
       lpeversion="1"
       nodesatellites_param="F,0,0,1,0,0.52916652,0,1 @ F,0,0,1,0,0.52916652,0,1 @ F,0,0,1,0,0.52916652,0,1 @ F,0,0,1,0,0,0,1"
       radius="0.52916652"
       unit="px"
       method="auto"
       mode="F"
       chamfer_steps="1"
       flexible="false"
       use_knot_distance="true"
       apply_no_radius="true"
       apply_with_radius="true"
       only_selected="false"
       hide_knots="false" /><inkscape:path-effect
       effect="mirror_symmetry"
       start_point="36.379876,98.706102"
       end_point="36.379876,129.13318"
       center_point="36.379876,113.91964"
       id="path-effect61-8"
       is_visible="true"
       lpeversion="1.2"
       lpesatellites=""
       mode="free"
       discard_orig_path="false"
       fuse_paths="false"
       oposite_fuse="false"
       split_items="false"
       split_open="false"
       link_styles="false" /><inkscape:path-effect
       effect="mirror_symmetry"
       start_point="36.379876,98.706104"
       end_point="36.379876,129.13318"
       center_point="36.379876,113.91964"
       id="path-effect57-7"
       is_visible="true"
       lpeversion="1.2"
       lpesatellites=""
       mode="free"
       discard_orig_path="false"
       fuse_paths="false"
       oposite_fuse="false"
       split_items="false"
       split_open="false"
       link_styles="false" /><inkscape:path-effect
       effect="fillet_chamfer"
       id="path-effect31-5"
       is_visible="true"
       lpeversion="1"
       nodesatellites_param="F,0,0,1,0,0,0,1 @ F,0,0,1,0,0,0,1 @ F,0,0,1,0,0,0,1 @ F,0,0,1,0,0,0,1 @ F,0,0,1,0,0,0,1 @ F,0,0,1,0,0,0,1 @ F,0,0,1,0,0,0,1 @ F,0,0,1,0,0,0,1"
       radius="0"
       unit="px"
       method="auto"
       mode="F"
       chamfer_steps="1"
       flexible="false"
       use_knot_distance="true"
       apply_no_radius="true"
       apply_with_radius="true"
       only_selected="false"
       hide_knots="false" /><inkscape:perspective
       sodipodi:type="inkscape:persp3d"
       inkscape:vp_x="0 : 42.904881 : 1"
       inkscape:vp_y="0 : 999.99987 : 0"
       inkscape:vp_z="296.99999 : 42.904881 : 1"
       inkscape:persp3d-origin="148.49998 : 7.9048923 : 1"
       id="perspective4-8" /></defs><sodipodi:namedview
     id="namedview4"
     pagecolor="#ffffff"
     bordercolor="#000000"
     borderopacity="0.25"
     inkscape:showpageshadow="2"
     inkscape:pageopacity="0.0"
     inkscape:pagecheckerboard="0"
     inkscape:deskcolor="#d1d1d1"
     showgrid="true"
     inkscape:zoom="1.4142136"
     inkscape:cx="228.39549"
     inkscape:cy="86.620581"
     inkscape:window-width="1920"
     inkscape:window-height="1017"
     inkscape:window-x="1042"
     inkscape:window-y="276"
     inkscape:window-maximized="1"
     inkscape:current-layer="svg4"><inkscape:grid
       id="grid4"
       units="px"
       originx="0"
       originy="0"
       spacingx="1"
       spacingy="1"
       empcolor="#0099e5"
       empopacity="0.30196078"
       color="#0099e5"
       opacity="0.14901961"
       empspacing="5"
       dotted="false"
       gridanglex="30"
       gridanglez="30"
       visible="true" /></sodipodi:namedview><g
     id="g21"
     transform="matrix(0.85650285,-0.85627976,0.85650285,0.85627976,-53.200444,353.70011)"><path
       d="m 269.04335,-95.646888 c 0.79217,-0.921706 1.58496,-0.921299 2.37649,-3.95e-4 l 21.38233,24.846617 c 0.2343,0.271536 0.36327,0.501459 0.39209,0.692992 0.53354,0.735825 0.74094,1.981995 0.74063,3.146139 l 8.70708,60.588826 c -1.54363,12.318473 -6.57655,65.943203 -8.70677,78.218913 0,0.62955 -1.05527,1.45509 -2.49588,1.45468 l -43.15064,-0.13011 c -1.44158,0 -1.9396,-0.69501 -1.93929,-1.32496 -1.88799,-12.32155 -7.29223,-65.88402 -8.70742,-78.218523 l 8.70743,-60.588824 c -1e-5,-1.036867 0.34886,-2.260415 0.91603,-3.116233 0.0188,-0.195983 0.14978,-0.437212 0.39559,-0.722493 z"
       style="fill:#6a55d5;fill-opacity:1"
       id="path14-2"
       sodipodi:nodetypes="ccccccccccccccc"
       transform="translate(-32.641968,-78.627291)" /><path
       id="rect19"
       style="display:inline;fill:#a3abc2;stroke-width:2.00001;fill-opacity:1"
       d="m 237.37202,-66.725463 -8.59189,34.381387 -20.55683,-22.65679 -4.22382,2.000247 0.99266,42.844984 -9.94529,0.2012649 -6.5e-4,4.999242 21.67023,29.9555421 0.0775,57.262452 c 14.29447,-3.077312 27.91961,-2.68065 41.28409,-0.0054 l 0.20789,-57.259261 21.66837,-29.9547364 6.5e-4,-4.9992421 -9.95008,-0.1986735 0.99575,-42.845243 -0.005,0.0032 0.003,-0.0048 -4.22168,-2.00076 -20.5579,22.657307 z M 209.07963,93.526503 c -1.97518,4.209612 -1.80785,7.524597 -0.9998,12.001537 2.81873,1.34092 7.39,0.99889 10.43216,0.99849 l 0.005,74.01781 c -3.0085,-0.0792 -7.62351,0.57726 -10.59207,1.00123 -1.55326,4.09284 -0.30497,8.0801 0.99989,11.99966 19.1249,5.67023 35.5194,6.02343 56.8559,-9.6e-4 1.97518,-4.20959 1.80623,-7.52461 0.99819,-12.00153 -2.95074,-0.4152 -7.5043,-0.99887 -10.48538,-0.99848 l -0.002,-74.01781 c 3.02571,0.0874 7.65684,-0.57311 10.64207,-0.99963 1.58356,-4.46203 0.398,-7.80232 -0.9999,-12.001272 -18.95099,-6.169243 -37.90233,-6.257437 -56.85406,9.55e-4 z m 49.10883,110.244627 c -14.25267,3.29762 -27.94665,3.34538 -41.29216,0.23115 l -0.0661,160.5934 -10.10235,5.00056 -7.3e-4,17.99889 5.00085,9.6e-4 -0.001,9.00025 51.5696,-2.7e-4 -4.4e-4,-9.00025 5.00086,-6.5e-4 7.3e-4,-18.0005 -10.00106,-4.99955 z"
       sodipodi:nodetypes="cccccccccccccccccccccccccccccccccccccccccccccc" /></g><path
     id="path1"
     style="fill:#6a55d5;fill-opacity:1;fill-rule:evenodd;stroke-width:37.6073"
     d="m 414.30599,1.9634737 c -51.92487,0 -94.01827,42.0934103 -94.01827,94.0182643 0,51.924862 42.0934,94.018262 94.01827,94.018262 51.92486,0 94.01826,-42.0934 94.01826,-94.018262 0,-51.924854 -42.0934,-94.0182527 -94.01826,-94.0182643 z m -0.003,16.6054503 c 24.33702,-9.3e-5 47.48902,11.636735 62.3998,29.643893 -1.61238,-0.974285 -3.40233,-1.629918 -5.26504,-2.13367 -0.63868,-0.53898 -1.43429,-0.900776 -2.47267,-1.419966 C 456.1175,38.2354 433.56945,29.054945 415.75414,28.896785 c -5.93844,-0.0527 -11.35224,1.141127 -15.7044,4.182595 17.13671,-3.322479 44.51436,12.442807 40.08473,19.255059 -0.81352,0.501094 -1.66835,0.983372 -2.41022,1.513648 C 395.19656,70.882074 344.3991,18.568622 414.3023,18.568924 Z m -0.47009,72.033355 c 4.21042,-19.563252 77.40244,-39.739377 77.22996,3.175914 -0.35394,36.008017 -55.51662,47.909897 -71.61548,40.398467 -25.8458,-12.05917 -16.3398,-28.13269 -57.07102,-27.90114 -1.46184,0.008 -3.89395,-0.10354 -2.42492,0.35673 59.53924,18.65685 -15.19455,56.59824 -24.10972,-2.21543 -0.55763,-3.47647 -0.8638,-7.025318 -0.86388,-10.638627 1.64546,-43.529777 78.99567,-21.959256 78.85506,-3.175914 z m -6.44856,60.944081 c 20.41745,0.17148 36.61139,8.78003 43.69637,14.06144 -9.94357,6.25563 -21.56878,11.37772 -36.77793,10.55533 -15.77269,2e-5 -31.04306,-6.36486 -43.90155,-14.70523 16.49839,-8.7443 26.29497,-10.00108 36.98311,-9.91154 z"
     sodipodi:nodetypes="ssssssccssccccsccssssccscccs" /></svg>
