<?xml version="1.0" encoding="UTF-8" standalone="no"?>
<svg
   viewBox="0 0 512 512"
   version="1.1"
   id="svg1"
   sodipodi:docname="KWD_KIT_StaffDamageType_PoisonRune_D.svg"
   width="512"
   height="512"
   xml:space="preserve"
   inkscape:version="1.3.2 (091e20e, 2023-11-25, custom)"
   xmlns:inkscape="http://www.inkscape.org/namespaces/inkscape"
   xmlns:sodipodi="http://sodipodi.sourceforge.net/DTD/sodipodi-0.dtd"
   xmlns="http://www.w3.org/2000/svg"
   xmlns:svg="http://www.w3.org/2000/svg"
   xmlns:bx="https://boxy-svg.com"><sodipodi:namedview
     id="namedview1"
     pagecolor="#ffffff"
     bordercolor="#000000"
     borderopacity="0.25"
     inkscape:showpageshadow="2"
     inkscape:pageopacity="0.0"
     inkscape:pagecheckerboard="0"
     inkscape:deskcolor="#d1d1d1"
     showgrid="true"
     inkscape:zoom="0.70710678"
     inkscape:cx="192.33304"
     inkscape:cy="163.34167"
     inkscape:window-width="1920"
     inkscape:window-height="1009"
     inkscape:window-x="1042"
     inkscape:window-y="235"
     inkscape:window-maximized="1"
     inkscape:current-layer="svg1"><inkscape:grid
       id="grid1"
       units="px"
       originx="0"
       originy="0"
       spacingx="1"
       spacingy="1"
       empcolor="#0099e5"
       empopacity="0.30196078"
       color="#0099e5"
       opacity="0.14901961"
       empspacing="5"
       dotted="false"
       gridanglex="30"
       gridanglez="30"
       visible="true" /></sodipodi:namedview><defs
     id="defs1"><inkscape:path-effect
       effect="fillet_chamfer"
       id="path-effect1"
       is_visible="true"
       lpeversion="1"
       nodesatellites_param="F,0,0,1,0,0,0,1 @ F,0,0,1,0,0,0,1 @ F,0,0,1,0,5,0,1 @ F,0,0,1,0,5,0,1"
       radius="0"
       unit="px"
       method="auto"
       mode="F"
       chamfer_steps="1"
       flexible="false"
       use_knot_distance="true"
       apply_no_radius="true"
       apply_with_radius="true"
       only_selected="false"
       hide_knots="false" /><bx:grid
       x="0"
       y="0"
       width="512"
       height="512" /><bx:grid
       x="0"
       y="0"
       width="512"
       height="512" /><bx:grid
       x="0"
       y="0"
       width="100"
       height="100" /><bx:grid
       x="0"
       y="0"
       width="512"
       height="512" /><bx:grid
       x="0"
       y="0"
       width="512"
       height="512" /><bx:grid
       x="0"
       y="0"
       width="512"
       height="512" /><bx:grid
       x="0"
       y="0"
       width="512"
       height="512" /><bx:grid
       x="0"
       y="0"
       width="512"
       height="512" /><bx:grid
       x="0"
       y="0"
       width="512"
       height="512" /><bx:grid
       x="0"
       y="0"
       width="512"
       height="512" /><bx:grid
       x="0"
       y="0"
       width="100"
       height="100" /><bx:grid
       x="0"
       y="0"
       width="512"
       height="512" /><bx:grid
       x="0"
       y="0"
       width="512"
       height="512" /><bx:grid
       x="0"
       y="0"
       width="512"
       height="512" /><bx:grid
       x="0"
       y="0"
       width="512"
       height="512" /><bx:grid
       x="0"
       y="0"
       width="512"
       height="512" /><bx:grid
       x="0"
       y="0"
       width="512"
       height="512" /><bx:grid
       x="0"
       y="0"
       width="512"
       height="512" /><bx:grid
       x="0"
       y="0"
       width="512"
       height="512" /><bx:grid
       x="0"
       y="0"
       width="512"
       height="512" /><bx:grid
       x="0"
       y="0"
       width="512"
       height="512" /><bx:grid
       x="0"
       y="0"
       width="512"
       height="512" /><bx:grid
       x="0"
       y="0"
       width="512"
       height="512" /><bx:grid
       x="0"
       y="0"
       width="512"
       height="512" /><bx:grid
       x="0"
       y="0"
       width="512"
       height="512" /><bx:grid
       x="0"
       y="0"
       width="512"
       height="512" /><bx:grid
       x="0"
       y="0"
       width="100"
       height="100" /><bx:grid
       x="0"
       y="0"
       width="100"
       height="100" /><bx:grid
       x="0"
       y="0"
       width="100"
       height="100" /><bx:grid
       x="0"
       y="0"
       width="100"
       height="100" /><bx:grid
       x="0"
       y="0"
       width="100"
       height="100" /><bx:grid
       x="0"
       y="0"
       width="512"
       height="512" /><bx:grid
       x="0"
       y="0"
       width="512"
       height="512" /><bx:grid
       x="0"
       y="0"
       width="512"
       height="512" /><bx:grid
       x="0"
       y="0"
       width="512"
       height="512" /><bx:grid
       x="0"
       y="0"
       width="512"
       height="512" /><bx:grid
       x="0"
       y="0"
       width="512"
       height="512" /><bx:grid
       x="0"
       y="0"
       width="512"
       height="512" /><bx:grid
       x="0"
       y="0"
       width="512"
       height="512" /><bx:grid
       x="0"
       y="0"
       width="512"
       height="512" /><bx:grid
       x="0"
       y="0"
       width="512"
       height="512" /><bx:grid
       x="0"
       y="0"
       width="512"
       height="512" /><bx:grid
       x="0"
       y="0"
       width="512"
       height="512" /><bx:grid
       x="0"
       y="0"
       width="512"
       height="512" /><bx:grid
       x="0"
       y="0"
       width="512"
       height="512" /><bx:grid
       x="0"
       y="0"
       width="512"
       height="512" /><bx:grid
       x="0"
       y="0"
       width="512"
       height="512" /><bx:grid
       x="0"
       y="0"
       width="512"
       height="512" /><bx:grid
       x="0"
       y="0"
       width="512"
       height="512" /><bx:grid
       x="0"
       y="0"
       width="512"
       height="512" /><bx:grid
       x="0"
       y="0"
       width="512"
       height="512" /><bx:grid
       x="0"
       y="0"
       width="512"
       height="512" /><bx:grid
       x="0"
       y="0"
       width="512"
       height="512" /><bx:grid
       x="0"
       y="0"
       width="512"
       height="512" /><bx:grid
       x="0"
       y="0"
       width="512"
       height="512" /><bx:grid
       x="0"
       y="0"
       width="512"
       height="512" /><bx:grid
       x="0"
       y="0"
       width="512"
       height="512" /><bx:grid
       x="0"
       y="0"
       width="512"
       height="512" /><bx:grid
       x="0"
       y="0"
       width="512"
       height="512" /><bx:grid
       x="0"
       y="0"
       width="512"
       height="512" /><bx:grid
       x="0"
       y="0"
       width="512"
       height="512" /><bx:grid
       x="0"
       y="0"
       width="512"
       height="512" /><bx:grid
       x="0"
       y="0"
       width="512"
       height="512" /><bx:grid
       x="0"
       y="0"
       width="512"
       height="512" /><bx:grid
       x="0"
       y="0"
       width="512"
       height="512" /><bx:grid
       x="0"
       y="0"
       width="512"
       height="512" /><bx:grid
       x="0"
       y="0"
       width="512"
       height="512" /><bx:grid
       x="0"
       y="0"
       width="512"
       height="512" /><bx:grid
       x="0"
       y="0"
       width="512"
       height="512" /><bx:grid
       x="0"
       y="0"
       width="512"
       height="512" /><bx:grid
       x="0"
       y="0"
       width="512"
       height="512" /><bx:grid
       x="0"
       y="0"
       width="512"
       height="512" /><bx:grid
       x="0"
       y="0"
       width="512"
       height="512" /><bx:grid
       x="0"
       y="0"
       width="512"
       height="512" /><bx:grid
       x="0"
       y="0"
       width="512"
       height="512" /><bx:grid
       x="0"
       y="0"
       width="512"
       height="512" /><bx:grid
       x="0"
       y="0"
       width="512"
       height="512" /><bx:grid
       x="0"
       y="0"
       width="512"
       height="512" /><bx:grid
       x="0"
       y="0"
       width="512"
       height="512" /><bx:grid
       x="0"
       y="0"
       width="512"
       height="512" /><bx:grid
       x="0"
       y="0"
       width="512"
       height="512" /><bx:grid
       x="0"
       y="0"
       width="512"
       height="512" /><bx:grid
       x="0"
       y="0"
       width="512"
       height="512" /><bx:grid
       x="0"
       y="0"
       width="512"
       height="512" /></defs><path
     d="m 4.4868051,0 c -0.32386,0.01 -0.47982,0.006 -0.58593,0.12305 l -0.002,0.002 v 0.0117 c -0.10578,0.11481 -0.15346,0.33847 -0.25196,0.79492004 C 2.9523851,14.4968 0.28427511,29.02002 0.02191511,42.08207 c -0.16516,1.42796 0.61209,4.73179 2.03124999,5.01367 l 16.4531199,2.55859 c 0.3178,-10.24254 -9.6598599,-23.3302 2.29107,-26.70708 l 19.869135,5.38476 20.66602,4.64258 10.47655,8.07813 -3.43554,14.00977 -18.541,0.43164 c -0.99666,0.67991 -1.02963,1.04806 -1.1504,1.71093 -0.58203,0.83732 29.60757,20.11072 30.54491,20.22071 l 25.26564,3.01367 c 0.93637,0.10966 1.2326,-0.31082 0.88086,-1.25781 l -3.39844,-11.67774 12.3711,0.15235 c 25.76834,7.15013 36.9743,20.05258 30.7793,49.26953 -11.96921,56.44934 40.65654,113.41296 68.39454,116.91406 5.69114,-23.24881 37.6255,-22.53114 50.61131,21.78711 -2.66313,12.92607 -5.65879,27.30129 6.79102,40.56054 7.80674,8.31435 13.75691,9.03291 23.92969,8.81836 l 0.58008,0.65235 -0.41016,-0.64844 20.07616,-45.08594 C 303.35542,212.00883 289.44667,165.37439 212.94773,168.61524 195.35105,152.30911 193.5931,147.3238 192.41844,131.63672 l 26.18554,5.6211 c -7.64365,-37.47929 2.1943,-95.67735 -79.80663,-110.65821 0.0435,-0.23816 0.0677,-0.47965 0.0527,-0.72461 l -0.42578,-8.44921 c -0.0866,-1.68382 -1.56256,-2.79195 -3.28906,-2.47266 l -29.39255,5.43555 -14.32031,-2.85157 c -0.0381,-0.0621 -0.0859,-0.12584 -0.16992,-0.20507 L 77.66648,4.70508 C 77.28786,4.35416 76.85791,4.25169 76.38133,4.38086 76.22237,4.42356 76.0629,4.48917 75.89305,4.58594 L 63.00243,11.88282 15.760245,2.48438 c -0.0561,-0.009 -0.10845,0.004 -0.16406,-0.002 z m 325.2070349,276.23829 -21.02929,44.3125 167.62634,189.43732 c 10.79047,10.08177 44.31656,-22.34205 33.64513,-32.28498 z"
     fill="#a2a3c1"
     stroke-width="0.770254"
     id="path3-6-3"
     sodipodi:nodetypes="ccccccccccccccccccccsccscccccccccccccccccccccccccc"
     style="fill:#a3abc2" /><path
     id="path1-8"
     style="fill:#8abf40;fill-opacity:1;stroke-width:0.481652"
     d="M 106.31275,296.17419 C 48.469793,296.17398 1.578177,343.06564 1.578366,400.90856 c 2.64e-4,57.84258 46.891767,104.73262 104.734384,104.73242 57.84253,2e-4 104.73411,-46.88984 104.73437,-104.73242 1.9e-4,-57.84292 -46.8915,-104.73457 -104.73437,-104.73437 z m 0,8.42773 c 53.18842,2.3e-4 96.3064,43.11819 96.30663,96.30664 -2.3e-4,53.18844 -43.11821,96.30641 -96.30663,96.30664 -53.188469,-2.3e-4 -96.306416,-43.1182 -96.306642,-96.30664 2.26e-4,-53.18845 43.118173,-96.30642 96.306642,-96.30664 z m -7.025387,16.58984 c -2.236346,-0.011 -4.771993,7.4e-4 -7.576176,0.041 h -0.002 l -17.792966,0.25391 c -1.670135,15.17659 -1.646475,30.42774 0.0155,45.60352 0.688895,3.09956 3.305273,1.73803 7.03321,-3.66016 3.990168,-5.77797 7.960864,-8.55155 14.103541,-9.85156 7.831978,-1.65756 7.503078,-2.52472 7.644508,20.19336 0.11415,37.91062 -2.920665,80.47674 1.66213,115.51953 0.3394,2.59663 1.61261,3.47324 2.21091,1.27148 4.01223,-14.76535 9.86974,-58.21143 10.19728,-70.91015 0.36321,-28.11942 12.65563,-52.28054 7.41603,-57.45118 -1.33413,-1.31661 -4.73828,-8.04295 -4.29297,-8.48242 0.2022,-0.19959 1.99302,0.0843 3.98044,0.62891 1.98743,0.54458 4.13257,0.99324 4.76565,0.99609 1.45462,0.007 3.58287,-4.09267 4.37695,-8.42773 0.33563,-1.83181 1.6992,-4.33675 3.02929,-5.56641 1.33002,-1.22965 3.94099,-5.31669 5.80271,-9.08008 4.61741,-9.33378 4.52153,-9.39062 -15.29295,-9.39062 -9.06674,0 -15.52981,-0.38116 -16.10547,-0.94922 -0.4546,-0.44862 -4.46487,-0.70521 -11.173833,-0.73828 z" /></svg>
