<?xml version="1.0" encoding="UTF-8" standalone="no"?>
<svg
   viewBox="0 0 512 512"
   version="1.1"
   id="svg1"
   sodipodi:docname="KWD_KIT_StaffDamageType_ColdFireRune_D.svg"
   width="512"
   height="512"
   xml:space="preserve"
   inkscape:version="1.3.2 (091e20e, 2023-11-25, custom)"
   xmlns:inkscape="http://www.inkscape.org/namespaces/inkscape"
   xmlns:sodipodi="http://sodipodi.sourceforge.net/DTD/sodipodi-0.dtd"
   xmlns="http://www.w3.org/2000/svg"
   xmlns:svg="http://www.w3.org/2000/svg"
   xmlns:bx="https://boxy-svg.com"><sodipodi:namedview
     id="namedview1"
     pagecolor="#ffffff"
     bordercolor="#000000"
     borderopacity="0.25"
     inkscape:showpageshadow="2"
     inkscape:pageopacity="0.0"
     inkscape:pagecheckerboard="0"
     inkscape:deskcolor="#d1d1d1"
     showgrid="true"
     inkscape:zoom="0.70710678"
     inkscape:cx="241.83052"
     inkscape:cy="202.93965"
     inkscape:window-width="1920"
     inkscape:window-height="1009"
     inkscape:window-x="1042"
     inkscape:window-y="235"
     inkscape:window-maximized="1"
     inkscape:current-layer="svg1"><inkscape:grid
       id="grid1"
       units="px"
       originx="0"
       originy="0"
       spacingx="1"
       spacingy="1"
       empcolor="#0099e5"
       empopacity="0.30196078"
       color="#0099e5"
       opacity="0.14901961"
       empspacing="5"
       dotted="false"
       gridanglex="30"
       gridanglez="30"
       visible="true" /></sodipodi:namedview><defs
     id="defs1"><inkscape:path-effect
       effect="fillet_chamfer"
       id="path-effect1"
       is_visible="true"
       lpeversion="1"
       nodesatellites_param="F,0,0,1,0,0,0,1 @ F,0,0,1,0,0,0,1 @ F,0,0,1,0,5,0,1 @ F,0,0,1,0,5,0,1"
       radius="0"
       unit="px"
       method="auto"
       mode="F"
       chamfer_steps="1"
       flexible="false"
       use_knot_distance="true"
       apply_no_radius="true"
       apply_with_radius="true"
       only_selected="false"
       hide_knots="false" /><bx:grid
       x="0"
       y="0"
       width="512"
       height="512" /><bx:grid
       x="0"
       y="0"
       width="512"
       height="512" /><bx:grid
       x="0"
       y="0"
       width="100"
       height="100" /><bx:grid
       x="0"
       y="0"
       width="512"
       height="512" /><bx:grid
       x="0"
       y="0"
       width="512"
       height="512" /><bx:grid
       x="0"
       y="0"
       width="512"
       height="512" /><bx:grid
       x="0"
       y="0"
       width="512"
       height="512" /><bx:grid
       x="0"
       y="0"
       width="512"
       height="512" /><bx:grid
       x="0"
       y="0"
       width="512"
       height="512" /><bx:grid
       x="0"
       y="0"
       width="512"
       height="512" /><bx:grid
       x="0"
       y="0"
       width="100"
       height="100" /><bx:grid
       x="0"
       y="0"
       width="512"
       height="512" /><bx:grid
       x="0"
       y="0"
       width="512"
       height="512" /><bx:grid
       x="0"
       y="0"
       width="512"
       height="512" /><bx:grid
       x="0"
       y="0"
       width="512"
       height="512" /><bx:grid
       x="0"
       y="0"
       width="512"
       height="512" /><bx:grid
       x="0"
       y="0"
       width="512"
       height="512" /><bx:grid
       x="0"
       y="0"
       width="512"
       height="512" /><bx:grid
       x="0"
       y="0"
       width="512"
       height="512" /><bx:grid
       x="0"
       y="0"
       width="512"
       height="512" /><bx:grid
       x="0"
       y="0"
       width="512"
       height="512" /><bx:grid
       x="0"
       y="0"
       width="512"
       height="512" /><bx:grid
       x="0"
       y="0"
       width="512"
       height="512" /><bx:grid
       x="0"
       y="0"
       width="512"
       height="512" /><bx:grid
       x="0"
       y="0"
       width="512"
       height="512" /><bx:grid
       x="0"
       y="0"
       width="512"
       height="512" /><bx:grid
       x="0"
       y="0"
       width="100"
       height="100" /><bx:grid
       x="0"
       y="0"
       width="100"
       height="100" /><bx:grid
       x="0"
       y="0"
       width="100"
       height="100" /><bx:grid
       x="0"
       y="0"
       width="100"
       height="100" /><bx:grid
       x="0"
       y="0"
       width="100"
       height="100" /><bx:grid
       x="0"
       y="0"
       width="512"
       height="512" /><bx:grid
       x="0"
       y="0"
       width="512"
       height="512" /><bx:grid
       x="0"
       y="0"
       width="512"
       height="512" /><bx:grid
       x="0"
       y="0"
       width="512"
       height="512" /><bx:grid
       x="0"
       y="0"
       width="512"
       height="512" /><bx:grid
       x="0"
       y="0"
       width="512"
       height="512" /><bx:grid
       x="0"
       y="0"
       width="512"
       height="512" /><bx:grid
       x="0"
       y="0"
       width="512"
       height="512" /><bx:grid
       x="0"
       y="0"
       width="512"
       height="512" /><bx:grid
       x="0"
       y="0"
       width="512"
       height="512" /><bx:grid
       x="0"
       y="0"
       width="512"
       height="512" /><bx:grid
       x="0"
       y="0"
       width="512"
       height="512" /><bx:grid
       x="0"
       y="0"
       width="512"
       height="512" /><bx:grid
       x="0"
       y="0"
       width="512"
       height="512" /><bx:grid
       x="0"
       y="0"
       width="512"
       height="512" /><bx:grid
       x="0"
       y="0"
       width="512"
       height="512" /><bx:grid
       x="0"
       y="0"
       width="512"
       height="512" /><bx:grid
       x="0"
       y="0"
       width="512"
       height="512" /><bx:grid
       x="0"
       y="0"
       width="512"
       height="512" /><bx:grid
       x="0"
       y="0"
       width="512"
       height="512" /><bx:grid
       x="0"
       y="0"
       width="512"
       height="512" /><bx:grid
       x="0"
       y="0"
       width="512"
       height="512" /><bx:grid
       x="0"
       y="0"
       width="512"
       height="512" /><bx:grid
       x="0"
       y="0"
       width="512"
       height="512" /><bx:grid
       x="0"
       y="0"
       width="512"
       height="512" /><bx:grid
       x="0"
       y="0"
       width="512"
       height="512" /><bx:grid
       x="0"
       y="0"
       width="512"
       height="512" /><bx:grid
       x="0"
       y="0"
       width="512"
       height="512" /><bx:grid
       x="0"
       y="0"
       width="512"
       height="512" /><bx:grid
       x="0"
       y="0"
       width="512"
       height="512" /><bx:grid
       x="0"
       y="0"
       width="512"
       height="512" /><bx:grid
       x="0"
       y="0"
       width="512"
       height="512" /><bx:grid
       x="0"
       y="0"
       width="512"
       height="512" /><bx:grid
       x="0"
       y="0"
       width="512"
       height="512" /><bx:grid
       x="0"
       y="0"
       width="512"
       height="512" /><bx:grid
       x="0"
       y="0"
       width="512"
       height="512" /><bx:grid
       x="0"
       y="0"
       width="512"
       height="512" /><bx:grid
       x="0"
       y="0"
       width="512"
       height="512" /><bx:grid
       x="0"
       y="0"
       width="512"
       height="512" /><bx:grid
       x="0"
       y="0"
       width="512"
       height="512" /><bx:grid
       x="0"
       y="0"
       width="512"
       height="512" /><bx:grid
       x="0"
       y="0"
       width="512"
       height="512" /><bx:grid
       x="0"
       y="0"
       width="512"
       height="512" /><bx:grid
       x="0"
       y="0"
       width="512"
       height="512" /><bx:grid
       x="0"
       y="0"
       width="512"
       height="512" /><bx:grid
       x="0"
       y="0"
       width="512"
       height="512" /><bx:grid
       x="0"
       y="0"
       width="512"
       height="512" /><bx:grid
       x="0"
       y="0"
       width="512"
       height="512" /><bx:grid
       x="0"
       y="0"
       width="512"
       height="512" /><bx:grid
       x="0"
       y="0"
       width="512"
       height="512" /><bx:grid
       x="0"
       y="0"
       width="512"
       height="512" /><bx:grid
       x="0"
       y="0"
       width="512"
       height="512" /><bx:grid
       x="0"
       y="0"
       width="512"
       height="512" /></defs><path
     d="m 4.4868071,0 c -0.32386,0.01 -0.47982,0.006 -0.585931,0.12305 l -0.002,0.002 v 0.0117 c -0.10578,0.11481 -0.15346,0.33847 -0.251961,0.79492 -0.69453,13.56513 -3.36263999,28.08835 -3.62499999,41.150393 -0.16516,1.427967 0.61209,4.731793 2.03124999,5.013672 L 18.506284,49.654327 C 18.824086,39.41179 8.8464261,26.32413 20.797356,22.94725 l 19.869139,5.38476 20.666019,4.64258 10.47655,8.078127 -3.43554,14.009766 -18.54101,0.43164 c -0.99665,0.679918 -1.029629,1.048063 -1.150399,1.710938 -0.582031,0.837318 29.607569,20.110719 30.544919,20.220703 l 25.265636,3.013672 c 0.93636,0.109662 1.2326,-0.310817 0.88086,-1.257813 l -3.39844,-11.677734 12.3711,0.152344 c 25.76833,7.150132 36.97429,20.052588 30.77931,49.269537 -11.96922,56.44934 40.65652,113.41296 68.39453,116.91406 5.69114,-23.24881 37.62549,-22.53114 50.61131,21.78711 -2.66313,12.92607 -5.6588,27.30129 6.79102,40.56054 7.80674,8.31435 13.7569,9.03291 23.92968,8.81836 l 0.58009,0.65235 -0.41016,-0.64844 20.07615,-45.08594 C 303.35542,212.00883 289.44668,165.37439 212.94773,168.61524 195.35105,152.30911 193.5931,147.3238 192.41844,131.63672 l 26.18554,5.6211 c -7.64365,-37.47929 2.1943,-95.677357 -79.80663,-110.65821 0.0435,-0.23816 0.0677,-0.47965 0.0527,-0.72461 l -0.42578,-8.44921 c -0.0866,-1.68382 -1.56256,-2.79195 -3.28906,-2.47266 l -29.39254,5.43555 -14.320315,-2.85157 c -0.0381,-0.0621 -0.0859,-0.12584 -0.16992,-0.20507 L 77.666485,4.70508 c -0.37862,-0.35092 -0.80857,-0.45339 -1.28515,-0.32422 -0.158959,0.0427 -0.31843,0.10831 -0.48828,0.20508 L 63.002436,11.88282 15.760247,2.48438 c -0.0561,-0.009 -0.10845,0.004 -0.16406,-0.002 z m 325.2070329,276.23829 -21.0293,44.3125 167.62635,189.43732 c 10.79047,10.08177 44.31655,-22.34205 33.64513,-32.28498 z"
     fill="#a2a3c1"
     stroke-width="0.770254"
     id="path3-6"
     sodipodi:nodetypes="ccccccccccccccccccccsccscccccccccccccccccccccccccc"
     style="fill:#a3abc2" /><path
     id="path1"
     style="display:inline;fill:#4eb5fd;fill-rule:evenodd;stroke-width:1.84102;paint-order:stroke fill markers"
     d="m 106.31275,296.17419 c -57.843036,-2e-4 -104.7341249,46.8909 -104.7339279,104.73392 2.66e-4,57.84271 46.8912179,104.73328 104.7339279,104.73308 57.84269,2e-4 104.73364,-46.89038 104.7339,-104.73308 2.1e-4,-57.84302 -46.89088,-104.73411 -104.7339,-104.73392 z m 0,8.42734 c 53.18854,2.3e-4 96.30633,43.11801 96.30657,96.30658 -2.4e-4,53.18856 -43.11803,96.30635 -96.30657,96.30658 -53.188568,-2.3e-4 -96.306357,-43.11802 -96.306589,-96.30658 2.27e-4,-53.18857 43.118021,-96.30635 96.306589,-96.30658 z m 57.87195,24.51483 c -14.9017,1.31924 -29.78683,3.26864 -44.77289,3.70206 -41.411039,0.93362 -52.422702,0.57549 -59.663187,0.1506 -12.832643,-0.30625 -9.787886,31.44015 -9.428781,44.08771 l 0.07446,5.25401 c 2.043803,-11.67283 2.638507,-21.40285 10.876982,-30.64897 7.812175,-8.4994 11.971623,-9.91293 33.864127,-9.78686 11.692339,0.0674 14.764779,0.33751 15.837339,1.39633 3.73931,3.69115 -17.160272,23.06679 -29.308698,47.7446 -8.394348,17.05193 -23.371538,58.83681 -24.751593,71.72566 -0.591049,6.64571 -0.7735,11.58626 -0.578948,15.82396 0.265386,5.7803 4.763248,-6.61012 7.560593,-20.83034 l 22.42912,-50.71546 c 0.50498,-1.15087 1.183516,-2.40031 2.200327,-2.51071 l 14.958059,-0.73957 c 18.7216,-0.92501 21.46008,-0.74688 36.81658,2.40028 10.7967,2.21266 14.8426,20.80061 15.10612,22.06602 0.28534,1.37018 0.74095,2.27078 1.01232,2.00288 -0.99412,-14.3297 -1.69652,-28.04786 -1.30096,-42.70058 -2.47438,0.76722 -2.86616,1.63024 -7.41083,2.33921 l -0.002,-0.01 c -12.39125,1.41578 -39.16934,5.381 -47.13637,-3.38833 11.96968,-40.16166 60.05533,-48.40468 63.61791,-57.36245 z"
     sodipodi:nodetypes="ccccccccccccccccccscsccccssccccccc" /></svg>
