<?xml version="1.0" encoding="UTF-8" standalone="no"?>
<!-- Created with Inkscape (http://www.inkscape.org/) -->

<svg
   width="512"
   height="512"
   viewBox="0 0 135.46666 135.46667"
   version="1.1"
   id="svg1"
   inkscape:version="1.4 (86a8ad7, 2024-10-11)"
   sodipodi:docname="KWD_KIT_StaffDamageType_Construct_A.svg"
   xmlns:inkscape="http://www.inkscape.org/namespaces/inkscape"
   xmlns:sodipodi="http://sodipodi.sourceforge.net/DTD/sodipodi-0.dtd"
   xmlns="http://www.w3.org/2000/svg"
   xmlns:svg="http://www.w3.org/2000/svg">
  <sodipodi:namedview
     id="namedview1"
     pagecolor="#ffffff"
     bordercolor="#000000"
     borderopacity="0.25"
     inkscape:showpageshadow="2"
     inkscape:pageopacity="0.0"
     inkscape:pagecheckerboard="0"
     inkscape:deskcolor="#d1d1d1"
     inkscape:document-units="px"
     showgrid="true"
     inkscape:zoom="0.5"
     inkscape:cx="281"
     inkscape:cy="-123"
     inkscape:window-width="1920"
     inkscape:window-height="1009"
     inkscape:window-x="1072"
     inkscape:window-y="386"
     inkscape:window-maximized="1"
     inkscape:current-layer="svg1">
    <inkscape:grid
       id="grid1"
       units="px"
       originx="0"
       originy="0"
       spacingx="0.26458332"
       spacingy="0.26458334"
       empcolor="#0099e5"
       empopacity="0.30196078"
       color="#0099e5"
       opacity="0.14901961"
       empspacing="5"
       dotted="false"
       gridanglex="30"
       gridanglez="30"
       visible="true" />
  </sodipodi:namedview>
  <defs
     id="defs1" />
  <g
     id="g3"
     transform="matrix(0.87445895,-0.87445895,0.87445895,0.87445895,-11.361987,99.558976)">
    <g
       id="g8">
      <path
         d="m 67.96786,-13.234365 c 0.156713,-0.144427 0.313549,-0.144365 0.470134,-6.4e-5 l 4.230007,3.8934099 c 0.04637,0.042529 0.07185,0.078593 0.07756,0.1085908 0.105551,0.1153006 0.14658,0.3105741 0.146517,0.4929921 l 1.217791,15.9622183 c -6.3e-5,0.059963 -0.01051,0.1173914 -0.02969,0.1710213 0.01918,0.018426 0.02963,0.038752 0.02963,0.059518 l -1.217663,5.5580966 c 0,0.09865 -0.20876,0.228006 -0.493752,0.227944 l -8.536373,-0.02039 c -0.285183,0 -0.383705,-0.108908 -0.383642,-0.207619 L 62.260521,7.4533215 c 5e-6,-0.020768 0.01045,-0.041091 0.02957,-0.059583 -0.01906,-0.053627 -0.02957,-0.1109942 -0.02951,-0.1709576 l 1.217796,-15.9622183 c 0,-0.1624734 0.06902,-0.3541992 0.181216,-0.4883061 0.0037,-0.030708 0.02963,-0.068509 0.07826,-0.1132126 z"
         style="fill:#cb974d;fill-opacity:1;stroke:none;stroke-width:0.0895448"
         id="path1"
         transform="matrix(0.97608189,0,0,0.97608189,-3.063607,-25.889893)" />
    </g>
    <path
       id="rect3"
       style="fill:#a3abc2;fill-opacity:1;stroke-width:1.34741"
       d="m 68.779367,-17.944471 c -4.694922,-0.06884 -9.203403,1.645073 -11.801184,3.963839 -2.549495,2.275662 -3.278285,5.1638613 -0.5788,7.585191 -5.680377,9.7496532 -5.868835,27.758361 7.491864,26.676601 l -3.925309,3.531879 2.207317,10.068209 c 4.121315,-1.499509 8.068927,-1.260864 11.914205,0 L 76.294349,23.812611 72.325373,20.28801 c 12.969379,1.086868 12.82697,-16.2499244 7.539812,-26.2420732 3.41034,-3.1142051 1.179201,-6.2459358 -0.60363,-8.0406968 -3.066203,-2.764455 -6.830582,-3.896167 -10.482188,-3.949711 z m -0.507734,2.481734 c 8.967288,0 12.893451,5.452228 10.008274,7.1609376 -0.291597,-0.455925 -0.590107,-0.8869713 -0.894315,-1.2898849 -0.912624,-1.2087407 -1.875335,-2.1618867 -2.848621,-2.7565777 0.581543,2.8247539 9.646625,27.268464 -0.899023,29.8874 -0.340181,0.08448 -0.702491,0.145808 -1.088247,0.181517 l 0.655859,-1.252639 h 4.28e-4 C 85.217492,13.680021 64.858157,-3.6085885 60.046422,-7.2585038 l 0.07021,-0.2119127 c 0.799251,-2.3663332 1.477436,-4.2475325 1.607111,-4.8774175 -1.117951,0.683084 -2.75174,2.3769077 -3.782321,3.8486775 -2.692941,-1.4002399 0.8667,-6.9635805 10.330211,-6.9635805 z M 60.04,-7.2396671 59.446217,-5.4262079 c 0.01443,-0.045046 0.02619,-0.096885 0.04067,-0.1417032 z m -0.714937,2.234716 c 2.493853,2.0743269 18.337492,15.3795931 15.022685,19.2926201 l -1.45599,-1.276185 -9.413634,-4.28e-4 -1.566014,1.276613 1.798476,3.432986 C 54.920147,16.906924 56.53704,3.9326805 59.325063,-5.0049511 Z M 68.02804,36.149785 c -3.840363,0.01488 -7.646986,1.100169 -8.062102,3.211227 -0.199302,1.081121 0.884936,1.984701 1.984274,1.984701 h 0.786431 l 0.50431,19.623547 -1.355385,4.28e-4 c -0.75085,2.38e-4 -1.355814,0.603682 -1.355814,1.354529 v 1.355814 c 0,0.750848 0.604538,1.355385 1.355386,1.355385 h 1.355813 l -4.28e-4,18.974537 h -1.354957 c -0.75085,0 -1.35629,0.604112 -1.355814,1.354957 l 8.57e-4,1.355813 c 0,0.750856 0.60368,1.354957 1.354529,1.354957 h 1.255636 v 39.68505 c -2.5e-5,1.11298 0.902543,2.01554 2.015525,2.01552 h 3.037416 c 2.57e-4,4.8e-4 5.98e-4,8.6e-4 8.56e-4,8.6e-4 2.55e-4,-4.7e-4 6.02e-4,-8.6e-4 8.57e-4,-8.6e-4 h 2.764712 c 1.265001,1.7e-4 2.290536,-1.02493 2.290369,-2.28994 l -4.28e-4,-39.41063 h 1.253496 c 0.750847,0 1.354957,-0.604101 1.354957,-1.354957 V 85.36491 c 0,-0.750845 -0.603681,-1.354957 -1.354529,-1.354957 H 73.14905 l -4.28e-4,-18.974537 h 1.354957 c 0.750847,0 1.354957,-0.604537 1.354957,-1.355385 v -1.355814 c 0,-0.750847 -0.603682,-1.354529 -1.354529,-1.354529 l -1.355385,-4.28e-4 0.503881,-19.623547 h 0.656716 c 1.099338,0 2.2553,-0.919187 1.984702,-1.984701 -0.551246,-2.17059 -4.425518,-3.22611 -8.265881,-3.211227 z"
       transform="matrix(0.97608189,0,0,0.97608189,-3.063607,-25.889893)" />
  </g>
  <path
     d="m 130.81433,3.4434048 q 1.70816,0 2.94513,1.354756 1.17804,1.2958537 1.17804,3.1807314 0,1.8848779 -1.17804,3.1807318 -1.23697,1.354755 -2.94513,1.354755 h -0.47123 -0.11778 v 0.0589 q -0.0588,2.17939 -1.59038,3.710855 -1.59036,1.649265 -3.88757,1.649265 h -0.0588 q -0.11781,0.942439 -0.76572,1.590367 -0.58906,0.589025 -1.35477,0.706831 l 0.0588,0.647925 q 0,1.060244 -0.76572,1.825975 -0.76573,0.765733 -1.82597,0.765733 -1.06025,0 -1.82599,-0.765733 -0.58901,-0.589023 -0.70682,-1.354755 -0.82464,-0.530122 -1.64927,-0.412318 -1.11914,0.235611 -2.23829,0 -1.53147,17.847439 3.23964,29.333413 l -3.94648,-4.005365 -3.18071,2.356097 -3.35745,-1.943779 -3.71086,3.475242 q 5.30121,-13.488657 3.12182,-32.808655 -2.4739,0.412315 -3.71084,2.414999 -2.532811,4.182074 -5.713548,1.001343 3.357447,1.23695 5.360128,-2.709514 0.88353,-2.061584 3.23964,-2.356098 -1.00133,-1.884878 -3.18073,-1.354756 l -2.591719,1.17805 q -1.531468,0.824633 -2.886218,1.060243 0.353411,-0.765732 0.176708,-1.590366 -5.536832,1.001337 -7.303906,-4.771101 Q 88.816891,8.6268071 87.462134,7.0364416 L 86.10738,4.3858404 q 1.884878,0.2945121 2.709511,2.8862195 0.412317,2.120487 1.708172,4.1820721 1.943779,3.12183 4.123169,2.120488 1.060239,-1.001341 0,-4.9478044 -3.357438,-0.5890243 -4.8889,-4.4765851 l 2.591706,2.2382927 q 1.178047,1.001341 1.94378,0.7068291 0.824638,-0.6479269 0.589022,-1.7081707 -0.235608,-1.5314632 -0.883534,-3.0040239 2.532806,1.7081707 2.002676,6.832682 -0.117794,1.5903663 0.294521,3.1218293 0.589026,2.415 2.827317,1.119146 1.41366,-0.76573 0.706821,-2.002683 L 97.652253,6.624133 q 1.708171,-1.4136587 0,-3.5341462 3.534157,1.8848777 1.295854,4.2998774 0.765742,1.7670739 2.356113,3.5930498 2.82733,2.532803 4.00535,1.178048 0.82464,-1.708171 -1.11913,-3.887561 -1.94378,-2.1793898 -1.826,-4.5354873 1.17806,3.7697554 3.76977,2.2382924 0,1.0013412 -1.06025,1.531463 1.41367,1.7081706 1.53148,4.5943909 0.1178,1.767073 0.76573,2.061585 1.82597,-0.23561 1.00133,-2.768415 -0.76572,-1.7081706 -0.76572,-3.5341461 0,-2.7095121 1.88488,-4.6532922 1.94378,-1.884878 4.65328,-1.884878 2.70953,0 4.5944,1.884878 0.94243,0.9424388 1.41366,2.061585 l 1.29584,0.2945122 0.64792,-0.7657315 q 1.64928,-1.6492683 4.00539,-1.6492683 1.59034,0 2.8273,0.7657316 0.88354,-0.4712194 1.88488,-0.4712194 m -23.32536,41.2906077 2.17939,2.120487 2.29719,-2.356098 -2.35611,-4.358779 -2.12047,4.59439"
     fill="#ffffff"
     fill-rule="evenodd"
     stroke="none"
     id="path727"
     style="fill:#cb974d;fill-opacity:1;stroke-width:1.17804" />
</svg>
