<?xml version="1.0" encoding="UTF-8" standalone="no"?>
<svg
   viewBox="0 0 512 512"
   version="1.1"
   id="svg1"
   sodipodi:docname="KWD_KIT_StaffDamageType_AshFireRune_D.svg"
   width="512"
   height="512"
   xml:space="preserve"
   inkscape:version="1.3.2 (091e20e, 2023-11-25, custom)"
   xmlns:inkscape="http://www.inkscape.org/namespaces/inkscape"
   xmlns:sodipodi="http://sodipodi.sourceforge.net/DTD/sodipodi-0.dtd"
   xmlns="http://www.w3.org/2000/svg"
   xmlns:svg="http://www.w3.org/2000/svg"
   xmlns:bx="https://boxy-svg.com"><sodipodi:namedview
     id="namedview1"
     pagecolor="#ffffff"
     bordercolor="#000000"
     borderopacity="0.25"
     inkscape:showpageshadow="2"
     inkscape:pageopacity="0.0"
     inkscape:pagecheckerboard="0"
     inkscape:deskcolor="#d1d1d1"
     showgrid="true"
     inkscape:zoom="1"
     inkscape:cx="164"
     inkscape:cy="239.5"
     inkscape:window-width="1920"
     inkscape:window-height="1009"
     inkscape:window-x="1042"
     inkscape:window-y="235"
     inkscape:window-maximized="1"
     inkscape:current-layer="svg1"><inkscape:grid
       id="grid1"
       units="px"
       originx="0"
       originy="0"
       spacingx="1"
       spacingy="1"
       empcolor="#0099e5"
       empopacity="0.30196078"
       color="#0099e5"
       opacity="0.14901961"
       empspacing="5"
       dotted="false"
       gridanglex="30"
       gridanglez="30"
       visible="true" /></sodipodi:namedview><defs
     id="defs1"><inkscape:path-effect
       effect="fillet_chamfer"
       id="path-effect1"
       is_visible="true"
       lpeversion="1"
       nodesatellites_param="F,0,0,1,0,0,0,1 @ F,0,0,1,0,0,0,1 @ F,0,0,1,0,5,0,1 @ F,0,0,1,0,5,0,1"
       radius="0"
       unit="px"
       method="auto"
       mode="F"
       chamfer_steps="1"
       flexible="false"
       use_knot_distance="true"
       apply_no_radius="true"
       apply_with_radius="true"
       only_selected="false"
       hide_knots="false" /><bx:grid
       x="0"
       y="0"
       width="512"
       height="512" /><bx:grid
       x="0"
       y="0"
       width="512"
       height="512" /><bx:grid
       x="0"
       y="0"
       width="100"
       height="100" /><bx:grid
       x="0"
       y="0"
       width="512"
       height="512" /><bx:grid
       x="0"
       y="0"
       width="512"
       height="512" /><bx:grid
       x="0"
       y="0"
       width="512"
       height="512" /><bx:grid
       x="0"
       y="0"
       width="512"
       height="512" /><bx:grid
       x="0"
       y="0"
       width="512"
       height="512" /><bx:grid
       x="0"
       y="0"
       width="512"
       height="512" /><bx:grid
       x="0"
       y="0"
       width="512"
       height="512" /><bx:grid
       x="0"
       y="0"
       width="100"
       height="100" /><bx:grid
       x="0"
       y="0"
       width="512"
       height="512" /><bx:grid
       x="0"
       y="0"
       width="512"
       height="512" /><bx:grid
       x="0"
       y="0"
       width="512"
       height="512" /><bx:grid
       x="0"
       y="0"
       width="512"
       height="512" /><bx:grid
       x="0"
       y="0"
       width="512"
       height="512" /><bx:grid
       x="0"
       y="0"
       width="512"
       height="512" /><bx:grid
       x="0"
       y="0"
       width="512"
       height="512" /><bx:grid
       x="0"
       y="0"
       width="512"
       height="512" /><bx:grid
       x="0"
       y="0"
       width="512"
       height="512" /><bx:grid
       x="0"
       y="0"
       width="512"
       height="512" /><bx:grid
       x="0"
       y="0"
       width="512"
       height="512" /><bx:grid
       x="0"
       y="0"
       width="512"
       height="512" /><bx:grid
       x="0"
       y="0"
       width="512"
       height="512" /><bx:grid
       x="0"
       y="0"
       width="512"
       height="512" /><bx:grid
       x="0"
       y="0"
       width="512"
       height="512" /><bx:grid
       x="0"
       y="0"
       width="100"
       height="100" /><bx:grid
       x="0"
       y="0"
       width="100"
       height="100" /><bx:grid
       x="0"
       y="0"
       width="100"
       height="100" /><bx:grid
       x="0"
       y="0"
       width="100"
       height="100" /><bx:grid
       x="0"
       y="0"
       width="100"
       height="100" /><bx:grid
       x="0"
       y="0"
       width="512"
       height="512" /><bx:grid
       x="0"
       y="0"
       width="512"
       height="512" /><bx:grid
       x="0"
       y="0"
       width="512"
       height="512" /><bx:grid
       x="0"
       y="0"
       width="512"
       height="512" /><bx:grid
       x="0"
       y="0"
       width="512"
       height="512" /><bx:grid
       x="0"
       y="0"
       width="512"
       height="512" /><bx:grid
       x="0"
       y="0"
       width="512"
       height="512" /><bx:grid
       x="0"
       y="0"
       width="512"
       height="512" /><bx:grid
       x="0"
       y="0"
       width="512"
       height="512" /><bx:grid
       x="0"
       y="0"
       width="512"
       height="512" /><bx:grid
       x="0"
       y="0"
       width="512"
       height="512" /><bx:grid
       x="0"
       y="0"
       width="512"
       height="512" /><bx:grid
       x="0"
       y="0"
       width="512"
       height="512" /><bx:grid
       x="0"
       y="0"
       width="512"
       height="512" /><bx:grid
       x="0"
       y="0"
       width="512"
       height="512" /><bx:grid
       x="0"
       y="0"
       width="512"
       height="512" /><bx:grid
       x="0"
       y="0"
       width="512"
       height="512" /><bx:grid
       x="0"
       y="0"
       width="512"
       height="512" /><bx:grid
       x="0"
       y="0"
       width="512"
       height="512" /><bx:grid
       x="0"
       y="0"
       width="512"
       height="512" /><bx:grid
       x="0"
       y="0"
       width="512"
       height="512" /><bx:grid
       x="0"
       y="0"
       width="512"
       height="512" /><bx:grid
       x="0"
       y="0"
       width="512"
       height="512" /><bx:grid
       x="0"
       y="0"
       width="512"
       height="512" /><bx:grid
       x="0"
       y="0"
       width="512"
       height="512" /><bx:grid
       x="0"
       y="0"
       width="512"
       height="512" /><bx:grid
       x="0"
       y="0"
       width="512"
       height="512" /><bx:grid
       x="0"
       y="0"
       width="512"
       height="512" /><bx:grid
       x="0"
       y="0"
       width="512"
       height="512" /><bx:grid
       x="0"
       y="0"
       width="512"
       height="512" /><bx:grid
       x="0"
       y="0"
       width="512"
       height="512" /><bx:grid
       x="0"
       y="0"
       width="512"
       height="512" /><bx:grid
       x="0"
       y="0"
       width="512"
       height="512" /><bx:grid
       x="0"
       y="0"
       width="512"
       height="512" /><bx:grid
       x="0"
       y="0"
       width="512"
       height="512" /><bx:grid
       x="0"
       y="0"
       width="512"
       height="512" /><bx:grid
       x="0"
       y="0"
       width="512"
       height="512" /><bx:grid
       x="0"
       y="0"
       width="512"
       height="512" /><bx:grid
       x="0"
       y="0"
       width="512"
       height="512" /><bx:grid
       x="0"
       y="0"
       width="512"
       height="512" /><bx:grid
       x="0"
       y="0"
       width="512"
       height="512" /><bx:grid
       x="0"
       y="0"
       width="512"
       height="512" /><bx:grid
       x="0"
       y="0"
       width="512"
       height="512" /><bx:grid
       x="0"
       y="0"
       width="512"
       height="512" /><bx:grid
       x="0"
       y="0"
       width="512"
       height="512" /><bx:grid
       x="0"
       y="0"
       width="512"
       height="512" /><bx:grid
       x="0"
       y="0"
       width="512"
       height="512" /><bx:grid
       x="0"
       y="0"
       width="512"
       height="512" /><bx:grid
       x="0"
       y="0"
       width="512"
       height="512" /><bx:grid
       x="0"
       y="0"
       width="512"
       height="512" /><bx:grid
       x="0"
       y="0"
       width="512"
       height="512" /><bx:grid
       x="0"
       y="0"
       width="512"
       height="512" /><bx:grid
       x="0"
       y="0"
       width="512"
       height="512" /></defs><path
     d="m 3.2078611,-191.61521 c -0.206344,0.006 -0.305711,0.004 -0.373318,0.0795 l -0.0013,0.001 v 0.008 c -0.0674,0.0742 -0.09778,0.21864 -0.160534,0.51349 -0.442511,8.76265 -2.14246298,18.14421 -2.30962294,26.58188 -0.105229,0.92242 0.38998596,3.05659 1.29418594,3.23868 l 10.4828979,1.65277 c 0.202483,-6.61636 -6.1546579,-15.07059 1.459727,-17.25195 l 12.659372,3.47839 13.167094,2.99897 6.675001,5.21822 -2.188911,9.04987 -11.81317,0.27883 c -0.635003,0.4392 -0.656016,0.67701 -0.732963,1.10521 -0.370833,0.54088 18.86409,12.9909 19.461311,13.06195 l 16.097674,1.94674 c 0.596596,0.0708 0.785335,-0.20078 0.561228,-0.81251 l -2.165272,-7.54345 7.882089,0.0984 c 16.41797,4.61876 23.55771,12.95335 19.61065,31.82659 -7.62603,36.464523 25.9038,73.261261 43.57671,75.522863 3.62605,-15.018012 23.97261,-14.55442 32.24636,14.0738 -1.69678,8.349842 -3.60543,17.635788 4.32681,26.20085338 4.97396,5.37081292 8.76504,5.83498092 15.2465,5.69638792 l 0.36959,0.421398 -0.26133,-0.418872 12.79127,-29.1241223 c -7.48168,-30.951746 -16.34347,-61.076153 -65.0838,-58.982664 -11.2115,-10.533256 -12.33156,-13.753616 -13.07998,-23.886984 l 16.68379,3.63106 c -4.87006,-24.21045 1.39807,-61.80461 -50.8478,-71.48177 0.0277,-0.15385 0.0431,-0.30984 0.0336,-0.46808 l -0.27128,-5.45793 c -0.0552,-1.08769 -0.99556,-1.80351 -2.09558,-1.59726 l -18.727091,3.5112 -9.124001,-1.84203 c -0.02428,-0.0401 -0.05473,-0.0813 -0.108263,-0.13247 l -8.65611,-8.15662 c -0.241233,-0.22669 -0.51517,-0.29288 -0.818817,-0.20944 -0.10128,0.0276 -0.202884,0.07 -0.311102,0.13248 l -8.213096,4.71355 -30.099765,-6.0711 c -0.03574,-0.006 -0.0691,0.003 -0.104529,-0.001 z M 210.40941,-13.173822 197.01087,15.450682 303.81187,137.82134 c 6.87502,6.51252 28.23574,-14.43227 21.43658,-20.8551 z"
     fill="#a2a3c1"
     stroke-width="0.494147"
     id="path3-6-3"
     sodipodi:nodetypes="ccccccccccccccccccccsccscccccccccccccccccccccccccc"
     style="fill:#a3abc2"
     transform="matrix(1.5695202,0,0,1.5480617,-0.54795619,296.63217)" /><path
     id="path12-0"
     style="fill:#cc4f35;fill-opacity:1;stroke-width:2.2839"
     d="M 67.88942 -0.46766022 C 31.035536 -0.46779622 1.1591076 29.822769 1.1592336 67.187508 C 1.1594026 104.55203 31.035744 134.84154 67.88942 134.84141 C 104.74309 134.84154 134.61944 104.55203 134.61961 67.187508 C 134.61973 29.822769 104.7433 -0.46779022 67.88942 -0.46766022 z M 67.88942 4.9763956 C 101.77777 4.9765446 129.24984 32.829409 129.24998 67.187508 C 129.24983 101.54561 101.77777 129.39847 67.88942 129.39862 C 34.001066 129.39847 6.5290053 101.54561 6.5288583 67.187508 C 6.5290023 32.829409 34.001066 4.9765376 67.88942 4.9763956 z M 32.609181 20.261387 C 32.463692 22.35986 47.934686 28.058284 52.2248 30.762169 C 67.648898 43.987201 28.368237 39.091643 23.042165 39.30612 C 22.451372 40.532671 43.956004 67.671717 38.729185 95.716127 C 36.717422 106.51018 30.253627 89.044396 27.382664 89.395219 C 22.999588 91.823849 33.319068 110.73478 40.344427 113.41719 C 51.477864 114.70215 58.023771 100.7781 64.311744 93.750463 C 66.981181 91.807488 65.323194 88.391697 62.62557 91.430274 C 59.681823 94.288991 56.189658 95.840809 52.870648 98.691118 C 49.583174 100.90807 42.019074 102.2868 44.8243 95.289687 C 50.996471 79.894404 49.475199 64.277732 40.364338 50.044094 C 37.65758 47.346301 38.91825 46.602103 41.763054 48.684027 C 47.354908 54.618226 71.280984 42.708231 65.8573 35.854223 C 58.836494 24.553033 44.720114 22.349831 32.609181 20.261387 z M 112.73543 35.222132 C 98.97885 42.458677 87.050087 39.939756 71.986014 40.849128 C 71.888114 44.406122 77.057015 44.47612 79.864367 46.025712 C 82.689819 47.585295 94.120581 51.189039 92.467741 78.484397 C 88.794152 87.83174 86.265719 98.602637 78.387254 105.9015 C 76.088567 108.03105 69.165334 109.28218 71.477051 112.0647 C 76.028177 111.73011 82.406901 114.15696 84.915423 109.02284 C 95.186908 98.821593 103.41258 73.672867 107.23141 73.003753 C 112.1327 72.144961 109.89823 93.013502 110.26901 97.380255 C 116.27218 93.158554 121.83492 67.889685 115.91863 54.81064 C 113.50953 51.335237 109.42256 57.617515 110.3611 61.412898 C 111.9224 67.726704 101.33205 67.59128 99.270925 62.090408 C 96.780086 57.458824 92.904978 52.092273 94.955315 46.636355 C 98.481078 44.101187 103.00088 46.132715 106.32921 47.890443 C 108.72144 49.153809 104.14973 55.22129 107.59104 56.150521 C 111.76233 53.999272 113.52441 49.132176 114.89821 44.896528 C 115.54483 41.743213 116.42819 36.771317 112.73543 35.222132 z "
     transform="matrix(1.5695202,0,0,1.5480617,-0.54795619,296.63217)" /></svg>
