<?xml version="1.0" encoding="UTF-8" standalone="no"?>
<svg
   viewBox="0 0 512 512"
   version="1.1"
   id="svg1"
   sodipodi:docname="KWD_KIT_StaffDamage_Frost.svg"
   width="512"
   height="512"
   xml:space="preserve"
   inkscape:version="1.3.2 (091e20e, 2023-11-25, custom)"
   xmlns:inkscape="http://www.inkscape.org/namespaces/inkscape"
   xmlns:sodipodi="http://sodipodi.sourceforge.net/DTD/sodipodi-0.dtd"
   xmlns="http://www.w3.org/2000/svg"
   xmlns:svg="http://www.w3.org/2000/svg"
   xmlns:bx="https://boxy-svg.com"><sodipodi:namedview
     id="namedview1"
     pagecolor="#ffffff"
     bordercolor="#000000"
     borderopacity="0.25"
     inkscape:showpageshadow="2"
     inkscape:pageopacity="0.0"
     inkscape:pagecheckerboard="0"
     inkscape:deskcolor="#d1d1d1"
     showgrid="true"
     inkscape:zoom="1"
     inkscape:cx="253"
     inkscape:cy="262.5"
     inkscape:window-width="1920"
     inkscape:window-height="1017"
     inkscape:window-x="1042"
     inkscape:window-y="276"
     inkscape:window-maximized="1"
     inkscape:current-layer="svg1"><inkscape:grid
       id="grid1"
       units="px"
       originx="0"
       originy="0"
       spacingx="1"
       spacingy="1"
       empcolor="#0099e5"
       empopacity="0.30196078"
       color="#0099e5"
       opacity="0.14901961"
       empspacing="5"
       dotted="false"
       gridanglex="30"
       gridanglez="30"
       visible="true" /></sodipodi:namedview><defs
     id="defs1"><inkscape:path-effect
       effect="fillet_chamfer"
       id="path-effect1"
       is_visible="true"
       lpeversion="1"
       nodesatellites_param="F,0,0,1,0,0,0,1 @ F,0,0,1,0,0,0,1 @ F,0,0,1,0,5,0,1 @ F,0,0,1,0,5,0,1"
       radius="0"
       unit="px"
       method="auto"
       mode="F"
       chamfer_steps="1"
       flexible="false"
       use_knot_distance="true"
       apply_no_radius="true"
       apply_with_radius="true"
       only_selected="false"
       hide_knots="false" /><bx:grid
       x="0"
       y="0"
       width="512"
       height="512" /><bx:grid
       x="0"
       y="0"
       width="512"
       height="512" /><bx:grid
       x="0"
       y="0"
       width="100"
       height="100" /><bx:grid
       x="0"
       y="0"
       width="512"
       height="512" /><bx:grid
       x="0"
       y="0"
       width="512"
       height="512" /><bx:grid
       x="0"
       y="0"
       width="512"
       height="512" /><bx:grid
       x="0"
       y="0"
       width="512"
       height="512" /><bx:grid
       x="0"
       y="0"
       width="512"
       height="512" /><bx:grid
       x="0"
       y="0"
       width="512"
       height="512" /><bx:grid
       x="0"
       y="0"
       width="512"
       height="512" /><bx:grid
       x="0"
       y="0"
       width="100"
       height="100" /><bx:grid
       x="0"
       y="0"
       width="512"
       height="512" /><bx:grid
       x="0"
       y="0"
       width="512"
       height="512" /><bx:grid
       x="0"
       y="0"
       width="512"
       height="512" /><bx:grid
       x="0"
       y="0"
       width="512"
       height="512" /><bx:grid
       x="0"
       y="0"
       width="512"
       height="512" /><bx:grid
       x="0"
       y="0"
       width="512"
       height="512" /><bx:grid
       x="0"
       y="0"
       width="512"
       height="512" /><bx:grid
       x="0"
       y="0"
       width="512"
       height="512" /><bx:grid
       x="0"
       y="0"
       width="512"
       height="512" /><bx:grid
       x="0"
       y="0"
       width="512"
       height="512" /><bx:grid
       x="0"
       y="0"
       width="512"
       height="512" /><bx:grid
       x="0"
       y="0"
       width="512"
       height="512" /><bx:grid
       x="0"
       y="0"
       width="512"
       height="512" /><bx:grid
       x="0"
       y="0"
       width="512"
       height="512" /><bx:grid
       x="0"
       y="0"
       width="512"
       height="512" /><bx:grid
       x="0"
       y="0"
       width="100"
       height="100" /><bx:grid
       x="0"
       y="0"
       width="100"
       height="100" /><bx:grid
       x="0"
       y="0"
       width="100"
       height="100" /><bx:grid
       x="0"
       y="0"
       width="100"
       height="100" /><bx:grid
       x="0"
       y="0"
       width="100"
       height="100" /><bx:grid
       x="0"
       y="0"
       width="512"
       height="512" /><bx:grid
       x="0"
       y="0"
       width="512"
       height="512" /><bx:grid
       x="0"
       y="0"
       width="512"
       height="512" /><bx:grid
       x="0"
       y="0"
       width="512"
       height="512" /><bx:grid
       x="0"
       y="0"
       width="512"
       height="512" /><bx:grid
       x="0"
       y="0"
       width="512"
       height="512" /><bx:grid
       x="0"
       y="0"
       width="512"
       height="512" /><bx:grid
       x="0"
       y="0"
       width="512"
       height="512" /><bx:grid
       x="0"
       y="0"
       width="512"
       height="512" /><bx:grid
       x="0"
       y="0"
       width="512"
       height="512" /><bx:grid
       x="0"
       y="0"
       width="512"
       height="512" /><bx:grid
       x="0"
       y="0"
       width="512"
       height="512" /><bx:grid
       x="0"
       y="0"
       width="512"
       height="512" /><bx:grid
       x="0"
       y="0"
       width="512"
       height="512" /><bx:grid
       x="0"
       y="0"
       width="512"
       height="512" /><bx:grid
       x="0"
       y="0"
       width="512"
       height="512" /><bx:grid
       x="0"
       y="0"
       width="512"
       height="512" /><bx:grid
       x="0"
       y="0"
       width="512"
       height="512" /><bx:grid
       x="0"
       y="0"
       width="512"
       height="512" /><bx:grid
       x="0"
       y="0"
       width="512"
       height="512" /><bx:grid
       x="0"
       y="0"
       width="512"
       height="512" /><bx:grid
       x="0"
       y="0"
       width="512"
       height="512" /><bx:grid
       x="0"
       y="0"
       width="512"
       height="512" /><bx:grid
       x="0"
       y="0"
       width="512"
       height="512" /><bx:grid
       x="0"
       y="0"
       width="512"
       height="512" /><bx:grid
       x="0"
       y="0"
       width="512"
       height="512" /><bx:grid
       x="0"
       y="0"
       width="512"
       height="512" /><bx:grid
       x="0"
       y="0"
       width="512"
       height="512" /><bx:grid
       x="0"
       y="0"
       width="512"
       height="512" /><bx:grid
       x="0"
       y="0"
       width="512"
       height="512" /><bx:grid
       x="0"
       y="0"
       width="512"
       height="512" /><bx:grid
       x="0"
       y="0"
       width="512"
       height="512" /><bx:grid
       x="0"
       y="0"
       width="512"
       height="512" /><bx:grid
       x="0"
       y="0"
       width="512"
       height="512" /><bx:grid
       x="0"
       y="0"
       width="512"
       height="512" /><bx:grid
       x="0"
       y="0"
       width="512"
       height="512" /><bx:grid
       x="0"
       y="0"
       width="512"
       height="512" /><bx:grid
       x="0"
       y="0"
       width="512"
       height="512" /><bx:grid
       x="0"
       y="0"
       width="512"
       height="512" /><bx:grid
       x="0"
       y="0"
       width="512"
       height="512" /><bx:grid
       x="0"
       y="0"
       width="512"
       height="512" /><bx:grid
       x="0"
       y="0"
       width="512"
       height="512" /><bx:grid
       x="0"
       y="0"
       width="512"
       height="512" /><bx:grid
       x="0"
       y="0"
       width="512"
       height="512" /><bx:grid
       x="0"
       y="0"
       width="512"
       height="512" /><bx:grid
       x="0"
       y="0"
       width="512"
       height="512" /><bx:grid
       x="0"
       y="0"
       width="512"
       height="512" /><bx:grid
       x="0"
       y="0"
       width="512"
       height="512" /><bx:grid
       x="0"
       y="0"
       width="512"
       height="512" /><bx:grid
       x="0"
       y="0"
       width="512"
       height="512" /><bx:grid
       x="0"
       y="0"
       width="512"
       height="512" /><bx:grid
       x="0"
       y="0"
       width="512"
       height="512" /><bx:grid
       x="0"
       y="0"
       width="512"
       height="512" /></defs><path
     d="m 4.4806455,0.09189325 c -0.32386,0.01 -0.47982,0.006 -0.58593,0.12305 l -0.002,0.002 v 0.0117 c -0.10578,0.11481 -0.15346,0.33847 -0.25196,0.79492005 -0.69453,13.5651297 -3.36264004,28.0883497 -3.62500004,41.1503927 -0.16516,1.427967 0.61209,4.731793 2.03125004,5.013672 L 18.500125,49.74622 c 0.3178,-10.242537 -9.6598595,-23.330197 2.29107,-26.707077 l 19.86914,5.38476 20.66602,4.64258 10.47655,8.078127 -3.43554,14.009766 -18.54101,0.43164 c -0.99665,0.679918 -1.02963,1.048063 -1.1504,1.710938 -0.58203,0.837318 29.60757,20.110719 30.54492,20.220703 l 25.265625,3.013672 c 0.93637,0.109662 1.2326,-0.310817 0.88086,-1.257813 l -3.39844,-11.677734 12.3711,0.152344 c 25.76834,7.150132 36.9743,20.052588 30.77931,49.269534 -11.96921,56.44934 40.65653,113.41296 68.39453,116.91406 5.69115,-23.24881 37.6255,-22.53114 50.61131,21.78711 -2.66313,12.92607 -5.65879,27.30129 6.79102,40.56054 7.80674,8.31435 13.75691,9.03291 23.92969,8.81836 l 0.58008,0.65235 -0.41016,-0.64844 20.07616,-45.08594 C 303.34926,212.10072 289.44051,165.46628 212.94157,168.70713 195.34489,152.401 193.58694,147.41569 192.41228,131.72861 l 26.18554,5.6211 c -7.64365,-37.479287 2.1943,-95.677354 -79.80664,-110.658207 0.0435,-0.23816 0.0677,-0.47965 0.0527,-0.72461 l -0.42578,-8.44921 c -0.0866,-1.68382 -1.56256,-2.79195 -3.28906,-2.47266 l -29.39255,5.43555 -14.320305,-2.85157 c -0.0381,-0.0621 -0.0859,-0.12584 -0.16992,-0.20507 L 77.660325,4.7969733 c -0.37862,-0.35092 -0.80857,-0.45339 -1.28515,-0.32422 -0.15896,0.0427 -0.31843,0.10831 -0.48828,0.20508 L 62.996275,11.974713 15.754085,2.5762733 c -0.0561,-0.009 -0.10845,0.004 -0.16406,-0.002 z M 329.68767,276.33018 308.65838,320.64268 476.28472,510.08 c 10.79047,10.08177 44.31656,-22.34205 33.64514,-32.28498 z"
     fill="#a2a3c1"
     stroke-width="0.770254"
     id="path3-6"
     sodipodi:nodetypes="ccccccccccccccccccccsccscccccccccccccccccccccccccc"
     style="fill:#a3abc2" /><path
     d="m 85.321746,313.36943 q 0,-7.10079 5.557136,-12.65792 Q 96.204473,295 103.15089,295 q 7.94981,0 13.50696,5.71151 5.55713,5.55713 5.55713,12.65792 0,7.64107 -5.94305,14.1244 -3.85913,3.08729 -5.71152,3.31882 v 50.47737 l 7.02361,-11.9633 -0.69463,-1.46646 -0.61746,-1.3121 q -1.85239,-3.70476 1.00337,-7.56388 4.0135,-7.02361 12.3492,-3.24166 2.93294,1.54362 3.93631,5.55714 0.84897,3.70473 -0.61746,6.71488 -1.69803,3.55039 -6.32896,4.63095 h -2.08393 -1.62085 l -7.56386,13.04384 44.99738,-26.08769 -0.0772,-3.01012 q -0.30874,-1.38929 0.0772,-3.16448 1.08054,-8.18135 8.95316,-12.58075 6.48333,-3.4732 13.7385,-1.698 7.56387,1.77519 11.50017,8.02697 3.31887,7.10079 1.62084,14.5875 -1.7752,7.56386 -8.64444,10.88273 -3.93631,2.00673 -7.64104,2.70138 -3.55042,0.92618 -7.56392,-0.69465 l -3.01012,-1.62082 -2.93293,-2.16111 -44.07119,25.77895 h 15.59086 q 0,-1.46646 1.15772,-2.93293 2.93294,-2.85578 7.1008,-2.85578 8.72163,0 8.72163,9.03036 0,9.03034 -8.72163,9.03034 -5.01688,0 -7.1008,-2.70138 -1.15772,-2.00674 -1.15772,-3.31884 h -15.05058 l 44.45709,26.01048 q 1.54365,-1.15772 3.0873,-1.6208 l 3.1645,-1.31211 q 7.94978,-2.54703 14.81904,1.31211 6.17458,3.85912 8.25851,11.11427 2.08393,7.33233 -2.08393,14.1244 -3.9363,7.02359 -11.50017,9.10753 -7.25518,2.08393 -13.7385,-2.00674 -7.87261,-4.55377 -8.95316,-13.73849 -0.38592,-1.38928 -0.0772,-2.85576 l 0.0772,-2.85576 -44.99738,-26.16487 8.18132,14.04723 1.00339,-0.15438 2.08393,0.15438 q 4.47657,1.54365 6.32896,4.16785 3.31883,7.71825 -3.31885,12.34921 -7.71825,4.24502 -12.34921,-2.85576 -3.31884,-4.16786 -1.00337,-8.25853 0.61747,-1.62084 2.16112,-2.31547 l -7.87262,-12.81229 v 51.09479 q 3.62758,1.69802 5.7115,3.62759 5.94306,5.32559 5.94306,13.89286 0,7.10078 -5.55714,12.6579 -5.55713,5.47998 -13.50694,5.47998 -6.946417,0 -12.272008,-5.47998 -5.557136,-5.55712 -5.557136,-12.6579 0,-8.87598 6.251779,-14.5875 l 2.855751,-1.698 2.855753,-1.23493 v -52.25256 l -7.949796,13.97005 q -0.231547,0.23155 0.771825,0.84901 l 0.463093,1.46646 q 1.620834,4.24504 -0.849005,8.25853 -3.781942,7.10079 -11.423009,2.85576 -8.258529,-4.63096 -3.318847,-12.3492 2.083927,-3.39605 5.32559,-4.16786 2.392659,-0.69463 3.704763,0 l 7.872611,-13.81566 -46.077944,25.93331 q 1.080556,2.00675 0.617462,5.7115 -1.698018,10.34246 -8.721619,13.73849 -6.328967,3.31885 -13.738486,1.77519 -7.409521,-1.54365 -11.191462,-8.87598 -3.0101158,-6.02024 -1.157735,-12.88947 1.775198,-7.02362 7.872612,-10.72837 7.332337,-4.24504 14.510309,-1.62083 l 3.859124,1.62083 47.004135,-26.0105 H 69.499337 l -0.154368,0.84901 -1.080556,2.46983 q -1.157735,2.70139 -6.483326,2.70139 -9.647813,0 -9.647813,-9.03034 0,-9.03036 9.647813,-9.03036 4.399399,0 6.097416,2.85576 l 1.620834,2.93293 h 15.822409 l -46.77259,-25.77898 q 0,0.30874 -3.318846,1.77522 -6.792058,3.31884 -15.745228,0 -6.483329,-3.31887 -8.798804,-10.88273 -2.3154743,-7.40953 2.083927,-14.04721 3.93631,-6.63771 11.037097,-7.87262 7.023606,-1.31211 13.043842,2.16112 6.406144,3.70474 8.335705,12.04046 l 0.07719,2.62419 -0.07719,2.93295 46.309496,25.62459 -7.486702,-12.58074 h -2.932938 q -3.936304,0 -6.097415,-4.63095 -2.392658,-3.01014 -1.466467,-6.71488 0.617457,-4.01352 3.859126,-5.55714 8.953168,-3.4732 12.349197,3.24166 2.161108,3.78194 0.849005,7.56388 l -0.463093,1.3121 q -1.003372,0.69464 -0.771825,1.46646 l 7.949796,13.81568 v -52.32974 q -1.234919,-0.0772 -5.711504,-2.62419 -6.251779,-6.86925 -6.251779,-14.81904"
     fill="#38ffff"
     fill-rule="evenodd"
     stroke="none"
     id="path516"
     style="fill:#a3e5f5;fill-opacity:1;stroke-width:1.54365" /></svg>
