<?xml version="1.0" encoding="UTF-8" standalone="no"?>
<!-- Created with Inkscape (http://www.inkscape.org/) -->

<svg
   width="512"
   height="512"
   viewBox="0 0 135.46666 135.46667"
   version="1.1"
   id="svg1"
   inkscape:version="1.3.2 (091e20e, 2023-11-25, custom)"
   sodipodi:docname="KWD_KIT_StaffSummonFire.svg"
   xmlns:inkscape="http://www.inkscape.org/namespaces/inkscape"
   xmlns:sodipodi="http://sodipodi.sourceforge.net/DTD/sodipodi-0.dtd"
   xmlns="http://www.w3.org/2000/svg"
   xmlns:svg="http://www.w3.org/2000/svg">
  <sodipodi:namedview
     id="namedview1"
     pagecolor="#ffffff"
     bordercolor="#000000"
     borderopacity="0.25"
     inkscape:showpageshadow="2"
     inkscape:pageopacity="0.0"
     inkscape:pagecheckerboard="0"
     inkscape:deskcolor="#d1d1d1"
     inkscape:document-units="px"
     showgrid="true"
     inkscape:zoom="1.4142136"
     inkscape:cx="234.05234"
     inkscape:cy="175.00893"
     inkscape:window-width="1920"
     inkscape:window-height="1017"
     inkscape:window-x="1042"
     inkscape:window-y="276"
     inkscape:window-maximized="1"
     inkscape:current-layer="svg1">
    <inkscape:grid
       id="grid1"
       units="px"
       originx="0"
       originy="0"
       spacingx="0.26458332"
       spacingy="0.26458334"
       empcolor="#0099e5"
       empopacity="0.30196078"
       color="#0099e5"
       opacity="0.14901961"
       empspacing="5"
       dotted="false"
       gridanglex="30"
       gridanglez="30"
       visible="true" />
  </sodipodi:namedview>
  <defs
     id="defs1" />
  <g
     id="g1"
     transform="matrix(0.9359247,-0.9359247,0.8846806,0.8846806,-11.594522,107.26784)">
    <path
       id="rect12"
       style="display:inline;fill:#d2902d;fill-opacity:1;stroke-width:0.434681"
       d="m 70.995198,-34.783593 c -0.08063,-0.05731 -0.18031,-0.03246 -0.299846,0.07469 l -4.30845,3.851702 c -0.04959,0.04425 -0.07922,0.08175 -0.08953,0.113118 -0.121878,0.132994 -0.222298,0.325733 -0.261293,0.490026 l -2.691285,9.039306 -1.879496,-5.914538 c -0.0472,-0.184444 -0.129928,-0.379338 -0.243575,-0.490511 -0.012,-0.02987 -0.04189,-0.06499 -0.08895,-0.105467 l -4.35507,-3.715588 c -0.161555,-0.137718 -0.285463,-0.129081 -0.371484,0.02482 l -2.333664,4.154226 c -0.02686,0.04773 -0.03748,0.08731 -0.03218,0.118677 -0.05451,0.141214 -0.0594,0.338284 -0.01702,0.502366 l 3.180473,16.194533 c 0.01556,0.06049 0.03824,0.118023 0.06759,0.171157 -0.01041,0.01982 -0.01338,0.04083 -0.0077,0.06206 l 2.405264,5.553887 c 0.02546,0.099428 0.131544,0.2044326 0.357093,0.1897178 l 6.28898,-0.4706155 c 0.225246,-0.014756 0.35651,-0.1565129 0.330997,-0.255945 l -0.0028,-0.9364666 1.296104,-0.031646 0.03676,-1.5071139 c 0.170191,-0.1157376 0.328851,-0.2956852 0.344564,-0.3617187 l 2.306021,-5.6011891 c 0.0047,-0.02137 7.88e-4,-0.04192 -0.0095,-0.06128 0.02783,-0.05371 0.05013,-0.111237 0.06461,-0.171824 l 2.860293,-16.186063 c 0.04385,-0.184792 0.05851,-0.383003 0.0017,-0.501989 0.0028,-0.03039 -0.0087,-0.06801 -0.03535,-0.111903 l -2.439132,-4.031832 c -0.02257,-0.03737 -0.04721,-0.06549 -0.07409,-0.08459 z"
       transform="matrix(0.97434643,0.01281628,0.01281628,0.97434643,1.7376391,-0.7395435)" />
    <path
       id="rect2"
       style="fill:#a3abc2;stroke-width:0.226095;fill-opacity:1"
       d="m 75.490895,-41.388541 c 3.130635,31.6282387 2.445645,31.8242586 -5.511216,38.9865668 l -1.137967,-2.3516885 c 2.064332,-3.6485181 2.781015,-5.4861933 2.626821,-9.2452433 l -0.658707,-1.327717 -0.669197,1.327717 c -0.176602,3.652123 -1.697245,4.8610442 -3.671752,7.5387212 l -5.884464,2.921e-4 C 58.61005,-9.1372952 57.08898,-10.346375 56.912385,-13.998322 l -0.668921,-1.328593 -0.658707,1.328301 c -0.153462,3.741172 0.556627,5.5800432 2.598386,9.1941324 l -1.137967,2.3505202 c -8.032058,-7.2616789 -8.592609,-9.1327726 -5.50818,-38.9623256 -8.572367,12.565363 -18.163411,37.4941619 3.357073,45.5017439 l -0.0254,0.051987 4.115356,8.0587491 8.28e-4,2.92e-4 0.465733,24.504349 c 2.671809,-0.625447 5.370004,-0.631728 8.09773,0.05491 l 0.466837,-24.559257 8.28e-4,-2.92e-4 4.080295,-7.9866096 C 94.364,-3.5534781 83.551249,-28.531518 75.490895,-41.388541 Z M 56.43064,41.560464 v 2.184629 c 0,0.735765 0.592415,1.328593 1.328181,1.328593 h 1.756919 l -2.76e-4,15.081239 -1.756643,-2.92e-4 c -0.735767,0 -1.327904,0.592536 -1.327904,1.328301 l 5.52e-4,2.185213 c 2e-4,0.735766 0.592137,1.328301 1.327904,1.328301 l 1.620264,-2.93e-4 0.0052,-0.02132 h 0.259507 l 0.328525,27.012874 c 0.525237,2.930308 2.248833,4.70779 3.52709,7.064996 0.313485,-0.580474 0.638544,-1.144947 0.958245,-1.711779 0.959101,-1.700496 1.869104,-3.421633 2.265719,-5.656378 l 0.597418,-26.709713 h 0.577542 l 0.0058,0.02132 1.33591,2.93e-4 c 0.735766,0 1.327628,-0.592242 1.327628,-1.328009 l 8.28e-4,-2.185505 c 1.99e-4,-0.735765 -0.592413,-1.328593 -1.32818,-1.328593 l -1.756367,5.84e-4 -2.76e-4,-15.081239 h 1.756367 c 0.735766,0 1.328732,-0.592828 1.328732,-1.328593 l -2.76e-4,-2.184921 C 70.302474,38.409743 56.43064,38.408801 56.43064,41.560464 Z"
       sodipodi:nodetypes="ccccccccccccccccccccccccssscccccccccccsccccccccccsccs" />
  </g>
  <path
     d="m 110.42435,21.398465 c 0.41722,-0.523139 2.24684,-2.492089 5.75688,-1.901826 3.80151,0.882379 5.50416,3.571277 5.10794,8.066696 -1.51974,9.505008 -12.7573,10.035685 -16.54136,-0.664995 -1.06014,-4.212717 -0.0215,-8.59784 2.14596,-13.155367 -9.202873,12.691689 -7.903943,26.688737 3.89681,41.991156 -0.76887,0.535431 -1.82472,0.535431 -3.16757,0 C 96.094257,46.970306 92.824956,29.79177 97.815107,4.1985066 L 93.802673,1.0630634 h 39.032357 l -4.84771,3.7394008 c 8.5775,28.7458398 5.34996,47.4680418 -9.6826,57.6218238 -0.92736,-0.05788 -1.26467,-0.400497 -1.01194,-1.028009 16.08439,-17.630172 12.8347,-57.1434267 -12.06954,-57.3808874 -0.91235,1.8118737 1.12654,3.6098277 6.11668,5.3938599 -12.883803,19.7766415 3.699,28.4146115 7.54669,19.8134335 1.32349,-2.958534 0.54571,-4.774446 -0.91921,-4.913656 0.0471,0.316971 0.0521,0.65584 0.0707,1.015162 0.25597,4.944924 -4.60051,7.596573 -7.61372,3.883967 -1.73637,-2.138056 -1.73748,-5.614059 0,-7.809693"
     fill="#ffffff"
     fill-rule="evenodd"
     stroke="none"
     id="path135"
     style="fill:#d2902d;fill-opacity:1;stroke-width:0.0642508"
     sodipodi:nodetypes="cccccccccccccccscscc" />
</svg>
