<?xml version="1.0" encoding="UTF-8" standalone="no"?>
<!-- Created with Inkscape (http://www.inkscape.org/) -->

<svg
   width="512"
   height="512"
   viewBox="0 0 135.46666 135.46667"
   version="1.1"
   id="svg1"
   inkscape:version="1.3.2 (091e20e, 2023-11-25, custom)"
   sodipodi:docname="KWD_KIT_StaffDamageSunRune.svg"
   xmlns:inkscape="http://www.inkscape.org/namespaces/inkscape"
   xmlns:sodipodi="http://sodipodi.sourceforge.net/DTD/sodipodi-0.dtd"
   xmlns="http://www.w3.org/2000/svg"
   xmlns:svg="http://www.w3.org/2000/svg">
  <sodipodi:namedview
     id="namedview1"
     pagecolor="#ffffff"
     bordercolor="#000000"
     borderopacity="0.25"
     inkscape:showpageshadow="2"
     inkscape:pageopacity="0.0"
     inkscape:pagecheckerboard="0"
     inkscape:deskcolor="#d1d1d1"
     inkscape:document-units="px"
     showgrid="true"
     inkscape:zoom="1.4142136"
     inkscape:cx="278.60007"
     inkscape:cy="152.38151"
     inkscape:window-width="1920"
     inkscape:window-height="1017"
     inkscape:window-x="1042"
     inkscape:window-y="276"
     inkscape:window-maximized="1"
     inkscape:current-layer="svg1">
    <inkscape:grid
       id="grid1"
       units="px"
       originx="0"
       originy="0"
       spacingx="0.26458332"
       spacingy="0.26458334"
       empcolor="#0099e5"
       empopacity="0.30196078"
       color="#0099e5"
       opacity="0.14901961"
       empspacing="5"
       dotted="false"
       gridanglex="30"
       gridanglez="30"
       visible="true" />
  </sodipodi:namedview>
  <defs
     id="defs1" />
  <g
     id="g21"
     transform="matrix(0.79329369,-0.79329369,0.79329369,0.79329369,-34.690831,72.571805)">
    <ellipse
       style="fill:#ecb279;stroke-width:0.264583"
       id="path12"
       cx="67.46875"
       cy="-3.4854465"
       rx="13.890625"
       ry="14.552084" />
    <path
       id="rect13"
       style="fill:#a3abc2;stroke-width:0.153129;fill-opacity:1"
       d="m 67.073032,-18.25334 c -7.5527,0.169455 -14.945034,6.939523 -15.479161,22.2221886 1.189749,8.8970904 4.786605,14.2126454 9.286575,22.5506114 0.371168,2.993154 -1.007693,8.374108 -1.942898,10.522421 1.191905,0.359724 1.879451,1.002482 2.299419,1.823597 l 0.0023,-0.0018 11.529338,14.206466 c 0.06752,-3.273139 0.149488,-6.545232 0.260711,-9.815368 0.118304,-3.478329 -0.233995,-5.662413 2.831896,-6.134087 C 74.876164,34.857825 73.603304,29.805131 74.134348,26.561837 77.826133,19.505001 81.45923,15.049343 83.343539,6.6146543 85.536913,-9.0479835 76.188359,-18.457855 67.073032,-18.25334 Z m 1.117466,0.77937 c 6.676861,-0.08602 19.815079,11.1497128 8.995923,23.5754928 -3.411594,0.7800229 -7.086103,0.9709405 -11.714507,-0.9760555 -3.152148,-7.5316353 -2.13745,-14.6262698 0.330265,-22.0913723 0.690246,-0.348703 1.498781,-0.496606 2.388319,-0.508065 z m -6.013404,0.805166 C 59.136712,-9.5476677 58.680557,-2.4916009 61.42536,4.7878323 59.256695,5.4014259 57.271245,5.6842479 56.181193,4.3511638 54.769036,-1.0489049 54.678682,-10.312815 62.177094,-16.668804 Z m -0.254263,60.866428 c 0.346009,17.294083 0.514513,48.906859 0.514513,84.303736 l -1.455561,11.76379 h 13.237319 l -1.719036,-11.76379 c 0.351489,-23.66922 -0.171342,-47.380674 0.197145,-71.028645 z" />
  </g>
  <path
     id="path16"
     style="fill:#ecb279;stroke-width:0.975841"
     d="M 107.21122,0.52916629 C 91.915239,0.52916426 79.515496,12.935739 79.515496,28.239902 c 3e-6,15.304163 12.399743,27.71074 27.695724,27.71074 15.29597,0 27.69593,-12.406577 27.69593,-27.71074 0,-15.304162 -12.39996,-27.71073571 -27.69593,-27.71073571 z m 0,2.82952841 c 14.83242,4.1e-6 24.84878,10.0408513 24.84884,24.8812073 -6e-5,14.840358 -10.01642,24.881205 -24.84884,24.881205 -14.832429,0 -24.848579,-10.040847 -24.848639,-24.881205 6e-5,-14.840359 10.01621,-24.8812073 24.848639,-24.8812073 z m -0.66964,2.9190511 c -6.04263,-0.032193 -12.14092,1.9588879 -15.438398,7.8583732 0.02897,-0.01546 9.910198,-4.905268 17.960858,-1.802473 1.60483,0.618523 3.10972,1.202243 4.50956,1.718715 -0.64131,0.63086 -16.798105,5.251223 -16.843032,10.297697 -0.02491,2.79604 1.263119,9.145398 1.263119,9.145398 1.552039,6.357535 6.274233,17.709256 8.112613,17.572094 0.52815,-0.603205 -2.48331,-11.773527 -2.25933,-17.722686 -2.43637,-12.974216 6.50232,-15.827357 17.15647,-17.386181 0.46923,-0.0071 0.89129,-0.06395 1.24897,-0.193107 0.26727,-0.09651 0.49174,-0.216162 0.6891,-0.336085 -0.41145,-1.074363 -0.24228,-1.420748 0.32402,-2.32659 -1.53264,-3.357817 -9.61488,-6.7870783 -16.72395,-6.8249435 z"
     sodipodi:nodetypes="sssssscscsccscsccccscccc" />
</svg>
