<?xml version="1.0" encoding="UTF-8" standalone="no"?>
<!-- Created with Inkscape (http://www.inkscape.org/) -->

<svg
   width="512"
   height="512"
   viewBox="0 0 135.46666 135.46667"
   version="1.1"
   id="svg1"
   inkscape:version="1.3.2 (091e20e, 2023-11-25, custom)"
   sodipodi:docname="KWD_KIT_StaffDamage_PoisonRune.svg"
   xmlns:inkscape="http://www.inkscape.org/namespaces/inkscape"
   xmlns:sodipodi="http://sodipodi.sourceforge.net/DTD/sodipodi-0.dtd"
   xmlns="http://www.w3.org/2000/svg"
   xmlns:svg="http://www.w3.org/2000/svg">
  <sodipodi:namedview
     id="namedview1"
     pagecolor="#ffffff"
     bordercolor="#000000"
     borderopacity="0.25"
     inkscape:showpageshadow="2"
     inkscape:pageopacity="0.0"
     inkscape:pagecheckerboard="0"
     inkscape:deskcolor="#d1d1d1"
     inkscape:document-units="px"
     showgrid="true"
     inkscape:zoom="0.7071068"
     inkscape:cx="116.67262"
     inkscape:cy="62.932502"
     inkscape:window-width="1920"
     inkscape:window-height="1017"
     inkscape:window-x="1042"
     inkscape:window-y="235"
     inkscape:window-maximized="1"
     inkscape:current-layer="svg1">
    <inkscape:grid
       id="grid1"
       units="px"
       originx="0"
       originy="0"
       spacingx="0.26458332"
       spacingy="0.26458334"
       empcolor="#0099e5"
       empopacity="0.30196078"
       color="#0099e5"
       opacity="0.14901961"
       empspacing="5"
       dotted="false"
       gridanglex="30"
       gridanglez="30"
       visible="true" />
  </sodipodi:namedview>
  <defs
     id="defs1" />
  <g
     id="g21"
     transform="matrix(0.79329369,-0.79329369,0.79329369,0.79329369,-34.690831,72.571805)">
    <ellipse
       style="fill:#8abf40;stroke-width:0.264583;fill-opacity:1"
       id="path12"
       cx="67.46875"
       cy="-3.4854465"
       rx="13.890625"
       ry="14.552084" />
    <path
       id="rect13"
       style="fill:#a3abc2;stroke-width:0.153129;fill-opacity:1"
       d="m 67.073032,-18.25334 c -7.5527,0.169455 -14.945034,6.939523 -15.479161,22.2221886 1.189749,8.8970904 4.786605,14.2126454 9.286575,22.5506114 0.371168,2.993154 -1.007693,8.374108 -1.942898,10.522421 1.191905,0.359724 1.879451,1.002482 2.299419,1.823597 l 0.0023,-0.0018 11.529338,14.206466 c 0.06752,-3.273139 0.149488,-6.545232 0.260711,-9.815368 0.118304,-3.478329 -0.233995,-5.662413 2.831896,-6.134087 C 74.876164,34.857825 73.603304,29.805131 74.134348,26.561837 77.826133,19.505001 81.45923,15.049343 83.343539,6.6146543 85.536913,-9.0479835 76.188359,-18.457855 67.073032,-18.25334 Z m 1.117466,0.77937 c 6.676861,-0.08602 19.815079,11.1497128 8.995923,23.5754928 -3.411594,0.7800229 -7.086103,0.9709405 -11.714507,-0.9760555 -3.152148,-7.5316353 -2.13745,-14.6262698 0.330265,-22.0913723 0.690246,-0.348703 1.498781,-0.496606 2.388319,-0.508065 z m -6.013404,0.805166 C 59.136712,-9.5476677 58.680557,-2.4916009 61.42536,4.7878323 59.256695,5.4014259 57.271245,5.6842479 56.181193,4.3511638 54.769036,-1.0489049 54.678682,-10.312815 62.177094,-16.668804 Z m -0.254263,60.866428 c 0.346009,17.294083 0.514513,48.906859 0.514513,84.303736 l -1.455561,11.76379 h 13.237319 l -1.719036,-11.76379 c 0.351489,-23.66922 -0.171342,-47.380674 0.197145,-71.028645 z" />
  </g>
  <path
     id="path1-8"
     style="fill:#8abf40;fill-opacity:1;stroke-width:0.127437"
     d="m 107.21122,0.52916629 c -15.309568,0 -27.720465,12.40653671 -27.720466,27.71073771 4e-6,15.304214 12.4109,27.710738 27.720466,27.710738 15.30957,0 27.72047,-12.406524 27.72047,-27.710738 0,-15.304201 -12.4109,-27.71073771 -27.72047,-27.71073771 z m 0,2.89914801 c 14.84561,2.7e-6 24.79355,9.9711957 24.79362,24.8115897 -7e-5,14.840407 -9.94801,24.811582 -24.79362,24.811593 -14.8456,0 -24.793561,-9.971186 -24.793621,-24.811593 6e-5,-14.840397 9.948021,-24.8115897 24.793621,-24.8115897 z m -1.93551,3.7697648 c -0.59181,-0.00288 -1.26294,5.291e-4 -2.00507,0.011192 h -4e-4 l -4.707815,0.067228 c -0.44189,4.0154759 -0.43576,8.0504719 0.004,12.0657329 0.18227,0.820092 0.87475,0.459774 1.861095,-0.968497 1.05573,-1.528757 2.10625,-2.262586 3.7315,-2.606547 2.07222,-0.438563 1.98499,-0.668137 2.02241,5.342694 0.0302,10.030528 -0.77279,21.293113 0.43974,30.564859 0.0898,0.687025 0.42711,0.918702 0.58541,0.336153 1.06157,-3.906671 2.61102,-15.40162 2.69768,-18.761495 0.0961,-7.439935 3.34847,-13.832544 1.96215,-15.200609 -0.35299,-0.348356 -1.25355,-2.127909 -1.13573,-2.244185 0.0535,-0.05281 0.52744,0.0223 1.05328,0.166388 0.52584,0.144087 1.09317,0.262457 1.26067,0.263211 0.38487,0.0019 0.94804,-1.082821 1.15814,-2.229806 0.0888,-0.484666 0.44956,-1.147378 0.80148,-1.472726 0.3519,-0.325345 1.04271,-1.406591 1.5353,-2.402322 1.22169,-2.4695676 1.19629,-2.4847732 -4.04629,-2.4847732 -2.39891,0 -4.10879,-0.1008644 -4.2611,-0.2511636 -0.12029,-0.1187107 -1.18143,-0.186608 -2.95686,-0.1953472 z" />
</svg>
