<?xml version="1.0" encoding="UTF-8" standalone="no"?>
<svg
   viewBox="0 0 512 512"
   version="1.1"
   id="svg1"
   sodipodi:docname="KWD_KIT_StaffDamage_Arcane.svg"
   width="512"
   height="512"
   xml:space="preserve"
   inkscape:version="1.3.2 (091e20e, 2023-11-25, custom)"
   xmlns:inkscape="http://www.inkscape.org/namespaces/inkscape"
   xmlns:sodipodi="http://sodipodi.sourceforge.net/DTD/sodipodi-0.dtd"
   xmlns="http://www.w3.org/2000/svg"
   xmlns:svg="http://www.w3.org/2000/svg"
   xmlns:bx="https://boxy-svg.com"><sodipodi:namedview
     id="namedview1"
     pagecolor="#ffffff"
     bordercolor="#000000"
     borderopacity="0.25"
     inkscape:showpageshadow="2"
     inkscape:pageopacity="0.0"
     inkscape:pagecheckerboard="0"
     inkscape:deskcolor="#d1d1d1"
     showgrid="true"
     inkscape:zoom="1"
     inkscape:cx="263.5"
     inkscape:cy="232.5"
     inkscape:window-width="1920"
     inkscape:window-height="1017"
     inkscape:window-x="1042"
     inkscape:window-y="235"
     inkscape:window-maximized="1"
     inkscape:current-layer="svg1"><inkscape:grid
       id="grid1"
       units="px"
       originx="0"
       originy="0"
       spacingx="1"
       spacingy="1"
       empcolor="#0099e5"
       empopacity="0.30196078"
       color="#0099e5"
       opacity="0.14901961"
       empspacing="5"
       dotted="false"
       gridanglex="30"
       gridanglez="30"
       visible="true" /></sodipodi:namedview><defs
     id="defs1"><inkscape:path-effect
       effect="fillet_chamfer"
       id="path-effect1"
       is_visible="true"
       lpeversion="1"
       nodesatellites_param="F,0,0,1,0,0,0,1 @ F,0,0,1,0,0,0,1 @ F,0,0,1,0,5,0,1 @ F,0,0,1,0,5,0,1"
       radius="0"
       unit="px"
       method="auto"
       mode="F"
       chamfer_steps="1"
       flexible="false"
       use_knot_distance="true"
       apply_no_radius="true"
       apply_with_radius="true"
       only_selected="false"
       hide_knots="false" /><bx:grid
       x="0"
       y="0"
       width="512"
       height="512" /><bx:grid
       x="0"
       y="0"
       width="512"
       height="512" /><bx:grid
       x="0"
       y="0"
       width="100"
       height="100" /><bx:grid
       x="0"
       y="0"
       width="512"
       height="512" /><bx:grid
       x="0"
       y="0"
       width="512"
       height="512" /><bx:grid
       x="0"
       y="0"
       width="512"
       height="512" /><bx:grid
       x="0"
       y="0"
       width="512"
       height="512" /><bx:grid
       x="0"
       y="0"
       width="512"
       height="512" /><bx:grid
       x="0"
       y="0"
       width="512"
       height="512" /><bx:grid
       x="0"
       y="0"
       width="512"
       height="512" /><bx:grid
       x="0"
       y="0"
       width="100"
       height="100" /><bx:grid
       x="0"
       y="0"
       width="512"
       height="512" /><bx:grid
       x="0"
       y="0"
       width="512"
       height="512" /><bx:grid
       x="0"
       y="0"
       width="512"
       height="512" /><bx:grid
       x="0"
       y="0"
       width="512"
       height="512" /><bx:grid
       x="0"
       y="0"
       width="512"
       height="512" /><bx:grid
       x="0"
       y="0"
       width="512"
       height="512" /><bx:grid
       x="0"
       y="0"
       width="512"
       height="512" /><bx:grid
       x="0"
       y="0"
       width="512"
       height="512" /><bx:grid
       x="0"
       y="0"
       width="512"
       height="512" /><bx:grid
       x="0"
       y="0"
       width="512"
       height="512" /><bx:grid
       x="0"
       y="0"
       width="512"
       height="512" /><bx:grid
       x="0"
       y="0"
       width="512"
       height="512" /><bx:grid
       x="0"
       y="0"
       width="512"
       height="512" /><bx:grid
       x="0"
       y="0"
       width="512"
       height="512" /><bx:grid
       x="0"
       y="0"
       width="512"
       height="512" /><bx:grid
       x="0"
       y="0"
       width="100"
       height="100" /><bx:grid
       x="0"
       y="0"
       width="100"
       height="100" /><bx:grid
       x="0"
       y="0"
       width="100"
       height="100" /><bx:grid
       x="0"
       y="0"
       width="100"
       height="100" /><bx:grid
       x="0"
       y="0"
       width="100"
       height="100" /><bx:grid
       x="0"
       y="0"
       width="512"
       height="512" /><bx:grid
       x="0"
       y="0"
       width="512"
       height="512" /><bx:grid
       x="0"
       y="0"
       width="512"
       height="512" /><bx:grid
       x="0"
       y="0"
       width="512"
       height="512" /><bx:grid
       x="0"
       y="0"
       width="512"
       height="512" /><bx:grid
       x="0"
       y="0"
       width="512"
       height="512" /><bx:grid
       x="0"
       y="0"
       width="512"
       height="512" /><bx:grid
       x="0"
       y="0"
       width="512"
       height="512" /><bx:grid
       x="0"
       y="0"
       width="512"
       height="512" /><bx:grid
       x="0"
       y="0"
       width="512"
       height="512" /><bx:grid
       x="0"
       y="0"
       width="512"
       height="512" /><bx:grid
       x="0"
       y="0"
       width="512"
       height="512" /><bx:grid
       x="0"
       y="0"
       width="512"
       height="512" /><bx:grid
       x="0"
       y="0"
       width="512"
       height="512" /><bx:grid
       x="0"
       y="0"
       width="512"
       height="512" /><bx:grid
       x="0"
       y="0"
       width="512"
       height="512" /><bx:grid
       x="0"
       y="0"
       width="512"
       height="512" /><bx:grid
       x="0"
       y="0"
       width="512"
       height="512" /><bx:grid
       x="0"
       y="0"
       width="512"
       height="512" /><bx:grid
       x="0"
       y="0"
       width="512"
       height="512" /><bx:grid
       x="0"
       y="0"
       width="512"
       height="512" /><bx:grid
       x="0"
       y="0"
       width="512"
       height="512" /><bx:grid
       x="0"
       y="0"
       width="512"
       height="512" /><bx:grid
       x="0"
       y="0"
       width="512"
       height="512" /><bx:grid
       x="0"
       y="0"
       width="512"
       height="512" /><bx:grid
       x="0"
       y="0"
       width="512"
       height="512" /><bx:grid
       x="0"
       y="0"
       width="512"
       height="512" /><bx:grid
       x="0"
       y="0"
       width="512"
       height="512" /><bx:grid
       x="0"
       y="0"
       width="512"
       height="512" /><bx:grid
       x="0"
       y="0"
       width="512"
       height="512" /><bx:grid
       x="0"
       y="0"
       width="512"
       height="512" /><bx:grid
       x="0"
       y="0"
       width="512"
       height="512" /><bx:grid
       x="0"
       y="0"
       width="512"
       height="512" /><bx:grid
       x="0"
       y="0"
       width="512"
       height="512" /><bx:grid
       x="0"
       y="0"
       width="512"
       height="512" /><bx:grid
       x="0"
       y="0"
       width="512"
       height="512" /><bx:grid
       x="0"
       y="0"
       width="512"
       height="512" /><bx:grid
       x="0"
       y="0"
       width="512"
       height="512" /><bx:grid
       x="0"
       y="0"
       width="512"
       height="512" /><bx:grid
       x="0"
       y="0"
       width="512"
       height="512" /><bx:grid
       x="0"
       y="0"
       width="512"
       height="512" /><bx:grid
       x="0"
       y="0"
       width="512"
       height="512" /><bx:grid
       x="0"
       y="0"
       width="512"
       height="512" /><bx:grid
       x="0"
       y="0"
       width="512"
       height="512" /><bx:grid
       x="0"
       y="0"
       width="512"
       height="512" /><bx:grid
       x="0"
       y="0"
       width="512"
       height="512" /><bx:grid
       x="0"
       y="0"
       width="512"
       height="512" /><bx:grid
       x="0"
       y="0"
       width="512"
       height="512" /><bx:grid
       x="0"
       y="0"
       width="512"
       height="512" /><bx:grid
       x="0"
       y="0"
       width="512"
       height="512" /><bx:grid
       x="0"
       y="0"
       width="512"
       height="512" /><bx:grid
       x="0"
       y="0"
       width="512"
       height="512" /><bx:grid
       x="0"
       y="0"
       width="512"
       height="512" /></defs><path
     d="m 4.4806455,0.09189325 c -0.32386,0.01 -0.47982,0.006 -0.58593,0.12305 l -0.002,0.002 v 0.0117 c -0.10578,0.11481 -0.15346,0.33847 -0.25196,0.79492005 -0.69453,13.5651297 -3.36264004,28.0883497 -3.62500004,41.1503927 -0.16516,1.427967 0.61209,4.731793 2.03125004,5.013672 L 18.500125,49.74622 c 0.3178,-10.242537 -9.6598595,-23.330197 2.29107,-26.707077 l 19.86914,5.38476 20.66602,4.64258 10.47655,8.078127 -3.43554,14.009766 -18.54101,0.43164 c -0.99665,0.679918 -1.02963,1.048063 -1.1504,1.710938 -0.58203,0.837318 29.60757,20.110719 30.54492,20.220703 l 25.265625,3.013672 c 0.93637,0.109662 1.2326,-0.310817 0.88086,-1.257813 l -3.39844,-11.677734 12.3711,0.152344 c 25.76834,7.150132 36.9743,20.052588 30.77931,49.269534 -11.96921,56.44934 40.65653,113.41296 68.39453,116.91406 5.69115,-23.24881 37.6255,-22.53114 50.61131,21.78711 -2.66313,12.92607 -5.65879,27.30129 6.79102,40.56054 7.80674,8.31435 13.75691,9.03291 23.92969,8.81836 l 0.58008,0.65235 -0.41016,-0.64844 20.07616,-45.08594 C 303.34926,212.10072 289.44051,165.46628 212.94157,168.70713 195.34489,152.401 193.58694,147.41569 192.41228,131.72861 l 26.18554,5.6211 c -7.64365,-37.479287 2.1943,-95.677354 -79.80664,-110.658207 0.0435,-0.23816 0.0677,-0.47965 0.0527,-0.72461 l -0.42578,-8.44921 c -0.0866,-1.68382 -1.56256,-2.79195 -3.28906,-2.47266 l -29.39255,5.43555 -14.320305,-2.85157 c -0.0381,-0.0621 -0.0859,-0.12584 -0.16992,-0.20507 L 77.660325,4.7969733 c -0.37862,-0.35092 -0.80857,-0.45339 -1.28515,-0.32422 -0.15896,0.0427 -0.31843,0.10831 -0.48828,0.20508 L 62.996275,11.974713 15.754085,2.5762733 c -0.0561,-0.009 -0.10845,0.004 -0.16406,-0.002 z M 329.68767,276.33018 308.65838,320.64268 476.28472,510.08 c 10.79047,10.08177 44.31656,-22.34205 33.64514,-32.28498 z"
     fill="#a2a3c1"
     stroke-width="0.770254"
     id="path3-6"
     sodipodi:nodetypes="ccccccccccccccccccccsccscccccccccccccccccccccccccc"
     style="fill:#a3abc2" /><path
     id="path1"
     style="fill:#6abfc7;fill-opacity:1;fill-rule:evenodd;stroke-width:0.811998"
     d="m 102.52335,276.0699 c -1.18517,7.04212 -1.6157,8.97096 2.32887,13.01199 2.37025,4.83358 1.19451,7.4049 0.0274,12.34187 3.52566,7.72767 9.65082,13.98432 1.22073,24.14688 -1.29634,0.51883 -2.51612,0.84807 -3.60452,0.90353 -5.064741,0.25802 -8.947458,-12.3048 -8.947458,-12.3048 -5.961453,9.17413 -5.211575,18.98726 2.746297,29.48704 l 2.427737,74.55227 17.049054,1.40612 -2.62959,-76.08199 c 3.34239,-11.42149 7.49704,-23.28972 14.74627,-33.10253 -0.0384,-0.0821 -0.17862,-0.0507 -0.37076,0.0384 -8.43962,1.01375 -11.2824,-2.43015 -11.81184,-13.74799 1.44339,-4.65747 7.32717,-9.40596 1.45555,-13.91414 -8.88417,0.63335 -12.02998,-3.18579 -14.6378,-6.73668 z m -30.099469,10.51558 c -0.698678,15.36931 -9.324274,20.31728 -14.137968,27.28727 -4.384221,6.34818 -1.956124,15.38658 11.165088,19.70474 l 1.724683,15.64567 4.22518,74.91617 15.162338,-4.97219 -4.722267,-71.68376 C 62.801812,337.0116 93.983301,315.71491 72.423881,286.58548 Z m 70.558459,4.20186 c -1.44042,5.62658 6.46226,21.53301 2.55817,25.7411 -19.60345,21.1298 -27.51625,50.51847 -17.28111,109.28065 l 12.47921,14.23683 -0.26364,-34.17203 c 18.69275,-12.71188 40.08078,-18.75061 23.05245,-44.95972 -2.096,24.81255 -21.86623,27.52247 -25.52551,2.13526 3.96069,-20.3967 12.97671,-39.35941 17.34702,-50.54707 2.16788,-5.54958 -1.04632,-10.29912 -3.75007,-13.02571 z M 41.97976,311.46151 c -0.04882,-1.7e-4 -0.107094,0.0213 -0.17711,0.0646 -27.892313,17.16857 2.25969,26.57216 3.345002,44.59034 l 3.000318,110.63596 c 4.616716,29.32237 23.662952,41.78934 47.137537,39.99852 70.033453,-5.3427 40.577303,-108.7571 -15.50952,-70.6555 0.0033,10e-4 0.0076,10e-4 0.01132,0.002 -7.330894,5.03822 -11.77264,13.77718 -11.776159,23.16918 -1.9e-4,15.16952 10.446186,27.46702 24.476198,27.46715 14.030564,4.6e-4 25.404864,-12.29704 25.404684,-27.46715 -0.002,-7.45974 -2.81212,-14.59732 -7.78166,-19.77199 5.58284,1.59721 10.72252,4.88655 12.75384,12.62749 15.1311,57.66172 -86.611135,57.56658 -55.780186,-15.63192 -6.309085,-35.99918 4.229382,-91.0452 -15.014041,-96.89887 -16.739216,-7.86404 -8.580204,-28.12499 -10.089919,-28.13037 z m 145.53752,81.49653 c -21.12177,15.62097 -32.17898,21.21423 -33.1712,47.7154 -0.88667,26.51147 -9.70611,47.39241 -26.45787,62.64316 30.31573,-4.10321 45.22057,-27.90505 44.71392,-71.40523 -0.17938,-22.00719 4.79231,-24.67952 14.91515,-38.95333 z"
     sodipodi:nodetypes="ccccscccccccccsccscccccccscccccsccccccsccccccsccccccccc" /></svg>
