<?xml version="1.0" encoding="UTF-8" standalone="no"?>
<!-- Created with Inkscape (http://www.inkscape.org/) -->

<svg
   width="512"
   height="512"
   viewBox="0 0 512 512"
   version="1.1"
   id="svg1"
   inkscape:version="1.3.2 (091e20e, 2023-11-25, custom)"
   sodipodi:docname="KWD_KIT_MagicBoundWarAxe.svg"
   xmlns:inkscape="http://www.inkscape.org/namespaces/inkscape"
   xmlns:sodipodi="http://sodipodi.sourceforge.net/DTD/sodipodi-0.dtd"
   xmlns="http://www.w3.org/2000/svg"
   xmlns:svg="http://www.w3.org/2000/svg">
  <sodipodi:namedview
     id="namedview1"
     pagecolor="#ffffff"
     bordercolor="#000000"
     borderopacity="0.25"
     inkscape:showpageshadow="2"
     inkscape:pageopacity="0.0"
     inkscape:pagecheckerboard="0"
     inkscape:deskcolor="#d1d1d1"
     inkscape:document-units="px"
     inkscape:zoom="1.1614781"
     inkscape:cx="235.90629"
     inkscape:cy="250.11233"
     inkscape:window-width="1920"
     inkscape:window-height="1017"
     inkscape:window-x="1042"
     inkscape:window-y="276"
     inkscape:window-maximized="1"
     inkscape:current-layer="layer1" />
  <defs
     id="defs1" />
  <g
     inkscape:label="Layer 1"
     inkscape:groupmode="layer"
     id="layer1">
    <path
       id="path2"
       d="m 292.56593,18.508459 c 1.42249,-2.463669 2.51702,-3.324874 5.41793,-4.039108 l 3.65072,-0.978089 19.89938,12.085999 c 10.95196,6.721242 38.71064,22.846638 38.5621,22.960661 -3.08157,2.364526 -3.0418,13.095683 -2.25925,16.016822 0.27597,1.03004 -18.30735,-9.9725 -35.03108,-19.627951 l -30.46105,-17.586672 -0.71409,-2.901104 c -0.6427,-2.162793 -0.35793,-3.690598 0.93534,-5.930558 z M 328.07236,3.7351688 c 0.25865,-0.4477713 1.16065,-1.3209852 1.93331,-1.969542 0.84742,-0.6058736 2.66853,-1.34608987 4.03855,-1.65028538 2.38697,-0.51319682 3.54999,0.0585373 29.90457,15.27455558 21.05403,12.155561 27.86812,16.388245 29.70832,18.545787 1.34074,1.470872 52.48604,73.406146 53.17506,74.799296 0.72021,1.51078 21.10203,30.34835 22.11796,32.72661 1.01602,2.37849 3.34109,6.11012 5.10689,8.2244 2.92533,3.38138 5.37771,4.99641 20.08542,13.4878 9.18318,5.30193 17.11698,10.18108 17.65971,10.79314 0.82965,0.97667 -0.57269,3.75062 -11.56445,22.78882 l -12.45713,21.57647 -36.30464,-21.25899 c -35.85625,-21.00049 -36.30419,-21.25913 -40.09115,-25.73494 -2.12724,-2.52236 -5.12434,-6.64157 -6.74918,-9.17249 -1.50574,-2.56322 -3.95527,-7.46006 -5.28672,-11.01596 -1.37469,-3.48137 -2.9525,-9.36968 -3.53421,-13.18969 -0.5503,-3.70206 -0.96183,-9.71339 -0.82872,-13.22016 3.15382,-17.11773 3.16234,-9.54818 2.69052,-11.22723 -0.75102,-2.67264 -3.5409,-13.29476 -15.66632,-25.311023 -5.5953,-5.545011 -8.85118,-8.906266 -12.39399,-20.488007 -0.27236,-1.252326 -1.43684,-11.282915 -0.61762,-12.701724 1.07753,-1.866227 2.45071,-2.865361 4.92387,-3.527944 1.95871,-0.461815 4.23612,-0.440995 5.28155,0.162542 1.04509,0.603477 5.87778,8.628031 17.03653,24.129062 13.32602,18.643841 19.05145,19.288242 20.1944,19.549798 0.91904,0.132584 8.66299,5.033546 9.4904,4.117583 3.21134,1.269813 -22.87902,-38.973885 -42.25931,-58.355997 -4.62511,-4.625573 -14.36821,-4.408804 -14.5735,-3.023825 -2.14302,0.952994 -3.26892,-1.781438 -21.50592,-12.609091 -13.72577,-8.123757 -18.70486,-11.396561 -19.72375,-13.080098 -0.81824,-1.169055 -1.18231,-3.4695182 -0.89734,-4.9973836 0.32779,-1.602628 0.77338,-3.2367919 1.10687,-3.6414836 z M 299.48948,54.793599 c 0.94836,-1.642553 2.32156,-2.641471 4.39805,-3.134787 l 2.97583,-0.671093 30.44088,17.276417 30.51586,17.31949 9.62849,13.323603 c 5.31367,7.348611 9.51922,13.857961 9.44136,14.509881 -0.16387,0.80117 -9.55098,-4.31972 -43.29716,-23.802927 -36.2842,-20.948847 -43.21598,-25.149917 -44.44759,-27.155099 -0.84959,-1.287009 -1.36596,-2.97884 -1.31977,-3.748558 0.16393,-0.801115 0.88815,-2.573079 1.66405,-3.916927 z m 22.10327,48.877821 c 0.43095,-0.74678 1.46244,-1.84355 2.23522,-2.49245 0.84749,-0.60566 2.66868,-1.346085 4.0387,-1.650048 2.38683,-0.51324 3.69914,0.144688 27.57006,13.627978 l 29.18066,16.54885 c -0.4542,9.78418 5.36803,23.81607 5.55163,22.91052 l -42.59496,-24.28888 c -17.17177,-9.91403 -24.65775,-14.53469 -25.6135,-15.9825 -0.81831,-1.16926 -1.42936,-3.21431 -1.38007,-4.67904 0.0925,-1.53936 0.5066,-3.29111 1.01227,-3.99443 z"
       style="fill:#6a55d5;fill-opacity:1;stroke-width:0.0813278" />
    <path
       id="path1"
       d="m 219.43408,493.49153 c -1.42249,2.46367 -2.51702,3.32487 -5.41793,4.03911 l -3.65072,0.97809 -19.89938,-12.086 c -10.95196,-6.72124 -38.71064,-22.84664 -38.5621,-22.96066 3.08157,-2.36453 3.0418,-13.09569 2.25925,-16.01682 -0.27597,-1.03004 18.30735,9.9725 35.03108,19.62795 l 30.46105,17.58667 0.71409,2.9011 c 0.6427,2.1628 0.35793,3.6906 -0.93534,5.93056 z m -35.50643,14.77329 c -0.25865,0.44777 -1.16065,1.32099 -1.93331,1.96954 -0.84742,0.60588 -2.66853,1.34609 -4.03855,1.65029 -2.38697,0.51319 -3.54999,-0.0585 -29.90457,-15.27456 -21.05403,-12.15556 -27.86812,-16.38824 -29.70832,-18.54578 -1.34074,-1.47088 -52.486041,-73.40615 -53.175061,-74.7993 -0.72021,-1.51078 -21.10203,-30.34835 -22.11796,-32.72661 -1.01602,-2.37849 -3.34109,-6.11012 -5.10689,-8.2244 -2.92533,-3.38138 -5.37771,-4.99641 -20.08542,-13.4878 -9.1831804,-5.30193 -17.11698036,-10.18108 -17.65971036,-10.79314 -0.82965004,-0.97667 0.57269,-3.75062 11.56445036,-22.78882 l 12.45713,-21.57647 36.30464,21.25899 c 35.85625,21.00049 36.30419,21.25913 40.091151,25.73494 2.12724,2.52236 5.12434,6.64157 6.74918,9.17249 1.50574,2.56322 3.95527,7.46006 5.28672,11.01596 1.37469,3.48137 2.9525,9.36968 3.53421,13.18969 0.5503,3.70206 0.96183,9.71339 0.82872,13.22016 -3.15382,17.11773 -3.16234,9.54818 -2.69052,11.22723 0.75102,2.67264 3.5409,13.29476 15.66632,25.31102 5.5953,5.54501 8.85118,8.90627 12.39399,20.48801 0.27236,1.25233 1.43684,11.28291 0.61762,12.70172 -1.07753,1.86623 -2.45071,2.86536 -4.92387,3.52795 -1.95871,0.46181 -4.23612,0.44099 -5.28155,-0.16254 -1.04509,-0.60348 -5.87778,-8.62804 -17.03653,-24.12907 -13.32602,-18.64384 -19.051451,-19.28824 -20.194401,-19.54979 -0.91904,-0.13259 -8.66299,-5.03355 -9.4904,-4.11759 -3.21134,-1.26981 22.879021,38.97389 42.259311,58.356 4.62511,4.62557 14.36821,4.4088 14.5735,3.02382 2.14302,-0.95299 3.26892,1.78144 21.50592,12.6091 13.72577,8.12375 18.70486,11.39656 19.72375,13.08009 0.81824,1.16906 1.18231,3.46952 0.89734,4.99739 -0.32779,1.60263 -0.77338,3.23679 -1.10687,3.64148 z m 28.58288,-51.05843 c -0.94836,1.64255 -2.32156,2.64147 -4.39805,3.13479 l -2.97583,0.67109 -30.44088,-17.27642 -30.51586,-17.31949 -9.62849,-13.3236 c -5.31367,-7.34861 -9.51922,-13.85796 -9.44136,-14.50988 0.16387,-0.80117 9.55098,4.31972 43.29716,23.80293 36.2842,20.94884 43.21598,25.14991 44.44759,27.1551 0.84959,1.287 1.36596,2.97884 1.31977,3.74855 -0.16393,0.80112 -0.88815,2.57308 -1.66405,3.91693 z m -22.10327,-48.87782 c -0.43095,0.74678 -1.46244,1.84355 -2.23522,2.49245 -0.84749,0.60566 -2.66868,1.34608 -4.0387,1.65005 -2.38683,0.51324 -3.69914,-0.14469 -27.57006,-13.62798 l -29.18066,-16.54885 c 0.4542,-9.78418 -5.36803,-23.81607 -5.55163,-22.91052 l 42.59496,24.28888 c 17.17177,9.91403 24.65775,14.53469 25.6135,15.9825 0.81831,1.16926 1.42936,3.21431 1.38007,4.67904 -0.0925,1.53936 -0.5066,3.29111 -1.01227,3.99443 z"
       style="fill:#6a55d5;fill-opacity:1;stroke-width:0.0813278" />
    <path
       d="m 308.23641,166.25589 q 1.55186,9.92077 2.6049,19.56441 6.12427,70.72007 -33.1154,127.2795 L 50.296601,85.559641 57.972721,77.994361 41.456591,61.505951 1.0078124e-6,102.99025 16.488421,119.47867 l 7.17731,-7.17731 227.429309,227.54016 -19.7861,19.67525 11.05694,11.08465 q 9.08941,37.24444 -17.31977,69.52848 40.07101,7.53757 76.84434,-10.03161 l 16.59927,16.62698 19.81381,-19.67525 23.55488,23.44403 26.63087,-26.74172 -23.55488,-23.47175 Q 387.32539,382.96081 413.01407,374.25936 457.43581,359.04568 512,370.01948 500.33341,335.35224 481.71119,305.42368 429.39164,220.82009 323.6995,172.87897 l -15.46309,-6.62308 m 33.94675,211.16259 -42.4265,-42.28794 q 8.84001,-8.84001 21.33795,-8.84001 12.49794,0 21.19939,8.84001 8.84001,8.84001 8.72916,21.08855 0,12.3871 -8.84,21.19939"
       fill="#ffffff"
       fill-rule="evenodd"
       stroke="none"
       id="path1228"
       style="fill:#6a55d5;stroke-width:0.554233" />
  </g>
</svg>
