<?xml version="1.0" encoding="UTF-8" standalone="no"?>
<!-- Created with Inkscape (http://www.inkscape.org/) -->

<svg
   width="512"
   height="512"
   viewBox="0 0 512 512"
   version="1.1"
   id="svg1"
   inkscape:version="1.3.2 (091e20e, 2023-11-25, custom)"
   sodipodi:docname="KWD_KIT_SpellBoundType_Katana1H_Normal_C.svg"
   xmlns:inkscape="http://www.inkscape.org/namespaces/inkscape"
   xmlns:sodipodi="http://sodipodi.sourceforge.net/DTD/sodipodi-0.dtd"
   xmlns="http://www.w3.org/2000/svg"
   xmlns:svg="http://www.w3.org/2000/svg">
  <sodipodi:namedview
     id="namedview1"
     pagecolor="#ffffff"
     bordercolor="#000000"
     borderopacity="0.25"
     inkscape:showpageshadow="2"
     inkscape:pageopacity="0.0"
     inkscape:pagecheckerboard="0"
     inkscape:deskcolor="#d1d1d1"
     inkscape:document-units="px"
     inkscape:zoom="0.58073905"
     inkscape:cx="306.50599"
     inkscape:cy="191.99673"
     inkscape:window-width="1920"
     inkscape:window-height="1009"
     inkscape:window-x="1042"
     inkscape:window-y="235"
     inkscape:window-maximized="1"
     inkscape:current-layer="layer1" />
  <defs
     id="defs1" />
  <g
     inkscape:label="Layer 1"
     inkscape:groupmode="layer"
     id="layer1">
    <path
       id="path1"
       d="m 273.36924,488.9423 c -1.77214,3.06922 -3.13569,4.1421 -6.74962,5.03189 l -4.54804,1.21849 -24.79048,-15.05664 c -13.64387,-8.37327 -48.22542,-28.46216 -48.04037,-28.60421 3.839,-2.9457 3.78946,-16.31449 2.81457,-19.95363 -0.34381,-1.28321 22.80714,12.42366 43.64144,24.45235 l 37.94812,21.90933 0.88961,3.61418 c 0.80067,2.69439 0.44591,4.59772 -1.16523,7.38824 z m -44.23363,18.40445 c -0.32224,0.55783 -1.44593,1.64567 -2.40851,2.45363 -1.05571,0.7548 -3.32443,1.67695 -5.03119,2.05592 -2.97368,0.63933 -4.42255,-0.0729 -37.25487,-19.02892 -26.22895,-15.1433 -34.7179,-20.41635 -37.0104,-23.10419 -1.67028,-1.8324 -65.386694,-91.44879 -66.24506,-93.18436 -0.897235,-1.88212 -26.288745,-37.80774 -27.55439,-40.77055 -1.265745,-2.96312 -4.162306,-7.61194 -6.362123,-10.2459 -3.644346,-4.21249 -6.699505,-6.22448 -25.022259,-16.80299 -11.440324,-6.6051 -21.32419154,-12.68351 -22.00031704,-13.44601 -1.03357029,-1.21672 0.71344186,-4.6725 14.40690304,-28.39014 l 15.51899,-26.87979 45.228026,26.48429 c 44.66945,26.16225 45.22748,26.48444 49.94525,32.06038 2.6501,3.14232 6.38386,8.27401 8.40807,11.42701 1.87584,3.19324 4.92744,9.29368 6.58616,13.7236 1.71258,4.33706 3.67819,11.67267 4.40288,16.43161 0.68556,4.61199 1.19824,12.10086 1.03241,16.46957 -3.92901,21.32514 -3.93961,11.89506 -3.35182,13.98679 0.93562,3.32956 4.41123,16.56251 19.51696,31.53228 6.97059,6.90792 11.02674,11.09535 15.44035,25.52378 0.3393,1.56014 1.79,14.05617 0.76942,15.82371 -1.34238,2.32493 -3.05306,3.56964 -6.13411,4.39508 -2.44015,0.57533 -5.27733,0.5494 -6.57972,-0.20248 -1.30197,-0.75181 -7.32248,-10.74874 -21.22396,-30.0598 -16.60146,-23.22634 -23.73415,-24.02914 -25.15803,-24.35498 -1.14494,-0.16517 -10.79228,-6.27075 -11.82307,-5.12965 -4.00065,-1.58192 28.5025,48.55335 52.64631,72.69943 5.76194,5.7625 17.89982,5.49246 18.15556,3.76706 2.66975,-1.18723 4.07239,2.2193 26.7919,15.7083 17.09945,10.12051 23.30236,14.19774 24.57169,16.29509 1.01935,1.45639 1.47292,4.32229 1.1179,6.22569 -0.40835,1.99654 -0.96347,4.03237 -1.37893,4.53654 z m 35.60832,-63.60819 c -1.18146,2.04628 -2.89218,3.29072 -5.47906,3.90529 l -3.70726,0.83605 -37.92301,-21.52282 -38.01642,-21.57649 -11.99509,-16.59843 c -6.61973,-9.15484 -11.85897,-17.26414 -11.76197,-18.07629 0.20415,-0.99809 11.89854,5.38147 53.93925,29.65349 45.20257,26.0979 53.83812,31.33156 55.37245,33.8296 1.05842,1.60334 1.70171,3.71102 1.64417,4.66993 -0.20423,0.99802 -1.10645,3.20551 -2.07306,4.87967 z m -27.53608,-60.89159 c -0.53687,0.93034 -1.8219,2.29667 -2.78462,3.10507 -1.05579,0.75453 -3.32462,1.67694 -5.03137,2.05562 -2.97351,0.63939 -4.60836,-0.18026 -34.34657,-16.97762 L 158.69225,350.4136 c 0.56584,-12.18905 -6.68744,-29.66987 -6.91617,-28.54174 l 53.06446,30.25889 c 21.39247,12.35083 30.71843,18.1072 31.9091,19.91087 1.01944,1.45666 1.78068,4.00437 1.71928,5.82911 -0.11529,1.91773 -0.63113,4.10005 -1.26109,4.97624 z"
       style="fill:#ecb279;fill-opacity:1;stroke-width:0.101318" />
    <path
       id="path2"
       d="m 270.78532,20.345583 c 1.56369,-2.708208 2.76686,-3.654894 5.95571,-4.44002 l 4.01308,-1.075173 21.87455,13.28563 c 12.03903,7.38838 42.55299,25.114351 42.3897,25.239692 -3.38744,2.599224 -3.34372,14.395535 -2.4835,17.60662 0.30336,1.132281 -20.1245,-10.962351 -38.5082,-21.576183 l -33.48455,-19.332291 -0.78497,-3.189062 c -0.7065,-2.377467 -0.39346,-4.056919 1.02818,-6.519213 z M 309.81605,4.1059258 c 0.28433,-0.4922162 1.27585,-1.4521036 2.12521,-2.1650348 0.93153,-0.6660115 2.9334,-1.47970016 4.4394,-1.81408951 2.6239,-0.56413574 3.90235,0.0643476 32.87284,16.79067651 23.14382,13.362099 30.63426,18.014911 32.65712,20.386606 1.47381,1.616868 57.6957,80.692286 58.45311,82.223716 0.79169,1.66074 23.19657,33.36067 24.31335,35.97499 1.11686,2.61458 3.67272,6.7166 5.61379,9.04074 3.21569,3.71701 5.91148,5.49234 22.07906,14.82657 10.09468,5.82819 18.81597,11.19164 19.41257,11.86445 0.912,1.07361 -0.62953,4.12291 -12.71231,25.0508 l -13.6936,23.7181 -39.90817,-23.36912 c -39.41528,-23.08496 -39.90768,-23.36926 -44.07053,-28.28934 -2.33838,-2.77271 -5.63297,-7.30079 -7.41908,-10.08293 -1.6552,-2.81764 -4.34787,-8.20052 -5.81148,-12.10938 -1.51113,-3.82692 -3.24555,-10.29969 -3.885,-14.49888 -0.60492,-4.06951 -1.0573,-10.67751 -0.91097,-14.53236 3.46686,-18.81681 3.47622,-10.49592 2.95757,-12.34162 -0.82557,-2.93792 -3.89237,-14.61438 -17.22133,-27.823349 -6.15067,-6.095389 -9.72974,-9.790276 -13.62419,-22.521597 -0.2994,-1.376631 -1.57946,-12.402837 -0.67892,-13.962474 1.18448,-2.051464 2.69395,-3.14977 5.41259,-3.87812 2.15314,-0.507654 4.6566,-0.484767 5.80579,0.178676 1.14883,0.663377 6.4612,9.484432 18.72754,26.524065 14.64874,20.494379 20.94246,21.202749 22.19886,21.490269 1.01026,0.14574 9.52286,5.53317 10.4324,4.52628 3.53009,1.39585 -25.14995,-42.842347 -46.45388,-64.148289 -5.0842,-5.084699 -15.79438,-4.846414 -16.02004,-3.323964 -2.35573,1.047586 -3.59339,-1.95826 -23.64056,-13.860645 -15.08817,-8.930105 -20.56146,-12.527759 -21.68149,-14.378401 -0.89945,-1.285094 -1.29967,-3.8138961 -0.98641,-5.493415 0.36033,-1.7617017 0.85014,-3.5580696 1.21674,-4.0029302 z M 278.39609,60.232315 c 1.04249,-1.805589 2.55199,-2.903658 4.83459,-3.44594 l 3.2712,-0.737704 33.46239,18.99124 33.5448,19.038587 10.5842,14.646072 c 5.84109,8.07802 10.46408,15.23347 10.37849,15.9501 -0.18014,0.88069 -10.499,-4.74849 -47.59475,-26.165556 -39.8857,-23.02818 -47.50551,-27.646241 -48.85937,-29.850453 -0.93392,-1.414755 -1.50154,-3.274514 -1.45078,-4.120632 0.18021,-0.880633 0.97631,-2.828478 1.82923,-4.305714 z m 24.2972,53.729335 c 0.47372,-0.82091 1.6076,-2.02654 2.45708,-2.73985 0.93161,-0.66578 2.93357,-1.4797 4.43957,-1.81383 2.62375,-0.56418 4.06631,0.15905 30.30661,14.98066 l 32.07708,18.19147 c -0.49929,10.75533 5.90085,26.18 6.10267,25.18456 l -46.82285,-26.69974 c -18.87621,-10.89807 -27.10523,-15.97737 -28.15585,-17.56889 -0.89953,-1.28532 -1.57123,-3.53336 -1.51705,-5.14347 0.10173,-1.69215 0.55689,-3.61779 1.11275,-4.39091 z"
       style="fill:#ecb279;fill-opacity:1;stroke-width:0.0894003" />
    <path
       d="m 455.53713,492.82553 13.62289,-30.63091 C 446.42447,343.70102 296.95418,199.48111 193.90351,129.51395 l 10.81991,-15.62826 c 5.28537,-6.96075 4.56356,-15.53557 -3.31432,-21.149061 l -3.54626,-2.52815 c -7.33415,-5.22509 -19.79674,-3.77449 -24.35597,2.83495 l -11.81629,17.128011 -22.61796,33.60469 -12.00823,17.39669 c -5.4281,6.9768 -3.5795,15.64822 4.5181,21.19361 l 5.46769,3.74339 c 6.32155,4.32871 15.89223,2.2218 19.69037,-3.38301 l 13.27835,-19.59274 c 13.93917,10.33887 29.26793,22.42417 42.44381,32.76311 63.92008,50.68361 192.35679,159.86211 243.07442,296.92835 z M 126.9272,136.46935 149.21266,103.31861 C 119.86487,84.714049 84.228027,63.759719 34.043787,43.510289 l -14.19879,37.33095 c 35.5478,14.62711 71.534399,32.839161 107.082203,55.628111 z"
       fill="#a3abc2"
       id="path1-7"
       style="stroke-width:2.98022;fill:#ecb279" />
  </g>
</svg>
