<?xml version="1.0" encoding="UTF-8" standalone="no"?>
<!-- Created with Inkscape (http://www.inkscape.org/) -->

<svg
   width="512"
   height="512"
   viewBox="0 0 512 512"
   version="1.1"
   id="svg1"
   inkscape:version="1.3.2 (091e20e, 2023-11-25, custom)"
   sodipodi:docname="KWD_KIT_SpellBoundType_ShieldL_Normal_C.svg"
   xmlns:inkscape="http://www.inkscape.org/namespaces/inkscape"
   xmlns:sodipodi="http://sodipodi.sourceforge.net/DTD/sodipodi-0.dtd"
   xmlns="http://www.w3.org/2000/svg"
   xmlns:svg="http://www.w3.org/2000/svg">
  <sodipodi:namedview
     id="namedview1"
     pagecolor="#ffffff"
     bordercolor="#000000"
     borderopacity="0.25"
     inkscape:showpageshadow="2"
     inkscape:pageopacity="0.0"
     inkscape:pagecheckerboard="0"
     inkscape:deskcolor="#d1d1d1"
     inkscape:document-units="px"
     inkscape:zoom="1.1614781"
     inkscape:cx="229.8795"
     inkscape:cy="167.45903"
     inkscape:window-width="1920"
     inkscape:window-height="1009"
     inkscape:window-x="1042"
     inkscape:window-y="235"
     inkscape:window-maximized="1"
     inkscape:current-layer="layer1" />
  <defs
     id="defs1" />
  <g
     inkscape:label="Layer 1"
     inkscape:groupmode="layer"
     id="layer1">
    <path
       id="path2"
       d="m 268.81364,491.55191 c 1.57648,2.73035 2.78947,3.68476 6.0044,4.47631 l 4.04588,1.08396 22.05334,-13.39423 c 12.13744,-7.44877 42.90082,-25.31963 42.7362,-25.446 -3.41513,-2.62047 -3.37106,-14.51319 -2.5038,-17.75053 0.30583,-1.14154 -20.289,11.05196 -38.82297,21.75254 l -33.75825,19.49031 -0.79138,3.21513 c -0.71227,2.39691 -0.39667,4.09008 1.03658,6.57251 z m 39.34976,16.37239 c 0.28666,0.49624 1.28628,1.46398 2.14259,2.18274 0.93914,0.67145 2.95737,1.49179 4.47569,1.82892 2.64535,0.56874 3.93424,-0.0649 33.14154,-16.92793 23.33299,-13.47132 30.88467,-18.16216 32.92406,-20.55324 1.48586,-1.63009 58.1673,-81.35186 58.93089,-82.89582 0.79817,-1.6743 23.38619,-33.63335 24.51209,-36.26904 1.12599,-2.63595 3.70275,-6.77149 5.65968,-9.11464 3.24197,-3.74738 5.9598,-5.53723 22.25953,-14.94776 10.1772,-5.87582 18.96978,-11.28312 19.57125,-11.96143 0.91946,-1.08238 -0.63467,-4.1566 -12.81622,-25.25556 l -13.80553,-23.91197 -40.23437,23.56014 c -39.73746,23.27365 -40.23388,23.56028 -44.43076,28.52057 -2.3575,2.79538 -5.67901,7.36048 -7.47972,10.16535 -1.66874,2.84067 -4.38341,8.26755 -5.85899,12.20836 -1.52348,3.85821 -3.27208,10.38388 -3.91675,14.61739 -0.60987,4.10278 -1.06594,10.76479 -0.91842,14.65115 3.49519,18.97061 3.50463,10.58171 2.98174,12.4425 -0.83231,2.96193 -3.92418,14.73383 -17.36209,28.05077 -6.20096,6.14522 -9.80927,9.87031 -13.73556,22.7057 -0.30185,1.38788 -1.59237,12.50421 -0.68448,14.07659 1.19417,2.06823 2.71598,3.17552 5.45684,3.90982 2.17073,0.51181 4.69466,0.48874 5.85326,-0.18013 1.15822,-0.6688 6.51401,-9.56196 18.88061,-26.74087 14.76848,-20.66191 21.11364,-21.37606 22.38031,-21.66593 1.01853,-0.14694 9.6007,-5.5784 10.51767,-4.56328 3.55895,-1.40726 -25.35551,43.19254 -46.83358,64.67263 -5.12576,5.12626 -15.9235,4.88603 -16.151,3.35114 -2.37498,-1.05616 -3.62276,1.97426 -23.83379,13.97393 -15.2115,9.00311 -20.72953,12.63017 -21.85872,14.49594 -0.9068,1.29559 -1.31029,3.84507 -0.99447,5.53832 0.36327,1.7761 0.85709,3.58715 1.22668,4.03564 z m -31.67678,-56.58515 c 1.05102,1.82034 2.57285,2.92739 4.87411,3.4741 l 3.29794,0.74373 33.73591,-19.14647 33.81899,-19.19421 10.67072,-14.76579 c 5.88884,-8.14404 10.54961,-15.35799 10.46332,-16.08047 -0.1816,-0.88789 -10.58482,4.7873 -47.98379,26.37943 -40.21172,23.21641 -47.89381,27.87222 -49.25874,30.09445 -0.94155,1.42632 -1.51382,3.30128 -1.46264,4.15431 0.18168,0.88783 0.98429,2.85161 1.84418,4.34092 z m 24.49581,-54.16852 c 0.47758,0.82762 1.62074,2.04311 2.47716,2.76224 0.93923,0.67122 2.95754,1.49179 4.47586,1.82866 2.6452,0.56879 4.09955,-0.16036 30.55433,-15.10311 l 32.33928,-18.34016 c -0.50336,-10.84325 5.94909,-26.39399 6.15256,-25.39043 l -47.20559,26.91799 c -19.0305,10.98715 -27.32678,16.10797 -28.38599,17.7125 -0.90688,1.29582 -1.58407,3.56224 -1.52945,5.18551 0.10256,1.70598 0.56144,3.64735 1.12184,4.4268 z"
       style="fill:#ecb279;fill-opacity:1;stroke-width:0.090131" />
    <path
       id="path1"
       d="m 243.18636,491.55191 c -1.57648,2.73035 -2.78947,3.68476 -6.0044,4.47631 l -4.04588,1.08396 -22.05334,-13.39423 c -12.13744,-7.44877 -42.90082,-25.31963 -42.7362,-25.446 3.41513,-2.62047 3.37106,-14.51319 2.5038,-17.75053 -0.30583,-1.14154 20.289,11.05196 38.82297,21.75254 l 33.75825,19.49031 0.79138,3.21513 c 0.71227,2.39691 0.39667,4.09008 -1.03658,6.57251 z M 203.8366,507.9243 c -0.28666,0.49624 -1.28628,1.46398 -2.14259,2.18274 -0.93914,0.67145 -2.95737,1.49179 -4.47569,1.82892 -2.64535,0.56874 -3.93424,-0.0649 -33.14154,-16.92793 -23.33299,-13.47132 -30.88467,-18.16216 -32.92406,-20.55324 -1.48586,-1.63009 -58.167302,-81.35186 -58.930892,-82.89582 -0.79817,-1.6743 -23.38619,-33.63335 -24.51209,-36.26904 -1.12599,-2.63595 -3.70275,-6.77149 -5.65968,-9.11464 -3.24197,-3.74738 -5.9598,-5.53723 -22.25953,-14.94776 -10.1772,-5.87582 -18.96978,-11.28312 -19.57125,-11.96143 -0.91946,-1.08238 0.63467,-4.1566 12.81622,-25.25556 l 13.80553,-23.91197 40.23437,23.56014 c 39.737462,23.27365 40.233882,23.56028 44.430762,28.52057 2.3575,2.79538 5.67901,7.36048 7.47972,10.16535 1.66874,2.84067 4.38341,8.26755 5.85899,12.20836 1.52348,3.85821 3.27208,10.38388 3.91675,14.61739 0.60987,4.10278 1.06594,10.76479 0.91842,14.65115 -3.49519,18.97061 -3.50463,10.58171 -2.98174,12.4425 0.83231,2.96193 3.92418,14.73383 17.36209,28.05077 6.20096,6.14522 9.80927,9.87031 13.73556,22.7057 0.30185,1.38788 1.59237,12.50421 0.68448,14.07659 -1.19417,2.06823 -2.71598,3.17552 -5.45684,3.90982 -2.17073,0.51181 -4.69466,0.48874 -5.85326,-0.18013 -1.15822,-0.6688 -6.51401,-9.56196 -18.88061,-26.74087 -14.76848,-20.66191 -21.11364,-21.37606 -22.38031,-21.66593 -1.01853,-0.14694 -9.600702,-5.5784 -10.517672,-4.56328 -3.55895,-1.40726 25.355512,43.19254 46.833582,64.67263 5.12576,5.12626 15.9235,4.88603 16.151,3.35114 2.37498,-1.05616 3.62276,1.97426 23.83379,13.97393 15.2115,9.00311 20.72953,12.63017 21.85872,14.49594 0.9068,1.29559 1.31029,3.84507 0.99447,5.53832 -0.36327,1.7761 -0.85709,3.58715 -1.22668,4.03564 z m 31.67678,-56.58515 c -1.05102,1.82034 -2.57285,2.92739 -4.87411,3.4741 l -3.29794,0.74373 -33.73591,-19.14647 -33.81899,-19.19421 -10.67072,-14.76579 c -5.88884,-8.14404 -10.54961,-15.35799 -10.46332,-16.08047 0.1816,-0.88789 10.58482,4.7873 47.98379,26.37943 40.21172,23.21641 47.89381,27.87222 49.25874,30.09445 0.94155,1.42632 1.51382,3.30128 1.46264,4.15431 -0.18168,0.88783 -0.98429,2.85161 -1.84418,4.34092 z m -24.49581,-54.16852 c -0.47758,0.82762 -1.62074,2.04311 -2.47716,2.76224 -0.93923,0.67122 -2.95754,1.49179 -4.47586,1.82866 -2.6452,0.56879 -4.09955,-0.16036 -30.55433,-15.10311 l -32.33928,-18.34016 c 0.50336,-10.84325 -5.94909,-26.39399 -6.15256,-25.39043 l 47.20559,26.91799 c 19.0305,10.98715 27.32678,16.10797 28.38599,17.7125 0.90688,1.29582 1.58407,3.56224 1.52945,5.18551 -0.10256,1.70598 -0.56144,3.64735 -1.12184,4.4268 z"
       style="fill:#ecb279;fill-opacity:1;stroke-width:0.090131" />
    <path
       d="M 380.62942,257.02581 Q 342.08368,337.27403 256.02038,381.30256 174.94144,337.27403 132.57436,258.52112 90.53957,179.26977 91.868737,79.084099 L 256.02038,18.274888 420.17201,80.080966 q 0,97.195044 -39.54259,176.944844 m -204.02653,-115.47105 79.41749,-29.40774 79.41748,29.90618 q 0,46.85301 -19.27285,85.39873 -18.44214,38.71188 -60.14463,60.31076 -39.21031,-21.59888 -59.81235,-59.48003 -20.43587,-38.37959 -19.60514,-86.7279 M 126.42697,104.3382 q -1.163,79.41749 32.06609,141.722 33.56134,61.97224 97.52732,97.0289 68.11962,-35.05666 98.35807,-98.1919 31.06918,-62.80297 31.06918,-139.56213 L 256.02038,56.654473 126.42697,104.3382"
       fill="#ffffff"
       fill-rule="evenodd"
       stroke="none"
       id="path275"
       style="fill:#ecb279;fill-opacity:1;stroke-width:3.32291" />
  </g>
</svg>
