<?xml version="1.0" encoding="UTF-8" standalone="no"?>
<!-- Created with Inkscape (http://www.inkscape.org/) -->

<svg
   width="512"
   height="512"
   viewBox="0 0 512 512"
   version="1.1"
   id="svg1"
   inkscape:version="1.3.2 (091e20e, 2023-11-25, custom)"
   sodipodi:docname="KWD_KIT_MagicBoundWarhammer.svg"
   xmlns:inkscape="http://www.inkscape.org/namespaces/inkscape"
   xmlns:sodipodi="http://sodipodi.sourceforge.net/DTD/sodipodi-0.dtd"
   xmlns="http://www.w3.org/2000/svg"
   xmlns:svg="http://www.w3.org/2000/svg">
  <sodipodi:namedview
     id="namedview1"
     pagecolor="#ffffff"
     bordercolor="#000000"
     borderopacity="0.25"
     inkscape:showpageshadow="2"
     inkscape:pageopacity="0.0"
     inkscape:pagecheckerboard="0"
     inkscape:deskcolor="#d1d1d1"
     inkscape:document-units="px"
     inkscape:zoom="0.82128904"
     inkscape:cx="214.29727"
     inkscape:cy="132.1094"
     inkscape:window-width="1920"
     inkscape:window-height="1017"
     inkscape:window-x="1042"
     inkscape:window-y="276"
     inkscape:window-maximized="1"
     inkscape:current-layer="layer1" />
  <defs
     id="defs1" />
  <g
     inkscape:label="Layer 1"
     inkscape:groupmode="layer"
     id="layer1">
    <path
       id="path1"
       d="m 181.00407,455.98669 c -1.17338,2.03221 -2.07623,2.74258 -4.46908,3.33174 l -3.01138,0.80679 -16.41434,-9.96934 c -9.0339,-5.54414 -31.93115,-18.84547 -31.80862,-18.93952 2.54188,-1.95042 2.50908,-10.80221 1.86358,-13.21175 -0.22763,-0.84964 15.10114,8.22598 28.89599,16.19046 l 25.12635,14.50666 0.58902,2.39305 c 0.53015,1.78401 0.29524,3.04424 -0.77152,4.89191 z m -29.28811,12.18601 c -0.21336,0.36936 -0.95738,1.08964 -1.59473,1.62461 -0.699,0.49977 -2.20119,1.11035 -3.33127,1.36128 -1.96893,0.42331 -2.92827,-0.0484 -24.66731,-12.5995 C 104.75586,448.53235 99.13514,445.04096 97.617223,443.26127 96.51129,442.048 54.323189,382.71093 53.754839,381.56175 53.16076,380.31556 36.348456,356.5284 35.51045,354.56663 34.672368,352.6047 32.754493,349.5266 31.297942,347.78261 28.884931,344.9934 26.862044,343.66122 14.73013,336.65695 7.1552214,332.28355 0.61088683,328.25891 0.16320644,327.75404 -0.521145,326.94841 0.63559986,324.66027 9.7023468,308.95627 l 10.2754822,-17.79773 29.946522,17.53587 c 29.57666,17.32262 29.946151,17.53595 33.069891,21.22791 1.75469,2.08062 4.226902,5.47841 5.56718,7.56608 1.242036,2.11432 3.262573,6.15357 4.360849,9.08671 1.133935,2.87167 2.435418,7.72876 2.91525,10.87976 0.453928,3.0537 0.793385,8.01225 0.683583,10.90487 -2.601484,14.11987 -2.608506,7.876 -2.219319,9.26098 0.619494,2.20458 2.920769,10.96642 12.922635,20.87825 4.61538,4.57389 7.30105,7.34648 10.2234,16.89989 0.22466,1.03301 1.1852,9.30691 0.50945,10.47723 -0.88881,1.5394 -2.0215,2.36355 -4.06153,2.91011 -1.61568,0.38094 -3.49424,0.36375 -4.35658,-0.13408 -0.86206,-0.4978 -4.84839,-7.117 -14.052879,-19.9033 -10.992207,-15.3787 -15.714929,-15.91025 -16.657711,-16.12598 -0.758087,-0.10941 -7.14582,-4.15201 -7.828324,-3.39647 -2.648931,-1.04741 18.872163,32.1483 34.858334,48.13597 3.81511,3.81548 11.85188,3.63669 12.02121,2.49426 1.76771,-0.7861 2.69643,1.46945 17.73954,10.40083 11.32193,6.70102 15.42903,9.40066 16.26948,10.78934 0.67494,0.96434 0.97525,2.86191 0.74019,4.12219 -0.27038,1.32196 -0.63795,2.66992 -0.91303,3.00374 z m 23.5771,-42.11644 c -0.78228,1.35488 -1.91499,2.17885 -3.62781,2.58578 l -2.45467,0.55356 -25.10971,-14.25075 -25.17153,-14.28628 -7.94223,-10.99022 c -4.38308,-6.06162 -7.8521,-11.43098 -7.78788,-11.96873 0.13518,-0.66086 7.8783,3.56319 35.71443,19.63426 29.92964,17.28002 35.64747,20.74535 36.66337,22.39937 0.7008,1.06161 1.12673,2.45714 1.08863,3.09205 -0.13521,0.66083 -0.7326,2.12245 -1.3726,3.23096 z m -18.23227,-40.31773 c -0.35548,0.61599 -1.20634,1.52067 -1.84377,2.05593 -0.69907,0.4996 -2.20132,1.11034 -3.3314,1.36108 -1.96881,0.42335 -3.05129,-0.11933 -22.74163,-11.24128 L 105.0738,364.26365 c 0.37465,-8.07064 -4.42792,-19.6451 -4.57936,-18.89814 l 35.1352,20.0351 c 14.16444,8.17778 20.33938,11.98921 21.12775,13.18344 0.67498,0.96449 1.17903,2.65139 1.13838,3.85959 -0.0764,1.26977 -0.41788,2.71474 -0.83499,3.29489 z"
       style="fill:#ecb279;fill-opacity:1;stroke-width:0.0670845" />
    <path
       id="path2"
       d="m 297.58646,18.085001 c 1.38994,-2.4073 2.45943,-3.248789 5.29397,-3.946697 l 3.56719,-0.955707 19.4441,11.809474 c 10.70138,6.56747 37.82496,22.323925 37.67982,22.435338 -3.01106,2.310427 -2.97221,12.796061 -2.20756,15.650357 0.26965,1.006475 -17.88849,-9.744327 -34.22959,-19.178864 L 297.37027,26.714606 296.67253,23.87988 c -0.628,-2.113316 -0.34974,-3.606159 0.91393,-5.794879 z M 332.28052,3.6497222 c 0.25273,-0.4375323 1.13409,-1.290766 1.88908,-1.9244805 0.82803,-0.5920177 2.60748,-1.31529285 3.94615,-1.61252967 2.33236,-0.50145274 3.46877,0.0571966 29.22036,14.92508497 20.57234,11.877444 27.23052,16.013283 29.02862,18.121459 1.31006,1.437228 51.28518,71.726654 51.95843,73.087934 0.70374,1.47621 20.61923,29.65399 21.61192,31.97784 0.99278,2.32407 3.26465,5.97033 4.99004,8.03623 2.8584,3.30402 5.25468,4.8821 19.62589,13.17921 8.97306,5.18063 16.72534,9.94814 17.25566,10.54619 0.81067,0.95433 -0.55959,3.66481 -11.29986,22.26743 l -12.17212,21.08281 -35.47401,-20.7726 c -35.03587,-20.52 -35.47357,-20.77273 -39.17388,-25.14614 -2.07858,-2.46465 -5.0071,-6.48961 -6.59476,-8.96262 -1.4713,-2.50458 -3.86478,-7.28938 -5.16577,-10.76392 -1.34324,-3.40172 -2.88495,-9.15531 -3.45335,-12.88792 -0.53771,-3.61735 -0.93982,-9.49115 -0.80976,-12.91769 3.08167,-16.72609 3.08999,-9.32972 2.62896,-10.97035 -0.73384,-2.6115 -3.45988,-12.990585 -15.30787,-24.731925 -5.46729,-5.418135 -8.64868,-8.702497 -12.11042,-20.019251 -0.26613,-1.22368 -1.40397,-11.024767 -0.60349,-12.411108 1.05287,-1.823535 2.39463,-2.799807 4.8112,-3.447231 1.91391,-0.451253 4.1392,-0.430907 5.16072,0.158819 1.02118,0.589671 5.74329,8.430628 16.64673,23.577011 13.02114,18.217274 18.61557,18.846928 19.73237,19.1025 0.89802,0.129555 8.46479,4.918385 9.27327,4.023378 3.13787,1.240752 -22.35557,-38.082192 -41.29244,-57.020841 -4.5193,-4.519744 -14.03947,-4.307931 -14.24007,-2.954642 -2.09398,0.931191 -3.19412,-1.740676 -21.01387,-12.320609 -13.41173,-7.937885 -18.2769,-11.135809 -19.27248,-12.780823 -0.79952,-1.142317 -1.15527,-3.3901437 -0.87682,-4.8830517 0.32029,-1.5659647 0.75569,-3.1627325 1.08156,-3.5581641 z M 304.35161,53.539958 c 0.92666,-1.604965 2.26843,-2.581029 4.29742,-3.063064 l 2.90775,-0.655741 29.74441,16.881143 29.81766,16.923233 9.4082,13.018768 c 5.1921,7.180473 9.30142,13.540893 9.22534,14.177893 -0.16011,0.78284 -9.33245,-4.22088 -42.30654,-23.258325 -35.45403,-20.469543 -42.22722,-24.574491 -43.43064,-26.533803 -0.83016,-1.257561 -1.33472,-2.910685 -1.28958,-3.662788 0.16017,-0.782797 0.86783,-2.514206 1.62598,-3.827316 z m 21.59755,47.759522 c 0.42109,-0.72969 1.42898,-1.801367 2.18408,-2.43542 0.8281,-0.59181 2.60762,-1.315282 3.9463,-1.6123 2.33222,-0.501497 3.6145,0.141376 26.93927,13.31618 l 28.51302,16.17021 c -0.44381,9.56033 5.24522,23.27118 5.42461,22.38634 l -41.6204,-23.73315 c -16.77889,-9.68721 -24.0936,-14.20215 -25.02748,-15.61683 -0.79959,-1.14251 -1.39666,-3.14077 -1.3485,-4.572 0.0904,-1.50414 0.49501,-3.2158 0.98911,-3.90303 z"
       style="fill:#ecb279;fill-opacity:1;stroke-width:0.0794671" />
    <g
       fill="#a4a5bf"
       transform="matrix(-0.56837056,-0.0537122,0.0537122,-0.56837056,376.35232,623.12332)"
       id="g3"
       style="fill:#ecb279" />
    <path
       id="path1-0"
       d="m 512.00016,325.15414 -44.58398,43.72266 c -8.48626,8.24027 -17.61826,7.37543 -27.39062,-2.59571 l -1.31836,-1.32226 -42.01368,40.44727 18.96094,19.27148 -33.34375,34.0957 -18.90234,-19.20898 -44,41.89062 -0.0469,-0.0488 -3.14453,3.08203 c -33.11117,9.86005 -67.31365,7.32886 -106.75782,-6.16992 19.41625,-25.49627 21.52597,-56.11718 10.36328,-92.18165 l 36.73242,-35.47265 85.73633,-84.03321 c -9.19619,-9.75533 -9.67906,-18.69152 -1.34961,-26.79492 l 44.60937,-43.72265 c 34.59837,47.17532 76.53436,90.30842 126.44925,129.04101 z M 298.15251,290.46078 258.12516,329.84359 36.574384,95.152169 73.640784,58.558443 Z M 63.168124,48.486153 c -0.0745,1.95742 -0.83762,3.94197 -2.15622,5.23438 l -29.34573,28.76172 c -2.23816,2.19371 -6.25958,2.71336 -9.00193,1.19728 -13.9286898,-7.70033 -14.7693698,-7.43686 -21.96679975,-22.3906 -1.38588,-2.87936 -0.63957,-7.03476 1.64257995,-9.27149 L 31.293134,23.638523 c 2.28212,-2.23673 6.38125,-2.76605 9.17776,-1.22072 13.95575,7.71198 14.70259,7.4134 22.05857,22.73046 0.47958,0.99867 0.68341,2.16348 0.63866,3.33789 z"
       style="fill:#ecb279;stroke-width:0.543953" />
  </g>
</svg>
