<?xml version="1.0" encoding="UTF-8" standalone="no"?>
<!-- Created with Inkscape (http://www.inkscape.org/) -->

<svg
   width="512"
   height="512"
   viewBox="0 0 512 512"
   version="1.1"
   id="svg1"
   inkscape:version="1.3.2 (091e20e, 2023-11-25, custom)"
   sodipodi:docname="KWD_KIT_MagicBoundBow.svg"
   xmlns:inkscape="http://www.inkscape.org/namespaces/inkscape"
   xmlns:sodipodi="http://sodipodi.sourceforge.net/DTD/sodipodi-0.dtd"
   xmlns="http://www.w3.org/2000/svg"
   xmlns:svg="http://www.w3.org/2000/svg">
  <sodipodi:namedview
     id="namedview1"
     pagecolor="#ffffff"
     bordercolor="#000000"
     borderopacity="0.25"
     inkscape:showpageshadow="2"
     inkscape:pageopacity="0.0"
     inkscape:pagecheckerboard="0"
     inkscape:deskcolor="#d1d1d1"
     inkscape:document-units="px"
     inkscape:zoom="0.82128906"
     inkscape:cx="227.69084"
     inkscape:cy="218.55886"
     inkscape:window-width="1920"
     inkscape:window-height="1017"
     inkscape:window-x="1042"
     inkscape:window-y="276"
     inkscape:window-maximized="1"
     inkscape:current-layer="layer1" />
  <defs
     id="defs1" />
  <g
     inkscape:label="Layer 1"
     inkscape:groupmode="layer"
     id="layer1">
    <path
       id="path1"
       d="m 277.87129,488.56513 c -1.80112,3.11942 -3.18697,4.20985 -6.86003,5.1142 l -4.62242,1.23842 -25.19602,-15.30293 c -13.86704,-8.51024 -49.01427,-28.92774 -48.82619,-29.07211 3.90179,-2.9939 3.85144,-16.58137 2.86059,-20.28003 -0.34941,-1.30421 23.18024,12.62688 44.35534,24.85232 l 38.56886,22.26774 0.90417,3.67328 c 0.81377,2.73848 0.4532,4.67294 -1.1843,7.50911 z m -44.95718,18.7055 c -0.32751,0.56695 -1.4696,1.67259 -2.44792,2.49377 -1.07298,0.76715 -3.37882,1.70438 -5.11348,2.08955 -3.02232,0.64979 -4.4949,-0.0742 -37.86428,-19.34019 -26.658,-15.39101 -35.2858,-20.75032 -37.61581,-23.48213 -1.6976,-1.86237 -66.456276,-92.94468 -67.328687,-94.70865 -0.911916,-1.91291 -26.71877,-38.42618 -28.005118,-41.43746 -1.286449,-3.01158 -4.230392,-7.73646 -6.466193,-10.41349 -3.703959,-4.28141 -6.809093,-6.32632 -25.431567,-17.07786 C 11.013593,298.68103 0.96804612,292.50318 0.28086052,291.72822 -0.76961646,290.49159 1.005973,286.97928 14.923428,262.87367 l 15.772847,-27.31948 45.967861,26.91752 c 45.400124,26.59019 45.967294,26.91766 50.762234,32.58481 2.69345,3.19372 6.48829,8.40936 8.54561,11.61394 1.90653,3.24546 5.00806,9.4457 6.6939,13.94807 1.74059,4.40801 3.73835,11.86361 4.47491,16.7004 0.69677,4.68745 1.21783,12.29881 1.0493,16.73898 -3.99328,21.67397 -4.00407,12.08962 -3.40666,14.21559 0.95091,3.38401 4.48338,16.83343 19.83622,32.04807 7.0846,7.02091 11.20712,11.27683 15.69291,25.9413 0.34486,1.58565 1.81929,14.28609 0.782,16.08254 -1.36433,2.36297 -3.103,3.62804 -6.23443,4.46698 -2.48008,0.58474 -5.36366,0.55838 -6.68735,-0.2058 -1.32328,-0.76411 -7.44228,-10.92457 -21.57116,-30.55152 -16.87301,-23.60626 -24.12237,-24.42218 -25.56955,-24.75336 -1.16367,-0.16787 -10.96881,-6.37332 -12.01646,-5.21357 -4.06611,-1.60779 28.96873,49.34759 53.50748,73.88865 5.85619,5.85676 18.19262,5.5823 18.45255,3.82867 2.71341,-1.20665 4.13901,2.25561 27.23015,15.96526 17.37917,10.28606 23.68354,14.42998 24.97363,16.56163 1.03603,1.48023 1.49701,4.393 1.13619,6.32755 -0.41504,2.02919 -0.97924,4.09832 -1.40148,4.61073 z m 36.19078,-64.64867 c -1.20079,2.07975 -2.93948,3.34455 -5.56867,3.96917 l -3.76792,0.84971 -38.54335,-21.87488 -38.63826,-21.92942 -12.19132,-16.86996 c -6.72801,-9.30458 -12.05296,-17.54653 -11.95437,-18.37197 0.2075,-1.01441 12.09317,5.4695 54.82158,30.13856 45.94198,26.5248 54.71879,31.84407 56.27822,34.38297 1.07574,1.62958 1.72955,3.77172 1.67107,4.74631 -0.20758,1.01436 -1.12456,3.25797 -2.10698,4.95951 z M 241.11838,380.7343 c -0.54564,0.94557 -1.85171,2.33425 -2.83017,3.15587 -1.07306,0.76687 -3.37899,1.70438 -5.11367,2.08924 -3.02214,0.64986 -4.68374,-0.18319 -34.9084,-17.25533 L 161.31845,347.7704 c 0.5751,-12.38842 -6.79684,-30.15519 -7.0293,-29.00861 l 53.93247,30.75387 c 21.7424,12.55284 31.22091,18.40338 32.43106,20.23656 1.03612,1.48048 1.8098,4.06986 1.7474,5.92446 -0.11717,1.94909 -0.64145,4.16711 -1.28171,5.05762 z"
       style="fill:#ecb279;fill-opacity:1;stroke-width:0.102975" />
    <path
       id="path2"
       d="m 320.26698,16.221953 c 1.24294,-2.152657 2.19929,-2.905146 4.734,-3.529218 l 3.18986,-0.854611 17.3873,10.560271 c 9.5694,5.872765 33.82386,19.96251 33.69407,20.062136 -2.69257,2.066033 -2.65781,11.442502 -1.97404,13.994882 0.24112,0.900009 -15.99626,-8.713587 -30.60882,-17.150142 l -26.61567,-15.366553 -0.62394,-2.534873 c -0.56159,-1.889766 -0.31276,-3.224704 0.81724,-5.181892 z M 351.29113,3.313627 c 0.22601,-0.3912435 1.01415,-1.1542233 1.68926,-1.7209063 0.74045,-0.5293923 2.33166,-1.1761614 3.52873,-1.4419616 2.08565,-0.44840846 3.10185,0.0511759 26.12945,13.3463169 18.39621,10.621059 24.3501,14.319413 25.95799,16.204588 1.17148,1.285189 45.86026,64.139434 46.46229,65.35672 0.6293,1.320055 18.43813,26.517196 19.32583,28.595246 0.88775,2.07822 2.91931,5.33878 4.4622,7.18615 2.55603,2.95451 4.69882,4.36566 17.54986,11.78512 8.0239,4.6326 14.95615,8.89583 15.43037,9.43062 0.72491,0.85337 -0.50038,3.27715 -10.10458,19.912 l -10.88455,18.85267 -31.72159,-18.57528 c -31.3298,-18.34941 -31.72118,-18.5754 -35.03008,-22.48619 -1.85872,-2.20393 -4.47745,-5.80316 -5.89717,-8.01457 -1.31566,-2.23965 -3.45597,-6.51831 -4.61935,-9.62532 -1.20113,-3.04188 -2.57977,-8.18685 -3.08804,-11.52464 -0.48084,-3.23472 -0.84041,-8.48717 -0.72412,-11.55125 2.75571,-14.956814 2.76314,-8.34284 2.35087,-9.80992 -0.6562,-2.335246 -3.0939,-11.616447 -13.68861,-22.115791 -4.88895,-4.845009 -7.73382,-7.781942 -10.82938,-17.901619 -0.23799,-1.094234 -1.25546,-9.858572 -0.53966,-11.098272 0.94151,-1.630638 2.14134,-2.503644 4.30229,-3.08258 1.71144,-0.403515 3.70135,-0.385327 4.61481,0.142022 0.91316,0.527295 5.13578,7.53884 14.88585,21.083037 11.64377,16.290257 16.64643,16.853309 17.64509,17.081845 0.80303,0.115852 7.56938,4.39812 8.29234,3.597791 2.80595,1.109508 -19.9908,-34.053864 -36.92454,-50.989205 -4.04124,-4.041645 -12.55439,-3.852242 -12.73376,-2.642099 -1.87247,0.832686 -2.85625,-1.556553 -18.79104,-11.017336 -11.99305,-7.098223 -16.34358,-9.957869 -17.23384,-11.428877 -0.71495,-1.0214804 -1.03307,-3.031534 -0.78407,-4.3665238 0.28641,-1.4003132 0.67575,-2.8281801 0.96714,-3.1817852 z m -24.9746,44.612872 c 0.82865,-1.435199 2.02848,-2.308015 3.84285,-2.739051 l 2.60016,-0.586373 26.59806,15.095457 26.66359,15.133095 8.41299,11.641647 c 4.64287,6.420926 8.31753,12.108548 8.24949,12.678166 -0.14318,0.70003 -8.34528,-3.774402 -37.83137,-20.798071 -31.70374,-18.304284 -37.76045,-21.975013 -38.8366,-23.727064 -0.74234,-1.12454 -1.1935,-2.602796 -1.15315,-3.275343 0.14323,-0.699982 0.77602,-2.248261 1.45398,-3.422463 z M 345.6295,90.63404 c 0.37656,-0.652518 1.27785,-1.610824 1.95306,-2.177801 0.7405,-0.529209 2.33178,-1.176163 3.52886,-1.441753 2.08551,-0.448455 3.23215,0.126417 24.08965,11.907593 L 400.698,113.38183 c -0.39687,8.54902 4.69037,20.80955 4.85079,20.01831 l -37.21783,-21.22267 c -15.00402,-8.66249 -21.54497,-12.699848 -22.38007,-13.964887 -0.71502,-1.021657 -1.24891,-2.808543 -1.20585,-4.088368 0.081,-1.345027 0.44265,-2.875646 0.88447,-3.490175 z"
       style="fill:#ecb279;fill-opacity:1;stroke-width:0.0710611" />
    <path
       id="path1-4"
       d="m 456.27308,241.23173 c -24.52928,-4.95115 -49.50403,-11.94 -70.70101,-23.7226 -13.94464,8.99407 -22.97062,20.47446 -24.45181,31.05331 20.75244,8.34465 51.44538,13.85638 67.74,20.08211 14.6697,60.92423 -12.66074,123.48934 -16.94571,189.09859 L 54.25801,100.08659 c 65.60616,-4.276356 128.10406,-31.409581 189.02814,-16.739926 6.22349,16.288771 11.77267,46.852146 20.13322,67.545276 13.24665,0.69827 23.2285,-9.17594 30.46636,-23.7019 C 281.66358,105.63436 274.83011,80.409703 270.69898,55.933843 202.00625,35.346031 124.56052,70.844648 47.97139,83.676737 33.36788,77.654307 16.67717,62.062691 13.705716,49.41106 6.942909,51.018178 1.530966,54.447332 0,63.116777 0.574051,83.963169 22.88743,95.455523 37.6921,100.80888 l 10e-4,0.001 373.49601,373.49601 10e-4,0.001 10e-4,10e-4 c 5.35362,14.80468 16.84646,37.11808 37.69211,37.69211 9.37401,-1.70207 11.96264,-7.45116 13.70571,-13.70572 -12.65164,-2.97143 -28.24462,-19.66353 -34.26706,-34.26706 12.83212,-76.58908 48.53787,-154.10389 27.95006,-222.79664 z m -81.02865,-32.71335 c -29.13629,-18.48797 -53.83462,-42.93178 -72.21051,-71.10566 -9.43563,13.38333 -21.4789,25.19502 -35.94644,35.54316 12.20673,31.04558 40.88612,59.74081 71.95778,71.95778 10.61658,-14.54479 22.69842,-26.53329 35.99478,-36.40081 z"
       style="fill:#ecb279" />
  </g>
</svg>
