<?xml version="1.0" encoding="UTF-8" standalone="no"?>
<!-- Created with Inkscape (http://www.inkscape.org/) -->

<svg
   width="512"
   height="512"
   viewBox="0 0 512 512"
   version="1.1"
   id="svg1"
   inkscape:version="1.3.2 (091e20e, 2023-11-25, custom)"
   sodipodi:docname="KWD_KIT_MagicBoundWarAxe.svg"
   xmlns:inkscape="http://www.inkscape.org/namespaces/inkscape"
   xmlns:sodipodi="http://sodipodi.sourceforge.net/DTD/sodipodi-0.dtd"
   xmlns="http://www.w3.org/2000/svg"
   xmlns:svg="http://www.w3.org/2000/svg">
  <sodipodi:namedview
     id="namedview1"
     pagecolor="#ffffff"
     bordercolor="#000000"
     borderopacity="0.25"
     inkscape:showpageshadow="2"
     inkscape:pageopacity="0.0"
     inkscape:pagecheckerboard="0"
     inkscape:deskcolor="#d1d1d1"
     inkscape:document-units="px"
     inkscape:zoom="1.1614781"
     inkscape:cx="232.46241"
     inkscape:cy="253.55622"
     inkscape:window-width="1920"
     inkscape:window-height="1017"
     inkscape:window-x="1042"
     inkscape:window-y="276"
     inkscape:window-maximized="1"
     inkscape:current-layer="layer1" />
  <defs
     id="defs1" />
  <g
     inkscape:label="Layer 1"
     inkscape:groupmode="layer"
     id="layer1">
    <path
       id="path2"
       d="m 294.24977,18.366433 c 1.41157,-2.444764 2.4977,-3.29936 5.37635,-4.008113 l 3.62271,-0.970584 19.74668,11.993257 c 10.86792,6.669666 38.41359,22.671323 38.2662,22.78447 -3.05793,2.346383 -3.01846,12.995194 -2.24192,15.893917 0.27385,1.022136 -18.16687,-9.895976 -34.76227,-19.477335 l -30.22731,-17.451719 -0.7086,-2.878843 c -0.63777,-2.146196 -0.35519,-3.662278 0.92816,-5.88505 z M 329.48374,3.7065067 c 0.25667,-0.4443353 1.15174,-1.3108485 1.91847,-1.9544286 0.84092,-0.6012244 2.64805,-1.33576059 4.00756,-1.63762183 2.36866,-0.50925879 3.52275,0.0580881 29.6751,15.15734473 20.89247,12.062285 27.65427,16.26249 29.48035,18.403475 1.33045,1.459586 52.08329,72.842864 52.76702,74.225314 0.71468,1.49919 20.9401,30.11548 21.94824,32.47549 1.00821,2.36024 3.31545,6.06323 5.0677,8.16129 2.90288,3.35543 5.33644,4.95807 19.93129,13.3843 9.11271,5.26124 16.98563,10.10295 17.5242,10.71032 0.82329,0.96917 -0.56829,3.72184 -11.47571,22.61395 l -12.36154,21.4109 -36.02605,-21.09586 c -35.58111,-20.83935 -36.02561,-21.096 -39.78352,-25.53747 -2.11091,-2.50299 -5.08501,-6.5906 -6.69738,-9.1021 -1.49419,-2.54355 -3.92492,-7.40281 -5.24616,-10.93142 -1.36414,-3.45466 -2.92984,-9.29778 -3.50708,-13.08848 -0.54608,-3.67366 -0.95445,-9.63886 -0.82236,-13.11872 3.12961,-16.98638 3.13807,-9.47491 2.66987,-11.14107 -0.74526,-2.65214 -3.51373,-13.192748 -15.54611,-25.116804 -5.55236,-5.502461 -8.78325,-8.837923 -12.29888,-20.330791 -0.27027,-1.242717 -1.42581,-11.196335 -0.61288,-12.604257 1.06926,-1.851906 2.43191,-2.843373 4.88609,-3.500871 1.94367,-0.458272 4.20361,-0.437611 5.24102,0.161294 1.03707,0.598847 5.83267,8.561824 16.90579,23.943906 13.22376,18.500777 18.90526,19.140233 20.03944,19.399782 0.91199,0.131566 8.59652,4.994917 9.41758,4.085984 3.1867,1.260076 -22.70345,-38.674814 -41.93503,-57.908197 -4.58963,-4.590078 -14.25796,-4.374972 -14.46167,-3.000621 -2.12658,0.945681 -3.24384,-1.767768 -21.34089,-12.512334 -13.62045,-8.061419 -18.56134,-11.309109 -19.57241,-12.979728 -0.81196,-1.160084 -1.17323,-3.4428945 -0.89045,-4.9590358 0.32528,-1.5903301 0.76745,-3.2119542 1.09838,-3.6135405 z M 301.12019,54.373137 c 0.94108,-1.629948 2.30374,-2.621201 4.3643,-3.110732 l 2.95299,-0.665943 30.2073,17.143846 30.28169,17.186588 9.55461,13.22136 c 5.27289,7.292224 9.44617,13.751624 9.36891,14.398544 -0.16261,0.79502 -9.47769,-4.28657 -42.96492,-23.620276 -36.00577,-20.788095 -42.88436,-24.956928 -44.10652,-26.946723 -0.84307,-1.277133 -1.35547,-2.955982 -1.30964,-3.719793 0.16267,-0.794968 0.88133,-2.553335 1.65128,-3.886871 z m 21.93366,48.502753 c 0.42765,-0.74105 1.45122,-1.8294 2.21807,-2.47332 0.84099,-0.601019 2.6482,-1.335758 4.0077,-1.637391 2.36852,-0.509296 3.67076,0.143578 27.3585,13.523401 l 28.95675,16.42187 c -0.45072,9.7091 5.32684,23.63331 5.50903,22.73471 l -42.26811,-24.10249 c -17.04,-9.83796 -24.46853,-14.42317 -25.41695,-15.85987 -0.81204,-1.16028 -1.41839,-3.18964 -1.36949,-4.64313 0.0918,-1.52755 0.50272,-3.26585 1.00451,-3.96378 z"
       style="fill:#ecb279;fill-opacity:1;stroke-width:0.0807037" />
    <path
       id="path1"
       d="m 199.53179,495.17022 c -1.29347,2.24022 -2.28873,3.02331 -4.92653,3.67277 l -3.3196,0.88937 -18.09454,-10.98982 c -9.95865,-6.11163 -35.19966,-20.77449 -35.0646,-20.87816 2.80209,-2.15008 2.76592,-11.90794 2.05435,-14.56413 -0.25094,-0.93661 16.6469,9.06802 31.85382,17.84774 l 27.69828,15.99159 0.64933,2.63796 c 0.5844,1.96664 0.32547,3.35588 -0.85051,5.39268 z m -32.28606,13.43337 c -0.23519,0.40716 -1.05538,1.20118 -1.75796,1.79091 -0.77056,0.55093 -2.4265,1.22401 -3.67226,1.50061 -2.17048,0.46665 -3.22801,-0.0532 -27.19227,-13.88918 -19.14448,-11.05308 -25.34054,-14.90186 -27.01384,-16.86371 -1.21913,-1.33747 -47.725644,-66.74834 -48.35217,-68.01513 -0.654889,-1.37376 -19.188113,-27.59582 -20.1119,-29.75837 -0.923868,-2.16276 -3.038059,-5.55594 -4.643704,-7.47846 -2.660008,-3.0747 -4.889961,-4.54324 -18.263708,-12.26448 C 7.8876366,358.80472 0.67341854,354.3681 0.17991321,353.81156 -0.57448902,352.92347 0.70066122,350.40112 10.695488,333.08965 l 11.32729,-19.61952 33.011872,19.33083 c 32.60415,19.09579 33.011463,19.33097 36.454954,23.40083 1.934303,2.29358 4.659571,6.03918 6.137037,8.34056 1.369178,2.33074 3.596539,6.78345 4.807229,10.01683 1.25,3.16561 2.68472,8.51986 3.21367,11.99341 0.50038,3.36629 0.87458,8.8324 0.75355,12.02111 -2.86777,15.56518 -2.87553,8.68218 -2.4465,10.20894 0.68291,2.43024 3.21975,12.08895 14.24541,23.01536 5.08782,5.04208 8.0484,8.09848 11.26989,18.62978 0.24765,1.13874 1.30652,10.25957 0.56159,11.5497 -0.9798,1.69696 -2.22843,2.60547 -4.47727,3.20797 -1.78106,0.41992 -3.85192,0.40099 -4.80253,-0.1478 -0.95031,-0.54874 -5.34468,-7.84549 -15.49135,-21.94061 -12.11737,-16.95288 -17.323515,-17.53883 -18.362801,-17.77666 -0.835685,-0.12056 -7.877272,-4.57701 -8.629637,-3.74413 -2.920077,-1.15464 20.80393,35.43902 38.426468,53.06321 4.20562,4.20605 13.06503,4.00894 13.2517,2.74957 1.94866,-0.86656 2.97244,1.61987 19.55537,11.46548 12.48087,7.38694 17.00837,10.36291 17.93484,11.89375 0.74403,1.06303 1.07508,3.15483 0.81595,4.54413 -0.29805,1.45727 -0.70323,2.94322 -1.00647,3.3112 z m 25.99046,-46.42751 c -0.86234,1.49357 -2.111,2.40189 -3.99915,2.85046 l -2.70593,0.61023 -27.67995,-15.70948 -27.74812,-15.74864 -8.7552,-12.11517 c -4.83173,-6.68211 -8.65584,-12.60107 -8.58504,-13.19386 0.14901,-0.72851 8.68472,3.92792 39.37018,21.64404 32.99328,19.04882 39.29637,22.86886 40.41627,24.69218 0.77253,1.17027 1.24207,2.70867 1.20007,3.40856 -0.14906,0.72846 -0.80759,2.33971 -1.51313,3.56168 z m -20.09854,-44.44469 c -0.39186,0.67905 -1.32979,1.67635 -2.03249,2.26639 -0.77062,0.55073 -2.42664,1.22399 -3.6724,1.50039 -2.17034,0.46669 -3.36363,-0.13156 -25.0695,-12.39194 l -26.53402,-15.0479 c 0.413,-8.89677 -4.88116,-21.65599 -5.04811,-20.83258 l 38.73167,22.08592 c 15.61433,9.01484 22.42133,13.21642 23.2904,14.53292 0.7441,1.0632 1.29972,2.92278 1.25491,4.25466 -0.0841,1.39974 -0.46066,2.99261 -0.92047,3.63214 z"
       style="fill:#ecb279;fill-opacity:1;stroke-width:0.0739515" />
    <path
       id="path1-9"
       d="m 510.97884,364.16507 c -0.85269,0.85877 -2.09453,1.25129 -3.09859,0.69876 -55.79631,-30.70532 -97.75089,-24.83218 -131.05001,12.32237 -3.95411,44.44714 -34.55238,46.23382 -49.32352,46.87919 -30.22604,3.14821 -21.21345,23.15338 -16.18382,44.28046 l -84.58693,-17.44394 -17.44395,-84.58693 c 21.12708,5.02962 41.13226,14.04221 44.28047,-16.18383 0.10159,-0.97502 0.17642,-1.99281 0.22507,-3.05671 103.73963,-104.50075 -63.80901,64.51315 49.95289,-50.09426 1.03378,-1.04128 2.70424,-1.04559 3.74499,-0.0102 l 4.33278,4.30872 19.94322,19.66057 c 41.43205,-26.36376 30.42964,-56.07884 -21.93349,-102.34754 -11.66937,-10.31119 -5.07815,-27.45587 -5.75358,-59.56532 -0.0862,-1.64458 0.56295,-5.54586 4.01847,-4.04466 167.69146,66.46939 197.9575,180.83604 203.79589,205.83743 0.29397,1.25881 -0.0672,2.48714 -0.91989,3.34589 z M 251.20185,325.70663 29.663004,107.05183 25.071704,111.67517 4.0436084e-4,86.739925 42.779924,43.654145 l 25.07131,24.93524 -4.58997,4.62206 L 284.88383,291.9918 Z"
       style="fill:#ecb279;stroke-width:3.581"
       sodipodi:nodetypes="sccccccscccccsccssccccccccc" />
  </g>
</svg>
