<?xml version="1.0" encoding="UTF-8" standalone="no"?>
<!-- Created with Inkscape (http://www.inkscape.org/) -->

<svg
   width="512"
   height="512"
   viewBox="0 0 512 512"
   version="1.1"
   id="svg1"
   inkscape:version="1.3.2 (091e20e, 2023-11-25, custom)"
   sodipodi:docname="KWD_KIT_SpellBoundType_Claw1H_Normal_C.svg"
   xmlns:inkscape="http://www.inkscape.org/namespaces/inkscape"
   xmlns:sodipodi="http://sodipodi.sourceforge.net/DTD/sodipodi-0.dtd"
   xmlns="http://www.w3.org/2000/svg"
   xmlns:svg="http://www.w3.org/2000/svg">
  <sodipodi:namedview
     id="namedview1"
     pagecolor="#ffffff"
     bordercolor="#000000"
     borderopacity="0.25"
     inkscape:showpageshadow="2"
     inkscape:pageopacity="0.0"
     inkscape:pagecheckerboard="0"
     inkscape:deskcolor="#d1d1d1"
     inkscape:document-units="px"
     inkscape:zoom="0.41064452"
     inkscape:cx="243.51963"
     inkscape:cy="122.97741"
     inkscape:window-width="1920"
     inkscape:window-height="1009"
     inkscape:window-x="1042"
     inkscape:window-y="235"
     inkscape:window-maximized="1"
     inkscape:current-layer="layer1" />
  <defs
     id="defs1" />
  <g
     inkscape:label="Layer 1"
     inkscape:groupmode="layer"
     id="layer1">
    <path
       id="path2"
       d="m 277.99172,492.26226 c 1.51698,2.6273 2.68419,3.54569 5.77779,4.30737 l 3.89318,1.04305 21.22103,-12.88872 c 11.67936,-7.16765 41.28171,-24.36405 41.1233,-24.48565 -3.28624,-2.52157 -3.24383,-13.96545 -2.40931,-17.08061 0.29429,-1.09845 -19.52327,10.63485 -37.35775,20.93158 l -32.48418,18.75473 -0.76152,3.09379 c -0.68539,2.30645 -0.3817,3.93572 0.99746,6.32446 z m 37.86467,15.75448 c 0.27584,0.47751 1.23773,1.40873 2.06172,2.10036 0.9037,0.64611 2.84576,1.43549 4.30678,1.75989 2.54551,0.54728 3.78575,-0.0625 31.89074,-16.28905 22.45239,-12.9629 29.71906,-17.4767 31.68148,-19.77754 1.42978,-1.56857 55.97201,-78.28157 56.70679,-79.76726 0.76804,-1.61111 22.50357,-32.364 23.58698,-34.90021 1.08349,-2.53647 3.563,-6.51593 5.44608,-8.77065 3.11961,-3.60595 5.73487,-5.32825 21.41943,-14.38362 9.7931,-5.65406 18.25384,-10.85728 18.83261,-11.50999 0.88476,-1.04153 -0.61071,-3.99973 -12.33252,-24.30239 l -13.2845,-23.00951 -38.71588,22.67096 c -38.23774,22.39528 -38.71542,22.67109 -42.75391,27.44417 -2.26852,2.68988 -5.46468,7.08269 -7.19743,9.7817 -1.60576,2.73346 -4.21797,7.95553 -5.63786,11.74761 -1.46599,3.7126 -3.14859,9.99198 -3.76893,14.06572 -0.58685,3.94793 -1.02571,10.35851 -0.88376,14.0982 3.36328,18.25464 3.37236,10.18234 2.86921,11.97291 -0.8009,2.85014 -3.77608,14.17776 -16.70683,26.99211 -5.96693,5.91329 -9.43906,9.49779 -13.21717,21.84876 -0.29046,1.3355 -1.53227,12.03229 -0.65865,13.54533 1.1491,1.99017 2.61348,3.05567 5.2509,3.76226 2.0888,0.49249 4.51748,0.47029 5.63235,-0.17333 1.11451,-0.64356 6.26817,-9.20109 18.16804,-25.73165 14.2111,-19.88211 20.31679,-20.56931 21.53566,-20.84824 0.98009,-0.14139 9.23836,-5.36786 10.12072,-4.39105 3.42463,-1.35415 -24.39857,41.56241 -45.06604,62.23182 -4.93231,4.93279 -15.32253,4.70163 -15.54145,3.22467 -2.28534,-1.0163 -3.48603,1.89975 -22.93428,13.44654 -14.6374,8.66332 -19.94718,12.15349 -21.03375,13.94885 -0.87258,1.24669 -1.26084,3.69995 -0.95694,5.3293 0.34956,1.70907 0.82475,3.45176 1.18039,3.88333 z m -30.48127,-54.44958 c 1.01135,1.75164 2.47574,2.81691 4.69015,3.34299 l 3.17348,0.71566 32.46268,-18.42387 32.54263,-18.4698 10.268,-14.20852 c 5.66659,-7.83667 10.15146,-14.77836 10.06843,-15.47357 -0.17475,-0.85438 -10.18534,4.60662 -46.17284,25.38384 -38.6941,22.3402 -46.08626,26.8203 -47.39967,28.95866 -0.90602,1.37249 -1.45669,3.17669 -1.40744,3.99752 0.17482,0.85433 0.94714,2.74399 1.77458,4.17709 z m 23.57131,-52.12415 c 0.45956,0.79639 1.55957,1.966 2.38367,2.65799 0.90378,0.64589 2.84592,1.43549 4.30694,1.75965 2.54537,0.54732 3.94483,-0.15431 29.40118,-14.53311 l 31.11877,-17.64798 c -0.48437,-10.43402 5.72456,-25.39786 5.92035,-24.43218 l -45.424,25.90208 c -18.31228,10.57249 -26.29545,15.50005 -27.31468,17.04402 -0.87265,1.24691 -1.52429,3.4278 -1.47173,4.9898 0.0987,1.6416 0.54025,3.5097 1.0795,4.25973 z"
       style="fill:#ecb279;fill-opacity:1;stroke-width:0.0867294" />
    <path
       id="path1"
       d="m 233.79728,492.26226 c -1.51698,2.6273 -2.68419,3.54569 -5.77779,4.30737 l -3.89319,1.04305 -21.22102,-12.88872 c -11.67936,-7.16765 -41.28171,-24.36405 -41.1233,-24.48565 3.28624,-2.52157 3.24383,-13.96545 2.4093,-17.08061 -0.29428,-1.09845 19.52328,10.63485 37.35776,20.93158 l 32.48418,18.75473 0.76152,3.09379 c 0.68539,2.30645 0.3817,3.93572 -0.99746,6.32446 z m -37.86467,15.75448 c -0.27584,0.47751 -1.23773,1.40873 -2.06172,2.10036 -0.9037,0.64611 -2.84576,1.43549 -4.30678,1.75989 -2.54551,0.54728 -3.78575,-0.0625 -31.89074,-16.28905 -22.45239,-12.9629 -29.71906,-17.4767 -31.68148,-19.77754 -1.42978,-1.56857 -55.97201,-78.28157 -56.706781,-79.76726 -0.768046,-1.61111 -22.503574,-32.364 -23.586982,-34.90021 -1.083494,-2.53647 -3.563004,-6.51593 -5.446078,-8.77065 -3.119615,-3.60595 -5.734872,-5.32825 -21.419435,-14.38362 C 9.0395096,332.3346 0.5787697,327.13138 0,326.47867 c -0.88475881,-1.04153 0.6107167,-3.99973 12.332525,-24.30239 l 13.284496,-23.00951 38.715889,22.67096 c 38.23773,22.39528 38.71541,22.67109 42.7539,27.44417 2.26852,2.68988 5.46468,7.08269 7.19743,9.7817 1.60576,2.73346 4.21797,7.95553 5.63786,11.74761 1.46599,3.7126 3.14859,9.99198 3.76893,14.06572 0.58685,3.94793 1.02571,10.35851 0.88376,14.0982 -3.36328,18.25464 -3.37236,10.18234 -2.86921,11.97291 0.8009,2.85014 3.77608,14.17776 16.70683,26.99211 5.96693,5.91329 9.43906,9.49779 13.21717,21.84876 0.29046,1.3355 1.53227,12.03229 0.65865,13.54533 -1.1491,1.99017 -2.61348,3.05567 -5.2509,3.76226 -2.0888,0.49249 -4.51748,0.47029 -5.63235,-0.17333 -1.11451,-0.64356 -6.26817,-9.20109 -18.16804,-25.73165 -14.2111,-19.88211 -20.31679,-20.56931 -21.53566,-20.84824 -0.98009,-0.14139 -9.238353,-5.36786 -10.120713,-4.39105 -3.424633,-1.35415 24.398563,41.56241 45.066033,62.23182 4.93231,4.93279 15.32253,4.70163 15.54145,3.22467 2.28534,-1.0163 3.48603,1.89975 22.93428,13.44654 14.6374,8.66332 19.94718,12.15349 21.03375,13.94885 0.87258,1.24669 1.26084,3.69995 0.95694,5.3293 -0.34956,1.70907 -0.82475,3.45176 -1.18039,3.88333 z m 30.48127,-54.44958 c -1.01135,1.75164 -2.47574,2.81691 -4.69015,3.34299 l -3.17348,0.71566 -32.46268,-18.42387 -32.54263,-18.4698 -10.268,-14.20852 c -5.66659,-7.83667 -10.15146,-14.77836 -10.06843,-15.47357 0.17475,-0.85438 10.18534,4.60662 46.17284,25.38384 38.6941,22.3402 46.08626,26.8203 47.39967,28.95866 0.90602,1.37249 1.45669,3.17669 1.40744,3.99752 -0.17482,0.85433 -0.94714,2.74399 -1.77458,4.17709 z m -23.57131,-52.12415 c -0.45956,0.79639 -1.55957,1.966 -2.38367,2.65799 -0.90378,0.64589 -2.84592,1.43549 -4.30694,1.75965 -2.54537,0.54732 -3.94483,-0.15431 -29.40118,-14.53311 l -31.11877,-17.64798 c 0.48437,-10.43402 -5.72456,-25.39786 -5.92035,-24.43218 l 45.424,25.90208 c 18.31228,10.57249 26.29545,15.50005 27.31468,17.04402 0.87265,1.24691 1.52429,3.4278 1.47173,4.9898 -0.0987,1.6416 -0.54025,3.5097 -1.0795,4.25973 z"
       style="fill:#ecb279;fill-opacity:1;stroke-width:0.0867294" />
    <path
       d="m 142.30588,65.237378 c 0,0 -4.05142,23.051982 -3.1315,34.593777 4.07836,51.169135 30.72913,112.790455 30.72913,112.790455 l 0.4356,2e-5 0.1942,58.00742 3.45251,18.09053 12.97657,-1e-5 6.90498,74.63873 c 39.47098,21.65861 80.6137,24.06444 124.05398,-2e-5 l 6.90502,-74.63871 12.97655,-10e-6 3.45253,-18.09051 0.19412,-58.00745 0.001,-3.94609 c 3.20606,-9.37171 27.55981,-61.10933 31.37658,-108.996637 0.90927,-11.407822 -3.09509,-34.191877 -3.09509,-34.191877 0,0 -16.53213,15.556564 -22.21467,25.207293 -24.39467,41.429781 -42.74266,98.609401 -43.07331,99.909541 l -3.79099,0.001 c 0.29992,-3.75963 16.83851,-117.248572 10.96542,-160.730409 -1.32468,-9.807303 -8.15115,-28.5478579 -8.15115,-28.5478579 0,0 -10.77208,17.5950599 -14.04735,27.2868849 -14.58366,43.154556 -33.73979,162.006212 -33.73979,162.006212 0,0 -19.50644,-120.178477 -34.09011,-163.333035 C 218.31519,17.59506 207.54308,0 207.54308,0 c 0,0 -6.82646,18.740568 -8.15113,28.547859 -5.87625,43.505138 11.024,158.416051 11.31707,162.088251 l -4.47206,0.001 C 203.47321,179.95024 188.08559,130.32097 164.77927,90.739532 159.03002,80.975477 142.30566,65.236883 142.30566,65.236883 Z m 47.8622,151.290302 h 131.45259 l 0.20905,54.10133 -2.23599,4e-5 c -19.48978,-15.97367 -41.69336,-23.9634 -63.43298,-23.90187 -21.50709,0.0609 -42.55512,8.01553 -60.08028,23.90186 h -6.12142 z m 118.12004,72.19192 -6.90501,57.44364 c -30.32576,14.07674 -60.65171,15.82375 -90.97743,-3e-5 l -6.90502,-57.44364 -2.2e-4,-0.0538 c 54.47776,-24.51933 58.79237,-16.64628 104.78766,0.0538 z"
       fill="#a3abc2"
       stroke-width="0.690501"
       id="path1-4"
       sodipodi:nodetypes="csccccccccccccsccccscscccsccscccccsccccccccsc"
       style="fill:#ecb279" />
  </g>
</svg>
