<?xml version="1.0" encoding="UTF-8" standalone="no"?>
<!-- Created with Inkscape (http://www.inkscape.org/) -->

<svg
   width="512"
   height="512"
   viewBox="0 0 512 512"
   version="1.1"
   id="svg1"
   inkscape:version="1.3.2 (091e20e, 2023-11-25, custom)"
   sodipodi:docname="KWD_KIT_SpellBoundType_Rapier1H_Normal_C.svg"
   xmlns:inkscape="http://www.inkscape.org/namespaces/inkscape"
   xmlns:sodipodi="http://sodipodi.sourceforge.net/DTD/sodipodi-0.dtd"
   xmlns="http://www.w3.org/2000/svg"
   xmlns:svg="http://www.w3.org/2000/svg">
  <sodipodi:namedview
     id="namedview1"
     pagecolor="#ffffff"
     bordercolor="#000000"
     borderopacity="0.25"
     inkscape:showpageshadow="2"
     inkscape:pageopacity="0.0"
     inkscape:pagecheckerboard="0"
     inkscape:deskcolor="#d1d1d1"
     inkscape:document-units="px"
     inkscape:zoom="1.1614781"
     inkscape:cx="280.67684"
     inkscape:cy="221.70026"
     inkscape:window-width="1920"
     inkscape:window-height="1009"
     inkscape:window-x="1042"
     inkscape:window-y="235"
     inkscape:window-maximized="1"
     inkscape:current-layer="layer1" />
  <defs
     id="defs1" />
  <g
     inkscape:label="Layer 1"
     inkscape:groupmode="layer"
     id="layer1">
    <path
       id="path1"
       d="m 254.53143,490.5312 c -1.65002,2.85772 -2.91961,3.85667 -6.28451,4.68514 l -4.23463,1.13453 -23.08218,-14.01909 c -12.70367,-7.79627 -44.90221,-26.50084 -44.72991,-26.6331 3.57445,-2.74272 3.52832,-15.19027 2.62061,-18.57863 -0.32011,-1.19479 21.23551,11.56755 40.63412,22.76734 l 35.33313,20.39957 0.82831,3.36512 c 0.7455,2.50872 0.41518,4.28089 -1.08494,6.87912 z m -41.1855,17.1362 c -0.30003,0.51939 -1.34629,1.53227 -2.24254,2.28456 -0.98296,0.70278 -3.09535,1.56139 -4.68449,1.91424 -2.76876,0.59528 -4.11779,-0.0679 -34.68765,-17.71764 C 147.30973,480.04878 139.40576,475.1391 137.27123,472.63647 135.71605,470.93034 76.390317,387.4894 75.591102,385.87342 74.755694,384.121 51.113907,350.67101 49.935477,347.91236 c -1.178522,-2.75892 -3.875482,-7.0874 -5.92371,-9.53985 -3.393215,-3.92221 -6.237843,-5.79556 -23.297981,-15.6451 C 10.061812,316.57746 0.85903918,310.91791 0.22950533,310.20796 -0.73284188,309.07508 0.89378408,305.85744 13.643632,283.77418 l 14.44958,-25.02751 42.111374,24.65926 c 41.591284,24.35941 42.110864,24.65941 46.503534,29.85111 2.46748,2.92579 5.94395,7.70385 7.82867,10.63958 1.74658,2.97319 4.5879,8.65325 6.13231,12.7779 1.59456,4.0382 3.42473,10.86831 4.09948,15.29932 0.63832,4.29418 1.11567,11.26699 0.96127,15.33465 -3.65826,19.85563 -3.66814,11.07537 -3.12085,13.02297 0.87114,3.10011 4.10725,15.42119 18.17206,29.35939 6.49024,6.4319 10.26689,10.33077 14.37635,23.76495 0.31592,1.45263 1.66665,13.08756 0.7164,14.7333 -1.24987,2.16472 -2.84268,3.32366 -5.71141,4.09222 -2.272,0.53568 -4.91367,0.51153 -6.12631,-0.18854 -1.21225,-0.7 -6.8179,-10.00804 -19.76143,-27.98838 -15.45745,-21.62582 -22.09863,-22.37329 -23.42439,-22.67668 -1.06604,-0.15379 -10.04859,-5.83864 -11.008345,-4.77617 -3.724972,-1.47291 26.538405,45.20755 49.018465,67.68973 5.36488,5.36541 16.66634,5.11397 16.90446,3.50747 2.48578,-1.10542 3.79177,2.06637 24.94568,14.62585 15.92114,9.42311 21.6966,13.21938 22.87846,15.17219 0.94911,1.35604 1.37142,4.02445 1.04087,5.79669 -0.38022,1.85896 -0.89708,3.7545 -1.28391,4.22392 z m 33.15456,-59.22496 c -1.10005,1.90527 -2.69288,3.06396 -5.1015,3.63618 l -3.45179,0.77843 -35.30975,-20.03969 -35.39671,-20.08965 -11.16852,-15.45464 c -6.16356,-8.52398 -11.04177,-16.07447 -10.95145,-16.83066 0.19008,-0.92931 11.07861,5.01064 50.22231,27.61008 42.08767,24.2995 50.12815,29.17251 51.55675,31.49841 0.98548,1.49286 1.58444,3.45529 1.53087,4.34812 -0.19016,0.92925 -1.03021,2.98463 -1.93021,4.54342 z m -25.63858,-56.69557 c -0.49987,0.86623 -1.69635,2.13842 -2.59273,2.8911 -0.98304,0.70254 -3.09552,1.56139 -4.68466,1.91397 -2.7686,0.59533 -4.2908,-0.16783 -31.97975,-15.8077 l -33.84796,-19.19576 c 0.52685,-11.3491 -6.22662,-27.62532 -6.43958,-26.57493 l 49.4078,28.17376 c 19.91831,11.49972 28.60163,16.85943 29.71025,18.53881 0.94919,1.35628 1.65797,3.72843 1.6008,5.42743 -0.10734,1.78557 -0.58763,3.81751 -1.17418,4.63332 z"
       style="fill:#ecb279;stroke-width:0.0943358;fill-opacity:1" />
    <path
       id="path2"
       d="m 257.46857,21.468802 c 1.65002,-2.85772 2.91961,-3.85667 6.28451,-4.68514 l 4.23463,-1.13453 23.08218,14.01909 c 12.70367,7.79627 44.90221,26.50084 44.72991,26.6331 -3.57445,2.74272 -3.52832,15.19027 -2.62061,18.57863 0.32011,1.19479 -21.23551,-11.56755 -40.63412,-22.76734 l -35.33313,-20.39957 -0.82831,-3.36512 c -0.7455,-2.50872 -0.41518,-4.28089 1.08494,-6.87912 z m 41.1855,-17.1362002 c 0.30003,-0.51939 1.34629,-1.53227 2.24254,-2.28456 0.98296,-0.70278 3.09535,-1.56138998 4.68449,-1.91423998 2.76876,-0.59528 4.11779,0.0679 34.68765,17.71764018 24.42152,14.09978 32.32549,19.00946 34.46002,21.51209 1.55518,1.70613 60.88091,85.147068 61.68013,86.763048 0.8354,1.75242 24.47719,35.20241 25.65562,37.96106 1.17852,2.75892 3.87548,7.0874 5.92371,9.53985 3.39322,3.92221 6.23784,5.79556 23.29798,15.6451 10.65198,6.14995 19.85475,11.8095 20.48428,12.51945 0.96235,1.13288 -0.66428,4.35052 -13.41412,26.43378 l -14.44958,25.02751 -42.11138,-24.65926 c -41.59128,-24.35941 -42.11086,-24.65941 -46.50353,-29.85111 -2.46748,-2.92579 -5.94395,-7.70385 -7.82867,-10.63958 -1.74658,-2.97319 -4.5879,-8.65325 -6.13231,-12.7779 -1.59456,-4.0382 -3.42473,-10.86831 -4.09948,-15.29932 -0.63832,-4.29418 -1.11567,-11.26699 -0.96127,-15.33465 3.65826,-19.85563 3.66814,-11.07537 3.12085,-13.02297 -0.87114,-3.10011 -4.10725,-15.42119 -18.17206,-29.35939 -6.49024,-6.431898 -10.26689,-10.330768 -14.37635,-23.764948 -0.31592,-1.45263 -1.66665,-13.08756 -0.7164,-14.7333 1.24987,-2.16472 2.84268,-3.32366 5.71141,-4.09222 2.272,-0.53568 4.91367,-0.51153 6.12631,0.18854 1.21225,0.7 6.8179,10.00804 19.76143,27.98838 15.45745,21.625818 22.09863,22.373288 23.42439,22.676678 1.06604,0.15379 10.04859,5.83864 11.00834,4.77617 3.72498,1.47291 -26.5384,-45.207548 -49.01846,-67.689728 -5.36488,-5.36541 -16.66634,-5.11397 -16.90446,-3.50747 -2.48578,1.10542 -3.79177,-2.06637 -24.94568,-14.62585 -15.92114,-9.42311 -21.6966,-13.21938 -22.87846,-15.17219 -0.94911,-1.35604 -1.37142,-4.02445 -1.04087,-5.7966902 0.38022,-1.85896 0.89708,-3.7545 1.28391,-4.22392 z M 265.49951,63.557562 c 1.10005,-1.90527 2.69288,-3.06396 5.1015,-3.63618 l 3.45179,-0.77843 35.30975,20.03969 35.39671,20.08965 11.16852,15.454638 c 6.16356,8.52398 11.04177,16.07447 10.95145,16.83066 -0.19008,0.92931 -11.07861,-5.01064 -50.22231,-27.61008 -42.08767,-24.299498 -50.12815,-29.172508 -51.55675,-31.498408 -0.98548,-1.49286 -1.58444,-3.45529 -1.53087,-4.34812 0.19016,-0.92925 1.03021,-2.98463 1.93021,-4.54342 z m 25.63858,56.695568 c 0.49987,-0.86623 1.69635,-2.13842 2.59273,-2.8911 0.98304,-0.70254 3.09552,-1.56139 4.68466,-1.91397 2.7686,-0.59533 4.2908,0.16783 31.97975,15.8077 l 33.84796,19.19576 c -0.52685,11.3491 6.22662,27.62532 6.43958,26.57493 l -49.4078,-28.17376 c -19.91831,-11.49972 -28.60163,-16.85943 -29.71025,-18.53881 -0.94919,-1.35628 -1.65797,-3.72843 -1.6008,-5.42743 0.10734,-1.78557 0.58763,-3.81751 1.17418,-4.63332 z"
       style="fill:#ecb279;stroke-width:0.0943358;fill-opacity:1" />
    <path
       d="m 478.58769,481.33494 c 0,-12.43373 0.0147,-20.17237 -10.48124,-31.24732 l -265.95136,-281.219 c -7.42216,16.49642 -20.32766,27.50962 -35.87792,35.87793 l 281.21897,265.95137 c 11.07495,10.49602 15.75834,10.63702 31.09155,10.63702 z M 178.44423,181.91154 c 36.79079,-36.54545 21.81244,-128.90918 -8.75082,-131.16019 -5.36667,-0.3953 -11.53633,4.292219 -15.49622,12.772689 -18.93501,43.825281 -49.76191,75.758731 -94.140467,94.140461 -7.34086,4.73265 -13.335035,10.03737 -12.772715,15.49623 3.14006,30.48476 94.614792,45.54159 131.160222,8.75081 z m -69.3836,-70.10174 c 4.33311,-4.2365 7.04258,-10.0973 7.98168,-17.727751 L 59.738713,36.77836 c -9.812135,-9.8121 -20.818275,-9.35421 -27.939735,-2.23271 -7.12146,7.12142 -7.58064,18.1288 2.23147,27.940909 l 57.303711,57.303691 c 7.437315,-1.13232 13.393351,-3.74394 17.726471,-7.98045 z"
       fill="#a3abc2"
       stroke-width="0.984488"
       id="path1-0"
       style="fill:#ecb279" />
  </g>
</svg>
